<svg width="202" height="21" viewBox="0 0 202 21" fill="none" xmlns="http://www.w3.org/2000/svg">
<path d="M14.336 9.892C16.3893 10.7693 17.416 12.2533 17.416 14.344C17.416 16.192 16.6973 17.648 15.26 18.712C13.8413 19.7573 11.9187 20.28 9.492 20.28C7.196 20.28 5.264 19.72 3.696 18.6C2.128 17.4613 1.176 15.884 0.84 13.868H3.696C4.16267 15.1933 4.872 16.164 5.824 16.78C6.79467 17.396 8.01733 17.704 9.492 17.704C11.0973 17.704 12.3387 17.396 13.216 16.78C14.0933 16.164 14.532 15.3427 14.532 14.316C14.532 13.476 14.1867 12.7947 13.496 12.272C12.824 11.7307 11.6853 11.46 10.08 11.46H6.944V8.912H10.08C11.3493 8.912 12.32 8.61333 12.992 8.016C13.6827 7.41867 14.028 6.7 14.028 5.86C14.028 4.852 13.608 4.068 12.768 3.508C11.928 2.948 10.752 2.668 9.24 2.668C7.91467 2.668 6.76667 2.976 5.796 3.592C4.82533 4.18933 4.228 5.08533 4.004 6.28H1.12C1.344 4.97333 1.848 3.85333 2.632 2.92C3.416 1.98667 4.37733 1.28667 5.516 0.819998C6.67333 0.353332 7.90533 0.119999 9.212 0.119999C10.7613 0.119999 12.1147 0.353332 13.272 0.819998C14.448 1.268 15.3533 1.90267 15.988 2.724C16.6413 3.54533 16.968 4.49733 16.968 5.58C16.968 6.49467 16.744 7.32533 16.296 8.072C15.8667 8.8 15.2133 9.40667 14.336 9.892ZM33.0991 6V20H30.4391V17.9C29.8604 18.6467 29.1604 19.2347 28.3391 19.664C27.5177 20.0747 26.6404 20.28 25.7071 20.28C24.4751 20.28 23.3551 19.972 22.3471 19.356C21.3391 18.7213 20.5457 17.8533 19.9671 16.752C19.3884 15.6507 19.0991 14.4 19.0991 13C19.0991 11.6 19.3884 10.3493 19.9671 9.248C20.5457 8.14667 21.3391 7.288 22.3471 6.672C23.3551 6.03733 24.4751 5.72 25.7071 5.72C26.6777 5.72 27.5831 5.944 28.4231 6.392C29.2631 6.84 29.9817 7.46533 30.5791 8.268V6H33.0991ZM26.1551 17.816C26.9764 17.816 27.7231 17.6107 28.3951 17.2C29.0671 16.7893 29.5897 16.22 29.9631 15.492C30.3364 14.7453 30.5231 13.9147 30.5231 13C30.5231 12.0853 30.3364 11.264 29.9631 10.536C29.5897 9.78933 29.0671 9.21067 28.3951 8.8C27.7231 8.38933 26.9764 8.184 26.1551 8.184C25.3337 8.184 24.5964 8.38933 23.9431 8.8C23.2897 9.21067 22.7764 9.78933 22.4031 10.536C22.0297 11.264 21.8431 12.0853 21.8431 13C21.8431 13.9147 22.0297 14.7453 22.4031 15.492C22.7764 16.22 23.2897 16.7893 23.9431 17.2C24.5964 17.6107 25.3337 17.816 26.1551 17.816ZM54.5256 20H51.8656V9.22L45.8456 20L39.8256 9.276V20H37.1656V6H40.8056L45.9016 15.156L50.9416 6H54.5256V20ZM64.5013 5.72C65.9386 5.72 67.1893 6.028 68.2533 6.644C69.3359 7.26 70.1666 8.13733 70.7453 9.276C71.3239 10.396 71.6133 11.712 71.6133 13.224C71.6133 13.616 71.604 13.9053 71.5853 14.092H60.1053C60.2919 15.1747 60.7959 16.0707 61.6173 16.78C62.4573 17.4707 63.428 17.816 64.5293 17.816C66.34 17.816 67.628 17.1533 68.3933 15.828H71.1373C70.6893 17.1347 69.8586 18.208 68.6453 19.048C67.4319 19.8693 66.06 20.28 64.5293 20.28C63.1666 20.28 61.9346 19.972 60.8333 19.356C59.7319 18.7213 58.8733 17.8533 58.2573 16.752C57.6413 15.632 57.3333 14.3813 57.3333 13C57.3333 11.6187 57.6413 10.3773 58.2573 9.276C58.8733 8.156 59.7226 7.288 60.8053 6.672C61.9066 6.03733 63.1386 5.72 64.5013 5.72ZM64.4453 8.072C63.3439 8.072 62.3919 8.41733 61.5893 9.108C60.8053 9.79867 60.3199 10.6853 60.1333 11.768H68.7293C68.6173 10.648 68.16 9.752 67.3573 9.08C66.5733 8.408 65.6026 8.072 64.4453 8.072ZM85.3355 6V20H82.6755V14.568H78.1955C76.7581 14.568 75.6288 14.148 74.8075 13.308C73.9861 12.468 73.5755 11.3947 73.5755 10.088V6H76.2355V10.004C76.2355 10.732 76.4221 11.2733 76.7955 11.628C77.1875 11.9827 77.7941 12.16 78.6155 12.16H82.6755V6H85.3355ZM102.13 6V20H99.47V17.9C98.8913 18.6467 98.1913 19.2347 97.37 19.664C96.5487 20.0747 95.6713 20.28 94.738 20.28C93.506 20.28 92.386 19.972 91.378 19.356C90.37 18.7213 89.5767 17.8533 88.998 16.752C88.4193 15.6507 88.13 14.4 88.13 13C88.13 11.6 88.4193 10.3493 88.998 9.248C89.5767 8.14667 90.37 7.288 91.378 6.672C92.386 6.03733 93.506 5.72 94.738 5.72C95.7087 5.72 96.614 5.944 97.454 6.392C98.294 6.84 99.0127 7.46533 99.61 8.268V6H102.13ZM95.186 17.816C96.0073 17.816 96.754 17.6107 97.426 17.2C98.098 16.7893 98.6207 16.22 98.994 15.492C99.3673 14.7453 99.554 13.9147 99.554 13C99.554 12.0853 99.3673 11.264 98.994 10.536C98.6207 9.78933 98.098 9.21067 97.426 8.8C96.754 8.38933 96.0073 8.184 95.186 8.184C94.3647 8.184 93.6273 8.38933 92.974 8.8C92.3207 9.21067 91.8073 9.78933 91.434 10.536C91.0607 11.264 90.874 12.0853 90.874 13C90.874 13.9147 91.0607 14.7453 91.434 15.492C91.8073 16.22 92.3207 16.7893 92.974 17.2C93.6273 17.6107 94.3647 17.816 95.186 17.816ZM116.837 8.52H111.937V20H109.277V8.52H104.377V6H116.837V8.52ZM124.427 5.72C125.864 5.72 127.115 6.028 128.179 6.644C129.261 7.26 130.092 8.13733 130.671 9.276C131.249 10.396 131.539 11.712 131.539 13.224C131.539 13.616 131.529 13.9053 131.511 14.092H120.031C120.217 15.1747 120.721 16.0707 121.543 16.78C122.383 17.4707 123.353 17.816 124.455 17.816C126.265 17.816 127.553 17.1533 128.319 15.828H131.063C130.615 17.1347 129.784 18.208 128.571 19.048C127.357 19.8693 125.985 20.28 124.455 20.28C123.092 20.28 121.86 19.972 120.759 19.356C119.657 18.7213 118.799 17.8533 118.183 16.752C117.567 15.632 117.259 14.3813 117.259 13C117.259 11.6187 117.567 10.3773 118.183 9.276C118.799 8.156 119.648 7.288 120.731 6.672C121.832 6.03733 123.064 5.72 124.427 5.72ZM124.371 8.072C123.269 8.072 122.317 8.41733 121.515 9.108C120.731 9.79867 120.245 10.6853 120.059 11.768H128.655C128.543 10.648 128.085 9.752 127.283 9.08C126.499 8.408 125.528 8.072 124.371 8.072ZM146.556 20.028H143.896V8.52H137.903V11.068C137.903 13.0653 137.791 14.6987 137.567 15.968C137.362 17.2373 136.923 18.2547 136.251 19.02C135.579 19.7667 134.581 20.14 133.255 20.14C132.901 20.14 132.518 20.0933 132.107 20V17.536C132.443 17.592 132.742 17.62 133.003 17.62C133.601 17.62 134.049 17.4333 134.347 17.06C134.665 16.6867 134.889 16.024 135.019 15.072C135.15 14.1013 135.215 12.6827 135.215 10.816V6H146.556V20.028ZM157.544 11.544C159.019 11.544 160.167 11.9453 160.988 12.748C161.828 13.532 162.248 14.54 162.248 15.772C162.248 17.004 161.828 18.0213 160.988 18.824C160.167 19.608 159.019 20 157.544 20H150.628V6H153.288V11.544H157.544ZM157.18 17.676C157.945 17.676 158.524 17.5173 158.916 17.2C159.308 16.8827 159.504 16.4067 159.504 15.772C159.504 15.1373 159.308 14.6613 158.916 14.344C158.524 14.0267 157.945 13.868 157.18 13.868H153.288V17.676H157.18ZM177.519 6V20H174.859V14.26H167.579V20H164.919V6H167.579V11.74H174.859V6H177.519ZM187.777 20.28C186.395 20.28 185.135 19.9627 183.997 19.328C182.858 18.6747 181.962 17.7973 181.309 16.696C180.655 15.576 180.329 14.344 180.329 13C180.329 11.656 180.655 10.4333 181.309 9.332C181.962 8.212 182.858 7.33467 183.997 6.7C185.135 6.04667 186.395 5.72 187.777 5.72C189.139 5.72 190.381 6.04667 191.501 6.7C192.639 7.33467 193.535 8.212 194.189 9.332C194.842 10.4333 195.169 11.656 195.169 13C195.169 14.344 194.842 15.576 194.189 16.696C193.535 17.7973 192.639 18.6747 191.501 19.328C190.381 19.9627 189.139 20.28 187.777 20.28ZM187.777 17.816C188.635 17.816 189.419 17.6107 190.129 17.2C190.838 16.7707 191.398 16.192 191.809 15.464C192.219 14.7173 192.425 13.896 192.425 13C192.425 12.104 192.219 11.292 191.809 10.564C191.398 9.81733 190.838 9.23867 190.129 8.828C189.419 8.39867 188.635 8.184 187.777 8.184C186.899 8.184 186.097 8.39867 185.369 8.828C184.659 9.23867 184.099 9.81733 183.689 10.564C183.278 11.292 183.073 12.104 183.073 13C183.073 13.896 183.278 14.7173 183.689 15.464C184.099 16.192 184.659 16.7707 185.369 17.2C186.097 17.6107 186.899 17.816 187.777 17.816ZM201.178 0.399999V14.12H198.378V0.399999H201.178ZM201.318 16.92V20H198.238V16.92H201.318Z" fill="white"/>
</svg>
