<svg width="328" height="98" viewBox="0 0 328 98" fill="none" xmlns="http://www.w3.org/2000/svg">
<path opacity="0.8" d="M13.8 11H12.3V2.375L8.31 11H6.81L2.85 2.45V11H1.35V0.499999H3.54L7.605 9.23L11.655 0.499999H13.8V11ZM19.8265 6.47C20.6165 6.47 21.2315 6.685 21.6715 7.115C22.1215 7.535 22.3465 8.075 22.3465 8.735C22.3465 9.395 22.1215 9.94 21.6715 10.37C21.2315 10.79 20.6165 11 19.8265 11H16.1215V3.5H17.5465V6.47H19.8265ZM19.6315 9.755C20.0415 9.755 20.3515 9.67 20.5615 9.5C20.7715 9.33 20.8765 9.075 20.8765 8.735C20.8765 8.395 20.7715 8.14 20.5615 7.97C20.3515 7.8 20.0415 7.715 19.6315 7.715H17.5465V9.755H19.6315ZM25.1215 3.5V11H23.6965V3.5H25.1215ZM30.5971 7.25C30.5971 6.53 30.7721 5.875 31.1221 5.285C31.4721 4.685 31.9521 4.215 32.5621 3.875C33.1721 3.525 33.8471 3.35 34.5871 3.35C35.4171 3.35 36.1621 3.595 36.8221 4.085C37.4921 4.565 37.9321 5.195 38.1421 5.975H36.5821C36.4121 5.575 36.1371 5.26 35.7571 5.03C35.3871 4.79 34.9721 4.67 34.5121 4.67C34.0421 4.67 33.6221 4.785 33.2521 5.015C32.8821 5.235 32.5921 5.545 32.3821 5.945C32.1721 6.335 32.0671 6.77 32.0671 7.25C32.0671 7.73 32.1721 8.17 32.3821 8.57C32.5921 8.96 32.8821 9.27 33.2521 9.5C33.6221 9.72 34.0421 9.83 34.5121 9.83C34.9721 9.83 35.3871 9.715 35.7571 9.485C36.1371 9.245 36.4121 8.925 36.5821 8.525H38.1421C37.9321 9.305 37.4921 9.94 36.8221 10.43C36.1621 10.91 35.4171 11.15 34.5871 11.15C33.8471 11.15 33.1721 10.98 32.5621 10.64C31.9521 10.29 31.4721 9.82 31.1221 9.23C30.7721 8.63 30.5971 7.97 30.5971 7.25ZM44.9062 4.85H42.2812V11H40.8562V4.85H38.2312V3.5H44.9062V4.85ZM50.0604 3.35C50.7204 3.35 51.3204 3.52 51.8604 3.86C52.4004 4.19 52.8254 4.65 53.1354 5.24C53.4454 5.83 53.6004 6.5 53.6004 7.25C53.6004 8 53.4454 8.67 53.1354 9.26C52.8254 9.85 52.4004 10.315 51.8604 10.655C51.3204 10.985 50.7204 11.15 50.0604 11.15C49.5604 11.15 49.0904 11.04 48.6504 10.82C48.2104 10.59 47.8354 10.275 47.5254 9.875V13.55H46.1004V3.5H47.4504V4.715C47.7704 4.285 48.1554 3.95 48.6054 3.71C49.0554 3.47 49.5404 3.35 50.0604 3.35ZM49.8204 9.83C50.2604 9.83 50.6554 9.72 51.0054 9.5C51.3554 9.28 51.6304 8.975 51.8304 8.585C52.0304 8.185 52.1304 7.74 52.1304 7.25C52.1304 6.76 52.0304 6.32 51.8304 5.93C51.6304 5.53 51.3554 5.22 51.0054 5C50.6554 4.78 50.2604 4.67 49.8204 4.67C49.3804 4.67 48.9804 4.78 48.6204 5C48.2604 5.22 47.9804 5.53 47.7804 5.93C47.5804 6.32 47.4804 6.76 47.4804 7.25C47.4804 7.74 47.5804 8.185 47.7804 8.585C47.9804 8.975 48.2604 9.28 48.6204 9.5C48.9804 9.72 49.3804 9.83 49.8204 9.83ZM58.3422 3.35C59.1122 3.35 59.7822 3.515 60.3522 3.845C60.9322 4.175 61.3772 4.645 61.6871 5.255C61.9972 5.855 62.1522 6.56 62.1522 7.37C62.1522 7.58 62.1472 7.735 62.1372 7.835H55.9872C56.0872 8.415 56.3572 8.895 56.7972 9.275C57.2472 9.645 57.7672 9.83 58.3572 9.83C59.3272 9.83 60.0172 9.475 60.4272 8.765H61.8971C61.6572 9.465 61.2122 10.04 60.5622 10.49C59.9122 10.93 59.1772 11.15 58.3572 11.15C57.6272 11.15 56.9672 10.985 56.3772 10.655C55.7872 10.315 55.3272 9.85 54.9972 9.26C54.6671 8.66 54.5021 7.99 54.5021 7.25C54.5021 6.51 54.6671 5.845 54.9972 5.255C55.3272 4.655 55.7822 4.19 56.3622 3.86C56.9522 3.52 57.6122 3.35 58.3422 3.35ZM58.3122 4.61C57.7222 4.61 57.2122 4.795 56.7822 5.165C56.3622 5.535 56.1022 6.01 56.0022 6.59H60.6072C60.5472 5.99 60.3022 5.51 59.8722 5.15C59.4522 4.79 58.9322 4.61 58.3122 4.61ZM72.9533 11H71.5283V5.525L69.0083 11H67.5983L65.0783 5.57V11H63.6533V3.5H65.6033L68.3333 9.515L71.0333 3.5H72.9533V11ZM81.8824 3.5V11H80.4574V6.38L76.5574 9.68V11H75.1324V3.5H76.5574V8.03L80.4574 4.73V3.5H81.8824ZM93.3627 11H91.9377V5.525L89.4177 11H88.0077L85.4877 5.57V11H84.0627V3.5H86.0127L88.7427 9.515L91.4427 3.5H93.3627V11ZM94.8668 7.25C94.8668 6.53 95.0418 5.875 95.3918 5.285C95.7418 4.685 96.2218 4.215 96.8318 3.875C97.4418 3.525 98.1168 3.35 98.8568 3.35C99.6868 3.35 100.432 3.595 101.092 4.085C101.762 4.565 102.202 5.195 102.412 5.975H100.852C100.682 5.575 100.407 5.26 100.027 5.03C99.6568 4.79 99.2418 4.67 98.7818 4.67C98.3118 4.67 97.8918 4.785 97.5218 5.015C97.1518 5.235 96.8618 5.545 96.6518 5.945C96.4418 6.335 96.3368 6.77 96.3368 7.25C96.3368 7.73 96.4418 8.17 96.6518 8.57C96.8618 8.96 97.1518 9.27 97.5218 9.5C97.8918 9.72 98.3118 9.83 98.7818 9.83C99.2418 9.83 99.6568 9.715 100.027 9.485C100.407 9.245 100.682 8.925 100.852 8.525H102.412C102.202 9.305 101.762 9.94 101.092 10.43C100.432 10.91 99.6868 11.15 98.8568 11.15C98.1168 11.15 97.4418 10.98 96.8318 10.64C96.2218 10.29 95.7418 9.82 95.3918 9.23C95.0418 8.63 94.8668 7.97 94.8668 7.25ZM109.709 11H108.284V8.18H105.824C105.364 8.18 105.134 8.415 105.134 8.885V9.485C105.134 9.985 105.009 10.365 104.759 10.625C104.519 10.875 104.164 11 103.694 11H103.064V9.635H103.349C103.459 9.635 103.544 9.605 103.604 9.545C103.674 9.475 103.709 9.385 103.709 9.275V8.66C103.709 8.1 103.974 7.705 104.504 7.475C104.174 7.285 103.919 7.035 103.739 6.725C103.569 6.415 103.484 6.07 103.484 5.69C103.484 5.05 103.704 4.525 104.144 4.115C104.594 3.705 105.214 3.5 106.004 3.5H109.709V11ZM106.199 4.775C105.789 4.775 105.479 4.87 105.269 5.06C105.059 5.24 104.954 5.505 104.954 5.855C104.954 6.205 105.059 6.475 105.269 6.665C105.479 6.845 105.789 6.935 106.199 6.935H108.284V4.775H106.199ZM115.183 7.25C115.183 6.53 115.358 5.875 115.708 5.285C116.058 4.685 116.538 4.215 117.148 3.875C117.758 3.525 118.433 3.35 119.173 3.35C120.003 3.35 120.748 3.595 121.408 4.085C122.078 4.565 122.518 5.195 122.728 5.975H121.168C120.998 5.575 120.723 5.26 120.343 5.03C119.973 4.79 119.558 4.67 119.098 4.67C118.628 4.67 118.208 4.785 117.838 5.015C117.468 5.235 117.178 5.545 116.968 5.945C116.758 6.335 116.653 6.77 116.653 7.25C116.653 7.73 116.758 8.17 116.968 8.57C117.178 8.96 117.468 9.27 117.838 9.5C118.208 9.72 118.628 9.83 119.098 9.83C119.558 9.83 119.973 9.715 120.343 9.485C120.723 9.245 120.998 8.925 121.168 8.525H122.728C122.518 9.305 122.078 9.94 121.408 10.43C120.748 10.91 120.003 11.15 119.173 11.15C118.433 11.15 117.758 10.98 117.148 10.64C116.538 10.29 116.058 9.82 115.708 9.23C115.358 8.63 115.183 7.97 115.183 7.25ZM131.259 9.65V12.65H129.879V11H124.269V12.65H122.889V9.65H123.819C124.239 9.09 124.564 8.35 124.794 7.43C125.024 6.5 125.139 5.47 125.139 4.34V3.5H130.209V9.65H131.259ZM128.814 9.695V4.775H126.474C126.404 6.875 126.004 8.515 125.274 9.695H128.814ZM135.624 3.35C136.394 3.35 137.064 3.515 137.634 3.845C138.214 4.175 138.659 4.645 138.969 5.255C139.279 5.855 139.434 6.56 139.434 7.37C139.434 7.58 139.429 7.735 139.419 7.835H133.269C133.369 8.415 133.639 8.895 134.079 9.275C134.529 9.645 135.049 9.83 135.639 9.83C136.609 9.83 137.299 9.475 137.709 8.765H139.179C138.939 9.465 138.494 10.04 137.844 10.49C137.194 10.93 136.459 11.15 135.639 11.15C134.909 11.15 134.249 10.985 133.659 10.655C133.069 10.315 132.609 9.85 132.279 9.26C131.949 8.66 131.784 7.99 131.784 7.25C131.784 6.51 131.949 5.845 132.279 5.255C132.609 4.655 133.064 4.19 133.644 3.86C134.234 3.52 134.894 3.35 135.624 3.35ZM135.594 4.61C135.004 4.61 134.494 4.795 134.064 5.165C133.644 5.535 133.384 6.01 133.284 6.59H137.889C137.829 5.99 137.584 5.51 137.154 5.15C136.734 4.79 136.214 4.61 135.594 4.61ZM147.343 11H145.918V4.85H143.293C143.283 6.31 143.168 7.495 142.948 8.405C142.728 9.305 142.388 9.97 141.928 10.4C141.478 10.83 140.888 11.045 140.158 11.045C139.988 11.045 139.848 11.03 139.738 11V9.695C139.878 9.715 139.983 9.725 140.053 9.725C140.493 9.725 140.843 9.56 141.103 9.23C141.373 8.89 141.568 8.355 141.688 7.625C141.808 6.885 141.868 5.905 141.868 4.685V3.5H147.343V11ZM156.264 9.65V11H155.544C155.174 11 154.884 10.91 154.674 10.73C154.464 10.54 154.339 10.27 154.299 9.92C153.979 10.29 153.564 10.59 153.054 10.82C152.554 11.04 152.024 11.15 151.464 11.15C150.654 11.15 150.024 10.95 149.574 10.55C149.134 10.15 148.914 9.615 148.914 8.945C148.914 8.335 149.154 7.815 149.634 7.385C150.114 6.945 150.789 6.68 151.659 6.59L152.499 6.5C152.969 6.45 153.319 6.39 153.549 6.32C153.779 6.24 153.924 6.155 153.984 6.065C154.054 5.975 154.089 5.855 154.089 5.705C154.089 5.365 153.924 5.1 153.594 4.91C153.274 4.71 152.829 4.61 152.259 4.61C151.889 4.61 151.534 4.71 151.194 4.91C150.854 5.1 150.619 5.375 150.489 5.735H148.974C149.114 5.035 149.494 4.465 150.114 4.025C150.734 3.575 151.474 3.35 152.334 3.35C153.284 3.35 154.064 3.61 154.674 4.13C155.284 4.65 155.589 5.395 155.589 6.365V9.245C155.589 9.375 155.624 9.475 155.694 9.545C155.764 9.615 155.859 9.65 155.979 9.65H156.264ZM151.614 9.92C152.084 9.92 152.524 9.825 152.934 9.635C153.344 9.435 153.669 9.175 153.909 8.855C154.159 8.525 154.284 8.175 154.284 7.805V7.13C153.944 7.39 153.404 7.56 152.664 7.64L151.824 7.73C151.264 7.79 150.874 7.925 150.654 8.135C150.434 8.345 150.324 8.61 150.324 8.93C150.324 9.23 150.434 9.47 150.654 9.65C150.884 9.83 151.204 9.92 151.614 9.92ZM163.455 4.85H160.83V11H159.405V4.85H156.78V3.5H163.455V4.85ZM168.355 6.47C169.145 6.47 169.76 6.685 170.2 7.115C170.65 7.535 170.875 8.075 170.875 8.735C170.875 9.395 170.65 9.94 170.2 10.37C169.76 10.79 169.145 11 168.355 11H164.65V3.5H166.075V6.47H168.355ZM168.16 9.755C168.57 9.755 168.88 9.67 169.09 9.5C169.3 9.33 169.405 9.075 169.405 8.735C169.405 8.395 169.3 8.14 169.09 7.97C168.88 7.8 168.57 7.715 168.16 7.715H166.075V9.755H168.16ZM183.035 3.5V11H181.61V7.925H177.71V11H176.285V3.5H177.71V6.575H181.61V3.5H183.035ZM191.965 9.65V11H191.245C190.875 11 190.585 10.91 190.375 10.73C190.165 10.54 190.04 10.27 190 9.92C189.68 10.29 189.265 10.59 188.755 10.82C188.255 11.04 187.725 11.15 187.165 11.15C186.355 11.15 185.725 10.95 185.275 10.55C184.835 10.15 184.615 9.615 184.615 8.945C184.615 8.335 184.855 7.815 185.335 7.385C185.815 6.945 186.49 6.68 187.36 6.59L188.2 6.5C188.67 6.45 189.02 6.39 189.25 6.32C189.48 6.24 189.625 6.155 189.685 6.065C189.755 5.975 189.79 5.855 189.79 5.705C189.79 5.365 189.625 5.1 189.295 4.91C188.975 4.71 188.53 4.61 187.96 4.61C187.59 4.61 187.235 4.71 186.895 4.91C186.555 5.1 186.32 5.375 186.19 5.735H184.675C184.815 5.035 185.195 4.465 185.815 4.025C186.435 3.575 187.175 3.35 188.035 3.35C188.985 3.35 189.765 3.61 190.375 4.13C190.985 4.65 191.29 5.395 191.29 6.365V9.245C191.29 9.375 191.325 9.475 191.395 9.545C191.465 9.615 191.56 9.65 191.68 9.65H191.965ZM187.315 9.92C187.785 9.92 188.225 9.825 188.635 9.635C189.045 9.435 189.37 9.175 189.61 8.855C189.86 8.525 189.985 8.175 189.985 7.805V7.13C189.645 7.39 189.105 7.56 188.365 7.64L187.525 7.73C186.965 7.79 186.575 7.925 186.355 8.135C186.135 8.345 186.025 8.61 186.025 8.93C186.025 9.23 186.135 9.47 186.355 9.65C186.585 9.83 186.905 9.92 187.315 9.92ZM203.882 3.5V11H193.457V3.5H194.882V9.65H197.957V3.5H199.382V9.65H202.457V3.5H203.882ZM213.309 3.5L209.664 11.84C209.474 12.35 209.209 12.765 208.869 13.085C208.529 13.415 208.029 13.58 207.369 13.58C206.899 13.58 206.534 13.57 206.274 13.55V12.2C206.554 12.22 206.889 12.23 207.279 12.23C207.559 12.23 207.779 12.155 207.939 12.005C208.109 11.855 208.249 11.65 208.359 11.39L208.584 10.865L204.939 3.5H206.604L209.289 9.26L211.809 3.5H213.309ZM227.76 11H226.335V5.525L223.815 11H222.405L219.885 5.57V11H218.46V3.5H220.41L223.14 9.515L225.84 3.5H227.76V11ZM233.104 3.35C233.874 3.35 234.544 3.515 235.114 3.845C235.694 4.175 236.139 4.645 236.449 5.255C236.759 5.855 236.914 6.56 236.914 7.37C236.914 7.58 236.909 7.735 236.899 7.835H230.749C230.849 8.415 231.119 8.895 231.559 9.275C232.009 9.645 232.529 9.83 233.119 9.83C234.089 9.83 234.779 9.475 235.189 8.765H236.659C236.419 9.465 235.974 10.04 235.324 10.49C234.674 10.93 233.939 11.15 233.119 11.15C232.389 11.15 231.729 10.985 231.139 10.655C230.549 10.315 230.089 9.85 229.759 9.26C229.429 8.66 229.264 7.99 229.264 7.25C229.264 6.51 229.429 5.845 229.759 5.255C230.089 4.655 230.544 4.19 231.124 3.86C231.714 3.52 232.374 3.35 233.104 3.35ZM233.074 4.61C232.484 4.61 231.974 4.795 231.544 5.165C231.124 5.535 230.864 6.01 230.764 6.59H235.369C235.309 5.99 235.064 5.51 234.634 5.15C234.214 4.79 233.694 4.61 233.074 4.61ZM241.986 3.725C242.666 3.725 243.291 3.89 243.861 4.22C244.431 4.54 244.876 4.98 245.196 5.54C245.526 6.1 245.691 6.72 245.691 7.4C245.691 8.09 245.521 8.725 245.181 9.305C244.851 9.875 244.391 10.325 243.801 10.655C243.221 10.985 242.581 11.15 241.881 11.15C241.171 11.15 240.521 10.985 239.931 10.655C239.351 10.315 238.891 9.845 238.551 9.245C238.211 8.645 238.041 7.965 238.041 7.205V4.325C238.041 3.385 238.276 2.68 238.746 2.21C239.226 1.73 239.901 1.435 240.771 1.325L243.456 0.979999C243.706 0.95 243.831 0.825 243.831 0.605V0.424999H245.271V0.784999C245.271 1.195 245.141 1.525 244.881 1.775C244.631 2.015 244.336 2.155 243.996 2.195L240.906 2.6C240.346 2.67 239.931 2.825 239.661 3.065C239.401 3.295 239.271 3.66 239.271 4.16V5.21C239.581 4.74 239.971 4.375 240.441 4.115C240.921 3.855 241.436 3.725 241.986 3.725ZM241.836 9.83C242.276 9.83 242.676 9.725 243.036 9.515C243.406 9.295 243.696 9 243.906 8.63C244.116 8.26 244.221 7.85 244.221 7.4C244.221 6.95 244.116 6.54 243.906 6.17C243.696 5.8 243.406 5.51 243.036 5.3C242.676 5.08 242.276 4.97 241.836 4.97C241.386 4.97 240.976 5.08 240.606 5.3C240.236 5.51 239.946 5.8 239.736 6.17C239.526 6.54 239.421 6.95 239.421 7.4C239.421 7.85 239.526 8.26 239.736 8.63C239.946 9 240.236 9.295 240.606 9.515C240.976 9.725 241.386 9.83 241.836 9.83ZM250.423 3.35C251.193 3.35 251.863 3.515 252.433 3.845C253.013 4.175 253.458 4.645 253.768 5.255C254.078 5.855 254.233 6.56 254.233 7.37C254.233 7.58 254.228 7.735 254.218 7.835H248.068C248.168 8.415 248.438 8.895 248.878 9.275C249.328 9.645 249.848 9.83 250.438 9.83C251.408 9.83 252.098 9.475 252.508 8.765H253.978C253.738 9.465 253.293 10.04 252.643 10.49C251.993 10.93 251.258 11.15 250.438 11.15C249.708 11.15 249.048 10.985 248.458 10.655C247.868 10.315 247.408 9.85 247.078 9.26C246.748 8.66 246.583 7.99 246.583 7.25C246.583 6.51 246.748 5.845 247.078 5.255C247.408 4.655 247.863 4.19 248.443 3.86C249.033 3.52 249.693 3.35 250.423 3.35ZM250.393 4.61C249.803 4.61 249.293 4.795 248.863 5.165C248.443 5.535 248.183 6.01 248.083 6.59H252.688C252.628 5.99 252.383 5.51 251.953 5.15C251.533 4.79 251.013 4.61 250.393 4.61ZM262.143 11H260.718V4.85H258.093C258.083 6.31 257.968 7.495 257.748 8.405C257.528 9.305 257.188 9.97 256.728 10.4C256.278 10.83 255.688 11.045 254.958 11.045C254.788 11.045 254.648 11.03 254.538 11V9.695C254.678 9.715 254.783 9.725 254.853 9.725C255.293 9.725 255.643 9.56 255.903 9.23C256.173 8.89 256.368 8.355 256.488 7.625C256.608 6.885 256.668 5.905 256.668 4.685V3.5H262.143V11ZM268.018 6.47C268.808 6.47 269.423 6.685 269.863 7.115C270.313 7.535 270.538 8.075 270.538 8.735C270.538 9.395 270.313 9.94 269.863 10.37C269.423 10.79 268.808 11 268.018 11H264.313V3.5H265.738V6.47H268.018ZM267.823 9.755C268.233 9.755 268.543 9.67 268.753 9.5C268.963 9.33 269.068 9.075 269.068 8.735C269.068 8.395 268.963 8.14 268.753 7.97C268.543 7.8 268.233 7.715 267.823 7.715H265.738V9.755H267.823ZM8.52 30.65V33.65H7.14V32H1.53V33.65H0.15V30.65H1.08C1.5 30.09 1.825 29.35 2.055 28.43C2.285 27.5 2.4 26.47 2.4 25.34V24.5H7.47V30.65H8.52ZM6.075 30.695V25.775H3.735C3.665 27.875 3.265 29.515 2.535 30.695H6.075ZM13.0351 32.15C12.2951 32.15 11.6201 31.98 11.0101 31.64C10.4001 31.29 9.92012 30.82 9.57012 30.23C9.22012 29.63 9.04512 28.97 9.04512 28.25C9.04512 27.53 9.22012 26.875 9.57012 26.285C9.92012 25.685 10.4001 25.215 11.0101 24.875C11.6201 24.525 12.2951 24.35 13.0351 24.35C13.7651 24.35 14.4301 24.525 15.0301 24.875C15.6401 25.215 16.1201 25.685 16.4701 26.285C16.8201 26.875 16.9951 27.53 16.9951 28.25C16.9951 28.97 16.8201 29.63 16.4701 30.23C16.1201 30.82 15.6401 31.29 15.0301 31.64C14.4301 31.98 13.7651 32.15 13.0351 32.15ZM13.0351 30.83C13.4951 30.83 13.9151 30.72 14.2951 30.5C14.6751 30.27 14.9751 29.96 15.1951 29.57C15.4151 29.17 15.5251 28.73 15.5251 28.25C15.5251 27.77 15.4151 27.335 15.1951 26.945C14.9751 26.545 14.6751 26.235 14.2951 26.015C13.9151 25.785 13.4951 25.67 13.0351 25.67C12.5651 25.67 12.1351 25.785 11.7451 26.015C11.3651 26.235 11.0651 26.545 10.8451 26.945C10.6251 27.335 10.5151 27.77 10.5151 28.25C10.5151 28.73 10.6251 29.17 10.8451 29.57C11.0651 29.96 11.3651 30.27 11.7451 30.5C12.1351 30.72 12.5651 30.83 13.0351 30.83ZM17.8875 28.25C17.8875 27.53 18.0625 26.875 18.4125 26.285C18.7625 25.685 19.2425 25.215 19.8525 24.875C20.4625 24.525 21.1375 24.35 21.8775 24.35C22.7075 24.35 23.4525 24.595 24.1125 25.085C24.7825 25.565 25.2225 26.195 25.4325 26.975H23.8725C23.7025 26.575 23.4275 26.26 23.0475 26.03C22.6775 25.79 22.2625 25.67 21.8025 25.67C21.3325 25.67 20.9125 25.785 20.5425 26.015C20.1725 26.235 19.8825 26.545 19.6725 26.945C19.4625 27.335 19.3575 27.77 19.3575 28.25C19.3575 28.73 19.4625 29.17 19.6725 29.57C19.8825 29.96 20.1725 30.27 20.5425 30.5C20.9125 30.72 21.3325 30.83 21.8025 30.83C22.2625 30.83 22.6775 30.715 23.0475 30.485C23.4275 30.245 23.7025 29.925 23.8725 29.525H25.4325C25.2225 30.305 24.7825 30.94 24.1125 31.43C23.4525 31.91 22.7075 32.15 21.8775 32.15C21.1375 32.15 20.4625 31.98 19.8525 31.64C19.2425 31.29 18.7625 30.82 18.4125 30.23C18.0625 29.63 17.8875 28.97 17.8875 28.25ZM32.1967 25.85H29.5717V32H28.1467V25.85H25.5217V24.5H32.1967V25.85ZM40.6358 24.5L36.9908 32.84C36.8008 33.35 36.5358 33.765 36.1958 34.085C35.8558 34.415 35.3558 34.58 34.6958 34.58C34.2258 34.58 33.8608 34.57 33.6008 34.55V33.2C33.8808 33.22 34.2158 33.23 34.6058 33.23C34.8858 33.23 35.1058 33.155 35.2658 33.005C35.4358 32.855 35.5758 32.65 35.6858 32.39L35.9108 31.865L32.2658 24.5H33.9308L36.6158 30.26L39.1358 24.5H40.6358ZM48.5584 32H47.1334V25.85H43.2334V32H41.8084V24.5H48.5584V32ZM57.4887 24.5V32H56.0637V28.925H52.1637V32H50.7387V24.5H52.1637V27.575H56.0637V24.5H57.4887ZM62.9839 32.15C62.2439 32.15 61.5689 31.98 60.9589 31.64C60.3489 31.29 59.8689 30.82 59.5189 30.23C59.1689 29.63 58.9939 28.97 58.9939 28.25C58.9939 27.53 59.1689 26.875 59.5189 26.285C59.8689 25.685 60.3489 25.215 60.9589 24.875C61.5689 24.525 62.2439 24.35 62.9839 24.35C63.7139 24.35 64.3789 24.525 64.9789 24.875C65.5889 25.215 66.0689 25.685 66.4189 26.285C66.7689 26.875 66.9439 27.53 66.9439 28.25C66.9439 28.97 66.7689 29.63 66.4189 30.23C66.0689 30.82 65.5889 31.29 64.9789 31.64C64.3789 31.98 63.7139 32.15 62.9839 32.15ZM62.9839 30.83C63.4439 30.83 63.8639 30.72 64.2439 30.5C64.6239 30.27 64.9239 29.96 65.1439 29.57C65.3639 29.17 65.4739 28.73 65.4739 28.25C65.4739 27.77 65.3639 27.335 65.1439 26.945C64.9239 26.545 64.6239 26.235 64.2439 26.015C63.8639 25.785 63.4439 25.67 62.9839 25.67C62.5139 25.67 62.0839 25.785 61.6939 26.015C61.3139 26.235 61.0139 26.545 60.7939 26.945C60.5739 27.335 60.4639 27.77 60.4639 28.25C60.4639 28.73 60.5739 29.17 60.7939 29.57C61.0139 29.96 61.3139 30.27 61.6939 30.5C62.0839 30.72 62.5139 30.83 62.9839 30.83ZM75.1881 24.5V32H73.7631V27.38L69.8631 30.68V32H68.4381V24.5H69.8631V29.03L73.7631 25.73V24.5H75.1881ZM71.8881 23.765C71.1081 23.765 70.4681 23.56 69.9681 23.15C69.4681 22.74 69.1881 22.19 69.1281 21.5H70.3581C70.4081 21.88 70.5681 22.18 70.8381 22.4C71.1081 22.61 71.4581 22.715 71.8881 22.715C72.3181 22.715 72.6681 22.61 72.9381 22.4C73.2081 22.18 73.3681 21.88 73.4181 21.5H74.6481C74.5881 22.19 74.3081 22.74 73.8081 23.15C73.3081 23.56 72.6681 23.765 71.8881 23.765ZM88.6675 30.65V33.65H87.2875V32H81.6775V33.65H80.2975V30.65H81.2275C81.6475 30.09 81.9725 29.35 82.2025 28.43C82.4325 27.5 82.5475 26.47 82.5475 25.34V24.5H87.6175V30.65H88.6675ZM86.2225 30.695V25.775H83.8825C83.8125 27.875 83.4125 29.515 82.6825 30.695H86.2225ZM96.5691 32H95.1441V25.85H92.5191C92.5091 27.31 92.3941 28.495 92.1741 29.405C91.9541 30.305 91.6141 30.97 91.1541 31.4C90.7041 31.83 90.1141 32.045 89.3841 32.045C89.2141 32.045 89.0741 32.03 88.9641 32V30.695C89.1041 30.715 89.2091 30.725 89.2791 30.725C89.7191 30.725 90.0691 30.56 90.3291 30.23C90.5991 29.89 90.7941 29.355 90.9141 28.625C91.0341 27.885 91.0941 26.905 91.0941 25.685V24.5H96.5691V32ZM104.679 32H103.254V29.18H100.794C100.334 29.18 100.104 29.415 100.104 29.885V30.485C100.104 30.985 99.9793 31.365 99.7293 31.625C99.4893 31.875 99.1343 32 98.6643 32H98.0343V30.635H98.3193C98.4293 30.635 98.5143 30.605 98.5743 30.545C98.6443 30.475 98.6793 30.385 98.6793 30.275V29.66C98.6793 29.1 98.9443 28.705 99.4743 28.475C99.1443 28.285 98.8893 28.035 98.7093 27.725C98.5393 27.415 98.4543 27.07 98.4543 26.69C98.4543 26.05 98.6743 25.525 99.1143 25.115C99.5643 24.705 100.184 24.5 100.974 24.5H104.679V32ZM101.169 25.775C100.759 25.775 100.449 25.87 100.239 26.06C100.029 26.24 99.9243 26.505 99.9243 26.855C99.9243 27.205 100.029 27.475 100.239 27.665C100.449 27.845 100.759 27.935 101.169 27.935H103.254V25.775H101.169ZM116.018 28.175C116.758 28.545 117.128 29.115 117.128 29.885C117.128 30.505 116.903 31.015 116.453 31.415C116.003 31.805 115.383 32 114.593 32H110.828V24.5H114.593C115.343 24.5 115.933 24.695 116.363 25.085C116.803 25.465 117.023 25.95 117.023 26.54C117.023 26.89 116.938 27.21 116.768 27.5C116.608 27.78 116.358 28.005 116.018 28.175ZM114.428 27.62C114.798 27.62 115.078 27.535 115.268 27.365C115.458 27.195 115.553 26.945 115.553 26.615C115.553 26.005 115.178 25.7 114.428 25.7H112.223V27.62H114.428ZM114.443 30.8C114.843 30.8 115.143 30.715 115.343 30.545C115.553 30.365 115.658 30.11 115.658 29.78C115.658 29.47 115.553 29.235 115.343 29.075C115.143 28.905 114.843 28.82 114.443 28.82H112.223V30.8H114.443ZM117.882 28.25C117.882 27.53 118.057 26.875 118.407 26.285C118.757 25.685 119.237 25.215 119.847 24.875C120.457 24.525 121.132 24.35 121.872 24.35C122.702 24.35 123.447 24.595 124.107 25.085C124.777 25.565 125.217 26.195 125.427 26.975H123.867C123.697 26.575 123.422 26.26 123.042 26.03C122.672 25.79 122.257 25.67 121.797 25.67C121.327 25.67 120.907 25.785 120.537 26.015C120.167 26.235 119.877 26.545 119.667 26.945C119.457 27.335 119.352 27.77 119.352 28.25C119.352 28.73 119.457 29.17 119.667 29.57C119.877 29.96 120.167 30.27 120.537 30.5C120.907 30.72 121.327 30.83 121.797 30.83C122.257 30.83 122.672 30.715 123.042 30.485C123.422 30.245 123.697 29.925 123.867 29.525H125.427C125.217 30.305 124.777 30.94 124.107 31.43C123.447 31.91 122.702 32.15 121.872 32.15C121.132 32.15 120.457 31.98 119.847 31.64C119.237 31.29 118.757 30.82 118.407 30.23C118.057 29.63 117.882 28.97 117.882 28.25ZM130.023 24.35C130.793 24.35 131.463 24.515 132.033 24.845C132.613 25.175 133.058 25.645 133.368 26.255C133.678 26.855 133.833 27.56 133.833 28.37C133.833 28.58 133.828 28.735 133.818 28.835H127.668C127.768 29.415 128.038 29.895 128.478 30.275C128.928 30.645 129.448 30.83 130.038 30.83C131.008 30.83 131.698 30.475 132.108 29.765H133.578C133.338 30.465 132.893 31.04 132.243 31.49C131.593 31.93 130.858 32.15 130.038 32.15C129.308 32.15 128.648 31.985 128.058 31.655C127.468 31.315 127.008 30.85 126.678 30.26C126.348 29.66 126.183 28.99 126.183 28.25C126.183 27.51 126.348 26.845 126.678 26.255C127.008 25.655 127.463 25.19 128.043 24.86C128.633 24.52 129.293 24.35 130.023 24.35ZM129.993 25.61C129.403 25.61 128.893 25.795 128.463 26.165C128.043 26.535 127.783 27.01 127.683 27.59H132.288C132.228 26.99 131.983 26.51 131.553 26.15C131.133 25.79 130.613 25.61 129.993 25.61ZM140.081 32L137.906 29.165L135.716 32H133.991L136.991 28.19L134.111 24.5H135.881L137.936 27.185L139.946 24.5H141.716L138.851 28.145L141.851 32H140.081ZM144.325 30.35L143.875 33.8H142.825V30.35H144.325ZM157.083 32H155.658V25.85H151.758V32H150.333V24.5H157.083V32ZM162.578 32.15C161.838 32.15 161.163 31.98 160.553 31.64C159.943 31.29 159.463 30.82 159.113 30.23C158.763 29.63 158.588 28.97 158.588 28.25C158.588 27.53 158.763 26.875 159.113 26.285C159.463 25.685 159.943 25.215 160.553 24.875C161.163 24.525 161.838 24.35 162.578 24.35C163.308 24.35 163.973 24.525 164.573 24.875C165.183 25.215 165.663 25.685 166.013 26.285C166.363 26.875 166.538 27.53 166.538 28.25C166.538 28.97 166.363 29.63 166.013 30.23C165.663 30.82 165.183 31.29 164.573 31.64C163.973 31.98 163.308 32.15 162.578 32.15ZM162.578 30.83C163.038 30.83 163.458 30.72 163.838 30.5C164.218 30.27 164.518 29.96 164.738 29.57C164.958 29.17 165.068 28.73 165.068 28.25C165.068 27.77 164.958 27.335 164.738 26.945C164.518 26.545 164.218 26.235 163.838 26.015C163.458 25.785 163.038 25.67 162.578 25.67C162.108 25.67 161.678 25.785 161.288 26.015C160.908 26.235 160.608 26.545 160.388 26.945C160.168 27.335 160.058 27.77 160.058 28.25C160.058 28.73 160.168 29.17 160.388 29.57C160.608 29.96 160.908 30.27 161.288 30.5C161.678 30.72 162.108 30.83 162.578 30.83ZM170.91 24.35C171.66 24.35 172.335 24.52 172.935 24.86C173.545 25.19 174.02 25.655 174.36 26.255C174.7 26.845 174.87 27.51 174.87 28.25C174.87 28.99 174.7 29.66 174.36 30.26C174.02 30.85 173.545 31.315 172.935 31.655C172.335 31.985 171.66 32.15 170.91 32.15C170.37 32.15 169.85 32.04 169.35 31.82C168.85 31.6 168.425 31.29 168.075 30.89C167.725 30.49 167.485 30.035 167.355 29.525H168.795C168.955 29.925 169.225 30.245 169.605 30.485C169.995 30.715 170.435 30.83 170.925 30.83C171.525 30.83 172.05 30.65 172.5 30.29C172.96 29.93 173.245 29.465 173.355 28.895H170.1V27.605H173.355C173.245 27.035 172.96 26.57 172.5 26.21C172.05 25.85 171.525 25.67 170.925 25.67C170.435 25.67 169.995 25.79 169.605 26.03C169.225 26.26 168.955 26.575 168.795 26.975H167.355C167.485 26.465 167.725 26.01 168.075 25.61C168.425 25.21 168.85 24.9 169.35 24.68C169.85 24.46 170.37 24.35 170.91 24.35ZM181.784 25.85H179.159V32H177.734V25.85H175.109V24.5H181.784V25.85ZM186 32.15C185.26 32.15 184.585 31.98 183.975 31.64C183.365 31.29 182.885 30.82 182.535 30.23C182.185 29.63 182.01 28.97 182.01 28.25C182.01 27.53 182.185 26.875 182.535 26.285C182.885 25.685 183.365 25.215 183.975 24.875C184.585 24.525 185.26 24.35 186 24.35C186.73 24.35 187.395 24.525 187.995 24.875C188.605 25.215 189.085 25.685 189.435 26.285C189.785 26.875 189.96 27.53 189.96 28.25C189.96 28.97 189.785 29.63 189.435 30.23C189.085 30.82 188.605 31.29 187.995 31.64C187.395 31.98 186.73 32.15 186 32.15ZM186 30.83C186.46 30.83 186.88 30.72 187.26 30.5C187.64 30.27 187.94 29.96 188.16 29.57C188.38 29.17 188.49 28.73 188.49 28.25C188.49 27.77 188.38 27.335 188.16 26.945C187.94 26.545 187.64 26.235 187.26 26.015C186.88 25.785 186.46 25.67 186 25.67C185.53 25.67 185.1 25.785 184.71 26.015C184.33 26.235 184.03 26.545 183.81 26.945C183.59 27.335 183.48 27.77 183.48 28.25C183.48 28.73 183.59 29.17 183.81 29.57C184.03 29.96 184.33 30.27 184.71 30.5C185.1 30.72 185.53 30.83 186 30.83ZM200.754 32H199.329V26.525L196.809 32H195.399L192.879 26.57V32H191.454V24.5H193.404L196.134 30.515L198.834 24.5H200.754V32ZM210.178 24.5L206.533 32.84C206.343 33.35 206.078 33.765 205.738 34.085C205.398 34.415 204.898 34.58 204.238 34.58C203.768 34.58 203.403 34.57 203.143 34.55V33.2C203.423 33.22 203.758 33.23 204.148 33.23C204.428 33.23 204.648 33.155 204.808 33.005C204.978 32.855 205.118 32.65 205.228 32.39L205.453 31.865L201.808 24.5H203.473L206.158 30.26L208.678 24.5H210.178ZM222.08 32H220.655V25.85H216.755V32H215.33V24.5H222.08V32ZM227.575 32.15C226.835 32.15 226.16 31.98 225.55 31.64C224.94 31.29 224.46 30.82 224.11 30.23C223.76 29.63 223.585 28.97 223.585 28.25C223.585 27.53 223.76 26.875 224.11 26.285C224.46 25.685 224.94 25.215 225.55 24.875C226.16 24.525 226.835 24.35 227.575 24.35C228.305 24.35 228.97 24.525 229.57 24.875C230.18 25.215 230.66 25.685 231.01 26.285C231.36 26.875 231.535 27.53 231.535 28.25C231.535 28.97 231.36 29.63 231.01 30.23C230.66 30.82 230.18 31.29 229.57 31.64C228.97 31.98 228.305 32.15 227.575 32.15ZM227.575 30.83C228.035 30.83 228.455 30.72 228.835 30.5C229.215 30.27 229.515 29.96 229.735 29.57C229.955 29.17 230.065 28.73 230.065 28.25C230.065 27.77 229.955 27.335 229.735 26.945C229.515 26.545 229.215 26.235 228.835 26.015C228.455 25.785 228.035 25.67 227.575 25.67C227.105 25.67 226.675 25.785 226.285 26.015C225.905 26.235 225.605 26.545 225.385 26.945C225.165 27.335 225.055 27.77 225.055 28.25C225.055 28.73 225.165 29.17 225.385 29.57C225.605 29.96 225.905 30.27 226.285 30.5C226.675 30.72 227.105 30.83 227.575 30.83ZM232.427 28.25C232.427 27.53 232.602 26.875 232.952 26.285C233.302 25.685 233.782 25.215 234.392 24.875C235.002 24.525 235.677 24.35 236.417 24.35C237.247 24.35 237.992 24.595 238.652 25.085C239.322 25.565 239.762 26.195 239.972 26.975H238.412C238.242 26.575 237.967 26.26 237.587 26.03C237.217 25.79 236.802 25.67 236.342 25.67C235.872 25.67 235.452 25.785 235.082 26.015C234.712 26.235 234.422 26.545 234.212 26.945C234.002 27.335 233.897 27.77 233.897 28.25C233.897 28.73 234.002 29.17 234.212 29.57C234.422 29.96 234.712 30.27 235.082 30.5C235.452 30.72 235.872 30.83 236.342 30.83C236.802 30.83 237.217 30.715 237.587 30.485C237.967 30.245 238.242 29.925 238.412 29.525H239.972C239.762 30.305 239.322 30.94 238.652 31.43C237.992 31.91 237.247 32.15 236.417 32.15C235.677 32.15 235.002 31.98 234.392 31.64C233.782 31.29 233.302 30.82 232.952 30.23C232.602 29.63 232.427 28.97 232.427 28.25ZM246.737 25.85H244.112V32H242.687V25.85H240.062V24.5H246.737V25.85ZM250.953 32.15C250.213 32.15 249.538 31.98 248.928 31.64C248.318 31.29 247.838 30.82 247.488 30.23C247.138 29.63 246.963 28.97 246.963 28.25C246.963 27.53 247.138 26.875 247.488 26.285C247.838 25.685 248.318 25.215 248.928 24.875C249.538 24.525 250.213 24.35 250.953 24.35C251.683 24.35 252.348 24.525 252.948 24.875C253.558 25.215 254.038 25.685 254.388 26.285C254.738 26.875 254.913 27.53 254.913 28.25C254.913 28.97 254.738 29.63 254.388 30.23C254.038 30.82 253.558 31.29 252.948 31.64C252.348 31.98 251.683 32.15 250.953 32.15ZM250.953 30.83C251.413 30.83 251.833 30.72 252.213 30.5C252.593 30.27 252.893 29.96 253.113 29.57C253.333 29.17 253.443 28.73 253.443 28.25C253.443 27.77 253.333 27.335 253.113 26.945C252.893 26.545 252.593 26.235 252.213 26.015C251.833 25.785 251.413 25.67 250.953 25.67C250.483 25.67 250.053 25.785 249.663 26.015C249.283 26.235 248.983 26.545 248.763 26.945C248.543 27.335 248.433 27.77 248.433 28.25C248.433 28.73 248.543 29.17 248.763 29.57C248.983 29.96 249.283 30.27 249.663 30.5C250.053 30.72 250.483 30.83 250.953 30.83ZM262.347 32H260.922V29.18H258.462C258.002 29.18 257.772 29.415 257.772 29.885V30.485C257.772 30.985 257.647 31.365 257.397 31.625C257.157 31.875 256.802 32 256.332 32H255.702V30.635H255.987C256.097 30.635 256.182 30.605 256.242 30.545C256.312 30.475 256.347 30.385 256.347 30.275V29.66C256.347 29.1 256.612 28.705 257.142 28.475C256.812 28.285 256.557 28.035 256.377 27.725C256.207 27.415 256.122 27.07 256.122 26.69C256.122 26.05 256.342 25.525 256.782 25.115C257.232 24.705 257.852 24.5 258.642 24.5H262.347V32ZM258.837 25.775C258.427 25.775 258.117 25.87 257.907 26.06C257.697 26.24 257.592 26.505 257.592 26.855C257.592 27.205 257.697 27.475 257.907 27.665C258.117 27.845 258.427 27.935 258.837 27.935H260.922V25.775H258.837ZM271.267 24.5V32H269.842V28.925H265.942V32H264.517V24.5H265.942V27.575H269.842V24.5H271.267ZM280.197 24.5V32H278.772V28.925H274.872V32H273.447V24.5H274.872V27.575H278.772V24.5H280.197ZM285.692 32.15C284.952 32.15 284.277 31.98 283.667 31.64C283.057 31.29 282.577 30.82 282.227 30.23C281.877 29.63 281.702 28.97 281.702 28.25C281.702 27.53 281.877 26.875 282.227 26.285C282.577 25.685 283.057 25.215 283.667 24.875C284.277 24.525 284.952 24.35 285.692 24.35C286.422 24.35 287.087 24.525 287.687 24.875C288.297 25.215 288.777 25.685 289.127 26.285C289.477 26.875 289.652 27.53 289.652 28.25C289.652 28.97 289.477 29.63 289.127 30.23C288.777 30.82 288.297 31.29 287.687 31.64C287.087 31.98 286.422 32.15 285.692 32.15ZM285.692 30.83C286.152 30.83 286.572 30.72 286.952 30.5C287.332 30.27 287.632 29.96 287.852 29.57C288.072 29.17 288.182 28.73 288.182 28.25C288.182 27.77 288.072 27.335 287.852 26.945C287.632 26.545 287.332 26.235 286.952 26.015C286.572 25.785 286.152 25.67 285.692 25.67C285.222 25.67 284.792 25.785 284.402 26.015C284.022 26.235 283.722 26.545 283.502 26.945C283.282 27.335 283.172 27.77 283.172 28.25C283.172 28.73 283.282 29.17 283.502 29.57C283.722 29.96 284.022 30.27 284.402 30.5C284.792 30.72 285.222 30.83 285.692 30.83ZM5.16 45.35C5.82 45.35 6.42 45.52 6.96 45.86C7.5 46.19 7.925 46.65 8.235 47.24C8.545 47.83 8.7 48.5 8.7 49.25C8.7 50 8.545 50.67 8.235 51.26C7.925 51.85 7.5 52.315 6.96 52.655C6.42 52.985 5.82 53.15 5.16 53.15C4.66 53.15 4.19 53.04 3.75 52.82C3.31 52.59 2.935 52.275 2.625 51.875V55.55H1.2V45.5H2.55V46.715C2.87 46.285 3.255 45.95 3.705 45.71C4.155 45.47 4.64 45.35 5.16 45.35ZM4.92 51.83C5.36 51.83 5.755 51.72 6.105 51.5C6.455 51.28 6.73 50.975 6.93 50.585C7.13 50.185 7.23 49.74 7.23 49.25C7.23 48.76 7.13 48.32 6.93 47.93C6.73 47.53 6.455 47.22 6.105 47C5.755 46.78 5.36 46.67 4.92 46.67C4.48 46.67 4.08 46.78 3.72 47C3.36 47.22 3.08 47.53 2.88 47.93C2.68 48.32 2.58 48.76 2.58 49.25C2.58 49.74 2.68 50.185 2.88 50.585C3.08 50.975 3.36 51.28 3.72 51.5C4.08 51.72 4.48 51.83 4.92 51.83ZM17.0268 51.65V53H16.3068C15.9368 53 15.6468 52.91 15.4368 52.73C15.2268 52.54 15.1018 52.27 15.0618 51.92C14.7418 52.29 14.3268 52.59 13.8168 52.82C13.3168 53.04 12.7868 53.15 12.2268 53.15C11.4168 53.15 10.7868 52.95 10.3368 52.55C9.89676 52.15 9.67676 51.615 9.67676 50.945C9.67676 50.335 9.91676 49.815 10.3968 49.385C10.8768 48.945 11.5518 48.68 12.4218 48.59L13.2618 48.5C13.7318 48.45 14.0818 48.39 14.3118 48.32C14.5418 48.24 14.6868 48.155 14.7468 48.065C14.8168 47.975 14.8518 47.855 14.8518 47.705C14.8518 47.365 14.6868 47.1 14.3568 46.91C14.0368 46.71 13.5918 46.61 13.0218 46.61C12.6518 46.61 12.2968 46.71 11.9568 46.91C11.6168 47.1 11.3818 47.375 11.2518 47.735H9.73676C9.87676 47.035 10.2568 46.465 10.8768 46.025C11.4968 45.575 12.2368 45.35 13.0968 45.35C14.0468 45.35 14.8268 45.61 15.4368 46.13C16.0468 46.65 16.3518 47.395 16.3518 48.365V51.245C16.3518 51.375 16.3868 51.475 16.4568 51.545C16.5268 51.615 16.6218 51.65 16.7418 51.65H17.0268ZM12.3768 51.92C12.8468 51.92 13.2868 51.825 13.6968 51.635C14.1068 51.435 14.4318 51.175 14.6718 50.855C14.9218 50.525 15.0468 50.175 15.0468 49.805V49.13C14.7068 49.39 14.1668 49.56 13.4268 49.64L12.5868 49.73C12.0268 49.79 11.6368 49.925 11.4168 50.135C11.1968 50.345 11.0868 50.61 11.0868 50.93C11.0868 51.23 11.1968 51.47 11.4168 51.65C11.6468 51.83 11.9668 51.92 12.3768 51.92ZM22.0886 45.725C22.7686 45.725 23.3936 45.89 23.9636 46.22C24.5336 46.54 24.9786 46.98 25.2986 47.54C25.6286 48.1 25.7936 48.72 25.7936 49.4C25.7936 50.09 25.6236 50.725 25.2836 51.305C24.9536 51.875 24.4936 52.325 23.9036 52.655C23.3236 52.985 22.6836 53.15 21.9836 53.15C21.2736 53.15 20.6236 52.985 20.0336 52.655C19.4536 52.315 18.9936 51.845 18.6536 51.245C18.3136 50.645 18.1436 49.965 18.1436 49.205V46.325C18.1436 45.385 18.3786 44.68 18.8486 44.21C19.3286 43.73 20.0036 43.435 20.8736 43.325L23.5586 42.98C23.8086 42.95 23.9336 42.825 23.9336 42.605V42.425H25.3736V42.785C25.3736 43.195 25.2436 43.525 24.9836 43.775C24.7336 44.015 24.4386 44.155 24.0986 44.195L21.0086 44.6C20.4486 44.67 20.0336 44.825 19.7636 45.065C19.5036 45.295 19.3736 45.66 19.3736 46.16V47.21C19.6836 46.74 20.0736 46.375 20.5436 46.115C21.0236 45.855 21.5386 45.725 22.0886 45.725ZM21.9386 51.83C22.3786 51.83 22.7786 51.725 23.1386 51.515C23.5086 51.295 23.7986 51 24.0086 50.63C24.2186 50.26 24.3236 49.85 24.3236 49.4C24.3236 48.95 24.2186 48.54 24.0086 48.17C23.7986 47.8 23.5086 47.51 23.1386 47.3C22.7786 47.08 22.3786 46.97 21.9386 46.97C21.4886 46.97 21.0786 47.08 20.7086 47.3C20.3386 47.51 20.0486 47.8 19.8386 48.17C19.6286 48.54 19.5236 48.95 19.5236 49.4C19.5236 49.85 19.6286 50.26 19.8386 50.63C20.0486 51 20.3386 51.295 20.7086 51.515C21.0786 51.725 21.4886 51.83 21.9386 51.83ZM30.6759 53.15C29.9359 53.15 29.2609 52.98 28.6509 52.64C28.0409 52.29 27.5609 51.82 27.2109 51.23C26.8609 50.63 26.6859 49.97 26.6859 49.25C26.6859 48.53 26.8609 47.875 27.2109 47.285C27.5609 46.685 28.0409 46.215 28.6509 45.875C29.2609 45.525 29.9359 45.35 30.6759 45.35C31.4059 45.35 32.0709 45.525 32.6709 45.875C33.2809 46.215 33.7609 46.685 34.1109 47.285C34.4609 47.875 34.6359 48.53 34.6359 49.25C34.6359 49.97 34.4609 50.63 34.1109 51.23C33.7609 51.82 33.2809 52.29 32.6709 52.64C32.0709 52.98 31.4059 53.15 30.6759 53.15ZM30.6759 51.83C31.1359 51.83 31.5559 51.72 31.9359 51.5C32.3159 51.27 32.6159 50.96 32.8359 50.57C33.0559 50.17 33.1659 49.73 33.1659 49.25C33.1659 48.77 33.0559 48.335 32.8359 47.945C32.6159 47.545 32.3159 47.235 31.9359 47.015C31.5559 46.785 31.1359 46.67 30.6759 46.67C30.2059 46.67 29.7759 46.785 29.3859 47.015C29.0059 47.235 28.7059 47.545 28.4859 47.945C28.2659 48.335 28.1559 48.77 28.1559 49.25C28.1559 49.73 28.2659 50.17 28.4859 50.57C28.7059 50.96 29.0059 51.27 29.3859 51.5C29.7759 51.72 30.2059 51.83 30.6759 51.83ZM41.5371 46.85H38.9121V53H37.4871V46.85H34.8621V45.5H41.5371V46.85ZM49.1883 51.65V53H48.4683C48.0983 53 47.8083 52.91 47.5983 52.73C47.3883 52.54 47.2633 52.27 47.2233 51.92C46.9033 52.29 46.4883 52.59 45.9783 52.82C45.4783 53.04 44.9483 53.15 44.3883 53.15C43.5783 53.15 42.9483 52.95 42.4983 52.55C42.0583 52.15 41.8383 51.615 41.8383 50.945C41.8383 50.335 42.0783 49.815 42.5583 49.385C43.0383 48.945 43.7133 48.68 44.5833 48.59L45.4233 48.5C45.8933 48.45 46.2433 48.39 46.4733 48.32C46.7033 48.24 46.8483 48.155 46.9083 48.065C46.9783 47.975 47.0133 47.855 47.0133 47.705C47.0133 47.365 46.8483 47.1 46.5183 46.91C46.1983 46.71 45.7533 46.61 45.1833 46.61C44.8133 46.61 44.4583 46.71 44.1183 46.91C43.7783 47.1 43.5433 47.375 43.4133 47.735H41.8983C42.0383 47.035 42.4183 46.465 43.0383 46.025C43.6583 45.575 44.3983 45.35 45.2583 45.35C46.2083 45.35 46.9883 45.61 47.5983 46.13C48.2083 46.65 48.5133 47.395 48.5133 48.365V51.245C48.5133 51.375 48.5483 51.475 48.6183 51.545C48.6883 51.615 48.7833 51.65 48.9033 51.65H49.1883ZM44.5383 51.92C45.0083 51.92 45.4483 51.825 45.8583 51.635C46.2683 51.435 46.5933 51.175 46.8333 50.855C47.0833 50.525 47.2083 50.175 47.2083 49.805V49.13C46.8683 49.39 46.3283 49.56 45.5883 49.64L44.7483 49.73C44.1883 49.79 43.7983 49.925 43.5783 50.135C43.3583 50.345 43.2483 50.61 43.2483 50.93C43.2483 51.23 43.3583 51.47 43.5783 51.65C43.8083 51.83 44.1283 51.92 44.5383 51.92ZM53.8451 45.35C54.6151 45.35 55.2851 45.515 55.8551 45.845C56.4351 46.175 56.8801 46.645 57.1901 47.255C57.5001 47.855 57.6551 48.56 57.6551 49.37C57.6551 49.58 57.6501 49.735 57.6401 49.835H51.4901C51.5901 50.415 51.8601 50.895 52.3001 51.275C52.7501 51.645 53.2701 51.83 53.8601 51.83C54.8301 51.83 55.5201 51.475 55.9301 50.765H57.4001C57.1601 51.465 56.7151 52.04 56.0651 52.49C55.4151 52.93 54.6801 53.15 53.8601 53.15C53.1301 53.15 52.4701 52.985 51.8801 52.655C51.2901 52.315 50.8301 51.85 50.5001 51.26C50.1701 50.66 50.0051 49.99 50.0051 49.25C50.0051 48.51 50.1701 47.845 50.5001 47.255C50.8301 46.655 51.2851 46.19 51.8651 45.86C52.4551 45.52 53.1151 45.35 53.8451 45.35ZM53.8151 46.61C53.2251 46.61 52.7151 46.795 52.2851 47.165C51.8651 47.535 51.6051 48.01 51.5051 48.59H56.1101C56.0501 47.99 55.8051 47.51 55.3751 47.15C54.9551 46.79 54.4351 46.61 53.8151 46.61ZM68.4562 53H67.0312V47.525L64.5112 53H63.1012L60.5812 47.57V53H59.1562V45.5H61.1062L63.8362 51.515L66.5362 45.5H68.4562V53ZM81.3645 45.5V53H79.9395V49.925H76.0395V53H74.6145V45.5H76.0395V48.575H79.9395V45.5H81.3645ZM90.2947 51.65V53H89.5747C89.2047 53 88.9147 52.91 88.7047 52.73C88.4947 52.54 88.3697 52.27 88.3297 51.92C88.0097 52.29 87.5947 52.59 87.0847 52.82C86.5847 53.04 86.0547 53.15 85.4947 53.15C84.6847 53.15 84.0547 52.95 83.6047 52.55C83.1647 52.15 82.9447 51.615 82.9447 50.945C82.9447 50.335 83.1847 49.815 83.6647 49.385C84.1447 48.945 84.8197 48.68 85.6897 48.59L86.5297 48.5C86.9997 48.45 87.3497 48.39 87.5797 48.32C87.8097 48.24 87.9547 48.155 88.0147 48.065C88.0847 47.975 88.1197 47.855 88.1197 47.705C88.1197 47.365 87.9547 47.1 87.6247 46.91C87.3047 46.71 86.8597 46.61 86.2897 46.61C85.9197 46.61 85.5647 46.71 85.2247 46.91C84.8847 47.1 84.6497 47.375 84.5197 47.735H83.0047C83.1447 47.035 83.5247 46.465 84.1447 46.025C84.7647 45.575 85.5047 45.35 86.3647 45.35C87.3147 45.35 88.0947 45.61 88.7047 46.13C89.3147 46.65 89.6197 47.395 89.6197 48.365V51.245C89.6197 51.375 89.6547 51.475 89.7247 51.545C89.7947 51.615 89.8897 51.65 90.0097 51.65H90.2947ZM85.6447 51.92C86.1147 51.92 86.5547 51.825 86.9647 51.635C87.3747 51.435 87.6997 51.175 87.9397 50.855C88.1897 50.525 88.3147 50.175 88.3147 49.805V49.13C87.9747 49.39 87.4347 49.56 86.6947 49.64L85.8547 49.73C85.2947 49.79 84.9047 49.925 84.6847 50.135C84.4647 50.345 84.3547 50.61 84.3547 50.93C84.3547 51.23 84.4647 51.47 84.6847 51.65C84.9147 51.83 85.2347 51.92 85.6447 51.92ZM99.1065 51.65V54.65H97.7265V53H92.1165V54.65H90.7365V51.65H91.6665C92.0865 51.09 92.4115 50.35 92.6415 49.43C92.8715 48.5 92.9865 47.47 92.9865 46.34V45.5H98.0565V51.65H99.1065ZM96.6615 51.695V46.775H94.3215C94.2515 48.875 93.8515 50.515 93.1215 51.695H96.6615ZM107.747 53.15C107.007 53.15 106.332 52.98 105.722 52.64C105.112 52.29 104.632 51.82 104.282 51.23C103.932 50.63 103.757 49.97 103.757 49.25C103.757 48.53 103.932 47.875 104.282 47.285C104.632 46.685 105.112 46.215 105.722 45.875C106.332 45.525 107.007 45.35 107.747 45.35C108.477 45.35 109.142 45.525 109.742 45.875C110.352 46.215 110.832 46.685 111.182 47.285C111.532 47.875 111.707 48.53 111.707 49.25C111.707 49.97 111.532 50.63 111.182 51.23C110.832 51.82 110.352 52.29 109.742 52.64C109.142 52.98 108.477 53.15 107.747 53.15ZM107.747 51.83C108.207 51.83 108.627 51.72 109.007 51.5C109.387 51.27 109.687 50.96 109.907 50.57C110.127 50.17 110.237 49.73 110.237 49.25C110.237 48.77 110.127 48.335 109.907 47.945C109.687 47.545 109.387 47.235 109.007 47.015C108.627 46.785 108.207 46.67 107.747 46.67C107.277 46.67 106.847 46.785 106.457 47.015C106.077 47.235 105.777 47.545 105.557 47.945C105.337 48.335 105.227 48.77 105.227 49.25C105.227 49.73 105.337 50.17 105.557 50.57C105.777 50.96 106.077 51.27 106.457 51.5C106.847 51.72 107.277 51.83 107.747 51.83ZM119.951 53H118.526V46.85H114.626V53H113.201V45.5H119.951V53ZM127.832 46.85H125.207V53H123.782V46.85H121.157V45.5H127.832V46.85ZM135.776 45.5V53H134.351V48.38L130.451 51.68V53H129.026V45.5H130.451V50.03L134.351 46.73V45.5H135.776ZM147.256 53H145.831V47.525L143.311 53H141.901L139.381 47.57V53H137.956V45.5H139.906L142.636 51.515L145.336 45.5H147.256V53ZM156.185 45.5V53H154.76V48.38L150.86 51.68V53H149.435V45.5H150.86V50.03L154.76 46.73V45.5H156.185ZM158.965 50.63C159.095 51.07 159.335 51.395 159.685 51.605C160.045 51.815 160.515 51.92 161.095 51.92C161.635 51.92 162.07 51.825 162.4 51.635C162.73 51.435 162.895 51.18 162.895 50.87C162.895 50.6 162.775 50.37 162.535 50.18C162.295 49.98 161.885 49.88 161.305 49.88H160V48.65H161.245C161.765 48.65 162.135 48.555 162.355 48.365C162.585 48.175 162.7 47.945 162.7 47.675C162.7 47.335 162.545 47.065 162.235 46.865C161.935 46.665 161.52 46.565 160.99 46.565C160.48 46.565 160.055 46.66 159.715 46.85C159.385 47.04 159.17 47.34 159.07 47.75H157.66C157.79 47 158.165 46.415 158.785 45.995C159.405 45.565 160.14 45.35 160.99 45.35C161.93 45.35 162.69 45.555 163.27 45.965C163.85 46.365 164.14 46.895 164.14 47.555C164.14 47.885 164.05 48.195 163.87 48.485C163.69 48.765 163.42 48.99 163.06 49.16C163.89 49.49 164.305 50.055 164.305 50.855C164.305 51.545 164.005 52.1 163.405 52.52C162.815 52.94 162.01 53.15 160.99 53.15C160.07 53.15 159.29 52.925 158.65 52.475C158.01 52.025 157.64 51.41 157.54 50.63H158.965ZM172.376 51.65V53H171.656C171.286 53 170.996 52.91 170.786 52.73C170.576 52.54 170.451 52.27 170.411 51.92C170.091 52.29 169.676 52.59 169.166 52.82C168.666 53.04 168.136 53.15 167.576 53.15C166.766 53.15 166.136 52.95 165.686 52.55C165.246 52.15 165.026 51.615 165.026 50.945C165.026 50.335 165.266 49.815 165.746 49.385C166.226 48.945 166.901 48.68 167.771 48.59L168.611 48.5C169.081 48.45 169.431 48.39 169.661 48.32C169.891 48.24 170.036 48.155 170.096 48.065C170.166 47.975 170.201 47.855 170.201 47.705C170.201 47.365 170.036 47.1 169.706 46.91C169.386 46.71 168.941 46.61 168.371 46.61C168.001 46.61 167.646 46.71 167.306 46.91C166.966 47.1 166.731 47.375 166.601 47.735H165.086C165.226 47.035 165.606 46.465 166.226 46.025C166.846 45.575 167.586 45.35 168.446 45.35C169.396 45.35 170.176 45.61 170.786 46.13C171.396 46.65 171.701 47.395 171.701 48.365V51.245C171.701 51.375 171.736 51.475 171.806 51.545C171.876 51.615 171.971 51.65 172.091 51.65H172.376ZM167.726 51.92C168.196 51.92 168.636 51.825 169.046 51.635C169.456 51.435 169.781 51.175 170.021 50.855C170.271 50.525 170.396 50.175 170.396 49.805V49.13C170.056 49.39 169.516 49.56 168.776 49.64L167.936 49.73C167.376 49.79 166.986 49.925 166.766 50.135C166.546 50.345 166.436 50.61 166.436 50.93C166.436 51.23 166.546 51.47 166.766 51.65C166.996 51.83 167.316 51.92 167.726 51.92ZM181.668 51.65V54.65H180.288V53H173.868V45.5H175.293V51.65H179.193V45.5H180.618V51.65H181.668ZM189.768 45.5V53H188.343V48.38L184.443 51.68V53H183.018V45.5H184.443V50.03L188.343 46.73V45.5H189.768ZM195.113 45.35C195.883 45.35 196.553 45.515 197.123 45.845C197.703 46.175 198.148 46.645 198.458 47.255C198.768 47.855 198.923 48.56 198.923 49.37C198.923 49.58 198.918 49.735 198.908 49.835H192.758C192.858 50.415 193.128 50.895 193.568 51.275C194.018 51.645 194.538 51.83 195.128 51.83C196.098 51.83 196.788 51.475 197.198 50.765H198.668C198.428 51.465 197.983 52.04 197.333 52.49C196.683 52.93 195.948 53.15 195.128 53.15C194.398 53.15 193.738 52.985 193.148 52.655C192.558 52.315 192.098 51.85 191.768 51.26C191.438 50.66 191.273 49.99 191.273 49.25C191.273 48.51 191.438 47.845 191.768 47.255C192.098 46.655 192.553 46.19 193.133 45.86C193.723 45.52 194.383 45.35 195.113 45.35ZM195.083 46.61C194.493 46.61 193.983 46.795 193.553 47.165C193.133 47.535 192.873 48.01 192.773 48.59H197.378C197.318 47.99 197.073 47.51 196.643 47.15C196.223 46.79 195.703 46.61 195.083 46.61ZM207.174 45.5V53H205.749V48.38L201.849 51.68V53H200.424V45.5H201.849V50.03L205.749 46.73V45.5H207.174ZM203.874 44.765C203.094 44.765 202.454 44.56 201.954 44.15C201.454 43.74 201.174 43.19 201.114 42.5H202.344C202.394 42.88 202.554 43.18 202.824 43.4C203.094 43.61 203.444 43.715 203.874 43.715C204.304 43.715 204.654 43.61 204.924 43.4C205.194 43.18 205.354 42.88 205.404 42.5H206.634C206.574 43.19 206.294 43.74 205.794 44.15C205.294 44.56 204.654 44.765 203.874 44.765ZM220.083 53H218.658V46.85H214.758V53H213.333V45.5H220.083V53ZM226.224 45.35C226.884 45.35 227.484 45.52 228.024 45.86C228.564 46.19 228.989 46.65 229.299 47.24C229.609 47.83 229.764 48.5 229.764 49.25C229.764 50 229.609 50.67 229.299 51.26C228.989 51.85 228.564 52.315 228.024 52.655C227.484 52.985 226.884 53.15 226.224 53.15C225.724 53.15 225.254 53.04 224.814 52.82C224.374 52.59 223.999 52.275 223.689 51.875V55.55H222.264V45.5H223.614V46.715C223.934 46.285 224.319 45.95 224.769 45.71C225.219 45.47 225.704 45.35 226.224 45.35ZM225.984 51.83C226.424 51.83 226.819 51.72 227.169 51.5C227.519 51.28 227.794 50.975 227.994 50.585C228.194 50.185 228.294 49.74 228.294 49.25C228.294 48.76 228.194 48.32 227.994 47.93C227.794 47.53 227.519 47.22 227.169 47C226.819 46.78 226.424 46.67 225.984 46.67C225.544 46.67 225.144 46.78 224.784 47C224.424 47.22 224.144 47.53 223.944 47.93C223.744 48.32 223.644 48.76 223.644 49.25C223.644 49.74 223.744 50.185 223.944 50.585C224.144 50.975 224.424 51.28 224.784 51.5C225.144 51.72 225.544 51.83 225.984 51.83ZM234.655 53.15C233.915 53.15 233.24 52.98 232.63 52.64C232.02 52.29 231.54 51.82 231.19 51.23C230.84 50.63 230.665 49.97 230.665 49.25C230.665 48.53 230.84 47.875 231.19 47.285C231.54 46.685 232.02 46.215 232.63 45.875C233.24 45.525 233.915 45.35 234.655 45.35C235.385 45.35 236.05 45.525 236.65 45.875C237.26 46.215 237.74 46.685 238.09 47.285C238.44 47.875 238.615 48.53 238.615 49.25C238.615 49.97 238.44 50.63 238.09 51.23C237.74 51.82 237.26 52.29 236.65 52.64C236.05 52.98 235.385 53.15 234.655 53.15ZM234.655 51.83C235.115 51.83 235.535 51.72 235.915 51.5C236.295 51.27 236.595 50.96 236.815 50.57C237.035 50.17 237.145 49.73 237.145 49.25C237.145 48.77 237.035 48.335 236.815 47.945C236.595 47.545 236.295 47.235 235.915 47.015C235.535 46.785 235.115 46.67 234.655 46.67C234.185 46.67 233.755 46.785 233.365 47.015C232.985 47.235 232.685 47.545 232.465 47.945C232.245 48.335 232.135 48.77 232.135 49.25C232.135 49.73 232.245 50.17 232.465 50.57C232.685 50.96 232.985 51.27 233.365 51.5C233.755 51.72 234.185 51.83 234.655 51.83ZM246.86 45.5V53H245.435V48.38L241.535 51.68V53H240.11V45.5H241.535V50.03L245.435 46.73V45.5H246.86ZM249.64 50.63C249.77 51.07 250.01 51.395 250.36 51.605C250.72 51.815 251.19 51.92 251.77 51.92C252.31 51.92 252.745 51.825 253.075 51.635C253.405 51.435 253.57 51.18 253.57 50.87C253.57 50.6 253.45 50.37 253.21 50.18C252.97 49.98 252.56 49.88 251.98 49.88H250.675V48.65H251.92C252.44 48.65 252.81 48.555 253.03 48.365C253.26 48.175 253.375 47.945 253.375 47.675C253.375 47.335 253.22 47.065 252.91 46.865C252.61 46.665 252.195 46.565 251.665 46.565C251.155 46.565 250.73 46.66 250.39 46.85C250.06 47.04 249.845 47.34 249.745 47.75H248.335C248.465 47 248.84 46.415 249.46 45.995C250.08 45.565 250.815 45.35 251.665 45.35C252.605 45.35 253.365 45.555 253.945 45.965C254.525 46.365 254.815 46.895 254.815 47.555C254.815 47.885 254.725 48.195 254.545 48.485C254.365 48.765 254.095 48.99 253.735 49.16C254.565 49.49 254.98 50.055 254.98 50.855C254.98 51.545 254.68 52.1 254.08 52.52C253.49 52.94 252.685 53.15 251.665 53.15C250.745 53.15 249.965 52.925 249.325 52.475C248.685 52.025 248.315 51.41 248.215 50.63H249.64ZM261.637 49.175C262.377 49.545 262.747 50.115 262.747 50.885C262.747 51.505 262.522 52.015 262.072 52.415C261.622 52.805 261.002 53 260.212 53H256.447V45.5H260.212C260.962 45.5 261.552 45.695 261.982 46.085C262.422 46.465 262.642 46.95 262.642 47.54C262.642 47.89 262.557 48.21 262.387 48.5C262.227 48.78 261.977 49.005 261.637 49.175ZM260.047 48.62C260.417 48.62 260.697 48.535 260.887 48.365C261.077 48.195 261.172 47.945 261.172 47.615C261.172 47.005 260.797 46.7 260.047 46.7H257.842V48.62H260.047ZM260.062 51.8C260.462 51.8 260.762 51.715 260.962 51.545C261.172 51.365 261.277 51.11 261.277 50.78C261.277 50.47 261.172 50.235 260.962 50.075C260.762 49.905 260.462 49.82 260.062 49.82H257.842V51.8H260.062ZM267.491 53.15C266.751 53.15 266.076 52.98 265.466 52.64C264.856 52.29 264.376 51.82 264.026 51.23C263.676 50.63 263.501 49.97 263.501 49.25C263.501 48.53 263.676 47.875 264.026 47.285C264.376 46.685 264.856 46.215 265.466 45.875C266.076 45.525 266.751 45.35 267.491 45.35C268.221 45.35 268.886 45.525 269.486 45.875C270.096 46.215 270.576 46.685 270.926 47.285C271.276 47.875 271.451 48.53 271.451 49.25C271.451 49.97 271.276 50.63 270.926 51.23C270.576 51.82 270.096 52.29 269.486 52.64C268.886 52.98 268.221 53.15 267.491 53.15ZM267.491 51.83C267.951 51.83 268.371 51.72 268.751 51.5C269.131 51.27 269.431 50.96 269.651 50.57C269.871 50.17 269.981 49.73 269.981 49.25C269.981 48.77 269.871 48.335 269.651 47.945C269.431 47.545 269.131 47.235 268.751 47.015C268.371 46.785 267.951 46.67 267.491 46.67C267.021 46.67 266.591 46.785 266.201 47.015C265.821 47.235 265.521 47.545 265.301 47.945C265.081 48.335 264.971 48.77 264.971 49.25C264.971 49.73 265.081 50.17 265.301 50.57C265.521 50.96 265.821 51.27 266.201 51.5C266.591 51.72 267.021 51.83 267.491 51.83ZM280.118 51.65V54.65H278.738V53H273.128V54.65H271.748V51.65H272.678C273.098 51.09 273.423 50.35 273.653 49.43C273.883 48.5 273.998 47.47 273.998 46.34V45.5H279.068V51.65H280.118ZM277.673 51.695V46.775H275.333C275.263 48.875 274.863 50.515 274.133 51.695H277.673ZM280.644 49.25C280.644 48.53 280.819 47.875 281.169 47.285C281.519 46.685 281.999 46.215 282.609 45.875C283.219 45.525 283.894 45.35 284.634 45.35C285.464 45.35 286.209 45.595 286.869 46.085C287.539 46.565 287.979 47.195 288.189 47.975H286.629C286.459 47.575 286.184 47.26 285.804 47.03C285.434 46.79 285.019 46.67 284.559 46.67C284.089 46.67 283.669 46.785 283.299 47.015C282.929 47.235 282.639 47.545 282.429 47.945C282.219 48.335 282.114 48.77 282.114 49.25C282.114 49.73 282.219 50.17 282.429 50.57C282.639 50.96 282.929 51.27 283.299 51.5C283.669 51.72 284.089 51.83 284.559 51.83C285.019 51.83 285.434 51.715 285.804 51.485C286.184 51.245 286.459 50.925 286.629 50.525H288.189C287.979 51.305 287.539 51.94 286.869 52.43C286.209 52.91 285.464 53.15 284.634 53.15C283.894 53.15 283.219 52.98 282.609 52.64C281.999 52.29 281.519 51.82 281.169 51.23C280.819 50.63 280.644 49.97 280.644 49.25ZM294.953 46.85H292.328V53H290.903V46.85H288.278V45.5H294.953V46.85ZM301.337 49.175C302.077 49.545 302.447 50.115 302.447 50.885C302.447 51.505 302.222 52.015 301.772 52.415C301.322 52.805 300.702 53 299.912 53H296.147V45.5H299.912C300.662 45.5 301.252 45.695 301.682 46.085C302.122 46.465 302.342 46.95 302.342 47.54C302.342 47.89 302.257 48.21 302.087 48.5C301.927 48.78 301.677 49.005 301.337 49.175ZM299.747 48.62C300.117 48.62 300.397 48.535 300.587 48.365C300.777 48.195 300.872 47.945 300.872 47.615C300.872 47.005 300.497 46.7 299.747 46.7H297.542V48.62H299.747ZM299.762 51.8C300.162 51.8 300.462 51.715 300.662 51.545C300.872 51.365 300.977 51.11 300.977 50.78C300.977 50.47 300.872 50.235 300.662 50.075C300.462 49.905 300.162 49.82 299.762 49.82H297.542V51.8H299.762ZM310.626 51.65V53H309.906C309.536 53 309.246 52.91 309.036 52.73C308.826 52.54 308.701 52.27 308.661 51.92C308.341 52.29 307.926 52.59 307.416 52.82C306.916 53.04 306.386 53.15 305.826 53.15C305.016 53.15 304.386 52.95 303.936 52.55C303.496 52.15 303.276 51.615 303.276 50.945C303.276 50.335 303.516 49.815 303.996 49.385C304.476 48.945 305.151 48.68 306.021 48.59L306.861 48.5C307.331 48.45 307.681 48.39 307.911 48.32C308.141 48.24 308.286 48.155 308.346 48.065C308.416 47.975 308.451 47.855 308.451 47.705C308.451 47.365 308.286 47.1 307.956 46.91C307.636 46.71 307.191 46.61 306.621 46.61C306.251 46.61 305.896 46.71 305.556 46.91C305.216 47.1 304.981 47.375 304.851 47.735H303.336C303.476 47.035 303.856 46.465 304.476 46.025C305.096 45.575 305.836 45.35 306.696 45.35C307.646 45.35 308.426 45.61 309.036 46.13C309.646 46.65 309.951 47.395 309.951 48.365V51.245C309.951 51.375 309.986 51.475 310.056 51.545C310.126 51.615 310.221 51.65 310.341 51.65H310.626ZM305.976 51.92C306.446 51.92 306.886 51.825 307.296 51.635C307.706 51.435 308.031 51.175 308.271 50.855C308.521 50.525 308.646 50.175 308.646 49.805V49.13C308.306 49.39 307.766 49.56 307.026 49.64L306.186 49.73C305.626 49.79 305.236 49.925 305.016 50.135C304.796 50.345 304.686 50.61 304.686 50.93C304.686 51.23 304.796 51.47 305.016 51.65C305.246 51.83 305.566 51.92 305.976 51.92ZM322.847 45.5V53H321.422V48.38L317.522 51.68V53H316.097V45.5H317.522V50.03L321.422 46.73V45.5H322.847ZM1.8 71.63C1.93 72.07 2.17 72.395 2.52 72.605C2.88 72.815 3.35 72.92 3.93 72.92C4.47 72.92 4.905 72.825 5.235 72.635C5.565 72.435 5.73 72.18 5.73 71.87C5.73 71.6 5.61 71.37 5.37 71.18C5.13 70.98 4.72 70.88 4.14 70.88H2.835V69.65H4.08C4.6 69.65 4.97 69.555 5.19 69.365C5.42 69.175 5.535 68.945 5.535 68.675C5.535 68.335 5.38 68.065 5.07 67.865C4.77 67.665 4.355 67.565 3.825 67.565C3.315 67.565 2.89 67.66 2.55 67.85C2.22 68.04 2.005 68.34 1.905 68.75H0.495C0.625 68 1 67.415 1.62 66.995C2.24 66.565 2.975 66.35 3.825 66.35C4.765 66.35 5.525 66.555 6.105 66.965C6.685 67.365 6.975 67.895 6.975 68.555C6.975 68.885 6.885 69.195 6.705 69.485C6.525 69.765 6.255 69.99 5.895 70.16C6.725 70.49 7.14 71.055 7.14 71.855C7.14 72.545 6.84 73.1 6.24 73.52C5.65 73.94 4.845 74.15 3.825 74.15C2.905 74.15 2.125 73.925 1.485 73.475C0.845 73.025 0.475 72.41 0.375 71.63H1.8ZM15.2104 72.65V74H14.4904C14.1204 74 13.8304 73.91 13.6204 73.73C13.4104 73.54 13.2854 73.27 13.2454 72.92C12.9254 73.29 12.5104 73.59 12.0004 73.82C11.5004 74.04 10.9704 74.15 10.4104 74.15C9.60035 74.15 8.97035 73.95 8.52035 73.55C8.08035 73.15 7.86035 72.615 7.86035 71.945C7.86035 71.335 8.10035 70.815 8.58035 70.385C9.06035 69.945 9.73535 69.68 10.6054 69.59L11.4454 69.5C11.9154 69.45 12.2654 69.39 12.4954 69.32C12.7254 69.24 12.8704 69.155 12.9304 69.065C13.0004 68.975 13.0354 68.855 13.0354 68.705C13.0354 68.365 12.8704 68.1 12.5404 67.91C12.2204 67.71 11.7754 67.61 11.2054 67.61C10.8354 67.61 10.4804 67.71 10.1404 67.91C9.80035 68.1 9.56535 68.375 9.43535 68.735H7.92035C8.06035 68.035 8.44035 67.465 9.06035 67.025C9.68035 66.575 10.4204 66.35 11.2804 66.35C12.2304 66.35 13.0104 66.61 13.6204 67.13C14.2304 67.65 14.5354 68.395 14.5354 69.365V72.245C14.5354 72.375 14.5704 72.475 14.6404 72.545C14.7104 72.615 14.8054 72.65 14.9254 72.65H15.2104ZM10.5604 72.92C11.0304 72.92 11.4704 72.825 11.8804 72.635C12.2904 72.435 12.6154 72.175 12.8554 71.855C13.1054 71.525 13.2304 71.175 13.2304 70.805V70.13C12.8904 70.39 12.3504 70.56 11.6104 70.64L10.7704 70.73C10.2104 70.79 9.82035 70.925 9.60035 71.135C9.38035 71.345 9.27035 71.61 9.27035 71.93C9.27035 72.23 9.38035 72.47 9.60035 72.65C9.83035 72.83 10.1504 72.92 10.5604 72.92ZM22.4021 67.85H19.7771V74H18.3521V67.85H15.7271V66.5H22.4021V67.85ZM27.5563 66.35C28.2163 66.35 28.8163 66.52 29.3563 66.86C29.8963 67.19 30.3213 67.65 30.6313 68.24C30.9413 68.83 31.0963 69.5 31.0963 70.25C31.0963 71 30.9413 71.67 30.6313 72.26C30.3213 72.85 29.8963 73.315 29.3563 73.655C28.8163 73.985 28.2163 74.15 27.5563 74.15C27.0563 74.15 26.5863 74.04 26.1463 73.82C25.7063 73.59 25.3313 73.275 25.0213 72.875V76.55H23.5963V66.5H24.9463V67.715C25.2663 67.285 25.6513 66.95 26.1013 66.71C26.5513 66.47 27.0363 66.35 27.5563 66.35ZM27.3163 72.83C27.7563 72.83 28.1513 72.72 28.5013 72.5C28.8513 72.28 29.1263 71.975 29.3263 71.585C29.5263 71.185 29.6263 70.74 29.6263 70.25C29.6263 69.76 29.5263 69.32 29.3263 68.93C29.1263 68.53 28.8513 68.22 28.5013 68C28.1513 67.78 27.7563 67.67 27.3163 67.67C26.8763 67.67 26.4763 67.78 26.1163 68C25.7563 68.22 25.4763 68.53 25.2763 68.93C25.0763 69.32 24.9763 69.76 24.9763 70.25C24.9763 70.74 25.0763 71.185 25.2763 71.585C25.4763 71.975 25.7563 72.28 26.1163 72.5C26.4763 72.72 26.8763 72.83 27.3163 72.83ZM39.423 72.65V74H38.703C38.333 74 38.043 73.91 37.833 73.73C37.623 73.54 37.498 73.27 37.458 72.92C37.138 73.29 36.723 73.59 36.213 73.82C35.713 74.04 35.183 74.15 34.623 74.15C33.813 74.15 33.183 73.95 32.733 73.55C32.293 73.15 32.073 72.615 32.073 71.945C32.073 71.335 32.313 70.815 32.793 70.385C33.273 69.945 33.948 69.68 34.818 69.59L35.658 69.5C36.128 69.45 36.478 69.39 36.708 69.32C36.938 69.24 37.083 69.155 37.143 69.065C37.213 68.975 37.248 68.855 37.248 68.705C37.248 68.365 37.083 68.1 36.753 67.91C36.433 67.71 35.988 67.61 35.418 67.61C35.048 67.61 34.693 67.71 34.353 67.91C34.013 68.1 33.778 68.375 33.648 68.735H32.133C32.273 68.035 32.653 67.465 33.273 67.025C33.893 66.575 34.633 66.35 35.493 66.35C36.443 66.35 37.223 66.61 37.833 67.13C38.443 67.65 38.748 68.395 38.748 69.365V72.245C38.748 72.375 38.783 72.475 38.853 72.545C38.923 72.615 39.018 72.65 39.138 72.65H39.423ZM34.773 72.92C35.243 72.92 35.683 72.825 36.093 72.635C36.503 72.435 36.828 72.175 37.068 71.855C37.318 71.525 37.443 71.175 37.443 70.805V70.13C37.103 70.39 36.563 70.56 35.823 70.64L34.983 70.73C34.423 70.79 34.033 70.925 33.813 71.135C33.593 71.345 33.483 71.61 33.483 71.93C33.483 72.23 33.593 72.47 33.813 72.65C34.043 72.83 34.363 72.92 34.773 72.92ZM46.6148 67.85H43.9898V74H42.5648V67.85H39.9398V66.5H46.6148V67.85ZM51.514 69.47C52.304 69.47 52.919 69.685 53.359 70.115C53.809 70.535 54.034 71.075 54.034 71.735C54.034 72.395 53.809 72.94 53.359 73.37C52.919 73.79 52.304 74 51.514 74H47.809V66.5H49.234V69.47H51.514ZM51.319 72.755C51.729 72.755 52.039 72.67 52.249 72.5C52.459 72.33 52.564 72.075 52.564 71.735C52.564 71.395 52.459 71.14 52.249 70.97C52.039 70.8 51.729 70.715 51.319 70.715H49.234V72.755H51.319ZM56.809 66.5V74H55.384V66.5H56.809ZM60.3305 72.35L59.8805 75.8H58.8305V72.35H60.3305ZM72.1881 66.5V74H70.7631V71.09H68.3631C67.5931 71.09 66.9881 70.865 66.5481 70.415C66.1081 69.965 65.8881 69.39 65.8881 68.69V66.5H67.3131V68.645C67.3131 69.035 67.4131 69.325 67.6131 69.515C67.8231 69.705 68.1481 69.8 68.5881 69.8H70.7631V66.5H72.1881ZM80.0602 67.85H77.4352V74H76.0102V67.85H73.3852V66.5H80.0602V67.85ZM84.2763 74.15C83.5363 74.15 82.8613 73.98 82.2513 73.64C81.6413 73.29 81.1613 72.82 80.8113 72.23C80.4613 71.63 80.2863 70.97 80.2863 70.25C80.2863 69.53 80.4613 68.875 80.8113 68.285C81.1613 67.685 81.6413 67.215 82.2513 66.875C82.8613 66.525 83.5363 66.35 84.2763 66.35C85.0063 66.35 85.6713 66.525 86.2713 66.875C86.8813 67.215 87.3613 67.685 87.7113 68.285C88.0613 68.875 88.2363 69.53 88.2363 70.25C88.2363 70.97 88.0613 71.63 87.7113 72.23C87.3613 72.82 86.8813 73.29 86.2713 73.64C85.6713 73.98 85.0063 74.15 84.2763 74.15ZM84.2763 72.83C84.7363 72.83 85.1563 72.72 85.5363 72.5C85.9163 72.27 86.2163 71.96 86.4363 71.57C86.6563 71.17 86.7663 70.73 86.7663 70.25C86.7663 69.77 86.6563 69.335 86.4363 68.945C86.2163 68.545 85.9163 68.235 85.5363 68.015C85.1563 67.785 84.7363 67.67 84.2763 67.67C83.8063 67.67 83.3763 67.785 82.9863 68.015C82.6063 68.235 82.3063 68.545 82.0863 68.945C81.8663 69.335 81.7563 69.77 81.7563 70.25C81.7563 70.73 81.8663 71.17 82.0863 71.57C82.3063 71.96 82.6063 72.27 82.9863 72.5C83.3763 72.72 83.8063 72.83 84.2763 72.83ZM93.3005 66.725C93.9805 66.725 94.6055 66.89 95.1755 67.22C95.7455 67.54 96.1905 67.98 96.5105 68.54C96.8405 69.1 97.0055 69.72 97.0055 70.4C97.0055 71.09 96.8355 71.725 96.4955 72.305C96.1655 72.875 95.7055 73.325 95.1155 73.655C94.5355 73.985 93.8955 74.15 93.1955 74.15C92.4855 74.15 91.8355 73.985 91.2455 73.655C90.6655 73.315 90.2055 72.845 89.8655 72.245C89.5255 71.645 89.3555 70.965 89.3555 70.205V67.325C89.3555 66.385 89.5905 65.68 90.0605 65.21C90.5405 64.73 91.2155 64.435 92.0855 64.325L94.7705 63.98C95.0205 63.95 95.1455 63.825 95.1455 63.605V63.425H96.5855V63.785C96.5855 64.195 96.4555 64.525 96.1955 64.775C95.9455 65.015 95.6505 65.155 95.3105 65.195L92.2205 65.6C91.6605 65.67 91.2455 65.825 90.9755 66.065C90.7155 66.295 90.5855 66.66 90.5855 67.16V68.21C90.8955 67.74 91.2855 67.375 91.7555 67.115C92.2355 66.855 92.7505 66.725 93.3005 66.725ZM93.1505 72.83C93.5905 72.83 93.9905 72.725 94.3505 72.515C94.7205 72.295 95.0105 72 95.2205 71.63C95.4305 71.26 95.5355 70.85 95.5355 70.4C95.5355 69.95 95.4305 69.54 95.2205 69.17C95.0105 68.8 94.7205 68.51 94.3505 68.3C93.9905 68.08 93.5905 67.97 93.1505 67.97C92.7005 67.97 92.2905 68.08 91.9205 68.3C91.5505 68.51 91.2605 68.8 91.0505 69.17C90.8405 69.54 90.7355 69.95 90.7355 70.4C90.7355 70.85 90.8405 71.26 91.0505 71.63C91.2605 72 91.5505 72.295 91.9205 72.515C92.2905 72.725 92.7005 72.83 93.1505 72.83ZM102.205 69.47C102.995 69.47 103.61 69.685 104.05 70.115C104.5 70.535 104.725 71.075 104.725 71.735C104.725 72.395 104.5 72.94 104.05 73.37C103.61 73.79 102.995 74 102.205 74H98.4996V66.5H99.9246V69.47H102.205ZM102.01 72.755C102.42 72.755 102.73 72.67 102.94 72.5C103.15 72.33 103.255 72.075 103.255 71.735C103.255 71.395 103.15 71.14 102.94 70.97C102.73 70.8 102.42 70.715 102.01 70.715H99.9246V72.755H102.01ZM107.5 66.5V74H106.075V66.5H107.5ZM120.4 74H118.975V67.85H115.075V74H113.65V66.5H120.4V74ZM126.54 66.35C127.2 66.35 127.8 66.52 128.34 66.86C128.88 67.19 129.305 67.65 129.615 68.24C129.925 68.83 130.08 69.5 130.08 70.25C130.08 71 129.925 71.67 129.615 72.26C129.305 72.85 128.88 73.315 128.34 73.655C127.8 73.985 127.2 74.15 126.54 74.15C126.04 74.15 125.57 74.04 125.13 73.82C124.69 73.59 124.315 73.275 124.005 72.875V76.55H122.58V66.5H123.93V67.715C124.25 67.285 124.635 66.95 125.085 66.71C125.535 66.47 126.02 66.35 126.54 66.35ZM126.3 72.83C126.74 72.83 127.135 72.72 127.485 72.5C127.835 72.28 128.11 71.975 128.31 71.585C128.51 71.185 128.61 70.74 128.61 70.25C128.61 69.76 128.51 69.32 128.31 68.93C128.11 68.53 127.835 68.22 127.485 68C127.135 67.78 126.74 67.67 126.3 67.67C125.86 67.67 125.46 67.78 125.1 68C124.74 68.22 124.46 68.53 124.26 68.93C124.06 69.32 123.96 69.76 123.96 70.25C123.96 70.74 124.06 71.185 124.26 71.585C124.46 71.975 124.74 72.28 125.1 72.5C125.46 72.72 125.86 72.83 126.3 72.83ZM134.822 66.35C135.592 66.35 136.262 66.515 136.832 66.845C137.412 67.175 137.857 67.645 138.167 68.255C138.477 68.855 138.632 69.56 138.632 70.37C138.632 70.58 138.627 70.735 138.617 70.835H132.467C132.567 71.415 132.837 71.895 133.277 72.275C133.727 72.645 134.247 72.83 134.837 72.83C135.807 72.83 136.497 72.475 136.907 71.765H138.377C138.137 72.465 137.692 73.04 137.042 73.49C136.392 73.93 135.657 74.15 134.837 74.15C134.107 74.15 133.447 73.985 132.857 73.655C132.267 73.315 131.807 72.85 131.477 72.26C131.147 71.66 130.982 70.99 130.982 70.25C130.982 69.51 131.147 68.845 131.477 68.255C131.807 67.655 132.262 67.19 132.842 66.86C133.432 66.52 134.092 66.35 134.822 66.35ZM134.792 67.61C134.202 67.61 133.692 67.795 133.262 68.165C132.842 68.535 132.582 69.01 132.482 69.59H137.087C137.027 68.99 136.782 68.51 136.352 68.15C135.932 67.79 135.412 67.61 134.792 67.61ZM147.307 72.65V75.65H145.927V74H140.317V75.65H138.937V72.65H139.867C140.287 72.09 140.612 71.35 140.842 70.43C141.072 69.5 141.187 68.47 141.187 67.34V66.5H146.257V72.65H147.307ZM144.862 72.695V67.775H142.522C142.452 69.875 142.052 71.515 141.322 72.695H144.862ZM155.209 74H153.784V67.85H151.159C151.149 69.31 151.034 70.495 150.814 71.405C150.594 72.305 150.254 72.97 149.794 73.4C149.344 73.83 148.754 74.045 148.024 74.045C147.854 74.045 147.714 74.03 147.604 74V72.695C147.744 72.715 147.849 72.725 147.919 72.725C148.359 72.725 148.709 72.56 148.969 72.23C149.239 71.89 149.434 71.355 149.554 70.625C149.674 69.885 149.734 68.905 149.734 67.685V66.5H155.209V74ZM160.694 74.15C159.954 74.15 159.279 73.98 158.669 73.64C158.059 73.29 157.579 72.82 157.229 72.23C156.879 71.63 156.704 70.97 156.704 70.25C156.704 69.53 156.879 68.875 157.229 68.285C157.579 67.685 158.059 67.215 158.669 66.875C159.279 66.525 159.954 66.35 160.694 66.35C161.424 66.35 162.089 66.525 162.689 66.875C163.299 67.215 163.779 67.685 164.129 68.285C164.479 68.875 164.654 69.53 164.654 70.25C164.654 70.97 164.479 71.63 164.129 72.23C163.779 72.82 163.299 73.29 162.689 73.64C162.089 73.98 161.424 74.15 160.694 74.15ZM160.694 72.83C161.154 72.83 161.574 72.72 161.954 72.5C162.334 72.27 162.634 71.96 162.854 71.57C163.074 71.17 163.184 70.73 163.184 70.25C163.184 69.77 163.074 69.335 162.854 68.945C162.634 68.545 162.334 68.235 161.954 68.015C161.574 67.785 161.154 67.67 160.694 67.67C160.224 67.67 159.794 67.785 159.404 68.015C159.024 68.235 158.724 68.545 158.504 68.945C158.284 69.335 158.174 69.77 158.174 70.25C158.174 70.73 158.284 71.17 158.504 71.57C158.724 71.96 159.024 72.27 159.404 72.5C159.794 72.72 160.224 72.83 160.694 72.83ZM175.819 72.635V74H175.219C174.749 74 174.389 73.875 174.139 73.625C173.899 73.365 173.779 72.985 173.779 72.485V71.54C173.779 71.07 173.549 70.835 173.089 70.835H171.319V74H169.894V70.835H168.124C167.664 70.835 167.434 71.07 167.434 71.54V72.485C167.434 72.985 167.309 73.365 167.059 73.625C166.819 73.875 166.464 74 165.994 74H165.394V72.635H165.679C165.789 72.635 165.874 72.605 165.934 72.545C166.004 72.475 166.039 72.385 166.039 72.275V71.345C166.039 70.805 166.284 70.42 166.774 70.19C166.404 69.94 166.219 69.555 166.219 69.035V68.225C166.219 68.115 166.184 68.03 166.114 67.97C166.054 67.9 165.969 67.865 165.859 67.865H165.574V66.5H166.219C167.119 66.5 167.569 66.98 167.569 67.94V68.75C167.569 69.03 167.639 69.24 167.779 69.38C167.929 69.52 168.139 69.59 168.409 69.59H169.894V66.5H171.319V69.59H172.804C173.074 69.59 173.279 69.52 173.419 69.38C173.569 69.24 173.644 69.03 173.644 68.75V67.94C173.644 66.98 174.094 66.5 174.994 66.5H175.639V67.865H175.354C175.244 67.865 175.154 67.9 175.084 67.97C175.024 68.03 174.994 68.115 174.994 68.225V69.035C174.994 69.555 174.809 69.94 174.439 70.19C174.929 70.42 175.174 70.805 175.174 71.345V72.275C175.174 72.385 175.204 72.475 175.264 72.545C175.334 72.605 175.424 72.635 175.534 72.635H175.819ZM184.45 66.5V74H183.025V69.38L179.125 72.68V74H177.7V66.5H179.125V71.03L183.025 67.73V66.5H184.45ZM192.33 67.85H189.705V74H188.28V67.85H185.655V66.5H192.33V67.85ZM197.23 69.47C198.02 69.47 198.635 69.685 199.075 70.115C199.525 70.535 199.75 71.075 199.75 71.735C199.75 72.395 199.525 72.94 199.075 73.37C198.635 73.79 198.02 74 197.23 74H193.525V66.5H194.95V69.47H197.23ZM197.035 72.755C197.445 72.755 197.755 72.67 197.965 72.5C198.175 72.33 198.28 72.075 198.28 71.735C198.28 71.395 198.175 71.14 197.965 70.97C197.755 70.8 197.445 70.715 197.035 70.715H194.95V72.755H197.035ZM211.91 66.5V74H210.485V70.925H206.585V74H205.16V66.5H206.585V69.575H210.485V66.5H211.91ZM220.84 72.65V74H220.12C219.75 74 219.46 73.91 219.25 73.73C219.04 73.54 218.915 73.27 218.875 72.92C218.555 73.29 218.14 73.59 217.63 73.82C217.13 74.04 216.6 74.15 216.04 74.15C215.23 74.15 214.6 73.95 214.15 73.55C213.71 73.15 213.49 72.615 213.49 71.945C213.49 71.335 213.73 70.815 214.21 70.385C214.69 69.945 215.365 69.68 216.235 69.59L217.075 69.5C217.545 69.45 217.895 69.39 218.125 69.32C218.355 69.24 218.5 69.155 218.56 69.065C218.63 68.975 218.665 68.855 218.665 68.705C218.665 68.365 218.5 68.1 218.17 67.91C217.85 67.71 217.405 67.61 216.835 67.61C216.465 67.61 216.11 67.71 215.77 67.91C215.43 68.1 215.195 68.375 215.065 68.735H213.55C213.69 68.035 214.07 67.465 214.69 67.025C215.31 66.575 216.05 66.35 216.91 66.35C217.86 66.35 218.64 66.61 219.25 67.13C219.86 67.65 220.165 68.395 220.165 69.365V72.245C220.165 72.375 220.2 72.475 220.27 72.545C220.34 72.615 220.435 72.65 220.555 72.65H220.84ZM216.19 72.92C216.66 72.92 217.1 72.825 217.51 72.635C217.92 72.435 218.245 72.175 218.485 71.855C218.735 71.525 218.86 71.175 218.86 70.805V70.13C218.52 70.39 217.98 70.56 217.24 70.64L216.4 70.73C215.84 70.79 215.45 70.925 215.23 71.135C215.01 71.345 214.9 71.61 214.9 71.93C214.9 72.23 215.01 72.47 215.23 72.65C215.46 72.83 215.78 72.92 216.19 72.92ZM232.757 66.5V74H222.332V66.5H223.757V72.65H226.832V66.5H228.257V72.65H231.332V66.5H232.757ZM241.689 66.5V74H240.264V69.38L236.364 72.68V74H234.939V66.5H236.364V71.03L240.264 67.73V66.5H241.689ZM253.169 74H251.744V68.525L249.224 74H247.814L245.294 68.57V74H243.869V66.5H245.819L248.549 72.515L251.249 66.5H253.169V74ZM266.137 72.635V74H265.537C265.067 74 264.707 73.875 264.457 73.625C264.217 73.365 264.097 72.985 264.097 72.485V71.54C264.097 71.07 263.867 70.835 263.407 70.835H260.752V74H259.327V66.5H260.752V69.605H263.212C263.482 69.605 263.687 69.535 263.827 69.395C263.977 69.255 264.052 69.045 264.052 68.765V67.94C264.052 66.98 264.502 66.5 265.402 66.5H266.047V67.865H265.762C265.652 67.865 265.562 67.9 265.492 67.97C265.432 68.03 265.402 68.115 265.402 68.225V69.035C265.402 69.585 265.202 69.975 264.802 70.205C265.262 70.425 265.492 70.805 265.492 71.345V72.275C265.492 72.385 265.522 72.475 265.582 72.545C265.652 72.605 265.742 72.635 265.852 72.635H266.137ZM274.505 74H273.08V67.85H270.455C270.445 69.31 270.33 70.495 270.11 71.405C269.89 72.305 269.55 72.97 269.09 73.4C268.64 73.83 268.05 74.045 267.32 74.045C267.15 74.045 267.01 74.03 266.9 74V72.695C267.04 72.715 267.145 72.725 267.215 72.725C267.655 72.725 268.005 72.56 268.265 72.23C268.535 71.89 268.73 71.355 268.85 70.625C268.97 69.885 269.03 68.905 269.03 67.685V66.5H274.505V74ZM283.425 66.5V74H282V69.38L278.1 72.68V74H276.675V66.5H278.1V71.03L282 67.73V66.5H283.425ZM288.77 66.35C289.54 66.35 290.21 66.515 290.78 66.845C291.36 67.175 291.805 67.645 292.115 68.255C292.425 68.855 292.58 69.56 292.58 70.37C292.58 70.58 292.575 70.735 292.565 70.835H286.415C286.515 71.415 286.785 71.895 287.225 72.275C287.675 72.645 288.195 72.83 288.785 72.83C289.755 72.83 290.445 72.475 290.855 71.765H292.325C292.085 72.465 291.64 73.04 290.99 73.49C290.34 73.93 289.605 74.15 288.785 74.15C288.055 74.15 287.395 73.985 286.805 73.655C286.215 73.315 285.755 72.85 285.425 72.26C285.095 71.66 284.93 70.99 284.93 70.25C284.93 69.51 285.095 68.845 285.425 68.255C285.755 67.655 286.21 67.19 286.79 66.86C287.38 66.52 288.04 66.35 288.77 66.35ZM288.74 67.61C288.15 67.61 287.64 67.795 287.21 68.165C286.79 68.535 286.53 69.01 286.43 69.59H291.035C290.975 68.99 290.73 68.51 290.3 68.15C289.88 67.79 289.36 67.61 288.74 67.61ZM300.831 66.5V74H299.406V70.925H295.506V74H294.081V66.5H295.506V69.575H299.406V66.5H300.831ZM308.712 67.85H306.087V74H304.662V67.85H302.037V66.5H308.712V67.85ZM316.363 72.65V74H315.643C315.273 74 314.983 73.91 314.773 73.73C314.563 73.54 314.438 73.27 314.398 72.92C314.078 73.29 313.663 73.59 313.153 73.82C312.653 74.04 312.123 74.15 311.563 74.15C310.753 74.15 310.123 73.95 309.673 73.55C309.233 73.15 309.013 72.615 309.013 71.945C309.013 71.335 309.253 70.815 309.733 70.385C310.213 69.945 310.888 69.68 311.758 69.59L312.598 69.5C313.068 69.45 313.418 69.39 313.648 69.32C313.878 69.24 314.023 69.155 314.083 69.065C314.153 68.975 314.188 68.855 314.188 68.705C314.188 68.365 314.023 68.1 313.693 67.91C313.373 67.71 312.928 67.61 312.358 67.61C311.988 67.61 311.633 67.71 311.293 67.91C310.953 68.1 310.718 68.375 310.588 68.735H309.073C309.213 68.035 309.593 67.465 310.213 67.025C310.833 66.575 311.573 66.35 312.433 66.35C313.383 66.35 314.163 66.61 314.773 67.13C315.383 67.65 315.688 68.395 315.688 69.365V72.245C315.688 72.375 315.723 72.475 315.793 72.545C315.863 72.615 315.958 72.65 316.078 72.65H316.363ZM311.713 72.92C312.183 72.92 312.623 72.825 313.033 72.635C313.443 72.435 313.768 72.175 314.008 71.855C314.258 71.525 314.383 71.175 314.383 70.805V70.13C314.043 70.39 313.503 70.56 312.763 70.64L311.923 70.73C311.363 70.79 310.973 70.925 310.753 71.135C310.533 71.345 310.423 71.61 310.423 71.93C310.423 72.23 310.533 72.47 310.753 72.65C310.983 72.83 311.303 72.92 311.713 72.92ZM327.155 74H325.73V68.525L323.21 74H321.8L319.28 68.57V74H317.855V66.5H319.805L322.535 72.515L325.235 66.5H327.155V74ZM7.755 95H6.33V88.85H3.705C3.695 90.31 3.58 91.495 3.36 92.405C3.14 93.305 2.8 93.97 2.34 94.4C1.89 94.83 1.3 95.045 0.57 95.045C0.4 95.045 0.26 95.03 0.15 95V93.695C0.29 93.715 0.395 93.725 0.465 93.725C0.905 93.725 1.255 93.56 1.515 93.23C1.785 92.89 1.98 92.355 2.1 91.625C2.22 90.885 2.28 89.905 2.28 88.685V87.5H7.755V95ZM17.1702 87.5L13.5252 95.84C13.3352 96.35 13.0702 96.765 12.7302 97.085C12.3902 97.415 11.8902 97.58 11.2302 97.58C10.7602 97.58 10.3952 97.57 10.1352 97.55V96.2C10.4152 96.22 10.7502 96.23 11.1402 96.23C11.4202 96.23 11.6402 96.155 11.8002 96.005C11.9702 95.855 12.1102 95.65 12.2202 95.39L12.4452 94.865L8.80019 87.5H10.4652L13.1502 93.26L15.6702 87.5H17.1702ZM24.1928 87.5V95H22.7678V92.09H20.3678C19.5978 92.09 18.9928 91.865 18.5528 91.415C18.1128 90.965 17.8928 90.39 17.8928 89.69V87.5H19.3178V89.645C19.3178 90.035 19.4178 90.325 19.6178 90.515C19.8278 90.705 20.1528 90.8 20.5928 90.8H22.7678V87.5H24.1928ZM36.7898 87.5V95H26.3648V87.5H27.7898V93.65H30.8648V87.5H32.2898V93.65H35.3648V87.5H36.7898ZM42.1369 87.35C42.9069 87.35 43.5769 87.515 44.1469 87.845C44.7269 88.175 45.1719 88.645 45.4819 89.255C45.7919 89.855 45.9469 90.56 45.9469 91.37C45.9469 91.58 45.9419 91.735 45.9319 91.835H39.7819C39.8819 92.415 40.1519 92.895 40.5919 93.275C41.0419 93.645 41.5619 93.83 42.1519 93.83C43.1219 93.83 43.8119 93.475 44.2219 92.765H45.6919C45.4519 93.465 45.0069 94.04 44.3569 94.49C43.7069 94.93 42.9719 95.15 42.1519 95.15C41.4219 95.15 40.7619 94.985 40.1719 94.655C39.5819 94.315 39.1219 93.85 38.7919 93.26C38.4619 92.66 38.2969 91.99 38.2969 91.25C38.2969 90.51 38.4619 89.845 38.7919 89.255C39.1219 88.655 39.5769 88.19 40.1569 87.86C40.7469 87.52 41.4069 87.35 42.1369 87.35ZM42.1069 88.61C41.5169 88.61 41.0069 88.795 40.5769 89.165C40.1569 89.535 39.8969 90.01 39.7969 90.59H44.4019C44.3419 89.99 44.0969 89.51 43.6669 89.15C43.2469 88.79 42.7269 88.61 42.1069 88.61ZM50.6863 87.35C51.4563 87.35 52.1263 87.515 52.6963 87.845C53.2763 88.175 53.7213 88.645 54.0313 89.255C54.3413 89.855 54.4963 90.56 54.4963 91.37C54.4963 91.58 54.4913 91.735 54.4813 91.835H48.3313C48.4313 92.415 48.7013 92.895 49.1413 93.275C49.5913 93.645 50.1113 93.83 50.7013 93.83C51.6713 93.83 52.3613 93.475 52.7713 92.765H54.2413C54.0013 93.465 53.5563 94.04 52.9063 94.49C52.2563 94.93 51.5213 95.15 50.7013 95.15C49.9713 95.15 49.3113 94.985 48.7213 94.655C48.1313 94.315 47.6713 93.85 47.3413 93.26C47.0113 92.66 46.8463 91.99 46.8463 91.25C46.8463 90.51 47.0113 89.845 47.3413 89.255C47.6713 88.655 48.1263 88.19 48.7063 87.86C49.2963 87.52 49.9563 87.35 50.6863 87.35ZM50.6563 88.61C50.0663 88.61 49.5563 88.795 49.1263 89.165C48.7063 89.535 48.4463 90.01 48.3463 90.59H52.9513C52.8913 89.99 52.6463 89.51 52.2163 89.15C51.7963 88.79 51.2763 88.61 50.6563 88.61ZM66.7866 93.635V95H66.1866C65.7166 95 65.3566 94.875 65.1066 94.625C64.8666 94.365 64.7466 93.985 64.7466 93.485V92.54C64.7466 92.07 64.5166 91.835 64.0566 91.835H61.4016V95H59.9766V87.5H61.4016V90.605H63.8616C64.1316 90.605 64.3366 90.535 64.4766 90.395C64.6266 90.255 64.7016 90.045 64.7016 89.765V88.94C64.7016 87.98 65.1516 87.5 66.0516 87.5H66.6966V88.865H66.4116C66.3016 88.865 66.2116 88.9 66.1416 88.97C66.0816 89.03 66.0516 89.115 66.0516 89.225V90.035C66.0516 90.585 65.8516 90.975 65.4516 91.205C65.9116 91.425 66.1416 91.805 66.1416 92.345V93.275C66.1416 93.385 66.1716 93.475 66.2316 93.545C66.3016 93.605 66.3916 93.635 66.5016 93.635H66.7866ZM75.3492 93.65V95H74.6292C74.2592 95 73.9692 94.91 73.7592 94.73C73.5492 94.54 73.4242 94.27 73.3842 93.92C73.0642 94.29 72.6492 94.59 72.1392 94.82C71.6392 95.04 71.1092 95.15 70.5492 95.15C69.7392 95.15 69.1092 94.95 68.6592 94.55C68.2192 94.15 67.9992 93.615 67.9992 92.945C67.9992 92.335 68.2392 91.815 68.7192 91.385C69.1992 90.945 69.8742 90.68 70.7442 90.59L71.5842 90.5C72.0542 90.45 72.4042 90.39 72.6342 90.32C72.8642 90.24 73.0092 90.155 73.0692 90.065C73.1392 89.975 73.1742 89.855 73.1742 89.705C73.1742 89.365 73.0092 89.1 72.6792 88.91C72.3592 88.71 71.9142 88.61 71.3442 88.61C70.9742 88.61 70.6192 88.71 70.2792 88.91C69.9392 89.1 69.7042 89.375 69.5742 89.735H68.0592C68.1992 89.035 68.5792 88.465 69.1992 88.025C69.8192 87.575 70.5592 87.35 71.4192 87.35C72.3692 87.35 73.1492 87.61 73.7592 88.13C74.3692 88.65 74.6742 89.395 74.6742 90.365V93.245C74.6742 93.375 74.7092 93.475 74.7792 93.545C74.8492 93.615 74.9442 93.65 75.0642 93.65H75.3492ZM70.6992 93.92C71.1692 93.92 71.6092 93.825 72.0192 93.635C72.4292 93.435 72.7542 93.175 72.9942 92.855C73.2442 92.525 73.3692 92.175 73.3692 91.805V91.13C73.0292 91.39 72.4892 91.56 71.7492 91.64L70.9092 91.73C70.3492 91.79 69.9592 91.925 69.7392 92.135C69.5192 92.345 69.4092 92.61 69.4092 92.93C69.4092 93.23 69.5192 93.47 69.7392 93.65C69.9692 93.83 70.2892 93.92 70.6992 93.92ZM82.691 87.5V95H81.266V92.09H78.866C78.096 92.09 77.491 91.865 77.051 91.415C76.611 90.965 76.391 90.39 76.391 89.69V87.5H77.816V89.645C77.816 90.035 77.916 90.325 78.116 90.515C78.326 90.705 78.651 90.8 79.091 90.8H81.266V87.5H82.691ZM88.0281 87.35C88.7981 87.35 89.4681 87.515 90.0381 87.845C90.6181 88.175 91.0631 88.645 91.3731 89.255C91.6831 89.855 91.8381 90.56 91.8381 91.37C91.8381 91.58 91.8331 91.735 91.8231 91.835H85.6731C85.7731 92.415 86.0431 92.895 86.4831 93.275C86.9331 93.645 87.4531 93.83 88.0431 93.83C89.0131 93.83 89.7031 93.475 90.1131 92.765H91.5831C91.3431 93.465 90.8981 94.04 90.2481 94.49C89.5981 94.93 88.8631 95.15 88.0431 95.15C87.3131 95.15 86.6531 94.985 86.0631 94.655C85.4731 94.315 85.0131 93.85 84.6831 93.26C84.3531 92.66 84.1881 91.99 84.1881 91.25C84.1881 90.51 84.3531 89.845 84.6831 89.255C85.0131 88.655 85.4681 88.19 86.0481 87.86C86.6381 87.52 87.2981 87.35 88.0281 87.35ZM87.9981 88.61C87.4081 88.61 86.8981 88.795 86.4681 89.165C86.0481 89.535 85.7881 90.01 85.6881 90.59H90.2931C90.2331 89.99 89.9881 89.51 89.5581 89.15C89.1381 88.79 88.6181 88.61 87.9981 88.61ZM92.7375 91.25C92.7375 90.53 92.9125 89.875 93.2625 89.285C93.6125 88.685 94.0925 88.215 94.7025 87.875C95.3125 87.525 95.9875 87.35 96.7275 87.35C97.5575 87.35 98.3025 87.595 98.9625 88.085C99.6325 88.565 100.073 89.195 100.283 89.975H98.7225C98.5525 89.575 98.2775 89.26 97.8975 89.03C97.5275 88.79 97.1125 88.67 96.6525 88.67C96.1825 88.67 95.7625 88.785 95.3925 89.015C95.0225 89.235 94.7325 89.545 94.5225 89.945C94.3125 90.335 94.2075 90.77 94.2075 91.25C94.2075 91.73 94.3125 92.17 94.5225 92.57C94.7325 92.96 95.0225 93.27 95.3925 93.5C95.7625 93.72 96.1825 93.83 96.6525 93.83C97.1125 93.83 97.5275 93.715 97.8975 93.485C98.2775 93.245 98.5525 92.925 98.7225 92.525H100.283C100.073 93.305 99.6325 93.94 98.9625 94.43C98.3025 94.91 97.5575 95.15 96.7275 95.15C95.9875 95.15 95.3125 94.98 94.7025 94.64C94.0925 94.29 93.6125 93.82 93.2625 93.23C92.9125 92.63 92.7375 91.97 92.7375 91.25ZM107.047 88.85H104.422V95H102.997V88.85H100.372V87.5H107.047V88.85ZM113.431 91.175C114.171 91.545 114.541 92.115 114.541 92.885C114.541 93.505 114.316 94.015 113.866 94.415C113.416 94.805 112.796 95 112.006 95H108.241V87.5H112.006C112.756 87.5 113.346 87.695 113.776 88.085C114.216 88.465 114.436 88.95 114.436 89.54C114.436 89.89 114.351 90.21 114.181 90.5C114.021 90.78 113.771 91.005 113.431 91.175ZM111.841 90.62C112.211 90.62 112.491 90.535 112.681 90.365C112.871 90.195 112.966 89.945 112.966 89.615C112.966 89.005 112.591 88.7 111.841 88.7H109.636V90.62H111.841ZM111.856 93.8C112.256 93.8 112.556 93.715 112.756 93.545C112.966 93.365 113.071 93.11 113.071 92.78C113.071 92.47 112.966 92.235 112.756 92.075C112.556 91.905 112.256 91.82 111.856 91.82H109.636V93.8H111.856ZM119.285 95.15C118.545 95.15 117.87 94.98 117.26 94.64C116.65 94.29 116.17 93.82 115.82 93.23C115.47 92.63 115.295 91.97 115.295 91.25C115.295 90.53 115.47 89.875 115.82 89.285C116.17 88.685 116.65 88.215 117.26 87.875C117.87 87.525 118.545 87.35 119.285 87.35C120.015 87.35 120.68 87.525 121.28 87.875C121.89 88.215 122.37 88.685 122.72 89.285C123.07 89.875 123.245 90.53 123.245 91.25C123.245 91.97 123.07 92.63 122.72 93.23C122.37 93.82 121.89 94.29 121.28 94.64C120.68 94.98 120.015 95.15 119.285 95.15ZM119.285 93.83C119.745 93.83 120.165 93.72 120.545 93.5C120.925 93.27 121.225 92.96 121.445 92.57C121.665 92.17 121.775 91.73 121.775 91.25C121.775 90.77 121.665 90.335 121.445 89.945C121.225 89.545 120.925 89.235 120.545 89.015C120.165 88.785 119.745 88.67 119.285 88.67C118.815 88.67 118.385 88.785 117.995 89.015C117.615 89.235 117.315 89.545 117.095 89.945C116.875 90.335 116.765 90.77 116.765 91.25C116.765 91.73 116.875 92.17 117.095 92.57C117.315 92.96 117.615 93.27 117.995 93.5C118.385 93.72 118.815 93.83 119.285 93.83ZM135.468 95H134.043V88.85H130.143V95H128.718V87.5H135.468V95ZM140.963 95.15C140.223 95.15 139.548 94.98 138.938 94.64C138.328 94.29 137.848 93.82 137.498 93.23C137.148 92.63 136.973 91.97 136.973 91.25C136.973 90.53 137.148 89.875 137.498 89.285C137.848 88.685 138.328 88.215 138.938 87.875C139.548 87.525 140.223 87.35 140.963 87.35C141.693 87.35 142.358 87.525 142.958 87.875C143.568 88.215 144.048 88.685 144.398 89.285C144.748 89.875 144.923 90.53 144.923 91.25C144.923 91.97 144.748 92.63 144.398 93.23C144.048 93.82 143.568 94.29 142.958 94.64C142.358 94.98 141.693 95.15 140.963 95.15ZM140.963 93.83C141.423 93.83 141.843 93.72 142.223 93.5C142.603 93.27 142.903 92.96 143.123 92.57C143.343 92.17 143.453 91.73 143.453 91.25C143.453 90.77 143.343 90.335 143.123 89.945C142.903 89.545 142.603 89.235 142.223 89.015C141.843 88.785 141.423 88.67 140.963 88.67C140.493 88.67 140.063 88.785 139.673 89.015C139.293 89.235 138.993 89.545 138.773 89.945C138.553 90.335 138.443 90.77 138.443 91.25C138.443 91.73 138.553 92.17 138.773 92.57C138.993 92.96 139.293 93.27 139.673 93.5C140.063 93.72 140.493 93.83 140.963 93.83ZM157.147 95H155.722V88.85H151.822V95H150.397V87.5H157.147V95ZM163.287 87.35C163.947 87.35 164.547 87.52 165.087 87.86C165.627 88.19 166.052 88.65 166.362 89.24C166.672 89.83 166.827 90.5 166.827 91.25C166.827 92 166.672 92.67 166.362 93.26C166.052 93.85 165.627 94.315 165.087 94.655C164.547 94.985 163.947 95.15 163.287 95.15C162.787 95.15 162.317 95.04 161.877 94.82C161.437 94.59 161.062 94.275 160.752 93.875V97.55H159.327V87.5H160.677V88.715C160.997 88.285 161.382 87.95 161.832 87.71C162.282 87.47 162.767 87.35 163.287 87.35ZM163.047 93.83C163.487 93.83 163.882 93.72 164.232 93.5C164.582 93.28 164.857 92.975 165.057 92.585C165.257 92.185 165.357 91.74 165.357 91.25C165.357 90.76 165.257 90.32 165.057 89.93C164.857 89.53 164.582 89.22 164.232 89C163.882 88.78 163.487 88.67 163.047 88.67C162.607 88.67 162.207 88.78 161.847 89C161.487 89.22 161.207 89.53 161.007 89.93C160.807 90.32 160.707 90.76 160.707 91.25C160.707 91.74 160.807 92.185 161.007 92.585C161.207 92.975 161.487 93.28 161.847 93.5C162.207 93.72 162.607 93.83 163.047 93.83ZM175.08 87.5V95H173.655V90.38L169.755 93.68V95H168.33V87.5H169.755V92.03L173.655 88.73V87.5H175.08ZM183.201 95H181.776V92.18H179.316C178.856 92.18 178.626 92.415 178.626 92.885V93.485C178.626 93.985 178.501 94.365 178.251 94.625C178.011 94.875 177.656 95 177.186 95H176.556V93.635H176.841C176.951 93.635 177.036 93.605 177.096 93.545C177.166 93.475 177.201 93.385 177.201 93.275V92.66C177.201 92.1 177.466 91.705 177.996 91.475C177.666 91.285 177.411 91.035 177.231 90.725C177.061 90.415 176.976 90.07 176.976 89.69C176.976 89.05 177.196 88.525 177.636 88.115C178.086 87.705 178.706 87.5 179.496 87.5H183.201V95ZM179.691 88.775C179.281 88.775 178.971 88.87 178.761 89.06C178.551 89.24 178.446 89.505 178.446 89.855C178.446 90.205 178.551 90.475 178.761 90.665C178.971 90.845 179.281 90.935 179.691 90.935H181.776V88.775H179.691ZM191.071 88.85H188.446V95H187.021V88.85H184.396V87.5H191.071V88.85ZM199.015 87.5V95H197.59V91.925H193.69V95H192.265V87.5H193.69V90.575H197.59V87.5H199.015ZM204.51 95.15C203.77 95.15 203.095 94.98 202.485 94.64C201.875 94.29 201.395 93.82 201.045 93.23C200.695 92.63 200.52 91.97 200.52 91.25C200.52 90.53 200.695 89.875 201.045 89.285C201.395 88.685 201.875 88.215 202.485 87.875C203.095 87.525 203.77 87.35 204.51 87.35C205.24 87.35 205.905 87.525 206.505 87.875C207.115 88.215 207.595 88.685 207.945 89.285C208.295 89.875 208.47 90.53 208.47 91.25C208.47 91.97 208.295 92.63 207.945 93.23C207.595 93.82 207.115 94.29 206.505 94.64C205.905 94.98 205.24 95.15 204.51 95.15ZM204.51 93.83C204.97 93.83 205.39 93.72 205.77 93.5C206.15 93.27 206.45 92.96 206.67 92.57C206.89 92.17 207 91.73 207 91.25C207 90.77 206.89 90.335 206.67 89.945C206.45 89.545 206.15 89.235 205.77 89.015C205.39 88.785 204.97 88.67 204.51 88.67C204.04 88.67 203.61 88.785 203.22 89.015C202.84 89.235 202.54 89.545 202.32 89.945C202.1 90.335 201.99 90.77 201.99 91.25C201.99 91.73 202.1 92.17 202.32 92.57C202.54 92.96 202.84 93.27 203.22 93.5C203.61 93.72 204.04 93.83 204.51 93.83ZM216.714 87.5V95H215.289V90.38L211.389 93.68V95H209.964V87.5H211.389V92.03L215.289 88.73V87.5H216.714ZM213.414 86.765C212.634 86.765 211.994 86.56 211.494 86.15C210.994 85.74 210.714 85.19 210.654 84.5H211.884C211.934 84.88 212.094 85.18 212.364 85.4C212.634 85.61 212.984 85.715 213.414 85.715C213.844 85.715 214.194 85.61 214.464 85.4C214.734 85.18 214.894 84.88 214.944 84.5H216.174C216.114 85.19 215.834 85.74 215.334 86.15C214.834 86.56 214.194 86.765 213.414 86.765ZM230.674 93.65V96.65H229.294V95H222.874V87.5H224.299V93.65H228.199V87.5H229.624V93.65H230.674ZM235.042 87.35C235.812 87.35 236.482 87.515 237.052 87.845C237.632 88.175 238.077 88.645 238.387 89.255C238.697 89.855 238.852 90.56 238.852 91.37C238.852 91.58 238.847 91.735 238.837 91.835H232.687C232.787 92.415 233.057 92.895 233.497 93.275C233.947 93.645 234.467 93.83 235.057 93.83C236.027 93.83 236.717 93.475 237.127 92.765H238.597C238.357 93.465 237.912 94.04 237.262 94.49C236.612 94.93 235.877 95.15 235.057 95.15C234.327 95.15 233.667 94.985 233.077 94.655C232.487 94.315 232.027 93.85 231.697 93.26C231.367 92.66 231.202 91.99 231.202 91.25C231.202 90.51 231.367 89.845 231.697 89.255C232.027 88.655 232.482 88.19 233.062 87.86C233.652 87.52 234.312 87.35 235.042 87.35ZM235.012 88.61C234.422 88.61 233.912 88.795 233.482 89.165C233.062 89.535 232.802 90.01 232.702 90.59H237.307C237.247 89.99 237.002 89.51 236.572 89.15C236.152 88.79 235.632 88.61 235.012 88.61ZM247.103 87.5V95H245.678V91.925H241.778V95H240.353V87.5H241.778V90.575H245.678V87.5H247.103ZM252.449 87.35C253.219 87.35 253.889 87.515 254.459 87.845C255.039 88.175 255.484 88.645 255.794 89.255C256.104 89.855 256.259 90.56 256.259 91.37C256.259 91.58 256.254 91.735 256.244 91.835H250.094C250.194 92.415 250.464 92.895 250.904 93.275C251.354 93.645 251.874 93.83 252.464 93.83C253.434 93.83 254.124 93.475 254.534 92.765H256.004C255.764 93.465 255.319 94.04 254.669 94.49C254.019 94.93 253.284 95.15 252.464 95.15C251.734 95.15 251.074 94.985 250.484 94.655C249.894 94.315 249.434 93.85 249.104 93.26C248.774 92.66 248.609 91.99 248.609 91.25C248.609 90.51 248.774 89.845 249.104 89.255C249.434 88.655 249.889 88.19 250.469 87.86C251.059 87.52 251.719 87.35 252.449 87.35ZM252.419 88.61C251.829 88.61 251.319 88.795 250.889 89.165C250.469 89.535 250.209 90.01 250.109 90.59H254.714C254.654 89.99 254.409 89.51 253.979 89.15C253.559 88.79 253.039 88.61 252.419 88.61ZM259.26 93.35V95H257.61V93.35H259.26Z" fill="white"/>
</svg>
