<svg width="133" height="20" viewBox="0 0 133 20" fill="none" xmlns="http://www.w3.org/2000/svg">
<g opacity="0.6">
<path d="M20.5758 12.8726H22.8266V19.1476H17.5747V16.0556L5.25194 16.0329V19.1476H0V12.8726H1.68244C2.50092 11.2811 3.16026 9.85633 3.66044 8.59829C4.16063 7.34025 4.53956 6.02916 4.79723 4.66502C5.07005 3.28572 5.20647 1.77759 5.20647 0.140625H20.553L20.5758 12.8726ZM10.0946 4.16484C9.85212 5.61992 9.48077 7.01437 8.98059 8.3482C8.49556 9.68202 7.85138 11.1902 7.04806 12.8726H15.3466V4.18757L10.0946 4.16484Z" fill="white"/>
<path d="M40.7469 11.2811H28.6288C28.7349 12.236 29.0911 13.0242 29.6974 13.6456C30.3188 14.2519 31.1601 14.555 32.2211 14.555C33.085 14.555 33.8504 14.3504 34.5174 13.9412C35.1994 13.5168 35.5405 12.8726 35.5405 12.0086H40.7469C40.7469 13.7669 39.9891 15.1083 38.4734 16.0329C36.9728 16.9574 34.8811 17.4197 32.1983 17.4197C30.5462 17.4197 29.0456 17.1393 27.6967 16.5785C26.3477 16.0177 25.2791 15.2295 24.4909 14.214C23.7028 13.1833 23.3087 12.0086 23.3087 10.69C23.3087 9.35615 23.6952 8.18147 24.4682 7.16594C25.2564 6.13526 26.3249 5.34709 27.6739 4.80144C29.0381 4.24062 30.5462 3.96022 32.1983 3.96022C33.8959 3.96022 35.3813 4.23304 36.6545 4.7787C37.9429 5.32436 38.9432 6.09737 39.6556 7.09774C40.368 8.08295 40.7318 9.24247 40.7469 10.5763V10.69V11.2811ZM32.1983 6.73397C31.198 6.73397 30.4325 6.94617 29.902 7.37057C29.3715 7.79497 29.0078 8.38609 28.8107 9.14395H35.4041C35.2373 8.38609 34.9039 7.79497 34.4037 7.37057C33.9035 6.94617 33.1684 6.73397 32.1983 6.73397Z" fill="white"/>
<path d="M59.1177 4.61955V16.965H53.8885V8.14358H49.2504C49.0989 9.99275 48.9397 11.3493 48.773 12.2133C48.6063 13.0621 48.3486 13.7744 48 14.3504C47.3937 15.3963 46.5752 16.1086 45.5445 16.4876C44.5138 16.8513 43.4832 17.0332 42.4525 17.0332C42.0887 17.0332 41.778 17.0181 41.5203 16.9878V13.1227C42.0963 13.1227 42.5207 13.0621 42.7935 12.9408C43.0815 12.8044 43.2785 12.6377 43.3846 12.4406C43.5059 12.2284 43.6423 11.8874 43.7939 11.4175C44.0212 10.6142 44.1576 9.80328 44.2031 8.9848C44.2637 8.16631 44.2941 6.96132 44.2941 5.36983V4.61955H59.1177Z" fill="white"/>
<path d="M68.8297 4.05116C70.4667 4.05116 71.9445 4.33914 73.2632 4.91511C74.5819 5.49108 75.6125 6.29441 76.3552 7.32509C77.0979 8.34062 77.4693 9.48498 77.4693 10.7582C77.4693 12.0162 77.0904 13.1606 76.3325 14.1913C75.5898 15.2068 74.5591 16.0025 73.2405 16.5785C71.937 17.1545 70.4667 17.4425 68.8297 17.4425C67.2534 17.4425 65.7756 17.1545 64.3963 16.5785C63.017 15.9874 61.9105 15.1841 61.0769 14.1685C60.2584 13.1378 59.8492 12.0011 59.8492 10.7582C59.8492 9.50014 60.2584 8.36336 61.0769 7.34783C61.9105 6.31715 63.0094 5.51382 64.3736 4.93785C65.7529 4.34672 67.2382 4.05116 68.8297 4.05116ZM68.8297 14.1913C69.436 14.1913 69.9968 14.0624 70.5122 13.8048C71.0427 13.5471 71.4671 13.1606 71.7854 12.6452C72.1037 12.1147 72.2628 11.4857 72.2628 10.7582C72.2628 10.0306 72.1037 9.4092 71.7854 8.89386C71.4671 8.36336 71.0427 7.96927 70.5122 7.7116C69.9968 7.45393 69.436 7.32509 68.8297 7.32509C68.2386 7.32509 67.6551 7.46151 67.0791 7.73434C66.5183 7.99201 66.056 8.37851 65.6922 8.89386C65.3285 9.4092 65.1466 10.0306 65.1466 10.7582C65.1466 11.4857 65.3285 12.1072 65.6922 12.6225C66.056 13.1378 66.5183 13.5319 67.0791 13.8048C67.6551 14.0624 68.2386 14.1913 68.8297 14.1913Z" fill="white"/>
<rect x="85.2432" y="3.66484" width="47.5796" height="13.1376" rx="3.01811" stroke="white" stroke-width="0.355071"/>
<path d="M98.0691 11.1204L98.2442 10.3247H100.83L101.013 11.1204H98.0691ZM99.5253 8.55813L98.65 10.6032L98.6341 10.8101L97.8622 12.5527H96.8039L99.5253 6.67223L102.247 12.5527H101.188L100.432 10.8578L100.409 10.627L99.5253 8.55813ZM105.264 10.4361V9.64033H107.945C107.956 10.0488 107.903 10.4361 107.786 10.8021C107.67 11.1628 107.495 11.4838 107.261 11.765C107.028 12.0461 106.736 12.2689 106.386 12.4334C106.041 12.5925 105.648 12.6721 105.208 12.6721C104.789 12.6721 104.402 12.6031 104.046 12.4652C103.691 12.322 103.381 12.1204 103.115 11.8604C102.855 11.6005 102.654 11.2928 102.511 10.9374C102.367 10.582 102.296 10.192 102.296 9.76765C102.296 9.34326 102.367 8.956 102.511 8.60587C102.659 8.25044 102.863 7.94541 103.123 7.69078C103.389 7.43083 103.699 7.2319 104.054 7.09397C104.415 6.95604 104.805 6.88708 105.224 6.88708C105.59 6.88708 105.922 6.93748 106.219 7.03827C106.516 7.13376 106.781 7.27434 107.014 7.46001C107.253 7.64038 107.455 7.86053 107.619 8.12047L106.855 8.62975C106.701 8.3645 106.487 8.1523 106.211 7.99316C105.94 7.83401 105.611 7.75443 105.224 7.75443C104.863 7.75443 104.537 7.83931 104.245 8.00907C103.954 8.17352 103.72 8.40694 103.545 8.70932C103.37 9.0064 103.282 9.35917 103.282 9.76765C103.282 10.1708 103.367 10.5263 103.537 10.8339C103.712 11.1363 103.946 11.3724 104.237 11.5421C104.529 11.7119 104.858 11.7968 105.224 11.7968C105.473 11.7968 105.696 11.7623 105.892 11.6933C106.089 11.6244 106.259 11.5262 106.402 11.3989C106.545 11.2716 106.664 11.1257 106.76 10.9613C106.855 10.7968 106.927 10.6217 106.975 10.4361H105.264ZM109.45 12.5527V11.7252H112.258V12.5527H109.45ZM109.45 7.81014V6.98257H112.258V7.81014H109.45ZM109.45 9.97454V9.16289H112.099V9.97454H109.45ZM108.869 6.98257H109.792V12.5527H108.869V6.98257ZM117.441 6.98257H118.364V12.8312L114.298 8.81277V12.5527H113.375V6.70406L117.441 10.7225V6.98257ZM120.252 9.76765C120.252 10.1602 120.339 10.505 120.514 10.8021C120.695 11.0992 120.928 11.33 121.215 11.4944C121.506 11.6536 121.822 11.7331 122.162 11.7331C122.427 11.7331 122.666 11.6986 122.878 11.6297C123.09 11.5607 123.281 11.4679 123.451 11.3512C123.626 11.2292 123.777 11.0939 123.904 10.9453V12.0594C123.671 12.2504 123.419 12.3962 123.148 12.497C122.878 12.5978 122.538 12.6482 122.13 12.6482C121.721 12.6482 121.339 12.5793 120.984 12.4413C120.634 12.3034 120.329 12.1045 120.069 11.8445C119.809 11.5846 119.605 11.2796 119.456 10.9294C119.313 10.574 119.241 10.1867 119.241 9.76765C119.241 9.34856 119.313 8.96396 119.456 8.61383C119.605 8.2584 119.809 7.95072 120.069 7.69078C120.329 7.43083 120.634 7.2319 120.984 7.09397C121.339 6.95604 121.721 6.88708 122.13 6.88708C122.538 6.88708 122.878 6.93748 123.148 7.03827C123.419 7.13906 123.671 7.28495 123.904 7.47593V8.58996C123.777 8.44142 123.626 8.3088 123.451 8.19209C123.281 8.07008 123.09 7.97459 122.878 7.90562C122.666 7.83666 122.427 7.80218 122.162 7.80218C121.822 7.80218 121.506 7.88441 121.215 8.04886C120.928 8.20801 120.695 8.43612 120.514 8.73319C120.339 9.02496 120.252 9.36978 120.252 9.76765ZM127.844 6.98257H128.918L127.025 10.2053V12.5527H126.07V10.2133L124.184 6.98257H125.25L126.547 9.36978L127.844 6.98257Z" fill="white"/>
<path d="M91.1042 6.68066L91.8072 9.52837L94.6549 10.2314L91.8072 10.9344L91.1042 13.7821L90.4012 10.9344L87.5535 10.2314L90.4012 9.52837L91.1042 6.68066Z" fill="white"/>
</g>
</svg>
