<svg width="47" height="12" viewBox="0 0 47 12" fill="none" xmlns="http://www.w3.org/2000/svg">
<path d="M1.85 1.91V5.045H6.95V6.455H1.85V9.59H7.4V11H0.35V0.499999H7.4V1.91H1.85ZM13.4768 5.825V7.175H9.12676V5.825H13.4768ZM24.7221 3.35C25.3221 3.35 25.8571 3.48 26.3271 3.74C26.8071 4 27.1821 4.395 27.4521 4.925C27.7321 5.445 27.8721 6.085 27.8721 6.845V11H26.4471V6.875C26.4471 6.215 26.2571 5.69 25.8771 5.3C25.5071 4.91 25.0371 4.715 24.4671 4.715C23.8471 4.715 23.3471 4.935 22.9671 5.375C22.5871 5.815 22.3971 6.355 22.3971 6.995V11H20.9721V6.875C20.9721 6.215 20.7821 5.69 20.4021 5.3C20.0321 4.91 19.5621 4.715 18.9921 4.715C18.3721 4.715 17.8721 4.935 17.4921 5.375C17.1121 5.815 16.9221 6.355 16.9221 6.995V11H15.4971V3.5H16.8471V4.685C17.1171 4.275 17.4621 3.95 17.8821 3.71C18.3121 3.47 18.7671 3.35 19.2471 3.35C19.8371 3.35 20.3671 3.48 20.8371 3.74C21.3171 3.99 21.6871 4.365 21.9471 4.865C22.2371 4.405 22.6271 4.04 23.1171 3.77C23.6171 3.49 24.1521 3.35 24.7221 3.35ZM36.6412 9.65V11H35.9212C35.5512 11 35.2612 10.91 35.0512 10.73C34.8412 10.54 34.7162 10.27 34.6762 9.92C34.3562 10.29 33.9412 10.59 33.4312 10.82C32.9312 11.04 32.4012 11.15 31.8412 11.15C31.0312 11.15 30.4012 10.95 29.9512 10.55C29.5112 10.15 29.2912 9.615 29.2912 8.945C29.2912 8.335 29.5312 7.815 30.0112 7.385C30.4912 6.945 31.1662 6.68 32.0362 6.59L32.8762 6.5C33.3462 6.45 33.6962 6.39 33.9262 6.32C34.1562 6.24 34.3012 6.155 34.3612 6.065C34.4312 5.975 34.4662 5.855 34.4662 5.705C34.4662 5.365 34.3012 5.1 33.9712 4.91C33.6512 4.71 33.2062 4.61 32.6362 4.61C32.2662 4.61 31.9112 4.71 31.5712 4.91C31.2312 5.1 30.9962 5.375 30.8662 5.735H29.3512C29.4912 5.035 29.8712 4.465 30.4912 4.025C31.1112 3.575 31.8512 3.35 32.7112 3.35C33.6612 3.35 34.4412 3.61 35.0512 4.13C35.6612 4.65 35.9662 5.395 35.9662 6.365V9.245C35.9662 9.375 36.0012 9.475 36.0712 9.545C36.1412 9.615 36.2362 9.65 36.3562 9.65H36.6412ZM31.9912 9.92C32.4612 9.92 32.9012 9.825 33.3112 9.635C33.7212 9.435 34.0462 9.175 34.2862 8.855C34.5362 8.525 34.6612 8.175 34.6612 7.805V7.13C34.3212 7.39 33.7812 7.56 33.0412 7.64L32.2012 7.73C31.6412 7.79 31.2512 7.925 31.0312 8.135C30.8112 8.345 30.7012 8.61 30.7012 8.93C30.7012 9.23 30.8112 9.47 31.0312 9.65C31.2612 9.83 31.5812 9.92 31.9912 9.92ZM39.558 3.5V11H38.133V3.5H39.558ZM39.648 0.499999V2.15H38.058V0.499999H39.648ZM43.1563 0.424999V11H41.7313V0.424999H43.1563ZM46.8295 9.35V11H45.1795V9.35H46.8295ZM46.8295 3.5V5.15H45.1795V3.5H46.8295Z" fill="#FFD600"/>
</svg>
