<svg width="279" height="52" viewBox="0 0 279 52" fill="none" xmlns="http://www.w3.org/2000/svg">
<rect width="279" height="52" rx="15" fill="#FFF0B9"/>
<path d="M32.1217 26.724C33.295 27.2253 33.8817 28.0733 33.8817 29.268C33.8817 30.324 33.471 31.156 32.6497 31.764C31.839 32.3613 30.7404 32.66 29.3537 32.66C28.0417 32.66 26.9377 32.34 26.0417 31.7C25.1457 31.0493 24.6017 30.148 24.4097 28.996H26.0417C26.3084 29.7533 26.7137 30.308 27.2577 30.66C27.8124 31.012 28.511 31.188 29.3537 31.188C30.271 31.188 30.9804 31.012 31.4817 30.66C31.983 30.308 32.2337 29.8387 32.2337 29.252C32.2337 28.772 32.0364 28.3827 31.6417 28.084C31.2577 27.7747 30.607 27.62 29.6897 27.62H27.8977V26.164H29.6897C30.415 26.164 30.9697 25.9933 31.3537 25.652C31.7484 25.3107 31.9457 24.9 31.9457 24.42C31.9457 23.844 31.7057 23.396 31.2257 23.076C30.7457 22.756 30.0737 22.596 29.2097 22.596C28.4524 22.596 27.7964 22.772 27.2417 23.124C26.687 23.4653 26.3457 23.9773 26.2177 24.66H24.5697C24.6977 23.9133 24.9857 23.2733 25.4337 22.74C25.8817 22.2067 26.431 21.8067 27.0817 21.54C27.743 21.2733 28.447 21.14 29.1937 21.14C30.079 21.14 30.8524 21.2733 31.5137 21.54C32.1857 21.796 32.703 22.1587 33.0657 22.628C33.439 23.0973 33.6257 23.6413 33.6257 24.26C33.6257 24.7827 33.4977 25.2573 33.2417 25.684C32.9964 26.1 32.623 26.4467 32.1217 26.724ZM43.0834 24.5V32.5H41.5634V31.3C41.2328 31.7267 40.8328 32.0627 40.3634 32.308C39.8941 32.5427 39.3928 32.66 38.8594 32.66C38.1554 32.66 37.5154 32.484 36.9394 32.132C36.3634 31.7693 35.9101 31.2733 35.5794 30.644C35.2488 30.0147 35.0834 29.3 35.0834 28.5C35.0834 27.7 35.2488 26.9853 35.5794 26.356C35.9101 25.7267 36.3634 25.236 36.9394 24.884C37.5154 24.5213 38.1554 24.34 38.8594 24.34C39.4141 24.34 39.9314 24.468 40.4114 24.724C40.8914 24.98 41.3021 25.3373 41.6434 25.796V24.5H43.0834ZM39.1154 31.252C39.5848 31.252 40.0114 31.1347 40.3954 30.9C40.7794 30.6653 41.0781 30.34 41.2914 29.924C41.5048 29.4973 41.6114 29.0227 41.6114 28.5C41.6114 27.9773 41.5048 27.508 41.2914 27.092C41.0781 26.6653 40.7794 26.3347 40.3954 26.1C40.0114 25.8653 39.5848 25.748 39.1154 25.748C38.6461 25.748 38.2248 25.8653 37.8514 26.1C37.4781 26.3347 37.1848 26.6653 36.9714 27.092C36.7581 27.508 36.6514 27.9773 36.6514 28.5C36.6514 29.0227 36.7581 29.4973 36.9714 29.924C37.1848 30.34 37.4781 30.6653 37.8514 30.9C38.2248 31.1347 38.6461 31.252 39.1154 31.252ZM48.2712 28.788L47.1352 29.844V32.5H45.6472V24.5H47.1352V28.084L50.8952 24.5H52.9112L49.4072 27.732L53.2472 32.5H51.2152L48.2712 28.788ZM61.3959 24.5V32.5H59.8759V31.3C59.5453 31.7267 59.1453 32.0627 58.6759 32.308C58.2066 32.5427 57.7053 32.66 57.1719 32.66C56.4679 32.66 55.8279 32.484 55.2519 32.132C54.6759 31.7693 54.2226 31.2733 53.8919 30.644C53.5613 30.0147 53.3959 29.3 53.3959 28.5C53.3959 27.7 53.5613 26.9853 53.8919 26.356C54.2226 25.7267 54.6759 25.236 55.2519 24.884C55.8279 24.5213 56.4679 24.34 57.1719 24.34C57.7266 24.34 58.2439 24.468 58.7239 24.724C59.2039 24.98 59.6146 25.3373 59.9559 25.796V24.5H61.3959ZM57.4279 31.252C57.8973 31.252 58.3239 31.1347 58.7079 30.9C59.0919 30.6653 59.3906 30.34 59.6039 29.924C59.8173 29.4973 59.9239 29.0227 59.9239 28.5C59.9239 27.9773 59.8173 27.508 59.6039 27.092C59.3906 26.6653 59.0919 26.3347 58.7079 26.1C58.3239 25.8653 57.8973 25.748 57.4279 25.748C56.9586 25.748 56.5373 25.8653 56.1639 26.1C55.7906 26.3347 55.4973 26.6653 55.2839 27.092C55.0706 27.508 54.9639 27.9773 54.9639 28.5C54.9639 29.0227 55.0706 29.4973 55.2839 29.924C55.4973 30.34 55.7906 30.6653 56.1639 30.9C56.5373 31.1347 56.9586 31.252 57.4279 31.252ZM64.5997 29.972C64.7384 30.4413 64.9944 30.788 65.3677 31.012C65.7517 31.236 66.253 31.348 66.8717 31.348C67.4477 31.348 67.9117 31.2467 68.2637 31.044C68.6157 30.8307 68.7917 30.5587 68.7917 30.228C68.7917 29.94 68.6637 29.6947 68.4077 29.492C68.1517 29.2787 67.7144 29.172 67.0957 29.172H65.7037V27.86H67.0317C67.5864 27.86 67.981 27.7587 68.2157 27.556C68.461 27.3533 68.5837 27.108 68.5837 26.82C68.5837 26.4573 68.4184 26.1693 68.0877 25.956C67.7677 25.7427 67.325 25.636 66.7597 25.636C66.2157 25.636 65.7624 25.7373 65.3997 25.94C65.0477 26.1427 64.8184 26.4627 64.7117 26.9H63.2077C63.3464 26.1 63.7464 25.476 64.4077 25.028C65.069 24.5693 65.853 24.34 66.7597 24.34C67.7624 24.34 68.573 24.5587 69.1917 24.996C69.8104 25.4227 70.1197 25.988 70.1197 26.692C70.1197 27.044 70.0237 27.3747 69.8317 27.684C69.6397 27.9827 69.3517 28.2227 68.9677 28.404C69.853 28.756 70.2957 29.3587 70.2957 30.212C70.2957 30.948 69.9757 31.54 69.3357 31.988C68.7064 32.436 67.8477 32.66 66.7597 32.66C65.7784 32.66 64.9464 32.42 64.2637 31.94C63.581 31.46 63.1864 30.804 63.0797 29.972H64.5997ZM79.3803 24.5V32.5H77.8603V31.3C77.5296 31.7267 77.1296 32.0627 76.6603 32.308C76.191 32.5427 75.6896 32.66 75.1563 32.66C74.4523 32.66 73.8123 32.484 73.2363 32.132C72.6603 31.7693 72.207 31.2733 71.8763 30.644C71.5456 30.0147 71.3803 29.3 71.3803 28.5C71.3803 27.7 71.5456 26.9853 71.8763 26.356C72.207 25.7267 72.6603 25.236 73.2363 24.884C73.8123 24.5213 74.4523 24.34 75.1563 24.34C75.711 24.34 76.2283 24.468 76.7083 24.724C77.1883 24.98 77.599 25.3373 77.9403 25.796V24.5H79.3803ZM75.4123 31.252C75.8816 31.252 76.3083 31.1347 76.6923 30.9C77.0763 30.6653 77.375 30.34 77.5883 29.924C77.8016 29.4973 77.9083 29.0227 77.9083 28.5C77.9083 27.9773 77.8016 27.508 77.5883 27.092C77.375 26.6653 77.0763 26.3347 76.6923 26.1C76.3083 25.8653 75.8816 25.748 75.4123 25.748C74.943 25.748 74.5216 25.8653 74.1483 26.1C73.775 26.3347 73.4816 26.6653 73.2683 27.092C73.055 27.508 72.9483 27.9773 72.9483 28.5C72.9483 29.0227 73.055 29.4973 73.2683 29.924C73.4816 30.34 73.775 30.6653 74.1483 30.9C74.5216 31.1347 74.943 31.252 75.4123 31.252ZM88.0241 25.94H85.2241V32.5H83.7041V25.94H80.9041V24.5H88.0241V25.94ZM93.4898 27.668C94.3325 27.668 94.9885 27.8973 95.4578 28.356C95.9378 28.804 96.1778 29.38 96.1778 30.084C96.1778 30.788 95.9378 31.3693 95.4578 31.828C94.9885 32.276 94.3325 32.5 93.4898 32.5H89.5378V24.5H91.0578V27.668H93.4898ZM93.2818 31.172C93.7191 31.172 94.0498 31.0813 94.2738 30.9C94.4978 30.7187 94.6098 30.4467 94.6098 30.084C94.6098 29.7213 94.4978 29.4493 94.2738 29.268C94.0498 29.0867 93.7191 28.996 93.2818 28.996H91.0578V31.172H93.2818ZM110.524 31.06V34.26H109.052V32.5H102.94V34.26H101.468V31.06H102.492C102.716 30.42 102.828 29.1933 102.828 27.38V24.5H109.404V31.06H110.524ZM107.884 31.092V25.908H104.348V27.332C104.348 28.932 104.226 30.1853 103.98 31.092H107.884ZM115.511 32.66C114.722 32.66 114.002 32.4787 113.351 32.116C112.701 31.7427 112.189 31.2413 111.815 30.612C111.442 29.972 111.255 29.268 111.255 28.5C111.255 27.732 111.442 27.0333 111.815 26.404C112.189 25.764 112.701 25.2627 113.351 24.9C114.002 24.5267 114.722 24.34 115.511 24.34C116.29 24.34 116.999 24.5267 117.639 24.9C118.29 25.2627 118.802 25.764 119.175 26.404C119.549 27.0333 119.735 27.732 119.735 28.5C119.735 29.268 119.549 29.972 119.175 30.612C118.802 31.2413 118.29 31.7427 117.639 32.116C116.999 32.4787 116.29 32.66 115.511 32.66ZM115.511 31.252C116.002 31.252 116.45 31.1347 116.855 30.9C117.261 30.6547 117.581 30.324 117.815 29.908C118.05 29.4813 118.167 29.012 118.167 28.5C118.167 27.988 118.05 27.524 117.815 27.108C117.581 26.6813 117.261 26.3507 116.855 26.116C116.45 25.8707 116.002 25.748 115.511 25.748C115.01 25.748 114.551 25.8707 114.135 26.116C113.73 26.3507 113.41 26.6813 113.175 27.108C112.941 27.524 112.823 27.988 112.823 28.5C112.823 29.012 112.941 29.4813 113.175 29.908C113.41 30.324 113.73 30.6547 114.135 30.9C114.551 31.1347 115.01 31.252 115.511 31.252ZM131.489 32.5H129.969V26.34L126.529 32.5L123.089 26.372V32.5H121.569V24.5H123.649L126.561 29.732L129.441 24.5H131.489V32.5ZM141.333 24.5V32.5H139.813V31.3C139.483 31.7267 139.083 32.0627 138.613 32.308C138.144 32.5427 137.643 32.66 137.109 32.66C136.405 32.66 135.765 32.484 135.189 32.132C134.613 31.7693 134.16 31.2733 133.829 30.644C133.499 30.0147 133.333 29.3 133.333 28.5C133.333 27.7 133.499 26.9853 133.829 26.356C134.16 25.7267 134.613 25.236 135.189 24.884C135.765 24.5213 136.405 24.34 137.109 24.34C137.664 24.34 138.181 24.468 138.661 24.724C139.141 24.98 139.552 25.3373 139.893 25.796V24.5H141.333ZM137.365 31.252C137.835 31.252 138.261 31.1347 138.645 30.9C139.029 30.6653 139.328 30.34 139.541 29.924C139.755 29.4973 139.861 29.0227 139.861 28.5C139.861 27.9773 139.755 27.508 139.541 27.092C139.328 26.6653 139.029 26.3347 138.645 26.1C138.261 25.8653 137.835 25.748 137.365 25.748C136.896 25.748 136.475 25.8653 136.101 26.1C135.728 26.3347 135.435 26.6653 135.221 27.092C135.008 27.508 134.901 27.9773 134.901 28.5C134.901 29.0227 135.008 29.4973 135.221 29.924C135.435 30.34 135.728 30.6653 136.101 30.9C136.475 31.1347 136.896 31.252 137.365 31.252ZM155.017 24.5V32.5H143.897V24.5H145.417V31.06H148.697V24.5H150.217V31.06H153.497V24.5H155.017ZM164.785 24.5V32.5H163.265V29.22H159.105V32.5H157.585V24.5H159.105V27.78H163.265V24.5H164.785ZM174.294 24.34C175.062 24.34 175.761 24.5267 176.39 24.9C177.03 25.2627 177.532 25.764 177.894 26.404C178.257 27.0333 178.438 27.732 178.438 28.5C178.438 29.268 178.257 29.972 177.894 30.612C177.532 31.2413 177.03 31.7427 176.39 32.116C175.761 32.4787 175.062 32.66 174.294 32.66C173.612 32.66 172.977 32.5107 172.39 32.212C171.814 31.9133 171.334 31.5027 170.95 30.98C170.577 30.4573 170.342 29.8707 170.246 29.22H168.87V32.5H167.35V24.5H168.87V27.78H170.246C170.342 27.1293 170.577 26.5427 170.95 26.02C171.334 25.4973 171.814 25.0867 172.39 24.788C172.977 24.4893 173.612 24.34 174.294 24.34ZM174.294 31.252C174.774 31.252 175.212 31.1347 175.606 30.9C176.001 30.6547 176.31 30.324 176.534 29.908C176.758 29.4813 176.87 29.012 176.87 28.5C176.87 27.988 176.758 27.524 176.534 27.108C176.31 26.6813 176.001 26.3507 175.606 26.116C175.212 25.8707 174.774 25.748 174.294 25.748C173.814 25.748 173.372 25.8707 172.966 26.116C172.572 26.3507 172.257 26.6813 172.022 27.108C171.798 27.524 171.686 27.988 171.686 28.5C171.686 29.012 171.798 29.4813 172.022 29.908C172.257 30.324 172.572 30.6547 172.966 30.9C173.372 31.1347 173.814 31.252 174.294 31.252ZM187.216 24.34C187.984 24.34 188.683 24.5267 189.312 24.9C189.952 25.2627 190.454 25.764 190.816 26.404C191.179 27.0333 191.36 27.732 191.36 28.5C191.36 29.268 191.179 29.972 190.816 30.612C190.454 31.2413 189.952 31.7427 189.312 32.116C188.683 32.4787 187.984 32.66 187.216 32.66C186.534 32.66 185.899 32.5107 185.312 32.212C184.736 31.9133 184.256 31.5027 183.872 30.98C183.499 30.4573 183.264 29.8707 183.168 29.22H181.792V32.5H180.272V24.5H181.792V27.78H183.168C183.264 27.1293 183.499 26.5427 183.872 26.02C184.256 25.4973 184.736 25.0867 185.312 24.788C185.899 24.4893 186.534 24.34 187.216 24.34ZM187.216 31.252C187.696 31.252 188.134 31.1347 188.528 30.9C188.923 30.6547 189.232 30.324 189.456 29.908C189.68 29.4813 189.792 29.012 189.792 28.5C189.792 27.988 189.68 27.524 189.456 27.108C189.232 26.6813 188.923 26.3507 188.528 26.116C188.134 25.8707 187.696 25.748 187.216 25.748C186.736 25.748 186.294 25.8707 185.888 26.116C185.494 26.3507 185.179 26.6813 184.944 27.108C184.72 27.524 184.608 27.988 184.608 28.5C184.608 29.012 184.72 29.4813 184.944 29.908C185.179 30.324 185.494 30.6547 185.888 30.9C186.294 31.1347 186.736 31.252 187.216 31.252ZM207.598 32.5H206.078V26.34L202.638 32.5L199.198 26.372V32.5H197.678V24.5H199.758L202.67 29.732L205.55 24.5H207.598V32.5ZM213.539 24.34C214.36 24.34 215.075 24.516 215.683 24.868C216.301 25.22 216.776 25.7213 217.107 26.372C217.437 27.012 217.603 27.764 217.603 28.628C217.603 28.852 217.597 29.0173 217.587 29.124H211.027C211.133 29.7427 211.421 30.2547 211.891 30.66C212.371 31.0547 212.925 31.252 213.555 31.252C214.589 31.252 215.325 30.8733 215.763 30.116H217.331C217.075 30.8627 216.6 31.476 215.907 31.956C215.213 32.4253 214.429 32.66 213.555 32.66C212.776 32.66 212.072 32.484 211.443 32.132C210.813 31.7693 210.323 31.2733 209.971 30.644C209.619 30.004 209.443 29.2893 209.443 28.5C209.443 27.7107 209.619 27.0013 209.971 26.372C210.323 25.732 210.808 25.236 211.427 24.884C212.056 24.5213 212.76 24.34 213.539 24.34ZM213.507 25.684C212.877 25.684 212.333 25.8813 211.875 26.276C211.427 26.6707 211.149 27.1773 211.043 27.796H215.955C215.891 27.156 215.629 26.644 215.171 26.26C214.723 25.876 214.168 25.684 213.507 25.684ZM223.252 24.74C223.977 24.74 224.644 24.916 225.252 25.268C225.86 25.6093 226.335 26.0787 226.676 26.676C227.028 27.2733 227.204 27.9347 227.204 28.66C227.204 29.396 227.023 30.0733 226.66 30.692C226.308 31.3 225.817 31.78 225.188 32.132C224.569 32.484 223.887 32.66 223.14 32.66C222.383 32.66 221.689 32.484 221.06 32.132C220.441 31.7693 219.951 31.268 219.588 30.628C219.225 29.988 219.044 29.2627 219.044 28.452V25.38C219.044 24.3773 219.295 23.6253 219.796 23.124C220.308 22.612 221.028 22.2973 221.956 22.18L224.82 21.812C225.087 21.78 225.22 21.6467 225.22 21.412V21.22H226.756V21.604C226.756 22.0413 226.617 22.3933 226.34 22.66C226.073 22.916 225.759 23.0653 225.396 23.108L222.1 23.54C221.503 23.6147 221.06 23.78 220.772 24.036C220.495 24.2813 220.356 24.6707 220.356 25.204V26.324C220.687 25.8227 221.103 25.4333 221.604 25.156C222.116 24.8787 222.665 24.74 223.252 24.74ZM223.092 31.252C223.561 31.252 223.988 31.14 224.372 30.916C224.767 30.6813 225.076 30.3667 225.3 29.972C225.524 29.5773 225.636 29.14 225.636 28.66C225.636 28.18 225.524 27.7427 225.3 27.348C225.076 26.9533 224.767 26.644 224.372 26.42C223.988 26.1853 223.561 26.068 223.092 26.068C222.612 26.068 222.175 26.1853 221.78 26.42C221.385 26.644 221.076 26.9533 220.852 27.348C220.628 27.7427 220.516 28.18 220.516 28.66C220.516 29.14 220.628 29.5773 220.852 29.972C221.076 30.3667 221.385 30.6813 221.78 30.916C222.175 31.14 222.612 31.252 223.092 31.252ZM232.492 24.34C233.313 24.34 234.028 24.516 234.636 24.868C235.255 25.22 235.729 25.7213 236.06 26.372C236.391 27.012 236.556 27.764 236.556 28.628C236.556 28.852 236.551 29.0173 236.54 29.124H229.98C230.087 29.7427 230.375 30.2547 230.844 30.66C231.324 31.0547 231.879 31.252 232.508 31.252C233.543 31.252 234.279 30.8733 234.716 30.116H236.284C236.028 30.8627 235.553 31.476 234.86 31.956C234.167 32.4253 233.383 32.66 232.508 32.66C231.729 32.66 231.025 32.484 230.396 32.132C229.767 31.7693 229.276 31.2733 228.924 30.644C228.572 30.004 228.396 29.2893 228.396 28.5C228.396 27.7107 228.572 27.0013 228.924 26.372C229.276 25.732 229.761 25.236 230.38 24.884C231.009 24.5213 231.713 24.34 232.492 24.34ZM232.46 25.684C231.831 25.684 231.287 25.8813 230.828 26.276C230.38 26.6707 230.103 27.1773 229.996 27.796H234.908C234.844 27.156 234.583 26.644 234.124 26.26C233.676 25.876 233.121 25.684 232.46 25.684ZM245.377 32.516H243.857V25.94H240.433V27.396C240.433 28.5373 240.369 29.4707 240.241 30.196C240.124 30.9213 239.873 31.5027 239.489 31.94C239.105 32.3667 238.534 32.58 237.777 32.58C237.574 32.58 237.356 32.5533 237.121 32.5V31.092C237.313 31.124 237.484 31.14 237.633 31.14C237.974 31.14 238.23 31.0333 238.401 30.82C238.582 30.6067 238.71 30.228 238.785 29.684C238.86 29.1293 238.897 28.3187 238.897 27.252V24.5H245.377V32.516ZM251.896 27.668C252.739 27.668 253.395 27.8973 253.864 28.356C254.344 28.804 254.584 29.38 254.584 30.084C254.584 30.788 254.344 31.3693 253.864 31.828C253.395 32.276 252.739 32.5 251.896 32.5H247.944V24.5H249.464V27.668H251.896ZM251.688 31.172C252.125 31.172 252.456 31.0813 252.68 30.9C252.904 30.7187 253.016 30.4467 253.016 30.084C253.016 29.7213 252.904 29.4493 252.68 29.268C252.456 29.0867 252.125 28.996 251.688 28.996H249.464V31.172H251.688Z" fill="black"/>
</svg>
