<svg width="279" height="52" viewBox="0 0 279 52" fill="none" xmlns="http://www.w3.org/2000/svg">
<rect width="279" height="52" rx="15" fill="#FFD600"/>
<path d="M82.9613 26.252V24.94H84.9133C85.8093 24.94 86.4226 24.78 86.7533 24.46C87.0946 24.14 87.2653 23.6813 87.2653 23.084C87.2653 22.444 87.0359 21.9587 86.5773 21.628C86.1186 21.2973 85.4999 21.132 84.7213 21.132C83.8679 21.132 83.1853 21.3453 82.6733 21.772C82.1719 22.1987 81.8839 22.7747 81.8093 23.5L80.3533 23.212C80.5133 22.1453 80.9719 21.3293 81.7293 20.764C82.4973 20.1987 83.4786 19.916 84.6733 19.916C86.0493 19.916 87.0893 20.188 87.7933 20.732C88.5079 21.276 88.8653 22.0547 88.8653 23.068C88.8653 24.252 88.2893 25.0787 87.1373 25.548C87.7453 25.6973 88.2253 26.0067 88.5773 26.476C88.9293 26.9453 89.1053 27.5213 89.1053 28.204C89.1053 30.5933 87.6226 31.788 84.6573 31.788C84.0706 31.788 83.5213 31.7293 83.0093 31.612C82.5079 31.5053 82.0173 31.324 81.5373 31.068C81.0679 30.8013 80.6786 30.412 80.3693 29.9C80.0706 29.388 79.8893 28.7747 79.8253 28.06L81.3293 27.804C81.3293 28.2627 81.4146 28.668 81.5853 29.02C81.7559 29.372 81.9586 29.644 82.1933 29.836C82.4386 30.028 82.7213 30.1827 83.0413 30.3C83.3719 30.4173 83.6653 30.492 83.9213 30.524C84.1773 30.556 84.4279 30.572 84.6733 30.572C85.6119 30.572 86.3106 30.348 86.7693 29.9C87.2386 29.452 87.4733 28.876 87.4733 28.172C87.4733 27.9587 87.4466 27.7613 87.3933 27.58C87.3506 27.388 87.2653 27.1853 87.1373 26.972C87.0093 26.748 86.7959 26.572 86.4973 26.444C86.1986 26.316 85.8253 26.252 85.3773 26.252H82.9613ZM95.411 26.988V26.732C95.411 26.5293 95.4057 26.364 95.395 26.236C95.3843 26.108 95.347 25.9373 95.283 25.724C95.2297 25.5107 95.1497 25.34 95.043 25.212C94.9363 25.0733 94.771 24.956 94.547 24.86C94.323 24.7533 94.051 24.7 93.731 24.7C93.2083 24.7 92.803 24.828 92.515 25.084C92.2377 25.34 92.099 25.7027 92.099 26.172V26.284L90.771 26.204C90.771 26.0867 90.7817 25.9533 90.803 25.804C90.835 25.644 90.9097 25.436 91.027 25.18C91.1443 24.924 91.299 24.6947 91.491 24.492C91.683 24.2893 91.9657 24.1133 92.339 23.964C92.723 23.804 93.1657 23.724 93.667 23.724C94.4243 23.724 95.0537 23.8733 95.555 24.172C96.0457 24.4493 96.355 24.7853 96.483 25.18C96.6217 25.564 96.691 26.14 96.691 26.908V29.564C96.691 29.756 96.6963 29.9053 96.707 30.012C96.7283 30.108 96.7817 30.204 96.867 30.3C96.963 30.396 97.0963 30.444 97.267 30.444C97.331 30.444 97.459 30.4227 97.651 30.38V31.452C97.363 31.548 97.091 31.596 96.835 31.596C96.483 31.596 96.2163 31.532 96.035 31.404C95.8963 31.2973 95.779 31.148 95.683 30.956C95.587 30.764 95.5337 30.604 95.523 30.476C94.7657 31.2973 93.907 31.708 92.947 31.708C92.1897 31.708 91.571 31.5107 91.091 31.116C90.6217 30.7107 90.387 30.188 90.387 29.548C90.387 28.876 90.659 28.332 91.203 27.916C91.8323 27.4467 92.851 27.164 94.259 27.068L95.411 26.988ZM95.427 27.82C93.8803 28.0653 92.979 28.2467 92.723 28.364C92.1043 28.6093 91.795 28.9933 91.795 29.516C91.795 29.8253 91.9123 30.092 92.147 30.316C92.3923 30.5293 92.7497 30.636 93.219 30.636C93.4323 30.636 93.6457 30.6093 93.859 30.556C94.083 30.5027 94.3177 30.4067 94.563 30.268C94.819 30.1187 95.027 29.884 95.187 29.564C95.347 29.244 95.427 28.86 95.427 28.412V27.82ZM98.931 23.964H100.179V26.956H101.699C102.126 26.956 102.446 26.844 102.659 26.62C102.883 26.396 103.016 26.1453 103.059 25.868C103.112 25.58 103.187 25.244 103.283 24.86C103.39 24.476 103.528 24.1773 103.699 23.964H105.139C104.851 24.2093 104.632 24.5293 104.483 24.924C104.344 25.3187 104.254 25.6813 104.211 26.012C104.179 26.332 104.072 26.636 103.891 26.924C103.71 27.2013 103.432 27.372 103.059 27.436C103.496 27.5533 103.827 27.7773 104.051 28.108C104.275 28.4387 104.408 28.7853 104.451 29.148C104.494 29.5 104.579 29.9053 104.707 30.364C104.846 30.8227 105.043 31.2013 105.299 31.5H103.859C103.688 31.2013 103.555 30.8173 103.459 30.348C103.374 29.868 103.304 29.4787 103.251 29.18C103.198 28.8707 103.032 28.5987 102.755 28.364C102.488 28.1293 102.094 28.012 101.571 28.012H100.179V31.5H98.931V23.964ZM111.052 26.988V26.732C111.052 26.5293 111.046 26.364 111.036 26.236C111.025 26.108 110.988 25.9373 110.924 25.724C110.87 25.5107 110.79 25.34 110.684 25.212C110.577 25.0733 110.412 24.956 110.188 24.86C109.964 24.7533 109.692 24.7 109.372 24.7C108.849 24.7 108.444 24.828 108.156 25.084C107.878 25.34 107.74 25.7027 107.74 26.172V26.284L106.412 26.204C106.412 26.0867 106.422 25.9533 106.444 25.804C106.476 25.644 106.55 25.436 106.668 25.18C106.785 24.924 106.94 24.6947 107.132 24.492C107.324 24.2893 107.606 24.1133 107.98 23.964C108.364 23.804 108.806 23.724 109.308 23.724C110.065 23.724 110.694 23.8733 111.196 24.172C111.686 24.4493 111.996 24.7853 112.124 25.18C112.262 25.564 112.332 26.14 112.332 26.908V29.564C112.332 29.756 112.337 29.9053 112.348 30.012C112.369 30.108 112.422 30.204 112.508 30.3C112.604 30.396 112.737 30.444 112.908 30.444C112.972 30.444 113.1 30.4227 113.292 30.38V31.452C113.004 31.548 112.732 31.596 112.476 31.596C112.124 31.596 111.857 31.532 111.676 31.404C111.537 31.2973 111.42 31.148 111.324 30.956C111.228 30.764 111.174 30.604 111.164 30.476C110.406 31.2973 109.548 31.708 108.588 31.708C107.83 31.708 107.212 31.5107 106.732 31.116C106.262 30.7107 106.028 30.188 106.028 29.548C106.028 28.876 106.3 28.332 106.844 27.916C107.473 27.4467 108.492 27.164 109.9 27.068L111.052 26.988ZM111.068 27.82C109.521 28.0653 108.62 28.2467 108.364 28.364C107.745 28.6093 107.436 28.9933 107.436 29.516C107.436 29.8253 107.553 30.092 107.788 30.316C108.033 30.5293 108.39 30.636 108.86 30.636C109.073 30.636 109.286 30.6093 109.5 30.556C109.724 30.5027 109.958 30.4067 110.204 30.268C110.46 30.1187 110.668 29.884 110.828 29.564C110.988 29.244 111.068 28.86 111.068 28.412V27.82ZM118.924 27.5C120.076 27.7027 120.652 28.3533 120.652 29.452C120.652 30.1773 120.374 30.7427 119.82 31.148C119.276 31.5427 118.486 31.74 117.452 31.74C116.47 31.74 115.681 31.5533 115.084 31.18C114.486 30.8067 114.124 30.1347 113.996 29.164L115.244 28.972C115.308 29.26 115.372 29.484 115.436 29.644C115.5 29.7933 115.606 29.9693 115.756 30.172C115.905 30.364 116.118 30.5027 116.396 30.588C116.684 30.6733 117.041 30.716 117.468 30.716C118.716 30.716 119.34 30.2947 119.34 29.452C119.34 29.004 119.201 28.6733 118.924 28.46C118.657 28.2467 118.198 28.14 117.548 28.14H116.588V27.084H117.388C118.518 27.084 119.084 26.6733 119.084 25.852C119.084 25.5427 118.945 25.276 118.668 25.052C118.401 24.828 118.001 24.716 117.468 24.716C117.009 24.716 116.588 24.828 116.204 25.052C115.82 25.276 115.58 25.6547 115.484 26.188L114.236 26.028C114.31 25.3027 114.641 24.7373 115.228 24.332C115.825 23.9267 116.598 23.724 117.548 23.724C117.996 23.724 118.417 23.7773 118.812 23.884C119.206 23.98 119.569 24.188 119.9 24.508C120.23 24.8173 120.396 25.2173 120.396 25.708C120.396 26.1453 120.284 26.5133 120.06 26.812C119.846 27.1 119.468 27.3293 118.924 27.5ZM126.692 26.988V26.732C126.692 26.5293 126.687 26.364 126.676 26.236C126.666 26.108 126.628 25.9373 126.564 25.724C126.511 25.5107 126.431 25.34 126.324 25.212C126.218 25.0733 126.052 24.956 125.828 24.86C125.604 24.7533 125.332 24.7 125.012 24.7C124.49 24.7 124.084 24.828 123.796 25.084C123.519 25.34 123.38 25.7027 123.38 26.172V26.284L122.052 26.204C122.052 26.0867 122.063 25.9533 122.084 25.804C122.116 25.644 122.191 25.436 122.308 25.18C122.426 24.924 122.58 24.6947 122.772 24.492C122.964 24.2893 123.247 24.1133 123.62 23.964C124.004 23.804 124.447 23.724 124.948 23.724C125.706 23.724 126.335 23.8733 126.836 24.172C127.327 24.4493 127.636 24.7853 127.764 25.18C127.903 25.564 127.972 26.14 127.972 26.908V29.564C127.972 29.756 127.978 29.9053 127.988 30.012C128.01 30.108 128.063 30.204 128.148 30.3C128.244 30.396 128.378 30.444 128.548 30.444C128.612 30.444 128.74 30.4227 128.932 30.38V31.452C128.644 31.548 128.372 31.596 128.116 31.596C127.764 31.596 127.498 31.532 127.316 31.404C127.178 31.2973 127.06 31.148 126.964 30.956C126.868 30.764 126.815 30.604 126.804 30.476C126.047 31.2973 125.188 31.708 124.228 31.708C123.471 31.708 122.852 31.5107 122.372 31.116C121.903 30.7107 121.668 30.188 121.668 29.548C121.668 28.876 121.94 28.332 122.484 27.916C123.114 27.4467 124.132 27.164 125.54 27.068L126.692 26.988ZM126.708 27.82C125.162 28.0653 124.26 28.2467 124.004 28.364C123.386 28.6093 123.076 28.9933 123.076 29.516C123.076 29.8253 123.194 30.092 123.428 30.316C123.674 30.5293 124.031 30.636 124.5 30.636C124.714 30.636 124.927 30.6093 125.14 30.556C125.364 30.5027 125.599 30.4067 125.844 30.268C126.1 30.1187 126.308 29.884 126.468 29.564C126.628 29.244 126.708 28.86 126.708 28.412V27.82ZM129.38 23.964H135.652V25.02H133.14V31.5H131.892V25.02H129.38V23.964ZM138.179 23.964V26.924H140.659C141.555 26.924 142.206 27.132 142.611 27.548C143.027 27.964 143.235 28.4973 143.235 29.148C143.235 30.0227 143 30.636 142.531 30.988C142.062 31.3293 141.32 31.5 140.307 31.5H136.931V23.964H138.179ZM138.179 27.98V30.444H140.179C141.32 30.444 141.891 30.028 141.891 29.196C141.891 28.7267 141.736 28.4067 141.427 28.236C141.128 28.0653 140.675 27.98 140.067 27.98H138.179ZM155.583 23.964H157.215V31.5H156.095V25.308L153.823 31.5H152.511L150.335 25.18V31.5H149.087V23.964H150.975L153.279 30.22L155.583 23.964ZM160.266 27.964V28.06C160.266 28.7533 160.468 29.3827 160.874 29.948C161.279 30.5027 161.892 30.78 162.714 30.78C163.3 30.78 163.748 30.604 164.058 30.252C164.378 29.8893 164.591 29.4787 164.698 29.02L165.994 29.196C165.428 30.892 164.292 31.74 162.586 31.74C161.551 31.74 160.676 31.4093 159.962 30.748C159.247 30.076 158.89 29.0467 158.89 27.66C158.89 26.9773 159.002 26.3747 159.226 25.852C159.46 25.3187 159.759 24.908 160.122 24.62C160.495 24.3213 160.884 24.0973 161.29 23.948C161.706 23.7987 162.122 23.724 162.538 23.724C163.476 23.724 164.287 24.06 164.97 24.732C165.652 25.3933 165.994 26.4013 165.994 27.756V27.964H160.266ZM160.298 27.036H164.602C164.602 26.396 164.399 25.852 163.994 25.404C163.588 24.9453 163.071 24.716 162.442 24.716C161.802 24.716 161.3 24.94 160.938 25.388C160.575 25.8253 160.362 26.3747 160.298 27.036ZM173.105 20.204H174.385C174.385 20.8867 174.188 21.388 173.793 21.708C173.409 22.028 172.801 22.2253 171.969 22.3C170.849 22.396 170.033 22.684 169.521 23.164C169.009 23.6333 168.695 24.38 168.577 25.404C168.951 24.892 169.351 24.524 169.777 24.3C170.204 24.076 170.737 23.964 171.377 23.964C172.444 23.964 173.265 24.3107 173.841 25.004C174.417 25.6973 174.705 26.6253 174.705 27.788C174.705 28.268 174.636 28.732 174.497 29.18C174.369 29.628 174.167 30.0493 173.889 30.444C173.612 30.8387 173.228 31.1533 172.737 31.388C172.257 31.6227 171.703 31.74 171.073 31.74C169.847 31.74 168.919 31.3507 168.289 30.572C167.66 29.7933 167.345 28.748 167.345 27.436C167.345 25.868 167.5 24.6307 167.809 23.724C168.129 22.8067 168.62 22.14 169.281 21.724C169.943 21.308 170.849 21.0627 172.001 20.988C172.353 20.9667 172.625 20.9027 172.817 20.796C173.009 20.6787 173.105 20.4813 173.105 20.204ZM173.329 27.708C173.329 26.9613 173.127 26.316 172.721 25.772C172.327 25.228 171.804 24.956 171.153 24.956C170.428 24.956 169.857 25.2333 169.441 25.788C169.025 26.332 168.817 26.988 168.817 27.756C168.817 28.684 169.031 29.4093 169.457 29.932C169.884 30.4547 170.444 30.716 171.137 30.716C171.745 30.716 172.263 30.4547 172.689 29.932C173.116 29.3987 173.329 28.6573 173.329 27.708ZM177.344 27.964V28.06C177.344 28.7533 177.546 29.3827 177.952 29.948C178.357 30.5027 178.97 30.78 179.792 30.78C180.378 30.78 180.826 30.604 181.136 30.252C181.456 29.8893 181.669 29.4787 181.776 29.02L183.072 29.196C182.506 30.892 181.37 31.74 179.664 31.74C178.629 31.74 177.754 31.4093 177.04 30.748C176.325 30.076 175.968 29.0467 175.968 27.66C175.968 26.9773 176.08 26.3747 176.304 25.852C176.538 25.3187 176.837 24.908 177.2 24.62C177.573 24.3213 177.962 24.0973 178.368 23.948C178.784 23.7987 179.2 23.724 179.616 23.724C180.554 23.724 181.365 24.06 182.048 24.732C182.73 25.3933 183.072 26.4013 183.072 27.756V27.964H177.344ZM177.376 27.036H181.68C181.68 26.396 181.477 25.852 181.072 25.404C180.666 24.9453 180.149 24.716 179.52 24.716C178.88 24.716 178.378 24.94 178.016 25.388C177.653 25.8253 177.44 26.3747 177.376 27.036ZM190.856 23.964V31.5H189.608V25.02H186.6V25.708C186.6 26.6253 186.594 27.2973 186.584 27.724C186.573 28.14 186.525 28.6467 186.44 29.244C186.354 29.8413 186.221 30.268 186.039 30.524C185.869 30.78 185.618 31.0093 185.288 31.212C184.957 31.404 184.541 31.5 184.04 31.5H183.848V30.444H184.04C184.434 30.4333 184.722 30.3107 184.904 30.076C185.096 29.8307 185.234 29.3773 185.32 28.716C185.405 28.0547 185.448 27.052 185.448 25.708V23.964H190.856ZM194.21 23.964V26.924H196.69C197.586 26.924 198.237 27.132 198.642 27.548C199.058 27.964 199.266 28.4973 199.266 29.148C199.266 30.0227 199.032 30.636 198.562 30.988C198.093 31.3293 197.352 31.5 196.338 31.5H192.962V23.964H194.21ZM194.21 27.98V30.444H196.21C197.352 30.444 197.922 30.028 197.922 29.196C197.922 28.7267 197.768 28.4067 197.458 28.236C197.16 28.0653 196.706 27.98 196.098 27.98H194.21Z" fill="black"/>
</svg>
