<svg width="280" height="52" viewBox="0 0 280 52" fill="none" xmlns="http://www.w3.org/2000/svg">
<rect width="280" height="52" rx="15" fill="#FFD600"/>
<path d="M83.4759 31.6591V30.3409H84.2031C84.4834 30.3409 84.7183 30.286 84.9077 30.1761C85.1009 30.0663 85.2599 29.9242 85.3849 29.75C85.5137 29.5758 85.6198 29.3939 85.7031 29.2045L85.8849 28.7727L81.8622 19.8636H83.3849L86.5895 27.0909L89.5213 19.8636H91.0213L86.9986 29.6136C86.8395 29.9773 86.6577 30.3144 86.4531 30.625C86.2524 30.9356 85.9777 31.1856 85.6293 31.375C85.2846 31.5644 84.8168 31.6591 84.2259 31.6591H83.4759ZM92.1193 29.2727H93.5511C93.5814 29.6667 93.7595 29.9659 94.0852 30.1705C94.4148 30.375 94.8428 30.4773 95.3693 30.4773C95.9072 30.4773 96.3674 30.3674 96.75 30.1477C97.1326 29.9242 97.3239 29.5644 97.3239 29.0682C97.3239 28.7765 97.2519 28.5227 97.108 28.3068C96.964 28.0871 96.7614 27.9167 96.5 27.7955C96.2386 27.6742 95.9299 27.6136 95.5739 27.6136H94.0739V26.4091H95.5739C96.108 26.4091 96.5019 26.2879 96.7557 26.0455C97.0133 25.803 97.142 25.5 97.142 25.1364C97.142 24.7462 97.0038 24.4337 96.7273 24.1989C96.4508 23.9602 96.0587 23.8409 95.5511 23.8409C95.0398 23.8409 94.6136 23.9564 94.2727 24.1875C93.9318 24.4148 93.7519 24.7083 93.733 25.0682H92.3239C92.339 24.5985 92.483 24.1837 92.7557 23.8239C93.0284 23.4602 93.3996 23.1761 93.8693 22.9716C94.339 22.7633 94.8769 22.6591 95.483 22.6591C96.0966 22.6591 96.6288 22.767 97.0795 22.983C97.5341 23.1951 97.8845 23.4848 98.1307 23.8523C98.3807 24.2159 98.5057 24.6288 98.5057 25.0909C98.5057 25.5833 98.3674 25.9811 98.0909 26.2841C97.8144 26.5871 97.4678 26.803 97.0511 26.9318V27.0227C97.3807 27.0455 97.6667 27.1515 97.9091 27.3409C98.1553 27.5265 98.3466 27.7708 98.483 28.0739C98.6193 28.3731 98.6875 28.7045 98.6875 29.0682C98.6875 29.5985 98.5455 30.0606 98.2614 30.4545C97.9773 30.8447 97.5871 31.1477 97.0909 31.3636C96.5947 31.5758 96.0284 31.6818 95.392 31.6818C94.7746 31.6818 94.2216 31.5814 93.733 31.3807C93.2443 31.1761 92.8561 30.8939 92.5682 30.5341C92.2841 30.1705 92.1345 29.75 92.1193 29.2727ZM106.412 26.5227V27.7727H101.594V26.5227H106.412ZM101.912 22.7727V31.5H100.571V22.7727H101.912ZM107.435 22.7727V31.5H106.094V22.7727H107.435ZM112.452 31.7045C111.899 31.7045 111.397 31.6004 110.946 31.392C110.495 31.1799 110.137 30.875 109.872 30.4773C109.607 30.0758 109.474 29.5909 109.474 29.0227C109.474 28.5227 109.573 28.1174 109.77 27.8068C109.967 27.4924 110.23 27.2462 110.56 27.0682C110.889 26.8902 111.253 26.7576 111.651 26.6705C112.052 26.5795 112.455 26.5076 112.861 26.4545C113.391 26.3864 113.821 26.3352 114.151 26.3011C114.484 26.2633 114.726 26.2008 114.878 26.1136C115.033 26.0265 115.111 25.875 115.111 25.6591V25.6136C115.111 25.053 114.957 24.6174 114.651 24.3068C114.348 23.9962 113.887 23.8409 113.27 23.8409C112.63 23.8409 112.128 23.9811 111.764 24.2614C111.401 24.5417 111.145 24.8409 110.997 25.1591L109.724 24.7045C109.952 24.1742 110.255 23.7614 110.634 23.4659C111.016 23.1667 111.433 22.9583 111.884 22.8409C112.338 22.7197 112.785 22.6591 113.224 22.6591C113.505 22.6591 113.827 22.6932 114.19 22.7614C114.558 22.8258 114.912 22.9602 115.253 23.1648C115.598 23.3693 115.884 23.678 116.111 24.0909C116.338 24.5038 116.452 25.0568 116.452 25.75V31.5H115.111V30.3182H115.043C114.952 30.5076 114.8 30.7102 114.588 30.9261C114.376 31.142 114.094 31.3258 113.741 31.4773C113.389 31.6288 112.959 31.7045 112.452 31.7045ZM112.656 30.5C113.187 30.5 113.634 30.3958 113.997 30.1875C114.365 29.9792 114.641 29.7102 114.827 29.3807C115.016 29.0511 115.111 28.7045 115.111 28.3409V27.1136C115.054 27.1818 114.929 27.2443 114.736 27.3011C114.546 27.3542 114.327 27.4015 114.077 27.4432C113.83 27.4811 113.59 27.5152 113.355 27.5455C113.124 27.572 112.937 27.5947 112.793 27.6136C112.444 27.6591 112.118 27.733 111.815 27.8352C111.516 27.9337 111.274 28.0833 111.088 28.2841C110.906 28.4811 110.815 28.75 110.815 29.0909C110.815 29.5568 110.988 29.9091 111.332 30.1477C111.681 30.3826 112.122 30.5 112.656 30.5ZM117.712 24.0227V22.7727H124.803V24.0227H121.939V31.5H120.598V24.0227H117.712ZM127.918 25.9318H130.418C131.44 25.9318 132.223 26.1913 132.764 26.7102C133.306 27.2292 133.577 27.8864 133.577 28.6818C133.577 29.2045 133.455 29.6799 133.213 30.108C132.971 30.5322 132.615 30.8712 132.145 31.125C131.675 31.375 131.099 31.5 130.418 31.5H126.759V22.7727H128.099V30.25H130.418C130.948 30.25 131.384 30.1098 131.724 29.8295C132.065 29.5492 132.236 29.1894 132.236 28.75C132.236 28.2879 132.065 27.911 131.724 27.6193C131.384 27.3277 130.948 27.1818 130.418 27.1818H127.918V25.9318ZM146.595 19.5L147.277 20.3182C147.012 20.5758 146.705 20.7557 146.357 20.858C146.008 20.9602 145.614 21.0227 145.175 21.0455C144.735 21.0682 144.247 21.0909 143.709 21.1136C143.103 21.1364 142.601 21.2841 142.203 21.5568C141.805 21.8295 141.499 22.2235 141.283 22.7386C141.067 23.2538 140.929 23.8864 140.868 24.6364H140.982C141.277 24.0909 141.686 23.6894 142.209 23.4318C142.732 23.1742 143.292 23.0455 143.891 23.0455C144.572 23.0455 145.186 23.2045 145.732 23.5227C146.277 23.8409 146.709 24.3125 147.027 24.9375C147.345 25.5625 147.504 26.3333 147.504 27.25C147.504 28.1629 147.341 28.9508 147.016 29.6136C146.694 30.2765 146.241 30.7879 145.658 31.1477C145.078 31.5038 144.398 31.6818 143.618 31.6818C142.838 31.6818 142.154 31.4981 141.567 31.1307C140.98 30.7595 140.523 30.2102 140.197 29.483C139.872 28.7519 139.709 27.8485 139.709 26.7727V25.8409C139.709 23.8977 140.038 22.4242 140.697 21.4205C141.36 20.4167 142.357 19.8977 143.686 19.8636C144.156 19.8485 144.574 19.8447 144.942 19.8523C145.309 19.8598 145.629 19.8428 145.902 19.8011C146.175 19.7595 146.406 19.6591 146.595 19.5ZM143.618 30.4773C144.144 30.4773 144.597 30.3447 144.976 30.0795C145.358 29.8144 145.652 29.4413 145.857 28.9602C146.061 28.4754 146.163 27.9053 146.163 27.25C146.163 26.6136 146.059 26.072 145.851 25.625C145.646 25.178 145.353 24.8371 144.97 24.6023C144.588 24.3674 144.129 24.25 143.595 24.25C143.205 24.25 142.855 24.3163 142.544 24.4489C142.233 24.5814 141.968 24.7765 141.749 25.0341C141.529 25.2917 141.358 25.6061 141.237 25.9773C141.12 26.3485 141.057 26.7727 141.05 27.25C141.05 28.2273 141.279 29.0095 141.737 29.5966C142.196 30.1837 142.822 30.4773 143.618 30.4773ZM153.101 31.6818C152.313 31.6818 151.622 31.4943 151.027 31.1193C150.436 30.7443 149.974 30.2197 149.641 29.5455C149.311 28.8712 149.146 28.0833 149.146 27.1818C149.146 26.2727 149.311 25.4792 149.641 24.8011C149.974 24.1231 150.436 23.5966 151.027 23.2216C151.622 22.8466 152.313 22.6591 153.101 22.6591C153.889 22.6591 154.578 22.8466 155.169 23.2216C155.764 23.5966 156.226 24.1231 156.555 24.8011C156.889 25.4792 157.055 26.2727 157.055 27.1818C157.055 28.0833 156.889 28.8712 156.555 29.5455C156.226 30.2197 155.764 30.7443 155.169 31.1193C154.578 31.4943 153.889 31.6818 153.101 31.6818ZM153.101 30.4773C153.699 30.4773 154.192 30.3239 154.578 30.017C154.964 29.7102 155.25 29.3068 155.436 28.8068C155.622 28.3068 155.714 27.7652 155.714 27.1818C155.714 26.5985 155.622 26.0549 155.436 25.5511C155.25 25.0473 154.964 24.6402 154.578 24.3295C154.192 24.0189 153.699 23.8636 153.101 23.8636C152.502 23.8636 152.01 24.0189 151.624 24.3295C151.237 24.6402 150.951 25.0473 150.766 25.5511C150.58 26.0549 150.487 26.5985 150.487 27.1818C150.487 27.7652 150.58 28.3068 150.766 28.8068C150.951 29.3068 151.237 29.7102 151.624 30.017C152.01 30.3239 152.502 30.4773 153.101 30.4773ZM158.33 31.5V30.25H158.648C158.909 30.25 159.127 30.1989 159.301 30.0966C159.475 29.9905 159.616 29.8068 159.722 29.5455C159.831 29.2803 159.915 28.9129 159.972 28.4432C160.032 27.9697 160.076 27.3674 160.102 26.6364L160.261 22.7727H166.08V31.5H164.739V24.0227H161.534L161.398 27.1364C161.367 27.8523 161.303 28.483 161.205 29.0284C161.11 29.5701 160.964 30.0246 160.767 30.392C160.574 30.7595 160.316 31.036 159.994 31.2216C159.672 31.4072 159.269 31.5 158.784 31.5H158.33ZM169.699 25.9318H172.199C173.222 25.9318 174.004 26.1913 174.545 26.7102C175.087 27.2292 175.358 27.8864 175.358 28.6818C175.358 29.2045 175.237 29.6799 174.994 30.108C174.752 30.5322 174.396 30.8712 173.926 31.125C173.456 31.375 172.881 31.5 172.199 31.5H168.54V22.7727H169.881V30.25H172.199C172.729 30.25 173.165 30.1098 173.506 29.8295C173.847 29.5492 174.017 29.1894 174.017 28.75C174.017 28.2879 173.847 27.911 173.506 27.6193C173.165 27.3277 172.729 27.1818 172.199 27.1818H169.699V25.9318ZM177.399 22.7727H178.74V30.25H182.036V22.7727H183.376V30.25H186.672V22.7727H188.013V31.5H177.399V22.7727ZM194.121 31.6818C193.28 31.6818 192.554 31.4962 191.945 31.125C191.339 30.75 190.871 30.2273 190.541 29.5568C190.215 28.8826 190.053 28.0985 190.053 27.2045C190.053 26.3106 190.215 25.5227 190.541 24.8409C190.871 24.1553 191.329 23.6212 191.916 23.2386C192.507 22.8523 193.196 22.6591 193.984 22.6591C194.439 22.6591 194.888 22.7348 195.331 22.8864C195.774 23.0379 196.178 23.2841 196.541 23.625C196.905 23.9621 197.195 24.4091 197.411 24.9659C197.626 25.5227 197.734 26.2083 197.734 27.0227V27.5909H191.007V26.4318H196.371C196.371 25.9394 196.272 25.5 196.075 25.1136C195.882 24.7273 195.606 24.4223 195.246 24.1989C194.89 23.9754 194.469 23.8636 193.984 23.8636C193.45 23.8636 192.988 23.9962 192.598 24.2614C192.212 24.5227 191.914 24.8636 191.706 25.2841C191.498 25.7045 191.393 26.1553 191.393 26.6364V27.4091C191.393 28.0682 191.507 28.6269 191.734 29.0852C191.965 29.5398 192.286 29.8864 192.695 30.125C193.104 30.3598 193.579 30.4773 194.121 30.4773C194.473 30.4773 194.791 30.428 195.075 30.3295C195.363 30.2273 195.611 30.0758 195.82 29.875C196.028 29.6705 196.189 29.4167 196.303 29.1136L197.598 29.4773C197.462 29.9167 197.232 30.303 196.911 30.6364C196.589 30.9659 196.191 31.2235 195.717 31.4091C195.244 31.5909 194.712 31.6818 194.121 31.6818Z" fill="black"/>
</svg>
