<svg width="279" height="52" viewBox="0 0 279 52" fill="none" xmlns="http://www.w3.org/2000/svg">
<rect width="279" height="52" rx="15" fill="#FFF0B9"/>
<path d="M89.9664 31.5V20.204H95.3904C96.265 20.204 97.0224 20.4653 97.6624 20.988C98.313 21.5 98.6384 22.204 98.6384 23.1C98.6384 23.676 98.4784 24.1933 98.1584 24.652C97.849 25.1 97.433 25.3987 96.9104 25.548C98.2864 25.964 98.9744 26.908 98.9744 28.38C98.9744 28.86 98.8944 29.292 98.7344 29.676C98.5744 30.0493 98.3717 30.348 98.1264 30.572C97.8917 30.796 97.609 30.9827 97.2784 31.132C96.9584 31.2707 96.649 31.3667 96.3504 31.42C96.0517 31.4733 95.7477 31.5 95.4384 31.5H89.9664ZM91.3904 24.956H94.7344C96.281 24.956 97.0544 24.364 97.0544 23.18C97.0544 22.6787 96.8997 22.2787 96.5904 21.98C96.281 21.6813 95.7904 21.532 95.1184 21.532H91.3904V24.956ZM91.3904 30.172H95.0544C95.385 30.172 95.6677 30.156 95.9024 30.124C96.137 30.0813 96.3824 30.0013 96.6384 29.884C96.8944 29.756 97.0864 29.5587 97.2144 29.292C97.353 29.0147 97.4224 28.6733 97.4224 28.268C97.4224 27.6067 97.209 27.1053 96.7824 26.764C96.3664 26.412 95.8064 26.236 95.1024 26.236H91.3904V30.172ZM105.15 23.964H106.398V27.02H110.27V23.964H111.518V31.5H110.27V28.076H106.398V31.5H105.15V23.964ZM118.114 26.988V26.732C118.114 26.5293 118.109 26.364 118.098 26.236C118.087 26.108 118.05 25.9373 117.986 25.724C117.933 25.5107 117.853 25.34 117.746 25.212C117.639 25.0733 117.474 24.956 117.25 24.86C117.026 24.7533 116.754 24.7 116.434 24.7C115.911 24.7 115.506 24.828 115.218 25.084C114.941 25.34 114.802 25.7027 114.802 26.172V26.284L113.474 26.204C113.474 26.0867 113.485 25.9533 113.506 25.804C113.538 25.644 113.613 25.436 113.73 25.18C113.847 24.924 114.002 24.6947 114.194 24.492C114.386 24.2893 114.669 24.1133 115.042 23.964C115.426 23.804 115.869 23.724 116.37 23.724C117.127 23.724 117.757 23.8733 118.258 24.172C118.749 24.4493 119.058 24.7853 119.186 25.18C119.325 25.564 119.394 26.14 119.394 26.908V29.564C119.394 29.756 119.399 29.9053 119.41 30.012C119.431 30.108 119.485 30.204 119.57 30.3C119.666 30.396 119.799 30.444 119.97 30.444C120.034 30.444 120.162 30.4227 120.354 30.38V31.452C120.066 31.548 119.794 31.596 119.538 31.596C119.186 31.596 118.919 31.532 118.738 31.404C118.599 31.2973 118.482 31.148 118.386 30.956C118.29 30.764 118.237 30.604 118.226 30.476C117.469 31.2973 116.61 31.708 115.65 31.708C114.893 31.708 114.274 31.5107 113.794 31.116C113.325 30.7107 113.09 30.188 113.09 29.548C113.09 28.876 113.362 28.332 113.906 27.916C114.535 27.4467 115.554 27.164 116.962 27.068L118.114 26.988ZM118.13 27.82C116.583 28.0653 115.682 28.2467 115.426 28.364C114.807 28.6093 114.498 28.9933 114.498 29.516C114.498 29.8253 114.615 30.092 114.85 30.316C115.095 30.5293 115.453 30.636 115.922 30.636C116.135 30.636 116.349 30.6093 116.562 30.556C116.786 30.5027 117.021 30.4067 117.266 30.268C117.522 30.1187 117.73 29.884 117.89 29.564C118.05 29.244 118.13 28.86 118.13 28.412V27.82ZM121.634 23.964H122.882V30.364H125.826V23.964H127.074V30.364H130.018V23.964H131.266V31.5H121.634V23.964ZM137.728 23.964H138.976V26.956H140.496C140.923 26.956 141.243 26.844 141.456 26.62C141.68 26.396 141.813 26.1453 141.856 25.868C141.909 25.58 141.984 25.244 142.08 24.86C142.187 24.476 142.325 24.1773 142.496 23.964H143.936C143.648 24.2093 143.429 24.5293 143.28 24.924C143.141 25.3187 143.051 25.6813 143.008 26.012C142.976 26.332 142.869 26.636 142.688 26.924C142.507 27.2013 142.229 27.372 141.856 27.436C142.293 27.5533 142.624 27.7773 142.848 28.108C143.072 28.4387 143.205 28.7853 143.248 29.148C143.291 29.5 143.376 29.9053 143.504 30.364C143.643 30.8227 143.84 31.2013 144.096 31.5H142.656C142.485 31.2013 142.352 30.8173 142.256 30.348C142.171 29.868 142.101 29.4787 142.048 29.18C141.995 28.8707 141.829 28.5987 141.552 28.364C141.285 28.1293 140.891 28.012 140.368 28.012H138.976V31.5H137.728V23.964ZM149.849 26.988V26.732C149.849 26.5293 149.843 26.364 149.833 26.236C149.822 26.108 149.785 25.9373 149.721 25.724C149.667 25.5107 149.587 25.34 149.481 25.212C149.374 25.0733 149.209 24.956 148.985 24.86C148.761 24.7533 148.489 24.7 148.169 24.7C147.646 24.7 147.241 24.828 146.953 25.084C146.675 25.34 146.537 25.7027 146.537 26.172V26.284L145.209 26.204C145.209 26.0867 145.219 25.9533 145.241 25.804C145.273 25.644 145.347 25.436 145.465 25.18C145.582 24.924 145.737 24.6947 145.929 24.492C146.121 24.2893 146.403 24.1133 146.777 23.964C147.161 23.804 147.603 23.724 148.105 23.724C148.862 23.724 149.491 23.8733 149.993 24.172C150.483 24.4493 150.793 24.7853 150.921 25.18C151.059 25.564 151.129 26.14 151.129 26.908V29.564C151.129 29.756 151.134 29.9053 151.145 30.012C151.166 30.108 151.219 30.204 151.305 30.3C151.401 30.396 151.534 30.444 151.705 30.444C151.769 30.444 151.897 30.4227 152.089 30.38V31.452C151.801 31.548 151.529 31.596 151.273 31.596C150.921 31.596 150.654 31.532 150.473 31.404C150.334 31.2973 150.217 31.148 150.121 30.956C150.025 30.764 149.971 30.604 149.961 30.476C149.203 31.2973 148.345 31.708 147.385 31.708C146.627 31.708 146.009 31.5107 145.529 31.116C145.059 30.7107 144.825 30.188 144.825 29.548C144.825 28.876 145.097 28.332 145.641 27.916C146.27 27.4467 147.289 27.164 148.697 27.068L149.849 26.988ZM149.865 27.82C148.318 28.0653 147.417 28.2467 147.161 28.364C146.542 28.6093 146.233 28.9933 146.233 29.516C146.233 29.8253 146.35 30.092 146.585 30.316C146.83 30.5293 147.187 30.636 147.657 30.636C147.87 30.636 148.083 30.6093 148.297 30.556C148.521 30.5027 148.755 30.4067 149.001 30.268C149.257 30.1187 149.465 29.884 149.625 29.564C149.785 29.244 149.865 28.86 149.865 28.412V27.82ZM152.537 23.964H158.809V25.02H156.297V31.5H155.049V25.02H152.537V23.964ZM164.255 26.988V26.732C164.255 26.5293 164.249 26.364 164.239 26.236C164.228 26.108 164.191 25.9373 164.127 25.724C164.073 25.5107 163.993 25.34 163.887 25.212C163.78 25.0733 163.615 24.956 163.391 24.86C163.167 24.7533 162.895 24.7 162.575 24.7C162.052 24.7 161.647 24.828 161.359 25.084C161.081 25.34 160.943 25.7027 160.943 26.172V26.284L159.615 26.204C159.615 26.0867 159.625 25.9533 159.647 25.804C159.679 25.644 159.753 25.436 159.871 25.18C159.988 24.924 160.143 24.6947 160.335 24.492C160.527 24.2893 160.809 24.1133 161.183 23.964C161.567 23.804 162.009 23.724 162.511 23.724C163.268 23.724 163.897 23.8733 164.399 24.172C164.889 24.4493 165.199 24.7853 165.327 25.18C165.465 25.564 165.535 26.14 165.535 26.908V29.564C165.535 29.756 165.54 29.9053 165.551 30.012C165.572 30.108 165.625 30.204 165.711 30.3C165.807 30.396 165.94 30.444 166.111 30.444C166.175 30.444 166.303 30.4227 166.495 30.38V31.452C166.207 31.548 165.935 31.596 165.679 31.596C165.327 31.596 165.06 31.532 164.879 31.404C164.74 31.2973 164.623 31.148 164.527 30.956C164.431 30.764 164.377 30.604 164.367 30.476C163.609 31.2973 162.751 31.708 161.791 31.708C161.033 31.708 160.415 31.5107 159.935 31.116C159.465 30.7107 159.231 30.188 159.231 29.548C159.231 28.876 159.503 28.332 160.047 27.916C160.676 27.4467 161.695 27.164 163.103 27.068L164.255 26.988ZM164.271 27.82C162.724 28.0653 161.823 28.2467 161.567 28.364C160.948 28.6093 160.639 28.9933 160.639 29.516C160.639 29.8253 160.756 30.092 160.991 30.316C161.236 30.5293 161.593 30.636 162.063 30.636C162.276 30.636 162.489 30.6093 162.703 30.556C162.927 30.5027 163.161 30.4067 163.407 30.268C163.663 30.1187 163.871 29.884 164.031 29.564C164.191 29.244 164.271 28.86 164.271 28.412V27.82ZM173.887 23.964V31.5H172.639V25.02H169.631V25.708C169.631 26.6253 169.625 27.2973 169.615 27.724C169.604 28.14 169.556 28.6467 169.471 29.244C169.385 29.8413 169.252 30.268 169.071 30.524C168.9 30.78 168.649 31.0093 168.319 31.212C167.988 31.404 167.572 31.5 167.071 31.5H166.879V30.444H167.071C167.465 30.4333 167.753 30.3107 167.935 30.076C168.127 29.8307 168.265 29.3773 168.351 28.716C168.436 28.0547 168.479 27.052 168.479 25.708V23.964H173.887ZM175.578 27.74C175.578 27.452 175.604 27.1587 175.658 26.86C175.711 26.5507 175.818 26.204 175.978 25.82C176.148 25.4253 176.367 25.0787 176.634 24.78C176.9 24.4813 177.268 24.2307 177.738 24.028C178.218 23.8253 178.767 23.724 179.386 23.724C180.442 23.724 181.3 24.06 181.962 24.732C182.634 25.3933 182.97 26.3693 182.97 27.66C182.97 28.9613 182.618 29.9693 181.914 30.684C181.22 31.388 180.34 31.74 179.274 31.74C178.186 31.74 177.295 31.388 176.602 30.684C175.919 29.98 175.578 28.9987 175.578 27.74ZM176.954 27.804C176.954 28.0173 176.964 28.236 176.986 28.46C177.018 28.6733 177.082 28.924 177.178 29.212C177.274 29.5 177.402 29.7507 177.562 29.964C177.722 30.1667 177.946 30.3427 178.234 30.492C178.532 30.6413 178.874 30.716 179.258 30.716C180.015 30.716 180.591 30.4387 180.986 29.884C181.391 29.3293 181.594 28.556 181.594 27.564C181.594 26.796 181.418 26.1347 181.066 25.58C180.714 25.0253 180.148 24.748 179.37 24.748C178.922 24.748 178.532 24.844 178.202 25.036C177.871 25.228 177.626 25.4413 177.466 25.676C177.316 25.9107 177.199 26.1987 177.114 26.54C177.028 26.8707 176.98 27.1213 176.97 27.292C176.959 27.452 176.954 27.6227 176.954 27.804ZM184.665 23.964H190.105V25.02H185.913V31.5H184.665V23.964Z" fill="black"/>
</svg>
