<svg width="279" height="52" viewBox="0 0 279 52" fill="none" xmlns="http://www.w3.org/2000/svg">
<rect width="279" height="52" rx="15" fill="#FFD600"/>
<path d="M49.6061 26.724C50.7794 27.2253 51.3661 28.0733 51.3661 29.268C51.3661 30.324 50.9554 31.156 50.1341 31.764C49.3234 32.3613 48.2247 32.66 46.8381 32.66C45.5261 32.66 44.4221 32.34 43.5261 31.7C42.6301 31.0493 42.0861 30.148 41.8941 28.996H43.5261C43.7927 29.7533 44.1981 30.308 44.7421 30.66C45.2967 31.012 45.9954 31.188 46.8381 31.188C47.7554 31.188 48.4647 31.012 48.9661 30.66C49.4674 30.308 49.7181 29.8387 49.7181 29.252C49.7181 28.772 49.5207 28.3827 49.1261 28.084C48.7421 27.7747 48.0914 27.62 47.1741 27.62H45.3821V26.164H47.1741C47.8994 26.164 48.4541 25.9933 48.8381 25.652C49.2327 25.3107 49.4301 24.9 49.4301 24.42C49.4301 23.844 49.1901 23.396 48.7101 23.076C48.2301 22.756 47.5581 22.596 46.6941 22.596C45.9367 22.596 45.2807 22.772 44.7261 23.124C44.1714 23.4653 43.8301 23.9773 43.7021 24.66H42.0541C42.1821 23.9133 42.4701 23.2733 42.9181 22.74C43.3661 22.2067 43.9154 21.8067 44.5661 21.54C45.2274 21.2733 45.9314 21.14 46.6781 21.14C47.5634 21.14 48.3367 21.2733 48.9981 21.54C49.6701 21.796 50.1874 22.1587 50.5501 22.628C50.9234 23.0973 51.1101 23.6413 51.1101 24.26C51.1101 24.7827 50.9821 25.2573 50.7261 25.684C50.4807 26.1 50.1074 26.4467 49.6061 26.724ZM60.5678 24.5V32.5H59.0478V31.3C58.7171 31.7267 58.3171 32.0627 57.8478 32.308C57.3785 32.5427 56.8771 32.66 56.3438 32.66C55.6398 32.66 54.9998 32.484 54.4238 32.132C53.8478 31.7693 53.3945 31.2733 53.0638 30.644C52.7331 30.0147 52.5678 29.3 52.5678 28.5C52.5678 27.7 52.7331 26.9853 53.0638 26.356C53.3945 25.7267 53.8478 25.236 54.4238 24.884C54.9998 24.5213 55.6398 24.34 56.3438 24.34C56.8985 24.34 57.4158 24.468 57.8958 24.724C58.3758 24.98 58.7865 25.3373 59.1278 25.796V24.5H60.5678ZM56.5998 31.252C57.0691 31.252 57.4958 31.1347 57.8798 30.9C58.2638 30.6653 58.5625 30.34 58.7758 29.924C58.9891 29.4973 59.0958 29.0227 59.0958 28.5C59.0958 27.9773 58.9891 27.508 58.7758 27.092C58.5625 26.6653 58.2638 26.3347 57.8798 26.1C57.4958 25.8653 57.0691 25.748 56.5998 25.748C56.1305 25.748 55.7091 25.8653 55.3358 26.1C54.9625 26.3347 54.6691 26.6653 54.4558 27.092C54.2425 27.508 54.1358 27.9773 54.1358 28.5C54.1358 29.0227 54.2425 29.4973 54.4558 29.924C54.6691 30.34 54.9625 30.6653 55.3358 30.9C55.7091 31.1347 56.1305 31.252 56.5998 31.252ZM65.7556 28.788L64.6196 29.844V32.5H63.1316V24.5H64.6196V28.084L68.3796 24.5H70.3956L66.8916 27.732L70.7316 32.5H68.6996L65.7556 28.788ZM78.8803 24.5V32.5H77.3603V31.3C77.0296 31.7267 76.6296 32.0627 76.1603 32.308C75.691 32.5427 75.1896 32.66 74.6563 32.66C73.9523 32.66 73.3123 32.484 72.7363 32.132C72.1603 31.7693 71.707 31.2733 71.3763 30.644C71.0456 30.0147 70.8803 29.3 70.8803 28.5C70.8803 27.7 71.0456 26.9853 71.3763 26.356C71.707 25.7267 72.1603 25.236 72.7363 24.884C73.3123 24.5213 73.9523 24.34 74.6563 24.34C75.211 24.34 75.7283 24.468 76.2083 24.724C76.6883 24.98 77.099 25.3373 77.4403 25.796V24.5H78.8803ZM74.9123 31.252C75.3816 31.252 75.8083 31.1347 76.1923 30.9C76.5763 30.6653 76.875 30.34 77.0883 29.924C77.3016 29.4973 77.4083 29.0227 77.4083 28.5C77.4083 27.9773 77.3016 27.508 77.0883 27.092C76.875 26.6653 76.5763 26.3347 76.1923 26.1C75.8083 25.8653 75.3816 25.748 74.9123 25.748C74.443 25.748 74.0216 25.8653 73.6483 26.1C73.275 26.3347 72.9816 26.6653 72.7683 27.092C72.555 27.508 72.4483 27.9773 72.4483 28.5C72.4483 29.0227 72.555 29.4973 72.7683 29.924C72.9816 30.34 73.275 30.6653 73.6483 30.9C74.0216 31.1347 74.443 31.252 74.9123 31.252ZM82.0841 29.972C82.2227 30.4413 82.4787 30.788 82.8521 31.012C83.2361 31.236 83.7374 31.348 84.3561 31.348C84.9321 31.348 85.3961 31.2467 85.7481 31.044C86.1001 30.8307 86.2761 30.5587 86.2761 30.228C86.2761 29.94 86.1481 29.6947 85.8921 29.492C85.6361 29.2787 85.1987 29.172 84.5801 29.172H83.1881V27.86H84.5161C85.0707 27.86 85.4654 27.7587 85.7001 27.556C85.9454 27.3533 86.0681 27.108 86.0681 26.82C86.0681 26.4573 85.9027 26.1693 85.5721 25.956C85.2521 25.7427 84.8094 25.636 84.2441 25.636C83.7001 25.636 83.2467 25.7373 82.8841 25.94C82.5321 26.1427 82.3027 26.4627 82.1961 26.9H80.6921C80.8307 26.1 81.2307 25.476 81.8921 25.028C82.5534 24.5693 83.3374 24.34 84.2441 24.34C85.2467 24.34 86.0574 24.5587 86.6761 24.996C87.2947 25.4227 87.6041 25.988 87.6041 26.692C87.6041 27.044 87.5081 27.3747 87.3161 27.684C87.1241 27.9827 86.8361 28.2227 86.4521 28.404C87.3374 28.756 87.7801 29.3587 87.7801 30.212C87.7801 30.948 87.4601 31.54 86.8201 31.988C86.1907 32.436 85.3321 32.66 84.2441 32.66C83.2627 32.66 82.4307 32.42 81.7481 31.94C81.0654 31.46 80.6707 30.804 80.5641 29.972H82.0841ZM96.8647 24.5V32.5H95.3447V31.3C95.014 31.7267 94.614 32.0627 94.1447 32.308C93.6754 32.5427 93.174 32.66 92.6407 32.66C91.9367 32.66 91.2967 32.484 90.7207 32.132C90.1447 31.7693 89.6914 31.2733 89.3607 30.644C89.03 30.0147 88.8647 29.3 88.8647 28.5C88.8647 27.7 89.03 26.9853 89.3607 26.356C89.6914 25.7267 90.1447 25.236 90.7207 24.884C91.2967 24.5213 91.9367 24.34 92.6407 24.34C93.1954 24.34 93.7127 24.468 94.1927 24.724C94.6727 24.98 95.0834 25.3373 95.4247 25.796V24.5H96.8647ZM92.8967 31.252C93.366 31.252 93.7927 31.1347 94.1767 30.9C94.5607 30.6653 94.8594 30.34 95.0727 29.924C95.286 29.4973 95.3927 29.0227 95.3927 28.5C95.3927 27.9773 95.286 27.508 95.0727 27.092C94.8594 26.6653 94.5607 26.3347 94.1767 26.1C93.7927 25.8653 93.366 25.748 92.8967 25.748C92.4274 25.748 92.006 25.8653 91.6327 26.1C91.2594 26.3347 90.966 26.6653 90.7527 27.092C90.5394 27.508 90.4327 27.9773 90.4327 28.5C90.4327 29.0227 90.5394 29.4973 90.7527 29.924C90.966 30.34 91.2594 30.6653 91.6327 30.9C92.006 31.1347 92.4274 31.252 92.8967 31.252ZM105.508 25.94H102.708V32.5H101.188V25.94H98.3884V24.5H105.508V25.94ZM110.974 27.668C111.817 27.668 112.473 27.8973 112.942 28.356C113.422 28.804 113.662 29.38 113.662 30.084C113.662 30.788 113.422 31.3693 112.942 31.828C112.473 32.276 111.817 32.5 110.974 32.5H107.022V24.5H108.542V27.668H110.974ZM110.766 31.172C111.204 31.172 111.534 31.0813 111.758 30.9C111.982 30.7187 112.094 30.4467 112.094 30.084C112.094 29.7213 111.982 29.4493 111.758 29.268C111.534 29.0867 111.204 28.996 110.766 28.996H108.542V31.172H110.766ZM123.721 24.74C124.446 24.74 125.113 24.916 125.721 25.268C126.329 25.6093 126.803 26.0787 127.145 26.676C127.497 27.2733 127.673 27.9347 127.673 28.66C127.673 29.396 127.491 30.0733 127.129 30.692C126.777 31.3 126.286 31.78 125.657 32.132C125.038 32.484 124.355 32.66 123.609 32.66C122.851 32.66 122.158 32.484 121.529 32.132C120.91 31.7693 120.419 31.268 120.057 30.628C119.694 29.988 119.513 29.2627 119.513 28.452V25.38C119.513 24.3773 119.763 23.6253 120.265 23.124C120.777 22.612 121.497 22.2973 122.425 22.18L125.289 21.812C125.555 21.78 125.689 21.6467 125.689 21.412V21.22H127.225V21.604C127.225 22.0413 127.086 22.3933 126.809 22.66C126.542 22.916 126.227 23.0653 125.865 23.108L122.569 23.54C121.971 23.6147 121.529 23.78 121.241 24.036C120.963 24.2813 120.825 24.6707 120.825 25.204V26.324C121.155 25.8227 121.571 25.4333 122.073 25.156C122.585 24.8787 123.134 24.74 123.721 24.74ZM123.561 31.252C124.03 31.252 124.457 31.14 124.841 30.916C125.235 30.6813 125.545 30.3667 125.769 29.972C125.993 29.5773 126.105 29.14 126.105 28.66C126.105 28.18 125.993 27.7427 125.769 27.348C125.545 26.9533 125.235 26.644 124.841 26.42C124.457 26.1853 124.03 26.068 123.561 26.068C123.081 26.068 122.643 26.1853 122.249 26.42C121.854 26.644 121.545 26.9533 121.321 27.348C121.097 27.7427 120.985 28.18 120.985 28.66C120.985 29.14 121.097 29.5773 121.321 29.972C121.545 30.3667 121.854 30.6813 122.249 30.916C122.643 31.14 123.081 31.252 123.561 31.252ZM129.507 24.5H131.027V30.452L135.187 24.5H136.867V32.5H135.347V26.548L131.187 32.5H129.507V24.5ZM140.068 29.972C140.207 30.4413 140.463 30.788 140.836 31.012C141.22 31.236 141.722 31.348 142.34 31.348C142.916 31.348 143.38 31.2467 143.732 31.044C144.084 30.8307 144.26 30.5587 144.26 30.228C144.26 29.94 144.132 29.6947 143.876 29.492C143.62 29.2787 143.183 29.172 142.564 29.172H141.172V27.86H142.5C143.055 27.86 143.45 27.7587 143.684 27.556C143.93 27.3533 144.052 27.108 144.052 26.82C144.052 26.4573 143.887 26.1693 143.556 25.956C143.236 25.7427 142.794 25.636 142.228 25.636C141.684 25.636 141.231 25.7373 140.868 25.94C140.516 26.1427 140.287 26.4627 140.18 26.9H138.676C138.815 26.1 139.215 25.476 139.876 25.028C140.538 24.5693 141.322 24.34 142.228 24.34C143.231 24.34 144.042 24.5587 144.66 24.996C145.279 25.4227 145.588 25.988 145.588 26.692C145.588 27.044 145.492 27.3747 145.3 27.684C145.108 27.9827 144.82 28.2227 144.436 28.404C145.322 28.756 145.764 29.3587 145.764 30.212C145.764 30.948 145.444 31.54 144.804 31.988C144.175 32.436 143.316 32.66 142.228 32.66C141.247 32.66 140.415 32.42 139.732 31.94C139.05 31.46 138.655 30.804 138.548 29.972H140.068ZM154.769 24.5V32.5H153.249V29.22H149.089V32.5H147.569V24.5H149.089V27.78H153.249V24.5H154.769ZM160.711 24.34C161.532 24.34 162.247 24.516 162.855 24.868C163.473 25.22 163.948 25.7213 164.279 26.372C164.609 27.012 164.775 27.764 164.775 28.628C164.775 28.852 164.769 29.0173 164.759 29.124H158.199C158.305 29.7427 158.593 30.2547 159.063 30.66C159.543 31.0547 160.097 31.252 160.727 31.252C161.761 31.252 162.497 30.8733 162.935 30.116H164.503C164.247 30.8627 163.772 31.476 163.079 31.956C162.385 32.4253 161.601 32.66 160.727 32.66C159.948 32.66 159.244 32.484 158.615 32.132C157.985 31.7693 157.495 31.2733 157.143 30.644C156.791 30.004 156.615 29.2893 156.615 28.5C156.615 27.7107 156.791 27.0013 157.143 26.372C157.495 25.732 157.98 25.236 158.599 24.884C159.228 24.5213 159.932 24.34 160.711 24.34ZM160.679 25.684C160.049 25.684 159.505 25.8813 159.047 26.276C158.599 26.6707 158.321 27.1773 158.215 27.796H163.127C163.063 27.156 162.801 26.644 162.343 26.26C161.895 25.876 161.34 25.684 160.679 25.684ZM165.974 28.5C165.974 27.732 166.161 27.0333 166.534 26.404C166.907 25.764 167.419 25.2627 168.07 24.9C168.721 24.5267 169.441 24.34 170.23 24.34C171.115 24.34 171.91 24.6013 172.614 25.124C173.329 25.636 173.798 26.308 174.022 27.14H172.358C172.177 26.7133 171.883 26.3773 171.478 26.132C171.083 25.876 170.641 25.748 170.15 25.748C169.649 25.748 169.201 25.8707 168.806 26.116C168.411 26.3507 168.102 26.6813 167.878 27.108C167.654 27.524 167.542 27.988 167.542 28.5C167.542 29.012 167.654 29.4813 167.878 29.908C168.102 30.324 168.411 30.6547 168.806 30.9C169.201 31.1347 169.649 31.252 170.15 31.252C170.641 31.252 171.083 31.1293 171.478 30.884C171.883 30.628 172.177 30.2867 172.358 29.86H174.022C173.798 30.692 173.329 31.3693 172.614 31.892C171.91 32.404 171.115 32.66 170.23 32.66C169.441 32.66 168.721 32.4787 168.07 32.116C167.419 31.7427 166.907 31.2413 166.534 30.612C166.161 29.972 165.974 29.268 165.974 28.5ZM190.114 32.5H188.594V26.34L185.154 32.5L181.714 26.372V32.5H180.194V24.5H182.274L185.186 29.732L188.066 24.5H190.114V32.5ZM196.054 24.34C196.876 24.34 197.59 24.516 198.198 24.868C198.817 25.22 199.292 25.7213 199.622 26.372C199.953 27.012 200.118 27.764 200.118 28.628C200.118 28.852 200.113 29.0173 200.102 29.124H193.542C193.649 29.7427 193.937 30.2547 194.406 30.66C194.886 31.0547 195.441 31.252 196.07 31.252C197.105 31.252 197.841 30.8733 198.278 30.116H199.846C199.59 30.8627 199.116 31.476 198.422 31.956C197.729 32.4253 196.945 32.66 196.07 32.66C195.292 32.66 194.588 32.484 193.958 32.132C193.329 31.7693 192.838 31.2733 192.486 30.644C192.134 30.004 191.958 29.2893 191.958 28.5C191.958 27.7107 192.134 27.0013 192.486 26.372C192.838 25.732 193.324 25.236 193.942 24.884C194.572 24.5213 195.276 24.34 196.054 24.34ZM196.022 25.684C195.393 25.684 194.849 25.8813 194.39 26.276C193.942 26.6707 193.665 27.1773 193.558 27.796H198.47C198.406 27.156 198.145 26.644 197.686 26.26C197.238 25.876 196.684 25.684 196.022 25.684ZM205.768 24.74C206.493 24.74 207.16 24.916 207.768 25.268C208.376 25.6093 208.85 26.0787 209.192 26.676C209.544 27.2733 209.72 27.9347 209.72 28.66C209.72 29.396 209.538 30.0733 209.176 30.692C208.824 31.3 208.333 31.78 207.704 32.132C207.085 32.484 206.402 32.66 205.656 32.66C204.898 32.66 204.205 32.484 203.576 32.132C202.957 31.7693 202.466 31.268 202.104 30.628C201.741 29.988 201.56 29.2627 201.56 28.452V25.38C201.56 24.3773 201.81 23.6253 202.312 23.124C202.824 22.612 203.544 22.2973 204.472 22.18L207.336 21.812C207.602 21.78 207.736 21.6467 207.736 21.412V21.22H209.272V21.604C209.272 22.0413 209.133 22.3933 208.856 22.66C208.589 22.916 208.274 23.0653 207.912 23.108L204.616 23.54C204.018 23.6147 203.576 23.78 203.288 24.036C203.01 24.2813 202.872 24.6707 202.872 25.204V26.324C203.202 25.8227 203.618 25.4333 204.12 25.156C204.632 24.8787 205.181 24.74 205.768 24.74ZM205.608 31.252C206.077 31.252 206.504 31.14 206.888 30.916C207.282 30.6813 207.592 30.3667 207.816 29.972C208.04 29.5773 208.152 29.14 208.152 28.66C208.152 28.18 208.04 27.7427 207.816 27.348C207.592 26.9533 207.282 26.644 206.888 26.42C206.504 26.1853 206.077 26.068 205.608 26.068C205.128 26.068 204.69 26.1853 204.296 26.42C203.901 26.644 203.592 26.9533 203.368 27.348C203.144 27.7427 203.032 28.18 203.032 28.66C203.032 29.14 203.144 29.5773 203.368 29.972C203.592 30.3667 203.901 30.6813 204.296 30.916C204.69 31.14 205.128 31.252 205.608 31.252ZM215.008 24.34C215.829 24.34 216.544 24.516 217.152 24.868C217.77 25.22 218.245 25.7213 218.576 26.372C218.906 27.012 219.072 27.764 219.072 28.628C219.072 28.852 219.066 29.0173 219.056 29.124H212.496C212.602 29.7427 212.89 30.2547 213.36 30.66C213.84 31.0547 214.394 31.252 215.024 31.252C216.058 31.252 216.794 30.8733 217.232 30.116H218.8C218.544 30.8627 218.069 31.476 217.376 31.956C216.682 32.4253 215.898 32.66 215.024 32.66C214.245 32.66 213.541 32.484 212.912 32.132C212.282 31.7693 211.792 31.2733 211.44 30.644C211.088 30.004 210.912 29.2893 210.912 28.5C210.912 27.7107 211.088 27.0013 211.44 26.372C211.792 25.732 212.277 25.236 212.896 24.884C213.525 24.5213 214.229 24.34 215.008 24.34ZM214.976 25.684C214.346 25.684 213.802 25.8813 213.344 26.276C212.896 26.6707 212.618 27.1773 212.512 27.796H217.424C217.36 27.156 217.098 26.644 216.64 26.26C216.192 25.876 215.637 25.684 214.976 25.684ZM227.893 32.516H226.373V25.94H222.949V27.396C222.949 28.5373 222.885 29.4707 222.757 30.196C222.639 30.9213 222.389 31.5027 222.005 31.94C221.621 32.3667 221.05 32.58 220.293 32.58C220.09 32.58 219.871 32.5533 219.637 32.5V31.092C219.829 31.124 219.999 31.14 220.149 31.14C220.49 31.14 220.746 31.0333 220.917 30.82C221.098 30.6067 221.226 30.228 221.301 29.684C221.375 29.1293 221.413 28.3187 221.413 27.252V24.5H227.893V32.516ZM234.412 27.668C235.254 27.668 235.91 27.8973 236.38 28.356C236.86 28.804 237.1 29.38 237.1 30.084C237.1 30.788 236.86 31.3693 236.38 31.828C235.91 32.276 235.254 32.5 234.412 32.5H230.46V24.5H231.98V27.668H234.412ZM234.204 31.172C234.641 31.172 234.972 31.0813 235.196 30.9C235.42 30.7187 235.532 30.4467 235.532 30.084C235.532 29.7213 235.42 29.4493 235.196 29.268C234.972 29.0867 234.641 28.996 234.204 28.996H231.98V31.172H234.204Z" fill="black"/>
</svg>
