<svg width="233" height="39" viewBox="0 0 233 39" fill="none" xmlns="http://www.w3.org/2000/svg">
<path d="M174.84 1.24023L172.932 9.43708H159.786L153.239 37.6363H140.248L146.795 9.43708H133.288L135.144 1.24023H174.84Z" fill="#FFD600"/>
<path d="M131.281 1.24023L129.373 9.38553H107.36L105.711 16.4482H126.486L124.579 24.5935H103.803L100.762 37.6363H87.9766L96.4312 1.24023H131.281Z" fill="#FFD600"/>
<path d="M84.106 16.1875C84.106 22.1676 81.4253 28.3539 77.0433 32.3234C74.2595 34.9011 68.434 38.6644 58.2266 38.6644C56.113 38.6644 48.9472 38.5613 43.7404 34.7464C39.6162 31.7564 37.3994 26.962 37.3994 21.8583C37.3994 18.2496 38.482 14.6409 40.3379 11.4962C46.5758 0.773287 58.5359 0 63.1757 0C76.734 0 84.106 6.49562 84.106 16.1875ZM71.321 16.8061C71.321 11.1353 68.1247 8.09375 62.9695 8.09375C55.649 8.09375 50.3391 14.1254 50.3391 21.549C50.3391 26.9104 53.69 30.7253 59.1546 30.7253C66.2688 30.7253 71.321 24.6937 71.321 16.8061Z" fill="#FFD600"/>
<path d="M33.7153 29.2848L31.8079 37.6363H0L8.40306 1.24023H21.4458L14.9502 29.2848H33.7153Z" fill="#FFD600"/>
<path d="M232.998 14.0977L232.318 16.9539H222.491L217.629 38.1036H214.228L219.091 16.9539H209.332L209.978 14.0977H232.998Z" fill="#FFD600"/>
<path d="M181.786 14.0977H197.087C199.127 14.0977 201.031 14.1997 202.629 15.1857C204.193 16.1038 205.043 17.804 205.043 19.8781C205.043 21.6123 204.465 23.3464 203.547 24.5705C201.813 26.8827 198.855 27.4947 195.863 27.6647L202.357 38.1036H198.379L192.258 27.8348H182.092L179.677 38.1036H176.243L181.786 14.0977ZM184.608 17.0219L182.704 24.8765H193.823C197.223 24.8765 198.617 24.6725 199.773 23.9924C200.929 23.3464 201.643 21.9183 201.643 20.3202C201.643 19.2321 201.269 18.348 200.589 17.804C199.875 17.2599 198.617 17.0219 196.305 17.0219H184.608Z" fill="#FFD600"/>
</svg>
