<svg width="34" height="34" viewBox="0 0 34 34" fill="none" xmlns="http://www.w3.org/2000/svg">
<path d="M16.6287 8.09834C11.911 8.09834 8.10573 11.9037 8.10573 16.6213C8.10573 21.339 11.911 25.1444 16.6287 25.1444C21.3464 25.1444 25.1517 21.339 25.1517 16.6213C25.1517 11.9037 21.3464 8.09834 16.6287 8.09834ZM16.6287 22.1624C13.58 22.1624 11.0877 19.6775 11.0877 16.6213C11.0877 13.5652 13.5726 11.0803 16.6287 11.0803C19.6848 11.0803 22.1698 13.5652 22.1698 16.6213C22.1698 19.6775 19.6774 22.1624 16.6287 22.1624ZM27.4883 7.7497C27.4883 8.85495 26.5981 9.73767 25.5003 9.73767C24.3951 9.73767 23.5124 8.84753 23.5124 7.7497C23.5124 6.65188 24.4025 5.76174 25.5003 5.76174C26.5981 5.76174 27.4883 6.65188 27.4883 7.7497ZM33.1332 9.76734C33.0071 7.10436 32.3988 4.74551 30.448 2.80206C28.5045 0.858606 26.1457 0.250349 23.4827 0.11683C20.7381 -0.0389432 12.5119 -0.0389432 9.7673 0.11683C7.11175 0.242932 4.75291 0.851188 2.80205 2.79464C0.851185 4.73809 0.250349 7.09694 0.116829 9.75992C-0.0389431 12.5045 -0.0389431 20.7308 0.116829 23.4754C0.242931 26.1383 0.851185 28.4972 2.80205 30.4406C4.75291 32.3841 7.10434 32.9923 9.7673 33.1259C12.5119 33.2816 20.7381 33.2816 23.4827 33.1259C26.1457 32.9998 28.5045 32.3915 30.448 30.4406C32.3914 28.4972 32.9997 26.1383 33.1332 23.4754C33.2889 20.7308 33.2889 12.5119 33.1332 9.76734ZM29.5875 26.4202C29.0089 27.8741 27.8888 28.9942 26.4275 29.5802C24.2393 30.448 19.0469 30.2478 16.6287 30.2478C14.2105 30.2478 9.01069 30.4406 6.82988 29.5802C5.376 29.0016 4.25593 27.8815 3.66992 26.4202C2.80205 24.232 3.00233 19.0395 3.00233 16.6213C3.00233 14.2032 2.80947 9.00331 3.66992 6.82248C4.24851 5.3686 5.36859 4.24852 6.82988 3.66252C9.01811 2.79464 14.2105 2.99492 16.6287 2.99492C19.0469 2.99492 24.2467 2.80206 26.4275 3.66252C27.8814 4.2411 29.0015 5.36119 29.5875 6.82248C30.4554 9.01072 30.2551 14.2032 30.2551 16.6213C30.2551 19.0395 30.4554 24.2394 29.5875 26.4202Z" fill="white"/>
</svg>
