<svg width="69" height="14" viewBox="0 0 69 14" fill="none" xmlns="http://www.w3.org/2000/svg">
<path d="M1.85 0.499999V11H0.35V0.499999H1.85ZM8.0041 3.35C8.6141 3.35 9.1591 3.48 9.6391 3.74C10.1291 4 10.5141 4.395 10.7941 4.925C11.0841 5.445 11.2291 6.085 11.2291 6.845V11H9.8041V6.875C9.8041 6.215 9.6091 5.69 9.2191 5.3C8.8291 4.91 8.3391 4.715 7.7491 4.715C7.3191 4.715 6.9391 4.82 6.6091 5.03C6.2891 5.23 6.0391 5.505 5.8591 5.855C5.6891 6.205 5.6041 6.585 5.6041 6.995V11H4.1791V3.5H5.5291V4.7C5.8091 4.29 6.1641 3.965 6.5941 3.725C7.0341 3.475 7.5041 3.35 8.0041 3.35ZM15.8959 11.15C14.9559 11.15 14.1609 10.93 13.5109 10.49C12.8709 10.04 12.5009 9.42 12.4009 8.63H13.8259C13.9559 9.06 14.1959 9.38 14.5459 9.59C14.9059 9.79 15.3759 9.89 15.9559 9.89C16.4959 9.89 16.9309 9.805 17.2609 9.635C17.5909 9.455 17.7559 9.225 17.7559 8.945C17.7559 8.665 17.6409 8.445 17.4109 8.285C17.1909 8.115 16.7759 7.98 16.1659 7.88L15.3109 7.73C13.5109 7.41 12.6109 6.685 12.6109 5.555C12.6109 4.895 12.9009 4.365 13.4809 3.965C14.0609 3.555 14.8209 3.35 15.7609 3.35C16.6109 3.35 17.3359 3.55 17.9359 3.95C18.5359 4.34 18.9159 4.885 19.0759 5.585H17.5609C17.4409 5.285 17.2109 5.055 16.8709 4.895C16.5309 4.725 16.1559 4.64 15.7459 4.64C15.2259 4.64 14.8109 4.72 14.5009 4.88C14.2009 5.03 14.0509 5.24 14.0509 5.51C14.0509 5.75 14.1659 5.95 14.3959 6.11C14.6259 6.26 14.9959 6.375 15.5059 6.455L16.3759 6.605C17.3959 6.775 18.1159 7.055 18.5359 7.445C18.9559 7.825 19.1659 8.325 19.1659 8.945C19.1659 9.605 18.8709 10.14 18.2809 10.55C17.7009 10.95 16.9059 11.15 15.8959 11.15ZM22.4645 4.85V8.81C22.4645 9.13 22.5395 9.375 22.6895 9.545C22.8495 9.715 23.1195 9.8 23.4995 9.8C23.8595 9.8 24.1645 9.77 24.4145 9.71V11.015C24.1445 11.105 23.8145 11.15 23.4245 11.15C21.8345 11.15 21.0395 10.37 21.0395 8.81V4.85H19.5395V3.5H21.0395V1.55H22.4645V3.5H24.5645V4.85H22.4645ZM32.593 9.65V11H31.873C31.503 11 31.213 10.91 31.003 10.73C30.793 10.54 30.668 10.27 30.628 9.92C30.308 10.29 29.893 10.59 29.383 10.82C28.883 11.04 28.353 11.15 27.793 11.15C26.983 11.15 26.353 10.95 25.903 10.55C25.463 10.15 25.243 9.615 25.243 8.945C25.243 8.335 25.483 7.815 25.963 7.385C26.443 6.945 27.118 6.68 27.988 6.59L28.828 6.5C29.298 6.45 29.648 6.39 29.878 6.32C30.108 6.24 30.253 6.155 30.313 6.065C30.383 5.975 30.418 5.855 30.418 5.705C30.418 5.365 30.253 5.1 29.923 4.91C29.603 4.71 29.158 4.61 28.588 4.61C28.218 4.61 27.863 4.71 27.523 4.91C27.183 5.1 26.948 5.375 26.818 5.735H25.303C25.443 5.035 25.823 4.465 26.443 4.025C27.063 3.575 27.803 3.35 28.663 3.35C29.613 3.35 30.393 3.61 31.003 4.13C31.613 4.65 31.918 5.395 31.918 6.365V9.245C31.918 9.375 31.953 9.475 32.023 9.545C32.093 9.615 32.188 9.65 32.308 9.65H32.593ZM27.943 9.92C28.413 9.92 28.853 9.825 29.263 9.635C29.673 9.435 29.998 9.175 30.238 8.855C30.488 8.525 30.613 8.175 30.613 7.805V7.13C30.273 7.39 29.733 7.56 28.993 7.64L28.153 7.73C27.593 7.79 27.203 7.925 26.983 8.135C26.763 8.345 26.653 8.61 26.653 8.93C26.653 9.23 26.763 9.47 26.983 9.65C27.213 9.83 27.533 9.92 27.943 9.92ZM38.8698 9.47C39.5398 9.47 40.0948 9.66 40.5348 10.04C40.9848 10.41 41.2098 10.88 41.2098 11.45C41.2098 12.06 40.9898 12.56 40.5498 12.95C40.1098 13.35 39.5498 13.55 38.8698 13.55H36.0498C35.3698 13.55 34.8098 13.355 34.3698 12.965C33.9298 12.575 33.7098 12.08 33.7098 11.48C33.7098 11.17 33.7898 10.88 33.9498 10.61C34.1098 10.33 34.3498 10.095 34.6698 9.905C34.3298 9.655 34.1598 9.33 34.1598 8.93C34.1598 8.67 34.2048 8.465 34.2948 8.315C34.3948 8.155 34.5348 8.02 34.7148 7.91C34.3848 7.7 34.1348 7.435 33.9648 7.115C33.7948 6.795 33.7098 6.43 33.7098 6.02C33.7098 5.49 33.8648 5.025 34.1748 4.625C34.4848 4.215 34.9248 3.9 35.4948 3.68C36.0648 3.46 36.7248 3.35 37.4748 3.35C37.7948 3.35 38.1298 3.375 38.4798 3.425V2.99C38.4798 2.03 38.9298 1.55 39.8298 1.55H40.4748V2.915H39.9948C39.8848 2.915 39.7948 2.95 39.7248 3.02C39.6648 3.08 39.6348 3.165 39.6348 3.275V3.755C40.1348 3.985 40.5198 4.295 40.7898 4.685C41.0698 5.075 41.2098 5.52 41.2098 6.02C41.2098 6.55 41.0548 7.02 40.7448 7.43C40.4448 7.83 40.0098 8.14 39.4398 8.36C38.8798 8.58 38.2248 8.69 37.4748 8.69C36.8348 8.69 36.2448 8.605 35.7048 8.435C35.4748 8.545 35.3598 8.71 35.3598 8.93C35.3598 9.08 35.4198 9.21 35.5398 9.32C35.6598 9.42 35.8148 9.47 36.0048 9.47H38.8698ZM37.4748 4.52C36.7148 4.52 36.1348 4.645 35.7348 4.895C35.3348 5.145 35.1348 5.51 35.1348 5.99C35.1348 6.47 35.3348 6.84 35.7348 7.1C36.1348 7.35 36.7148 7.475 37.4748 7.475C38.2248 7.475 38.7948 7.35 39.1848 7.1C39.5848 6.84 39.7848 6.47 39.7848 5.99C39.7848 5.51 39.5848 5.145 39.1848 4.895C38.7948 4.645 38.2248 4.52 37.4748 4.52ZM38.7948 12.41C39.1148 12.41 39.3748 12.325 39.5748 12.155C39.7848 11.995 39.8898 11.795 39.8898 11.555C39.8898 11.295 39.7898 11.08 39.5898 10.91C39.3898 10.73 39.1248 10.64 38.7948 10.64H36.1098C35.7898 10.64 35.5298 10.725 35.3298 10.895C35.1398 11.065 35.0448 11.275 35.0448 11.525C35.0448 11.775 35.1398 11.985 35.3298 12.155C35.5298 12.325 35.7898 12.41 36.1098 12.41H38.7948ZM46.5324 3.35C46.7724 3.35 46.9974 3.365 47.2074 3.395V4.79C47.0274 4.75 46.7424 4.73 46.3524 4.73C45.9124 4.73 45.5224 4.83 45.1824 5.03C44.8524 5.23 44.5924 5.5 44.4024 5.84C44.2224 6.17 44.1324 6.535 44.1324 6.935V11H42.7074V3.5H44.0574V4.655C44.3374 4.255 44.6924 3.94 45.1224 3.71C45.5624 3.47 46.0324 3.35 46.5324 3.35ZM54.7842 9.65V11H54.0642C53.6942 11 53.4042 10.91 53.1942 10.73C52.9842 10.54 52.8592 10.27 52.8192 9.92C52.4992 10.29 52.0842 10.59 51.5742 10.82C51.0742 11.04 50.5442 11.15 49.9842 11.15C49.1742 11.15 48.5442 10.95 48.0942 10.55C47.6542 10.15 47.4342 9.615 47.4342 8.945C47.4342 8.335 47.6742 7.815 48.1542 7.385C48.6342 6.945 49.3092 6.68 50.1792 6.59L51.0192 6.5C51.4892 6.45 51.8392 6.39 52.0692 6.32C52.2992 6.24 52.4442 6.155 52.5042 6.065C52.5742 5.975 52.6092 5.855 52.6092 5.705C52.6092 5.365 52.4442 5.1 52.1142 4.91C51.7942 4.71 51.3492 4.61 50.7792 4.61C50.4092 4.61 50.0542 4.71 49.7142 4.91C49.3742 5.1 49.1392 5.375 49.0092 5.735H47.4942C47.6342 5.035 48.0142 4.465 48.6342 4.025C49.2542 3.575 49.9942 3.35 50.8542 3.35C51.8042 3.35 52.5842 3.61 53.1942 4.13C53.8042 4.65 54.1092 5.395 54.1092 6.365V9.245C54.1092 9.375 54.1442 9.475 54.2142 9.545C54.2842 9.615 54.3792 9.65 54.4992 9.65H54.7842ZM50.1342 9.92C50.6042 9.92 51.0442 9.825 51.4542 9.635C51.8642 9.435 52.1892 9.175 52.4292 8.855C52.6792 8.525 52.8042 8.175 52.8042 7.805V7.13C52.4642 7.39 51.9242 7.56 51.1842 7.64L50.3442 7.73C49.7842 7.79 49.3942 7.925 49.1742 8.135C48.9542 8.345 48.8442 8.61 48.8442 8.93C48.8442 9.23 48.9542 9.47 49.1742 9.65C49.4042 9.83 49.7242 9.92 50.1342 9.92ZM65.501 3.35C66.101 3.35 66.636 3.48 67.106 3.74C67.586 4 67.961 4.395 68.231 4.925C68.511 5.445 68.651 6.085 68.651 6.845V11H67.226V6.875C67.226 6.215 67.036 5.69 66.656 5.3C66.286 4.91 65.816 4.715 65.246 4.715C64.626 4.715 64.126 4.935 63.746 5.375C63.366 5.815 63.176 6.355 63.176 6.995V11H61.751V6.875C61.751 6.215 61.561 5.69 61.181 5.3C60.811 4.91 60.341 4.715 59.771 4.715C59.151 4.715 58.651 4.935 58.271 5.375C57.891 5.815 57.701 6.355 57.701 6.995V11H56.276V3.5H57.626V4.685C57.896 4.275 58.241 3.95 58.661 3.71C59.091 3.47 59.546 3.35 60.026 3.35C60.616 3.35 61.146 3.48 61.616 3.74C62.096 3.99 62.466 4.365 62.726 4.865C63.016 4.405 63.406 4.04 63.896 3.77C64.396 3.49 64.931 3.35 65.501 3.35Z" fill="#FFD600"/>
</svg>
