<svg width="396" height="44" viewBox="0 0 396 44" fill="none" xmlns="http://www.w3.org/2000/svg">
<path d="M6.4 0.999997V37.24H28.6V43H0.4V0.999997H6.4ZM52.3234 43.6C48.2834 43.6 44.5834 42.66 41.2234 40.78C37.8634 38.86 35.2234 36.26 33.3034 32.98C31.3834 29.66 30.4234 26 30.4234 22C30.4234 18 31.3834 14.36 33.3034 11.08C35.2234 7.76 37.8634 5.16 41.2234 3.28C44.5834 1.36 48.2834 0.399998 52.3234 0.399998C56.3634 0.399998 60.0634 1.36 63.4234 3.28C66.7834 5.16 69.4234 7.76 71.3434 11.08C73.2634 14.36 74.2234 18 74.2234 22C74.2234 26 73.2634 29.66 71.3434 32.98C69.4234 36.26 66.7834 38.86 63.4234 40.78C60.0634 42.66 56.3634 43.6 52.3234 43.6ZM52.3234 37.84C55.2034 37.84 57.8234 37.14 60.1834 35.74C62.5834 34.34 64.4634 32.44 65.8234 30.04C67.2234 27.6 67.9234 24.92 67.9234 22C67.9234 19.08 67.2234 16.42 65.8234 14.02C64.4634 11.58 62.5834 9.66 60.1834 8.26C57.8234 6.86 55.2034 6.16 52.3234 6.16C49.4434 6.16 46.8034 6.86 44.4034 8.26C42.0434 9.66 40.1634 11.58 38.7634 14.02C37.4034 16.42 36.7234 19.08 36.7234 22C36.7234 24.92 37.4034 27.6 38.7634 30.04C40.1634 32.44 42.0434 34.34 44.4034 35.74C46.8034 37.14 49.4434 37.84 52.3234 37.84ZM111.742 0.999997V6.76H89.5422V19.18H109.942V24.82H89.5422V43H83.5422V0.999997H111.742ZM151.633 0.999997V6.76H136.633V43H130.633V6.76H115.633V0.999997H151.633ZM211.462 43H203.422L199.162 38.62C197.282 40.22 195.222 41.46 192.982 42.34C190.742 43.18 188.442 43.6 186.082 43.6C183.562 43.6 181.322 43.12 179.362 42.16C177.442 41.2 175.942 39.88 174.862 38.2C173.822 36.48 173.302 34.5 173.302 32.26C173.302 29.94 173.962 27.88 175.282 26.08C176.602 24.24 178.702 22.44 181.582 20.68C179.862 18.72 178.622 16.98 177.862 15.46C177.102 13.94 176.722 12.38 176.722 10.78C176.722 8.82 177.202 7.06 178.162 5.5C179.162 3.9 180.522 2.66 182.242 1.78C183.962 0.859998 185.902 0.399998 188.062 0.399998C191.102 0.399998 193.582 1.34 195.502 3.22C197.462 5.06 198.442 7.5 198.442 10.54C198.442 12.38 197.862 14.12 196.702 15.76C195.582 17.4 193.442 19.32 190.282 21.52L199.102 30.46C201.182 27.18 202.222 23.4 202.222 19.12H207.862C207.862 21.96 207.442 24.68 206.602 27.28C205.762 29.88 204.562 32.26 203.002 34.42L211.462 43ZM187.762 5.68C186.202 5.68 184.902 6.16 183.862 7.12C182.862 8.04 182.362 9.24 182.362 10.72C182.362 11.96 182.702 13.16 183.382 14.32C184.102 15.44 185.162 16.62 186.562 17.86C189.042 16.34 190.722 15.04 191.602 13.96C192.482 12.84 192.922 11.6 192.922 10.24C192.922 8.92 192.422 7.84 191.422 7C190.462 6.12 189.242 5.68 187.762 5.68ZM186.502 37.84C189.782 37.84 192.722 36.8 195.322 34.72L185.302 24.46C182.822 25.9 181.202 27.18 180.442 28.3C179.682 29.38 179.302 30.46 179.302 31.54C179.302 33.62 179.922 35.2 181.162 36.28C182.442 37.32 184.222 37.84 186.502 37.84ZM242.085 0.999997V37.24H264.285V43H236.085V0.999997H242.085ZM287.095 43.6C283.655 43.6 280.535 42.84 277.735 41.32C274.975 39.76 272.795 37.62 271.195 34.9C269.595 32.18 268.795 29.16 268.795 25.84V0.999997H274.795V25.84C274.795 28.08 275.335 30.12 276.415 31.96C277.495 33.8 278.955 35.24 280.795 36.28C282.675 37.32 284.775 37.84 287.095 37.84C289.415 37.84 291.495 37.32 293.335 36.28C295.215 35.24 296.695 33.8 297.775 31.96C298.855 30.12 299.395 28.08 299.395 25.84V0.999997H305.395V25.84C305.395 29.16 304.595 32.18 302.995 34.9C301.395 37.62 299.195 39.76 296.395 41.32C293.635 42.84 290.535 43.6 287.095 43.6ZM334.975 21.34L351.595 43H344.275L331.135 25.84L318.055 43H310.795L327.415 21.64L311.515 0.999997H318.895L331.255 17.08L343.495 0.999997H350.815L334.975 21.34ZM374.884 0.399998C378.364 0.399998 381.704 1.22 384.904 2.86C388.104 4.46 390.724 6.96 392.764 10.36C394.804 13.72 395.824 17.88 395.824 22.84C395.824 23.72 395.804 24.38 395.764 24.82H359.944C360.344 27.34 361.244 29.6 362.644 31.6C364.044 33.6 365.804 35.16 367.924 36.28C370.084 37.4 372.424 37.96 374.944 37.96C377.944 37.96 380.564 37.24 382.804 35.8C385.084 34.36 386.884 32.38 388.204 29.86H394.504C393.544 32.62 392.064 35.04 390.064 37.12C388.104 39.16 385.804 40.76 383.164 41.92C380.564 43.04 377.824 43.6 374.944 43.6C371.024 43.6 367.424 42.66 364.144 40.78C360.904 38.86 358.344 36.26 356.464 32.98C354.624 29.66 353.704 26 353.704 22C353.704 18 354.604 14.36 356.404 11.08C358.244 7.76 360.784 5.16 364.024 3.28C367.264 1.36 370.884 0.399998 374.884 0.399998ZM374.704 6.04C370.664 6.04 367.324 7.26 364.684 9.7C362.044 12.14 360.444 15.3 359.884 19.18H389.524C389.324 16.66 388.484 14.4 387.004 12.4C385.564 10.4 383.744 8.84 381.544 7.72C379.344 6.6 377.064 6.04 374.704 6.04Z" fill="#FFD600"/>
</svg>
