<svg width="62" height="19" viewBox="0 0 62 19" fill="none" xmlns="http://www.w3.org/2000/svg">
<rect x="40.75" y="0.628906" width="20.5" height="2.5" rx="1.25" fill="#FFD600" stroke="#FFD600" stroke-width="0.5"/>
<rect x="40.75" y="7.62891" width="20.5" height="2.5" rx="1.25" fill="#FFD600" stroke="#FFD600" stroke-width="0.5"/>
<rect x="45.75" y="14.6289" width="15.5" height="2.5" rx="1.25" fill="#FFD600" stroke="#FFD600" stroke-width="0.5"/>
<path d="M17.2262 13.9182L16.4428 17.3144C16.3327 17.7946 15.9107 18.1305 15.4163 18.1305C6.91476 18.1298 0 11.216 0 2.71536C0 2.22142 0.335932 1.79892 0.816157 1.68942L4.21288 0.906059C4.70756 0.791436 5.21303 1.04817 5.41858 1.51657L6.9862 5.17224C7.16944 5.60283 7.04584 6.10451 6.68359 6.40034L4.86931 7.85687C6.01436 10.1891 7.91086 12.0853 10.2441 13.2309L11.7295 11.4182C12.0222 11.055 12.5278 10.9293 12.9584 11.1158L16.6146 12.6829C17.0544 12.9142 17.3408 13.4263 17.2262 13.9182Z" fill="#FFD600"/>
</svg>
