<svg width="378" height="52" viewBox="0 0 378 52" fill="none" xmlns="http://www.w3.org/2000/svg">
<rect width="378" height="52" rx="15" fill="#FFD600"/>
<path d="M92.9654 26.724C94.1388 27.2253 94.7254 28.0733 94.7254 29.268C94.7254 30.324 94.3148 31.156 93.4934 31.764C92.6828 32.3613 91.5841 32.66 90.1974 32.66C88.8854 32.66 87.7814 32.34 86.8854 31.7C85.9894 31.0493 85.4454 30.148 85.2534 28.996H86.8854C87.1521 29.7533 87.5574 30.308 88.1014 30.66C88.6561 31.012 89.3548 31.188 90.1974 31.188C91.1148 31.188 91.8241 31.012 92.3254 30.66C92.8268 30.308 93.0774 29.8387 93.0774 29.252C93.0774 28.772 92.8801 28.3827 92.4854 28.084C92.1014 27.7747 91.4508 27.62 90.5334 27.62H88.7414V26.164H90.5334C91.2588 26.164 91.8134 25.9933 92.1974 25.652C92.5921 25.3107 92.7894 24.9 92.7894 24.42C92.7894 23.844 92.5494 23.396 92.0694 23.076C91.5894 22.756 90.9174 22.596 90.0534 22.596C89.2961 22.596 88.6401 22.772 88.0854 23.124C87.5308 23.4653 87.1894 23.9773 87.0614 24.66H85.4134C85.5414 23.9133 85.8294 23.2733 86.2774 22.74C86.7254 22.2067 87.2748 21.8067 87.9254 21.54C88.5868 21.2733 89.2908 21.14 90.0374 21.14C90.9228 21.14 91.6961 21.2733 92.3574 21.54C93.0294 21.796 93.5468 22.1587 93.9094 22.628C94.2828 23.0973 94.4694 23.6413 94.4694 24.26C94.4694 24.7827 94.3414 25.2573 94.0854 25.684C93.8401 26.1 93.4668 26.4467 92.9654 26.724ZM103.927 24.5V32.5H102.407V31.3C102.077 31.7267 101.677 32.0627 101.207 32.308C100.738 32.5427 100.237 32.66 99.7032 32.66C98.9992 32.66 98.3592 32.484 97.7832 32.132C97.2072 31.7693 96.7539 31.2733 96.4232 30.644C96.0925 30.0147 95.9272 29.3 95.9272 28.5C95.9272 27.7 96.0925 26.9853 96.4232 26.356C96.7539 25.7267 97.2072 25.236 97.7832 24.884C98.3592 24.5213 98.9992 24.34 99.7032 24.34C100.258 24.34 100.775 24.468 101.255 24.724C101.735 24.98 102.146 25.3373 102.487 25.796V24.5H103.927ZM99.9592 31.252C100.429 31.252 100.855 31.1347 101.239 30.9C101.623 30.6653 101.922 30.34 102.135 29.924C102.349 29.4973 102.455 29.0227 102.455 28.5C102.455 27.9773 102.349 27.508 102.135 27.092C101.922 26.6653 101.623 26.3347 101.239 26.1C100.855 25.8653 100.429 25.748 99.9592 25.748C99.4899 25.748 99.0685 25.8653 98.6952 26.1C98.3219 26.3347 98.0285 26.6653 97.8152 27.092C97.6019 27.508 97.4952 27.9773 97.4952 28.5C97.4952 29.0227 97.6019 29.4973 97.8152 29.924C98.0285 30.34 98.3219 30.6653 98.6952 30.9C99.0685 31.1347 99.4899 31.252 99.9592 31.252ZM109.115 28.788L107.979 29.844V32.5H106.491V24.5H107.979V28.084L111.739 24.5H113.755L110.251 27.732L114.091 32.5H112.059L109.115 28.788ZM122.24 24.5V32.5H120.72V31.3C120.389 31.7267 119.989 32.0627 119.52 32.308C119.05 32.5427 118.549 32.66 118.016 32.66C117.312 32.66 116.672 32.484 116.096 32.132C115.52 31.7693 115.066 31.2733 114.736 30.644C114.405 30.0147 114.24 29.3 114.24 28.5C114.24 27.7 114.405 26.9853 114.736 26.356C115.066 25.7267 115.52 25.236 116.096 24.884C116.672 24.5213 117.312 24.34 118.016 24.34C118.57 24.34 119.088 24.468 119.568 24.724C120.048 24.98 120.458 25.3373 120.8 25.796V24.5H122.24ZM118.272 31.252C118.741 31.252 119.168 31.1347 119.552 30.9C119.936 30.6653 120.234 30.34 120.448 29.924C120.661 29.4973 120.768 29.0227 120.768 28.5C120.768 27.9773 120.661 27.508 120.448 27.092C120.234 26.6653 119.936 26.3347 119.552 26.1C119.168 25.8653 118.741 25.748 118.272 25.748C117.802 25.748 117.381 25.8653 117.008 26.1C116.634 26.3347 116.341 26.6653 116.128 27.092C115.914 27.508 115.808 27.9773 115.808 28.5C115.808 29.0227 115.914 29.4973 116.128 29.924C116.341 30.34 116.634 30.6653 117.008 30.9C117.381 31.1347 117.802 31.252 118.272 31.252ZM125.443 29.972C125.582 30.4413 125.838 30.788 126.211 31.012C126.595 31.236 127.097 31.348 127.715 31.348C128.291 31.348 128.755 31.2467 129.107 31.044C129.459 30.8307 129.635 30.5587 129.635 30.228C129.635 29.94 129.507 29.6947 129.251 29.492C128.995 29.2787 128.558 29.172 127.939 29.172H126.547V27.86H127.875C128.43 27.86 128.825 27.7587 129.059 27.556C129.305 27.3533 129.427 27.108 129.427 26.82C129.427 26.4573 129.262 26.1693 128.931 25.956C128.611 25.7427 128.169 25.636 127.603 25.636C127.059 25.636 126.606 25.7373 126.243 25.94C125.891 26.1427 125.662 26.4627 125.555 26.9H124.051C124.19 26.1 124.59 25.476 125.251 25.028C125.913 24.5693 126.697 24.34 127.603 24.34C128.606 24.34 129.417 24.5587 130.035 24.996C130.654 25.4227 130.963 25.988 130.963 26.692C130.963 27.044 130.867 27.3747 130.675 27.684C130.483 27.9827 130.195 28.2227 129.811 28.404C130.697 28.756 131.139 29.3587 131.139 30.212C131.139 30.948 130.819 31.54 130.179 31.988C129.55 32.436 128.691 32.66 127.603 32.66C126.622 32.66 125.79 32.42 125.107 31.94C124.425 31.46 124.03 30.804 123.923 29.972H125.443ZM140.224 24.5V32.5H138.704V31.3C138.373 31.7267 137.973 32.0627 137.504 32.308C137.035 32.5427 136.533 32.66 136 32.66C135.296 32.66 134.656 32.484 134.08 32.132C133.504 31.7693 133.051 31.2733 132.72 30.644C132.389 30.0147 132.224 29.3 132.224 28.5C132.224 27.7 132.389 26.9853 132.72 26.356C133.051 25.7267 133.504 25.236 134.08 24.884C134.656 24.5213 135.296 24.34 136 24.34C136.555 24.34 137.072 24.468 137.552 24.724C138.032 24.98 138.443 25.3373 138.784 25.796V24.5H140.224ZM136.256 31.252C136.725 31.252 137.152 31.1347 137.536 30.9C137.92 30.6653 138.219 30.34 138.432 29.924C138.645 29.4973 138.752 29.0227 138.752 28.5C138.752 27.9773 138.645 27.508 138.432 27.092C138.219 26.6653 137.92 26.3347 137.536 26.1C137.152 25.8653 136.725 25.748 136.256 25.748C135.787 25.748 135.365 25.8653 134.992 26.1C134.619 26.3347 134.325 26.6653 134.112 27.092C133.899 27.508 133.792 27.9773 133.792 28.5C133.792 29.0227 133.899 29.4973 134.112 29.924C134.325 30.34 134.619 30.6653 134.992 30.9C135.365 31.1347 135.787 31.252 136.256 31.252ZM148.868 25.94H146.068V32.5H144.548V25.94H141.748V24.5H148.868V25.94ZM154.334 27.668C155.176 27.668 155.832 27.8973 156.302 28.356C156.782 28.804 157.022 29.38 157.022 30.084C157.022 30.788 156.782 31.3693 156.302 31.828C155.832 32.276 155.176 32.5 154.334 32.5H150.382V24.5H151.902V27.668H154.334ZM154.126 31.172C154.563 31.172 154.894 31.0813 155.118 30.9C155.342 30.7187 155.454 30.4467 155.454 30.084C155.454 29.7213 155.342 29.4493 155.118 29.268C154.894 29.0867 154.563 28.996 154.126 28.996H151.902V31.172H154.126ZM171.368 31.06V34.26H169.896V32.5H163.784V34.26H162.312V31.06H163.336C163.56 30.42 163.672 29.1933 163.672 27.38V24.5H170.248V31.06H171.368ZM168.728 31.092V25.908H165.192V27.332C165.192 28.932 165.07 30.1853 164.824 31.092H168.728ZM180.111 32.516H178.591V25.94H175.167V27.396C175.167 28.5373 175.103 29.4707 174.975 30.196C174.858 30.9213 174.607 31.5027 174.223 31.94C173.839 32.3667 173.269 32.58 172.511 32.58C172.309 32.58 172.09 32.5533 171.855 32.5V31.092C172.047 31.124 172.218 31.14 172.367 31.14C172.709 31.14 172.965 31.0333 173.135 30.82C173.317 30.6067 173.445 30.228 173.519 29.684C173.594 29.1293 173.631 28.3187 173.631 27.252V24.5H180.111V32.516ZM188.854 32.5H187.334V29.492H185.766L183.302 32.5H181.478L184.038 29.396C183.462 29.2467 183.014 28.9587 182.694 28.532C182.374 28.0947 182.214 27.5827 182.214 26.996C182.214 26.2707 182.449 25.6733 182.918 25.204C183.398 24.7347 184.06 24.5 184.902 24.5H188.854V32.5ZM187.334 28.164V25.86H185.11C184.673 25.86 184.342 25.9613 184.118 26.164C183.894 26.356 183.782 26.6387 183.782 27.012C183.782 27.3853 183.894 27.6733 184.118 27.876C184.342 28.068 184.673 28.164 185.11 28.164H187.334ZM203.097 24.5V32.5H201.577V29.22H197.417V32.5H195.897V24.5H197.417V27.78H201.577V24.5H203.097ZM209.039 24.34C209.86 24.34 210.575 24.516 211.183 24.868C211.801 25.22 212.276 25.7213 212.607 26.372C212.937 27.012 213.103 27.764 213.103 28.628C213.103 28.852 213.097 29.0173 213.087 29.124H206.527C206.633 29.7427 206.921 30.2547 207.391 30.66C207.871 31.0547 208.425 31.252 209.055 31.252C210.089 31.252 210.825 30.8733 211.263 30.116H212.831C212.575 30.8627 212.1 31.476 211.407 31.956C210.713 32.4253 209.929 32.66 209.055 32.66C208.276 32.66 207.572 32.484 206.943 32.132C206.313 31.7693 205.823 31.2733 205.471 30.644C205.119 30.004 204.943 29.2893 204.943 28.5C204.943 27.7107 205.119 27.0013 205.471 26.372C205.823 25.732 206.308 25.236 206.927 24.884C207.556 24.5213 208.26 24.34 209.039 24.34ZM209.007 25.684C208.377 25.684 207.833 25.8813 207.375 26.276C206.927 26.6707 206.649 27.1773 206.543 27.796H211.455C211.391 27.156 211.129 26.644 210.671 26.26C210.223 25.876 209.668 25.684 209.007 25.684ZM220.544 25.94H216.464V32.5H214.944V24.5H220.544V25.94ZM225.293 32.66C224.503 32.66 223.783 32.4787 223.133 32.116C222.482 31.7427 221.97 31.2413 221.597 30.612C221.223 29.972 221.037 29.268 221.037 28.5C221.037 27.732 221.223 27.0333 221.597 26.404C221.97 25.764 222.482 25.2627 223.133 24.9C223.783 24.5267 224.503 24.34 225.293 24.34C226.071 24.34 226.781 24.5267 227.421 24.9C228.071 25.2627 228.583 25.764 228.957 26.404C229.33 27.0333 229.517 27.732 229.517 28.5C229.517 29.268 229.33 29.972 228.957 30.612C228.583 31.2413 228.071 31.7427 227.421 32.116C226.781 32.4787 226.071 32.66 225.293 32.66ZM225.293 31.252C225.783 31.252 226.231 31.1347 226.637 30.9C227.042 30.6547 227.362 30.324 227.597 29.908C227.831 29.4813 227.949 29.012 227.949 28.5C227.949 27.988 227.831 27.524 227.597 27.108C227.362 26.6813 227.042 26.3507 226.637 26.116C226.231 25.8707 225.783 25.748 225.293 25.748C224.791 25.748 224.333 25.8707 223.917 26.116C223.511 26.3507 223.191 26.6813 222.957 27.108C222.722 27.524 222.605 27.988 222.605 28.5C222.605 29.012 222.722 29.4813 222.957 29.908C223.191 30.324 223.511 30.6547 223.917 30.9C224.333 31.1347 224.791 31.252 225.293 31.252ZM245.755 32.5H244.235V26.34L240.795 32.5L237.355 26.372V32.5H235.835V24.5H237.915L240.827 29.732L243.707 24.5H245.755V32.5ZM251.695 24.34C252.516 24.34 253.231 24.516 253.839 24.868C254.458 25.22 254.932 25.7213 255.263 26.372C255.594 27.012 255.759 27.764 255.759 28.628C255.759 28.852 255.754 29.0173 255.743 29.124H249.183C249.29 29.7427 249.578 30.2547 250.047 30.66C250.527 31.0547 251.082 31.252 251.711 31.252C252.746 31.252 253.482 30.8733 253.919 30.116H255.487C255.231 30.8627 254.756 31.476 254.063 31.956C253.37 32.4253 252.586 32.66 251.711 32.66C250.932 32.66 250.228 32.484 249.599 32.132C248.97 31.7693 248.479 31.2733 248.127 30.644C247.775 30.004 247.599 29.2893 247.599 28.5C247.599 27.7107 247.775 27.0013 248.127 26.372C248.479 25.732 248.964 25.236 249.583 24.884C250.212 24.5213 250.916 24.34 251.695 24.34ZM251.663 25.684C251.034 25.684 250.49 25.8813 250.031 26.276C249.583 26.6707 249.306 27.1773 249.199 27.796H254.111C254.047 27.156 253.786 26.644 253.327 26.26C252.879 25.876 252.324 25.684 251.663 25.684ZM261.408 24.74C262.134 24.74 262.8 24.916 263.408 25.268C264.016 25.6093 264.491 26.0787 264.832 26.676C265.184 27.2733 265.36 27.9347 265.36 28.66C265.36 29.396 265.179 30.0733 264.816 30.692C264.464 31.3 263.974 31.78 263.344 32.132C262.726 32.484 262.043 32.66 261.296 32.66C260.539 32.66 259.846 32.484 259.216 32.132C258.598 31.7693 258.107 31.268 257.744 30.628C257.382 29.988 257.2 29.2627 257.2 28.452V25.38C257.2 24.3773 257.451 23.6253 257.952 23.124C258.464 22.612 259.184 22.2973 260.112 22.18L262.976 21.812C263.243 21.78 263.376 21.6467 263.376 21.412V21.22H264.912V21.604C264.912 22.0413 264.774 22.3933 264.496 22.66C264.23 22.916 263.915 23.0653 263.552 23.108L260.256 23.54C259.659 23.6147 259.216 23.78 258.928 24.036C258.651 24.2813 258.512 24.6707 258.512 25.204V26.324C258.843 25.8227 259.259 25.4333 259.76 25.156C260.272 24.8787 260.822 24.74 261.408 24.74ZM261.248 31.252C261.718 31.252 262.144 31.14 262.528 30.916C262.923 30.6813 263.232 30.3667 263.456 29.972C263.68 29.5773 263.792 29.14 263.792 28.66C263.792 28.18 263.68 27.7427 263.456 27.348C263.232 26.9533 262.923 26.644 262.528 26.42C262.144 26.1853 261.718 26.068 261.248 26.068C260.768 26.068 260.331 26.1853 259.936 26.42C259.542 26.644 259.232 26.9533 259.008 27.348C258.784 27.7427 258.672 28.18 258.672 28.66C258.672 29.14 258.784 29.5773 259.008 29.972C259.232 30.3667 259.542 30.6813 259.936 30.916C260.331 31.14 260.768 31.252 261.248 31.252ZM270.648 24.34C271.47 24.34 272.184 24.516 272.792 24.868C273.411 25.22 273.886 25.7213 274.216 26.372C274.547 27.012 274.712 27.764 274.712 28.628C274.712 28.852 274.707 29.0173 274.696 29.124H268.136C268.243 29.7427 268.531 30.2547 269 30.66C269.48 31.0547 270.035 31.252 270.664 31.252C271.699 31.252 272.435 30.8733 272.872 30.116H274.44C274.184 30.8627 273.71 31.476 273.016 31.956C272.323 32.4253 271.539 32.66 270.664 32.66C269.886 32.66 269.182 32.484 268.552 32.132C267.923 31.7693 267.432 31.2733 267.08 30.644C266.728 30.004 266.552 29.2893 266.552 28.5C266.552 27.7107 266.728 27.0013 267.08 26.372C267.432 25.732 267.918 25.236 268.536 24.884C269.166 24.5213 269.87 24.34 270.648 24.34ZM270.616 25.684C269.987 25.684 269.443 25.8813 268.984 26.276C268.536 26.6707 268.259 27.1773 268.152 27.796H273.064C273 27.156 272.739 26.644 272.28 26.26C271.832 25.876 271.278 25.684 270.616 25.684ZM283.533 32.516H282.013V25.94H278.589V27.396C278.589 28.5373 278.525 29.4707 278.397 30.196C278.28 30.9213 278.029 31.5027 277.645 31.94C277.261 32.3667 276.691 32.58 275.933 32.58C275.731 32.58 275.512 32.5533 275.277 32.5V31.092C275.469 31.124 275.64 31.14 275.789 31.14C276.131 31.14 276.387 31.0333 276.557 30.82C276.739 30.6067 276.867 30.228 276.941 29.684C277.016 29.1293 277.053 28.3187 277.053 27.252V24.5H283.533V32.516ZM290.052 27.668C290.895 27.668 291.551 27.8973 292.02 28.356C292.5 28.804 292.74 29.38 292.74 30.084C292.74 30.788 292.5 31.3693 292.02 31.828C291.551 32.276 290.895 32.5 290.052 32.5H286.1V24.5H287.62V27.668H290.052ZM289.844 31.172C290.282 31.172 290.612 31.0813 290.836 30.9C291.06 30.7187 291.172 30.4467 291.172 30.084C291.172 29.7213 291.06 29.4493 290.836 29.268C290.612 29.0867 290.282 28.996 289.844 28.996H287.62V31.172H289.844Z" fill="black"/>
</svg>
