<svg width="121" height="21" viewBox="0 0 121 21" fill="none" xmlns="http://www.w3.org/2000/svg">
<path d="M10.48 20.28C8.59467 20.28 6.868 19.8413 5.3 18.964C3.732 18.068 2.5 16.8547 1.604 15.324C0.708 13.7747 0.26 12.0667 0.26 10.2C0.26 8.33333 0.708 6.63467 1.604 5.104C2.5 3.55467 3.732 2.34133 5.3 1.464C6.868 0.567999 8.59467 0.119999 10.48 0.119999C12.3653 0.119999 14.092 0.567999 15.66 1.464C17.228 2.34133 18.46 3.55467 19.356 5.104C20.252 6.63467 20.7 8.33333 20.7 10.2C20.7 12.0667 20.252 13.7747 19.356 15.324C18.46 16.8547 17.228 18.068 15.66 18.964C14.092 19.8413 12.3653 20.28 10.48 20.28ZM10.48 17.592C11.824 17.592 13.0467 17.2653 14.148 16.612C15.268 15.9587 16.1453 15.072 16.78 13.952C17.4333 12.8133 17.76 11.5627 17.76 10.2C17.76 8.83733 17.4333 7.596 16.78 6.476C16.1453 5.33733 15.268 4.44133 14.148 3.788C13.0467 3.13467 11.824 2.808 10.48 2.808C9.136 2.808 7.904 3.13467 6.784 3.788C5.68267 4.44133 4.80533 5.33733 4.152 6.476C3.51733 7.596 3.2 8.83733 3.2 10.2C3.2 11.5627 3.51733 12.8133 4.152 13.952C4.80533 15.072 5.68267 15.9587 6.784 16.612C7.904 17.2653 9.136 17.592 10.48 17.592ZM34.4288 8.52H29.5288V20H26.8688V8.52H21.9687V6H34.4288V8.52ZM48.2982 20.028H45.6382V8.52H39.6462V11.068C39.6462 13.0653 39.5342 14.6987 39.3102 15.968C39.1048 17.2373 38.6662 18.2547 37.9942 19.02C37.3222 19.7667 36.3235 20.14 34.9982 20.14C34.6435 20.14 34.2608 20.0933 33.8502 20V17.536C34.1862 17.592 34.4848 17.62 34.7462 17.62C35.3435 17.62 35.7915 17.4333 36.0902 17.06C36.4075 16.6867 36.6315 16.024 36.7622 15.072C36.8928 14.1013 36.9582 12.6827 36.9582 10.816V6H48.2982V20.028ZM52.3706 6H55.0306V16.416L62.3106 6H65.2506V20H62.5906V9.584L55.3106 20H52.3706V6ZM80.2339 6V20H77.5739V14.568H73.0939C71.6566 14.568 70.5272 14.148 69.7059 13.308C68.8846 12.468 68.4739 11.3947 68.4739 10.088V6H71.1339V10.004C71.1339 10.732 71.3206 11.2733 71.6939 11.628C72.0859 11.9827 72.6926 12.16 73.5139 12.16H77.5739V6H80.2339ZM96.8884 6V20H94.2284V14.26H86.9484V20H84.2884V6H86.9484V11.74H94.2284V6H96.8884ZM107.146 20.28C105.765 20.28 104.505 19.9627 103.366 19.328C102.228 18.6747 101.332 17.7973 100.678 16.696C100.025 15.576 99.6983 14.344 99.6983 13C99.6983 11.656 100.025 10.4333 100.678 9.332C101.332 8.212 102.228 7.33467 103.366 6.7C104.505 6.04667 105.765 5.72 107.146 5.72C108.509 5.72 109.75 6.04667 110.87 6.7C112.009 7.33467 112.905 8.212 113.558 9.332C114.212 10.4333 114.538 11.656 114.538 13C114.538 14.344 114.212 15.576 113.558 16.696C112.905 17.7973 112.009 18.6747 110.87 19.328C109.75 19.9627 108.509 20.28 107.146 20.28ZM107.146 17.816C108.005 17.816 108.789 17.6107 109.498 17.2C110.208 16.7707 110.768 16.192 111.178 15.464C111.589 14.7173 111.794 13.896 111.794 13C111.794 12.104 111.589 11.292 111.178 10.564C110.768 9.81733 110.208 9.23867 109.498 8.828C108.789 8.39867 108.005 8.184 107.146 8.184C106.269 8.184 105.466 8.39867 104.738 8.828C104.029 9.23867 103.469 9.81733 103.058 10.564C102.648 11.292 102.442 12.104 102.442 13C102.442 13.896 102.648 14.7173 103.058 15.464C103.469 16.192 104.029 16.7707 104.738 17.2C105.466 17.6107 106.269 17.816 107.146 17.816ZM120.547 0.399999V14.12H117.747V0.399999H120.547ZM120.687 16.92V20H117.607V16.92H120.687Z" fill="white"/>
</svg>
