<svg width="184" height="25" viewBox="0 0 184 25" fill="none" xmlns="http://www.w3.org/2000/svg">
<path d="M17.32 20H14.52V3.088H3.32V20H0.52V0.399999H17.32V20ZM29.0597 5.72C30.2917 5.72 31.4117 6.03733 32.4197 6.672C33.4277 7.288 34.221 8.14667 34.7997 9.248C35.3783 10.3493 35.6677 11.6 35.6677 13C35.6677 14.4 35.3783 15.6507 34.7997 16.752C34.221 17.8533 33.4277 18.7213 32.4197 19.356C31.4117 19.972 30.2917 20.28 29.0597 20.28C28.1263 20.28 27.249 20.0747 26.4277 19.664C25.6063 19.2347 24.9063 18.6467 24.3277 17.9V24.76H21.6677V6H24.1877V8.268C24.785 7.46533 25.5037 6.84 26.3437 6.392C27.1837 5.944 28.089 5.72 29.0597 5.72ZM28.6117 17.816C29.433 17.816 30.1703 17.6107 30.8237 17.2C31.477 16.7893 31.9903 16.22 32.3637 15.492C32.737 14.7453 32.9237 13.9147 32.9237 13C32.9237 12.0853 32.737 11.264 32.3637 10.536C31.9903 9.78933 31.477 9.21067 30.8237 8.8C30.1703 8.38933 29.433 8.184 28.6117 8.184C27.7903 8.184 27.0437 8.38933 26.3717 8.8C25.6997 9.21067 25.177 9.78933 24.8037 10.536C24.4303 11.264 24.2437 12.0853 24.2437 13C24.2437 13.9147 24.4303 14.7453 24.8037 15.492C25.177 16.22 25.6997 16.7893 26.3717 17.2C27.0437 17.6107 27.7903 17.816 28.6117 17.816ZM44.5189 5.72C45.9563 5.72 47.2069 6.028 48.2709 6.644C49.3536 7.26 50.1843 8.13733 50.7629 9.276C51.3416 10.396 51.6309 11.712 51.6309 13.224C51.6309 13.616 51.6216 13.9053 51.6029 14.092H40.1229C40.3096 15.1747 40.8136 16.0707 41.6349 16.78C42.4749 17.4707 43.4456 17.816 44.5469 17.816C46.3576 17.816 47.6456 17.1533 48.4109 15.828H51.1549C50.7069 17.1347 49.8763 18.208 48.6629 19.048C47.4496 19.8693 46.0776 20.28 44.5469 20.28C43.1843 20.28 41.9523 19.972 40.8509 19.356C39.7496 18.7213 38.8909 17.8533 38.2749 16.752C37.6589 15.632 37.3509 14.3813 37.3509 13C37.3509 11.6187 37.6589 10.3773 38.2749 9.276C38.8909 8.156 39.7403 7.288 40.8229 6.672C41.9243 6.03733 43.1563 5.72 44.5189 5.72ZM44.4629 8.072C43.3616 8.072 42.4096 8.41733 41.6069 9.108C40.8229 9.79867 40.3376 10.6853 40.1509 11.768H48.7469C48.6349 10.648 48.1776 9.752 47.3749 9.08C46.5909 8.408 45.6203 8.072 44.4629 8.072ZM64.1211 12.86C65.5025 13.5507 66.1931 14.6147 66.1931 16.052C66.1931 17.2093 65.7731 18.1613 64.9331 18.908C64.0931 19.636 62.9358 20 61.4611 20H54.4331V6H61.4611C62.8611 6 63.9625 6.364 64.7651 7.092C65.5865 7.80133 65.9971 8.70667 65.9971 9.808C65.9971 10.4613 65.8385 11.0587 65.5211 11.6C65.2225 12.1227 64.7558 12.5427 64.1211 12.86ZM61.1531 11.824C61.8438 11.824 62.3665 11.6653 62.7211 11.348C63.0758 11.0307 63.2531 10.564 63.2531 9.948C63.2531 8.80933 62.5531 8.24 61.1531 8.24H57.0371V11.824H61.1531ZM61.1811 17.76C61.9278 17.76 62.4878 17.6013 62.8611 17.284C63.2531 16.948 63.4491 16.472 63.4491 15.856C63.4491 15.2773 63.2531 14.8387 62.8611 14.54C62.4878 14.2227 61.9278 14.064 61.1811 14.064H57.0371V17.76H61.1811ZM75.3222 20.28C73.9409 20.28 72.6809 19.9627 71.5422 19.328C70.4036 18.6747 69.5076 17.7973 68.8542 16.696C68.2009 15.576 67.8742 14.344 67.8742 13C67.8742 11.656 68.2009 10.4333 68.8542 9.332C69.5076 8.212 70.4036 7.33467 71.5422 6.7C72.6809 6.04667 73.9409 5.72 75.3222 5.72C76.6849 5.72 77.9262 6.04667 79.0462 6.7C80.1849 7.33467 81.0809 8.212 81.7342 9.332C82.3876 10.4333 82.7142 11.656 82.7142 13C82.7142 14.344 82.3876 15.576 81.7342 16.696C81.0809 17.7973 80.1849 18.6747 79.0462 19.328C77.9262 19.9627 76.6849 20.28 75.3222 20.28ZM75.3222 17.816C76.1809 17.816 76.9649 17.6107 77.6742 17.2C78.3836 16.7707 78.9436 16.192 79.3542 15.464C79.7649 14.7173 79.9702 13.896 79.9702 13C79.9702 12.104 79.7649 11.292 79.3542 10.564C78.9436 9.81733 78.3836 9.23867 77.6742 8.828C76.9649 8.39867 76.1809 8.184 75.3222 8.184C74.4449 8.184 73.6422 8.39867 72.9142 8.828C72.2049 9.23867 71.6449 9.81733 71.2342 10.564C70.8236 11.292 70.6182 12.104 70.6182 13C70.6182 13.896 70.8236 14.7173 71.2342 15.464C71.6449 16.192 72.2049 16.7707 72.9142 17.2C73.6422 17.6107 74.4449 17.816 75.3222 17.816ZM84.38 13C84.38 11.656 84.7067 10.4333 85.36 9.332C86.0133 8.212 86.9093 7.33467 88.048 6.7C89.1867 6.04667 90.4467 5.72 91.828 5.72C93.3773 5.72 94.768 6.17733 96 7.092C97.2507 7.988 98.072 9.164 98.464 10.62H95.552C95.2347 9.87333 94.7213 9.28533 94.012 8.856C93.3213 8.408 92.5467 8.184 91.688 8.184C90.8107 8.184 90.0267 8.39867 89.336 8.828C88.6453 9.23867 88.104 9.81733 87.712 10.564C87.32 11.292 87.124 12.104 87.124 13C87.124 13.896 87.32 14.7173 87.712 15.464C88.104 16.192 88.6453 16.7707 89.336 17.2C90.0267 17.6107 90.8107 17.816 91.688 17.816C92.5467 17.816 93.3213 17.6013 94.012 17.172C94.7213 16.724 95.2347 16.1267 95.552 15.38H98.464C98.072 16.836 97.2507 18.0213 96 18.936C94.768 19.832 93.3773 20.28 91.828 20.28C90.4467 20.28 89.1867 19.9627 88.048 19.328C86.9093 18.6747 86.0133 17.7973 85.36 16.696C84.7067 15.576 84.38 14.344 84.38 13ZM109.858 20L105.798 14.708L101.71 20H98.4905L104.09 12.888L98.7145 6H102.018L105.854 11.012L109.606 6H112.91L107.562 12.804L113.162 20H109.858ZM120.902 20.28C119.521 20.28 118.261 19.9627 117.122 19.328C115.983 18.6747 115.087 17.7973 114.434 16.696C113.781 15.576 113.454 14.344 113.454 13C113.454 11.656 113.781 10.4333 114.434 9.332C115.087 8.212 115.983 7.33467 117.122 6.7C118.261 6.04667 119.521 5.72 120.902 5.72C122.265 5.72 123.506 6.04667 124.626 6.7C125.765 7.33467 126.661 8.212 127.314 9.332C127.967 10.4333 128.294 11.656 128.294 13C128.294 14.344 127.967 15.576 127.314 16.696C126.661 17.7973 125.765 18.6747 124.626 19.328C123.506 19.9627 122.265 20.28 120.902 20.28ZM120.902 17.816C121.761 17.816 122.545 17.6107 123.254 17.2C123.963 16.7707 124.523 16.192 124.934 15.464C125.345 14.7173 125.55 13.896 125.55 13C125.55 12.104 125.345 11.292 124.934 10.564C124.523 9.81733 123.963 9.23867 123.254 8.828C122.545 8.39867 121.761 8.184 120.902 8.184C120.025 8.184 119.222 8.39867 118.494 8.828C117.785 9.23867 117.225 9.81733 116.814 10.564C116.403 11.292 116.198 12.104 116.198 13C116.198 13.896 116.403 14.7173 116.814 15.464C117.225 16.192 117.785 16.7707 118.494 17.2C119.222 17.6107 120.025 17.816 120.902 17.816ZM144.978 17.48V23.08H142.402V20H131.706V23.08H129.13V17.48H130.922C131.314 16.36 131.51 14.2133 131.51 11.04V6H143.018V17.48H144.978ZM140.358 17.536V8.464H134.17V10.956C134.17 13.756 133.955 15.9493 133.526 17.536H140.358ZM159.97 6V20H157.31V14.26H150.03V20H147.37V6H150.03V11.74H157.31V6H159.97ZM170.228 20.28C168.847 20.28 167.587 19.9627 166.448 19.328C165.309 18.6747 164.413 17.7973 163.76 16.696C163.107 15.576 162.78 14.344 162.78 13C162.78 11.656 163.107 10.4333 163.76 9.332C164.413 8.212 165.309 7.33467 166.448 6.7C167.587 6.04667 168.847 5.72 170.228 5.72C171.591 5.72 172.832 6.04667 173.952 6.7C175.091 7.33467 175.987 8.212 176.64 9.332C177.293 10.4333 177.62 11.656 177.62 13C177.62 14.344 177.293 15.576 176.64 16.696C175.987 17.7973 175.091 18.6747 173.952 19.328C172.832 19.9627 171.591 20.28 170.228 20.28ZM170.228 17.816C171.087 17.816 171.871 17.6107 172.58 17.2C173.289 16.7707 173.849 16.192 174.26 15.464C174.671 14.7173 174.876 13.896 174.876 13C174.876 12.104 174.671 11.292 174.26 10.564C173.849 9.81733 173.289 9.23867 172.58 8.828C171.871 8.39867 171.087 8.184 170.228 8.184C169.351 8.184 168.548 8.39867 167.82 8.828C167.111 9.23867 166.551 9.81733 166.14 10.564C165.729 11.292 165.524 12.104 165.524 13C165.524 13.896 165.729 14.7173 166.14 15.464C166.551 16.192 167.111 16.7707 167.82 17.2C168.548 17.6107 169.351 17.816 170.228 17.816ZM183.629 0.399999V14.12H180.829V0.399999H183.629ZM183.769 16.92V20H180.689V16.92H183.769Z" fill="white"/>
</svg>
