<svg width="332" height="97" viewBox="0 0 332 97" fill="none" xmlns="http://www.w3.org/2000/svg">
<path opacity="0.8" d="M10.2 9.56V11H9.27C8.42 11 7.995 10.575 7.995 9.725V7.535C7.995 6.805 7.63 6.44 6.9 6.44H2.85V11H1.35V0.499999H2.85V5.06H6.735C7.465 5.06 7.83 4.695 7.83 3.965V1.775C7.83 0.924999 8.255 0.499999 9.105 0.499999H9.96V1.94H9.63C9.38 1.94 9.255 2.065 9.255 2.315V4.025C9.255 4.815 8.985 5.37 8.445 5.69C8.795 5.83 9.055 6.05 9.225 6.35C9.405 6.64 9.495 7.015 9.495 7.475V9.185C9.495 9.435 9.62 9.56 9.87 9.56H10.2ZM15.247 11.15C14.507 11.15 13.832 10.98 13.222 10.64C12.612 10.29 12.132 9.82 11.782 9.23C11.432 8.63 11.257 7.97 11.257 7.25C11.257 6.53 11.432 5.875 11.782 5.285C12.132 4.685 12.612 4.215 13.222 3.875C13.832 3.525 14.507 3.35 15.247 3.35C15.977 3.35 16.642 3.525 17.242 3.875C17.852 4.215 18.332 4.685 18.682 5.285C19.032 5.875 19.207 6.53 19.207 7.25C19.207 7.97 19.032 8.63 18.682 9.23C18.332 9.82 17.852 10.29 17.242 10.64C16.642 10.98 15.977 11.15 15.247 11.15ZM15.247 9.83C15.707 9.83 16.127 9.72 16.507 9.5C16.887 9.27 17.187 8.96 17.407 8.57C17.627 8.17 17.737 7.73 17.737 7.25C17.737 6.77 17.627 6.335 17.407 5.945C17.187 5.545 16.887 5.235 16.507 5.015C16.127 4.785 15.707 4.67 15.247 4.67C14.777 4.67 14.347 4.785 13.957 5.015C13.577 5.235 13.277 5.545 13.057 5.945C12.837 6.335 12.727 6.77 12.727 7.25C12.727 7.73 12.837 8.17 13.057 8.57C13.277 8.96 13.577 9.27 13.957 9.5C14.347 9.72 14.777 9.83 15.247 9.83ZM25.9512 4.85H22.1262V11H20.7012V3.5H25.9512V4.85ZM34.0218 9.65V12.65H32.6418V11H27.0318V12.65H25.6518V9.65H26.5818C27.0018 9.09 27.3268 8.35 27.5568 7.43C27.7868 6.5 27.9018 5.47 27.9018 4.34V3.5H32.9718V9.65H34.0218ZM31.5768 9.695V4.775H29.2368C29.1668 6.875 28.7668 8.515 28.0368 9.695H31.5768ZM41.9719 9.65V11H41.2519C40.8819 11 40.5919 10.91 40.3819 10.73C40.1719 10.54 40.0469 10.27 40.0069 9.92C39.6869 10.29 39.2719 10.59 38.7619 10.82C38.2619 11.04 37.7319 11.15 37.1719 11.15C36.3619 11.15 35.7319 10.95 35.2819 10.55C34.8419 10.15 34.6219 9.615 34.6219 8.945C34.6219 8.335 34.8619 7.815 35.3419 7.385C35.8219 6.945 36.4969 6.68 37.3669 6.59L38.2069 6.5C38.6769 6.45 39.0269 6.39 39.2569 6.32C39.4869 6.24 39.6319 6.155 39.6919 6.065C39.7619 5.975 39.7969 5.855 39.7969 5.705C39.7969 5.365 39.6319 5.1 39.3019 4.91C38.9819 4.71 38.5369 4.61 37.9669 4.61C37.5969 4.61 37.2419 4.71 36.9019 4.91C36.5619 5.1 36.3269 5.375 36.1969 5.735H34.6819C34.8219 5.035 35.2019 4.465 35.8219 4.025C36.4419 3.575 37.1819 3.35 38.0419 3.35C38.9919 3.35 39.7719 3.61 40.3819 4.13C40.9919 4.65 41.2969 5.395 41.2969 6.365V9.245C41.2969 9.375 41.3319 9.475 41.4019 9.545C41.4719 9.615 41.5669 9.65 41.6869 9.65H41.9719ZM37.3219 9.92C37.7919 9.92 38.2319 9.825 38.6419 9.635C39.0519 9.435 39.3769 9.175 39.6169 8.855C39.8669 8.525 39.9919 8.175 39.9919 7.805V7.13C39.6519 7.39 39.1119 7.56 38.3719 7.64L37.5319 7.73C36.9719 7.79 36.5819 7.925 36.3619 8.135C36.1419 8.345 36.0319 8.61 36.0319 8.93C36.0319 9.23 36.1419 9.47 36.3619 9.65C36.5919 9.83 36.9119 9.92 37.3219 9.92ZM52.6328 7.175C53.3728 7.545 53.7428 8.115 53.7428 8.885C53.7428 9.505 53.5178 10.015 53.0678 10.415C52.6178 10.805 51.9978 11 51.2078 11H47.4428V3.5H51.2078C51.9578 3.5 52.5478 3.695 52.9778 4.085C53.4178 4.465 53.6378 4.95 53.6378 5.54C53.6378 5.89 53.5528 6.21 53.3828 6.5C53.2228 6.78 52.9728 7.005 52.6328 7.175ZM51.0428 6.62C51.4128 6.62 51.6928 6.535 51.8828 6.365C52.0728 6.195 52.1678 5.945 52.1678 5.615C52.1678 5.005 51.7928 4.7 51.0428 4.7H48.8378V6.62H51.0428ZM51.0578 9.8C51.4578 9.8 51.7578 9.715 51.9578 9.545C52.1678 9.365 52.2728 9.11 52.2728 8.78C52.2728 8.47 52.1678 8.235 51.9578 8.075C51.7578 7.905 51.4578 7.82 51.0578 7.82H48.8378V9.8H51.0578ZM59.0234 6.47C59.8134 6.47 60.4284 6.685 60.8684 7.115C61.3184 7.535 61.5434 8.075 61.5434 8.735C61.5434 9.395 61.3184 9.94 60.8684 10.37C60.4284 10.79 59.8134 11 59.0234 11H55.3184V3.5H56.7434V6.47H59.0234ZM58.8284 9.755C59.2384 9.755 59.5484 9.67 59.7584 9.5C59.9684 9.33 60.0734 9.075 60.0734 8.735C60.0734 8.395 59.9684 8.14 59.7584 7.97C59.5484 7.8 59.2384 7.715 58.8284 7.715H56.7434V9.755H58.8284ZM64.3184 3.5V11H62.8934V3.5H64.3184ZM75.6589 7.175C76.3989 7.545 76.7689 8.115 76.7689 8.885C76.7689 9.505 76.5439 10.015 76.0939 10.415C75.6439 10.805 75.0239 11 74.2339 11H70.4689V3.5H74.2339C74.9839 3.5 75.5739 3.695 76.0039 4.085C76.4439 4.465 76.6639 4.95 76.6639 5.54C76.6639 5.89 76.5789 6.21 76.4089 6.5C76.2489 6.78 75.9989 7.005 75.6589 7.175ZM74.0689 6.62C74.4389 6.62 74.7189 6.535 74.9089 6.365C75.0989 6.195 75.1939 5.945 75.1939 5.615C75.1939 5.005 74.8189 4.7 74.0689 4.7H71.8639V6.62H74.0689ZM74.0839 9.8C74.4839 9.8 74.7839 9.715 74.9839 9.545C75.1939 9.365 75.2989 9.11 75.2989 8.78C75.2989 8.47 75.1939 8.235 74.9839 8.075C74.7839 7.905 74.4839 7.82 74.0839 7.82H71.8639V9.8H74.0839ZM85.0945 3.5V11H83.6695V6.38L79.7695 9.68V11H78.3445V3.5H79.7695V8.03L83.6695 4.73V3.5H85.0945ZM94.5948 9.65V12.65H93.2148V11H87.6048V12.65H86.2248V9.65H87.1548C87.5748 9.09 87.8998 8.35 88.1298 7.43C88.3598 6.5 88.4748 5.47 88.4748 4.34V3.5H93.5448V9.65H94.5948ZM92.1498 9.695V4.775H89.8098C89.7398 6.875 89.3398 8.515 88.6098 9.695H92.1498ZM102.691 3.5V11H101.266V6.38L97.3664 9.68V11H95.9414V3.5H97.3664V8.03L101.266 4.73V3.5H102.691ZM110.572 4.85H107.947V11H106.522V4.85H103.897V3.5H110.572V4.85ZM114.638 3.35C115.408 3.35 116.078 3.515 116.648 3.845C117.228 4.175 117.673 4.645 117.983 5.255C118.293 5.855 118.448 6.56 118.448 7.37C118.448 7.58 118.443 7.735 118.433 7.835H112.283C112.383 8.415 112.653 8.895 113.093 9.275C113.543 9.645 114.063 9.83 114.653 9.83C115.623 9.83 116.313 9.475 116.723 8.765H118.193C117.953 9.465 117.508 10.04 116.858 10.49C116.208 10.93 115.473 11.15 114.653 11.15C113.923 11.15 113.263 10.985 112.673 10.655C112.083 10.315 111.623 9.85 111.293 9.26C110.963 8.66 110.798 7.99 110.798 7.25C110.798 6.51 110.963 5.845 111.293 5.255C111.623 4.655 112.078 4.19 112.658 3.86C113.248 3.52 113.908 3.35 114.638 3.35ZM114.608 4.61C114.018 4.61 113.508 4.795 113.078 5.165C112.658 5.535 112.398 6.01 112.298 6.59H116.903C116.843 5.99 116.598 5.51 116.168 5.15C115.748 4.79 115.228 4.61 114.608 4.61ZM130.738 9.635V11H130.138C129.668 11 129.308 10.875 129.058 10.625C128.818 10.365 128.698 9.985 128.698 9.485V8.54C128.698 8.07 128.468 7.835 128.008 7.835H125.353V11H123.928V3.5H125.353V6.605H127.813C128.083 6.605 128.288 6.535 128.428 6.395C128.578 6.255 128.653 6.045 128.653 5.765V4.94C128.653 3.98 129.103 3.5 130.003 3.5H130.648V4.865H130.363C130.253 4.865 130.163 4.9 130.093 4.97C130.033 5.03 130.003 5.115 130.003 5.225V6.035C130.003 6.585 129.803 6.975 129.403 7.205C129.863 7.425 130.093 7.805 130.093 8.345V9.275C130.093 9.385 130.123 9.475 130.183 9.545C130.253 9.605 130.343 9.635 130.453 9.635H130.738ZM136.511 3.35C137.171 3.35 137.771 3.52 138.311 3.86C138.851 4.19 139.276 4.65 139.586 5.24C139.896 5.83 140.051 6.5 140.051 7.25C140.051 8 139.896 8.67 139.586 9.26C139.276 9.85 138.851 10.315 138.311 10.655C137.771 10.985 137.171 11.15 136.511 11.15C136.011 11.15 135.541 11.04 135.101 10.82C134.661 10.59 134.286 10.275 133.976 9.875V13.55H132.551V3.5H133.901V4.715C134.221 4.285 134.606 3.95 135.056 3.71C135.506 3.47 135.991 3.35 136.511 3.35ZM136.271 9.83C136.711 9.83 137.106 9.72 137.456 9.5C137.806 9.28 138.081 8.975 138.281 8.585C138.481 8.185 138.581 7.74 138.581 7.25C138.581 6.76 138.481 6.32 138.281 5.93C138.081 5.53 137.806 5.22 137.456 5C137.106 4.78 136.711 4.67 136.271 4.67C135.831 4.67 135.431 4.78 135.071 5C134.711 5.22 134.431 5.53 134.231 5.93C134.031 6.32 133.931 6.76 133.931 7.25C133.931 7.74 134.031 8.185 134.231 8.585C134.431 8.975 134.711 9.28 135.071 9.5C135.431 9.72 135.831 9.83 136.271 9.83ZM148.378 9.65V11H147.658C147.288 11 146.998 10.91 146.788 10.73C146.578 10.54 146.453 10.27 146.413 9.92C146.093 10.29 145.678 10.59 145.168 10.82C144.668 11.04 144.138 11.15 143.578 11.15C142.768 11.15 142.138 10.95 141.688 10.55C141.248 10.15 141.028 9.615 141.028 8.945C141.028 8.335 141.268 7.815 141.748 7.385C142.228 6.945 142.903 6.68 143.773 6.59L144.613 6.5C145.083 6.45 145.433 6.39 145.663 6.32C145.893 6.24 146.038 6.155 146.098 6.065C146.168 5.975 146.203 5.855 146.203 5.705C146.203 5.365 146.038 5.1 145.708 4.91C145.388 4.71 144.943 4.61 144.373 4.61C144.003 4.61 143.648 4.71 143.308 4.91C142.968 5.1 142.733 5.375 142.603 5.735H141.088C141.228 5.035 141.608 4.465 142.228 4.025C142.848 3.575 143.588 3.35 144.448 3.35C145.398 3.35 146.178 3.61 146.788 4.13C147.398 4.65 147.703 5.395 147.703 6.365V9.245C147.703 9.375 147.738 9.475 147.808 9.545C147.878 9.615 147.973 9.65 148.093 9.65H148.378ZM143.728 9.92C144.198 9.92 144.638 9.825 145.048 9.635C145.458 9.435 145.783 9.175 146.023 8.855C146.273 8.525 146.398 8.175 146.398 7.805V7.13C146.058 7.39 145.518 7.56 144.778 7.64L143.938 7.73C143.378 7.79 142.988 7.925 142.768 8.135C142.548 8.345 142.438 8.61 142.438 8.93C142.438 9.23 142.548 9.47 142.768 9.65C142.998 9.83 143.318 9.92 143.728 9.92ZM149.194 7.25C149.194 6.53 149.369 5.875 149.719 5.285C150.069 4.685 150.549 4.215 151.159 3.875C151.769 3.525 152.444 3.35 153.184 3.35C154.014 3.35 154.759 3.595 155.419 4.085C156.089 4.565 156.529 5.195 156.739 5.975H155.179C155.009 5.575 154.734 5.26 154.354 5.03C153.984 4.79 153.569 4.67 153.109 4.67C152.639 4.67 152.219 4.785 151.849 5.015C151.479 5.235 151.189 5.545 150.979 5.945C150.769 6.335 150.664 6.77 150.664 7.25C150.664 7.73 150.769 8.17 150.979 8.57C151.189 8.96 151.479 9.27 151.849 9.5C152.219 9.72 152.639 9.83 153.109 9.83C153.569 9.83 153.984 9.715 154.354 9.485C154.734 9.245 155.009 8.925 155.179 8.525H156.739C156.529 9.305 156.089 9.94 155.419 10.43C154.759 10.91 154.014 11.15 153.184 11.15C152.444 11.15 151.769 10.98 151.159 10.64C150.549 10.29 150.069 9.82 149.719 9.23C149.369 8.63 149.194 7.97 149.194 7.25ZM164.846 3.5V11H163.421V6.38L159.521 9.68V11H158.096V3.5H159.521V8.03L163.421 4.73V3.5H164.846ZM172.217 7.175C172.957 7.545 173.327 8.115 173.327 8.885C173.327 9.505 173.102 10.015 172.652 10.415C172.202 10.805 171.582 11 170.792 11H167.027V3.5H170.792C171.542 3.5 172.132 3.695 172.562 4.085C173.002 4.465 173.222 4.95 173.222 5.54C173.222 5.89 173.137 6.21 172.967 6.5C172.807 6.78 172.557 7.005 172.217 7.175ZM170.627 6.62C170.997 6.62 171.277 6.535 171.467 6.365C171.657 6.195 171.752 5.945 171.752 5.615C171.752 5.005 171.377 4.7 170.627 4.7H168.422V6.62H170.627ZM170.642 9.8C171.042 9.8 171.342 9.715 171.542 9.545C171.752 9.365 171.857 9.11 171.857 8.78C171.857 8.47 171.752 8.235 171.542 8.075C171.342 7.905 171.042 7.82 170.642 7.82H168.422V9.8H170.642ZM182.001 3.5L178.356 11.84C178.166 12.35 177.901 12.765 177.561 13.085C177.221 13.415 176.721 13.58 176.061 13.58C175.591 13.58 175.226 13.57 174.966 13.55V12.2C175.246 12.22 175.581 12.23 175.971 12.23C176.251 12.23 176.471 12.155 176.631 12.005C176.801 11.855 176.941 11.65 177.051 11.39L177.276 10.865L173.631 3.5H175.296L177.981 9.26L180.501 3.5H182.001ZM189.683 3.35C190.403 3.35 191.058 3.525 191.648 3.875C192.248 4.215 192.718 4.685 193.058 5.285C193.398 5.875 193.568 6.53 193.568 7.25C193.568 7.97 193.398 8.63 193.058 9.23C192.718 9.82 192.248 10.29 191.648 10.64C191.058 10.98 190.403 11.15 189.683 11.15C189.043 11.15 188.448 11.01 187.898 10.73C187.358 10.45 186.908 10.065 186.548 9.575C186.198 9.085 185.978 8.535 185.888 7.925H184.598V11H183.173V3.5H184.598V6.575H185.888C185.978 5.965 186.198 5.415 186.548 4.925C186.908 4.435 187.358 4.05 187.898 3.77C188.448 3.49 189.043 3.35 189.683 3.35ZM189.683 9.83C190.133 9.83 190.543 9.72 190.913 9.5C191.283 9.27 191.573 8.96 191.783 8.57C191.993 8.17 192.098 7.73 192.098 7.25C192.098 6.77 191.993 6.335 191.783 5.945C191.573 5.545 191.283 5.235 190.913 5.015C190.543 4.785 190.133 4.67 189.683 4.67C189.233 4.67 188.818 4.785 188.438 5.015C188.068 5.235 187.773 5.545 187.553 5.945C187.343 6.335 187.238 6.77 187.238 7.25C187.238 7.73 187.343 8.17 187.553 8.57C187.773 8.96 188.068 9.27 188.438 9.5C188.818 9.72 189.233 9.83 189.683 9.83ZM208.342 11H206.917V5.525L204.397 11H202.987L200.467 5.57V11H199.042V3.5H200.992L203.722 9.515L206.422 3.5H208.342V11ZM213.686 3.35C214.456 3.35 215.126 3.515 215.696 3.845C216.276 4.175 216.721 4.645 217.031 5.255C217.341 5.855 217.496 6.56 217.496 7.37C217.496 7.58 217.491 7.735 217.481 7.835H211.331C211.431 8.415 211.701 8.895 212.141 9.275C212.591 9.645 213.111 9.83 213.701 9.83C214.671 9.83 215.361 9.475 215.771 8.765H217.241C217.001 9.465 216.556 10.04 215.906 10.49C215.256 10.93 214.521 11.15 213.701 11.15C212.971 11.15 212.311 10.985 211.721 10.655C211.131 10.315 210.671 9.85 210.341 9.26C210.011 8.66 209.846 7.99 209.846 7.25C209.846 6.51 210.011 5.845 210.341 5.255C210.671 4.655 211.126 4.19 211.706 3.86C212.296 3.52 212.956 3.35 213.686 3.35ZM213.656 4.61C213.066 4.61 212.556 4.795 212.126 5.165C211.706 5.535 211.446 6.01 211.346 6.59H215.951C215.891 5.99 215.646 5.51 215.216 5.15C214.796 4.79 214.276 4.61 213.656 4.61ZM222.567 3.725C223.247 3.725 223.872 3.89 224.442 4.22C225.012 4.54 225.457 4.98 225.777 5.54C226.107 6.1 226.272 6.72 226.272 7.4C226.272 8.09 226.102 8.725 225.762 9.305C225.432 9.875 224.972 10.325 224.382 10.655C223.802 10.985 223.162 11.15 222.462 11.15C221.752 11.15 221.102 10.985 220.512 10.655C219.932 10.315 219.472 9.845 219.132 9.245C218.792 8.645 218.622 7.965 218.622 7.205V4.325C218.622 3.385 218.857 2.68 219.327 2.21C219.807 1.73 220.482 1.435 221.352 1.325L224.037 0.979999C224.287 0.95 224.412 0.825 224.412 0.605V0.424999H225.852V0.784999C225.852 1.195 225.722 1.525 225.462 1.775C225.212 2.015 224.917 2.155 224.577 2.195L221.487 2.6C220.927 2.67 220.512 2.825 220.242 3.065C219.982 3.295 219.852 3.66 219.852 4.16V5.21C220.162 4.74 220.552 4.375 221.022 4.115C221.502 3.855 222.017 3.725 222.567 3.725ZM222.417 9.83C222.857 9.83 223.257 9.725 223.617 9.515C223.987 9.295 224.277 9 224.487 8.63C224.697 8.26 224.802 7.85 224.802 7.4C224.802 6.95 224.697 6.54 224.487 6.17C224.277 5.8 223.987 5.51 223.617 5.3C223.257 5.08 222.857 4.97 222.417 4.97C221.967 4.97 221.557 5.08 221.187 5.3C220.817 5.51 220.527 5.8 220.317 6.17C220.107 6.54 220.002 6.95 220.002 7.4C220.002 7.85 220.107 8.26 220.317 8.63C220.527 9 220.817 9.295 221.187 9.515C221.557 9.725 221.967 9.83 222.417 9.83ZM231.004 3.35C231.774 3.35 232.444 3.515 233.014 3.845C233.594 4.175 234.039 4.645 234.349 5.255C234.659 5.855 234.814 6.56 234.814 7.37C234.814 7.58 234.809 7.735 234.799 7.835H228.649C228.749 8.415 229.019 8.895 229.459 9.275C229.909 9.645 230.429 9.83 231.019 9.83C231.989 9.83 232.679 9.475 233.089 8.765H234.559C234.319 9.465 233.874 10.04 233.224 10.49C232.574 10.93 231.839 11.15 231.019 11.15C230.289 11.15 229.629 10.985 229.039 10.655C228.449 10.315 227.989 9.85 227.659 9.26C227.329 8.66 227.164 7.99 227.164 7.25C227.164 6.51 227.329 5.845 227.659 5.255C227.989 4.655 228.444 4.19 229.024 3.86C229.614 3.52 230.274 3.35 231.004 3.35ZM230.974 4.61C230.384 4.61 229.874 4.795 229.444 5.165C229.024 5.535 228.764 6.01 228.664 6.59H233.269C233.209 5.99 232.964 5.51 232.534 5.15C232.114 4.79 231.594 4.61 230.974 4.61ZM242.724 11H241.299V4.85H238.674C238.664 6.31 238.549 7.495 238.329 8.405C238.109 9.305 237.769 9.97 237.309 10.4C236.859 10.83 236.269 11.045 235.539 11.045C235.369 11.045 235.229 11.03 235.119 11V9.695C235.259 9.715 235.364 9.725 235.434 9.725C235.874 9.725 236.224 9.56 236.484 9.23C236.754 8.89 236.949 8.355 237.069 7.625C237.189 6.885 237.249 5.905 237.249 4.685V3.5H242.724V11ZM248.599 6.47C249.389 6.47 250.004 6.685 250.444 7.115C250.894 7.535 251.119 8.075 251.119 8.735C251.119 9.395 250.894 9.94 250.444 10.37C250.004 10.79 249.389 11 248.599 11H244.894V3.5H246.319V6.47H248.599ZM248.404 9.755C248.814 9.755 249.124 9.67 249.334 9.5C249.544 9.33 249.649 9.075 249.649 8.735C249.649 8.395 249.544 8.14 249.334 7.97C249.124 7.8 248.814 7.715 248.404 7.715H246.319V9.755H248.404ZM253.9 9.35L253.45 12.8H252.4V9.35H253.9ZM266.718 9.635V11H266.118C265.648 11 265.288 10.875 265.038 10.625C264.798 10.365 264.678 9.985 264.678 9.485V8.54C264.678 8.07 264.448 7.835 263.988 7.835H261.333V11H259.908V3.5H261.333V6.605H263.793C264.063 6.605 264.268 6.535 264.408 6.395C264.558 6.255 264.633 6.045 264.633 5.765V4.94C264.633 3.98 265.083 3.5 265.983 3.5H266.628V4.865H266.343C266.233 4.865 266.143 4.9 266.073 4.97C266.013 5.03 265.983 5.115 265.983 5.225V6.035C265.983 6.585 265.783 6.975 265.383 7.205C265.843 7.425 266.073 7.805 266.073 8.345V9.275C266.073 9.385 266.103 9.475 266.163 9.545C266.233 9.605 266.323 9.635 266.433 9.635H266.718ZM271.845 11.15C271.105 11.15 270.43 10.98 269.82 10.64C269.21 10.29 268.73 9.82 268.38 9.23C268.03 8.63 267.855 7.97 267.855 7.25C267.855 6.53 268.03 5.875 268.38 5.285C268.73 4.685 269.21 4.215 269.82 3.875C270.43 3.525 271.105 3.35 271.845 3.35C272.575 3.35 273.24 3.525 273.84 3.875C274.45 4.215 274.93 4.685 275.28 5.285C275.63 5.875 275.805 6.53 275.805 7.25C275.805 7.97 275.63 8.63 275.28 9.23C274.93 9.82 274.45 10.29 273.84 10.64C273.24 10.98 272.575 11.15 271.845 11.15ZM271.845 9.83C272.305 9.83 272.725 9.72 273.105 9.5C273.485 9.27 273.785 8.96 274.005 8.57C274.225 8.17 274.335 7.73 274.335 7.25C274.335 6.77 274.225 6.335 274.005 5.945C273.785 5.545 273.485 5.235 273.105 5.015C272.725 4.785 272.305 4.67 271.845 4.67C271.375 4.67 270.945 4.785 270.555 5.015C270.175 5.235 269.875 5.545 269.655 5.945C269.435 6.335 269.325 6.77 269.325 7.25C269.325 7.73 269.435 8.17 269.655 8.57C269.875 8.96 270.175 9.27 270.555 9.5C270.945 9.72 271.375 9.83 271.845 9.83ZM282.707 4.85H280.082V11H278.657V4.85H276.032V3.5H282.707V4.85ZM286.923 11.15C286.183 11.15 285.508 10.98 284.898 10.64C284.288 10.29 283.808 9.82 283.458 9.23C283.108 8.63 282.933 7.97 282.933 7.25C282.933 6.53 283.108 5.875 283.458 5.285C283.808 4.685 284.288 4.215 284.898 3.875C285.508 3.525 286.183 3.35 286.923 3.35C287.653 3.35 288.318 3.525 288.918 3.875C289.528 4.215 290.008 4.685 290.358 5.285C290.708 5.875 290.883 6.53 290.883 7.25C290.883 7.97 290.708 8.63 290.358 9.23C290.008 9.82 289.528 10.29 288.918 10.64C288.318 10.98 287.653 11.15 286.923 11.15ZM286.923 9.83C287.383 9.83 287.803 9.72 288.183 9.5C288.563 9.27 288.863 8.96 289.083 8.57C289.303 8.17 289.413 7.73 289.413 7.25C289.413 6.77 289.303 6.335 289.083 5.945C288.863 5.545 288.563 5.235 288.183 5.015C287.803 4.785 287.383 4.67 286.923 4.67C286.453 4.67 286.023 4.785 285.633 5.015C285.253 5.235 284.953 5.545 284.733 5.945C284.513 6.335 284.403 6.77 284.403 7.25C284.403 7.73 284.513 8.17 284.733 8.57C284.953 8.96 285.253 9.27 285.633 9.5C286.023 9.72 286.453 9.83 286.923 9.83ZM296.337 3.35C296.997 3.35 297.597 3.52 298.137 3.86C298.677 4.19 299.102 4.65 299.412 5.24C299.722 5.83 299.877 6.5 299.877 7.25C299.877 8 299.722 8.67 299.412 9.26C299.102 9.85 298.677 10.315 298.137 10.655C297.597 10.985 296.997 11.15 296.337 11.15C295.837 11.15 295.367 11.04 294.927 10.82C294.487 10.59 294.112 10.275 293.802 9.875V13.55H292.377V3.5H293.727V4.715C294.047 4.285 294.432 3.95 294.882 3.71C295.332 3.47 295.817 3.35 296.337 3.35ZM296.097 9.83C296.537 9.83 296.932 9.72 297.282 9.5C297.632 9.28 297.907 8.975 298.107 8.585C298.307 8.185 298.407 7.74 298.407 7.25C298.407 6.76 298.307 6.32 298.107 5.93C297.907 5.53 297.632 5.22 297.282 5C296.932 4.78 296.537 4.67 296.097 4.67C295.657 4.67 295.257 4.78 294.897 5C294.537 5.22 294.257 5.53 294.057 5.93C293.857 6.32 293.757 6.76 293.757 7.25C293.757 7.74 293.857 8.185 294.057 8.585C294.257 8.975 294.537 9.28 294.897 9.5C295.257 9.72 295.657 9.83 296.097 9.83ZM308.204 9.65V11H307.484C307.114 11 306.824 10.91 306.614 10.73C306.404 10.54 306.279 10.27 306.239 9.92C305.919 10.29 305.504 10.59 304.994 10.82C304.494 11.04 303.964 11.15 303.404 11.15C302.594 11.15 301.964 10.95 301.514 10.55C301.074 10.15 300.854 9.615 300.854 8.945C300.854 8.335 301.094 7.815 301.574 7.385C302.054 6.945 302.729 6.68 303.599 6.59L304.439 6.5C304.909 6.45 305.259 6.39 305.489 6.32C305.719 6.24 305.864 6.155 305.924 6.065C305.994 5.975 306.029 5.855 306.029 5.705C306.029 5.365 305.864 5.1 305.534 4.91C305.214 4.71 304.769 4.61 304.199 4.61C303.829 4.61 303.474 4.71 303.134 4.91C302.794 5.1 302.559 5.375 302.429 5.735H300.914C301.054 5.035 301.434 4.465 302.054 4.025C302.674 3.575 303.414 3.35 304.274 3.35C305.224 3.35 306.004 3.61 306.614 4.13C307.224 4.65 307.529 5.395 307.529 6.365V9.245C307.529 9.375 307.564 9.475 307.634 9.545C307.704 9.615 307.799 9.65 307.919 9.65H308.204ZM303.554 9.92C304.024 9.92 304.464 9.825 304.874 9.635C305.284 9.435 305.609 9.175 305.849 8.855C306.099 8.525 306.224 8.175 306.224 7.805V7.13C305.884 7.39 305.344 7.56 304.604 7.64L303.764 7.73C303.204 7.79 302.814 7.925 302.594 8.135C302.374 8.345 302.264 8.61 302.264 8.93C302.264 9.23 302.374 9.47 302.594 9.65C302.824 9.83 303.144 9.92 303.554 9.92ZM315.636 11H314.211V8.18H311.751C311.291 8.18 311.061 8.415 311.061 8.885V9.485C311.061 9.985 310.936 10.365 310.686 10.625C310.446 10.875 310.091 11 309.621 11H308.991V9.635H309.276C309.386 9.635 309.471 9.605 309.531 9.545C309.601 9.475 309.636 9.385 309.636 9.275V8.66C309.636 8.1 309.901 7.705 310.431 7.475C310.101 7.285 309.846 7.035 309.666 6.725C309.496 6.415 309.411 6.07 309.411 5.69C309.411 5.05 309.631 4.525 310.071 4.115C310.521 3.705 311.141 3.5 311.931 3.5H315.636V11ZM312.126 4.775C311.716 4.775 311.406 4.87 311.196 5.06C310.986 5.24 310.881 5.505 310.881 5.855C310.881 6.205 310.986 6.475 311.196 6.665C311.406 6.845 311.716 6.935 312.126 6.935H314.211V4.775H312.126ZM7.95 32H6.525V25.85H2.625V32H1.2V24.5H7.95V32ZM14.0903 24.35C14.7503 24.35 15.3503 24.52 15.8903 24.86C16.4303 25.19 16.8553 25.65 17.1653 26.24C17.4753 26.83 17.6303 27.5 17.6303 28.25C17.6303 29 17.4753 29.67 17.1653 30.26C16.8553 30.85 16.4303 31.315 15.8903 31.655C15.3503 31.985 14.7503 32.15 14.0903 32.15C13.5903 32.15 13.1203 32.04 12.6803 31.82C12.2403 31.59 11.8653 31.275 11.5553 30.875V34.55H10.1303V24.5H11.4803V25.715C11.8003 25.285 12.1853 24.95 12.6353 24.71C13.0853 24.47 13.5703 24.35 14.0903 24.35ZM13.8503 30.83C14.2903 30.83 14.6853 30.72 15.0353 30.5C15.3853 30.28 15.6603 29.975 15.8603 29.585C16.0603 29.185 16.1603 28.74 16.1603 28.25C16.1603 27.76 16.0603 27.32 15.8603 26.93C15.6603 26.53 15.3853 26.22 15.0353 26C14.6853 25.78 14.2903 25.67 13.8503 25.67C13.4103 25.67 13.0103 25.78 12.6503 26C12.2903 26.22 12.0103 26.53 11.8103 26.93C11.6103 27.32 11.5103 27.76 11.5103 28.25C11.5103 28.74 11.6103 29.185 11.8103 29.585C12.0103 29.975 12.2903 30.28 12.6503 30.5C13.0103 30.72 13.4103 30.83 13.8503 30.83ZM25.8838 24.5V32H24.4588V27.38L20.5588 30.68V32H19.1338V24.5H20.5588V29.03L24.4588 25.73V24.5H25.8838ZM33.2541 28.175C33.9941 28.545 34.3641 29.115 34.3641 29.885C34.3641 30.505 34.1391 31.015 33.6891 31.415C33.2391 31.805 32.6191 32 31.8291 32H28.0641V24.5H31.8291C32.5791 24.5 33.1691 24.695 33.5991 25.085C34.0391 25.465 34.2591 25.95 34.2591 26.54C34.2591 26.89 34.1741 27.21 34.0041 27.5C33.8441 27.78 33.5941 28.005 33.2541 28.175ZM31.6641 27.62C32.0341 27.62 32.3141 27.535 32.5041 27.365C32.6941 27.195 32.7891 26.945 32.7891 26.615C32.7891 26.005 32.4141 25.7 31.6641 25.7H29.4591V27.62H31.6641ZM31.6791 30.8C32.0791 30.8 32.3791 30.715 32.5791 30.545C32.7891 30.365 32.8941 30.11 32.8941 29.78C32.8941 29.47 32.7891 29.235 32.5791 29.075C32.3791 28.905 32.0791 28.82 31.6791 28.82H29.4591V30.8H31.6791ZM42.4946 32H41.0696V25.85H38.4446C38.4346 27.31 38.3196 28.495 38.0996 29.405C37.8796 30.305 37.5396 30.97 37.0796 31.4C36.6296 31.83 36.0396 32.045 35.3096 32.045C35.1396 32.045 34.9996 32.03 34.8896 32V30.695C35.0296 30.715 35.1346 30.725 35.2046 30.725C35.6446 30.725 35.9946 30.56 36.2546 30.23C36.5246 29.89 36.7196 29.355 36.8396 28.625C36.9596 27.885 37.0196 26.905 37.0196 25.685V24.5H42.4946V32ZM47.8298 24.35C48.5998 24.35 49.2698 24.515 49.8398 24.845C50.4198 25.175 50.8648 25.645 51.1748 26.255C51.4848 26.855 51.6398 27.56 51.6398 28.37C51.6398 28.58 51.6348 28.735 51.6248 28.835H45.4748C45.5748 29.415 45.8448 29.895 46.2848 30.275C46.7348 30.645 47.2548 30.83 47.8448 30.83C48.8148 30.83 49.5048 30.475 49.9148 29.765H51.3848C51.1448 30.465 50.6998 31.04 50.0498 31.49C49.3998 31.93 48.6648 32.15 47.8448 32.15C47.1148 32.15 46.4548 31.985 45.8648 31.655C45.2748 31.315 44.8148 30.85 44.4848 30.26C44.1548 29.66 43.9898 28.99 43.9898 28.25C43.9898 27.51 44.1548 26.845 44.4848 26.255C44.8148 25.655 45.2698 25.19 45.8498 24.86C46.4398 24.52 47.0998 24.35 47.8298 24.35ZM47.7998 25.61C47.2098 25.61 46.6998 25.795 46.2698 26.165C45.8498 26.535 45.5898 27.01 45.4898 27.59H50.0948C50.0348 26.99 49.7898 26.51 49.3598 26.15C48.9398 25.79 48.4198 25.61 47.7998 25.61ZM59.951 30.635V32H59.351C58.881 32 58.521 31.875 58.271 31.625C58.031 31.365 57.911 30.985 57.911 30.485V29.54C57.911 29.07 57.681 28.835 57.221 28.835H54.566V32H53.141V24.5H54.566V27.605H57.026C57.296 27.605 57.501 27.535 57.641 27.395C57.791 27.255 57.866 27.045 57.866 26.765V25.94C57.866 24.98 58.316 24.5 59.216 24.5H59.861V25.865H59.576C59.466 25.865 59.376 25.9 59.306 25.97C59.246 26.03 59.216 26.115 59.216 26.225V27.035C59.216 27.585 59.016 27.975 58.616 28.205C59.076 28.425 59.306 28.805 59.306 29.345V30.275C59.306 30.385 59.336 30.475 59.396 30.545C59.466 30.605 59.556 30.635 59.666 30.635H59.951ZM68.5137 30.65V32H67.7937C67.4237 32 67.1337 31.91 66.9237 31.73C66.7137 31.54 66.5887 31.27 66.5487 30.92C66.2287 31.29 65.8137 31.59 65.3037 31.82C64.8037 32.04 64.2737 32.15 63.7137 32.15C62.9037 32.15 62.2737 31.95 61.8237 31.55C61.3837 31.15 61.1637 30.615 61.1637 29.945C61.1637 29.335 61.4037 28.815 61.8837 28.385C62.3637 27.945 63.0387 27.68 63.9087 27.59L64.7487 27.5C65.2187 27.45 65.5687 27.39 65.7987 27.32C66.0287 27.24 66.1737 27.155 66.2337 27.065C66.3037 26.975 66.3387 26.855 66.3387 26.705C66.3387 26.365 66.1737 26.1 65.8437 25.91C65.5237 25.71 65.0787 25.61 64.5087 25.61C64.1387 25.61 63.7837 25.71 63.4437 25.91C63.1037 26.1 62.8687 26.375 62.7387 26.735H61.2237C61.3637 26.035 61.7437 25.465 62.3637 25.025C62.9837 24.575 63.7237 24.35 64.5837 24.35C65.5337 24.35 66.3137 24.61 66.9237 25.13C67.5337 25.65 67.8387 26.395 67.8387 27.365V30.245C67.8387 30.375 67.8737 30.475 67.9437 30.545C68.0137 30.615 68.1087 30.65 68.2287 30.65H68.5137ZM63.8637 30.92C64.3337 30.92 64.7737 30.825 65.1837 30.635C65.5937 30.435 65.9187 30.175 66.1587 29.855C66.4087 29.525 66.5337 29.175 66.5337 28.805V28.13C66.1937 28.39 65.6537 28.56 64.9137 28.64L64.0737 28.73C63.5137 28.79 63.1237 28.925 62.9037 29.135C62.6837 29.345 62.5737 29.61 62.5737 29.93C62.5737 30.23 62.6837 30.47 62.9037 30.65C63.1337 30.83 63.4537 30.92 63.8637 30.92ZM73.1705 24.35C73.9405 24.35 74.6105 24.515 75.1805 24.845C75.7605 25.175 76.2055 25.645 76.5155 26.255C76.8255 26.855 76.9805 27.56 76.9805 28.37C76.9805 28.58 76.9755 28.735 76.9655 28.835H70.8155C70.9155 29.415 71.1855 29.895 71.6255 30.275C72.0755 30.645 72.5955 30.83 73.1855 30.83C74.1555 30.83 74.8455 30.475 75.2555 29.765H76.7255C76.4855 30.465 76.0405 31.04 75.3905 31.49C74.7405 31.93 74.0055 32.15 73.1855 32.15C72.4555 32.15 71.7955 31.985 71.2055 31.655C70.6155 31.315 70.1555 30.85 69.8255 30.26C69.4955 29.66 69.3305 28.99 69.3305 28.25C69.3305 27.51 69.4955 26.845 69.8255 26.255C70.1555 25.655 70.6105 25.19 71.1905 24.86C71.7805 24.52 72.4405 24.35 73.1705 24.35ZM73.1405 25.61C72.5505 25.61 72.0405 25.795 71.6105 26.165C71.1905 26.535 70.9305 27.01 70.8305 27.59H75.4355C75.3755 26.99 75.1305 26.51 74.7005 26.15C74.2805 25.79 73.7605 25.61 73.1405 25.61ZM83.8887 25.85H81.2637V32H79.8387V25.85H77.2137V24.5H83.8887V25.85ZM94.2519 28.175C94.9919 28.545 95.3619 29.115 95.3619 29.885C95.3619 30.505 95.1369 31.015 94.6869 31.415C94.2369 31.805 93.6169 32 92.8269 32H89.0619V24.5H92.8269C93.5769 24.5 94.1669 24.695 94.5969 25.085C95.0369 25.465 95.2569 25.95 95.2569 26.54C95.2569 26.89 95.1719 27.21 95.0019 27.5C94.8419 27.78 94.5919 28.005 94.2519 28.175ZM92.6619 27.62C93.0319 27.62 93.3119 27.535 93.5019 27.365C93.6919 27.195 93.7869 26.945 93.7869 26.615C93.7869 26.005 93.4119 25.7 92.6619 25.7H90.4569V27.62H92.6619ZM92.6769 30.8C93.0769 30.8 93.3769 30.715 93.5769 30.545C93.7869 30.365 93.8919 30.11 93.8919 29.78C93.8919 29.47 93.7869 29.235 93.5769 29.075C93.3769 28.905 93.0769 28.82 92.6769 28.82H90.4569V30.8H92.6769ZM103.688 24.5V32H102.263V28.925H98.3625V32H96.9375V24.5H98.3625V27.575H102.263V24.5H103.688ZM112.618 24.5V32H111.193V27.38L107.293 30.68V32H105.868V24.5H107.293V29.03L111.193 25.73V24.5H112.618ZM124.098 32H122.673V26.525L120.153 32H118.743L116.223 26.57V32H114.798V24.5H116.748L119.478 30.515L122.178 24.5H124.098V32ZM133.027 30.65V32H132.307C131.937 32 131.647 31.91 131.437 31.73C131.227 31.54 131.102 31.27 131.062 30.92C130.742 31.29 130.327 31.59 129.817 31.82C129.317 32.04 128.787 32.15 128.227 32.15C127.417 32.15 126.787 31.95 126.337 31.55C125.897 31.15 125.677 30.615 125.677 29.945C125.677 29.335 125.917 28.815 126.397 28.385C126.877 27.945 127.552 27.68 128.422 27.59L129.262 27.5C129.732 27.45 130.082 27.39 130.312 27.32C130.542 27.24 130.687 27.155 130.747 27.065C130.817 26.975 130.852 26.855 130.852 26.705C130.852 26.365 130.687 26.1 130.357 25.91C130.037 25.71 129.592 25.61 129.022 25.61C128.652 25.61 128.297 25.71 127.957 25.91C127.617 26.1 127.382 26.375 127.252 26.735H125.737C125.877 26.035 126.257 25.465 126.877 25.025C127.497 24.575 128.237 24.35 129.097 24.35C130.047 24.35 130.827 24.61 131.437 25.13C132.047 25.65 132.352 26.395 132.352 27.365V30.245C132.352 30.375 132.387 30.475 132.457 30.545C132.527 30.615 132.622 30.65 132.742 30.65H133.027ZM128.377 30.92C128.847 30.92 129.287 30.825 129.697 30.635C130.107 30.435 130.432 30.175 130.672 29.855C130.922 29.525 131.047 29.175 131.047 28.805V28.13C130.707 28.39 130.167 28.56 129.427 28.64L128.587 28.73C128.027 28.79 127.637 28.925 127.417 29.135C127.197 29.345 127.087 29.61 127.087 29.93C127.087 30.23 127.197 30.47 127.417 30.65C127.647 30.83 127.967 30.92 128.377 30.92ZM141.269 24.5V32H139.844V28.925H135.944V32H134.519V24.5H135.944V27.575H139.844V24.5H141.269ZM150.199 24.5V32H148.774V27.38L144.874 30.68V32H143.449V24.5H144.874V29.03L148.774 25.73V24.5H150.199ZM155.544 24.35C156.314 24.35 156.984 24.515 157.554 24.845C158.134 25.175 158.579 25.645 158.889 26.255C159.199 26.855 159.354 27.56 159.354 28.37C159.354 28.58 159.349 28.735 159.339 28.835H153.189C153.289 29.415 153.559 29.895 153.999 30.275C154.449 30.645 154.969 30.83 155.559 30.83C156.529 30.83 157.219 30.475 157.629 29.765H159.099C158.859 30.465 158.414 31.04 157.764 31.49C157.114 31.93 156.379 32.15 155.559 32.15C154.829 32.15 154.169 31.985 153.579 31.655C152.989 31.315 152.529 30.85 152.199 30.26C151.869 29.66 151.704 28.99 151.704 28.25C151.704 27.51 151.869 26.845 152.199 26.255C152.529 25.655 152.984 25.19 153.564 24.86C154.154 24.52 154.814 24.35 155.544 24.35ZM155.514 25.61C154.924 25.61 154.414 25.795 153.984 26.165C153.564 26.535 153.304 27.01 153.204 27.59H157.809C157.749 26.99 157.504 26.51 157.074 26.15C156.654 25.79 156.134 25.61 155.514 25.61ZM162.206 30.35L161.756 33.8H160.706V30.35H162.206ZM173.403 28.175C174.143 28.545 174.513 29.115 174.513 29.885C174.513 30.505 174.288 31.015 173.838 31.415C173.388 31.805 172.768 32 171.978 32H168.213V24.5H171.978C172.728 24.5 173.318 24.695 173.748 25.085C174.188 25.465 174.408 25.95 174.408 26.54C174.408 26.89 174.323 27.21 174.153 27.5C173.993 27.78 173.743 28.005 173.403 28.175ZM171.813 27.62C172.183 27.62 172.463 27.535 172.653 27.365C172.843 27.195 172.938 26.945 172.938 26.615C172.938 26.005 172.563 25.7 171.813 25.7H169.608V27.62H171.813ZM171.828 30.8C172.228 30.8 172.528 30.715 172.728 30.545C172.938 30.365 173.043 30.11 173.043 29.78C173.043 29.47 172.938 29.235 172.728 29.075C172.528 28.905 172.228 28.82 171.828 28.82H169.608V30.8H171.828ZM179.794 27.47C180.584 27.47 181.199 27.685 181.639 28.115C182.089 28.535 182.314 29.075 182.314 29.735C182.314 30.395 182.089 30.94 181.639 31.37C181.199 31.79 180.584 32 179.794 32H176.089V24.5H177.514V27.47H179.794ZM179.599 30.755C180.009 30.755 180.319 30.67 180.529 30.5C180.739 30.33 180.844 30.075 180.844 29.735C180.844 29.395 180.739 29.14 180.529 28.97C180.319 28.8 180.009 28.715 179.599 28.715H177.514V30.755H179.599ZM185.089 24.5V32H183.664V24.5H185.089ZM197.089 24.5V32H195.664V29.09H193.264C192.494 29.09 191.889 28.865 191.449 28.415C191.009 27.965 190.789 27.39 190.789 26.69V24.5H192.214V26.645C192.214 27.035 192.314 27.325 192.514 27.515C192.724 27.705 193.049 27.8 193.489 27.8H195.664V24.5H197.089ZM206.507 24.5L202.862 32.84C202.672 33.35 202.407 33.765 202.067 34.085C201.727 34.415 201.227 34.58 200.567 34.58C200.097 34.58 199.732 34.57 199.472 34.55V33.2C199.752 33.22 200.087 33.23 200.477 33.23C200.757 33.23 200.977 33.155 201.137 33.005C201.307 32.855 201.447 32.65 201.557 32.39L201.782 31.865L198.137 24.5H199.802L202.487 30.26L205.007 24.5H206.507ZM212.869 28.175C213.609 28.545 213.979 29.115 213.979 29.885C213.979 30.505 213.754 31.015 213.304 31.415C212.854 31.805 212.234 32 211.444 32H207.679V24.5H211.444C212.194 24.5 212.784 24.695 213.214 25.085C213.654 25.465 213.874 25.95 213.874 26.54C213.874 26.89 213.789 27.21 213.619 27.5C213.459 27.78 213.209 28.005 212.869 28.175ZM211.279 27.62C211.649 27.62 211.929 27.535 212.119 27.365C212.309 27.195 212.404 26.945 212.404 26.615C212.404 26.005 212.029 25.7 211.279 25.7H209.074V27.62H211.279ZM211.294 30.8C211.694 30.8 211.994 30.715 212.194 30.545C212.404 30.365 212.509 30.11 212.509 29.78C212.509 29.47 212.404 29.235 212.194 29.075C211.994 28.905 211.694 28.82 211.294 28.82H209.074V30.8H211.294ZM214.733 28.25C214.733 27.53 214.908 26.875 215.258 26.285C215.608 25.685 216.088 25.215 216.698 24.875C217.308 24.525 217.983 24.35 218.723 24.35C219.553 24.35 220.298 24.595 220.958 25.085C221.628 25.565 222.068 26.195 222.278 26.975H220.718C220.548 26.575 220.273 26.26 219.893 26.03C219.523 25.79 219.108 25.67 218.648 25.67C218.178 25.67 217.758 25.785 217.388 26.015C217.018 26.235 216.728 26.545 216.518 26.945C216.308 27.335 216.203 27.77 216.203 28.25C216.203 28.73 216.308 29.17 216.518 29.57C216.728 29.96 217.018 30.27 217.388 30.5C217.758 30.72 218.178 30.83 218.648 30.83C219.108 30.83 219.523 30.715 219.893 30.485C220.273 30.245 220.548 29.925 220.718 29.525H222.278C222.068 30.305 221.628 30.94 220.958 31.43C220.298 31.91 219.553 32.15 218.723 32.15C217.983 32.15 217.308 31.98 216.698 31.64C216.088 31.29 215.608 30.82 215.258 30.23C214.908 29.63 214.733 28.97 214.733 28.25ZM229.042 25.85H226.417V32H224.992V25.85H222.367V24.5H229.042V25.85ZM235.427 28.175C236.167 28.545 236.537 29.115 236.537 29.885C236.537 30.505 236.312 31.015 235.862 31.415C235.412 31.805 234.792 32 234.002 32H230.237V24.5H234.002C234.752 24.5 235.342 24.695 235.772 25.085C236.212 25.465 236.432 25.95 236.432 26.54C236.432 26.89 236.347 27.21 236.177 27.5C236.017 27.78 235.767 28.005 235.427 28.175ZM233.837 27.62C234.207 27.62 234.487 27.535 234.677 27.365C234.867 27.195 234.962 26.945 234.962 26.615C234.962 26.005 234.587 25.7 233.837 25.7H231.632V27.62H233.837ZM233.852 30.8C234.252 30.8 234.552 30.715 234.752 30.545C234.962 30.365 235.067 30.11 235.067 29.78C235.067 29.47 234.962 29.235 234.752 29.075C234.552 28.905 234.252 28.82 233.852 28.82H231.632V30.8H233.852ZM245.211 24.5L241.566 32.84C241.376 33.35 241.111 33.765 240.771 34.085C240.431 34.415 239.931 34.58 239.271 34.58C238.801 34.58 238.436 34.57 238.176 34.55V33.2C238.456 33.22 238.791 33.23 239.181 33.23C239.461 33.23 239.681 33.155 239.841 33.005C240.011 32.855 240.151 32.65 240.261 32.39L240.486 31.865L236.841 24.5H238.506L241.191 30.26L243.711 24.5H245.211ZM249.255 24.35C250.025 24.35 250.695 24.515 251.265 24.845C251.845 25.175 252.29 25.645 252.6 26.255C252.91 26.855 253.065 27.56 253.065 28.37C253.065 28.58 253.06 28.735 253.05 28.835H246.9C247 29.415 247.27 29.895 247.71 30.275C248.16 30.645 248.68 30.83 249.27 30.83C250.24 30.83 250.93 30.475 251.34 29.765H252.81C252.57 30.465 252.125 31.04 251.475 31.49C250.825 31.93 250.09 32.15 249.27 32.15C248.54 32.15 247.88 31.985 247.29 31.655C246.7 31.315 246.24 30.85 245.91 30.26C245.58 29.66 245.415 28.99 245.415 28.25C245.415 27.51 245.58 26.845 245.91 26.255C246.24 25.655 246.695 25.19 247.275 24.86C247.865 24.52 248.525 24.35 249.255 24.35ZM249.225 25.61C248.635 25.61 248.125 25.795 247.695 26.165C247.275 26.535 247.015 27.01 246.915 27.59H251.52C251.46 26.99 251.215 26.51 250.785 26.15C250.365 25.79 249.845 25.61 249.225 25.61ZM259.973 25.85H257.348V32H255.923V25.85H253.298V24.5H259.973V25.85ZM264.04 24.35C264.81 24.35 265.48 24.515 266.05 24.845C266.63 25.175 267.075 25.645 267.385 26.255C267.695 26.855 267.85 27.56 267.85 28.37C267.85 28.58 267.845 28.735 267.835 28.835H261.685C261.785 29.415 262.055 29.895 262.495 30.275C262.945 30.645 263.465 30.83 264.055 30.83C265.025 30.83 265.715 30.475 266.125 29.765H267.595C267.355 30.465 266.91 31.04 266.26 31.49C265.61 31.93 264.875 32.15 264.055 32.15C263.325 32.15 262.665 31.985 262.075 31.655C261.485 31.315 261.025 30.85 260.695 30.26C260.365 29.66 260.2 28.99 260.2 28.25C260.2 27.51 260.365 26.845 260.695 26.255C261.025 25.655 261.48 25.19 262.06 24.86C262.65 24.52 263.31 24.35 264.04 24.35ZM264.01 25.61C263.42 25.61 262.91 25.795 262.48 26.165C262.06 26.535 261.8 27.01 261.7 27.59H266.305C266.245 26.99 266 26.51 265.57 26.15C265.15 25.79 264.63 25.61 264.01 25.61ZM272.655 28.25C272.655 27.53 272.83 26.875 273.18 26.285C273.53 25.685 274.01 25.215 274.62 24.875C275.23 24.525 275.905 24.35 276.645 24.35C277.475 24.35 278.22 24.595 278.88 25.085C279.55 25.565 279.99 26.195 280.2 26.975H278.64C278.47 26.575 278.195 26.26 277.815 26.03C277.445 25.79 277.03 25.67 276.57 25.67C276.1 25.67 275.68 25.785 275.31 26.015C274.94 26.235 274.65 26.545 274.44 26.945C274.23 27.335 274.125 27.77 274.125 28.25C274.125 28.73 274.23 29.17 274.44 29.57C274.65 29.96 274.94 30.27 275.31 30.5C275.68 30.72 276.1 30.83 276.57 30.83C277.03 30.83 277.445 30.715 277.815 30.485C278.195 30.245 278.47 29.925 278.64 29.525H280.2C279.99 30.305 279.55 30.94 278.88 31.43C278.22 31.91 277.475 32.15 276.645 32.15C275.905 32.15 275.23 31.98 274.62 31.64C274.01 31.29 273.53 30.82 273.18 30.23C272.83 29.63 272.655 28.97 272.655 28.25ZM284.795 24.35C285.565 24.35 286.235 24.515 286.805 24.845C287.385 25.175 287.83 25.645 288.14 26.255C288.45 26.855 288.605 27.56 288.605 28.37C288.605 28.58 288.6 28.735 288.59 28.835H282.44C282.54 29.415 282.81 29.895 283.25 30.275C283.7 30.645 284.22 30.83 284.81 30.83C285.78 30.83 286.47 30.475 286.88 29.765H288.35C288.11 30.465 287.665 31.04 287.015 31.49C286.365 31.93 285.63 32.15 284.81 32.15C284.08 32.15 283.42 31.985 282.83 31.655C282.24 31.315 281.78 30.85 281.45 30.26C281.12 29.66 280.955 28.99 280.955 28.25C280.955 27.51 281.12 26.845 281.45 26.255C281.78 25.655 282.235 25.19 282.815 24.86C283.405 24.52 284.065 24.35 284.795 24.35ZM284.765 25.61C284.175 25.61 283.665 25.795 283.235 26.165C282.815 26.535 282.555 27.01 282.455 27.59H287.06C287 26.99 286.755 26.51 286.325 26.15C285.905 25.79 285.385 25.61 284.765 25.61ZM293.676 24.725C294.356 24.725 294.981 24.89 295.551 25.22C296.121 25.54 296.566 25.98 296.886 26.54C297.216 27.1 297.381 27.72 297.381 28.4C297.381 29.09 297.211 29.725 296.871 30.305C296.541 30.875 296.081 31.325 295.491 31.655C294.911 31.985 294.271 32.15 293.571 32.15C292.861 32.15 292.211 31.985 291.621 31.655C291.041 31.315 290.581 30.845 290.241 30.245C289.901 29.645 289.731 28.965 289.731 28.205V25.325C289.731 24.385 289.966 23.68 290.436 23.21C290.916 22.73 291.591 22.435 292.461 22.325L295.146 21.98C295.396 21.95 295.521 21.825 295.521 21.605V21.425H296.961V21.785C296.961 22.195 296.831 22.525 296.571 22.775C296.321 23.015 296.026 23.155 295.686 23.195L292.596 23.6C292.036 23.67 291.621 23.825 291.351 24.065C291.091 24.295 290.961 24.66 290.961 25.16V26.21C291.271 25.74 291.661 25.375 292.131 25.115C292.611 24.855 293.126 24.725 293.676 24.725ZM293.526 30.83C293.966 30.83 294.366 30.725 294.726 30.515C295.096 30.295 295.386 30 295.596 29.63C295.806 29.26 295.911 28.85 295.911 28.4C295.911 27.95 295.806 27.54 295.596 27.17C295.386 26.8 295.096 26.51 294.726 26.3C294.366 26.08 293.966 25.97 293.526 25.97C293.076 25.97 292.666 26.08 292.296 26.3C291.926 26.51 291.636 26.8 291.426 27.17C291.216 27.54 291.111 27.95 291.111 28.4C291.111 28.85 291.216 29.26 291.426 29.63C291.636 30 291.926 30.295 292.296 30.515C292.666 30.725 293.076 30.83 293.526 30.83ZM304.816 32H303.391V29.18H300.931C300.471 29.18 300.241 29.415 300.241 29.885V30.485C300.241 30.985 300.116 31.365 299.866 31.625C299.626 31.875 299.271 32 298.801 32H298.171V30.635H298.456C298.566 30.635 298.651 30.605 298.711 30.545C298.781 30.475 298.816 30.385 298.816 30.275V29.66C298.816 29.1 299.081 28.705 299.611 28.475C299.281 28.285 299.026 28.035 298.846 27.725C298.676 27.415 298.591 27.07 298.591 26.69C298.591 26.05 298.811 25.525 299.251 25.115C299.701 24.705 300.321 24.5 301.111 24.5H304.816V32ZM301.306 25.775C300.896 25.775 300.586 25.87 300.376 26.06C300.166 26.24 300.061 26.505 300.061 26.855C300.061 27.205 300.166 27.475 300.376 27.665C300.586 27.845 300.896 27.935 301.306 27.935H303.391V25.775H301.306ZM0.525 49.25C0.525 48.53 0.7 47.875 1.05 47.285C1.4 46.685 1.88 46.215 2.49 45.875C3.1 45.525 3.775 45.35 4.515 45.35C5.345 45.35 6.09 45.595 6.75 46.085C7.42 46.565 7.86 47.195 8.07 47.975H6.51C6.34 47.575 6.065 47.26 5.685 47.03C5.315 46.79 4.9 46.67 4.44 46.67C3.97 46.67 3.55 46.785 3.18 47.015C2.81 47.235 2.52 47.545 2.31 47.945C2.1 48.335 1.995 48.77 1.995 49.25C1.995 49.73 2.1 50.17 2.31 50.57C2.52 50.96 2.81 51.27 3.18 51.5C3.55 51.72 3.97 51.83 4.44 51.83C4.9 51.83 5.315 51.715 5.685 51.485C6.065 51.245 6.34 50.925 6.51 50.525H8.07C7.86 51.305 7.42 51.94 6.75 52.43C6.09 52.91 5.345 53.15 4.515 53.15C3.775 53.15 3.1 52.98 2.49 52.64C1.88 52.29 1.4 51.82 1.05 51.23C0.7 50.63 0.525 49.97 0.525 49.25ZM15.2771 45.5V53H13.8521V50.09H11.4521C10.6821 50.09 10.0771 49.865 9.63715 49.415C9.19715 48.965 8.97715 48.39 8.97715 47.69V45.5H10.4021V47.645C10.4021 48.035 10.5021 48.325 10.7021 48.515C10.9121 48.705 11.2371 48.8 11.6771 48.8H13.8521V45.5H15.2771ZM24.1992 51.65V53H23.4792C23.1092 53 22.8192 52.91 22.6092 52.73C22.3992 52.54 22.2742 52.27 22.2342 51.92C21.9142 52.29 21.4992 52.59 20.9892 52.82C20.4892 53.04 19.9592 53.15 19.3992 53.15C18.5892 53.15 17.9592 52.95 17.5092 52.55C17.0692 52.15 16.8492 51.615 16.8492 50.945C16.8492 50.335 17.0892 49.815 17.5692 49.385C18.0492 48.945 18.7242 48.68 19.5942 48.59L20.4342 48.5C20.9042 48.45 21.2542 48.39 21.4842 48.32C21.7142 48.24 21.8592 48.155 21.9192 48.065C21.9892 47.975 22.0242 47.855 22.0242 47.705C22.0242 47.365 21.8592 47.1 21.5292 46.91C21.2092 46.71 20.7642 46.61 20.1942 46.61C19.8242 46.61 19.4692 46.71 19.1292 46.91C18.7892 47.1 18.5542 47.375 18.4242 47.735H16.9092C17.0492 47.035 17.4292 46.465 18.0492 46.025C18.6692 45.575 19.4092 45.35 20.2692 45.35C21.2192 45.35 21.9992 45.61 22.6092 46.13C23.2192 46.65 23.5242 47.395 23.5242 48.365V51.245C23.5242 51.375 23.5592 51.475 23.6292 51.545C23.6992 51.615 23.7942 51.65 23.9142 51.65H24.1992ZM19.5492 51.92C20.0192 51.92 20.4592 51.825 20.8692 51.635C21.2792 51.435 21.6042 51.175 21.8442 50.855C22.0942 50.525 22.2192 50.175 22.2192 49.805V49.13C21.8792 49.39 21.3392 49.56 20.5992 49.64L19.7592 49.73C19.1992 49.79 18.8092 49.925 18.5892 50.135C18.3692 50.345 18.2592 50.61 18.2592 50.93C18.2592 51.23 18.3692 51.47 18.5892 51.65C18.8192 51.83 19.1392 51.92 19.5492 51.92ZM25.016 49.25C25.016 48.53 25.191 47.875 25.541 47.285C25.891 46.685 26.371 46.215 26.981 45.875C27.591 45.525 28.266 45.35 29.006 45.35C29.836 45.35 30.581 45.595 31.241 46.085C31.911 46.565 32.351 47.195 32.561 47.975H31.001C30.831 47.575 30.556 47.26 30.176 47.03C29.806 46.79 29.391 46.67 28.931 46.67C28.461 46.67 28.041 46.785 27.671 47.015C27.301 47.235 27.011 47.545 26.801 47.945C26.591 48.335 26.486 48.77 26.486 49.25C26.486 49.73 26.591 50.17 26.801 50.57C27.011 50.96 27.301 51.27 27.671 51.5C28.041 51.72 28.461 51.83 28.931 51.83C29.391 51.83 29.806 51.715 30.176 51.485C30.556 51.245 30.831 50.925 31.001 50.525H32.561C32.351 51.305 31.911 51.94 31.241 52.43C30.581 52.91 29.836 53.15 29.006 53.15C28.266 53.15 27.591 52.98 26.981 52.64C26.371 52.29 25.891 51.82 25.541 51.23C25.191 50.63 25.016 49.97 25.016 49.25ZM39.3252 46.85H36.7002V53H35.2752V46.85H32.6502V45.5H39.3252V46.85ZM46.6202 53H45.1952V46.85H42.5702C42.5602 48.31 42.4452 49.495 42.2252 50.405C42.0052 51.305 41.6652 51.97 41.2052 52.4C40.7552 52.83 40.1652 53.045 39.4352 53.045C39.2652 53.045 39.1252 53.03 39.0152 53V51.695C39.1552 51.715 39.2602 51.725 39.3302 51.725C39.7702 51.725 40.1202 51.56 40.3802 51.23C40.6502 50.89 40.8452 50.355 40.9652 49.625C41.0852 48.885 41.1452 47.905 41.1452 46.685V45.5H46.6202V53ZM55.5404 45.5V53H54.1154V48.38L50.2154 51.68V53H48.7904V45.5H50.2154V50.03L54.1154 46.73V45.5H55.5404ZM62.9107 49.175C63.6507 49.545 64.0207 50.115 64.0207 50.885C64.0207 51.505 63.7957 52.015 63.3457 52.415C62.8957 52.805 62.2757 53 61.4857 53H57.7207V45.5H61.4857C62.2357 45.5 62.8257 45.695 63.2557 46.085C63.6957 46.465 63.9157 46.95 63.9157 47.54C63.9157 47.89 63.8307 48.21 63.6607 48.5C63.5007 48.78 63.2507 49.005 62.9107 49.175ZM61.3207 48.62C61.6907 48.62 61.9707 48.535 62.1607 48.365C62.3507 48.195 62.4457 47.945 62.4457 47.615C62.4457 47.005 62.0707 46.7 61.3207 46.7H59.1157V48.62H61.3207ZM61.3357 51.8C61.7357 51.8 62.0357 51.715 62.2357 51.545C62.4457 51.365 62.5507 51.11 62.5507 50.78C62.5507 50.47 62.4457 50.235 62.2357 50.075C62.0357 49.905 61.7357 49.82 61.3357 49.82H59.1157V51.8H61.3357ZM69.3013 48.47C70.0913 48.47 70.7063 48.685 71.1463 49.115C71.5963 49.535 71.8213 50.075 71.8213 50.735C71.8213 51.395 71.5963 51.94 71.1463 52.37C70.7063 52.79 70.0913 53 69.3013 53H65.5963V45.5H67.0213V48.47H69.3013ZM69.1063 51.755C69.5163 51.755 69.8263 51.67 70.0363 51.5C70.2463 51.33 70.3513 51.075 70.3513 50.735C70.3513 50.395 70.2463 50.14 70.0363 49.97C69.8263 49.8 69.5163 49.715 69.1063 49.715H67.0213V51.755H69.1063ZM74.5963 45.5V53H73.1713V45.5H74.5963ZM86.0678 53H84.6428V47.525L82.1228 53H80.7128L78.1928 47.57V53H76.7678V45.5H78.7178L81.4478 51.515L84.1478 45.5H86.0678V53ZM98.976 45.5V53H97.551V48.38L93.651 51.68V53H92.226V45.5H93.651V50.03L97.551 46.73V45.5H98.976ZM109.095 45.35C109.755 45.35 110.355 45.52 110.895 45.86C111.435 46.19 111.86 46.65 112.17 47.24C112.48 47.83 112.635 48.5 112.635 49.25C112.635 50 112.48 50.67 112.17 51.26C111.86 51.85 111.435 52.315 110.895 52.655C110.355 52.985 109.755 53.15 109.095 53.15C108.595 53.15 108.125 53.04 107.685 52.82C107.245 52.59 106.87 52.275 106.56 51.875V55.55H105.135V45.5H106.485V46.715C106.805 46.285 107.19 45.95 107.64 45.71C108.09 45.47 108.575 45.35 109.095 45.35ZM108.855 51.83C109.295 51.83 109.69 51.72 110.04 51.5C110.39 51.28 110.665 50.975 110.865 50.585C111.065 50.185 111.165 49.74 111.165 49.25C111.165 48.76 111.065 48.32 110.865 47.93C110.665 47.53 110.39 47.22 110.04 47C109.69 46.78 109.295 46.67 108.855 46.67C108.415 46.67 108.015 46.78 107.655 47C107.295 47.22 107.015 47.53 106.815 47.93C106.615 48.32 106.515 48.76 106.515 49.25C106.515 49.74 106.615 50.185 106.815 50.585C107.015 50.975 107.295 51.28 107.655 51.5C108.015 51.72 108.415 51.83 108.855 51.83ZM120.962 51.65V53H120.242C119.872 53 119.582 52.91 119.372 52.73C119.162 52.54 119.037 52.27 118.997 51.92C118.677 52.29 118.262 52.59 117.752 52.82C117.252 53.04 116.722 53.15 116.162 53.15C115.352 53.15 114.722 52.95 114.272 52.55C113.832 52.15 113.612 51.615 113.612 50.945C113.612 50.335 113.852 49.815 114.332 49.385C114.812 48.945 115.487 48.68 116.357 48.59L117.197 48.5C117.667 48.45 118.017 48.39 118.247 48.32C118.477 48.24 118.622 48.155 118.682 48.065C118.752 47.975 118.787 47.855 118.787 47.705C118.787 47.365 118.622 47.1 118.292 46.91C117.972 46.71 117.527 46.61 116.957 46.61C116.587 46.61 116.232 46.71 115.892 46.91C115.552 47.1 115.317 47.375 115.187 47.735H113.672C113.812 47.035 114.192 46.465 114.812 46.025C115.432 45.575 116.172 45.35 117.032 45.35C117.982 45.35 118.762 45.61 119.372 46.13C119.982 46.65 120.287 47.395 120.287 48.365V51.245C120.287 51.375 120.322 51.475 120.392 51.545C120.462 51.615 120.557 51.65 120.677 51.65H120.962ZM116.312 51.92C116.782 51.92 117.222 51.825 117.632 51.635C118.042 51.435 118.367 51.175 118.607 50.855C118.857 50.525 118.982 50.175 118.982 49.805V49.13C118.642 49.39 118.102 49.56 117.362 49.64L116.522 49.73C115.962 49.79 115.572 49.925 115.352 50.135C115.132 50.345 115.022 50.61 115.022 50.93C115.022 51.23 115.132 51.47 115.352 51.65C115.582 51.83 115.902 51.92 116.312 51.92ZM121.779 49.25C121.779 48.53 121.954 47.875 122.304 47.285C122.654 46.685 123.134 46.215 123.744 45.875C124.354 45.525 125.029 45.35 125.769 45.35C126.599 45.35 127.344 45.595 128.004 46.085C128.674 46.565 129.114 47.195 129.324 47.975H127.764C127.594 47.575 127.319 47.26 126.939 47.03C126.569 46.79 126.154 46.67 125.694 46.67C125.224 46.67 124.804 46.785 124.434 47.015C124.064 47.235 123.774 47.545 123.564 47.945C123.354 48.335 123.249 48.77 123.249 49.25C123.249 49.73 123.354 50.17 123.564 50.57C123.774 50.96 124.064 51.27 124.434 51.5C124.804 51.72 125.224 51.83 125.694 51.83C126.154 51.83 126.569 51.715 126.939 51.485C127.319 51.245 127.594 50.925 127.764 50.525H129.324C129.114 51.305 128.674 51.94 128.004 52.43C127.344 52.91 126.599 53.15 125.769 53.15C125.029 53.15 124.354 52.98 123.744 52.64C123.134 52.29 122.654 51.82 122.304 51.23C121.954 50.63 121.779 49.97 121.779 49.25ZM130.079 49.25C130.079 48.53 130.254 47.875 130.604 47.285C130.954 46.685 131.434 46.215 132.044 45.875C132.654 45.525 133.329 45.35 134.069 45.35C134.899 45.35 135.644 45.595 136.304 46.085C136.974 46.565 137.414 47.195 137.624 47.975H136.064C135.894 47.575 135.619 47.26 135.239 47.03C134.869 46.79 134.454 46.67 133.994 46.67C133.524 46.67 133.104 46.785 132.734 47.015C132.364 47.235 132.074 47.545 131.864 47.945C131.654 48.335 131.549 48.77 131.549 49.25C131.549 49.73 131.654 50.17 131.864 50.57C132.074 50.96 132.364 51.27 132.734 51.5C133.104 51.72 133.524 51.83 133.994 51.83C134.454 51.83 134.869 51.715 135.239 51.485C135.619 51.245 135.894 50.925 136.064 50.525H137.624C137.414 51.305 136.974 51.94 136.304 52.43C135.644 52.91 134.899 53.15 134.069 53.15C133.329 53.15 132.654 52.98 132.044 52.64C131.434 52.29 130.954 51.82 130.604 51.23C130.254 50.63 130.079 49.97 130.079 49.25ZM145.39 53H143.965V46.85H141.34C141.33 48.31 141.215 49.495 140.995 50.405C140.775 51.305 140.435 51.97 139.975 52.4C139.525 52.83 138.935 53.045 138.205 53.045C138.035 53.045 137.895 53.03 137.785 53V51.695C137.925 51.715 138.03 51.725 138.1 51.725C138.54 51.725 138.89 51.56 139.15 51.23C139.42 50.89 139.615 50.355 139.735 49.625C139.855 48.885 139.915 47.905 139.915 46.685V45.5H145.39V53ZM154.31 51.65V53H153.59C153.22 53 152.93 52.91 152.72 52.73C152.51 52.54 152.385 52.27 152.345 51.92C152.025 52.29 151.61 52.59 151.1 52.82C150.6 53.04 150.07 53.15 149.51 53.15C148.7 53.15 148.07 52.95 147.62 52.55C147.18 52.15 146.96 51.615 146.96 50.945C146.96 50.335 147.2 49.815 147.68 49.385C148.16 48.945 148.835 48.68 149.705 48.59L150.545 48.5C151.015 48.45 151.365 48.39 151.595 48.32C151.825 48.24 151.97 48.155 152.03 48.065C152.1 47.975 152.135 47.855 152.135 47.705C152.135 47.365 151.97 47.1 151.64 46.91C151.32 46.71 150.875 46.61 150.305 46.61C149.935 46.61 149.58 46.71 149.24 46.91C148.9 47.1 148.665 47.375 148.535 47.735H147.02C147.16 47.035 147.54 46.465 148.16 46.025C148.78 45.575 149.52 45.35 150.38 45.35C151.33 45.35 152.11 45.61 152.72 46.13C153.33 46.65 153.635 47.395 153.635 48.365V51.245C153.635 51.375 153.67 51.475 153.74 51.545C153.81 51.615 153.905 51.65 154.025 51.65H154.31ZM149.66 51.92C150.13 51.92 150.57 51.825 150.98 51.635C151.39 51.435 151.715 51.175 151.955 50.855C152.205 50.525 152.33 50.175 152.33 49.805V49.13C151.99 49.39 151.45 49.56 150.71 49.64L149.87 49.73C149.31 49.79 148.92 49.925 148.7 50.135C148.48 50.345 148.37 50.61 148.37 50.93C148.37 51.23 148.48 51.47 148.7 51.65C148.93 51.83 149.25 51.92 149.66 51.92ZM159.372 45.725C160.052 45.725 160.677 45.89 161.247 46.22C161.817 46.54 162.262 46.98 162.582 47.54C162.912 48.1 163.077 48.72 163.077 49.4C163.077 50.09 162.907 50.725 162.567 51.305C162.237 51.875 161.777 52.325 161.187 52.655C160.607 52.985 159.967 53.15 159.267 53.15C158.557 53.15 157.907 52.985 157.317 52.655C156.737 52.315 156.277 51.845 155.937 51.245C155.597 50.645 155.427 49.965 155.427 49.205V46.325C155.427 45.385 155.662 44.68 156.132 44.21C156.612 43.73 157.287 43.435 158.157 43.325L160.842 42.98C161.092 42.95 161.217 42.825 161.217 42.605V42.425H162.657V42.785C162.657 43.195 162.527 43.525 162.267 43.775C162.017 44.015 161.722 44.155 161.382 44.195L158.292 44.6C157.732 44.67 157.317 44.825 157.047 45.065C156.787 45.295 156.657 45.66 156.657 46.16V47.21C156.967 46.74 157.357 46.375 157.827 46.115C158.307 45.855 158.822 45.725 159.372 45.725ZM159.222 51.83C159.662 51.83 160.062 51.725 160.422 51.515C160.792 51.295 161.082 51 161.292 50.63C161.502 50.26 161.607 49.85 161.607 49.4C161.607 48.95 161.502 48.54 161.292 48.17C161.082 47.8 160.792 47.51 160.422 47.3C160.062 47.08 159.662 46.97 159.222 46.97C158.772 46.97 158.362 47.08 157.992 47.3C157.622 47.51 157.332 47.8 157.122 48.17C156.912 48.54 156.807 48.95 156.807 49.4C156.807 49.85 156.912 50.26 157.122 50.63C157.332 51 157.622 51.295 157.992 51.515C158.362 51.725 158.772 51.83 159.222 51.83ZM170.98 53H169.555V46.85H166.93C166.92 48.31 166.805 49.495 166.585 50.405C166.365 51.305 166.025 51.97 165.565 52.4C165.115 52.83 164.525 53.045 163.795 53.045C163.625 53.045 163.485 53.03 163.375 53V51.695C163.515 51.715 163.62 51.725 163.69 51.725C164.13 51.725 164.48 51.56 164.74 51.23C165.01 50.89 165.205 50.355 165.325 49.625C165.445 48.885 165.505 47.905 165.505 46.685V45.5H170.98V53ZM176.315 45.35C177.085 45.35 177.755 45.515 178.325 45.845C178.905 46.175 179.35 46.645 179.66 47.255C179.97 47.855 180.125 48.56 180.125 49.37C180.125 49.58 180.12 49.735 180.11 49.835H173.96C174.06 50.415 174.33 50.895 174.77 51.275C175.22 51.645 175.74 51.83 176.33 51.83C177.3 51.83 177.99 51.475 178.4 50.765H179.87C179.63 51.465 179.185 52.04 178.535 52.49C177.885 52.93 177.15 53.15 176.33 53.15C175.6 53.15 174.94 52.985 174.35 52.655C173.76 52.315 173.3 51.85 172.97 51.26C172.64 50.66 172.475 49.99 172.475 49.25C172.475 48.51 172.64 47.845 172.97 47.255C173.3 46.655 173.755 46.19 174.335 45.86C174.925 45.52 175.585 45.35 176.315 45.35ZM176.285 46.61C175.695 46.61 175.185 46.795 174.755 47.165C174.335 47.535 174.075 48.01 173.975 48.59H178.58C178.52 47.99 178.275 47.51 177.845 47.15C177.425 46.79 176.905 46.61 176.285 46.61ZM188.376 45.5V53H186.951V49.925H183.051V53H181.626V45.5H183.051V48.575H186.951V45.5H188.376ZM197.306 45.5V53H195.881V49.925H191.981V53H190.556V45.5H191.981V48.575H195.881V45.5H197.306ZM203.192 48.47C203.982 48.47 204.597 48.685 205.037 49.115C205.487 49.535 205.712 50.075 205.712 50.735C205.712 51.395 205.487 51.94 205.037 52.37C204.597 52.79 203.982 53 203.192 53H199.487V45.5H200.912V48.47H203.192ZM202.997 51.755C203.407 51.755 203.717 51.67 203.927 51.5C204.137 51.33 204.242 51.075 204.242 50.735C204.242 50.395 204.137 50.14 203.927 49.97C203.717 49.8 203.407 49.715 202.997 49.715H200.912V51.755H202.997ZM208.487 45.5V53H207.062V45.5H208.487ZM219.958 53H218.533V47.525L216.013 53H214.603L212.083 47.57V53H210.658V45.5H212.608L215.338 51.515L218.038 45.5H219.958V53ZM223.637 51.35V53H221.987V51.35H223.637ZM229.791 42.5H231.291V49.565L237.441 44.075V42.5H238.941V53H237.441V45.935L231.291 51.425V53H229.791V42.5ZM250.567 53H249.142V47.525L246.622 53H245.212L242.692 47.57V53H241.267V45.5H243.217L245.947 51.515L248.647 45.5H250.567V53ZM255.911 45.35C256.681 45.35 257.351 45.515 257.921 45.845C258.501 46.175 258.946 46.645 259.256 47.255C259.566 47.855 259.721 48.56 259.721 49.37C259.721 49.58 259.716 49.735 259.706 49.835H253.556C253.656 50.415 253.926 50.895 254.366 51.275C254.816 51.645 255.336 51.83 255.926 51.83C256.896 51.83 257.586 51.475 257.996 50.765H259.466C259.226 51.465 258.781 52.04 258.131 52.49C257.481 52.93 256.746 53.15 255.926 53.15C255.196 53.15 254.536 52.985 253.946 52.655C253.356 52.315 252.896 51.85 252.566 51.26C252.236 50.66 252.071 49.99 252.071 49.25C252.071 48.51 252.236 47.845 252.566 47.255C252.896 46.655 253.351 46.19 253.931 45.86C254.521 45.52 255.181 45.35 255.911 45.35ZM255.881 46.61C255.291 46.61 254.781 46.795 254.351 47.165C253.931 47.535 253.671 48.01 253.571 48.59H258.176C258.116 47.99 257.871 47.51 257.441 47.15C257.021 46.79 256.501 46.61 255.881 46.61ZM267.972 45.5V53H266.547V49.925H262.647V53H261.222V45.5H262.647V48.575H266.547V45.5H267.972ZM276.902 45.5V53H275.477V49.925H271.577V53H270.152V45.5H271.577V48.575H275.477V45.5H276.902ZM282.398 53.15C281.658 53.15 280.983 52.98 280.373 52.64C279.763 52.29 279.283 51.82 278.933 51.23C278.583 50.63 278.408 49.97 278.408 49.25C278.408 48.53 278.583 47.875 278.933 47.285C279.283 46.685 279.763 46.215 280.373 45.875C280.983 45.525 281.658 45.35 282.398 45.35C283.128 45.35 283.793 45.525 284.393 45.875C285.003 46.215 285.483 46.685 285.833 47.285C286.183 47.875 286.358 48.53 286.358 49.25C286.358 49.97 286.183 50.63 285.833 51.23C285.483 51.82 285.003 52.29 284.393 52.64C283.793 52.98 283.128 53.15 282.398 53.15ZM282.398 51.83C282.858 51.83 283.278 51.72 283.658 51.5C284.038 51.27 284.338 50.96 284.558 50.57C284.778 50.17 284.888 49.73 284.888 49.25C284.888 48.77 284.778 48.335 284.558 47.945C284.338 47.545 284.038 47.235 283.658 47.015C283.278 46.785 282.858 46.67 282.398 46.67C281.928 46.67 281.498 46.785 281.108 47.015C280.728 47.235 280.428 47.545 280.208 47.945C279.988 48.335 279.878 48.77 279.878 49.25C279.878 49.73 279.988 50.17 280.208 50.57C280.428 50.96 280.728 51.27 281.108 51.5C281.498 51.72 281.928 51.83 282.398 51.83ZM297.531 46.85H294.906V53H293.481V46.85H290.856V45.5H297.531V46.85ZM305.182 51.65V53H304.462C304.092 53 303.802 52.91 303.592 52.73C303.382 52.54 303.257 52.27 303.217 51.92C302.897 52.29 302.482 52.59 301.972 52.82C301.472 53.04 300.942 53.15 300.382 53.15C299.572 53.15 298.942 52.95 298.492 52.55C298.052 52.15 297.832 51.615 297.832 50.945C297.832 50.335 298.072 49.815 298.552 49.385C299.032 48.945 299.707 48.68 300.577 48.59L301.417 48.5C301.887 48.45 302.237 48.39 302.467 48.32C302.697 48.24 302.842 48.155 302.902 48.065C302.972 47.975 303.007 47.855 303.007 47.705C303.007 47.365 302.842 47.1 302.512 46.91C302.192 46.71 301.747 46.61 301.177 46.61C300.807 46.61 300.452 46.71 300.112 46.91C299.772 47.1 299.537 47.375 299.407 47.735H297.892C298.032 47.035 298.412 46.465 299.032 46.025C299.652 45.575 300.392 45.35 301.252 45.35C302.202 45.35 302.982 45.61 303.592 46.13C304.202 46.65 304.507 47.395 304.507 48.365V51.245C304.507 51.375 304.542 51.475 304.612 51.545C304.682 51.615 304.777 51.65 304.897 51.65H305.182ZM300.532 51.92C301.002 51.92 301.442 51.825 301.852 51.635C302.262 51.435 302.587 51.175 302.827 50.855C303.077 50.525 303.202 50.175 303.202 49.805V49.13C302.862 49.39 302.322 49.56 301.582 49.64L300.742 49.73C300.182 49.79 299.792 49.925 299.572 50.135C299.352 50.345 299.242 50.61 299.242 50.93C299.242 51.23 299.352 51.47 299.572 51.65C299.802 51.83 300.122 51.92 300.532 51.92ZM313.484 51.635V53H312.884C312.414 53 312.054 52.875 311.804 52.625C311.564 52.365 311.444 51.985 311.444 51.485V50.54C311.444 50.07 311.214 49.835 310.754 49.835H308.099V53H306.674V45.5H308.099V48.605H310.559C310.829 48.605 311.034 48.535 311.174 48.395C311.324 48.255 311.399 48.045 311.399 47.765V46.94C311.399 45.98 311.849 45.5 312.749 45.5H313.394V46.865H313.109C312.999 46.865 312.909 46.9 312.839 46.97C312.779 47.03 312.749 47.115 312.749 47.225V48.035C312.749 48.585 312.549 48.975 312.149 49.205C312.609 49.425 312.839 49.805 312.839 50.345V51.275C312.839 51.385 312.869 51.475 312.929 51.545C312.999 51.605 313.089 51.635 313.199 51.635H313.484ZM322.046 45.5V53H320.621V48.38L316.721 51.68V53H315.296V45.5H316.721V50.03L320.621 46.73V45.5H322.046ZM327.392 45.35C328.162 45.35 328.832 45.515 329.402 45.845C329.982 46.175 330.427 46.645 330.737 47.255C331.047 47.855 331.202 48.56 331.202 49.37C331.202 49.58 331.197 49.735 331.187 49.835H325.037C325.137 50.415 325.407 50.895 325.847 51.275C326.297 51.645 326.817 51.83 327.407 51.83C328.377 51.83 329.067 51.475 329.477 50.765H330.947C330.707 51.465 330.262 52.04 329.612 52.49C328.962 52.93 328.227 53.15 327.407 53.15C326.677 53.15 326.017 52.985 325.427 52.655C324.837 52.315 324.377 51.85 324.047 51.26C323.717 50.66 323.552 49.99 323.552 49.25C323.552 48.51 323.717 47.845 324.047 47.255C324.377 46.655 324.832 46.19 325.412 45.86C326.002 45.52 326.662 45.35 327.392 45.35ZM327.362 46.61C326.772 46.61 326.262 46.795 325.832 47.165C325.412 47.535 325.152 48.01 325.052 48.59H329.657C329.597 47.99 329.352 47.51 328.922 47.15C328.502 46.79 327.982 46.61 327.362 46.61ZM4.515 74.15C3.775 74.15 3.1 73.98 2.49 73.64C1.88 73.29 1.4 72.82 1.05 72.23C0.7 71.63 0.525 70.97 0.525 70.25C0.525 69.53 0.7 68.875 1.05 68.285C1.4 67.685 1.88 67.215 2.49 66.875C3.1 66.525 3.775 66.35 4.515 66.35C5.245 66.35 5.91 66.525 6.51 66.875C7.12 67.215 7.6 67.685 7.95 68.285C8.3 68.875 8.475 69.53 8.475 70.25C8.475 70.97 8.3 71.63 7.95 72.23C7.6 72.82 7.12 73.29 6.51 73.64C5.91 73.98 5.245 74.15 4.515 74.15ZM4.515 72.83C4.975 72.83 5.395 72.72 5.775 72.5C6.155 72.27 6.455 71.96 6.675 71.57C6.895 71.17 7.005 70.73 7.005 70.25C7.005 69.77 6.895 69.335 6.675 68.945C6.455 68.545 6.155 68.235 5.775 68.015C5.395 67.785 4.975 67.67 4.515 67.67C4.045 67.67 3.615 67.785 3.225 68.015C2.845 68.235 2.545 68.545 2.325 68.945C2.105 69.335 1.995 69.77 1.995 70.25C1.995 70.73 2.105 71.17 2.325 71.57C2.545 71.96 2.845 72.27 3.225 72.5C3.615 72.72 4.045 72.83 4.515 72.83ZM21.4441 72.65V75.65H20.0641V74H9.96914V66.5H11.3941V72.65H14.4691V66.5H15.8941V72.65H18.9691V66.5H20.3941V72.65H21.4441ZM29.7479 66.5L26.1029 74.84C25.9129 75.35 25.6479 75.765 25.3079 76.085C24.9679 76.415 24.4679 76.58 23.8079 76.58C23.3379 76.58 22.9729 76.57 22.7129 76.55V75.2C22.9929 75.22 23.3279 75.23 23.7179 75.23C23.9979 75.23 24.2179 75.155 24.3779 75.005C24.5479 74.855 24.6879 74.65 24.7979 74.39L25.0229 73.865L21.3779 66.5H23.0429L25.7279 72.26L28.2479 66.5H29.7479ZM42.3955 72.65V75.65H41.0155V74H30.9205V66.5H32.3455V72.65H35.4205V66.5H36.8455V72.65H39.9205V66.5H41.3455V72.65H42.3955ZM46.7658 66.35C47.5358 66.35 48.2058 66.515 48.7758 66.845C49.3558 67.175 49.8008 67.645 50.1108 68.255C50.4208 68.855 50.5758 69.56 50.5758 70.37C50.5758 70.58 50.5708 70.735 50.5608 70.835H44.4108C44.5108 71.415 44.7808 71.895 45.2208 72.275C45.6708 72.645 46.1908 72.83 46.7808 72.83C47.7508 72.83 48.4408 72.475 48.8508 71.765H50.3208C50.0808 72.465 49.6358 73.04 48.9858 73.49C48.3358 73.93 47.6008 74.15 46.7808 74.15C46.0508 74.15 45.3908 73.985 44.8008 73.655C44.2108 73.315 43.7508 72.85 43.4208 72.26C43.0908 71.66 42.9258 70.99 42.9258 70.25C42.9258 69.51 43.0908 68.845 43.4208 68.255C43.7508 67.655 44.2058 67.19 44.7858 66.86C45.3758 66.52 46.0358 66.35 46.7658 66.35ZM46.7358 67.61C46.1458 67.61 45.6358 67.795 45.2058 68.165C44.7858 68.535 44.5258 69.01 44.4258 69.59H49.0308C48.9708 68.99 48.7258 68.51 48.2958 68.15C47.8758 67.79 47.3558 67.61 46.7358 67.61ZM58.827 66.5V74H57.402V70.925H53.502V74H52.077V66.5H53.502V69.575H57.402V66.5H58.827ZM67.7572 66.5V74H66.3322V69.38L62.4322 72.68V74H61.0072V66.5H62.4322V71.03L66.3322 67.73V66.5H67.7572ZM75.8775 74H74.4525V71.18H71.9925C71.5325 71.18 71.3025 71.415 71.3025 71.885V72.485C71.3025 72.985 71.1775 73.365 70.9275 73.625C70.6875 73.875 70.3325 74 69.8625 74H69.2325V72.635H69.5175C69.6275 72.635 69.7125 72.605 69.7725 72.545C69.8425 72.475 69.8775 72.385 69.8775 72.275V71.66C69.8775 71.1 70.1425 70.705 70.6725 70.475C70.3425 70.285 70.0875 70.035 69.9075 69.725C69.7375 69.415 69.6525 69.07 69.6525 68.69C69.6525 68.05 69.8725 67.525 70.3125 67.115C70.7625 66.705 71.3825 66.5 72.1725 66.5H75.8775V74ZM72.3675 67.775C71.9575 67.775 71.6475 67.87 71.4375 68.06C71.2275 68.24 71.1225 68.505 71.1225 68.855C71.1225 69.205 71.2275 69.475 71.4375 69.665C71.6475 69.845 71.9575 69.935 72.3675 69.935H74.4525V67.775H72.3675ZM87.2166 70.175C87.9566 70.545 88.3266 71.115 88.3266 71.885C88.3266 72.505 88.1016 73.015 87.6516 73.415C87.2016 73.805 86.5816 74 85.7916 74H82.0266V66.5H85.7916C86.5416 66.5 87.1316 66.695 87.5616 67.085C88.0016 67.465 88.2216 67.95 88.2216 68.54C88.2216 68.89 88.1366 69.21 87.9666 69.5C87.8066 69.78 87.5566 70.005 87.2166 70.175ZM85.6266 69.62C85.9966 69.62 86.2766 69.535 86.4666 69.365C86.6566 69.195 86.7516 68.945 86.7516 68.615C86.7516 68.005 86.3766 67.7 85.6266 67.7H83.4216V69.62H85.6266ZM85.6416 72.8C86.0416 72.8 86.3416 72.715 86.5416 72.545C86.7516 72.365 86.8566 72.11 86.8566 71.78C86.8566 71.47 86.7516 71.235 86.5416 71.075C86.3416 70.905 86.0416 70.82 85.6416 70.82H83.4216V72.8H85.6416ZM93.6071 69.47C94.3971 69.47 95.0121 69.685 95.4521 70.115C95.9021 70.535 96.1271 71.075 96.1271 71.735C96.1271 72.395 95.9021 72.94 95.4521 73.37C95.0121 73.79 94.3971 74 93.6071 74H89.9021V66.5H91.3271V69.47H93.6071ZM93.4121 72.755C93.8221 72.755 94.1321 72.67 94.3421 72.5C94.5521 72.33 94.6571 72.075 94.6571 71.735C94.6571 71.395 94.5521 71.14 94.3421 70.97C94.1321 70.8 93.8221 70.715 93.4121 70.715H91.3271V72.755H93.4121ZM98.9021 66.5V74H97.4771V66.5H98.9021ZM111.803 66.5V74H110.378V69.38L106.478 72.68V74H105.053V66.5H106.478V71.03L110.378 67.73V66.5H111.803ZM113.308 70.25C113.308 69.53 113.483 68.875 113.833 68.285C114.183 67.685 114.663 67.215 115.273 66.875C115.883 66.525 116.558 66.35 117.298 66.35C118.128 66.35 118.873 66.595 119.533 67.085C120.203 67.565 120.643 68.195 120.853 68.975H119.293C119.123 68.575 118.848 68.26 118.468 68.03C118.098 67.79 117.683 67.67 117.223 67.67C116.753 67.67 116.333 67.785 115.963 68.015C115.593 68.235 115.303 68.545 115.093 68.945C114.883 69.335 114.778 69.77 114.778 70.25C114.778 70.73 114.883 71.17 115.093 71.57C115.303 71.96 115.593 72.27 115.963 72.5C116.333 72.72 116.753 72.83 117.223 72.83C117.683 72.83 118.098 72.715 118.468 72.485C118.848 72.245 119.123 71.925 119.293 71.525H120.853C120.643 72.305 120.203 72.94 119.533 73.43C118.873 73.91 118.128 74.15 117.298 74.15C116.558 74.15 115.883 73.98 115.273 73.64C114.663 73.29 114.183 72.82 113.833 72.23C113.483 71.63 113.308 70.97 113.308 70.25ZM128.96 74H127.535V67.85H123.635V74H122.21V66.5H128.96V74ZM134.845 69.47C135.635 69.47 136.25 69.685 136.69 70.115C137.14 70.535 137.365 71.075 137.365 71.735C137.365 72.395 137.14 72.94 136.69 73.37C136.25 73.79 135.635 74 134.845 74H131.14V66.5H132.565V69.47H134.845ZM134.65 72.755C135.06 72.755 135.37 72.67 135.58 72.5C135.79 72.33 135.895 72.075 135.895 71.735C135.895 71.395 135.79 71.14 135.58 70.97C135.37 70.8 135.06 70.715 134.65 70.715H132.565V72.755H134.65ZM140.14 66.5V74H138.715V66.5H140.14ZM148.012 67.85H145.387V74H143.962V67.85H141.337V66.5H148.012V67.85ZM152.911 69.47C153.701 69.47 154.316 69.685 154.756 70.115C155.206 70.535 155.431 71.075 155.431 71.735C155.431 72.395 155.206 72.94 154.756 73.37C154.316 73.79 153.701 74 152.911 74H149.206V66.5H150.631V69.47H152.911ZM152.716 72.755C153.126 72.755 153.436 72.67 153.646 72.5C153.856 72.33 153.961 72.075 153.961 71.735C153.961 71.395 153.856 71.14 153.646 70.97C153.436 70.8 153.126 70.715 152.716 70.715H150.631V72.755H152.716ZM158.206 66.5V74H156.781V66.5H158.206ZM165.568 70.175C166.308 70.545 166.678 71.115 166.678 71.885C166.678 72.505 166.453 73.015 166.003 73.415C165.553 73.805 164.933 74 164.143 74H160.378V66.5H164.143C164.893 66.5 165.483 66.695 165.913 67.085C166.353 67.465 166.573 67.95 166.573 68.54C166.573 68.89 166.488 69.21 166.318 69.5C166.158 69.78 165.908 70.005 165.568 70.175ZM163.978 69.62C164.348 69.62 164.628 69.535 164.818 69.365C165.008 69.195 165.103 68.945 165.103 68.615C165.103 68.005 164.728 67.7 163.978 67.7H161.773V69.62H163.978ZM163.993 72.8C164.393 72.8 164.693 72.715 164.893 72.545C165.103 72.365 165.208 72.11 165.208 71.78C165.208 71.47 165.103 71.235 164.893 71.075C164.693 70.905 164.393 70.82 163.993 70.82H161.773V72.8H163.993ZM174.857 72.65V74H174.137C173.767 74 173.477 73.91 173.267 73.73C173.057 73.54 172.932 73.27 172.892 72.92C172.572 73.29 172.157 73.59 171.647 73.82C171.147 74.04 170.617 74.15 170.057 74.15C169.247 74.15 168.617 73.95 168.167 73.55C167.727 73.15 167.507 72.615 167.507 71.945C167.507 71.335 167.747 70.815 168.227 70.385C168.707 69.945 169.382 69.68 170.252 69.59L171.092 69.5C171.562 69.45 171.912 69.39 172.142 69.32C172.372 69.24 172.517 69.155 172.577 69.065C172.647 68.975 172.682 68.855 172.682 68.705C172.682 68.365 172.517 68.1 172.187 67.91C171.867 67.71 171.422 67.61 170.852 67.61C170.482 67.61 170.127 67.71 169.787 67.91C169.447 68.1 169.212 68.375 169.082 68.735H167.567C167.707 68.035 168.087 67.465 168.707 67.025C169.327 66.575 170.067 66.35 170.927 66.35C171.877 66.35 172.657 66.61 173.267 67.13C173.877 67.65 174.182 68.395 174.182 69.365V72.245C174.182 72.375 174.217 72.475 174.287 72.545C174.357 72.615 174.452 72.65 174.572 72.65H174.857ZM170.207 72.92C170.677 72.92 171.117 72.825 171.527 72.635C171.937 72.435 172.262 72.175 172.502 71.855C172.752 71.525 172.877 71.175 172.877 70.805V70.13C172.537 70.39 171.997 70.56 171.257 70.64L170.417 70.73C169.857 70.79 169.467 70.925 169.247 71.135C169.027 71.345 168.917 71.61 168.917 71.93C168.917 72.23 169.027 72.47 169.247 72.65C169.477 72.83 169.797 72.92 170.207 72.92ZM179.513 66.35C180.283 66.35 180.953 66.515 181.523 66.845C182.103 67.175 182.548 67.645 182.858 68.255C183.168 68.855 183.323 69.56 183.323 70.37C183.323 70.58 183.318 70.735 183.308 70.835H177.158C177.258 71.415 177.528 71.895 177.968 72.275C178.418 72.645 178.938 72.83 179.528 72.83C180.498 72.83 181.188 72.475 181.598 71.765H183.068C182.828 72.465 182.383 73.04 181.733 73.49C181.083 73.93 180.348 74.15 179.528 74.15C178.798 74.15 178.138 73.985 177.548 73.655C176.958 73.315 176.498 72.85 176.168 72.26C175.838 71.66 175.673 70.99 175.673 70.25C175.673 69.51 175.838 68.845 176.168 68.255C176.498 67.655 176.953 67.19 177.533 66.86C178.123 66.52 178.783 66.35 179.513 66.35ZM179.483 67.61C178.893 67.61 178.383 67.795 177.953 68.165C177.533 68.535 177.273 69.01 177.173 69.59H181.778C181.718 68.99 181.473 68.51 181.043 68.15C180.623 67.79 180.103 67.61 179.483 67.61ZM190.232 67.85H187.607V74H186.182V67.85H183.557V66.5H190.232V67.85ZM194.298 66.35C195.068 66.35 195.738 66.515 196.308 66.845C196.888 67.175 197.333 67.645 197.643 68.255C197.953 68.855 198.108 69.56 198.108 70.37C198.108 70.58 198.103 70.735 198.093 70.835H191.943C192.043 71.415 192.313 71.895 192.753 72.275C193.203 72.645 193.723 72.83 194.313 72.83C195.283 72.83 195.973 72.475 196.383 71.765H197.853C197.613 72.465 197.168 73.04 196.518 73.49C195.868 73.93 195.133 74.15 194.313 74.15C193.583 74.15 192.923 73.985 192.333 73.655C191.743 73.315 191.283 72.85 190.953 72.26C190.623 71.66 190.458 70.99 190.458 70.25C190.458 69.51 190.623 68.845 190.953 68.255C191.283 67.655 191.738 67.19 192.318 66.86C192.908 66.52 193.568 66.35 194.298 66.35ZM194.268 67.61C193.678 67.61 193.168 67.795 192.738 68.165C192.318 68.535 192.058 69.01 191.958 69.59H196.563C196.503 68.99 196.258 68.51 195.828 68.15C195.408 67.79 194.888 67.61 194.268 67.61ZM200.959 72.35L200.509 75.8H199.459V72.35H200.959ZM213.777 72.635V74H213.177C212.707 74 212.347 73.875 212.097 73.625C211.857 73.365 211.737 72.985 211.737 72.485V71.54C211.737 71.07 211.507 70.835 211.047 70.835H208.392V74H206.967V66.5H208.392V69.605H210.852C211.122 69.605 211.327 69.535 211.467 69.395C211.617 69.255 211.692 69.045 211.692 68.765V67.94C211.692 66.98 212.142 66.5 213.042 66.5H213.687V67.865H213.402C213.292 67.865 213.202 67.9 213.132 67.97C213.072 68.03 213.042 68.115 213.042 68.225V69.035C213.042 69.585 212.842 69.975 212.442 70.205C212.902 70.425 213.132 70.805 213.132 71.345V72.275C213.132 72.385 213.162 72.475 213.222 72.545C213.292 72.605 213.382 72.635 213.492 72.635H213.777ZM218.904 74.15C218.164 74.15 217.489 73.98 216.879 73.64C216.269 73.29 215.789 72.82 215.439 72.23C215.089 71.63 214.914 70.97 214.914 70.25C214.914 69.53 215.089 68.875 215.439 68.285C215.789 67.685 216.269 67.215 216.879 66.875C217.489 66.525 218.164 66.35 218.904 66.35C219.634 66.35 220.299 66.525 220.899 66.875C221.509 67.215 221.989 67.685 222.339 68.285C222.689 68.875 222.864 69.53 222.864 70.25C222.864 70.97 222.689 71.63 222.339 72.23C221.989 72.82 221.509 73.29 220.899 73.64C220.299 73.98 219.634 74.15 218.904 74.15ZM218.904 72.83C219.364 72.83 219.784 72.72 220.164 72.5C220.544 72.27 220.844 71.96 221.064 71.57C221.284 71.17 221.394 70.73 221.394 70.25C221.394 69.77 221.284 69.335 221.064 68.945C220.844 68.545 220.544 68.235 220.164 68.015C219.784 67.785 219.364 67.67 218.904 67.67C218.434 67.67 218.004 67.785 217.614 68.015C217.234 68.235 216.934 68.545 216.714 68.945C216.494 69.335 216.384 69.77 216.384 70.25C216.384 70.73 216.494 71.17 216.714 71.57C216.934 71.96 217.234 72.27 217.614 72.5C218.004 72.72 218.434 72.83 218.904 72.83ZM229.608 67.85H225.783V74H224.358V66.5H229.608V67.85ZM237.679 72.65V75.65H236.299V74H230.689V75.65H229.309V72.65H230.239C230.659 72.09 230.984 71.35 231.214 70.43C231.444 69.5 231.559 68.47 231.559 67.34V66.5H236.629V72.65H237.679ZM235.234 72.695V67.775H232.894C232.824 69.875 232.424 71.515 231.694 72.695H235.234ZM245.629 72.65V74H244.909C244.539 74 244.249 73.91 244.039 73.73C243.829 73.54 243.704 73.27 243.664 72.92C243.344 73.29 242.929 73.59 242.419 73.82C241.919 74.04 241.389 74.15 240.829 74.15C240.019 74.15 239.389 73.95 238.939 73.55C238.499 73.15 238.279 72.615 238.279 71.945C238.279 71.335 238.519 70.815 238.999 70.385C239.479 69.945 240.154 69.68 241.024 69.59L241.864 69.5C242.334 69.45 242.684 69.39 242.914 69.32C243.144 69.24 243.289 69.155 243.349 69.065C243.419 68.975 243.454 68.855 243.454 68.705C243.454 68.365 243.289 68.1 242.959 67.91C242.639 67.71 242.194 67.61 241.624 67.61C241.254 67.61 240.899 67.71 240.559 67.91C240.219 68.1 239.984 68.375 239.854 68.735H238.339C238.479 68.035 238.859 67.465 239.479 67.025C240.099 66.575 240.839 66.35 241.699 66.35C242.649 66.35 243.429 66.61 244.039 67.13C244.649 67.65 244.954 68.395 244.954 69.365V72.245C244.954 72.375 244.989 72.475 245.059 72.545C245.129 72.615 245.224 72.65 245.344 72.65H245.629ZM240.979 72.92C241.449 72.92 241.889 72.825 242.299 72.635C242.709 72.435 243.034 72.175 243.274 71.855C243.524 71.525 243.649 71.175 243.649 70.805V70.13C243.309 70.39 242.769 70.56 242.029 70.64L241.189 70.73C240.629 70.79 240.239 70.925 240.019 71.135C239.799 71.345 239.689 71.61 239.689 71.93C239.689 72.23 239.799 72.47 240.019 72.65C240.249 72.83 240.569 72.92 240.979 72.92ZM250.425 70.25C250.425 69.53 250.6 68.875 250.95 68.285C251.3 67.685 251.78 67.215 252.39 66.875C253 66.525 253.675 66.35 254.415 66.35C255.245 66.35 255.99 66.595 256.65 67.085C257.32 67.565 257.76 68.195 257.97 68.975H256.41C256.24 68.575 255.965 68.26 255.585 68.03C255.215 67.79 254.8 67.67 254.34 67.67C253.87 67.67 253.45 67.785 253.08 68.015C252.71 68.235 252.42 68.545 252.21 68.945C252 69.335 251.895 69.77 251.895 70.25C251.895 70.73 252 71.17 252.21 71.57C252.42 71.96 252.71 72.27 253.08 72.5C253.45 72.72 253.87 72.83 254.34 72.83C254.8 72.83 255.215 72.715 255.585 72.485C255.965 72.245 256.24 71.925 256.41 71.525H257.97C257.76 72.305 257.32 72.94 256.65 73.43C255.99 73.91 255.245 74.15 254.415 74.15C253.675 74.15 253 73.98 252.39 73.64C251.78 73.29 251.3 72.82 250.95 72.23C250.6 71.63 250.425 70.97 250.425 70.25ZM268.627 74H267.202V68.525L264.682 74H263.272L260.752 68.57V74H259.327V66.5H261.277L264.007 72.515L266.707 66.5H268.627V74ZM274.121 74.15C273.381 74.15 272.706 73.98 272.096 73.64C271.486 73.29 271.006 72.82 270.656 72.23C270.306 71.63 270.131 70.97 270.131 70.25C270.131 69.53 270.306 68.875 270.656 68.285C271.006 67.685 271.486 67.215 272.096 66.875C272.706 66.525 273.381 66.35 274.121 66.35C274.851 66.35 275.516 66.525 276.116 66.875C276.726 67.215 277.206 67.685 277.556 68.285C277.906 68.875 278.081 69.53 278.081 70.25C278.081 70.97 277.906 71.63 277.556 72.23C277.206 72.82 276.726 73.29 276.116 73.64C275.516 73.98 274.851 74.15 274.121 74.15ZM274.121 72.83C274.581 72.83 275.001 72.72 275.381 72.5C275.761 72.27 276.061 71.96 276.281 71.57C276.501 71.17 276.611 70.73 276.611 70.25C276.611 69.77 276.501 69.335 276.281 68.945C276.061 68.545 275.761 68.235 275.381 68.015C275.001 67.785 274.581 67.67 274.121 67.67C273.651 67.67 273.221 67.785 272.831 68.015C272.451 68.235 272.151 68.545 271.931 68.945C271.711 69.335 271.601 69.77 271.601 70.25C271.601 70.73 271.711 71.17 271.931 71.57C272.151 71.96 272.451 72.27 272.831 72.5C273.221 72.72 273.651 72.83 274.121 72.83ZM284.982 67.85H282.357V74H280.932V67.85H278.307V66.5H284.982V67.85ZM290.137 66.35C290.797 66.35 291.397 66.52 291.937 66.86C292.477 67.19 292.902 67.65 293.212 68.24C293.522 68.83 293.677 69.5 293.677 70.25C293.677 71 293.522 71.67 293.212 72.26C292.902 72.85 292.477 73.315 291.937 73.655C291.397 73.985 290.797 74.15 290.137 74.15C289.637 74.15 289.167 74.04 288.727 73.82C288.287 73.59 287.912 73.275 287.602 72.875V76.55H286.177V66.5H287.527V67.715C287.847 67.285 288.232 66.95 288.682 66.71C289.132 66.47 289.617 66.35 290.137 66.35ZM289.897 72.83C290.337 72.83 290.732 72.72 291.082 72.5C291.432 72.28 291.707 71.975 291.907 71.585C292.107 71.185 292.207 70.74 292.207 70.25C292.207 69.76 292.107 69.32 291.907 68.93C291.707 68.53 291.432 68.22 291.082 68C290.732 67.78 290.337 67.67 289.897 67.67C289.457 67.67 289.057 67.78 288.697 68C288.337 68.22 288.057 68.53 287.857 68.93C287.657 69.32 287.557 69.76 287.557 70.25C287.557 70.74 287.657 71.185 287.857 71.585C288.057 71.975 288.337 72.28 288.697 72.5C289.057 72.72 289.457 72.83 289.897 72.83ZM301.93 66.5V74H300.505V69.38L296.605 72.68V74H295.18V66.5H296.605V71.03L300.505 67.73V66.5H301.93ZM309.81 67.85H307.185V74H305.76V67.85H303.135V66.5H309.81V67.85ZM313.877 66.35C314.647 66.35 315.317 66.515 315.887 66.845C316.467 67.175 316.912 67.645 317.222 68.255C317.532 68.855 317.687 69.56 317.687 70.37C317.687 70.58 317.682 70.735 317.672 70.835H311.522C311.622 71.415 311.892 71.895 312.332 72.275C312.782 72.645 313.302 72.83 313.892 72.83C314.862 72.83 315.552 72.475 315.962 71.765H317.432C317.192 72.465 316.747 73.04 316.097 73.49C315.447 73.93 314.712 74.15 313.892 74.15C313.162 74.15 312.502 73.985 311.912 73.655C311.322 73.315 310.862 72.85 310.532 72.26C310.202 71.66 310.037 70.99 310.037 70.25C310.037 69.51 310.202 68.845 310.532 68.255C310.862 67.655 311.317 67.19 311.897 66.86C312.487 66.52 313.147 66.35 313.877 66.35ZM313.847 67.61C313.257 67.61 312.747 67.795 312.317 68.165C311.897 68.535 311.637 69.01 311.537 69.59H316.142C316.082 68.99 315.837 68.51 315.407 68.15C314.987 67.79 314.467 67.61 313.847 67.61ZM7.95 87.5V95H6.525V91.925H2.625V95H1.2V87.5H2.625V90.575H6.525V87.5H7.95ZM16.8803 93.65V95H16.1603C15.7903 95 15.5003 94.91 15.2903 94.73C15.0803 94.54 14.9553 94.27 14.9153 93.92C14.5953 94.29 14.1803 94.59 13.6703 94.82C13.1703 95.04 12.6403 95.15 12.0803 95.15C11.2703 95.15 10.6403 94.95 10.1903 94.55C9.75027 94.15 9.53027 93.615 9.53027 92.945C9.53027 92.335 9.77027 91.815 10.2503 91.385C10.7303 90.945 11.4053 90.68 12.2753 90.59L13.1153 90.5C13.5853 90.45 13.9353 90.39 14.1653 90.32C14.3953 90.24 14.5403 90.155 14.6003 90.065C14.6703 89.975 14.7053 89.855 14.7053 89.705C14.7053 89.365 14.5403 89.1 14.2103 88.91C13.8903 88.71 13.4453 88.61 12.8753 88.61C12.5053 88.61 12.1503 88.71 11.8103 88.91C11.4703 89.1 11.2353 89.375 11.1053 89.735H9.59027C9.73027 89.035 10.1103 88.465 10.7303 88.025C11.3503 87.575 12.0903 87.35 12.9503 87.35C13.9003 87.35 14.6803 87.61 15.2903 88.13C15.9003 88.65 16.2053 89.395 16.2053 90.365V93.245C16.2053 93.375 16.2403 93.475 16.3103 93.545C16.3803 93.615 16.4753 93.65 16.5953 93.65H16.8803ZM12.2303 93.92C12.7003 93.92 13.1403 93.825 13.5503 93.635C13.9603 93.435 14.2853 93.175 14.5253 92.855C14.7753 92.525 14.9003 92.175 14.9003 91.805V91.13C14.5603 91.39 14.0203 91.56 13.2803 91.64L12.4403 91.73C11.8803 91.79 11.4903 91.925 11.2703 92.135C11.0503 92.345 10.9403 92.61 10.9403 92.93C10.9403 93.23 11.0503 93.47 11.2703 93.65C11.5003 93.83 11.8203 93.92 12.2303 93.92ZM29.6712 93.65V96.65H28.2912V95H22.6812V96.65H21.3012V93.65H22.2312C22.6512 93.09 22.9762 92.35 23.2062 91.43C23.4362 90.5 23.5512 89.47 23.5512 88.34V87.5H28.6212V93.65H29.6712ZM27.2262 93.695V88.775H24.8862C24.8162 90.875 24.4162 92.515 23.6862 93.695H27.2262ZM37.7678 87.5V95H36.3428V90.38L32.4428 93.68V95H31.0178V87.5H32.4428V92.03L36.3428 88.73V87.5H37.7678ZM40.548 92.63C40.678 93.07 40.918 93.395 41.268 93.605C41.628 93.815 42.098 93.92 42.678 93.92C43.218 93.92 43.653 93.825 43.983 93.635C44.313 93.435 44.478 93.18 44.478 92.87C44.478 92.6 44.358 92.37 44.118 92.18C43.878 91.98 43.468 91.88 42.888 91.88H41.583V90.65H42.828C43.348 90.65 43.718 90.555 43.938 90.365C44.168 90.175 44.283 89.945 44.283 89.675C44.283 89.335 44.128 89.065 43.818 88.865C43.518 88.665 43.103 88.565 42.573 88.565C42.063 88.565 41.638 88.66 41.298 88.85C40.968 89.04 40.753 89.34 40.653 89.75H39.243C39.373 89 39.748 88.415 40.368 87.995C40.988 87.565 41.723 87.35 42.573 87.35C43.513 87.35 44.273 87.555 44.853 87.965C45.433 88.365 45.723 88.895 45.723 89.555C45.723 89.885 45.633 90.195 45.453 90.485C45.273 90.765 45.003 90.99 44.643 91.16C45.473 91.49 45.888 92.055 45.888 92.855C45.888 93.545 45.588 94.1 44.988 94.52C44.398 94.94 43.593 95.15 42.573 95.15C41.653 95.15 40.873 94.925 40.233 94.475C39.593 94.025 39.223 93.41 39.123 92.63H40.548ZM53.9584 93.65V95H53.2384C52.8684 95 52.5784 94.91 52.3684 94.73C52.1584 94.54 52.0334 94.27 51.9934 93.92C51.6734 94.29 51.2584 94.59 50.7484 94.82C50.2484 95.04 49.7184 95.15 49.1584 95.15C48.3484 95.15 47.7184 94.95 47.2684 94.55C46.8284 94.15 46.6084 93.615 46.6084 92.945C46.6084 92.335 46.8484 91.815 47.3284 91.385C47.8084 90.945 48.4834 90.68 49.3534 90.59L50.1934 90.5C50.6634 90.45 51.0134 90.39 51.2434 90.32C51.4734 90.24 51.6184 90.155 51.6784 90.065C51.7484 89.975 51.7834 89.855 51.7834 89.705C51.7834 89.365 51.6184 89.1 51.2884 88.91C50.9684 88.71 50.5234 88.61 49.9534 88.61C49.5834 88.61 49.2284 88.71 48.8884 88.91C48.5484 89.1 48.3134 89.375 48.1834 89.735H46.6684C46.8084 89.035 47.1884 88.465 47.8084 88.025C48.4284 87.575 49.1684 87.35 50.0284 87.35C50.9784 87.35 51.7584 87.61 52.3684 88.13C52.9784 88.65 53.2834 89.395 53.2834 90.365V93.245C53.2834 93.375 53.3184 93.475 53.3884 93.545C53.4584 93.615 53.5534 93.65 53.6734 93.65H53.9584ZM49.3084 93.92C49.7784 93.92 50.2184 93.825 50.6284 93.635C51.0384 93.435 51.3634 93.175 51.6034 92.855C51.8534 92.525 51.9784 92.175 51.9784 91.805V91.13C51.6384 91.39 51.0984 91.56 50.3584 91.64L49.5184 91.73C48.9584 91.79 48.5684 91.925 48.3484 92.135C48.1284 92.345 48.0184 92.61 48.0184 92.93C48.0184 93.23 48.1284 93.47 48.3484 93.65C48.5784 93.83 48.8984 93.92 49.3084 93.92ZM62.2002 87.5V95H60.7752V90.38L56.8752 93.68V95H55.4502V87.5H56.8752V92.03L60.7752 88.73V87.5H62.2002ZM58.9002 86.765C58.1202 86.765 57.4802 86.56 56.9802 86.15C56.4802 85.74 56.2002 85.19 56.1402 84.5H57.3702C57.4202 84.88 57.5802 85.18 57.8502 85.4C58.1202 85.61 58.4702 85.715 58.9002 85.715C59.3302 85.715 59.6802 85.61 59.9502 85.4C60.2202 85.18 60.3802 84.88 60.4302 84.5H61.6602C61.6002 85.19 61.3202 85.74 60.8202 86.15C60.3202 86.56 59.6802 86.765 58.9002 86.765ZM71.1305 87.5V95H69.7055V91.925H65.8055V95H64.3805V87.5H65.8055V90.575H69.7055V87.5H71.1305ZM86.5898 95H85.1648V89.525L82.6448 95H81.2348L78.7148 89.57V95H77.2898V87.5H79.2398L81.9698 93.515L84.6698 87.5H86.5898V95ZM91.9339 87.35C92.7039 87.35 93.3739 87.515 93.9439 87.845C94.5239 88.175 94.9689 88.645 95.2789 89.255C95.5889 89.855 95.7439 90.56 95.7439 91.37C95.7439 91.58 95.7389 91.735 95.7289 91.835H89.5789C89.6789 92.415 89.9489 92.895 90.3889 93.275C90.8389 93.645 91.3589 93.83 91.9489 93.83C92.9189 93.83 93.6089 93.475 94.0189 92.765H95.4889C95.2489 93.465 94.8039 94.04 94.1539 94.49C93.5039 94.93 92.7689 95.15 91.9489 95.15C91.2189 95.15 90.5589 94.985 89.9689 94.655C89.3789 94.315 88.9189 93.85 88.5889 93.26C88.2589 92.66 88.0939 91.99 88.0939 91.25C88.0939 90.51 88.2589 89.845 88.5889 89.255C88.9189 88.655 89.3739 88.19 89.9539 87.86C90.5439 87.52 91.2039 87.35 91.9339 87.35ZM91.9039 88.61C91.3139 88.61 90.8039 88.795 90.3739 89.165C89.9539 89.535 89.6939 90.01 89.5939 90.59H94.1989C94.1389 89.99 93.8939 89.51 93.4639 89.15C93.0439 88.79 92.5239 88.61 91.9039 88.61ZM100.815 87.725C101.495 87.725 102.12 87.89 102.69 88.22C103.26 88.54 103.705 88.98 104.025 89.54C104.355 90.1 104.52 90.72 104.52 91.4C104.52 92.09 104.35 92.725 104.01 93.305C103.68 93.875 103.22 94.325 102.63 94.655C102.05 94.985 101.41 95.15 100.71 95.15C100 95.15 99.3501 94.985 98.7601 94.655C98.1801 94.315 97.7201 93.845 97.3801 93.245C97.0401 92.645 96.8701 91.965 96.8701 91.205V88.325C96.8701 87.385 97.1051 86.68 97.5751 86.21C98.0551 85.73 98.7301 85.435 99.6001 85.325L102.285 84.98C102.535 84.95 102.66 84.825 102.66 84.605V84.425H104.1V84.785C104.1 85.195 103.97 85.525 103.71 85.775C103.46 86.015 103.165 86.155 102.825 86.195L99.7351 86.6C99.1751 86.67 98.7601 86.825 98.4901 87.065C98.2301 87.295 98.1001 87.66 98.1001 88.16V89.21C98.4101 88.74 98.8001 88.375 99.2701 88.115C99.7501 87.855 100.265 87.725 100.815 87.725ZM100.665 93.83C101.105 93.83 101.505 93.725 101.865 93.515C102.235 93.295 102.525 93 102.735 92.63C102.945 92.26 103.05 91.85 103.05 91.4C103.05 90.95 102.945 90.54 102.735 90.17C102.525 89.8 102.235 89.51 101.865 89.3C101.505 89.08 101.105 88.97 100.665 88.97C100.215 88.97 99.8051 89.08 99.4351 89.3C99.0651 89.51 98.7751 89.8 98.5651 90.17C98.3551 90.54 98.2501 90.95 98.2501 91.4C98.2501 91.85 98.3551 92.26 98.5651 92.63C98.7751 93 99.0651 93.295 99.4351 93.515C99.8051 93.725 100.215 93.83 100.665 93.83ZM109.252 87.35C110.022 87.35 110.692 87.515 111.262 87.845C111.842 88.175 112.287 88.645 112.597 89.255C112.907 89.855 113.062 90.56 113.062 91.37C113.062 91.58 113.057 91.735 113.047 91.835H106.897C106.997 92.415 107.267 92.895 107.707 93.275C108.157 93.645 108.677 93.83 109.267 93.83C110.237 93.83 110.927 93.475 111.337 92.765H112.807C112.567 93.465 112.122 94.04 111.472 94.49C110.822 94.93 110.087 95.15 109.267 95.15C108.537 95.15 107.877 94.985 107.287 94.655C106.697 94.315 106.237 93.85 105.907 93.26C105.577 92.66 105.412 91.99 105.412 91.25C105.412 90.51 105.577 89.845 105.907 89.255C106.237 88.655 106.692 88.19 107.272 87.86C107.862 87.52 108.522 87.35 109.252 87.35ZM109.222 88.61C108.632 88.61 108.122 88.795 107.692 89.165C107.272 89.535 107.012 90.01 106.912 90.59H111.517C111.457 89.99 111.212 89.51 110.782 89.15C110.362 88.79 109.842 88.61 109.222 88.61ZM120.972 95H119.547V88.85H116.922C116.912 90.31 116.797 91.495 116.577 92.405C116.357 93.305 116.017 93.97 115.557 94.4C115.107 94.83 114.517 95.045 113.787 95.045C113.617 95.045 113.477 95.03 113.367 95V93.695C113.507 93.715 113.612 93.725 113.682 93.725C114.122 93.725 114.472 93.56 114.732 93.23C115.002 92.89 115.197 92.355 115.317 91.625C115.437 90.885 115.497 89.905 115.497 88.685V87.5H120.972V95ZM129.892 87.5V95H128.467V90.38L124.567 93.68V95H123.142V87.5H124.567V92.03L128.467 88.73V87.5H129.892ZM139.877 95.15C138.657 95.15 137.627 94.85 136.787 94.25C135.957 93.64 135.452 92.795 135.272 91.715H136.772C137.022 92.405 137.397 92.91 137.897 93.23C138.407 93.55 139.082 93.71 139.922 93.71C140.732 93.71 141.387 93.565 141.887 93.275C142.387 92.975 142.637 92.59 142.637 92.12C142.637 91.71 142.452 91.38 142.082 91.13C141.712 90.87 141.102 90.655 140.252 90.485L139.112 90.275C137.922 90.065 137.032 89.705 136.442 89.195C135.852 88.675 135.557 88.035 135.557 87.275C135.557 86.695 135.732 86.185 136.082 85.745C136.432 85.305 136.922 84.965 137.552 84.725C138.182 84.475 138.907 84.35 139.727 84.35C140.797 84.35 141.727 84.615 142.517 85.145C143.307 85.665 143.827 86.4 144.077 87.35H142.502C142.302 86.84 141.942 86.455 141.422 86.195C140.912 85.925 140.322 85.79 139.652 85.79C138.862 85.79 138.237 85.93 137.777 86.21C137.327 86.48 137.102 86.855 137.102 87.335C137.102 87.725 137.282 88.04 137.642 88.28C138.012 88.52 138.592 88.71 139.382 88.85L140.522 89.045C141.782 89.255 142.707 89.615 143.297 90.125C143.887 90.635 144.182 91.29 144.182 92.09C144.182 92.69 143.997 93.22 143.627 93.68C143.267 94.14 142.762 94.5 142.112 94.76C141.462 95.02 140.717 95.15 139.877 95.15ZM148.927 95.15C148.187 95.15 147.512 94.98 146.902 94.64C146.292 94.29 145.812 93.82 145.462 93.23C145.112 92.63 144.937 91.97 144.937 91.25C144.937 90.53 145.112 89.875 145.462 89.285C145.812 88.685 146.292 88.215 146.902 87.875C147.512 87.525 148.187 87.35 148.927 87.35C149.657 87.35 150.322 87.525 150.922 87.875C151.532 88.215 152.012 88.685 152.362 89.285C152.712 89.875 152.887 90.53 152.887 91.25C152.887 91.97 152.712 92.63 152.362 93.23C152.012 93.82 151.532 94.29 150.922 94.64C150.322 94.98 149.657 95.15 148.927 95.15ZM148.927 93.83C149.387 93.83 149.807 93.72 150.187 93.5C150.567 93.27 150.867 92.96 151.087 92.57C151.307 92.17 151.417 91.73 151.417 91.25C151.417 90.77 151.307 90.335 151.087 89.945C150.867 89.545 150.567 89.235 150.187 89.015C149.807 88.785 149.387 88.67 148.927 88.67C148.457 88.67 148.027 88.785 147.637 89.015C147.257 89.235 146.957 89.545 146.737 89.945C146.517 90.335 146.407 90.77 146.407 91.25C146.407 91.73 146.517 92.17 146.737 92.57C146.957 92.96 147.257 93.27 147.637 93.5C148.027 93.72 148.457 93.83 148.927 93.83ZM160.16 88.85H156.26V95H154.835V88.85H153.335V87.5H154.835V86.69C154.835 85.92 155.055 85.34 155.495 84.95C155.945 84.55 156.605 84.35 157.475 84.35C157.735 84.35 157.995 84.365 158.255 84.395C158.515 84.425 158.7 84.455 158.81 84.485V85.79C158.53 85.73 158.1 85.7 157.52 85.7C157.05 85.7 156.72 85.785 156.53 85.955C156.35 86.125 156.26 86.37 156.26 86.69V87.5H160.16V88.85ZM161.055 88.85V92.81C161.055 93.13 161.13 93.375 161.28 93.545C161.44 93.715 161.71 93.8 162.09 93.8C162.45 93.8 162.755 93.77 163.005 93.71V95.015C162.735 95.105 162.405 95.15 162.015 95.15C160.425 95.15 159.63 94.37 159.63 92.81V88.85H158.13V87.5H159.63V85.55H161.055V87.5H163.155V88.85H161.055ZM175.76 93.56V95H168.71V84.5H170.21V93.56H175.76ZM180.131 95.15C179.391 95.15 178.716 94.98 178.106 94.64C177.496 94.29 177.016 93.82 176.666 93.23C176.316 92.63 176.141 91.97 176.141 91.25C176.141 90.53 176.316 89.875 176.666 89.285C177.016 88.685 177.496 88.215 178.106 87.875C178.716 87.525 179.391 87.35 180.131 87.35C180.861 87.35 181.526 87.525 182.126 87.875C182.736 88.215 183.216 88.685 183.566 89.285C183.916 89.875 184.091 90.53 184.091 91.25C184.091 91.97 183.916 92.63 183.566 93.23C183.216 93.82 182.736 94.29 182.126 94.64C181.526 94.98 180.861 95.15 180.131 95.15ZM180.131 93.83C180.591 93.83 181.011 93.72 181.391 93.5C181.771 93.27 182.071 92.96 182.291 92.57C182.511 92.17 182.621 91.73 182.621 91.25C182.621 90.77 182.511 90.335 182.291 89.945C182.071 89.545 181.771 89.235 181.391 89.015C181.011 88.785 180.591 88.67 180.131 88.67C179.661 88.67 179.231 88.785 178.841 89.015C178.461 89.235 178.161 89.545 177.941 89.945C177.721 90.335 177.611 90.77 177.611 91.25C177.611 91.73 177.721 92.17 177.941 92.57C178.161 92.96 178.461 93.27 178.841 93.5C179.231 93.72 179.661 93.83 180.131 93.83ZM191.364 88.85H187.464V95H186.039V88.85H184.539V87.5H186.039V86.69C186.039 85.92 186.259 85.34 186.699 84.95C187.149 84.55 187.809 84.35 188.679 84.35C188.939 84.35 189.199 84.365 189.459 84.395C189.719 84.425 189.904 84.455 190.014 84.485V85.79C189.734 85.73 189.304 85.7 188.724 85.7C188.254 85.7 187.924 85.785 187.734 85.955C187.554 86.125 187.464 86.37 187.464 86.69V87.5H191.364V88.85ZM192.26 88.85V92.81C192.26 93.13 192.335 93.375 192.485 93.545C192.645 93.715 192.915 93.8 193.295 93.8C193.655 93.8 193.96 93.77 194.21 93.71V95.015C193.94 95.105 193.61 95.15 193.22 95.15C191.63 95.15 190.835 94.37 190.835 92.81V88.85H189.335V87.5H190.835V85.55H192.26V87.5H194.36V88.85H192.26ZM197.285 93.35V95H195.635V93.35H197.285Z" fill="white"/>
</svg>
