<svg width="33" height="29" viewBox="0 0 33 29" fill="none" xmlns="http://www.w3.org/2000/svg">
<path d="M31.2329 5.0462L31.2312 5.06436C30.8526 9.04264 29.2323 18.58 28.4146 22.9496M31.2329 5.0462L27.0139 22.6875M31.2329 5.0462L31.2342 5.028C31.2635 4.60547 31.2463 4.18103 31.1829 3.76229C31.1066 3.16164 30.8118 2.60958 30.3542 2.21189L30.3361 2.19613L30.3174 2.181C29.943 1.87716 29.5292 1.73617 29.2378 1.66654C28.9373 1.59471 28.6523 1.57181 28.4387 1.57535L28.437 1.57538C27.7165 1.5882 26.9346 1.79275 25.5932 2.27954C24.2273 2.77523 22.1258 3.6253 18.7013 5.04972L18.7012 5.04975C16.2883 6.05353 11.4828 8.12361 4.29554 11.2549C3.66871 11.5054 3.10195 11.7865 2.65818 12.116C2.24634 12.4218 1.69349 12.9526 1.59257 13.7575M31.2329 5.0462L5.2351 16.9125C5.09345 16.8665 4.9424 16.8191 4.78655 16.7703C4.21322 16.5905 3.57481 16.3904 3.09969 16.1603C2.78008 16.0055 2.37186 15.7661 2.05551 15.3772C1.69378 14.9326 1.51583 14.3696 1.59257 13.7575M28.4146 22.9496L27.0139 22.6875M28.4146 22.9496C28.4146 22.9496 28.4146 22.9495 28.4146 22.9495L27.0139 22.6875M28.4146 22.9496C28.043 24.9362 27.1378 26.4843 25.4564 26.6388M27.0139 22.6875C26.6677 24.5384 25.9859 25.1591 25.3259 25.2198M25.4564 26.6388C25.4564 26.6388 25.4565 26.6388 25.4566 26.6388L25.3259 25.2198M25.4564 26.6388C24.3189 26.7435 23.3805 26.3506 22.6309 25.9102C22.2601 25.6924 21.9049 25.4443 21.5836 25.2161C21.5259 25.1751 21.4693 25.1348 21.4135 25.095C21.1452 24.9038 20.8955 24.7258 20.6318 24.5529C19.5338 23.8332 18.6746 23.2492 17.831 22.6748L17.7222 22.6007C16.916 22.0517 16.1165 21.5072 15.1167 20.8484L15.1167 20.8483C14.4327 20.3976 13.8358 19.8782 13.4965 19.2285C13.1035 18.4757 13.1387 17.7134 13.4262 17.0579C13.6709 16.5 14.087 16.0462 14.404 15.7236C14.4226 15.7047 14.4413 15.6858 14.4602 15.6668M25.4564 26.6388L25.3259 25.2198M25.3259 25.2198L14.4602 15.6668M1.59257 13.7575L3.0065 13.9348L1.59257 13.7575ZM14.4602 15.6668C13.9906 15.9833 13.5024 16.3125 12.9957 16.6546C11.8806 17.4194 10.6958 17.9168 9.48452 17.8907C9.48451 17.8907 9.48451 17.8907 9.48451 17.8907L14.4602 15.6668Z" stroke="white" stroke-width="2.85"/>
</svg>
