<svg width="64" height="14" viewBox="0 0 64 14" fill="none" xmlns="http://www.w3.org/2000/svg">
<path d="M9.225 1.94H5.475V11H3.975V1.94H0.225V0.499999H9.225V1.94ZM11.7865 3.35C12.5565 3.35 13.2265 3.515 13.7965 3.845C14.3765 4.175 14.8215 4.645 15.1315 5.255C15.4415 5.855 15.5965 6.56 15.5965 7.37C15.5965 7.58 15.5915 7.735 15.5815 7.835H9.43148C9.53148 8.415 9.80148 8.895 10.2415 9.275C10.6915 9.645 11.2115 9.83 11.8015 9.83C12.7715 9.83 13.4615 9.475 13.8715 8.765H15.3415C15.1015 9.465 14.6565 10.04 14.0065 10.49C13.3565 10.93 12.6215 11.15 11.8015 11.15C11.0715 11.15 10.4115 10.985 9.82148 10.655C9.23148 10.315 8.77148 9.85 8.44148 9.26C8.11148 8.66 7.94648 7.99 7.94648 7.25C7.94648 6.51 8.11148 5.845 8.44148 5.255C8.77148 4.655 9.22648 4.19 9.80648 3.86C10.3965 3.52 11.0565 3.35 11.7865 3.35ZM11.7565 4.61C11.1665 4.61 10.6565 4.795 10.2265 5.165C9.80648 5.535 9.54648 6.01 9.44648 6.59H14.0515C13.9915 5.99 13.7465 5.51 13.3165 5.15C12.8965 4.79 12.3765 4.61 11.7565 4.61ZM18.5227 0.424999V11H17.0977V0.424999H18.5227ZM23.8609 3.35C24.6309 3.35 25.3009 3.515 25.8709 3.845C26.4509 4.175 26.8959 4.645 27.2059 5.255C27.5159 5.855 27.6709 6.56 27.6709 7.37C27.6709 7.58 27.6659 7.735 27.6559 7.835H21.5059C21.6059 8.415 21.8759 8.895 22.3159 9.275C22.7659 9.645 23.2859 9.83 23.8759 9.83C24.8459 9.83 25.5359 9.475 25.9459 8.765H27.4159C27.1759 9.465 26.7309 10.04 26.0809 10.49C25.4309 10.93 24.6959 11.15 23.8759 11.15C23.1459 11.15 22.4859 10.985 21.8959 10.655C21.3059 10.315 20.8459 9.85 20.5159 9.26C20.1859 8.66 20.0209 7.99 20.0209 7.25C20.0209 6.51 20.1859 5.845 20.5159 5.255C20.8459 4.655 21.3009 4.19 21.8809 3.86C22.4709 3.52 23.1309 3.35 23.8609 3.35ZM23.8309 4.61C23.2409 4.61 22.7309 4.795 22.3009 5.165C21.8809 5.535 21.6209 6.01 21.5209 6.59H26.1259C26.0659 5.99 25.8209 5.51 25.3909 5.15C24.9709 4.79 24.4509 4.61 23.8309 4.61ZM33.9571 9.47C34.6271 9.47 35.1821 9.66 35.6221 10.04C36.0721 10.41 36.2971 10.88 36.2971 11.45C36.2971 12.06 36.0771 12.56 35.6371 12.95C35.1971 13.35 34.6371 13.55 33.9571 13.55H31.1371C30.4571 13.55 29.8971 13.355 29.4571 12.965C29.0171 12.575 28.7971 12.08 28.7971 11.48C28.7971 11.17 28.8771 10.88 29.0371 10.61C29.1971 10.33 29.4371 10.095 29.7571 9.905C29.4171 9.655 29.2471 9.33 29.2471 8.93C29.2471 8.67 29.2921 8.465 29.3821 8.315C29.4821 8.155 29.6221 8.02 29.8021 7.91C29.4721 7.7 29.2221 7.435 29.0521 7.115C28.8821 6.795 28.7971 6.43 28.7971 6.02C28.7971 5.49 28.9521 5.025 29.2621 4.625C29.5721 4.215 30.0121 3.9 30.5821 3.68C31.1521 3.46 31.8121 3.35 32.5621 3.35C32.8821 3.35 33.2171 3.375 33.5671 3.425V2.99C33.5671 2.03 34.0171 1.55 34.9171 1.55H35.5621V2.915H35.0821C34.9721 2.915 34.8821 2.95 34.8121 3.02C34.7521 3.08 34.7221 3.165 34.7221 3.275V3.755C35.2221 3.985 35.6071 4.295 35.8771 4.685C36.1571 5.075 36.2971 5.52 36.2971 6.02C36.2971 6.55 36.1421 7.02 35.8321 7.43C35.5321 7.83 35.0971 8.14 34.5271 8.36C33.9671 8.58 33.3121 8.69 32.5621 8.69C31.9221 8.69 31.3321 8.605 30.7921 8.435C30.5621 8.545 30.4471 8.71 30.4471 8.93C30.4471 9.08 30.5071 9.21 30.6271 9.32C30.7471 9.42 30.9021 9.47 31.0921 9.47H33.9571ZM32.5621 4.52C31.8021 4.52 31.2221 4.645 30.8221 4.895C30.4221 5.145 30.2221 5.51 30.2221 5.99C30.2221 6.47 30.4221 6.84 30.8221 7.1C31.2221 7.35 31.8021 7.475 32.5621 7.475C33.3121 7.475 33.8821 7.35 34.2721 7.1C34.6721 6.84 34.8721 6.47 34.8721 5.99C34.8721 5.51 34.6721 5.145 34.2721 4.895C33.8821 4.645 33.3121 4.52 32.5621 4.52ZM33.8821 12.41C34.2021 12.41 34.4621 12.325 34.6621 12.155C34.8721 11.995 34.9771 11.795 34.9771 11.555C34.9771 11.295 34.8771 11.08 34.6771 10.91C34.4771 10.73 34.2121 10.64 33.8821 10.64H31.1971C30.8771 10.64 30.6171 10.725 30.4171 10.895C30.2271 11.065 30.1321 11.275 30.1321 11.525C30.1321 11.775 30.2271 11.985 30.4171 12.155C30.6171 12.325 30.8771 12.41 31.1971 12.41H33.8821ZM41.6197 3.35C41.8597 3.35 42.0847 3.365 42.2947 3.395V4.79C42.1147 4.75 41.8297 4.73 41.4397 4.73C40.9997 4.73 40.6097 4.83 40.2697 5.03C39.9397 5.23 39.6797 5.5 39.4897 5.84C39.3097 6.17 39.2197 6.535 39.2197 6.935V11H37.7947V3.5H39.1447V4.655C39.4247 4.255 39.7797 3.94 40.2097 3.71C40.6497 3.47 41.1197 3.35 41.6197 3.35ZM49.8715 9.65V11H49.1515C48.7815 11 48.4915 10.91 48.2815 10.73C48.0715 10.54 47.9465 10.27 47.9065 9.92C47.5865 10.29 47.1715 10.59 46.6615 10.82C46.1615 11.04 45.6315 11.15 45.0715 11.15C44.2615 11.15 43.6315 10.95 43.1815 10.55C42.7415 10.15 42.5215 9.615 42.5215 8.945C42.5215 8.335 42.7615 7.815 43.2415 7.385C43.7215 6.945 44.3965 6.68 45.2665 6.59L46.1065 6.5C46.5765 6.45 46.9265 6.39 47.1565 6.32C47.3865 6.24 47.5315 6.155 47.5915 6.065C47.6615 5.975 47.6965 5.855 47.6965 5.705C47.6965 5.365 47.5315 5.1 47.2015 4.91C46.8815 4.71 46.4365 4.61 45.8665 4.61C45.4965 4.61 45.1415 4.71 44.8015 4.91C44.4615 5.1 44.2265 5.375 44.0965 5.735H42.5815C42.7215 5.035 43.1015 4.465 43.7215 4.025C44.3415 3.575 45.0815 3.35 45.9415 3.35C46.8915 3.35 47.6715 3.61 48.2815 4.13C48.8915 4.65 49.1965 5.395 49.1965 6.365V9.245C49.1965 9.375 49.2315 9.475 49.3015 9.545C49.3715 9.615 49.4665 9.65 49.5865 9.65H49.8715ZM45.2215 9.92C45.6915 9.92 46.1315 9.825 46.5415 9.635C46.9515 9.435 47.2765 9.175 47.5165 8.855C47.7665 8.525 47.8915 8.175 47.8915 7.805V7.13C47.5515 7.39 47.0115 7.56 46.2715 7.64L45.4315 7.73C44.8715 7.79 44.4815 7.925 44.2615 8.135C44.0415 8.345 43.9315 8.61 43.9315 8.93C43.9315 9.23 44.0415 9.47 44.2615 9.65C44.4915 9.83 44.8115 9.92 45.2215 9.92ZM60.5883 3.35C61.1883 3.35 61.7233 3.48 62.1933 3.74C62.6733 4 63.0483 4.395 63.3183 4.925C63.5983 5.445 63.7383 6.085 63.7383 6.845V11H62.3133V6.875C62.3133 6.215 62.1233 5.69 61.7433 5.3C61.3733 4.91 60.9033 4.715 60.3333 4.715C59.7133 4.715 59.2133 4.935 58.8333 5.375C58.4533 5.815 58.2633 6.355 58.2633 6.995V11H56.8383V6.875C56.8383 6.215 56.6483 5.69 56.2683 5.3C55.8983 4.91 55.4283 4.715 54.8583 4.715C54.2383 4.715 53.7383 4.935 53.3583 5.375C52.9783 5.815 52.7883 6.355 52.7883 6.995V11H51.3633V3.5H52.7133V4.685C52.9833 4.275 53.3283 3.95 53.7483 3.71C54.1783 3.47 54.6333 3.35 55.1133 3.35C55.7033 3.35 56.2333 3.48 56.7033 3.74C57.1833 3.99 57.5533 4.365 57.8133 4.865C58.1033 4.405 58.4933 4.04 58.9833 3.77C59.4833 3.49 60.0183 3.35 60.5883 3.35Z" fill="#FFD600"/>
</svg>
