<svg width="182" height="46" viewBox="0 0 182 46" fill="none" xmlns="http://www.w3.org/2000/svg">
<path d="M78.5497 18.5V29H77.0497V24.47H71.0497V29H69.5497V18.5H71.0497V23.03H77.0497V18.5H78.5497ZM87.9288 21.5V29H86.5038V27.875C86.1938 28.275 85.8188 28.59 85.3788 28.82C84.9388 29.04 84.4688 29.15 83.9688 29.15C83.3088 29.15 82.7088 28.985 82.1688 28.655C81.6288 28.315 81.2038 27.85 80.8938 27.26C80.5838 26.67 80.4288 26 80.4288 25.25C80.4288 24.5 80.5838 23.83 80.8938 23.24C81.2038 22.65 81.6288 22.19 82.1688 21.86C82.7088 21.52 83.3088 21.35 83.9688 21.35C84.4888 21.35 84.9738 21.47 85.4238 21.71C85.8738 21.95 86.2588 22.285 86.5788 22.715V21.5H87.9288ZM84.2088 27.83C84.6488 27.83 85.0488 27.72 85.4088 27.5C85.7688 27.28 86.0488 26.975 86.2488 26.585C86.4488 26.185 86.5488 25.74 86.5488 25.25C86.5488 24.76 86.4488 24.32 86.2488 23.93C86.0488 23.53 85.7688 23.22 85.4088 23C85.0488 22.78 84.6488 22.67 84.2088 22.67C83.7688 22.67 83.3738 22.78 83.0238 23C82.6738 23.22 82.3988 23.53 82.1988 23.93C81.9988 24.32 81.8988 24.76 81.8988 25.25C81.8988 25.74 81.9988 26.185 82.1988 26.585C82.3988 26.975 82.6738 27.28 83.0238 27.5C83.3738 27.72 83.7688 27.83 84.2088 27.83ZM95.5223 25.175C96.2623 25.545 96.6323 26.115 96.6323 26.885C96.6323 27.505 96.4073 28.015 95.9573 28.415C95.5073 28.805 94.8873 29 94.0973 29H90.3323V21.5H94.0973C94.8473 21.5 95.4373 21.695 95.8673 22.085C96.3073 22.465 96.5273 22.95 96.5273 23.54C96.5273 23.89 96.4423 24.21 96.2723 24.5C96.1123 24.78 95.8623 25.005 95.5223 25.175ZM93.9323 24.62C94.3023 24.62 94.5823 24.535 94.7723 24.365C94.9623 24.195 95.0573 23.945 95.0573 23.615C95.0573 23.005 94.6823 22.7 93.9323 22.7H91.7273V24.62H93.9323ZM93.9473 27.8C94.3473 27.8 94.6473 27.715 94.8473 27.545C95.0573 27.365 95.1623 27.11 95.1623 26.78C95.1623 26.47 95.0573 26.235 94.8473 26.075C94.6473 25.905 94.3473 25.82 93.9473 25.82H91.7273V27.8H93.9473ZM101.598 21.35C102.368 21.35 103.038 21.515 103.608 21.845C104.188 22.175 104.633 22.645 104.943 23.255C105.253 23.855 105.408 24.56 105.408 25.37C105.408 25.58 105.403 25.735 105.393 25.835H99.2429C99.3429 26.415 99.6129 26.895 100.053 27.275C100.503 27.645 101.023 27.83 101.613 27.83C102.583 27.83 103.273 27.475 103.683 26.765H105.153C104.913 27.465 104.468 28.04 103.818 28.49C103.168 28.93 102.433 29.15 101.613 29.15C100.883 29.15 100.223 28.985 99.6329 28.655C99.0429 28.315 98.5829 27.85 98.2529 27.26C97.9229 26.66 97.7579 25.99 97.7579 25.25C97.7579 24.51 97.9229 23.845 98.2529 23.255C98.5829 22.655 99.0379 22.19 99.6179 21.86C100.208 21.52 100.868 21.35 101.598 21.35ZM101.568 22.61C100.978 22.61 100.468 22.795 100.038 23.165C99.6179 23.535 99.3579 24.01 99.2579 24.59H103.863C103.803 23.99 103.558 23.51 103.128 23.15C102.708 22.79 102.188 22.61 101.568 22.61ZM111.881 29L109.706 26.165L107.516 29H105.791L108.791 25.19L105.911 21.5H107.681L109.736 24.185L111.746 21.5H113.516L110.651 25.145L113.651 29H111.881Z" fill="#FFD600"/>
<rect x="0.5" y="0.5" width="181" height="45" rx="12.5" stroke="#FFD600"/>
</svg>
