<svg width="14" height="14" viewBox="0 0 14 14" fill="none" xmlns="http://www.w3.org/2000/svg">
<path d="M13.6305 10.4134L13.0287 13.0222C12.9442 13.391 12.62 13.649 12.2403 13.649C5.70992 13.6485 0.398438 8.3378 0.398438 1.80811C0.398438 1.4287 0.656479 1.10416 1.02536 1.02004L3.63451 0.418318C4.01449 0.330272 4.40276 0.527482 4.56065 0.887275L5.76479 3.69533C5.90555 4.02608 5.81061 4.41144 5.53235 4.63868L4.13873 5.7575C5.01829 7.54895 6.47506 9.00552 8.2673 9.88546L9.40828 8.49308C9.63317 8.21409 10.0215 8.11755 10.3523 8.2608L13.1607 9.46451C13.4985 9.64218 13.7186 10.0356 13.6305 10.4134Z" fill="#FFD600"/>
</svg>
