<svg width="83" height="14" viewBox="0 0 83 14" fill="none" xmlns="http://www.w3.org/2000/svg">
<path d="M16.2 0.499999L13.11 11H11.145L8.295 2.48L5.43 11H3.525L0.45 0.499999H2.115L4.545 9.215L7.5 0.499999H9.21L12.135 9.215L14.595 0.499999H16.2ZM21.3503 3.35C21.9803 3.35 22.5453 3.48 23.0453 3.74C23.5553 4 23.9553 4.395 24.2453 4.925C24.5353 5.445 24.6803 6.085 24.6803 6.845V11H23.2553V6.875C23.2553 6.215 23.0603 5.69 22.6703 5.3C22.2803 4.91 21.7903 4.715 21.2003 4.715C20.8003 4.715 20.4353 4.82 20.1053 5.03C19.7753 5.24 19.5153 5.525 19.3253 5.885C19.1453 6.235 19.0553 6.615 19.0553 7.025V11H17.6303V0.424999H18.9803V4.505C19.2703 4.155 19.6253 3.875 20.0453 3.665C20.4653 3.455 20.9003 3.35 21.3503 3.35ZM33.457 9.65V11H32.737C32.367 11 32.077 10.91 31.867 10.73C31.657 10.54 31.532 10.27 31.492 9.92C31.172 10.29 30.757 10.59 30.247 10.82C29.747 11.04 29.217 11.15 28.657 11.15C27.847 11.15 27.217 10.95 26.767 10.55C26.327 10.15 26.107 9.615 26.107 8.945C26.107 8.335 26.347 7.815 26.827 7.385C27.307 6.945 27.982 6.68 28.852 6.59L29.692 6.5C30.162 6.45 30.512 6.39 30.742 6.32C30.972 6.24 31.117 6.155 31.177 6.065C31.247 5.975 31.282 5.855 31.282 5.705C31.282 5.365 31.117 5.1 30.787 4.91C30.467 4.71 30.022 4.61 29.452 4.61C29.082 4.61 28.727 4.71 28.387 4.91C28.047 5.1 27.812 5.375 27.682 5.735H26.167C26.307 5.035 26.687 4.465 27.307 4.025C27.927 3.575 28.667 3.35 29.527 3.35C30.477 3.35 31.257 3.61 31.867 4.13C32.477 4.65 32.782 5.395 32.782 6.365V9.245C32.782 9.375 32.817 9.475 32.887 9.545C32.957 9.615 33.052 9.65 33.172 9.65H33.457ZM28.807 9.92C29.277 9.92 29.717 9.825 30.127 9.635C30.537 9.435 30.862 9.175 31.102 8.855C31.352 8.525 31.477 8.175 31.477 7.805V7.13C31.137 7.39 30.597 7.56 29.857 7.64L29.017 7.73C28.457 7.79 28.067 7.925 27.847 8.135C27.627 8.345 27.517 8.61 27.517 8.93C27.517 9.23 27.627 9.47 27.847 9.65C28.077 9.83 28.397 9.92 28.807 9.92ZM36.8238 4.85V8.81C36.8238 9.13 36.8988 9.375 37.0488 9.545C37.2088 9.715 37.4788 9.8 37.8588 9.8C38.2188 9.8 38.5238 9.77 38.7738 9.71V11.015C38.5038 11.105 38.1738 11.15 37.7838 11.15C36.1938 11.15 35.3988 10.37 35.3988 8.81V4.85H33.8988V3.5H35.3988V1.55H36.8238V3.5H38.9238V4.85H36.8238ZM41.6988 0.499999L41.2488 3.95H40.1988V0.499999H41.6988ZM45.7668 11.15C44.8268 11.15 44.0318 10.93 43.3818 10.49C42.7418 10.04 42.3718 9.42 42.2718 8.63H43.6968C43.8268 9.06 44.0668 9.38 44.4168 9.59C44.7768 9.79 45.2468 9.89 45.8268 9.89C46.3668 9.89 46.8018 9.805 47.1318 9.635C47.4618 9.455 47.6268 9.225 47.6268 8.945C47.6268 8.665 47.5118 8.445 47.2818 8.285C47.0618 8.115 46.6468 7.98 46.0368 7.88L45.1818 7.73C43.3818 7.41 42.4818 6.685 42.4818 5.555C42.4818 4.895 42.7718 4.365 43.3518 3.965C43.9318 3.555 44.6918 3.35 45.6318 3.35C46.4818 3.35 47.2068 3.55 47.8068 3.95C48.4068 4.34 48.7868 4.885 48.9468 5.585H47.4318C47.3118 5.285 47.0818 5.055 46.7418 4.895C46.4018 4.725 46.0268 4.64 45.6168 4.64C45.0968 4.64 44.6818 4.72 44.3718 4.88C44.0718 5.03 43.9218 5.24 43.9218 5.51C43.9218 5.75 44.0368 5.95 44.2668 6.11C44.4968 6.26 44.8668 6.375 45.3768 6.455L46.2468 6.605C47.2668 6.775 47.9868 7.055 48.4068 7.445C48.8268 7.825 49.0368 8.325 49.0368 8.945C49.0368 9.605 48.7418 10.14 48.1518 10.55C47.5718 10.95 46.7768 11.15 45.7668 11.15ZM61.8027 8.6H56.1327L55.0977 11H53.4627L58.1727 0.499999H59.8527L64.5627 11H62.8377L61.8027 8.6ZM61.2177 7.22L58.9827 2.045L56.7327 7.22H61.2177ZM69.6442 3.35C70.3042 3.35 70.9042 3.52 71.4442 3.86C71.9842 4.19 72.4092 4.65 72.7192 5.24C73.0292 5.83 73.1842 6.5 73.1842 7.25C73.1842 8 73.0292 8.67 72.7192 9.26C72.4092 9.85 71.9842 10.315 71.4442 10.655C70.9042 10.985 70.3042 11.15 69.6442 11.15C69.1442 11.15 68.6742 11.04 68.2342 10.82C67.7942 10.59 67.4192 10.275 67.1092 9.875V13.55H65.6842V3.5H67.0342V4.715C67.3542 4.285 67.7392 3.95 68.1892 3.71C68.6392 3.47 69.1242 3.35 69.6442 3.35ZM69.4042 9.83C69.8442 9.83 70.2392 9.72 70.5892 9.5C70.9392 9.28 71.2142 8.975 71.4142 8.585C71.6142 8.185 71.7142 7.74 71.7142 7.25C71.7142 6.76 71.6142 6.32 71.4142 5.93C71.2142 5.53 70.9392 5.22 70.5892 5C70.2392 4.78 69.8442 4.67 69.4042 4.67C68.9642 4.67 68.5642 4.78 68.2042 5C67.8442 5.22 67.5642 5.53 67.3642 5.93C67.1642 6.32 67.0642 6.76 67.0642 7.25C67.0642 7.74 67.1642 8.185 67.3642 8.585C67.5642 8.975 67.8442 9.28 68.2042 9.5C68.5642 9.72 68.9642 9.83 69.4042 9.83ZM78.6477 3.35C79.3077 3.35 79.9077 3.52 80.4477 3.86C80.9877 4.19 81.4127 4.65 81.7227 5.24C82.0327 5.83 82.1877 6.5 82.1877 7.25C82.1877 8 82.0327 8.67 81.7227 9.26C81.4127 9.85 80.9877 10.315 80.4477 10.655C79.9077 10.985 79.3077 11.15 78.6477 11.15C78.1477 11.15 77.6777 11.04 77.2377 10.82C76.7977 10.59 76.4227 10.275 76.1127 9.875V13.55H74.6877V3.5H76.0377V4.715C76.3577 4.285 76.7427 3.95 77.1927 3.71C77.6427 3.47 78.1277 3.35 78.6477 3.35ZM78.4077 9.83C78.8477 9.83 79.2427 9.72 79.5927 9.5C79.9427 9.28 80.2177 8.975 80.4177 8.585C80.6177 8.185 80.7177 7.74 80.7177 7.25C80.7177 6.76 80.6177 6.32 80.4177 5.93C80.2177 5.53 79.9427 5.22 79.5927 5C79.2427 4.78 78.8477 4.67 78.4077 4.67C77.9677 4.67 77.5677 4.78 77.2077 5C76.8477 5.22 76.5677 5.53 76.3677 5.93C76.1677 6.32 76.0677 6.76 76.0677 7.25C76.0677 7.74 76.1677 8.185 76.3677 8.585C76.5677 8.975 76.8477 9.28 77.2077 9.5C77.5677 9.72 77.9677 9.83 78.4077 9.83Z" fill="#FFD600"/>
</svg>
