<svg width="31" height="31" viewBox="0 0 31 31" fill="none" xmlns="http://www.w3.org/2000/svg">
<path d="M25.8468 4.41751C23.0036 1.56751 19.2171 0 15.1932 0C6.8875 0 0.128929 6.75859 0.128929 15.0643C0.128929 17.7176 0.821071 20.3097 2.1375 22.5965L0 30.4001L7.98678 28.3033C10.1854 29.5044 12.6621 30.1355 15.1864 30.1355H15.1932C23.4921 30.1355 30.4 23.3769 30.4 15.0711C30.4 11.0472 28.69 7.26752 25.8468 4.41751ZM15.1932 27.5976C12.9404 27.5976 10.735 26.9937 8.81464 25.8537L8.36 25.5822L3.62357 26.824L4.88571 22.2029L4.58714 21.7279C3.33179 19.7329 2.67357 17.4326 2.67357 15.0643C2.67357 8.16324 8.29214 2.54465 15.2 2.54465C18.5454 2.54465 21.6871 3.84751 24.0486 6.21573C26.41 8.58396 27.8621 11.7258 27.8554 15.0711C27.8554 21.979 22.0943 27.5976 15.1932 27.5976ZM22.0604 18.2197C21.6871 18.0297 19.8346 17.1204 19.4886 16.9983C19.1425 16.8693 18.8914 16.8083 18.6404 17.1883C18.3893 17.5683 17.67 18.4097 17.4461 18.6676C17.2289 18.9186 17.005 18.9526 16.6318 18.7626C14.4196 17.6565 12.9675 16.7879 11.5086 14.284C11.1218 13.619 11.8954 13.6665 12.6146 12.2279C12.7368 11.9768 12.6757 11.7597 12.5807 11.5697C12.4857 11.3797 11.7325 9.52717 11.4204 8.77396C11.115 8.0411 10.8029 8.14288 10.5721 8.12931C10.355 8.11574 10.1039 8.11574 9.85286 8.11574C9.60178 8.11574 9.19464 8.21074 8.84857 8.58396C8.5025 8.96396 7.53214 9.87325 7.53214 11.7258C7.53214 13.5783 8.8825 15.3697 9.06571 15.6208C9.25571 15.8718 11.7189 19.6719 15.4986 21.3072C17.8871 22.3386 18.8236 22.4269 20.0179 22.2504C20.7439 22.1419 22.2436 21.3411 22.5557 20.459C22.8679 19.5768 22.8679 18.8236 22.7729 18.6676C22.6846 18.4979 22.4336 18.4029 22.0604 18.2197Z" fill="white"/>
</svg>
