<svg width="121" height="21" viewBox="0 0 121 21" fill="none" xmlns="http://www.w3.org/2000/svg">
<path d="M90.796 0.643555L89.8054 4.9003H82.9786L79.5785 19.5446H72.832L76.232 4.9003H69.2178L70.1816 0.643555H90.796Z" fill="white"/>
<path d="M68.1755 0.643555L67.1849 4.87353H55.7533L54.8966 8.54129H65.6857L64.6951 12.7713H53.906L52.3265 19.5446H45.687L50.0776 0.643555H68.1755Z" fill="white"/>
<path d="M43.6778 8.4064C43.6778 11.5119 42.2856 14.7246 40.01 16.786C38.5643 18.1246 35.5391 20.079 30.2382 20.079C29.1406 20.079 25.4193 20.0254 22.7153 18.0443C20.5736 16.4915 19.4224 14.0017 19.4224 11.3513C19.4224 9.47728 19.9846 7.60324 20.9484 5.97015C24.1878 0.401579 30.3989 0 32.8083 0C39.8494 0 43.6778 3.37327 43.6778 8.4064ZM37.0383 8.72766C37.0383 5.78275 35.3785 4.2032 32.7013 4.2032C28.8996 4.2032 26.1421 7.33552 26.1421 11.1907C26.1421 13.975 27.8823 15.9561 30.7201 15.9561C34.4147 15.9561 37.0383 12.8238 37.0383 8.72766Z" fill="white"/>
<path d="M17.5089 15.2075L16.5183 19.5446H0L4.36383 0.643555H11.1371L7.76387 15.2075H17.5089Z" fill="white"/>
<path d="M120.999 7.3208L120.646 8.80408H115.542L113.017 19.7874H111.252L113.777 8.80408H108.709L109.044 7.3208H120.999Z" fill="white"/>
<path d="M94.4044 7.3208H102.351C103.41 7.3208 104.399 7.37378 105.229 7.88586C106.041 8.36263 106.483 9.24553 106.483 10.3227C106.483 11.2232 106.182 12.1238 105.706 12.7595C104.805 13.9602 103.269 14.2781 101.715 14.3664L105.088 19.7874H103.022L99.8431 14.4547H94.5633L93.3096 19.7874H91.5261L94.4044 7.3208ZM95.87 8.8394L94.8812 12.9184H100.655C102.421 12.9184 103.145 12.8125 103.746 12.4593C104.346 12.1238 104.717 11.3822 104.717 10.5522C104.717 9.98718 104.522 9.52806 104.169 9.24553C103.799 8.963 103.145 8.8394 101.944 8.8394H95.87Z" fill="white"/>
</svg>
