<svg width="146" height="25" viewBox="0 0 146 25" fill="none" xmlns="http://www.w3.org/2000/svg">
<path d="M109.556 0.775879L108.361 5.91208H100.123L96.0208 23.5819H87.8805L91.983 5.91208H83.5195L84.6824 0.775879H109.556Z" fill="white"/>
<path d="M82.2616 0.775879L81.0664 5.87978H67.2729L66.2392 10.3053H79.2574L78.0622 15.4092H65.044L63.1381 23.5819H55.127L60.4247 0.775879H82.2616Z" fill="white"/>
<path d="M52.7012 10.1432C52.7012 13.8904 51.0215 17.7667 48.2757 20.2541C46.5313 21.8692 42.8811 24.2274 36.485 24.2274C35.1606 24.2274 30.6705 24.1628 27.4079 21.7723C24.8236 19.8987 23.4346 16.8945 23.4346 13.6965C23.4346 11.4353 24.1129 9.17409 25.2758 7.2036C29.1845 0.484547 36.6789 0 39.5861 0C48.0819 0 52.7012 4.0702 52.7012 10.1432ZM44.69 10.5308C44.69 6.97748 42.6872 5.07159 39.4569 5.07159C34.8699 5.07159 31.5427 8.85106 31.5427 13.5027C31.5427 16.8622 33.6424 19.2527 37.0665 19.2527C41.5243 19.2527 44.69 15.4732 44.69 10.5308Z" fill="white"/>
<path d="M21.1263 18.3488L19.931 23.5819H0L5.26541 0.775879H13.4381L9.36791 18.3488H21.1263Z" fill="white"/>
<path d="M145.999 8.83496L145.573 10.6247H139.415L136.369 23.8772H134.238L137.285 10.6247H131.17L131.575 8.83496H145.999Z" fill="white"/>
<path d="M113.908 8.83496H123.496C124.775 8.83496 125.968 8.89888 126.969 9.51676C127.949 10.092 128.482 11.1574 128.482 12.457C128.482 13.5437 128.12 14.6303 127.545 15.3973C126.458 16.8461 124.604 17.2297 122.729 17.3362L126.799 23.8772H124.306L120.471 17.4427H114.1L112.587 23.8772H110.436L113.908 8.83496ZM115.677 10.6673L114.484 15.5891H121.451C123.582 15.5891 124.455 15.4612 125.18 15.0351C125.904 14.6303 126.351 13.7354 126.351 12.734C126.351 12.0522 126.117 11.4983 125.691 11.1574C125.243 10.8164 124.455 10.6673 123.006 10.6673H115.677Z" fill="white"/>
</svg>
