<svg width="328" height="98" viewBox="0 0 328 98" fill="none" xmlns="http://www.w3.org/2000/svg">
<path opacity="0.8" d="M13.8 11H12.3V2.375L8.31 11H6.81L2.85 2.45V11H1.35V0.499999H3.54L7.605 9.23L11.655 0.499999H13.8V11ZM19.8265 6.47C20.6165 6.47 21.2315 6.685 21.6715 7.115C22.1215 7.535 22.3465 8.075 22.3465 8.735C22.3465 9.395 22.1215 9.94 21.6715 10.37C21.2315 10.79 20.6165 11 19.8265 11H16.1215V3.5H17.5465V6.47H19.8265ZM19.6315 9.755C20.0415 9.755 20.3515 9.67 20.5615 9.5C20.7715 9.33 20.8765 9.075 20.8765 8.735C20.8765 8.395 20.7715 8.14 20.5615 7.97C20.3515 7.8 20.0415 7.715 19.6315 7.715H17.5465V9.755H19.6315ZM25.1215 3.5V11H23.6965V3.5H25.1215ZM38.5171 3.5L34.8721 11.84C34.6821 12.35 34.4171 12.765 34.0771 13.085C33.7371 13.415 33.2371 13.58 32.5771 13.58C32.1071 13.58 31.7421 13.57 31.4821 13.55V12.2C31.7621 12.22 32.0971 12.23 32.4871 12.23C32.7671 12.23 32.9871 12.155 33.1471 12.005C33.3171 11.855 33.4571 11.65 33.5671 11.39L33.7921 10.865L30.1471 3.5H31.8121L34.4971 9.26L37.0171 3.5H38.5171ZM46.2626 9.65V12.65H44.8826V11H39.2726V12.65H37.8926V9.65H38.8226C39.2426 9.09 39.5676 8.35 39.7976 7.43C40.0276 6.5 40.1426 5.47 40.1426 4.34V3.5H45.2126V9.65H46.2626ZM43.8176 9.695V4.775H41.4776C41.4076 6.875 41.0076 8.515 40.2776 9.695H43.8176ZM50.6277 3.35C51.3977 3.35 52.0677 3.515 52.6377 3.845C53.2177 4.175 53.6627 4.645 53.9727 5.255C54.2827 5.855 54.4377 6.56 54.4377 7.37C54.4377 7.58 54.4327 7.735 54.4227 7.835H48.2727C48.3727 8.415 48.6427 8.895 49.0827 9.275C49.5327 9.645 50.0527 9.83 50.6427 9.83C51.6127 9.83 52.3027 9.475 52.7127 8.765H54.1827C53.9427 9.465 53.4977 10.04 52.8477 10.49C52.1977 10.93 51.4627 11.15 50.6427 11.15C49.9127 11.15 49.2527 10.985 48.6627 10.655C48.0727 10.315 47.6127 9.85 47.2827 9.26C46.9527 8.66 46.7877 7.99 46.7877 7.25C46.7877 6.51 46.9527 5.845 47.2827 5.255C47.6127 4.655 48.0677 4.19 48.6477 3.86C49.2377 3.52 49.8977 3.35 50.6277 3.35ZM50.5977 4.61C50.0077 4.61 49.4977 4.795 49.0677 5.165C48.6477 5.535 48.3877 6.01 48.2877 6.59H52.8927C52.8327 5.99 52.5877 5.51 52.1577 5.15C51.7377 4.79 51.2177 4.61 50.5977 4.61ZM62.3474 11H60.9224V4.85H58.2974C58.2874 6.31 58.1724 7.495 57.9524 8.405C57.7324 9.305 57.3924 9.97 56.9324 10.4C56.4824 10.83 55.8924 11.045 55.1624 11.045C54.9924 11.045 54.8524 11.03 54.7424 11V9.695C54.8824 9.715 54.9874 9.725 55.0574 9.725C55.4974 9.725 55.8474 9.56 56.1074 9.23C56.3774 8.89 56.5724 8.355 56.6924 7.625C56.8124 6.885 56.8724 5.905 56.8724 4.685V3.5H62.3474V11ZM70.4576 11H69.0326V8.18H66.5726C66.1126 8.18 65.8826 8.415 65.8826 8.885V9.485C65.8826 9.985 65.7576 10.365 65.5076 10.625C65.2676 10.875 64.9126 11 64.4426 11H63.8126V9.635H64.0976C64.2076 9.635 64.2926 9.605 64.3526 9.545C64.4226 9.475 64.4576 9.385 64.4576 9.275V8.66C64.4576 8.1 64.7226 7.705 65.2526 7.475C64.9226 7.285 64.6676 7.035 64.4876 6.725C64.3176 6.415 64.2326 6.07 64.2326 5.69C64.2326 5.05 64.4526 4.525 64.8926 4.115C65.3426 3.705 65.9626 3.5 66.7526 3.5H70.4576V11ZM66.9476 4.775C66.5376 4.775 66.2276 4.87 66.0176 5.06C65.8076 5.24 65.7026 5.505 65.7026 5.855C65.7026 6.205 65.8076 6.475 66.0176 6.665C66.2276 6.845 66.5376 6.935 66.9476 6.935H69.0326V4.775H66.9476ZM75.7925 3.35C76.5625 3.35 77.2325 3.515 77.8025 3.845C78.3825 4.175 78.8275 4.645 79.1375 5.255C79.4475 5.855 79.6025 6.56 79.6025 7.37C79.6025 7.58 79.5975 7.735 79.5875 7.835H73.4375C73.5375 8.415 73.8075 8.895 74.2475 9.275C74.6975 9.645 75.2175 9.83 75.8075 9.83C76.7775 9.83 77.4675 9.475 77.8775 8.765H79.3475C79.1075 9.465 78.6625 10.04 78.0125 10.49C77.3625 10.93 76.6275 11.15 75.8075 11.15C75.0775 11.15 74.4175 10.985 73.8275 10.655C73.2375 10.315 72.7775 9.85 72.4475 9.26C72.1175 8.66 71.9525 7.99 71.9525 7.25C71.9525 6.51 72.1175 5.845 72.4475 5.255C72.7775 4.655 73.2325 4.19 73.8125 3.86C74.4025 3.52 75.0625 3.35 75.7925 3.35ZM75.7625 4.61C75.1725 4.61 74.6625 4.795 74.2325 5.165C73.8125 5.535 73.5525 6.01 73.4525 6.59H78.0575C77.9975 5.99 77.7525 5.51 77.3225 5.15C76.9025 4.79 76.3825 4.61 75.7625 4.61ZM90.4037 11H88.9787V5.525L86.4587 11H85.0487L82.5287 5.57V11H81.1037V3.5H83.0537L85.7837 9.515L88.4837 3.5H90.4037V11ZM100.132 3.725C100.812 3.725 101.437 3.89 102.007 4.22C102.577 4.54 103.022 4.98 103.342 5.54C103.672 6.1 103.837 6.72 103.837 7.4C103.837 8.09 103.667 8.725 103.327 9.305C102.997 9.875 102.537 10.325 101.947 10.655C101.367 10.985 100.727 11.15 100.027 11.15C99.3169 11.15 98.6669 10.985 98.0769 10.655C97.4969 10.315 97.0369 9.845 96.6969 9.245C96.3569 8.645 96.1869 7.965 96.1869 7.205V4.325C96.1869 3.385 96.4219 2.68 96.8919 2.21C97.3719 1.73 98.0469 1.435 98.9169 1.325L101.602 0.979999C101.852 0.95 101.977 0.825 101.977 0.605V0.424999H103.417V0.784999C103.417 1.195 103.287 1.525 103.027 1.775C102.777 2.015 102.482 2.155 102.142 2.195L99.0519 2.6C98.4919 2.67 98.0769 2.825 97.8069 3.065C97.5469 3.295 97.4169 3.66 97.4169 4.16V5.21C97.7269 4.74 98.1169 4.375 98.5869 4.115C99.0669 3.855 99.5819 3.725 100.132 3.725ZM99.9819 9.83C100.422 9.83 100.822 9.725 101.182 9.515C101.552 9.295 101.842 9 102.052 8.63C102.262 8.26 102.367 7.85 102.367 7.4C102.367 6.95 102.262 6.54 102.052 6.17C101.842 5.8 101.552 5.51 101.182 5.3C100.822 5.08 100.422 4.97 99.9819 4.97C99.5319 4.97 99.1219 5.08 98.7519 5.3C98.3819 5.51 98.0919 5.8 97.8819 6.17C97.6719 6.54 97.5669 6.95 97.5669 7.4C97.5669 7.85 97.6719 8.26 97.8819 8.63C98.0919 9 98.3819 9.295 98.7519 9.515C99.1219 9.725 99.5319 9.83 99.9819 9.83ZM108.719 11.15C107.979 11.15 107.304 10.98 106.694 10.64C106.084 10.29 105.604 9.82 105.254 9.23C104.904 8.63 104.729 7.97 104.729 7.25C104.729 6.53 104.904 5.875 105.254 5.285C105.604 4.685 106.084 4.215 106.694 3.875C107.304 3.525 107.979 3.35 108.719 3.35C109.449 3.35 110.114 3.525 110.714 3.875C111.324 4.215 111.804 4.685 112.154 5.285C112.504 5.875 112.679 6.53 112.679 7.25C112.679 7.97 112.504 8.63 112.154 9.23C111.804 9.82 111.324 10.29 110.714 10.64C110.114 10.98 109.449 11.15 108.719 11.15ZM108.719 9.83C109.179 9.83 109.599 9.72 109.979 9.5C110.359 9.27 110.659 8.96 110.879 8.57C111.099 8.17 111.209 7.73 111.209 7.25C111.209 6.77 111.099 6.335 110.879 5.945C110.659 5.545 110.359 5.235 109.979 5.015C109.599 4.785 109.179 4.67 108.719 4.67C108.249 4.67 107.819 4.785 107.429 5.015C107.049 5.235 106.749 5.545 106.529 5.945C106.309 6.335 106.199 6.77 106.199 7.25C106.199 7.73 106.309 8.17 106.529 8.57C106.749 8.96 107.049 9.27 107.429 9.5C107.819 9.72 108.249 9.83 108.719 9.83ZM120.582 11H119.157V4.85H116.532C116.522 6.31 116.407 7.495 116.187 8.405C115.967 9.305 115.627 9.97 115.167 10.4C114.717 10.83 114.127 11.045 113.397 11.045C113.227 11.045 113.087 11.03 112.977 11V9.695C113.117 9.715 113.222 9.725 113.292 9.725C113.732 9.725 114.082 9.56 114.342 9.23C114.612 8.89 114.807 8.355 114.927 7.625C115.047 6.885 115.107 5.905 115.107 4.685V3.5H120.582V11ZM126.457 6.47C127.247 6.47 127.862 6.685 128.302 7.115C128.752 7.535 128.977 8.075 128.977 8.735C128.977 9.395 128.752 9.94 128.302 10.37C127.862 10.79 127.247 11 126.457 11H122.752V3.5H124.177V6.47H126.457ZM126.262 9.755C126.672 9.755 126.982 9.67 127.192 9.5C127.402 9.33 127.507 9.075 127.507 8.735C127.507 8.395 127.402 8.14 127.192 7.97C126.982 7.8 126.672 7.715 126.262 7.715H124.177V9.755H126.262ZM140.833 3.5V11H130.408V3.5H131.833V9.65H134.908V3.5H136.333V9.65H139.408V3.5H140.833ZM146.33 11.15C145.59 11.15 144.915 10.98 144.305 10.64C143.695 10.29 143.215 9.82 142.865 9.23C142.515 8.63 142.34 7.97 142.34 7.25C142.34 6.53 142.515 5.875 142.865 5.285C143.215 4.685 143.695 4.215 144.305 3.875C144.915 3.525 145.59 3.35 146.33 3.35C147.06 3.35 147.725 3.525 148.325 3.875C148.935 4.215 149.415 4.685 149.765 5.285C150.115 5.875 150.29 6.53 150.29 7.25C150.29 7.97 150.115 8.63 149.765 9.23C149.415 9.82 148.935 10.29 148.325 10.64C147.725 10.98 147.06 11.15 146.33 11.15ZM146.33 9.83C146.79 9.83 147.21 9.72 147.59 9.5C147.97 9.27 148.27 8.96 148.49 8.57C148.71 8.17 148.82 7.73 148.82 7.25C148.82 6.77 148.71 6.335 148.49 5.945C148.27 5.545 147.97 5.235 147.59 5.015C147.21 4.785 146.79 4.67 146.33 4.67C145.86 4.67 145.43 4.785 145.04 5.015C144.66 5.235 144.36 5.545 144.14 5.945C143.92 6.335 143.81 6.77 143.81 7.25C143.81 7.73 143.92 8.17 144.14 8.57C144.36 8.96 144.66 9.27 145.04 9.5C145.43 9.72 145.86 9.83 146.33 9.83ZM155.022 3.35C155.792 3.35 156.462 3.515 157.032 3.845C157.612 4.175 158.057 4.645 158.367 5.255C158.677 5.855 158.832 6.56 158.832 7.37C158.832 7.58 158.827 7.735 158.817 7.835H152.667C152.767 8.415 153.037 8.895 153.477 9.275C153.927 9.645 154.447 9.83 155.037 9.83C156.007 9.83 156.697 9.475 157.107 8.765H158.577C158.337 9.465 157.892 10.04 157.242 10.49C156.592 10.93 155.857 11.15 155.037 11.15C154.307 11.15 153.647 10.985 153.057 10.655C152.467 10.315 152.007 9.85 151.677 9.26C151.347 8.66 151.182 7.99 151.182 7.25C151.182 6.51 151.347 5.845 151.677 5.255C152.007 4.655 152.462 4.19 153.042 3.86C153.632 3.52 154.292 3.35 155.022 3.35ZM154.992 4.61C154.402 4.61 153.892 4.795 153.462 5.165C153.042 5.535 152.782 6.01 152.682 6.59H157.287C157.227 5.99 156.982 5.51 156.552 5.15C156.132 4.79 155.612 4.61 154.992 4.61ZM169.503 7.175C170.243 7.545 170.613 8.115 170.613 8.885C170.613 9.505 170.388 10.015 169.938 10.415C169.488 10.805 168.868 11 168.078 11H164.313V3.5H168.078C168.828 3.5 169.418 3.695 169.848 4.085C170.288 4.465 170.508 4.95 170.508 5.54C170.508 5.89 170.423 6.21 170.253 6.5C170.093 6.78 169.843 7.005 169.503 7.175ZM167.913 6.62C168.283 6.62 168.563 6.535 168.753 6.365C168.943 6.195 169.038 5.945 169.038 5.615C169.038 5.005 168.663 4.7 167.913 4.7H165.708V6.62H167.913ZM167.928 9.8C168.328 9.8 168.628 9.715 168.828 9.545C169.038 9.365 169.143 9.11 169.143 8.78C169.143 8.47 169.038 8.235 168.828 8.075C168.628 7.905 168.328 7.82 167.928 7.82H165.708V9.8H167.928ZM178.938 3.5V11H177.513V7.925H173.613V11H172.188V3.5H173.613V6.575H177.513V3.5H178.938ZM187.869 3.5V11H186.444V6.38L182.544 9.68V11H181.119V3.5H182.544V8.03L186.444 4.73V3.5H187.869ZM199.349 11H197.924V5.525L195.404 11H193.994L191.474 5.57V11H190.049V3.5H191.999L194.729 9.515L197.429 3.5H199.349V11ZM208.278 9.65V11H207.558C207.188 11 206.898 10.91 206.688 10.73C206.478 10.54 206.353 10.27 206.313 9.92C205.993 10.29 205.578 10.59 205.068 10.82C204.568 11.04 204.038 11.15 203.478 11.15C202.668 11.15 202.038 10.95 201.588 10.55C201.148 10.15 200.928 9.615 200.928 8.945C200.928 8.335 201.168 7.815 201.648 7.385C202.128 6.945 202.803 6.68 203.673 6.59L204.513 6.5C204.983 6.45 205.333 6.39 205.563 6.32C205.793 6.24 205.938 6.155 205.998 6.065C206.068 5.975 206.103 5.855 206.103 5.705C206.103 5.365 205.938 5.1 205.608 4.91C205.288 4.71 204.843 4.61 204.273 4.61C203.903 4.61 203.548 4.71 203.208 4.91C202.868 5.1 202.633 5.375 202.503 5.735H200.988C201.128 5.035 201.508 4.465 202.128 4.025C202.748 3.575 203.488 3.35 204.348 3.35C205.298 3.35 206.078 3.61 206.688 4.13C207.298 4.65 207.603 5.395 207.603 6.365V9.245C207.603 9.375 207.638 9.475 207.708 9.545C207.778 9.615 207.873 9.65 207.993 9.65H208.278ZM203.628 9.92C204.098 9.92 204.538 9.825 204.948 9.635C205.358 9.435 205.683 9.175 205.923 8.855C206.173 8.525 206.298 8.175 206.298 7.805V7.13C205.958 7.39 205.418 7.56 204.678 7.64L203.838 7.73C203.278 7.79 202.888 7.925 202.668 8.135C202.448 8.345 202.338 8.61 202.338 8.93C202.338 9.23 202.448 9.47 202.668 9.65C202.898 9.83 203.218 9.92 203.628 9.92ZM216.52 3.5V11H215.095V7.925H211.195V11H209.77V3.5H211.195V6.575H215.095V3.5H216.52ZM225.45 3.5V11H224.025V6.38L220.125 9.68V11H218.7V3.5H220.125V8.03L224.025 4.73V3.5H225.45ZM230.795 3.35C231.565 3.35 232.235 3.515 232.805 3.845C233.385 4.175 233.83 4.645 234.14 5.255C234.45 5.855 234.605 6.56 234.605 7.37C234.605 7.58 234.6 7.735 234.59 7.835H228.44C228.54 8.415 228.81 8.895 229.25 9.275C229.7 9.645 230.22 9.83 230.81 9.83C231.78 9.83 232.47 9.475 232.88 8.765H234.35C234.11 9.465 233.665 10.04 233.015 10.49C232.365 10.93 231.63 11.15 230.81 11.15C230.08 11.15 229.42 10.985 228.83 10.655C228.24 10.315 227.78 9.85 227.45 9.26C227.12 8.66 226.955 7.99 226.955 7.25C226.955 6.51 227.12 5.845 227.45 5.255C227.78 4.655 228.235 4.19 228.815 3.86C229.405 3.52 230.065 3.35 230.795 3.35ZM230.765 4.61C230.175 4.61 229.665 4.795 229.235 5.165C228.815 5.535 228.555 6.01 228.455 6.59H233.06C233 5.99 232.755 5.51 232.325 5.15C231.905 4.79 231.385 4.61 230.765 4.61ZM249.386 11H247.961V5.525L245.441 11H244.031L241.511 5.57V11H240.086V3.5H242.036L244.766 9.515L247.466 3.5H249.386V11ZM258.315 9.65V11H257.595C257.225 11 256.935 10.91 256.725 10.73C256.515 10.54 256.39 10.27 256.35 9.92C256.03 10.29 255.615 10.59 255.105 10.82C254.605 11.04 254.075 11.15 253.515 11.15C252.705 11.15 252.075 10.95 251.625 10.55C251.185 10.15 250.965 9.615 250.965 8.945C250.965 8.335 251.205 7.815 251.685 7.385C252.165 6.945 252.84 6.68 253.71 6.59L254.55 6.5C255.02 6.45 255.37 6.39 255.6 6.32C255.83 6.24 255.975 6.155 256.035 6.065C256.105 5.975 256.14 5.855 256.14 5.705C256.14 5.365 255.975 5.1 255.645 4.91C255.325 4.71 254.88 4.61 254.31 4.61C253.94 4.61 253.585 4.71 253.245 4.91C252.905 5.1 252.67 5.375 252.54 5.735H251.025C251.165 5.035 251.545 4.465 252.165 4.025C252.785 3.575 253.525 3.35 254.385 3.35C255.335 3.35 256.115 3.61 256.725 4.13C257.335 4.65 257.64 5.395 257.64 6.365V9.245C257.64 9.375 257.675 9.475 257.745 9.545C257.815 9.615 257.91 9.65 258.03 9.65H258.315ZM253.665 9.92C254.135 9.92 254.575 9.825 254.985 9.635C255.395 9.435 255.72 9.175 255.96 8.855C256.21 8.525 256.335 8.175 256.335 7.805V7.13C255.995 7.39 255.455 7.56 254.715 7.64L253.875 7.73C253.315 7.79 252.925 7.925 252.705 8.135C252.485 8.345 252.375 8.61 252.375 8.93C252.375 9.23 252.485 9.47 252.705 9.65C252.935 9.83 253.255 9.92 253.665 9.92ZM265.506 4.85H262.881V11H261.456V4.85H258.831V3.5H265.506V4.85ZM269.573 3.35C270.343 3.35 271.013 3.515 271.583 3.845C272.163 4.175 272.608 4.645 272.918 5.255C273.228 5.855 273.383 6.56 273.383 7.37C273.383 7.58 273.378 7.735 273.368 7.835H267.218C267.318 8.415 267.588 8.895 268.028 9.275C268.478 9.645 268.998 9.83 269.588 9.83C270.558 9.83 271.248 9.475 271.658 8.765H273.128C272.888 9.465 272.443 10.04 271.793 10.49C271.143 10.93 270.408 11.15 269.588 11.15C268.858 11.15 268.198 10.985 267.608 10.655C267.018 10.315 266.558 9.85 266.228 9.26C265.898 8.66 265.733 7.99 265.733 7.25C265.733 6.51 265.898 5.845 266.228 5.255C266.558 4.655 267.013 4.19 267.593 3.86C268.183 3.52 268.843 3.35 269.573 3.35ZM269.543 4.61C268.953 4.61 268.443 4.795 268.013 5.165C267.593 5.535 267.333 6.01 267.233 6.59H271.838C271.778 5.99 271.533 5.51 271.103 5.15C270.683 4.79 270.163 4.61 269.543 4.61ZM278.844 3.35C279.504 3.35 280.104 3.52 280.644 3.86C281.184 4.19 281.609 4.65 281.919 5.24C282.229 5.83 282.384 6.5 282.384 7.25C282.384 8 282.229 8.67 281.919 9.26C281.609 9.85 281.184 10.315 280.644 10.655C280.104 10.985 279.504 11.15 278.844 11.15C278.344 11.15 277.874 11.04 277.434 10.82C276.994 10.59 276.619 10.275 276.309 9.875V13.55H274.884V3.5H276.234V4.715C276.554 4.285 276.939 3.95 277.389 3.71C277.839 3.47 278.324 3.35 278.844 3.35ZM278.604 9.83C279.044 9.83 279.439 9.72 279.789 9.5C280.139 9.28 280.414 8.975 280.614 8.585C280.814 8.185 280.914 7.74 280.914 7.25C280.914 6.76 280.814 6.32 280.614 5.93C280.414 5.53 280.139 5.22 279.789 5C279.439 4.78 279.044 4.67 278.604 4.67C278.164 4.67 277.764 4.78 277.404 5C277.044 5.22 276.764 5.53 276.564 5.93C276.364 6.32 276.264 6.76 276.264 7.25C276.264 7.74 276.364 8.185 276.564 8.585C276.764 8.975 277.044 9.28 277.404 9.5C277.764 9.72 278.164 9.83 278.604 9.83ZM290.637 3.5V11H289.212V6.38L285.312 9.68V11H283.887V3.5H285.312V8.03L289.212 4.73V3.5H290.637ZM299.568 9.65V11H298.848C298.478 11 298.188 10.91 297.978 10.73C297.768 10.54 297.643 10.27 297.603 9.92C297.283 10.29 296.868 10.59 296.358 10.82C295.858 11.04 295.328 11.15 294.768 11.15C293.958 11.15 293.328 10.95 292.878 10.55C292.438 10.15 292.218 9.615 292.218 8.945C292.218 8.335 292.458 7.815 292.938 7.385C293.418 6.945 294.093 6.68 294.963 6.59L295.803 6.5C296.273 6.45 296.623 6.39 296.853 6.32C297.083 6.24 297.228 6.155 297.288 6.065C297.358 5.975 297.393 5.855 297.393 5.705C297.393 5.365 297.228 5.1 296.898 4.91C296.578 4.71 296.133 4.61 295.563 4.61C295.193 4.61 294.838 4.71 294.498 4.91C294.158 5.1 293.923 5.375 293.793 5.735H292.278C292.418 5.035 292.798 4.465 293.418 4.025C294.038 3.575 294.778 3.35 295.638 3.35C296.588 3.35 297.368 3.61 297.978 4.13C298.588 4.65 298.893 5.395 298.893 6.365V9.245C298.893 9.375 298.928 9.475 298.998 9.545C299.068 9.615 299.163 9.65 299.283 9.65H299.568ZM294.918 9.92C295.388 9.92 295.828 9.825 296.238 9.635C296.648 9.435 296.973 9.175 297.213 8.855C297.463 8.525 297.588 8.175 297.588 7.805V7.13C297.248 7.39 296.708 7.56 295.968 7.64L295.128 7.73C294.568 7.79 294.178 7.925 293.958 8.135C293.738 8.345 293.628 8.61 293.628 8.93C293.628 9.23 293.738 9.47 293.958 9.65C294.188 9.83 294.508 9.92 294.918 9.92ZM307.614 11H306.189V4.85H303.564C303.554 6.31 303.439 7.495 303.219 8.405C302.999 9.305 302.659 9.97 302.199 10.4C301.749 10.83 301.159 11.045 300.429 11.045C300.259 11.045 300.119 11.03 300.009 11V9.695C300.149 9.715 300.254 9.725 300.324 9.725C300.764 9.725 301.114 9.56 301.374 9.23C301.644 8.89 301.839 8.355 301.959 7.625C302.079 6.885 302.139 5.905 302.139 4.685V3.5H307.614V11ZM316.535 9.65V11H315.815C315.445 11 315.155 10.91 314.945 10.73C314.735 10.54 314.61 10.27 314.57 9.92C314.25 10.29 313.835 10.59 313.325 10.82C312.825 11.04 312.295 11.15 311.735 11.15C310.925 11.15 310.295 10.95 309.845 10.55C309.405 10.15 309.185 9.615 309.185 8.945C309.185 8.335 309.425 7.815 309.905 7.385C310.385 6.945 311.06 6.68 311.93 6.59L312.77 6.5C313.24 6.45 313.59 6.39 313.82 6.32C314.05 6.24 314.195 6.155 314.255 6.065C314.325 5.975 314.36 5.855 314.36 5.705C314.36 5.365 314.195 5.1 313.865 4.91C313.545 4.71 313.1 4.61 312.53 4.61C312.16 4.61 311.805 4.71 311.465 4.91C311.125 5.1 310.89 5.375 310.76 5.735H309.245C309.385 5.035 309.765 4.465 310.385 4.025C311.005 3.575 311.745 3.35 312.605 3.35C313.555 3.35 314.335 3.61 314.945 4.13C315.555 4.65 315.86 5.395 315.86 6.365V9.245C315.86 9.375 315.895 9.475 315.965 9.545C316.035 9.615 316.13 9.65 316.25 9.65H316.535ZM311.885 9.92C312.355 9.92 312.795 9.825 313.205 9.635C313.615 9.435 313.94 9.175 314.18 8.855C314.43 8.525 314.555 8.175 314.555 7.805V7.13C314.215 7.39 313.675 7.56 312.935 7.64L312.095 7.73C311.535 7.79 311.145 7.925 310.925 8.135C310.705 8.345 310.595 8.61 310.595 8.93C310.595 9.23 310.705 9.47 310.925 9.65C311.155 9.83 311.475 9.92 311.885 9.92ZM327.326 11H325.901V5.525L323.381 11H321.971L319.451 5.57V11H318.026V3.5H319.976L322.706 9.515L325.406 3.5H327.326V11ZM8.52 30.65V33.65H7.14V32H1.53V33.65H0.15V30.65H1.08C1.5 30.09 1.825 29.35 2.055 28.43C2.285 27.5 2.4 26.47 2.4 25.34V24.5H7.47V30.65H8.52ZM6.075 30.695V25.775H3.735C3.665 27.875 3.265 29.515 2.535 30.695H6.075ZM16.4216 32H14.9966V25.85H12.3716C12.3616 27.31 12.2466 28.495 12.0266 29.405C11.8066 30.305 11.4666 30.97 11.0066 31.4C10.5566 31.83 9.9666 32.045 9.2366 32.045C9.0666 32.045 8.9266 32.03 8.8166 32V30.695C8.9566 30.715 9.0616 30.725 9.1316 30.725C9.5716 30.725 9.9216 30.56 10.1816 30.23C10.4516 29.89 10.6466 29.355 10.7666 28.625C10.8866 27.885 10.9466 26.905 10.9466 25.685V24.5H16.4216V32ZM24.5318 32H23.1068V29.18H20.6468C20.1868 29.18 19.9568 29.415 19.9568 29.885V30.485C19.9568 30.985 19.8318 31.365 19.5818 31.625C19.3418 31.875 18.9868 32 18.5168 32H17.8868V30.635H18.1718C18.2818 30.635 18.3668 30.605 18.4268 30.545C18.4968 30.475 18.5318 30.385 18.5318 30.275V29.66C18.5318 29.1 18.7968 28.705 19.3268 28.475C18.9968 28.285 18.7418 28.035 18.5618 27.725C18.3918 27.415 18.3068 27.07 18.3068 26.69C18.3068 26.05 18.5268 25.525 18.9668 25.115C19.4168 24.705 20.0368 24.5 20.8268 24.5H24.5318V32ZM21.0218 25.775C20.6118 25.775 20.3018 25.87 20.0918 26.06C19.8818 26.24 19.7768 26.505 19.7768 26.855C19.7768 27.205 19.8818 27.475 20.0918 27.665C20.3018 27.845 20.6118 27.935 21.0218 27.935H23.1068V25.775H21.0218ZM37.4309 24.5V32H36.0059V28.925H32.1059V32H30.6809V24.5H32.1059V27.575H36.0059V24.5H37.4309ZM46.3611 30.65V32H45.6411C45.2711 32 44.9811 31.91 44.7711 31.73C44.5611 31.54 44.4361 31.27 44.3961 30.92C44.0761 31.29 43.6611 31.59 43.1511 31.82C42.6511 32.04 42.1211 32.15 41.5611 32.15C40.7511 32.15 40.1211 31.95 39.6711 31.55C39.2311 31.15 39.0111 30.615 39.0111 29.945C39.0111 29.335 39.2511 28.815 39.7311 28.385C40.2111 27.945 40.8861 27.68 41.7561 27.59L42.5961 27.5C43.0661 27.45 43.4161 27.39 43.6461 27.32C43.8761 27.24 44.0211 27.155 44.0811 27.065C44.1511 26.975 44.1861 26.855 44.1861 26.705C44.1861 26.365 44.0211 26.1 43.6911 25.91C43.3711 25.71 42.9261 25.61 42.3561 25.61C41.9861 25.61 41.6311 25.71 41.2911 25.91C40.9511 26.1 40.7161 26.375 40.5861 26.735H39.0711C39.2111 26.035 39.5911 25.465 40.2111 25.025C40.8311 24.575 41.5711 24.35 42.4311 24.35C43.3811 24.35 44.1611 24.61 44.7711 25.13C45.3811 25.65 45.6861 26.395 45.6861 27.365V30.245C45.6861 30.375 45.7211 30.475 45.7911 30.545C45.8611 30.615 45.9561 30.65 46.0761 30.65H46.3611ZM41.7111 30.92C42.1811 30.92 42.6211 30.825 43.0311 30.635C43.4411 30.435 43.7661 30.175 44.0061 29.855C44.2561 29.525 44.3811 29.175 44.3811 28.805V28.13C44.0411 28.39 43.5011 28.56 42.7611 28.64L41.9211 28.73C41.3611 28.79 40.9711 28.925 40.7511 29.135C40.5311 29.345 40.4211 29.61 40.4211 29.93C40.4211 30.23 40.5311 30.47 40.7511 30.65C40.9811 30.83 41.3011 30.92 41.7111 30.92ZM58.2779 24.5V32H47.8529V24.5H49.2779V30.65H52.3529V24.5H53.7779V30.65H56.8529V24.5H58.2779ZM63.625 24.35C64.395 24.35 65.065 24.515 65.635 24.845C66.215 25.175 66.66 25.645 66.97 26.255C67.28 26.855 67.435 27.56 67.435 28.37C67.435 28.58 67.43 28.735 67.42 28.835H61.27C61.37 29.415 61.64 29.895 62.08 30.275C62.53 30.645 63.05 30.83 63.64 30.83C64.61 30.83 65.3 30.475 65.71 29.765H67.18C66.94 30.465 66.495 31.04 65.845 31.49C65.195 31.93 64.46 32.15 63.64 32.15C62.91 32.15 62.25 31.985 61.66 31.655C61.07 31.315 60.61 30.85 60.28 30.26C59.95 29.66 59.785 28.99 59.785 28.25C59.785 27.51 59.95 26.845 60.28 26.255C60.61 25.655 61.065 25.19 61.645 24.86C62.235 24.52 62.895 24.35 63.625 24.35ZM63.595 25.61C63.005 25.61 62.495 25.795 62.065 26.165C61.645 26.535 61.385 27.01 61.285 27.59H65.89C65.83 26.99 65.585 26.51 65.155 26.15C64.735 25.79 64.215 25.61 63.595 25.61ZM75.6861 24.5V32H74.2611V27.38L70.3611 30.68V32H68.9361V24.5H70.3611V29.03L74.2611 25.73V24.5H75.6861ZM72.3861 23.765C71.6061 23.765 70.9661 23.56 70.4661 23.15C69.9661 22.74 69.6861 22.19 69.6261 21.5H70.8561C70.9061 21.88 71.0661 22.18 71.3361 22.4C71.6061 22.61 71.9561 22.715 72.3861 22.715C72.8161 22.715 73.1661 22.61 73.4361 22.4C73.7061 22.18 73.8661 21.88 73.9161 21.5H75.1461C75.0861 22.19 74.8061 22.74 74.3061 23.15C73.8061 23.56 73.1661 23.765 72.3861 23.765ZM91.1455 32H89.7205V26.525L87.2005 32H85.7905L83.2705 26.57V32H81.8455V24.5H83.7955L86.5255 30.515L89.2255 24.5H91.1455V32ZM96.4896 24.35C97.2596 24.35 97.9296 24.515 98.4996 24.845C99.0796 25.175 99.5246 25.645 99.8346 26.255C100.145 26.855 100.3 27.56 100.3 28.37C100.3 28.58 100.295 28.735 100.285 28.835H94.1346C94.2346 29.415 94.5046 29.895 94.9446 30.275C95.3946 30.645 95.9146 30.83 96.5046 30.83C97.4746 30.83 98.1646 30.475 98.5746 29.765H100.045C99.8046 30.465 99.3596 31.04 98.7096 31.49C98.0596 31.93 97.3246 32.15 96.5046 32.15C95.7746 32.15 95.1146 31.985 94.5246 31.655C93.9346 31.315 93.4746 30.85 93.1446 30.26C92.8146 29.66 92.6496 28.99 92.6496 28.25C92.6496 27.51 92.8146 26.845 93.1446 26.255C93.4746 25.655 93.9296 25.19 94.5096 24.86C95.0996 24.52 95.7596 24.35 96.4896 24.35ZM96.4596 25.61C95.8696 25.61 95.3596 25.795 94.9296 26.165C94.5096 26.535 94.2496 27.01 94.1496 27.59H98.7546C98.6946 26.99 98.4496 26.51 98.0196 26.15C97.5996 25.79 97.0796 25.61 96.4596 25.61ZM105.371 24.725C106.051 24.725 106.676 24.89 107.246 25.22C107.816 25.54 108.261 25.98 108.581 26.54C108.911 27.1 109.076 27.72 109.076 28.4C109.076 29.09 108.906 29.725 108.566 30.305C108.236 30.875 107.776 31.325 107.186 31.655C106.606 31.985 105.966 32.15 105.266 32.15C104.556 32.15 103.906 31.985 103.316 31.655C102.736 31.315 102.276 30.845 101.936 30.245C101.596 29.645 101.426 28.965 101.426 28.205V25.325C101.426 24.385 101.661 23.68 102.131 23.21C102.611 22.73 103.286 22.435 104.156 22.325L106.841 21.98C107.091 21.95 107.216 21.825 107.216 21.605V21.425H108.656V21.785C108.656 22.195 108.526 22.525 108.266 22.775C108.016 23.015 107.721 23.155 107.381 23.195L104.291 23.6C103.731 23.67 103.316 23.825 103.046 24.065C102.786 24.295 102.656 24.66 102.656 25.16V26.21C102.966 25.74 103.356 25.375 103.826 25.115C104.306 24.855 104.821 24.725 105.371 24.725ZM105.221 30.83C105.661 30.83 106.061 30.725 106.421 30.515C106.791 30.295 107.081 30 107.291 29.63C107.501 29.26 107.606 28.85 107.606 28.4C107.606 27.95 107.501 27.54 107.291 27.17C107.081 26.8 106.791 26.51 106.421 26.3C106.061 26.08 105.661 25.97 105.221 25.97C104.771 25.97 104.361 26.08 103.991 26.3C103.621 26.51 103.331 26.8 103.121 27.17C102.911 27.54 102.806 27.95 102.806 28.4C102.806 28.85 102.911 29.26 103.121 29.63C103.331 30 103.621 30.295 103.991 30.515C104.361 30.725 104.771 30.83 105.221 30.83ZM113.808 24.35C114.578 24.35 115.248 24.515 115.818 24.845C116.398 25.175 116.843 25.645 117.153 26.255C117.463 26.855 117.618 27.56 117.618 28.37C117.618 28.58 117.613 28.735 117.603 28.835H111.453C111.553 29.415 111.823 29.895 112.263 30.275C112.713 30.645 113.233 30.83 113.823 30.83C114.793 30.83 115.483 30.475 115.893 29.765H117.363C117.123 30.465 116.678 31.04 116.028 31.49C115.378 31.93 114.643 32.15 113.823 32.15C113.093 32.15 112.433 31.985 111.843 31.655C111.253 31.315 110.793 30.85 110.463 30.26C110.133 29.66 109.968 28.99 109.968 28.25C109.968 27.51 110.133 26.845 110.463 26.255C110.793 25.655 111.248 25.19 111.828 24.86C112.418 24.52 113.078 24.35 113.808 24.35ZM113.778 25.61C113.188 25.61 112.678 25.795 112.248 26.165C111.828 26.535 111.568 27.01 111.468 27.59H116.073C116.013 26.99 115.768 26.51 115.338 26.15C114.918 25.79 114.398 25.61 113.778 25.61ZM125.528 32H124.103V25.85H121.478C121.468 27.31 121.353 28.495 121.133 29.405C120.913 30.305 120.573 30.97 120.113 31.4C119.663 31.83 119.073 32.045 118.343 32.045C118.173 32.045 118.033 32.03 117.923 32V30.695C118.063 30.715 118.168 30.725 118.238 30.725C118.678 30.725 119.028 30.56 119.288 30.23C119.558 29.89 119.753 29.355 119.873 28.625C119.993 27.885 120.053 26.905 120.053 25.685V24.5H125.528V32ZM134.448 24.5V32H133.023V27.38L129.123 30.68V32H127.698V24.5H129.123V29.03L133.023 25.73V24.5H134.448ZM138.128 30.35V32H136.478V30.35H138.128ZM156.732 32H155.232V23.375L151.242 32H149.742L145.782 23.45V32H144.282V21.5H146.472L150.537 30.23L154.587 21.5H156.732V32ZM162.759 27.47C163.549 27.47 164.164 27.685 164.604 28.115C165.054 28.535 165.279 29.075 165.279 29.735C165.279 30.395 165.054 30.94 164.604 31.37C164.164 31.79 163.549 32 162.759 32H159.054V24.5H160.479V27.47H162.759ZM162.564 30.755C162.974 30.755 163.284 30.67 163.494 30.5C163.704 30.33 163.809 30.075 163.809 29.735C163.809 29.395 163.704 29.14 163.494 28.97C163.284 28.8 162.974 28.715 162.564 28.715H160.479V30.755H162.564ZM168.054 24.5V32H166.629V24.5H168.054ZM180.954 24.5V32H179.529V27.38L175.629 30.68V32H174.204V24.5H175.629V29.03L179.529 25.73V24.5H180.954ZM182.46 28.25C182.46 27.53 182.635 26.875 182.985 26.285C183.335 25.685 183.815 25.215 184.425 24.875C185.035 24.525 185.71 24.35 186.45 24.35C187.28 24.35 188.025 24.595 188.685 25.085C189.355 25.565 189.795 26.195 190.005 26.975H188.445C188.275 26.575 188 26.26 187.62 26.03C187.25 25.79 186.835 25.67 186.375 25.67C185.905 25.67 185.485 25.785 185.115 26.015C184.745 26.235 184.455 26.545 184.245 26.945C184.035 27.335 183.93 27.77 183.93 28.25C183.93 28.73 184.035 29.17 184.245 29.57C184.455 29.96 184.745 30.27 185.115 30.5C185.485 30.72 185.905 30.83 186.375 30.83C186.835 30.83 187.25 30.715 187.62 30.485C188 30.245 188.275 29.925 188.445 29.525H190.005C189.795 30.305 189.355 30.94 188.685 31.43C188.025 31.91 187.28 32.15 186.45 32.15C185.71 32.15 185.035 31.98 184.425 31.64C183.815 31.29 183.335 30.82 182.985 30.23C182.635 29.63 182.46 28.97 182.46 28.25ZM198.112 32H196.687V25.85H192.787V32H191.362V24.5H198.112V32ZM203.607 32.15C202.867 32.15 202.192 31.98 201.582 31.64C200.972 31.29 200.492 30.82 200.142 30.23C199.792 29.63 199.617 28.97 199.617 28.25C199.617 27.53 199.792 26.875 200.142 26.285C200.492 25.685 200.972 25.215 201.582 24.875C202.192 24.525 202.867 24.35 203.607 24.35C204.337 24.35 205.002 24.525 205.602 24.875C206.212 25.215 206.692 25.685 207.042 26.285C207.392 26.875 207.567 27.53 207.567 28.25C207.567 28.97 207.392 29.63 207.042 30.23C206.692 30.82 206.212 31.29 205.602 31.64C205.002 31.98 204.337 32.15 203.607 32.15ZM203.607 30.83C204.067 30.83 204.487 30.72 204.867 30.5C205.247 30.27 205.547 29.96 205.767 29.57C205.987 29.17 206.097 28.73 206.097 28.25C206.097 27.77 205.987 27.335 205.767 26.945C205.547 26.545 205.247 26.235 204.867 26.015C204.487 25.785 204.067 25.67 203.607 25.67C203.137 25.67 202.707 25.785 202.317 26.015C201.937 26.235 201.637 26.545 201.417 26.945C201.197 27.335 201.087 27.77 201.087 28.25C201.087 28.73 201.197 29.17 201.417 29.57C201.637 29.96 201.937 30.27 202.317 30.5C202.707 30.72 203.137 30.83 203.607 30.83ZM215.47 32H214.045V25.85H211.42C211.41 27.31 211.295 28.495 211.075 29.405C210.855 30.305 210.515 30.97 210.055 31.4C209.605 31.83 209.015 32.045 208.285 32.045C208.115 32.045 207.975 32.03 207.865 32V30.695C208.005 30.715 208.11 30.725 208.18 30.725C208.62 30.725 208.97 30.56 209.23 30.23C209.5 29.89 209.695 29.355 209.815 28.625C209.935 27.885 209.995 26.905 209.995 25.685V24.5H215.47V32ZM221.345 27.47C222.135 27.47 222.75 27.685 223.19 28.115C223.64 28.535 223.865 29.075 223.865 29.735C223.865 30.395 223.64 30.94 223.19 31.37C222.75 31.79 222.135 32 221.345 32H217.64V24.5H219.065V27.47H221.345ZM221.15 30.755C221.56 30.755 221.87 30.67 222.08 30.5C222.29 30.33 222.395 30.075 222.395 29.735C222.395 29.395 222.29 29.14 222.08 28.97C221.87 28.8 221.56 28.715 221.15 28.715H219.065V30.755H221.15ZM225.896 29.63C226.026 30.07 226.266 30.395 226.616 30.605C226.976 30.815 227.446 30.92 228.026 30.92C228.566 30.92 229.001 30.825 229.331 30.635C229.661 30.435 229.826 30.18 229.826 29.87C229.826 29.6 229.706 29.37 229.466 29.18C229.226 28.98 228.816 28.88 228.236 28.88H226.931V27.65H228.176C228.696 27.65 229.066 27.555 229.286 27.365C229.516 27.175 229.631 26.945 229.631 26.675C229.631 26.335 229.476 26.065 229.166 25.865C228.866 25.665 228.451 25.565 227.921 25.565C227.411 25.565 226.986 25.66 226.646 25.85C226.316 26.04 226.101 26.34 226.001 26.75H224.591C224.721 26 225.096 25.415 225.716 24.995C226.336 24.565 227.071 24.35 227.921 24.35C228.861 24.35 229.621 24.555 230.201 24.965C230.781 25.365 231.071 25.895 231.071 26.555C231.071 26.885 230.981 27.195 230.801 27.485C230.621 27.765 230.351 27.99 229.991 28.16C230.821 28.49 231.236 29.055 231.236 29.855C231.236 30.545 230.936 31.1 230.336 31.52C229.746 31.94 228.941 32.15 227.921 32.15C227.001 32.15 226.221 31.925 225.581 31.475C224.941 31.025 224.571 30.41 224.471 29.63H225.896ZM239.948 24.5L236.303 32.84C236.113 33.35 235.848 33.765 235.508 34.085C235.168 34.415 234.668 34.58 234.008 34.58C233.538 34.58 233.173 34.57 232.913 34.55V33.2C233.193 33.22 233.528 33.23 233.918 33.23C234.198 33.23 234.418 33.155 234.578 33.005C234.748 32.855 234.888 32.65 234.998 32.39L235.223 31.865L231.578 24.5H233.243L235.928 30.26L238.448 24.5H239.948ZM243.992 24.35C244.762 24.35 245.432 24.515 246.002 24.845C246.582 25.175 247.027 25.645 247.337 26.255C247.647 26.855 247.802 27.56 247.802 28.37C247.802 28.58 247.797 28.735 247.787 28.835H241.637C241.737 29.415 242.007 29.895 242.447 30.275C242.897 30.645 243.417 30.83 244.007 30.83C244.977 30.83 245.667 30.475 246.077 29.765H247.547C247.307 30.465 246.862 31.04 246.212 31.49C245.562 31.93 244.827 32.15 244.007 32.15C243.277 32.15 242.617 31.985 242.027 31.655C241.437 31.315 240.977 30.85 240.647 30.26C240.317 29.66 240.152 28.99 240.152 28.25C240.152 27.51 240.317 26.845 240.647 26.255C240.977 25.655 241.432 25.19 242.012 24.86C242.602 24.52 243.262 24.35 243.992 24.35ZM243.962 25.61C243.372 25.61 242.862 25.795 242.432 26.165C242.012 26.535 241.752 27.01 241.652 27.59H246.257C246.197 26.99 245.952 26.51 245.522 26.15C245.102 25.79 244.582 25.61 243.962 25.61ZM258.604 32H257.179V26.525L254.659 32H253.249L250.729 26.57V32H249.304V24.5H251.254L253.984 30.515L256.684 24.5H258.604V32ZM270.462 25.85H267.837V32H266.412V25.85H263.787V24.5H270.462V25.85ZM274.678 32.15C273.938 32.15 273.263 31.98 272.653 31.64C272.043 31.29 271.563 30.82 271.213 30.23C270.863 29.63 270.688 28.97 270.688 28.25C270.688 27.53 270.863 26.875 271.213 26.285C271.563 25.685 272.043 25.215 272.653 24.875C273.263 24.525 273.938 24.35 274.678 24.35C275.408 24.35 276.073 24.525 276.673 24.875C277.283 25.215 277.763 25.685 278.113 26.285C278.463 26.875 278.638 27.53 278.638 28.25C278.638 28.97 278.463 29.63 278.113 30.23C277.763 30.82 277.283 31.29 276.673 31.64C276.073 31.98 275.408 32.15 274.678 32.15ZM274.678 30.83C275.138 30.83 275.558 30.72 275.938 30.5C276.318 30.27 276.618 29.96 276.838 29.57C277.058 29.17 277.168 28.73 277.168 28.25C277.168 27.77 277.058 27.335 276.838 26.945C276.618 26.545 276.318 26.235 275.938 26.015C275.558 25.785 275.138 25.67 274.678 25.67C274.208 25.67 273.778 25.785 273.388 26.015C273.008 26.235 272.708 26.545 272.488 26.945C272.268 27.335 272.158 27.77 272.158 28.25C272.158 28.73 272.268 29.17 272.488 29.57C272.708 29.96 273.008 30.27 273.388 30.5C273.778 30.72 274.208 30.83 274.678 30.83ZM286.541 32H285.116V25.85H282.491C282.481 27.31 282.366 28.495 282.146 29.405C281.926 30.305 281.586 30.97 281.126 31.4C280.676 31.83 280.086 32.045 279.356 32.045C279.186 32.045 279.046 32.03 278.936 32V30.695C279.076 30.715 279.181 30.725 279.251 30.725C279.691 30.725 280.041 30.56 280.301 30.23C280.571 29.89 280.766 29.355 280.886 28.625C281.006 27.885 281.066 26.905 281.066 25.685V24.5H286.541V32ZM292.416 27.47C293.206 27.47 293.821 27.685 294.261 28.115C294.711 28.535 294.936 29.075 294.936 29.735C294.936 30.395 294.711 30.94 294.261 31.37C293.821 31.79 293.206 32 292.416 32H288.711V24.5H290.136V27.47H292.416ZM292.221 30.755C292.631 30.755 292.941 30.67 293.151 30.5C293.361 30.33 293.466 30.075 293.466 29.735C293.466 29.395 293.361 29.14 293.151 28.97C292.941 28.8 292.631 28.715 292.221 28.715H290.136V30.755H292.221ZM303.177 30.635V32H302.577C302.107 32 301.747 31.875 301.497 31.625C301.257 31.365 301.137 30.985 301.137 30.485V29.54C301.137 29.07 300.907 28.835 300.447 28.835H297.792V32H296.367V24.5H297.792V27.605H300.252C300.522 27.605 300.727 27.535 300.867 27.395C301.017 27.255 301.092 27.045 301.092 26.765V25.94C301.092 24.98 301.542 24.5 302.442 24.5H303.087V25.865H302.802C302.692 25.865 302.602 25.9 302.532 25.97C302.472 26.03 302.442 26.115 302.442 26.225V27.035C302.442 27.585 302.242 27.975 301.842 28.205C302.302 28.425 302.532 28.805 302.532 29.345V30.275C302.532 30.385 302.562 30.475 302.622 30.545C302.692 30.605 302.782 30.635 302.892 30.635H303.177ZM308.304 32.15C307.564 32.15 306.889 31.98 306.279 31.64C305.669 31.29 305.189 30.82 304.839 30.23C304.489 29.63 304.314 28.97 304.314 28.25C304.314 27.53 304.489 26.875 304.839 26.285C305.189 25.685 305.669 25.215 306.279 24.875C306.889 24.525 307.564 24.35 308.304 24.35C309.034 24.35 309.699 24.525 310.299 24.875C310.909 25.215 311.389 25.685 311.739 26.285C312.089 26.875 312.264 27.53 312.264 28.25C312.264 28.97 312.089 29.63 311.739 30.23C311.389 30.82 310.909 31.29 310.299 31.64C309.699 31.98 309.034 32.15 308.304 32.15ZM308.304 30.83C308.764 30.83 309.184 30.72 309.564 30.5C309.944 30.27 310.244 29.96 310.464 29.57C310.684 29.17 310.794 28.73 310.794 28.25C310.794 27.77 310.684 27.335 310.464 26.945C310.244 26.545 309.944 26.235 309.564 26.015C309.184 25.785 308.764 25.67 308.304 25.67C307.834 25.67 307.404 25.785 307.014 26.015C306.634 26.235 306.334 26.545 306.114 26.945C305.894 27.335 305.784 27.77 305.784 28.25C305.784 28.73 305.894 29.17 306.114 29.57C306.334 29.96 306.634 30.27 307.014 30.5C307.404 30.72 307.834 30.83 308.304 30.83ZM6.39 49.175C7.13 49.545 7.5 50.115 7.5 50.885C7.5 51.505 7.275 52.015 6.825 52.415C6.375 52.805 5.755 53 4.965 53H1.2V45.5H4.965C5.715 45.5 6.305 45.695 6.735 46.085C7.175 46.465 7.395 46.95 7.395 47.54C7.395 47.89 7.31 48.21 7.14 48.5C6.98 48.78 6.73 49.005 6.39 49.175ZM4.8 48.62C5.17 48.62 5.45 48.535 5.64 48.365C5.83 48.195 5.925 47.945 5.925 47.615C5.925 47.005 5.55 46.7 4.8 46.7H2.595V48.62H4.8ZM4.815 51.8C5.215 51.8 5.515 51.715 5.715 51.545C5.925 51.365 6.03 51.11 6.03 50.78C6.03 50.47 5.925 50.235 5.715 50.075C5.515 49.905 5.215 49.82 4.815 49.82H2.595V51.8H4.815ZM12.7806 48.47C13.5706 48.47 14.1856 48.685 14.6256 49.115C15.0756 49.535 15.3006 50.075 15.3006 50.735C15.3006 51.395 15.0756 51.94 14.6256 52.37C14.1856 52.79 13.5706 53 12.7806 53H9.07559V45.5H10.5006V48.47H12.7806ZM12.5856 51.755C12.9956 51.755 13.3056 51.67 13.5156 51.5C13.7256 51.33 13.8306 51.075 13.8306 50.735C13.8306 50.395 13.7256 50.14 13.5156 49.97C13.3056 49.8 12.9956 49.715 12.5856 49.715H10.5006V51.755H12.5856ZM18.0756 45.5V53H16.6506V45.5H18.0756ZM19.5721 49.25C19.5721 48.53 19.7471 47.875 20.0971 47.285C20.4471 46.685 20.9271 46.215 21.5371 45.875C22.1471 45.525 22.8221 45.35 23.5621 45.35C24.3921 45.35 25.1371 45.595 25.7971 46.085C26.4671 46.565 26.9071 47.195 27.1171 47.975H25.5571C25.3871 47.575 25.1121 47.26 24.7321 47.03C24.3621 46.79 23.9471 46.67 23.4871 46.67C23.0171 46.67 22.5971 46.785 22.2271 47.015C21.8571 47.235 21.5671 47.545 21.3571 47.945C21.1471 48.335 21.0421 48.77 21.0421 49.25C21.0421 49.73 21.1471 50.17 21.3571 50.57C21.5671 50.96 21.8571 51.27 22.2271 51.5C22.5971 51.72 23.0171 51.83 23.4871 51.83C23.9471 51.83 24.3621 51.715 24.7321 51.485C25.1121 51.245 25.3871 50.925 25.5571 50.525H27.1171C26.9071 51.305 26.4671 51.94 25.7971 52.43C25.1371 52.91 24.3921 53.15 23.5621 53.15C22.8221 53.15 22.1471 52.98 21.5371 52.64C20.9271 52.29 20.4471 51.82 20.0971 51.23C19.7471 50.63 19.5721 49.97 19.5721 49.25ZM31.8625 53.15C31.1225 53.15 30.4475 52.98 29.8375 52.64C29.2275 52.29 28.7475 51.82 28.3975 51.23C28.0475 50.63 27.8725 49.97 27.8725 49.25C27.8725 48.53 28.0475 47.875 28.3975 47.285C28.7475 46.685 29.2275 46.215 29.8375 45.875C30.4475 45.525 31.1225 45.35 31.8625 45.35C32.5925 45.35 33.2575 45.525 33.8575 45.875C34.4675 46.215 34.9475 46.685 35.2975 47.285C35.6475 47.875 35.8225 48.53 35.8225 49.25C35.8225 49.97 35.6475 50.63 35.2975 51.23C34.9475 51.82 34.4675 52.29 33.8575 52.64C33.2575 52.98 32.5925 53.15 31.8625 53.15ZM31.8625 51.83C32.3225 51.83 32.7425 51.72 33.1225 51.5C33.5025 51.27 33.8025 50.96 34.0225 50.57C34.2425 50.17 34.3525 49.73 34.3525 49.25C34.3525 48.77 34.2425 48.335 34.0225 47.945C33.8025 47.545 33.5025 47.235 33.1225 47.015C32.7425 46.785 32.3225 46.67 31.8625 46.67C31.3925 46.67 30.9625 46.785 30.5725 47.015C30.1925 47.235 29.8925 47.545 29.6725 47.945C29.4525 48.335 29.3425 48.77 29.3425 49.25C29.3425 49.73 29.4525 50.17 29.6725 50.57C29.8925 50.96 30.1925 51.27 30.5725 51.5C30.9625 51.72 31.3925 51.83 31.8625 51.83ZM44.1266 51.635V53H43.5266C43.0566 53 42.6966 52.875 42.4466 52.625C42.2066 52.365 42.0866 51.985 42.0866 51.485V50.54C42.0866 50.07 41.8566 49.835 41.3966 49.835H38.7416V53H37.3166V45.5H38.7416V48.605H41.2016C41.4716 48.605 41.6766 48.535 41.8166 48.395C41.9666 48.255 42.0416 48.045 42.0416 47.765V46.94C42.0416 45.98 42.4916 45.5 43.3916 45.5H44.0366V46.865H43.7516C43.6416 46.865 43.5516 46.9 43.4816 46.97C43.4216 47.03 43.3916 47.115 43.3916 47.225V48.035C43.3916 48.585 43.1916 48.975 42.7916 49.205C43.2516 49.425 43.4816 49.805 43.4816 50.345V51.275C43.4816 51.385 43.5116 51.475 43.5716 51.545C43.6416 51.605 43.7316 51.635 43.8416 51.635H44.1266ZM49.2543 53.15C48.5143 53.15 47.8393 52.98 47.2293 52.64C46.6193 52.29 46.1393 51.82 45.7893 51.23C45.4393 50.63 45.2643 49.97 45.2643 49.25C45.2643 48.53 45.4393 47.875 45.7893 47.285C46.1393 46.685 46.6193 46.215 47.2293 45.875C47.8393 45.525 48.5143 45.35 49.2543 45.35C49.9843 45.35 50.6493 45.525 51.2493 45.875C51.8593 46.215 52.3393 46.685 52.6893 47.285C53.0393 47.875 53.2143 48.53 53.2143 49.25C53.2143 49.97 53.0393 50.63 52.6893 51.23C52.3393 51.82 51.8593 52.29 51.2493 52.64C50.6493 52.98 49.9843 53.15 49.2543 53.15ZM49.2543 51.83C49.7143 51.83 50.1343 51.72 50.5143 51.5C50.8943 51.27 51.1943 50.96 51.4143 50.57C51.6343 50.17 51.7443 49.73 51.7443 49.25C51.7443 48.77 51.6343 48.335 51.4143 47.945C51.1943 47.545 50.8943 47.235 50.5143 47.015C50.1343 46.785 49.7143 46.67 49.2543 46.67C48.7843 46.67 48.3543 46.785 47.9643 47.015C47.5843 47.235 47.2843 47.545 47.0643 47.945C46.8443 48.335 46.7343 48.77 46.7343 49.25C46.7343 49.73 46.8443 50.17 47.0643 50.57C47.2843 50.96 47.5843 51.27 47.9643 51.5C48.3543 51.72 48.7843 51.83 49.2543 51.83ZM61.5184 51.635V53H60.9184C60.4484 53 60.0884 52.875 59.8384 52.625C59.5984 52.365 59.4784 51.985 59.4784 51.485V50.54C59.4784 50.07 59.2484 49.835 58.7884 49.835H56.1334V53H54.7084V45.5H56.1334V48.605H58.5934C58.8634 48.605 59.0684 48.535 59.2084 48.395C59.3584 48.255 59.4334 48.045 59.4334 47.765V46.94C59.4334 45.98 59.8834 45.5 60.7834 45.5H61.4284V46.865H61.1434C61.0334 46.865 60.9434 46.9 60.8734 46.97C60.8134 47.03 60.7834 47.115 60.7834 47.225V48.035C60.7834 48.585 60.5834 48.975 60.1834 49.205C60.6434 49.425 60.8734 49.805 60.8734 50.345V51.275C60.8734 51.385 60.9034 51.475 60.9634 51.545C61.0334 51.605 61.1234 51.635 61.2334 51.635H61.5184ZM70.0811 51.65V53H69.3611C68.9911 53 68.7011 52.91 68.4911 52.73C68.2811 52.54 68.1561 52.27 68.1161 51.92C67.7961 52.29 67.3811 52.59 66.8711 52.82C66.3711 53.04 65.8411 53.15 65.2811 53.15C64.4711 53.15 63.8411 52.95 63.3911 52.55C62.9511 52.15 62.7311 51.615 62.7311 50.945C62.7311 50.335 62.9711 49.815 63.4511 49.385C63.9311 48.945 64.6061 48.68 65.4761 48.59L66.3161 48.5C66.7861 48.45 67.1361 48.39 67.3661 48.32C67.5961 48.24 67.7411 48.155 67.8011 48.065C67.8711 47.975 67.9061 47.855 67.9061 47.705C67.9061 47.365 67.7411 47.1 67.4111 46.91C67.0911 46.71 66.6461 46.61 66.0761 46.61C65.7061 46.61 65.3511 46.71 65.0111 46.91C64.6711 47.1 64.4361 47.375 64.3061 47.735H62.7911C62.9311 47.035 63.3111 46.465 63.9311 46.025C64.5511 45.575 65.2911 45.35 66.1511 45.35C67.1011 45.35 67.8811 45.61 68.4911 46.13C69.1011 46.65 69.4061 47.395 69.4061 48.365V51.245C69.4061 51.375 69.4411 51.475 69.5111 51.545C69.5811 51.615 69.6761 51.65 69.7961 51.65H70.0811ZM65.4311 51.92C65.9011 51.92 66.3411 51.825 66.7511 51.635C67.1611 51.435 67.4861 51.175 67.7261 50.855C67.9761 50.525 68.1011 50.175 68.1011 49.805V49.13C67.7611 49.39 67.2211 49.56 66.4811 49.64L65.6411 49.73C65.0811 49.79 64.6911 49.925 64.4711 50.135C64.2511 50.345 64.1411 50.61 64.1411 50.93C64.1411 51.23 64.2511 51.47 64.4711 51.65C64.7011 51.83 65.0211 51.92 65.4311 51.92ZM77.4228 45.5V53H75.9978V50.09H73.5978C72.8278 50.09 72.2228 49.865 71.7828 49.415C71.3428 48.965 71.1228 48.39 71.1228 47.69V45.5H72.5478V47.645C72.5478 48.035 72.6478 48.325 72.8478 48.515C73.0578 48.705 73.3828 48.8 73.8228 48.8H75.9978V45.5H77.4228ZM82.7599 45.35C83.5299 45.35 84.1999 45.515 84.7699 45.845C85.3499 46.175 85.7949 46.645 86.1049 47.255C86.4149 47.855 86.5699 48.56 86.5699 49.37C86.5699 49.58 86.5649 49.735 86.5549 49.835H80.4049C80.5049 50.415 80.7749 50.895 81.2149 51.275C81.6649 51.645 82.1849 51.83 82.7749 51.83C83.7449 51.83 84.4349 51.475 84.8449 50.765H86.3149C86.0749 51.465 85.6299 52.04 84.9799 52.49C84.3299 52.93 83.5949 53.15 82.7749 53.15C82.0449 53.15 81.3849 52.985 80.7949 52.655C80.2049 52.315 79.7449 51.85 79.4149 51.26C79.0849 50.66 78.9199 49.99 78.9199 49.25C78.9199 48.51 79.0849 47.845 79.4149 47.255C79.7449 46.655 80.1999 46.19 80.7799 45.86C81.3699 45.52 82.0299 45.35 82.7599 45.35ZM82.7299 46.61C82.1399 46.61 81.6299 46.795 81.1999 47.165C80.7799 47.535 80.5199 48.01 80.4199 48.59H85.0249C84.9649 47.99 84.7199 47.51 84.2899 47.15C83.8699 46.79 83.3499 46.61 82.7299 46.61ZM87.4693 49.25C87.4693 48.53 87.6443 47.875 87.9943 47.285C88.3443 46.685 88.8243 46.215 89.4343 45.875C90.0443 45.525 90.7193 45.35 91.4593 45.35C92.2893 45.35 93.0343 45.595 93.6943 46.085C94.3643 46.565 94.8043 47.195 95.0143 47.975H93.4543C93.2843 47.575 93.0093 47.26 92.6293 47.03C92.2593 46.79 91.8443 46.67 91.3843 46.67C90.9143 46.67 90.4943 46.785 90.1243 47.015C89.7543 47.235 89.4643 47.545 89.2543 47.945C89.0443 48.335 88.9393 48.77 88.9393 49.25C88.9393 49.73 89.0443 50.17 89.2543 50.57C89.4643 50.96 89.7543 51.27 90.1243 51.5C90.4943 51.72 90.9143 51.83 91.3843 51.83C91.8443 51.83 92.2593 51.715 92.6293 51.485C93.0093 51.245 93.2843 50.925 93.4543 50.525H95.0143C94.8043 51.305 94.3643 51.94 93.6943 52.43C93.0343 52.91 92.2893 53.15 91.4593 53.15C90.7193 53.15 90.0443 52.98 89.4343 52.64C88.8243 52.29 88.3443 51.82 87.9943 51.23C87.6443 50.63 87.4693 49.97 87.4693 49.25ZM101.779 46.85H99.1535V53H97.7285V46.85H95.1035V45.5H101.779V46.85ZM108.163 49.175C108.903 49.545 109.273 50.115 109.273 50.885C109.273 51.505 109.048 52.015 108.598 52.415C108.148 52.805 107.528 53 106.738 53H102.973V45.5H106.738C107.488 45.5 108.078 45.695 108.508 46.085C108.948 46.465 109.168 46.95 109.168 47.54C109.168 47.89 109.083 48.21 108.913 48.5C108.753 48.78 108.503 49.005 108.163 49.175ZM106.573 48.62C106.943 48.62 107.223 48.535 107.413 48.365C107.603 48.195 107.698 47.945 107.698 47.615C107.698 47.005 107.323 46.7 106.573 46.7H104.368V48.62H106.573ZM106.588 51.8C106.988 51.8 107.288 51.715 107.488 51.545C107.698 51.365 107.803 51.11 107.803 50.78C107.803 50.47 107.698 50.235 107.488 50.075C107.288 49.905 106.988 49.82 106.588 49.82H104.368V51.8H106.588ZM113.867 45.35C114.637 45.35 115.307 45.515 115.877 45.845C116.457 46.175 116.902 46.645 117.212 47.255C117.522 47.855 117.677 48.56 117.677 49.37C117.677 49.58 117.672 49.735 117.662 49.835H111.512C111.612 50.415 111.882 50.895 112.322 51.275C112.772 51.645 113.292 51.83 113.882 51.83C114.852 51.83 115.542 51.475 115.952 50.765H117.422C117.182 51.465 116.737 52.04 116.087 52.49C115.437 52.93 114.702 53.15 113.882 53.15C113.152 53.15 112.492 52.985 111.902 52.655C111.312 52.315 110.852 51.85 110.522 51.26C110.192 50.66 110.027 49.99 110.027 49.25C110.027 48.51 110.192 47.845 110.522 47.255C110.852 46.655 111.307 46.19 111.887 45.86C112.477 45.52 113.137 45.35 113.867 45.35ZM113.837 46.61C113.247 46.61 112.737 46.795 112.307 47.165C111.887 47.535 111.627 48.01 111.527 48.59H116.132C116.072 47.99 115.827 47.51 115.397 47.15C114.977 46.79 114.457 46.61 113.837 46.61ZM125.928 45.5V53H124.503V49.925H120.603V53H119.178V45.5H120.603V48.575H124.503V45.5H125.928ZM134.858 45.5V53H133.433V49.925H129.533V53H128.108V45.5H129.533V48.575H133.433V45.5H134.858ZM140.743 48.47C141.533 48.47 142.148 48.685 142.588 49.115C143.038 49.535 143.263 50.075 143.263 50.735C143.263 51.395 143.038 51.94 142.588 52.37C142.148 52.79 141.533 53 140.743 53H137.038V45.5H138.463V48.47H140.743ZM140.548 51.755C140.958 51.755 141.268 51.67 141.478 51.5C141.688 51.33 141.793 51.075 141.793 50.735C141.793 50.395 141.688 50.14 141.478 49.97C141.268 49.8 140.958 49.715 140.548 49.715H138.463V51.755H140.548ZM146.038 45.5V53H144.613V45.5H146.038ZM151.375 45.35C152.145 45.35 152.815 45.515 153.385 45.845C153.965 46.175 154.41 46.645 154.72 47.255C155.03 47.855 155.185 48.56 155.185 49.37C155.185 49.58 155.18 49.735 155.17 49.835H149.02C149.12 50.415 149.39 50.895 149.83 51.275C150.28 51.645 150.8 51.83 151.39 51.83C152.36 51.83 153.05 51.475 153.46 50.765H154.93C154.69 51.465 154.245 52.04 153.595 52.49C152.945 52.93 152.21 53.15 151.39 53.15C150.66 53.15 150 52.985 149.41 52.655C148.82 52.315 148.36 51.85 148.03 51.26C147.7 50.66 147.535 49.99 147.535 49.25C147.535 48.51 147.7 47.845 148.03 47.255C148.36 46.655 148.815 46.19 149.395 45.86C149.985 45.52 150.645 45.35 151.375 45.35ZM151.345 46.61C150.755 46.61 150.245 46.795 149.815 47.165C149.395 47.535 149.135 48.01 149.035 48.59H153.64C153.58 47.99 153.335 47.51 152.905 47.15C152.485 46.79 151.965 46.61 151.345 46.61ZM169.965 53H168.54V47.525L166.02 53H164.61L162.09 47.57V53H160.665V45.5H162.615L165.345 51.515L168.045 45.5H169.965V53ZM178.894 51.65V53H178.174C177.804 53 177.514 52.91 177.304 52.73C177.094 52.54 176.969 52.27 176.929 51.92C176.609 52.29 176.194 52.59 175.684 52.82C175.184 53.04 174.654 53.15 174.094 53.15C173.284 53.15 172.654 52.95 172.204 52.55C171.764 52.15 171.544 51.615 171.544 50.945C171.544 50.335 171.784 49.815 172.264 49.385C172.744 48.945 173.419 48.68 174.289 48.59L175.129 48.5C175.599 48.45 175.949 48.39 176.179 48.32C176.409 48.24 176.554 48.155 176.614 48.065C176.684 47.975 176.719 47.855 176.719 47.705C176.719 47.365 176.554 47.1 176.224 46.91C175.904 46.71 175.459 46.61 174.889 46.61C174.519 46.61 174.164 46.71 173.824 46.91C173.484 47.1 173.249 47.375 173.119 47.735H171.604C171.744 47.035 172.124 46.465 172.744 46.025C173.364 45.575 174.104 45.35 174.964 45.35C175.914 45.35 176.694 45.61 177.304 46.13C177.914 46.65 178.219 47.395 178.219 48.365V51.245C178.219 51.375 178.254 51.475 178.324 51.545C178.394 51.615 178.489 51.65 178.609 51.65H178.894ZM174.244 51.92C174.714 51.92 175.154 51.825 175.564 51.635C175.974 51.435 176.299 51.175 176.539 50.855C176.789 50.525 176.914 50.175 176.914 49.805V49.13C176.574 49.39 176.034 49.56 175.294 49.64L174.454 49.73C173.894 49.79 173.504 49.925 173.284 50.135C173.064 50.345 172.954 50.61 172.954 50.93C172.954 51.23 173.064 51.47 173.284 51.65C173.514 51.83 173.834 51.92 174.244 51.92ZM186.086 46.85H183.461V53H182.036V46.85H179.411V45.5H186.086V46.85ZM190.152 45.35C190.922 45.35 191.592 45.515 192.162 45.845C192.742 46.175 193.187 46.645 193.497 47.255C193.807 47.855 193.962 48.56 193.962 49.37C193.962 49.58 193.957 49.735 193.947 49.835H187.797C187.897 50.415 188.167 50.895 188.607 51.275C189.057 51.645 189.577 51.83 190.167 51.83C191.137 51.83 191.827 51.475 192.237 50.765H193.707C193.467 51.465 193.022 52.04 192.372 52.49C191.722 52.93 190.987 53.15 190.167 53.15C189.437 53.15 188.777 52.985 188.187 52.655C187.597 52.315 187.137 51.85 186.807 51.26C186.477 50.66 186.312 49.99 186.312 49.25C186.312 48.51 186.477 47.845 186.807 47.255C187.137 46.655 187.592 46.19 188.172 45.86C188.762 45.52 189.422 45.35 190.152 45.35ZM190.122 46.61C189.532 46.61 189.022 46.795 188.592 47.165C188.172 47.535 187.912 48.01 187.812 48.59H192.417C192.357 47.99 192.112 47.51 191.682 47.15C191.262 46.79 190.742 46.61 190.122 46.61ZM199.423 45.35C200.083 45.35 200.683 45.52 201.223 45.86C201.763 46.19 202.188 46.65 202.498 47.24C202.808 47.83 202.963 48.5 202.963 49.25C202.963 50 202.808 50.67 202.498 51.26C202.188 51.85 201.763 52.315 201.223 52.655C200.683 52.985 200.083 53.15 199.423 53.15C198.923 53.15 198.453 53.04 198.013 52.82C197.573 52.59 197.198 52.275 196.888 51.875V55.55H195.463V45.5H196.813V46.715C197.133 46.285 197.518 45.95 197.968 45.71C198.418 45.47 198.903 45.35 199.423 45.35ZM199.183 51.83C199.623 51.83 200.018 51.72 200.368 51.5C200.718 51.28 200.993 50.975 201.193 50.585C201.393 50.185 201.493 49.74 201.493 49.25C201.493 48.76 201.393 48.32 201.193 47.93C200.993 47.53 200.718 47.22 200.368 47C200.018 46.78 199.623 46.67 199.183 46.67C198.743 46.67 198.343 46.78 197.983 47C197.623 47.22 197.343 47.53 197.143 47.93C196.943 48.32 196.843 48.76 196.843 49.25C196.843 49.74 196.943 50.185 197.143 50.585C197.343 50.975 197.623 51.28 197.983 51.5C198.343 51.72 198.743 51.83 199.183 51.83ZM211.217 45.5V53H209.792V48.38L205.892 51.68V53H204.467V45.5H205.892V50.03L209.792 46.73V45.5H211.217ZM220.147 51.65V53H219.427C219.057 53 218.767 52.91 218.557 52.73C218.347 52.54 218.222 52.27 218.182 51.92C217.862 52.29 217.447 52.59 216.937 52.82C216.437 53.04 215.907 53.15 215.347 53.15C214.537 53.15 213.907 52.95 213.457 52.55C213.017 52.15 212.797 51.615 212.797 50.945C212.797 50.335 213.037 49.815 213.517 49.385C213.997 48.945 214.672 48.68 215.542 48.59L216.382 48.5C216.852 48.45 217.202 48.39 217.432 48.32C217.662 48.24 217.807 48.155 217.867 48.065C217.937 47.975 217.972 47.855 217.972 47.705C217.972 47.365 217.807 47.1 217.477 46.91C217.157 46.71 216.712 46.61 216.142 46.61C215.772 46.61 215.417 46.71 215.077 46.91C214.737 47.1 214.502 47.375 214.372 47.735H212.857C212.997 47.035 213.377 46.465 213.997 46.025C214.617 45.575 215.357 45.35 216.217 45.35C217.167 45.35 217.947 45.61 218.557 46.13C219.167 46.65 219.472 47.395 219.472 48.365V51.245C219.472 51.375 219.507 51.475 219.577 51.545C219.647 51.615 219.742 51.65 219.862 51.65H220.147ZM215.497 51.92C215.967 51.92 216.407 51.825 216.817 51.635C217.227 51.435 217.552 51.175 217.792 50.855C218.042 50.525 218.167 50.175 218.167 49.805V49.13C217.827 49.39 217.287 49.56 216.547 49.64L215.707 49.73C215.147 49.79 214.757 49.925 214.537 50.135C214.317 50.345 214.207 50.61 214.207 50.93C214.207 51.23 214.317 51.47 214.537 51.65C214.767 51.83 215.087 51.92 215.497 51.92ZM228.194 53H226.769V46.85H224.144C224.134 48.31 224.019 49.495 223.799 50.405C223.579 51.305 223.239 51.97 222.779 52.4C222.329 52.83 221.739 53.045 221.009 53.045C220.839 53.045 220.699 53.03 220.589 53V51.695C220.729 51.715 220.834 51.725 220.904 51.725C221.344 51.725 221.694 51.56 221.954 51.23C222.224 50.89 222.419 50.355 222.539 49.625C222.659 48.885 222.719 47.905 222.719 46.685V45.5H228.194V53ZM234.069 48.47C234.859 48.47 235.474 48.685 235.914 49.115C236.364 49.535 236.589 50.075 236.589 50.735C236.589 51.395 236.364 51.94 235.914 52.37C235.474 52.79 234.859 53 234.069 53H230.364V45.5H231.789V48.47H234.069ZM233.874 51.755C234.284 51.755 234.594 51.67 234.804 51.5C235.014 51.33 235.119 51.075 235.119 50.735C235.119 50.395 235.014 50.14 234.804 49.97C234.594 49.8 234.284 49.715 233.874 49.715H231.789V51.755H233.874ZM239.364 45.5V53H237.939V45.5H239.364ZM242.886 51.35L242.436 54.8H241.386V51.35H242.886ZM255.703 51.635V53H255.103C254.633 53 254.273 52.875 254.023 52.625C253.783 52.365 253.663 51.985 253.663 51.485V50.54C253.663 50.07 253.433 49.835 252.973 49.835H250.318V53H248.893V45.5H250.318V48.605H252.778C253.048 48.605 253.253 48.535 253.393 48.395C253.543 48.255 253.618 48.045 253.618 47.765V46.94C253.618 45.98 254.068 45.5 254.968 45.5H255.613V46.865H255.328C255.218 46.865 255.128 46.9 255.058 46.97C254.998 47.03 254.968 47.115 254.968 47.225V48.035C254.968 48.585 254.768 48.975 254.368 49.205C254.828 49.425 255.058 49.805 255.058 50.345V51.275C255.058 51.385 255.088 51.475 255.148 51.545C255.218 51.605 255.308 51.635 255.418 51.635H255.703ZM260.831 53.15C260.091 53.15 259.416 52.98 258.806 52.64C258.196 52.29 257.716 51.82 257.366 51.23C257.016 50.63 256.841 49.97 256.841 49.25C256.841 48.53 257.016 47.875 257.366 47.285C257.716 46.685 258.196 46.215 258.806 45.875C259.416 45.525 260.091 45.35 260.831 45.35C261.561 45.35 262.226 45.525 262.826 45.875C263.436 46.215 263.916 46.685 264.266 47.285C264.616 47.875 264.791 48.53 264.791 49.25C264.791 49.97 264.616 50.63 264.266 51.23C263.916 51.82 263.436 52.29 262.826 52.64C262.226 52.98 261.561 53.15 260.831 53.15ZM260.831 51.83C261.291 51.83 261.711 51.72 262.091 51.5C262.471 51.27 262.771 50.96 262.991 50.57C263.211 50.17 263.321 49.73 263.321 49.25C263.321 48.77 263.211 48.335 262.991 47.945C262.771 47.545 262.471 47.235 262.091 47.015C261.711 46.785 261.291 46.67 260.831 46.67C260.361 46.67 259.931 46.785 259.541 47.015C259.161 47.235 258.861 47.545 258.641 47.945C258.421 48.335 258.311 48.77 258.311 49.25C258.311 49.73 258.421 50.17 258.641 50.57C258.861 50.96 259.161 51.27 259.541 51.5C259.931 51.72 260.361 51.83 260.831 51.83ZM271.692 46.85H269.067V53H267.642V46.85H265.017V45.5H271.692V46.85ZM275.908 53.15C275.168 53.15 274.493 52.98 273.883 52.64C273.273 52.29 272.793 51.82 272.443 51.23C272.093 50.63 271.918 49.97 271.918 49.25C271.918 48.53 272.093 47.875 272.443 47.285C272.793 46.685 273.273 46.215 273.883 45.875C274.493 45.525 275.168 45.35 275.908 45.35C276.638 45.35 277.303 45.525 277.903 45.875C278.513 46.215 278.993 46.685 279.343 47.285C279.693 47.875 279.868 48.53 279.868 49.25C279.868 49.97 279.693 50.63 279.343 51.23C278.993 51.82 278.513 52.29 277.903 52.64C277.303 52.98 276.638 53.15 275.908 53.15ZM275.908 51.83C276.368 51.83 276.788 51.72 277.168 51.5C277.548 51.27 277.848 50.96 278.068 50.57C278.288 50.17 278.398 49.73 278.398 49.25C278.398 48.77 278.288 48.335 278.068 47.945C277.848 47.545 277.548 47.235 277.168 47.015C276.788 46.785 276.368 46.67 275.908 46.67C275.438 46.67 275.008 46.785 274.618 47.015C274.238 47.235 273.938 47.545 273.718 47.945C273.498 48.335 273.388 48.77 273.388 49.25C273.388 49.73 273.498 50.17 273.718 50.57C273.938 50.96 274.238 51.27 274.618 51.5C275.008 51.72 275.438 51.83 275.908 51.83ZM285.323 45.35C285.983 45.35 286.583 45.52 287.123 45.86C287.663 46.19 288.088 46.65 288.398 47.24C288.708 47.83 288.863 48.5 288.863 49.25C288.863 50 288.708 50.67 288.398 51.26C288.088 51.85 287.663 52.315 287.123 52.655C286.583 52.985 285.983 53.15 285.323 53.15C284.823 53.15 284.353 53.04 283.913 52.82C283.473 52.59 283.098 52.275 282.788 51.875V55.55H281.363V45.5H282.713V46.715C283.033 46.285 283.418 45.95 283.868 45.71C284.318 45.47 284.803 45.35 285.323 45.35ZM285.083 51.83C285.523 51.83 285.918 51.72 286.268 51.5C286.618 51.28 286.893 50.975 287.093 50.585C287.293 50.185 287.393 49.74 287.393 49.25C287.393 48.76 287.293 48.32 287.093 47.93C286.893 47.53 286.618 47.22 286.268 47C285.918 46.78 285.523 46.67 285.083 46.67C284.643 46.67 284.243 46.78 283.883 47C283.523 47.22 283.243 47.53 283.043 47.93C282.843 48.32 282.743 48.76 282.743 49.25C282.743 49.74 282.843 50.185 283.043 50.585C283.243 50.975 283.523 51.28 283.883 51.5C284.243 51.72 284.643 51.83 285.083 51.83ZM294.071 48.47C294.861 48.47 295.476 48.685 295.916 49.115C296.366 49.535 296.591 50.075 296.591 50.735C296.591 51.395 296.366 51.94 295.916 52.37C295.476 52.79 294.861 53 294.071 53H290.366V45.5H291.791V48.47H294.071ZM293.876 51.755C294.286 51.755 294.596 51.67 294.806 51.5C295.016 51.33 295.121 51.075 295.121 50.735C295.121 50.395 295.016 50.14 294.806 49.97C294.596 49.8 294.286 49.715 293.876 49.715H291.791V51.755H293.876ZM299.366 45.5V53H297.941V45.5H299.366ZM304.702 45.35C305.472 45.35 306.142 45.515 306.712 45.845C307.292 46.175 307.737 46.645 308.047 47.255C308.357 47.855 308.512 48.56 308.512 49.37C308.512 49.58 308.507 49.735 308.497 49.835H302.347C302.447 50.415 302.717 50.895 303.157 51.275C303.607 51.645 304.127 51.83 304.717 51.83C305.687 51.83 306.377 51.475 306.787 50.765H308.257C308.017 51.465 307.572 52.04 306.922 52.49C306.272 52.93 305.537 53.15 304.717 53.15C303.987 53.15 303.327 52.985 302.737 52.655C302.147 52.315 301.687 51.85 301.357 51.26C301.027 50.66 300.862 49.99 300.862 49.25C300.862 48.51 301.027 47.845 301.357 47.255C301.687 46.655 302.142 46.19 302.722 45.86C303.312 45.52 303.972 45.35 304.702 45.35ZM304.672 46.61C304.082 46.61 303.572 46.795 303.142 47.165C302.722 47.535 302.462 48.01 302.362 48.59H306.967C306.907 47.99 306.662 47.51 306.232 47.15C305.812 46.79 305.292 46.61 304.672 46.61ZM4.515 74.15C3.775 74.15 3.1 73.98 2.49 73.64C1.88 73.29 1.4 72.82 1.05 72.23C0.7 71.63 0.525 70.97 0.525 70.25C0.525 69.53 0.7 68.875 1.05 68.285C1.4 67.685 1.88 67.215 2.49 66.875C3.1 66.525 3.775 66.35 4.515 66.35C5.245 66.35 5.91 66.525 6.51 66.875C7.12 67.215 7.6 67.685 7.95 68.285C8.3 68.875 8.475 69.53 8.475 70.25C8.475 70.97 8.3 71.63 7.95 72.23C7.6 72.82 7.12 73.29 6.51 73.64C5.91 73.98 5.245 74.15 4.515 74.15ZM4.515 72.83C4.975 72.83 5.395 72.72 5.775 72.5C6.155 72.27 6.455 71.96 6.675 71.57C6.895 71.17 7.005 70.73 7.005 70.25C7.005 69.77 6.895 69.335 6.675 68.945C6.455 68.545 6.155 68.235 5.775 68.015C5.395 67.785 4.975 67.67 4.515 67.67C4.045 67.67 3.615 67.785 3.225 68.015C2.845 68.235 2.545 68.545 2.325 68.945C2.105 69.335 1.995 69.77 1.995 70.25C1.995 70.73 2.105 71.17 2.325 71.57C2.545 71.96 2.845 72.27 3.225 72.5C3.615 72.72 4.045 72.83 4.515 72.83ZM13.5391 66.725C14.2191 66.725 14.8441 66.89 15.4141 67.22C15.9841 67.54 16.4291 67.98 16.7491 68.54C17.0791 69.1 17.2441 69.72 17.2441 70.4C17.2441 71.09 17.0741 71.725 16.7341 72.305C16.4041 72.875 15.9441 73.325 15.3541 73.655C14.7741 73.985 14.1341 74.15 13.4341 74.15C12.7241 74.15 12.0741 73.985 11.4841 73.655C10.9041 73.315 10.4441 72.845 10.1041 72.245C9.76414 71.645 9.59414 70.965 9.59414 70.205V67.325C9.59414 66.385 9.82914 65.68 10.2991 65.21C10.7791 64.73 11.4541 64.435 12.3241 64.325L15.0091 63.98C15.2591 63.95 15.3841 63.825 15.3841 63.605V63.425H16.8241V63.785C16.8241 64.195 16.6941 64.525 16.4341 64.775C16.1841 65.015 15.8891 65.155 15.5491 65.195L12.4591 65.6C11.8991 65.67 11.4841 65.825 11.2141 66.065C10.9541 66.295 10.8241 66.66 10.8241 67.16V68.21C11.1341 67.74 11.5241 67.375 11.9941 67.115C12.4741 66.855 12.9891 66.725 13.5391 66.725ZM13.3891 72.83C13.8291 72.83 14.2291 72.725 14.5891 72.515C14.9591 72.295 15.2491 72 15.4591 71.63C15.6691 71.26 15.7741 70.85 15.7741 70.4C15.7741 69.95 15.6691 69.54 15.4591 69.17C15.2491 68.8 14.9591 68.51 14.5891 68.3C14.2291 68.08 13.8291 67.97 13.3891 67.97C12.9391 67.97 12.5291 68.08 12.1591 68.3C11.7891 68.51 11.4991 68.8 11.2891 69.17C11.0791 69.54 10.9741 69.95 10.9741 70.4C10.9741 70.85 11.0791 71.26 11.2891 71.63C11.4991 72 11.7891 72.295 12.1591 72.515C12.5291 72.725 12.9391 72.83 13.3891 72.83ZM21.9765 66.35C22.7465 66.35 23.4165 66.515 23.9865 66.845C24.5665 67.175 25.0115 67.645 25.3215 68.255C25.6315 68.855 25.7865 69.56 25.7865 70.37C25.7865 70.58 25.7815 70.735 25.7715 70.835H19.6215C19.7215 71.415 19.9915 71.895 20.4315 72.275C20.8815 72.645 21.4015 72.83 21.9915 72.83C22.9615 72.83 23.6515 72.475 24.0615 71.765H25.5315C25.2915 72.465 24.8465 73.04 24.1965 73.49C23.5465 73.93 22.8115 74.15 21.9915 74.15C21.2615 74.15 20.6015 73.985 20.0115 73.655C19.4215 73.315 18.9615 72.85 18.6315 72.26C18.3015 71.66 18.1365 70.99 18.1365 70.25C18.1365 69.51 18.3015 68.845 18.6315 68.255C18.9615 67.655 19.4165 67.19 19.9965 66.86C20.5865 66.52 21.2465 66.35 21.9765 66.35ZM21.9465 67.61C21.3565 67.61 20.8465 67.795 20.4165 68.165C19.9965 68.535 19.7365 69.01 19.6365 69.59H24.2415C24.1815 68.99 23.9365 68.51 23.5065 68.15C23.0865 67.79 22.5665 67.61 21.9465 67.61ZM26.6859 70.25C26.6859 69.53 26.8609 68.875 27.2109 68.285C27.5609 67.685 28.0409 67.215 28.6509 66.875C29.2609 66.525 29.9359 66.35 30.6759 66.35C31.5059 66.35 32.2509 66.595 32.9109 67.085C33.5809 67.565 34.0209 68.195 34.2309 68.975H32.6709C32.5009 68.575 32.2259 68.26 31.8459 68.03C31.4759 67.79 31.0609 67.67 30.6009 67.67C30.1309 67.67 29.7109 67.785 29.3409 68.015C28.9709 68.235 28.6809 68.545 28.4709 68.945C28.2609 69.335 28.1559 69.77 28.1559 70.25C28.1559 70.73 28.2609 71.17 28.4709 71.57C28.6809 71.96 28.9709 72.27 29.3409 72.5C29.7109 72.72 30.1309 72.83 30.6009 72.83C31.0609 72.83 31.4759 72.715 31.8459 72.485C32.2259 72.245 32.5009 71.925 32.6709 71.525H34.2309C34.0209 72.305 33.5809 72.94 32.9109 73.43C32.2509 73.91 31.5059 74.15 30.6759 74.15C29.9359 74.15 29.2609 73.98 28.6509 73.64C28.0409 73.29 27.5609 72.82 27.2109 72.23C26.8609 71.63 26.6859 70.97 26.6859 70.25ZM42.3381 74H40.9131V67.85H37.0131V74H35.5881V66.5H42.3381V74ZM47.6834 66.35C48.4534 66.35 49.1234 66.515 49.6934 66.845C50.2734 67.175 50.7184 67.645 51.0284 68.255C51.3384 68.855 51.4934 69.56 51.4934 70.37C51.4934 70.58 51.4884 70.735 51.4784 70.835H45.3284C45.4284 71.415 45.6984 71.895 46.1384 72.275C46.5884 72.645 47.1084 72.83 47.6984 72.83C48.6684 72.83 49.3584 72.475 49.7684 71.765H51.2384C50.9984 72.465 50.5534 73.04 49.9034 73.49C49.2534 73.93 48.5184 74.15 47.6984 74.15C46.9684 74.15 46.3084 73.985 45.7184 73.655C45.1284 73.315 44.6684 72.85 44.3384 72.26C44.0084 71.66 43.8434 70.99 43.8434 70.25C43.8434 69.51 44.0084 68.845 44.3384 68.255C44.6684 67.655 45.1234 67.19 45.7034 66.86C46.2934 66.52 46.9534 66.35 47.6834 66.35ZM47.6534 67.61C47.0634 67.61 46.5534 67.795 46.1234 68.165C45.7034 68.535 45.4434 69.01 45.3434 69.59H49.9484C49.8884 68.99 49.6434 68.51 49.2134 68.15C48.7934 67.79 48.2734 67.61 47.6534 67.61ZM58.8445 66.5V74H57.4195V71.09H55.0195C54.2495 71.09 53.6445 70.865 53.2045 70.415C52.7645 69.965 52.5445 69.39 52.5445 68.69V66.5H53.9695V68.645C53.9695 69.035 54.0695 69.325 54.2695 69.515C54.4795 69.705 54.8045 69.8 55.2445 69.8H57.4195V66.5H58.8445ZM67.7666 66.5V74H66.3416V69.38L62.4416 72.68V74H61.0166V66.5H62.4416V71.03L66.3416 67.73V66.5H67.7666ZM75.1369 70.175C75.8769 70.545 76.2469 71.115 76.2469 71.885C76.2469 72.505 76.0219 73.015 75.5719 73.415C75.1219 73.805 74.5019 74 73.7119 74H69.9469V66.5H73.7119C74.4619 66.5 75.0519 66.695 75.4819 67.085C75.9219 67.465 76.1419 67.95 76.1419 68.54C76.1419 68.89 76.0569 69.21 75.8869 69.5C75.7269 69.78 75.4769 70.005 75.1369 70.175ZM73.5469 69.62C73.9169 69.62 74.1969 69.535 74.3869 69.365C74.5769 69.195 74.6719 68.945 74.6719 68.615C74.6719 68.005 74.2969 67.7 73.5469 67.7H71.3419V69.62H73.5469ZM73.5619 72.8C73.9619 72.8 74.2619 72.715 74.4619 72.545C74.6719 72.365 74.7769 72.11 74.7769 71.78C74.7769 71.47 74.6719 71.235 74.4619 71.075C74.2619 70.905 73.9619 70.82 73.5619 70.82H71.3419V72.8H73.5619ZM84.426 72.65V74H83.706C83.336 74 83.046 73.91 82.836 73.73C82.626 73.54 82.501 73.27 82.461 72.92C82.141 73.29 81.726 73.59 81.216 73.82C80.716 74.04 80.186 74.15 79.626 74.15C78.816 74.15 78.186 73.95 77.736 73.55C77.296 73.15 77.076 72.615 77.076 71.945C77.076 71.335 77.316 70.815 77.796 70.385C78.276 69.945 78.951 69.68 79.821 69.59L80.661 69.5C81.131 69.45 81.481 69.39 81.711 69.32C81.941 69.24 82.086 69.155 82.146 69.065C82.216 68.975 82.251 68.855 82.251 68.705C82.251 68.365 82.086 68.1 81.756 67.91C81.436 67.71 80.991 67.61 80.421 67.61C80.051 67.61 79.696 67.71 79.356 67.91C79.016 68.1 78.781 68.375 78.651 68.735H77.136C77.276 68.035 77.656 67.465 78.276 67.025C78.896 66.575 79.636 66.35 80.496 66.35C81.446 66.35 82.226 66.61 82.836 67.13C83.446 67.65 83.751 68.395 83.751 69.365V72.245C83.751 72.375 83.786 72.475 83.856 72.545C83.926 72.615 84.021 72.65 84.141 72.65H84.426ZM79.776 72.92C80.246 72.92 80.686 72.825 81.096 72.635C81.506 72.435 81.831 72.175 82.071 71.855C82.321 71.525 82.446 71.175 82.446 70.805V70.13C82.106 70.39 81.566 70.56 80.826 70.64L79.986 70.73C79.426 70.79 79.036 70.925 78.816 71.135C78.596 71.345 78.486 71.61 78.486 71.93C78.486 72.23 78.596 72.47 78.816 72.65C79.046 72.83 79.366 72.92 79.776 72.92ZM92.4278 66.35C93.1478 66.35 93.8028 66.525 94.3928 66.875C94.9928 67.215 95.4628 67.685 95.8028 68.285C96.1428 68.875 96.3128 69.53 96.3128 70.25C96.3128 70.97 96.1428 71.63 95.8028 72.23C95.4628 72.82 94.9928 73.29 94.3928 73.64C93.8028 73.98 93.1478 74.15 92.4278 74.15C91.7878 74.15 91.1928 74.01 90.6428 73.73C90.1028 73.45 89.6528 73.065 89.2928 72.575C88.9428 72.085 88.7228 71.535 88.6328 70.925H87.3428V74H85.9178V66.5H87.3428V69.575H88.6328C88.7228 68.965 88.9428 68.415 89.2928 67.925C89.6528 67.435 90.1028 67.05 90.6428 66.77C91.1928 66.49 91.7878 66.35 92.4278 66.35ZM92.4278 72.83C92.8778 72.83 93.2878 72.72 93.6578 72.5C94.0278 72.27 94.3178 71.96 94.5278 71.57C94.7378 71.17 94.8428 70.73 94.8428 70.25C94.8428 69.77 94.7378 69.335 94.5278 68.945C94.3178 68.545 94.0278 68.235 93.6578 68.015C93.2878 67.785 92.8778 67.67 92.4278 67.67C91.9778 67.67 91.5628 67.785 91.1828 68.015C90.8128 68.235 90.5178 68.545 90.2978 68.945C90.0878 69.335 89.9828 69.77 89.9828 70.25C89.9828 70.73 90.0878 71.17 90.2978 71.57C90.5178 71.96 90.8128 72.27 91.1828 72.5C91.5628 72.72 91.9778 72.83 92.4278 72.83ZM103.214 67.85H100.589V74H99.1641V67.85H96.5391V66.5H103.214V67.85ZM115.707 72.65V75.65H114.327V74H108.717V75.65H107.337V72.65H108.267C108.687 72.09 109.012 71.35 109.242 70.43C109.472 69.5 109.587 68.47 109.587 67.34V66.5H114.657V72.65H115.707ZM113.262 72.695V67.775H110.922C110.852 69.875 110.452 71.515 109.722 72.695H113.262ZM120.222 74.15C119.482 74.15 118.807 73.98 118.197 73.64C117.587 73.29 117.107 72.82 116.757 72.23C116.407 71.63 116.232 70.97 116.232 70.25C116.232 69.53 116.407 68.875 116.757 68.285C117.107 67.685 117.587 67.215 118.197 66.875C118.807 66.525 119.482 66.35 120.222 66.35C120.952 66.35 121.617 66.525 122.217 66.875C122.827 67.215 123.307 67.685 123.657 68.285C124.007 68.875 124.182 69.53 124.182 70.25C124.182 70.97 124.007 71.63 123.657 72.23C123.307 72.82 122.827 73.29 122.217 73.64C121.617 73.98 120.952 74.15 120.222 74.15ZM120.222 72.83C120.682 72.83 121.102 72.72 121.482 72.5C121.862 72.27 122.162 71.96 122.382 71.57C122.602 71.17 122.712 70.73 122.712 70.25C122.712 69.77 122.602 69.335 122.382 68.945C122.162 68.545 121.862 68.235 121.482 68.015C121.102 67.785 120.682 67.67 120.222 67.67C119.752 67.67 119.322 67.785 118.932 68.015C118.552 68.235 118.252 68.545 118.032 68.945C117.812 69.335 117.702 69.77 117.702 70.25C117.702 70.73 117.812 71.17 118.032 71.57C118.252 71.96 118.552 72.27 118.932 72.5C119.322 72.72 119.752 72.83 120.222 72.83ZM132.085 74H130.66V67.85H128.035C128.025 69.31 127.91 70.495 127.69 71.405C127.47 72.305 127.13 72.97 126.67 73.4C126.22 73.83 125.63 74.045 124.9 74.045C124.73 74.045 124.59 74.03 124.48 74V72.695C124.62 72.715 124.725 72.725 124.795 72.725C125.235 72.725 125.585 72.56 125.845 72.23C126.115 71.89 126.31 71.355 126.43 70.625C126.55 69.885 126.61 68.905 126.61 67.685V66.5H132.085V74ZM139.505 67.85H135.68V74H134.255V66.5H139.505V67.85ZM143.732 74.15C142.992 74.15 142.317 73.98 141.707 73.64C141.097 73.29 140.617 72.82 140.267 72.23C139.917 71.63 139.742 70.97 139.742 70.25C139.742 69.53 139.917 68.875 140.267 68.285C140.617 67.685 141.097 67.215 141.707 66.875C142.317 66.525 142.992 66.35 143.732 66.35C144.462 66.35 145.127 66.525 145.727 66.875C146.337 67.215 146.817 67.685 147.167 68.285C147.517 68.875 147.692 69.53 147.692 70.25C147.692 70.97 147.517 71.63 147.167 72.23C146.817 72.82 146.337 73.29 145.727 73.64C145.127 73.98 144.462 74.15 143.732 74.15ZM143.732 72.83C144.192 72.83 144.612 72.72 144.992 72.5C145.372 72.27 145.672 71.96 145.892 71.57C146.112 71.17 146.222 70.73 146.222 70.25C146.222 69.77 146.112 69.335 145.892 68.945C145.672 68.545 145.372 68.235 144.992 68.015C144.612 67.785 144.192 67.67 143.732 67.67C143.262 67.67 142.832 67.785 142.442 68.015C142.062 68.235 141.762 68.545 141.542 68.945C141.322 69.335 141.212 69.77 141.212 70.25C141.212 70.73 141.322 71.17 141.542 71.57C141.762 71.96 142.062 72.27 142.442 72.5C142.832 72.72 143.262 72.83 143.732 72.83ZM154.376 70.175C155.116 70.545 155.486 71.115 155.486 71.885C155.486 72.505 155.261 73.015 154.811 73.415C154.361 73.805 153.741 74 152.951 74H149.186V66.5H152.951C153.701 66.5 154.291 66.695 154.721 67.085C155.161 67.465 155.381 67.95 155.381 68.54C155.381 68.89 155.296 69.21 155.126 69.5C154.966 69.78 154.716 70.005 154.376 70.175ZM152.786 69.62C153.156 69.62 153.436 69.535 153.626 69.365C153.816 69.195 153.911 68.945 153.911 68.615C153.911 68.005 153.536 67.7 152.786 67.7H150.581V69.62H152.786ZM152.801 72.8C153.201 72.8 153.501 72.715 153.701 72.545C153.911 72.365 154.016 72.11 154.016 71.78C154.016 71.47 153.911 71.235 153.701 71.075C153.501 70.905 153.201 70.82 152.801 70.82H150.581V72.8H152.801ZM160.08 66.35C160.85 66.35 161.52 66.515 162.09 66.845C162.67 67.175 163.115 67.645 163.425 68.255C163.735 68.855 163.89 69.56 163.89 70.37C163.89 70.58 163.885 70.735 163.875 70.835H157.725C157.825 71.415 158.095 71.895 158.535 72.275C158.985 72.645 159.505 72.83 160.095 72.83C161.065 72.83 161.755 72.475 162.165 71.765H163.635C163.395 72.465 162.95 73.04 162.3 73.49C161.65 73.93 160.915 74.15 160.095 74.15C159.365 74.15 158.705 73.985 158.115 73.655C157.525 73.315 157.065 72.85 156.735 72.26C156.405 71.66 156.24 70.99 156.24 70.25C156.24 69.51 156.405 68.845 156.735 68.255C157.065 67.655 157.52 67.19 158.1 66.86C158.69 66.52 159.35 66.35 160.08 66.35ZM160.05 67.61C159.46 67.61 158.95 67.795 158.52 68.165C158.1 68.535 157.84 69.01 157.74 69.59H162.345C162.285 68.99 162.04 68.51 161.61 68.15C161.19 67.79 160.67 67.61 160.05 67.61ZM171.241 66.5V74H169.816V71.09H167.416C166.646 71.09 166.041 70.865 165.601 70.415C165.161 69.965 164.941 69.39 164.941 68.69V66.5H166.366V68.645C166.366 69.035 166.466 69.325 166.666 69.515C166.876 69.705 167.201 69.8 167.641 69.8H169.816V66.5H171.241ZM180.163 66.5V74H178.738V70.925H174.838V74H173.413V66.5H174.838V69.575H178.738V66.5H180.163ZM185.659 74.15C184.919 74.15 184.244 73.98 183.634 73.64C183.024 73.29 182.544 72.82 182.194 72.23C181.844 71.63 181.669 70.97 181.669 70.25C181.669 69.53 181.844 68.875 182.194 68.285C182.544 67.685 183.024 67.215 183.634 66.875C184.244 66.525 184.919 66.35 185.659 66.35C186.389 66.35 187.054 66.525 187.654 66.875C188.264 67.215 188.744 67.685 189.094 68.285C189.444 68.875 189.619 69.53 189.619 70.25C189.619 70.97 189.444 71.63 189.094 72.23C188.744 72.82 188.264 73.29 187.654 73.64C187.054 73.98 186.389 74.15 185.659 74.15ZM185.659 72.83C186.119 72.83 186.539 72.72 186.919 72.5C187.299 72.27 187.599 71.96 187.819 71.57C188.039 71.17 188.149 70.73 188.149 70.25C188.149 69.77 188.039 69.335 187.819 68.945C187.599 68.545 187.299 68.235 186.919 68.015C186.539 67.785 186.119 67.67 185.659 67.67C185.189 67.67 184.759 67.785 184.369 68.015C183.989 68.235 183.689 68.545 183.469 68.945C183.249 69.335 183.139 69.77 183.139 70.25C183.139 70.73 183.249 71.17 183.469 71.57C183.689 71.96 183.989 72.27 184.369 72.5C184.759 72.72 185.189 72.83 185.659 72.83ZM190.511 70.25C190.511 69.53 190.686 68.875 191.036 68.285C191.386 67.685 191.866 67.215 192.476 66.875C193.086 66.525 193.761 66.35 194.501 66.35C195.331 66.35 196.076 66.595 196.736 67.085C197.406 67.565 197.846 68.195 198.056 68.975H196.496C196.326 68.575 196.051 68.26 195.671 68.03C195.301 67.79 194.886 67.67 194.426 67.67C193.956 67.67 193.536 67.785 193.166 68.015C192.796 68.235 192.506 68.545 192.296 68.945C192.086 69.335 191.981 69.77 191.981 70.25C191.981 70.73 192.086 71.17 192.296 71.57C192.506 71.96 192.796 72.27 193.166 72.5C193.536 72.72 193.956 72.83 194.426 72.83C194.886 72.83 195.301 72.715 195.671 72.485C196.051 72.245 196.326 71.925 196.496 71.525H198.056C197.846 72.305 197.406 72.94 196.736 73.43C196.076 73.91 195.331 74.15 194.501 74.15C193.761 74.15 193.086 73.98 192.476 73.64C191.866 73.29 191.386 72.82 191.036 72.23C190.686 71.63 190.511 70.97 190.511 70.25ZM204.82 67.85H202.195V74H200.77V67.85H198.145V66.5H204.82V67.85ZM209.719 69.47C210.509 69.47 211.124 69.685 211.564 70.115C212.014 70.535 212.239 71.075 212.239 71.735C212.239 72.395 212.014 72.94 211.564 73.37C211.124 73.79 210.509 74 209.719 74H206.014V66.5H207.439V69.47H209.719ZM209.524 72.755C209.934 72.755 210.244 72.67 210.454 72.5C210.664 72.33 210.769 72.075 210.769 71.735C210.769 71.395 210.664 71.14 210.454 70.97C210.244 70.8 209.934 70.715 209.524 70.715H207.439V72.755H209.524ZM224.399 66.5V74H222.974V69.38L219.074 72.68V74H217.649V66.5H219.074V71.03L222.974 67.73V66.5H224.399ZM237.309 66.5V74H235.884V70.925H231.984V74H230.559V66.5H231.984V69.575H235.884V66.5H237.309ZM246.239 72.65V74H245.519C245.149 74 244.859 73.91 244.649 73.73C244.439 73.54 244.314 73.27 244.274 72.92C243.954 73.29 243.539 73.59 243.029 73.82C242.529 74.04 241.999 74.15 241.439 74.15C240.629 74.15 239.999 73.95 239.549 73.55C239.109 73.15 238.889 72.615 238.889 71.945C238.889 71.335 239.129 70.815 239.609 70.385C240.089 69.945 240.764 69.68 241.634 69.59L242.474 69.5C242.944 69.45 243.294 69.39 243.524 69.32C243.754 69.24 243.899 69.155 243.959 69.065C244.029 68.975 244.064 68.855 244.064 68.705C244.064 68.365 243.899 68.1 243.569 67.91C243.249 67.71 242.804 67.61 242.234 67.61C241.864 67.61 241.509 67.71 241.169 67.91C240.829 68.1 240.594 68.375 240.464 68.735H238.949C239.089 68.035 239.469 67.465 240.089 67.025C240.709 66.575 241.449 66.35 242.309 66.35C243.259 66.35 244.039 66.61 244.649 67.13C245.259 67.65 245.564 68.395 245.564 69.365V72.245C245.564 72.375 245.599 72.475 245.669 72.545C245.739 72.615 245.834 72.65 245.954 72.65H246.239ZM241.589 72.92C242.059 72.92 242.499 72.825 242.909 72.635C243.319 72.435 243.644 72.175 243.884 71.855C244.134 71.525 244.259 71.175 244.259 70.805V70.13C243.919 70.39 243.379 70.56 242.639 70.64L241.799 70.73C241.239 70.79 240.849 70.925 240.629 71.135C240.409 71.345 240.299 71.61 240.299 71.93C240.299 72.23 240.409 72.47 240.629 72.65C240.859 72.83 241.179 72.92 241.589 72.92ZM255.051 72.65V75.65H253.671V74H248.061V75.65H246.681V72.65H247.611C248.031 72.09 248.356 71.35 248.586 70.43C248.816 69.5 248.931 68.47 248.931 67.34V66.5H254.001V72.65H255.051ZM252.606 72.695V67.775H250.266C250.196 69.875 249.796 71.515 249.066 72.695H252.606ZM259.416 66.35C260.186 66.35 260.856 66.515 261.426 66.845C262.006 67.175 262.451 67.645 262.761 68.255C263.071 68.855 263.226 69.56 263.226 70.37C263.226 70.58 263.221 70.735 263.211 70.835H257.061C257.161 71.415 257.431 71.895 257.871 72.275C258.321 72.645 258.841 72.83 259.431 72.83C260.401 72.83 261.091 72.475 261.501 71.765H262.971C262.731 72.465 262.286 73.04 261.636 73.49C260.986 73.93 260.251 74.15 259.431 74.15C258.701 74.15 258.041 73.985 257.451 73.655C256.861 73.315 256.401 72.85 256.071 72.26C255.741 71.66 255.576 70.99 255.576 70.25C255.576 69.51 255.741 68.845 256.071 68.255C256.401 67.655 256.856 67.19 257.436 66.86C258.026 66.52 258.686 66.35 259.416 66.35ZM259.386 67.61C258.796 67.61 258.286 67.795 257.856 68.165C257.436 68.535 257.176 69.01 257.076 69.59H261.681C261.621 68.99 261.376 68.51 260.946 68.15C260.526 67.79 260.006 67.61 259.386 67.61ZM274.398 72.635V74H273.798C273.328 74 272.968 73.875 272.718 73.625C272.478 73.365 272.358 72.985 272.358 72.485V71.54C272.358 71.07 272.128 70.835 271.668 70.835H269.898V74H268.473V70.835H266.703C266.243 70.835 266.013 71.07 266.013 71.54V72.485C266.013 72.985 265.888 73.365 265.638 73.625C265.398 73.875 265.043 74 264.573 74H263.973V72.635H264.258C264.368 72.635 264.453 72.605 264.513 72.545C264.583 72.475 264.618 72.385 264.618 72.275V71.345C264.618 70.805 264.863 70.42 265.353 70.19C264.983 69.94 264.798 69.555 264.798 69.035V68.225C264.798 68.115 264.763 68.03 264.693 67.97C264.633 67.9 264.548 67.865 264.438 67.865H264.153V66.5H264.798C265.698 66.5 266.148 66.98 266.148 67.94V68.75C266.148 69.03 266.218 69.24 266.358 69.38C266.508 69.52 266.718 69.59 266.988 69.59H268.473V66.5H269.898V69.59H271.383C271.653 69.59 271.858 69.52 271.998 69.38C272.148 69.24 272.223 69.03 272.223 68.75V67.94C272.223 66.98 272.673 66.5 273.573 66.5H274.218V67.865H273.933C273.823 67.865 273.733 67.9 273.663 67.97C273.603 68.03 273.573 68.115 273.573 68.225V69.035C273.573 69.555 273.388 69.94 273.018 70.19C273.508 70.42 273.753 70.805 273.753 71.345V72.275C273.753 72.385 273.783 72.475 273.843 72.545C273.913 72.605 274.003 72.635 274.113 72.635H274.398ZM283.029 66.5V74H281.604V70.925H277.704V74H276.279V66.5H277.704V69.575H281.604V66.5H283.029ZM288.525 74.15C287.785 74.15 287.11 73.98 286.5 73.64C285.89 73.29 285.41 72.82 285.06 72.23C284.71 71.63 284.535 70.97 284.535 70.25C284.535 69.53 284.71 68.875 285.06 68.285C285.41 67.685 285.89 67.215 286.5 66.875C287.11 66.525 287.785 66.35 288.525 66.35C289.255 66.35 289.92 66.525 290.52 66.875C291.13 67.215 291.61 67.685 291.96 68.285C292.31 68.875 292.485 69.53 292.485 70.25C292.485 70.97 292.31 71.63 291.96 72.23C291.61 72.82 291.13 73.29 290.52 73.64C289.92 73.98 289.255 74.15 288.525 74.15ZM288.525 72.83C288.985 72.83 289.405 72.72 289.785 72.5C290.165 72.27 290.465 71.96 290.685 71.57C290.905 71.17 291.015 70.73 291.015 70.25C291.015 69.77 290.905 69.335 290.685 68.945C290.465 68.545 290.165 68.235 289.785 68.015C289.405 67.785 288.985 67.67 288.525 67.67C288.055 67.67 287.625 67.785 287.235 68.015C286.855 68.235 286.555 68.545 286.335 68.945C286.115 69.335 286.005 69.77 286.005 70.25C286.005 70.73 286.115 71.17 286.335 71.57C286.555 71.96 286.855 72.27 287.235 72.5C287.625 72.72 288.055 72.83 288.525 72.83ZM293.377 70.25C293.377 69.53 293.552 68.875 293.902 68.285C294.252 67.685 294.732 67.215 295.342 66.875C295.952 66.525 296.627 66.35 297.367 66.35C298.197 66.35 298.942 66.595 299.602 67.085C300.272 67.565 300.712 68.195 300.922 68.975H299.362C299.192 68.575 298.917 68.26 298.537 68.03C298.167 67.79 297.752 67.67 297.292 67.67C296.822 67.67 296.402 67.785 296.032 68.015C295.662 68.235 295.372 68.545 295.162 68.945C294.952 69.335 294.847 69.77 294.847 70.25C294.847 70.73 294.952 71.17 295.162 71.57C295.372 71.96 295.662 72.27 296.032 72.5C296.402 72.72 296.822 72.83 297.292 72.83C297.752 72.83 298.167 72.715 298.537 72.485C298.917 72.245 299.192 71.925 299.362 71.525H300.922C300.712 72.305 300.272 72.94 299.602 73.43C298.942 73.91 298.197 74.15 297.367 74.15C296.627 74.15 295.952 73.98 295.342 73.64C294.732 73.29 294.252 72.82 293.902 72.23C293.552 71.63 293.377 70.97 293.377 70.25ZM307.686 67.85H305.061V74H303.636V67.85H301.011V66.5H307.686V67.85ZM312.585 69.47C313.375 69.47 313.99 69.685 314.43 70.115C314.88 70.535 315.105 71.075 315.105 71.735C315.105 72.395 314.88 72.94 314.43 73.37C313.99 73.79 313.375 74 312.585 74H308.88V66.5H310.305V69.47H312.585ZM312.39 72.755C312.8 72.755 313.11 72.67 313.32 72.5C313.53 72.33 313.635 72.075 313.635 71.735C313.635 71.395 313.53 71.14 313.32 70.97C313.11 70.8 312.8 70.715 312.39 70.715H310.305V72.755H312.39ZM7.95 87.5V95H6.525V91.925H2.625V95H1.2V87.5H2.625V90.575H6.525V87.5H7.95ZM16.8803 93.65V95H16.1603C15.7903 95 15.5003 94.91 15.2903 94.73C15.0803 94.54 14.9553 94.27 14.9153 93.92C14.5953 94.29 14.1803 94.59 13.6703 94.82C13.1703 95.04 12.6403 95.15 12.0803 95.15C11.2703 95.15 10.6403 94.95 10.1903 94.55C9.75027 94.15 9.53027 93.615 9.53027 92.945C9.53027 92.335 9.77027 91.815 10.2503 91.385C10.7303 90.945 11.4053 90.68 12.2753 90.59L13.1153 90.5C13.5853 90.45 13.9353 90.39 14.1653 90.32C14.3953 90.24 14.5403 90.155 14.6003 90.065C14.6703 89.975 14.7053 89.855 14.7053 89.705C14.7053 89.365 14.5403 89.1 14.2103 88.91C13.8903 88.71 13.4453 88.61 12.8753 88.61C12.5053 88.61 12.1503 88.71 11.8103 88.91C11.4703 89.1 11.2353 89.375 11.1053 89.735H9.59027C9.73027 89.035 10.1103 88.465 10.7303 88.025C11.3503 87.575 12.0903 87.35 12.9503 87.35C13.9003 87.35 14.6803 87.61 15.2903 88.13C15.9003 88.65 16.2053 89.395 16.2053 90.365V93.245C16.2053 93.375 16.2403 93.475 16.3103 93.545C16.3803 93.615 16.4753 93.65 16.5953 93.65H16.8803ZM12.2303 93.92C12.7003 93.92 13.1403 93.825 13.5503 93.635C13.9603 93.435 14.2853 93.175 14.5253 92.855C14.7753 92.525 14.9003 92.175 14.9003 91.805V91.13C14.5603 91.39 14.0203 91.56 13.2803 91.64L12.4403 91.73C11.8803 91.79 11.4903 91.925 11.2703 92.135C11.0503 92.345 10.9403 92.61 10.9403 92.93C10.9403 93.23 11.0503 93.47 11.2703 93.65C11.5003 93.83 11.8203 93.92 12.2303 93.92ZM28.7971 87.5V95H18.3721V87.5H19.7971V93.65H22.8721V87.5H24.2971V93.65H27.3721V87.5H28.7971ZM34.1441 87.35C34.9141 87.35 35.5841 87.515 36.1541 87.845C36.7341 88.175 37.1791 88.645 37.4891 89.255C37.7991 89.855 37.9541 90.56 37.9541 91.37C37.9541 91.58 37.9491 91.735 37.9391 91.835H31.7891C31.8891 92.415 32.1591 92.895 32.5991 93.275C33.0491 93.645 33.5691 93.83 34.1591 93.83C35.1291 93.83 35.8191 93.475 36.2291 92.765H37.6991C37.4591 93.465 37.0141 94.04 36.3641 94.49C35.7141 94.93 34.9791 95.15 34.1591 95.15C33.4291 95.15 32.7691 94.985 32.1791 94.655C31.5891 94.315 31.1291 93.85 30.7991 93.26C30.4691 92.66 30.3041 91.99 30.3041 91.25C30.3041 90.51 30.4691 89.845 30.7991 89.255C31.1291 88.655 31.5841 88.19 32.1641 87.86C32.7541 87.52 33.4141 87.35 34.1441 87.35ZM34.1141 88.61C33.5241 88.61 33.0141 88.795 32.5841 89.165C32.1641 89.535 31.9041 90.01 31.8041 90.59H36.4091C36.3491 89.99 36.1041 89.51 35.6741 89.15C35.2541 88.79 34.7341 88.61 34.1141 88.61ZM46.2053 87.5V95H44.7803V90.38L40.8803 93.68V95H39.4553V87.5H40.8803V92.03L44.7803 88.73V87.5H46.2053ZM42.9053 86.765C42.1253 86.765 41.4853 86.56 40.9853 86.15C40.4853 85.74 40.2053 85.19 40.1453 84.5H41.3753C41.4253 84.88 41.5853 85.18 41.8553 85.4C42.1253 85.61 42.4753 85.715 42.9053 85.715C43.3353 85.715 43.6853 85.61 43.9553 85.4C44.2253 85.18 44.3853 84.88 44.4353 84.5H45.6653C45.6053 85.19 45.3253 85.74 44.8253 86.15C44.3253 86.56 43.6853 86.765 42.9053 86.765ZM59.1147 95H57.6897V88.85H53.7897V95H52.3647V87.5H59.1147V95ZM65.2549 87.35C65.9149 87.35 66.5149 87.52 67.0549 87.86C67.5949 88.19 68.0199 88.65 68.3299 89.24C68.6399 89.83 68.7949 90.5 68.7949 91.25C68.7949 92 68.6399 92.67 68.3299 93.26C68.0199 93.85 67.5949 94.315 67.0549 94.655C66.5149 94.985 65.9149 95.15 65.2549 95.15C64.7549 95.15 64.2849 95.04 63.8449 94.82C63.4049 94.59 63.0299 94.275 62.7199 93.875V97.55H61.2949V87.5H62.6449V88.715C62.9649 88.285 63.3499 87.95 63.7999 87.71C64.2499 87.47 64.7349 87.35 65.2549 87.35ZM65.0149 93.83C65.4549 93.83 65.8499 93.72 66.1999 93.5C66.5499 93.28 66.8249 92.975 67.0249 92.585C67.2249 92.185 67.3249 91.74 67.3249 91.25C67.3249 90.76 67.2249 90.32 67.0249 89.93C66.8249 89.53 66.5499 89.22 66.1999 89C65.8499 88.78 65.4549 88.67 65.0149 88.67C64.5749 88.67 64.1749 88.78 63.8149 89C63.4549 89.22 63.1749 89.53 62.9749 89.93C62.7749 90.32 62.6749 90.76 62.6749 91.25C62.6749 91.74 62.7749 92.185 62.9749 92.585C63.1749 92.975 63.4549 93.28 63.8149 93.5C64.1749 93.72 64.5749 93.83 65.0149 93.83ZM73.6867 95.15C72.9467 95.15 72.2717 94.98 71.6617 94.64C71.0517 94.29 70.5717 93.82 70.2217 93.23C69.8717 92.63 69.6967 91.97 69.6967 91.25C69.6967 90.53 69.8717 89.875 70.2217 89.285C70.5717 88.685 71.0517 88.215 71.6617 87.875C72.2717 87.525 72.9467 87.35 73.6867 87.35C74.4167 87.35 75.0817 87.525 75.6817 87.875C76.2917 88.215 76.7717 88.685 77.1217 89.285C77.4717 89.875 77.6467 90.53 77.6467 91.25C77.6467 91.97 77.4717 92.63 77.1217 93.23C76.7717 93.82 76.2917 94.29 75.6817 94.64C75.0817 94.98 74.4167 95.15 73.6867 95.15ZM73.6867 93.83C74.1467 93.83 74.5667 93.72 74.9467 93.5C75.3267 93.27 75.6267 92.96 75.8467 92.57C76.0667 92.17 76.1767 91.73 76.1767 91.25C76.1767 90.77 76.0667 90.335 75.8467 89.945C75.6267 89.545 75.3267 89.235 74.9467 89.015C74.5667 88.785 74.1467 88.67 73.6867 88.67C73.2167 88.67 72.7867 88.785 72.3967 89.015C72.0167 89.235 71.7167 89.545 71.4967 89.945C71.2767 90.335 71.1667 90.77 71.1667 91.25C71.1667 91.73 71.2767 92.17 71.4967 92.57C71.7167 92.96 72.0167 93.27 72.3967 93.5C72.7867 93.72 73.2167 93.83 73.6867 93.83ZM86.3143 93.65V96.65H84.9343V95H79.3243V96.65H77.9443V93.65H78.8743C79.2943 93.09 79.6193 92.35 79.8493 91.43C80.0793 90.5 80.1943 89.47 80.1943 88.34V87.5H85.2643V93.65H86.3143ZM83.8693 93.695V88.775H81.5293C81.4593 90.875 81.0593 92.515 80.3293 93.695H83.8693ZM94.613 87.5L90.968 95.84C90.778 96.35 90.513 96.765 90.173 97.085C89.833 97.415 89.333 97.58 88.673 97.58C88.203 97.58 87.838 97.57 87.578 97.55V96.2C87.858 96.22 88.193 96.23 88.583 96.23C88.863 96.23 89.083 96.155 89.243 96.005C89.413 95.855 89.553 95.65 89.663 95.39L89.888 94.865L86.243 87.5H87.908L90.593 93.26L93.113 87.5H94.613ZM102.596 93.635V95H101.996C101.526 95 101.166 94.875 100.916 94.625C100.676 94.365 100.556 93.985 100.556 93.485V92.54C100.556 92.07 100.326 91.835 99.8655 91.835H97.2105V95H95.7855V87.5H97.2105V90.605H99.6705C99.9405 90.605 100.146 90.535 100.286 90.395C100.436 90.255 100.511 90.045 100.511 89.765V88.94C100.511 87.98 100.961 87.5 101.861 87.5H102.506V88.865H102.221C102.111 88.865 102.021 88.9 101.951 88.97C101.891 89.03 101.861 89.115 101.861 89.225V90.035C101.861 90.585 101.661 90.975 101.261 91.205C101.721 91.425 101.951 91.805 101.951 92.345V93.275C101.951 93.385 101.981 93.475 102.041 93.545C102.111 93.605 102.201 93.635 102.311 93.635H102.596ZM112.208 93.65V96.65H110.828V95H104.408V87.5H105.833V93.65H109.733V87.5H111.158V93.65H112.208ZM120.308 87.5V95H118.883V90.38L114.983 93.68V95H113.558V87.5H114.983V92.03L118.883 88.73V87.5H120.308ZM129.238 87.5V95H127.813V90.38L123.913 93.68V95H122.488V87.5H123.913V92.03L127.813 88.73V87.5H129.238ZM132.919 93.35V95H131.269V93.35H132.919Z" fill="white"/>
</svg>
