<svg width="313" height="24" viewBox="0 0 313 24" fill="none" xmlns="http://www.w3.org/2000/svg">
<path d="M18.1764 17.88H6.08038L3.87238 23H0.384377L10.4324 0.599998H14.0164L24.0644 23H20.3844L18.1764 17.88ZM16.9284 14.936L12.1604 3.896L7.36038 14.936H16.9284ZM44.7376 14.84C46.3163 15.6293 47.1056 16.8453 47.1056 18.488C47.1056 19.8107 46.6256 20.8987 45.6656 21.752C44.7056 22.584 43.383 23 41.6976 23H33.6656V7H41.6976C43.2976 7 44.5563 7.416 45.4736 8.248C46.4123 9.05867 46.8816 10.0933 46.8816 11.352C46.8816 12.0987 46.7003 12.7813 46.3376 13.4C45.9963 13.9973 45.463 14.4773 44.7376 14.84ZM41.3456 13.656C42.135 13.656 42.7323 13.4747 43.1376 13.112C43.543 12.7493 43.7456 12.216 43.7456 11.512C43.7456 10.2107 42.9456 9.56 41.3456 9.56H36.6416V13.656H41.3456ZM41.3776 20.44C42.231 20.44 42.871 20.2587 43.2976 19.896C43.7456 19.512 43.9696 18.968 43.9696 18.264C43.9696 17.6027 43.7456 17.1013 43.2976 16.76C42.871 16.3973 42.231 16.216 41.3776 16.216H36.6416V20.44H41.3776ZM56.5864 23.32C55.0077 23.32 53.5677 22.9573 52.2664 22.232C50.965 21.4853 49.941 20.4827 49.1944 19.224C48.4477 17.944 48.0744 16.536 48.0744 15C48.0744 13.464 48.4477 12.0667 49.1944 10.808C49.941 9.528 50.965 8.52533 52.2664 7.8C53.5677 7.05333 55.0077 6.68 56.5864 6.68C58.1437 6.68 59.5624 7.05333 60.8424 7.8C62.1437 8.52533 63.1677 9.528 63.9144 10.808C64.661 12.0667 65.0344 13.464 65.0344 15C65.0344 16.536 64.661 17.944 63.9144 19.224C63.1677 20.4827 62.1437 21.4853 60.8424 22.232C59.5624 22.9573 58.1437 23.32 56.5864 23.32ZM56.5864 20.504C57.5677 20.504 58.4637 20.2693 59.2744 19.8C60.085 19.3093 60.725 18.648 61.1944 17.816C61.6637 16.9627 61.8984 16.024 61.8984 15C61.8984 13.976 61.6637 13.048 61.1944 12.216C60.725 11.3627 60.085 10.7013 59.2744 10.232C58.4637 9.74133 57.5677 9.496 56.5864 9.496C55.5837 9.496 54.6664 9.74133 53.8344 10.232C53.0237 10.7013 52.3837 11.3627 51.9144 12.216C51.445 13.048 51.2104 13.976 51.2104 15C51.2104 16.024 51.445 16.9627 51.9144 17.816C52.3837 18.648 53.0237 19.3093 53.8344 19.8C54.6664 20.2693 55.5837 20.504 56.5864 20.504ZM79.1169 9.88H73.5169V23H70.4769V9.88H64.8769V7H79.1169V9.88Z" fill="white"/>
<path d="M103.273 7V23H100.233V16.44H91.9131V23H88.8731V7H91.9131V13.56H100.233V7H103.273ZM121.684 20.12V23H120.148C119.359 23 118.74 22.808 118.292 22.424C117.844 22.0187 117.578 21.4427 117.492 20.696C116.81 21.4853 115.924 22.1253 114.836 22.616C113.77 23.0853 112.639 23.32 111.444 23.32C109.716 23.32 108.372 22.8933 107.412 22.04C106.474 21.1867 106.004 20.0453 106.004 18.616C106.004 17.3147 106.516 16.2053 107.54 15.288C108.564 14.3493 110.004 13.784 111.86 13.592L113.652 13.4C114.655 13.2933 115.402 13.1653 115.892 13.016C116.383 12.8453 116.692 12.664 116.82 12.472C116.97 12.28 117.044 12.024 117.044 11.704C117.044 10.9787 116.692 10.4133 115.988 10.008C115.306 9.58133 114.356 9.368 113.14 9.368C112.351 9.368 111.594 9.58133 110.868 10.008C110.143 10.4133 109.642 11 109.364 11.768H106.132C106.431 10.2747 107.242 9.05867 108.564 8.12C109.887 7.16 111.466 6.68 113.3 6.68C115.327 6.68 116.991 7.23467 118.292 8.344C119.594 9.45333 120.244 11.0427 120.244 13.112V19.256C120.244 19.5333 120.319 19.7467 120.468 19.896C120.618 20.0453 120.82 20.12 121.076 20.12H121.684ZM111.764 20.696C112.767 20.696 113.706 20.4933 114.58 20.088C115.455 19.6613 116.148 19.1067 116.66 18.424C117.194 17.72 117.46 16.9733 117.46 16.184V14.744C116.735 15.2987 115.583 15.6613 114.004 15.832L112.212 16.024C111.018 16.152 110.186 16.44 109.716 16.888C109.247 17.336 109.012 17.9013 109.012 18.584C109.012 19.224 109.247 19.736 109.716 20.12C110.207 20.504 110.89 20.696 111.764 20.696ZM146.467 7V23H124.227V7H127.267V20.12H133.827V7H136.867V20.12H143.427V7H146.467ZM164.882 7V23H161.842V13.144L153.522 20.184V23H150.482V7H153.522V16.664L161.842 9.624V7H164.882ZM191.27 20.088V23H189.99C188.987 23 188.219 22.7333 187.686 22.2C187.174 21.6453 186.918 20.8347 186.918 19.768V17.752C186.918 16.7493 186.427 16.248 185.446 16.248H179.782V23H176.742V7H179.782V13.624H185.03C185.606 13.624 186.043 13.4747 186.342 13.176C186.662 12.8773 186.822 12.4293 186.822 11.832V10.072C186.822 8.024 187.782 7 189.702 7H191.078V9.912H190.47C190.235 9.912 190.043 9.98667 189.894 10.136C189.766 10.264 189.702 10.4453 189.702 10.68V12.408C189.702 13.5813 189.275 14.4133 188.422 14.904C189.403 15.3733 189.894 16.184 189.894 17.336V19.32C189.894 19.5547 189.958 19.7467 190.086 19.896C190.235 20.024 190.427 20.088 190.662 20.088H191.27ZM201.569 23.32C199.99 23.32 198.55 22.9573 197.249 22.232C195.948 21.4853 194.924 20.4827 194.177 19.224C193.43 17.944 193.057 16.536 193.057 15C193.057 13.464 193.43 12.0667 194.177 10.808C194.924 9.528 195.948 8.52533 197.249 7.8C198.55 7.05333 199.99 6.68 201.569 6.68C203.126 6.68 204.545 7.05333 205.825 7.8C207.126 8.52533 208.15 9.528 208.897 10.808C209.644 12.0667 210.017 13.464 210.017 15C210.017 16.536 209.644 17.944 208.897 19.224C208.15 20.4827 207.126 21.4853 205.825 22.232C204.545 22.9573 203.126 23.32 201.569 23.32ZM201.569 20.504C202.55 20.504 203.446 20.2693 204.257 19.8C205.068 19.3093 205.708 18.648 206.177 17.816C206.646 16.9627 206.881 16.024 206.881 15C206.881 13.976 206.646 13.048 206.177 12.216C205.708 11.3627 205.068 10.7013 204.257 10.232C203.446 9.74133 202.55 9.496 201.569 9.496C200.566 9.496 199.649 9.74133 198.817 10.232C198.006 10.7013 197.366 11.3627 196.897 12.216C196.428 13.048 196.193 13.976 196.193 15C196.193 16.024 196.428 16.9627 196.897 17.816C197.366 18.648 198.006 19.3093 198.817 19.8C199.649 20.2693 200.566 20.504 201.569 20.504ZM226.964 7V23H223.924V16.44H215.604V23H212.564V7H215.604V13.56H223.924V7H226.964ZM243.136 9.88H237.536V23H234.496V9.88H228.896V7H243.136V9.88ZM258.818 20.12V23H257.282C256.493 23 255.874 22.808 255.426 22.424C254.978 22.0187 254.711 21.4427 254.626 20.696C253.943 21.4853 253.058 22.1253 251.97 22.616C250.903 23.0853 249.773 23.32 248.578 23.32C246.85 23.32 245.506 22.8933 244.546 22.04C243.607 21.1867 243.138 20.0453 243.138 18.616C243.138 17.3147 243.65 16.2053 244.674 15.288C245.698 14.3493 247.138 13.784 248.994 13.592L250.786 13.4C251.789 13.2933 252.535 13.1653 253.026 13.016C253.517 12.8453 253.826 12.664 253.954 12.472C254.103 12.28 254.178 12.024 254.178 11.704C254.178 10.9787 253.826 10.4133 253.122 10.008C252.439 9.58133 251.49 9.368 250.274 9.368C249.485 9.368 248.727 9.58133 248.002 10.008C247.277 10.4133 246.775 11 246.498 11.768H243.266C243.565 10.2747 244.375 9.05867 245.698 8.12C247.021 7.16 248.599 6.68 250.434 6.68C252.461 6.68 254.125 7.23467 255.426 8.344C256.727 9.45333 257.378 11.0427 257.378 13.112V19.256C257.378 19.5333 257.453 19.7467 257.602 19.896C257.751 20.0453 257.954 20.12 258.21 20.12H258.818ZM248.898 20.696C249.901 20.696 250.839 20.4933 251.714 20.088C252.589 19.6613 253.282 19.1067 253.794 18.424C254.327 17.72 254.594 16.9733 254.594 16.184V14.744C253.869 15.2987 252.717 15.6613 251.138 15.832L249.346 16.024C248.151 16.152 247.319 16.44 246.85 16.888C246.381 17.336 246.146 17.9013 246.146 18.584C246.146 19.224 246.381 19.736 246.85 20.12C247.341 20.504 248.023 20.696 248.898 20.696ZM275.889 20.088V23H274.609C273.606 23 272.838 22.7333 272.305 22.2C271.793 21.6453 271.537 20.8347 271.537 19.768V17.752C271.537 16.7493 271.046 16.248 270.065 16.248H264.401V23H261.361V7H264.401V13.624H269.649C270.225 13.624 270.662 13.4747 270.961 13.176C271.281 12.8773 271.441 12.4293 271.441 11.832V10.072C271.441 8.024 272.401 7 274.321 7H275.697V9.912H275.089C274.854 9.912 274.662 9.98667 274.513 10.136C274.385 10.264 274.321 10.4453 274.321 10.68V12.408C274.321 13.5813 273.894 14.4133 273.041 14.904C274.022 15.3733 274.513 16.184 274.513 17.336V19.32C274.513 19.5547 274.577 19.7467 274.705 19.896C274.854 20.024 275.046 20.088 275.281 20.088H275.889ZM291.276 9.88H285.676V23H282.636V9.88H277.036V7H291.276V9.88ZM301.087 13.336C302.772 13.336 304.084 13.7947 305.023 14.712C305.983 15.608 306.463 16.76 306.463 18.168C306.463 19.576 305.983 20.7387 305.023 21.656C304.084 22.552 302.772 23 301.087 23H293.183V7H296.223V13.336H301.087ZM300.671 20.344C301.546 20.344 302.207 20.1627 302.655 19.8C303.103 19.4373 303.327 18.8933 303.327 18.168C303.327 17.4427 303.103 16.8987 302.655 16.536C302.207 16.1733 301.546 15.992 300.671 15.992H296.223V20.344H300.671ZM312.383 7V23H309.343V7H312.383Z" fill="#FFD600"/>
</svg>
