<svg width="49" height="14" viewBox="0 0 49 14" fill="none" xmlns="http://www.w3.org/2000/svg">
<path d="M8.49 8.6H2.82L1.785 11H0.15L4.86 0.499999H6.54L11.25 11H9.525L8.49 8.6ZM7.905 7.22L5.67 2.045L3.42 7.22H7.905ZM19.6915 9.65V12.65H18.3115V11H12.7015V12.65H11.3215V9.65H12.2515C12.6715 9.09 12.9965 8.35 13.2265 7.43C13.4565 6.5 13.5715 5.47 13.5715 4.34V3.5H18.6415V9.65H19.6915ZM17.2465 9.695V4.775H14.9065C14.8365 6.875 14.4365 8.515 13.7065 9.695H17.2465ZM24.9981 3.35C25.6581 3.35 26.2581 3.52 26.7981 3.86C27.3381 4.19 27.7631 4.65 28.0731 5.24C28.3831 5.83 28.5381 6.5 28.5381 7.25C28.5381 8 28.3831 8.67 28.0731 9.26C27.7631 9.85 27.3381 10.315 26.7981 10.655C26.2581 10.985 25.6581 11.15 24.9981 11.15C24.4981 11.15 24.0281 11.04 23.5881 10.82C23.1481 10.59 22.7731 10.275 22.4631 9.875V13.55H21.0381V3.5H22.3881V4.715C22.7081 4.285 23.0931 3.95 23.5431 3.71C23.9931 3.47 24.4781 3.35 24.9981 3.35ZM24.7581 9.83C25.1981 9.83 25.5931 9.72 25.9431 9.5C26.2931 9.28 26.5681 8.975 26.7681 8.585C26.9681 8.185 27.0681 7.74 27.0681 7.25C27.0681 6.76 26.9681 6.32 26.7681 5.93C26.5681 5.53 26.2931 5.22 25.9431 5C25.5931 4.78 25.1981 4.67 24.7581 4.67C24.3181 4.67 23.9181 4.78 23.5581 5C23.1981 5.22 22.9181 5.53 22.7181 5.93C22.5181 6.32 22.4181 6.76 22.4181 7.25C22.4181 7.74 22.5181 8.185 22.7181 8.585C22.9181 8.975 23.1981 9.28 23.5581 9.5C23.9181 9.72 24.3181 9.83 24.7581 9.83ZM33.2798 3.35C34.0498 3.35 34.7198 3.515 35.2898 3.845C35.8698 4.175 36.3148 4.645 36.6248 5.255C36.9348 5.855 37.0898 6.56 37.0898 7.37C37.0898 7.58 37.0848 7.735 37.0748 7.835H30.9248C31.0248 8.415 31.2948 8.895 31.7348 9.275C32.1848 9.645 32.7048 9.83 33.2948 9.83C34.2648 9.83 34.9548 9.475 35.3648 8.765H36.8348C36.5948 9.465 36.1498 10.04 35.4998 10.49C34.8498 10.93 34.1148 11.15 33.2948 11.15C32.5648 11.15 31.9048 10.985 31.3148 10.655C30.7248 10.315 30.2648 9.85 29.9348 9.26C29.6048 8.66 29.4398 7.99 29.4398 7.25C29.4398 6.51 29.6048 5.845 29.9348 5.255C30.2648 4.655 30.7198 4.19 31.2998 3.86C31.8898 3.52 32.5498 3.35 33.2798 3.35ZM33.2498 4.61C32.6598 4.61 32.1498 4.795 31.7198 5.165C31.2998 5.535 31.0398 6.01 30.9398 6.59H35.5448C35.4848 5.99 35.2398 5.51 34.8098 5.15C34.3898 4.79 33.8698 4.61 33.2498 4.61ZM37.9893 7.25C37.9893 6.53 38.1643 5.875 38.5143 5.285C38.8643 4.685 39.3443 4.215 39.9543 3.875C40.5643 3.525 41.2393 3.35 41.9793 3.35C42.8093 3.35 43.5543 3.595 44.2143 4.085C44.8843 4.565 45.3243 5.195 45.5343 5.975H43.9743C43.8043 5.575 43.5293 5.26 43.1493 5.03C42.7793 4.79 42.3643 4.67 41.9043 4.67C41.4343 4.67 41.0143 4.785 40.6443 5.015C40.2743 5.235 39.9843 5.545 39.7743 5.945C39.5643 6.335 39.4593 6.77 39.4593 7.25C39.4593 7.73 39.5643 8.17 39.7743 8.57C39.9843 8.96 40.2743 9.27 40.6443 9.5C41.0143 9.72 41.4343 9.83 41.9043 9.83C42.3643 9.83 42.7793 9.715 43.1493 9.485C43.5293 9.245 43.8043 8.925 43.9743 8.525H45.5343C45.3243 9.305 44.8843 9.94 44.2143 10.43C43.5543 10.91 42.8093 11.15 41.9793 11.15C41.2393 11.15 40.5643 10.98 39.9543 10.64C39.3443 10.29 38.8643 9.82 38.5143 9.23C38.1643 8.63 37.9893 7.97 37.9893 7.25ZM48.3914 9.35V11H46.7414V9.35H48.3914ZM48.3914 3.5V5.15H46.7414V3.5H48.3914Z" fill="#FFD600"/>
</svg>
