<svg width="348" height="49" viewBox="0 0 348 49" fill="none" xmlns="http://www.w3.org/2000/svg">
<g filter="url(#filter0_d_24_2093)">
<path d="M12.6 30.028C12.4133 30.0467 12.1333 30 11.76 29.888C11.4053 29.7573 11.1627 29.6267 11.032 29.496C10.9013 29.3093 10.78 29.0853 10.668 28.824C10.5747 28.5627 10.5 28.3293 10.444 28.124C10.4067 27.9 10.388 27.7693 10.388 27.732L10.724 25.408C10.8173 25.24 10.864 25.0627 10.864 24.876C10.8827 24.6893 10.9293 24.512 11.004 24.344C10.9853 24.2507 11.0133 24.064 11.088 23.784C11.1813 23.4853 11.284 23.1587 11.396 22.804C11.5267 22.4307 11.648 22.0947 11.76 21.796C11.872 21.4787 11.9373 21.2733 11.956 21.18C12.0307 20.9 12.1333 20.62 12.264 20.34C12.3947 20.06 12.516 19.78 12.628 19.5C12.7773 19.0147 12.8893 18.66 12.964 18.436C13.0387 18.212 13.104 18.0347 13.16 17.904C13.2347 17.7733 13.3187 17.624 13.412 17.456C13.5053 17.2693 13.636 16.9893 13.804 16.616L15.456 12.864C15.2693 12.7707 15.1013 12.5933 14.952 12.332C14.8027 12.052 14.728 11.8 14.728 11.576C14.7093 11.464 14.728 11.3893 14.784 11.352C14.84 11.296 14.9333 11.24 15.064 11.184C15.2693 11.184 15.484 11.1747 15.708 11.156C15.932 11.1373 16.156 11.1467 16.38 11.184C16.548 11.2027 16.66 11.1933 16.716 11.156C16.772 11.1 16.884 11.0907 17.052 11.128C17.22 11.184 17.388 11.2027 17.556 11.184C17.7427 11.1653 17.9013 11.1187 18.032 11.044C18.088 11.044 18.256 11.0347 18.536 11.016C18.816 10.9973 19.124 10.9787 19.46 10.96C19.8147 10.9413 20.1227 10.9227 20.384 10.904C20.664 10.8853 20.832 10.876 20.888 10.876C20.8693 10.876 20.9907 10.8667 21.252 10.848C21.532 10.8293 21.8587 10.8107 22.232 10.792C22.6053 10.7547 22.9413 10.7267 23.24 10.708C23.5387 10.6707 23.7067 10.6427 23.744 10.624C24.136 10.5307 24.4067 10.568 24.556 10.736C24.7053 10.904 24.8173 11.0627 24.892 11.212C24.9293 11.3053 24.976 11.408 25.032 11.52C25.088 11.6133 25.1253 11.6973 25.144 11.772C25.1813 11.828 25.172 11.8653 25.116 11.884C25.0227 12.0147 24.892 12.108 24.724 12.164C24.5747 12.22 24.3973 12.2107 24.192 12.136C24.1173 12.1173 23.8467 12.1173 23.38 12.136C22.9133 12.1547 22.344 12.192 21.672 12.248C21.0187 12.304 20.3467 12.3693 19.656 12.444C18.984 12.5 18.396 12.556 17.892 12.612C17.7053 12.724 17.5467 12.8733 17.416 13.06C17.2853 13.228 17.164 13.4147 17.052 13.62C16.996 13.732 16.8653 13.9933 16.66 14.404C16.4733 14.8147 16.268 15.2627 16.044 15.748C15.82 16.2333 15.6333 16.6533 15.484 17.008C15.3347 17.344 15.26 17.5027 15.26 17.484C15.1107 17.6893 15.148 17.8107 15.372 17.848C15.6147 17.8853 15.82 17.904 15.988 17.904C16.1373 17.904 16.2867 17.9413 16.436 18.016C16.604 18.072 16.7627 18.0907 16.912 18.072C17.0053 18.0533 17.1827 18.0813 17.444 18.156C17.724 18.212 18.0227 18.296 18.34 18.408C18.676 18.5013 18.9747 18.604 19.236 18.716C19.516 18.8093 19.712 18.8933 19.824 18.968C20.2533 19.2293 20.6267 19.4907 20.944 19.752C21.2613 20.0133 21.5133 20.3307 21.7 20.704C21.8867 21.0773 22.0453 21.46 22.176 21.852C22.3067 22.244 22.3533 22.6547 22.316 23.084C22.316 23.1773 22.288 23.3733 22.232 23.672C22.1947 23.952 22.1387 24.2413 22.064 24.54C21.9893 24.8387 21.9053 25.0627 21.812 25.212C21.588 25.5853 21.3453 25.94 21.084 26.276C20.8413 26.5933 20.6173 26.8733 20.412 27.116C20.1133 27.4893 19.7587 27.8067 19.348 28.068C18.956 28.3107 18.5453 28.5347 18.116 28.74C17.78 28.908 17.5187 29.0387 17.332 29.132C17.164 29.2067 17.0053 29.2627 16.856 29.3C16.7067 29.3373 16.5013 29.384 16.24 29.44C16.2587 29.44 16.1653 29.468 15.96 29.524C15.7547 29.5613 15.5493 29.608 15.344 29.664C15.1387 29.72 15.036 29.748 15.036 29.748C14.7933 29.8787 14.5413 29.9627 14.28 30C14.0187 30.0187 13.7573 30.028 13.496 30.028C13.3467 30.028 13.1973 30.0187 13.048 30C12.8987 30 12.7493 30.0093 12.6 30.028ZM12.348 28.544C12.628 28.5253 12.9173 28.516 13.216 28.516C13.5147 28.516 13.8133 28.4787 14.112 28.404C15.0453 28.1427 15.9133 27.8627 16.716 27.564C17.5373 27.2653 18.284 26.7427 18.956 25.996C19.4227 25.4547 19.768 24.9507 19.992 24.484C20.2347 24.0173 20.4213 23.4853 20.552 22.888C20.6267 22.5893 20.6267 22.3187 20.552 22.076C20.4773 21.8147 20.412 21.5067 20.356 21.152C20.188 20.76 20.0293 20.4987 19.88 20.368C19.7307 20.2187 19.5813 20.1253 19.432 20.088C19.2827 20.0507 19.1333 19.9947 18.984 19.92C18.7413 19.7147 18.396 19.5747 17.948 19.5C17.5 19.4253 17.192 19.3787 17.024 19.36C17.136 19.3787 17.108 19.3787 16.94 19.36C16.7907 19.3227 16.5667 19.2853 16.268 19.248C15.9693 19.192 15.6707 19.1453 15.372 19.108C15.0733 19.0707 14.84 19.052 14.672 19.052C14.5413 19.3507 14.4013 19.6773 14.252 20.032C14.1213 20.3867 13.9813 20.7413 13.832 21.096C13.7013 21.432 13.58 21.768 13.468 22.104C13.2813 22.6453 13.104 23.196 12.936 23.756C12.768 24.2973 12.6093 24.848 12.46 25.408C12.3853 25.7253 12.3107 26.108 12.236 26.556C12.1613 27.004 12.124 27.424 12.124 27.816C12.1427 28.1893 12.2173 28.432 12.348 28.544ZM28.5541 29.02C28.1621 29.356 27.7048 29.552 27.1821 29.608C26.6781 29.664 26.1834 29.5893 25.6981 29.384C25.2128 29.16 24.8114 28.824 24.4941 28.376C24.1768 27.9653 23.9714 27.4987 23.8781 26.976C23.7848 26.4347 23.7754 25.7347 23.8501 24.876C23.9061 24.148 24.1394 23.42 24.5501 22.692C24.9608 21.9453 25.4554 21.2827 26.0341 20.704C26.6314 20.1253 27.2194 19.724 27.7981 19.5C28.0781 19.3133 28.3114 19.2293 28.4981 19.248C28.7034 19.248 29.0114 19.2667 29.4221 19.304C29.8514 19.36 30.1688 19.444 30.3741 19.556C30.5981 19.668 30.7754 19.8173 30.9061 20.004C31.1861 20.284 31.3728 20.564 31.4661 20.844C31.5594 21.1053 31.6061 21.3667 31.6061 21.628C31.5314 22.0387 31.2514 22.5427 30.7661 23.14C30.2994 23.7187 29.6834 24.1947 28.9181 24.568C28.5074 24.6987 28.0594 24.7547 27.5741 24.736C27.0888 24.7173 26.6874 24.596 26.3701 24.372C26.0154 24.2227 25.7821 24.2507 25.6701 24.456C25.5581 24.6427 25.4554 25.1093 25.3621 25.856C25.2874 26.5653 25.3434 27.088 25.5301 27.424C25.7168 27.7413 25.9688 27.928 26.2861 27.984C26.6594 28.0587 26.9488 28.1147 27.1541 28.152C27.3781 28.1707 27.6488 28.0867 27.9661 27.9C28.2648 27.7133 28.4514 27.6107 28.5261 27.592C28.6008 27.5547 28.6568 27.5173 28.6941 27.48C28.7501 27.424 28.8714 27.3027 29.0581 27.116C29.1888 26.9853 29.2914 26.892 29.3661 26.836C29.4408 26.7613 29.5248 26.724 29.6181 26.724C29.7114 26.724 29.7954 26.7707 29.8701 26.864C29.9448 26.9387 30.0194 26.9947 30.0941 27.032C30.2808 27.032 30.3181 27.144 30.2061 27.368C30.1128 27.592 29.9168 27.8627 29.6181 28.18C29.3194 28.4787 28.9648 28.7587 28.5541 29.02ZM28.5261 23.084C28.7314 22.9907 28.9461 22.86 29.1701 22.692C29.3941 22.5053 29.5808 22.3093 29.7301 22.104C29.8981 21.88 29.9821 21.6933 29.9821 21.544C29.9821 21.2827 29.8608 21.068 29.6181 20.9C29.3754 20.7133 29.0114 20.6853 28.5261 20.816C28.3208 20.872 28.0874 21.012 27.8261 21.236C27.5648 21.4413 27.3128 21.6747 27.0701 21.936C26.8461 22.1973 26.6594 22.4307 26.5101 22.636C26.3794 22.8413 26.3328 22.9627 26.3701 23C26.4261 23.0933 26.5848 23.168 26.8461 23.224C27.1074 23.2613 27.3968 23.2707 27.7141 23.252C28.0501 23.2333 28.3208 23.1773 28.5261 23.084ZM31.2196 36.272C31.1449 36.272 31.0516 36.272 30.9396 36.272C30.8276 36.2907 30.7249 36.216 30.6316 36.048C30.5569 35.9547 30.5102 35.8147 30.4916 35.628C30.4916 35.4413 30.5382 35.1053 30.6316 34.62C30.7249 34.3027 30.7996 33.9853 30.8556 33.668C30.9116 33.3693 30.9396 33.1453 30.9396 32.996C30.9396 32.9213 30.9582 32.772 30.9956 32.548C31.0516 32.3427 31.0796 32.1933 31.0796 32.1C31.1729 31.9507 31.2476 31.7453 31.3036 31.484C31.3596 31.2227 31.3876 30.9893 31.3876 30.784C31.3876 30.56 31.4996 30.3547 31.7236 30.168C31.7236 30.0187 31.7516 29.832 31.8076 29.608C31.8822 29.384 31.9196 29.2347 31.9196 29.16C31.9756 28.8987 32.0969 28.4413 32.2836 27.788C32.4889 27.116 32.7316 26.36 33.0116 25.52C33.3102 24.68 33.5996 23.8587 33.8796 23.056C34.1596 22.2533 34.4116 21.572 34.6356 21.012C34.8596 20.4893 35.0089 20.0413 35.0836 19.668C35.1769 19.276 35.2236 18.9867 35.2236 18.8C35.2236 18.7253 35.2422 18.6693 35.2796 18.632C35.3169 18.576 35.4009 18.4733 35.5316 18.324C35.7182 18.1373 35.8769 18.0813 36.0076 18.156C36.1569 18.2307 36.3342 18.3427 36.5396 18.492C36.6889 18.7347 36.7916 18.94 36.8476 19.108C36.9222 19.276 36.9222 19.5653 36.8476 19.976C36.8476 20.256 36.8009 20.4987 36.7076 20.704C36.6142 20.9093 36.5302 21.068 36.4556 21.18C36.3809 21.2733 36.3622 21.3107 36.3996 21.292C37.1649 20.9373 37.8369 20.7507 38.4156 20.732C39.0129 20.6947 39.5076 20.7973 39.8996 21.04C40.3102 21.264 40.6182 21.5813 40.8236 21.992C41.0289 22.4027 41.1316 22.8787 41.1316 23.42C41.1316 23.644 41.0849 23.9147 40.9916 24.232C40.8982 24.5307 40.7769 24.8107 40.6276 25.072C40.4969 25.3147 40.3756 25.492 40.2636 25.604C40.1889 25.604 40.1142 25.6693 40.0396 25.8C39.9649 25.912 39.8902 26.0427 39.8156 26.192C39.6662 26.3787 39.4236 26.5933 39.0876 26.836C38.7702 27.06 38.4529 27.2467 38.1356 27.396C37.8182 27.5267 37.5849 27.564 37.4356 27.508C37.4356 27.508 37.4076 27.5173 37.3516 27.536C37.3142 27.536 37.2956 27.5827 37.2956 27.676C37.2956 27.7133 37.1462 27.7973 36.8476 27.928C36.5489 28.04 36.2036 28.152 35.8116 28.264C35.4196 28.3573 35.0742 28.404 34.7756 28.404C34.3836 28.404 34.1036 28.3293 33.9356 28.18C33.8982 28.2173 33.8516 28.2733 33.7956 28.348C33.7582 28.4227 33.7396 28.488 33.7396 28.544C33.7396 28.656 33.6929 28.8707 33.5996 29.188C33.5249 29.4867 33.4316 29.776 33.3196 30.056C33.2076 30.336 33.1049 30.476 33.0116 30.476C33.0116 30.476 32.9929 30.504 32.9556 30.56C32.9182 30.616 32.9369 30.6907 33.0116 30.784C33.0116 30.784 33.0022 30.8867 32.9836 31.092C32.9836 31.316 32.9369 31.5027 32.8436 31.652C32.8436 31.8013 32.8156 32.0253 32.7596 32.324C32.7036 32.6227 32.6382 32.8467 32.5636 32.996C32.5636 33.22 32.5262 33.4347 32.4516 33.64C32.3956 33.864 32.3302 33.976 32.2556 33.976C32.1809 33.9947 32.1342 34.1067 32.1156 34.312C32.0969 34.536 32.0876 34.6947 32.0876 34.788C32.0689 35.2547 31.9756 35.6187 31.8076 35.88C31.6396 36.1413 31.4436 36.272 31.2196 36.272ZM34.6076 26.92C34.7569 26.92 35.0649 26.8547 35.5316 26.724C35.9982 26.5933 36.4742 26.4347 36.9596 26.248C37.4636 26.0427 37.8369 25.8373 38.0796 25.632C38.5649 25.2027 38.9382 24.7173 39.1996 24.176C39.4796 23.616 39.4609 23.084 39.1436 22.58C38.9942 22.3187 38.7236 22.216 38.3316 22.272C37.9396 22.3093 37.5102 22.4587 37.0436 22.72C36.5769 22.9813 36.1382 23.308 35.7276 23.7C35.5036 23.9427 35.2982 24.2413 35.1116 24.596C34.9249 24.9507 34.7662 25.3053 34.6356 25.66C34.5236 26.0147 34.4582 26.3133 34.4396 26.556C34.4209 26.7987 34.4769 26.92 34.6076 26.92ZM45.1616 30.084C44.3403 30.084 43.6683 29.776 43.1456 29.16C42.6229 28.5253 42.3709 27.7413 42.3896 26.808C42.4269 26.136 42.5576 25.4173 42.7816 24.652C43.0243 23.868 43.3416 23.1213 43.7336 22.412C44.1256 21.684 44.5549 21.0493 45.0216 20.508C45.4883 19.9667 45.9736 19.584 46.4776 19.36C46.6643 19.2667 46.8603 19.192 47.0656 19.136C47.2896 19.08 47.5136 19.052 47.7376 19.052C47.9429 19.052 48.1576 19.0893 48.3816 19.164C48.6056 19.22 48.7923 19.2853 48.9416 19.36C49.2589 19.4907 49.5016 19.6493 49.6696 19.836C49.8376 20.0227 49.9869 20.312 50.1176 20.704C50.1736 21.0587 50.2016 21.3107 50.2016 21.46C50.2016 21.6093 50.1549 21.8333 50.0616 22.132C49.8376 22.804 49.5483 23.3827 49.1936 23.868C48.8389 24.3533 48.3629 24.764 47.7656 25.1C47.6163 25.1933 47.4389 25.268 47.2336 25.324C47.0469 25.3613 46.8509 25.38 46.6456 25.38C46.2723 25.38 45.9083 25.3147 45.5536 25.184C45.2176 25.0347 44.9469 24.82 44.7416 24.54L44.5456 24.316L44.4616 24.54C44.2749 25.044 44.1256 25.5107 44.0136 25.94C43.9203 26.3693 43.8736 26.7613 43.8736 27.116C43.8736 27.34 43.8923 27.5547 43.9296 27.76C43.9856 27.9653 44.0603 28.1427 44.1536 28.292C44.2283 28.404 44.3496 28.488 44.5176 28.544C44.7043 28.5813 44.9003 28.6 45.1056 28.6C45.2363 28.6 45.3669 28.6 45.4976 28.6C45.6469 28.5813 45.7869 28.544 45.9176 28.488C46.2349 28.376 46.4869 28.2547 46.6736 28.124C46.8789 27.9933 47.0843 27.8533 47.2896 27.704L47.4016 27.648H47.3736C47.5976 27.536 47.7936 27.424 47.9616 27.312C48.1483 27.2 48.2416 27.144 48.2416 27.144C48.3163 27.144 48.3909 27.0973 48.4656 27.004C48.6149 26.9293 48.8016 26.9573 49.0256 27.088C49.2683 27.2187 49.3896 27.3867 49.3896 27.592C49.3709 27.6853 49.2869 27.8347 49.1376 28.04C48.9883 28.2267 48.8203 28.404 48.6336 28.572C48.4656 28.74 48.3256 28.8333 48.2136 28.852C48.1949 28.8707 48.1296 28.908 48.0176 28.964C47.9056 29.0013 47.8309 29.0387 47.7936 29.076H47.8216C47.6536 29.3 47.4856 29.412 47.3176 29.412H47.0936C47.0189 29.5427 46.7763 29.692 46.3656 29.86C45.9549 30.0093 45.5536 30.084 45.1616 30.084ZM46.4216 23.924C46.7576 23.924 47.0469 23.8307 47.2896 23.644C47.5509 23.4387 47.7749 23.2147 47.9616 22.972C48.3349 22.468 48.5496 21.9827 48.6056 21.516C48.6803 21.0307 48.6243 20.6947 48.4376 20.508C48.3256 20.452 48.2229 20.424 48.1296 20.424C48.0549 20.4053 47.8963 20.4333 47.6536 20.508C47.4856 20.5453 47.2523 20.6853 46.9536 20.928C46.6549 21.1707 46.3563 21.4413 46.0576 21.74C45.7776 22.0387 45.5629 22.2907 45.4136 22.496L45.0496 23.084C45.1989 23.028 45.3389 23 45.4696 23C45.6189 22.9813 45.7029 22.9907 45.7216 23.028C45.7216 23.196 45.7496 23.3547 45.8056 23.504C45.8803 23.6347 45.9643 23.7373 46.0576 23.812C46.1696 23.8867 46.2909 23.924 46.4216 23.924ZM64.3191 29.44C64.1137 29.4773 63.9084 29.4867 63.7031 29.468C63.4977 29.4493 63.3017 29.3747 63.1151 29.244C63.0404 29.0947 62.9471 28.9267 62.8351 28.74C62.7417 28.5347 62.7324 28.3573 62.8071 28.208C62.9004 27.984 62.9471 27.6667 62.9471 27.256C62.9657 26.8453 63.0404 26.5 63.1711 26.22C63.1897 26.1827 63.1991 26.1547 63.1991 26.136C63.2177 26.0987 63.2271 26.0613 63.2271 26.024C63.2457 25.8373 63.2924 25.604 63.3671 25.324C63.4604 25.0253 63.5257 24.792 63.5631 24.624C63.5817 24.5867 63.6097 24.428 63.6471 24.148C63.6844 23.868 63.7217 23.5693 63.7591 23.252C63.7964 22.9347 63.8151 22.7107 63.8151 22.58C63.8151 22.4867 63.8431 22.412 63.8991 22.356C63.9737 22.2813 63.9737 22.188 63.8991 22.076C63.6004 22.356 63.2271 22.7387 62.7791 23.224C62.3497 23.7093 61.9391 24.204 61.5471 24.708C61.1551 25.1933 60.8471 25.6133 60.6231 25.968C60.5857 26.0427 60.5391 26.108 60.4831 26.164C60.4271 26.22 60.3804 26.276 60.3431 26.332C60.2684 26.444 60.1751 26.5467 60.0631 26.64C59.9511 26.7333 59.8671 26.8547 59.8111 27.004C59.4937 27.3213 59.2324 27.62 59.0271 27.9C58.8404 28.18 58.5697 28.4693 58.2151 28.768C57.9724 28.824 57.7484 28.8053 57.5431 28.712C57.3564 28.6187 57.1604 28.5347 56.9551 28.46C56.9177 28.3667 56.8711 28.2733 56.8151 28.18C56.7591 28.068 56.7124 27.9653 56.6751 27.872C56.7311 27.4427 56.8151 26.92 56.9271 26.304C57.0391 25.6693 57.1324 25.044 57.2071 24.428C57.3004 23.812 57.3284 23.336 57.2911 23C57.2724 22.9067 57.2631 22.832 57.2631 22.776C57.2631 22.72 57.2911 22.6547 57.3471 22.58C57.3471 22.5427 57.3471 22.5053 57.3471 22.468C57.3657 22.4307 57.3751 22.4027 57.3751 22.384C57.2817 22.2907 57.2631 22.1973 57.3191 22.104C57.3751 22.0107 57.3751 21.9173 57.3191 21.824C57.3004 21.8053 57.2724 21.7867 57.2351 21.768C57.2164 21.7493 57.1884 21.7307 57.1511 21.712C56.7404 22.3467 56.2924 22.944 55.8071 23.504C55.3404 24.0453 54.8831 24.6147 54.4351 25.212C54.1364 25.604 53.8471 26.0613 53.5671 26.584C53.3057 27.1067 52.9884 27.536 52.6151 27.872C52.4844 28.0027 52.3537 28.152 52.2231 28.32C52.1111 28.4693 51.9711 28.6 51.8031 28.712C51.7657 28.8427 51.6911 28.9453 51.5791 29.02C51.4857 29.076 51.3644 29.104 51.2151 29.104C50.9351 29.104 50.6551 29.0107 50.3751 28.824C50.0951 28.6373 49.9457 28.4227 49.9271 28.18C49.9271 28.0493 49.9831 27.9187 50.0951 27.788C50.1137 27.7507 50.1231 27.7133 50.1231 27.676C50.1417 27.6387 50.1604 27.6107 50.1791 27.592C50.5337 27.4427 50.8884 27.172 51.2431 26.78C51.6164 26.388 51.9711 25.968 52.3071 25.52C52.6431 25.0533 52.9511 24.6707 53.2311 24.372C53.4924 24.1107 53.6977 23.84 53.8471 23.56C53.9964 23.2613 54.1831 22.972 54.4071 22.692C54.6871 22.3373 54.9671 21.9547 55.2471 21.544C55.5457 21.1333 55.8351 20.732 56.1151 20.34C56.4137 19.948 56.7124 19.6027 57.0111 19.304C57.1417 19.3787 57.2724 19.444 57.4031 19.5C57.5524 19.556 57.7111 19.584 57.8791 19.584C57.9724 19.696 58.0564 19.808 58.1311 19.92C58.2244 20.0133 58.3271 20.1067 58.4391 20.2C58.7004 20.424 58.8777 20.7227 58.9711 21.096C59.0644 21.4693 59.1111 21.8707 59.1111 22.3C59.1111 22.916 59.0457 23.5413 58.9151 24.176C58.8031 24.792 58.7191 25.3147 58.6631 25.744C58.6631 25.7627 58.6631 25.7813 58.6631 25.8C58.6817 25.8 58.6911 25.8093 58.6911 25.828C59.1017 25.4733 59.4657 25.0627 59.7831 24.596C60.1004 24.1293 60.4364 23.6907 60.7911 23.28C61.4444 22.5147 61.9297 21.9547 62.2471 21.6C62.5831 21.2453 62.8351 20.9933 63.0031 20.844C63.1711 20.6947 63.3391 20.5453 63.5071 20.396C63.6377 20.3027 63.7871 20.1813 63.9551 20.032C64.1417 19.864 64.3844 19.6307 64.6831 19.332C64.8324 19.332 64.9724 19.332 65.1031 19.332C65.2524 19.332 65.3924 19.332 65.5231 19.332C65.6724 19.4253 65.7844 19.5 65.8591 19.556C65.9337 19.5933 66.0551 19.6307 66.2231 19.668C66.2417 19.7613 66.2791 19.9013 66.3351 20.088C66.3911 20.2747 66.4004 20.4147 66.3631 20.508C66.3257 20.6387 66.3071 20.7693 66.3071 20.9C66.3071 21.0307 66.2604 21.1613 66.1671 21.292C66.0177 21.516 65.8777 21.8893 65.7471 22.412C65.6351 22.916 65.5324 23.42 65.4391 23.924C65.3644 24.4093 65.3177 24.7547 65.2991 24.96C65.2244 25.3147 65.1497 25.5573 65.0751 25.688C65.0004 25.8 64.9444 25.9213 64.9071 26.052C64.8697 26.1827 64.8604 26.332 64.8791 26.5C64.8977 26.6493 64.8791 26.7893 64.8231 26.92C64.8044 26.9387 64.7857 26.9573 64.7671 26.976C64.7671 26.976 64.7577 26.9853 64.7391 27.004C64.7391 27.1907 64.7391 27.3867 64.7391 27.592C64.7577 27.7787 64.7204 27.9467 64.6271 28.096C64.6644 28.2267 64.6737 28.3667 64.6551 28.516C64.6364 28.6653 64.6551 28.8147 64.7111 28.964C64.6364 29.0387 64.5711 29.1133 64.5151 29.188C64.4591 29.2627 64.3937 29.3467 64.3191 29.44ZM71.0679 29.272C70.8253 29.384 70.5453 29.4307 70.2279 29.412C69.9106 29.3933 69.4813 29.2907 68.9399 29.104C68.9026 29.104 68.8186 29.0667 68.6879 28.992C68.5759 28.9173 68.4546 28.824 68.3239 28.712C68.2119 28.5813 68.1186 28.4413 68.0439 28.292C67.7453 27.8627 67.6239 27.228 67.6799 26.388C67.7359 25.548 67.9973 24.54 68.4639 23.364C68.5946 23.084 68.7906 22.7293 69.0519 22.3C69.3319 21.8707 69.6026 21.4787 69.8639 21.124C70.1439 20.7507 70.3399 20.536 70.4519 20.48C70.4519 20.48 70.5546 20.4427 70.7599 20.368C70.9653 20.2933 71.2266 20.172 71.5439 20.004C71.6373 19.9667 71.7399 19.9293 71.8519 19.892C71.9826 19.8547 72.1133 19.8267 72.2439 19.808C72.3746 19.7893 72.4866 19.7893 72.5799 19.808C72.9533 19.8267 73.3359 19.9667 73.7279 20.228C74.1386 20.4707 74.4746 20.76 74.7359 21.096C74.9973 21.4133 75.0813 21.6933 74.9879 21.936C74.9879 21.9733 74.9319 22.048 74.8199 22.16C74.7266 22.2533 74.6146 22.356 74.4839 22.468C74.3719 22.5613 74.2786 22.6547 74.2039 22.748C74.1106 22.86 73.9799 22.9067 73.8119 22.888C73.6626 22.8693 73.5226 22.7947 73.3919 22.664C73.2799 22.5147 73.2146 22.328 73.1959 22.104C73.1586 21.9547 73.0186 21.8147 72.7759 21.684C72.5519 21.5533 72.4399 21.488 72.4399 21.488C72.2906 21.488 72.0759 21.628 71.7959 21.908C71.5346 22.1693 71.2733 22.4867 71.0119 22.86C70.6759 23.196 70.3866 23.5973 70.1439 24.064C69.9013 24.512 69.7053 24.9413 69.5559 25.352C69.4253 25.744 69.3319 26.024 69.2759 26.192C69.2013 26.3787 69.1919 26.64 69.2479 26.976C69.3039 27.312 69.3693 27.5173 69.4439 27.592C69.5186 27.6293 69.7053 27.6387 70.0039 27.62C70.3213 27.6013 70.6946 27.564 71.1239 27.508C71.5533 27.4333 71.9733 27.3493 72.3839 27.256C72.7946 27.1627 73.1306 27.06 73.3919 26.948C73.7466 26.724 74.0546 26.5933 74.3159 26.556C74.5773 26.5187 74.7733 26.5187 74.9039 26.556C75.1093 26.6307 75.2306 26.7333 75.2679 26.864C75.3053 26.9947 75.2586 27.144 75.1279 27.312C74.9973 27.4613 74.7733 27.62 74.4559 27.788C74.1573 27.9373 73.8866 28.1053 73.6439 28.292C73.4199 28.46 73.3079 28.5907 73.3079 28.684C73.2333 28.684 73.1493 28.712 73.0559 28.768C72.9813 28.8053 72.9159 28.8147 72.8599 28.796C72.8226 28.796 72.6733 28.824 72.4119 28.88C72.1506 28.936 71.8799 29.0013 71.5999 29.076C71.3386 29.1507 71.1613 29.216 71.0679 29.272ZM84.6213 19.612C84.8639 19.7427 85.0226 19.8733 85.0973 20.004C85.1719 20.116 85.3213 20.3307 85.5453 20.648C85.5079 20.816 85.4519 21.068 85.3773 21.404C85.3213 21.7213 85.2559 22.0293 85.1813 22.328C85.1066 22.6267 85.0319 22.8507 84.9573 23C84.9946 23.2613 84.9293 23.644 84.7613 24.148C84.6119 24.6333 84.4533 25.1467 84.2853 25.688C84.1173 26.2107 83.9773 26.724 83.8653 27.228C83.7533 27.732 83.7346 28.1707 83.8093 28.544C83.7533 28.5813 83.6973 28.628 83.6413 28.684C83.6039 28.74 83.5479 28.7867 83.4733 28.824C83.2493 28.936 83.0253 28.9453 82.8013 28.852C82.5773 28.7587 82.3999 28.6 82.2693 28.376C82.1386 28.1333 82.1013 27.8813 82.1573 27.62C82.2133 27.3773 82.3066 27.0133 82.4373 26.528C82.5679 26.024 82.7079 25.4733 82.8573 24.876C83.0066 24.2787 83.1466 23.7 83.2773 23.14C83.4079 22.5613 83.5199 22.0667 83.6133 21.656C83.7066 21.2453 83.7533 20.9747 83.7533 20.844C83.7533 20.676 83.6226 20.5827 83.3613 20.564C83.1186 20.5267 82.8479 20.536 82.5493 20.592C82.2693 20.6293 82.0826 20.6667 81.9893 20.704C81.5973 20.872 81.2706 21.1053 81.0093 21.404C80.7479 21.7027 80.5333 22.0387 80.3653 22.412C80.1973 22.7853 80.0386 23.168 79.8893 23.56C79.9079 23.672 79.9173 23.7747 79.9173 23.868C79.9173 23.9427 79.9546 24.0267 80.0293 24.12C80.1226 24.2507 80.2626 24.344 80.4493 24.4C80.6359 24.456 80.8319 24.5027 81.0373 24.54C81.2426 24.5773 81.4199 24.6333 81.5693 24.708C81.6253 24.7267 81.6719 24.736 81.7093 24.736C81.7466 24.7173 81.7839 24.708 81.8213 24.708C81.8773 24.708 81.9239 24.7453 81.9613 24.82C82.0919 25.044 82.1853 25.2307 82.2413 25.38C82.2973 25.5293 82.2319 25.7347 82.0453 25.996C81.5786 26.3133 81.1213 26.6213 80.6733 26.92C80.2253 27.2187 79.7866 27.5547 79.3573 27.928C79.2266 28.0587 79.0679 28.1613 78.8813 28.236C78.7133 28.292 78.5639 28.3947 78.4333 28.544C78.3213 28.6747 78.1906 28.796 78.0413 28.908C77.9106 29.0013 77.7799 29.1133 77.6493 29.244C77.5746 29.3187 77.4999 29.384 77.4253 29.44C77.3506 29.4773 77.2666 29.4587 77.1733 29.384C76.8933 29.3653 76.6879 29.244 76.5573 29.02C76.4266 28.796 76.3239 28.5253 76.2493 28.208C76.4546 27.9467 76.7719 27.6573 77.2013 27.34C77.6306 27.004 78.1066 26.668 78.6293 26.332C79.1706 25.9773 79.6746 25.6693 80.1413 25.408C79.6559 25.3707 79.2826 25.268 79.0213 25.1C78.7599 24.9133 78.5266 24.7267 78.3213 24.54C78.0973 24.2413 77.9946 23.896 78.0133 23.504C78.0506 23.112 78.1533 22.7293 78.3213 22.356C78.4893 21.964 78.6573 21.6373 78.8253 21.376C78.8626 21.3387 78.8813 21.3013 78.8813 21.264C78.8999 21.2267 78.9186 21.1987 78.9373 21.18C79.1799 20.7507 79.3853 20.4427 79.5533 20.256C79.7399 20.0693 80.0386 19.8453 80.4493 19.584C80.5986 19.4907 80.7573 19.4253 80.9253 19.388C81.0933 19.332 81.2613 19.2947 81.4293 19.276C81.6159 19.2387 81.8679 19.22 82.1853 19.22C82.5026 19.22 82.8199 19.2387 83.1373 19.276C83.4546 19.2947 83.6973 19.3413 83.8653 19.416C83.9959 19.4533 84.1173 19.5 84.2293 19.556C84.3599 19.612 84.4906 19.6307 84.6213 19.612ZM89.8562 38.372C89.4455 38.372 89.0535 38.2973 88.6802 38.148C88.2882 37.9987 87.9242 37.756 87.5882 37.42C87.4202 37.0093 87.2988 36.7387 87.2242 36.608C87.1308 36.496 86.9628 36.328 86.7202 36.104C86.7202 36.0107 86.7575 35.8333 86.8322 35.572C86.9068 35.3293 87.0188 35.1147 87.1682 34.928C87.5602 34.4613 88.0362 34.0413 88.5962 33.668C89.1562 33.3133 89.8095 33.0053 90.5562 32.744C90.6495 32.7067 90.7428 32.66 90.8362 32.604C90.9482 32.5667 91.0508 32.548 91.1442 32.548C91.2375 32.548 91.2935 32.492 91.3122 32.38C91.3495 32.268 91.4335 32.2587 91.5642 32.352C91.6575 32.3147 91.7322 32.268 91.7882 32.212C91.8442 32.156 91.9375 32.1467 92.0682 32.184C92.0682 32.184 92.1708 32.156 92.3762 32.1C92.6002 32.044 92.8522 31.9693 93.1322 31.876C93.4122 31.8013 93.6548 31.7267 93.8602 31.652C94.0842 31.596 94.1962 31.568 94.1962 31.568C94.2335 31.064 94.2428 30.5413 94.2242 30C94.2242 29.4587 94.0748 29.0573 93.7762 28.796C93.5895 28.5907 93.4402 28.3573 93.3282 28.096C93.2348 27.8347 93.1135 27.5547 92.9642 27.256C93.0015 27.088 93.0668 26.948 93.1602 26.836C93.2535 26.724 93.3842 26.6307 93.5522 26.556C93.9068 26.388 94.3362 26.1267 94.8402 25.772C95.3628 25.3987 95.8948 24.96 96.4362 24.456C96.9775 23.952 97.4535 23.4107 97.8642 22.832C98.1255 22.4587 98.2188 22.104 98.1442 21.768C98.0882 21.432 97.7615 21.2267 97.1642 21.152C96.7908 21.152 96.3708 21.2827 95.9042 21.544C95.4375 21.7867 94.9522 22.1227 94.4482 22.552C94.1495 22.664 93.9348 22.636 93.8042 22.468C93.6735 22.2813 93.5708 22.076 93.4962 21.852C93.5335 21.6467 93.6082 21.4693 93.7202 21.32C93.8322 21.152 93.9535 20.9933 94.0842 20.844C94.2335 20.6947 94.3642 20.536 94.4762 20.368C94.6255 20.2933 94.7562 20.2187 94.8682 20.144C94.9802 20.0507 95.1015 19.9667 95.2322 19.892C95.3442 19.8173 95.4562 19.7613 95.5682 19.724C95.6988 19.668 95.8295 19.64 95.9602 19.64C96.0722 19.64 96.1842 19.6213 96.2962 19.584C96.4082 19.528 96.5295 19.5 96.6602 19.5C97.5375 19.5373 98.2282 19.8733 98.7322 20.508C99.2362 21.1427 99.4602 21.768 99.4042 22.384C99.3668 23 99.0495 23.8027 98.4522 24.792C98.2842 25.072 98.0042 25.3707 97.6122 25.688C97.2388 26.0053 96.8375 26.3133 96.4082 26.612C95.9975 26.9107 95.6335 27.172 95.3162 27.396C94.9988 27.6013 94.8122 27.732 94.7562 27.788C94.9242 27.9933 95.1015 28.3387 95.2882 28.824C95.4748 29.2907 95.6242 29.7667 95.7362 30.252C95.8668 30.756 95.8855 31.148 95.7922 31.428C95.9788 31.4653 96.2122 31.4467 96.4922 31.372C96.7908 31.316 97.0242 31.288 97.1922 31.288C97.3602 31.456 97.5282 31.6147 97.6962 31.764C97.8642 31.9133 97.9482 32.072 97.9482 32.24C97.9855 32.352 97.9575 32.4547 97.8642 32.548C97.7895 32.6413 97.7055 32.6973 97.6122 32.716C97.3695 32.7533 97.0615 32.7627 96.6882 32.744C96.3148 32.7253 95.9508 32.7907 95.5962 32.94C95.3348 33.332 95.1108 33.7613 94.9242 34.228C94.7375 34.7133 94.4948 35.208 94.1962 35.712C93.8975 36.2347 93.4308 36.7667 92.7962 37.308C92.5722 37.4947 92.3388 37.6627 92.0962 37.812C91.8535 37.98 91.6575 38.064 91.5082 38.064C91.2095 38.1573 90.9202 38.232 90.6402 38.288C90.3788 38.344 90.1175 38.372 89.8562 38.372ZM88.6522 36.944C88.6522 36.9813 88.7922 36.9907 89.0722 36.972C89.3335 36.972 89.6508 36.9253 90.0242 36.832C90.4162 36.7573 90.7615 36.636 91.0602 36.468C91.4335 36.244 91.7508 35.9733 92.0122 35.656C92.2735 35.3573 92.5255 35.0307 92.7682 34.676C92.8615 34.5267 92.9548 34.3587 93.0482 34.172C93.1415 34.004 93.2162 33.8267 93.2722 33.64C93.1415 33.4907 92.9268 33.5 92.6282 33.668C92.3295 33.836 91.9748 33.9947 91.5642 34.144C91.1348 34.2933 90.6122 34.5173 89.9962 34.816C89.3988 35.1333 88.9415 35.4787 88.6242 35.852C88.5308 35.9827 88.4282 36.104 88.3162 36.216C88.2042 36.328 88.0828 36.4307 87.9522 36.524C88.0455 36.6547 88.1482 36.7573 88.2602 36.832C88.3722 36.9067 88.5028 36.944 88.6522 36.944ZM100.032 28.992C99.9577 28.8427 99.8644 28.7307 99.7524 28.656C99.6404 28.5627 99.5844 28.4787 99.5844 28.404C99.5844 28.3293 99.5751 28.2547 99.5564 28.18C99.5564 28.0867 99.5191 28.0027 99.4444 27.928C99.3511 27.816 99.3604 27.564 99.4724 27.172C99.5844 26.7613 99.7711 26.2667 100.032 25.688C100.294 25.0907 100.602 24.4653 100.956 23.812C101.106 23.6627 101.255 23.4667 101.404 23.224C101.554 22.9813 101.666 22.8227 101.74 22.748C101.74 22.6733 101.768 22.608 101.824 22.552C101.88 22.4773 101.946 22.44 102.02 22.44V22.272C102.02 22.1787 102.104 22.02 102.272 21.796C102.459 21.572 102.683 21.3293 102.944 21.068C103.206 20.788 103.476 20.5267 103.756 20.284C104.036 20.0227 104.27 19.836 104.456 19.724C104.848 19.4627 105.25 19.304 105.66 19.248C106.09 19.192 106.454 19.2853 106.752 19.528C106.808 19.584 106.902 19.6773 107.032 19.808C107.163 19.9387 107.312 20.088 107.48 20.256C107.667 20.4053 107.854 20.564 108.04 20.732L109.076 21.656L108.572 23.056C108.33 23.8027 108.264 24.456 108.376 25.016C108.507 25.576 108.694 26.0613 108.936 26.472C109.03 26.6773 109.216 26.8733 109.496 27.06C109.795 27.2467 110.075 27.3587 110.336 27.396C110.486 27.4147 110.626 27.4707 110.756 27.564C110.887 27.6573 110.952 27.8067 110.952 28.012C110.952 28.1987 110.915 28.348 110.84 28.46C110.766 28.572 110.635 28.6467 110.448 28.684C109.832 28.7587 109.254 28.6093 108.712 28.236C108.19 27.8627 107.704 27.2467 107.256 26.388C107.182 26.276 107.079 26.0707 106.948 25.772C106.836 25.4547 106.771 25.2493 106.752 25.156C106.678 25.2493 106.538 25.4267 106.332 25.688C106.127 25.9307 105.968 26.108 105.856 26.22C104.531 27.564 103.383 28.4693 102.412 28.936C101.46 29.384 100.667 29.4027 100.032 28.992ZM101.04 27.424C101.04 27.5547 101.236 27.5547 101.628 27.424C102.039 27.2747 102.478 27.0133 102.944 26.64C103.579 26.0987 104.214 25.5013 104.848 24.848C105.502 24.1947 106.024 23.588 106.416 23.028L107.032 22.02C106.846 21.5907 106.64 21.3013 106.416 21.152C106.211 20.984 106.034 20.9 105.884 20.9C105.642 20.9 105.278 21.124 104.792 21.572C104.326 22.02 103.822 22.6173 103.28 23.364C102.739 24.1107 102.226 24.932 101.74 25.828C101.554 26.2013 101.386 26.5653 101.236 26.92C101.106 27.256 101.04 27.424 101.04 27.424ZM117.44 37.252C117.291 37.1587 117.123 37.112 116.936 37.112C116.75 37.112 116.582 37.0747 116.432 37C116.171 36.8693 115.872 36.6827 115.536 36.44C115.219 36.1973 115.014 35.936 114.92 35.656C114.902 35.6187 114.892 35.572 114.892 35.516C114.892 35.4787 114.883 35.4507 114.864 35.432C114.846 35.376 114.808 35.32 114.752 35.264C114.696 35.2267 114.659 35.18 114.64 35.124C114.603 35.012 114.584 34.8907 114.584 34.76C114.566 34.648 114.556 34.536 114.556 34.424C114.538 34.312 114.5 34.2 114.444 34.088C114.519 33.9573 114.584 33.8267 114.64 33.696C114.678 33.5653 114.734 33.4347 114.808 33.304C114.902 33.2853 114.995 33.2667 115.088 33.248C115.163 33.248 115.238 33.2387 115.312 33.22C115.536 33.2013 115.667 33.3507 115.704 33.668C115.76 33.9853 115.835 34.3307 115.928 34.704C116.003 34.984 116.124 35.236 116.292 35.46C116.479 35.684 116.778 35.8053 117.188 35.824C117.655 35.8427 118.056 35.6933 118.392 35.376C118.747 35.0773 119.046 34.6947 119.288 34.228C119.531 33.7613 119.718 33.304 119.848 32.856C119.886 32.7813 119.914 32.7067 119.932 32.632C119.951 32.5573 119.97 32.4827 119.988 32.408C120.026 32.352 120.054 32.2867 120.072 32.212C120.072 32.044 120.11 31.848 120.184 31.624C120.278 31.4187 120.334 31.2227 120.352 31.036C120.39 30.7 120.446 30.3453 120.52 29.972C120.595 29.5987 120.567 29.244 120.436 28.908C120.436 28.908 120.427 28.8333 120.408 28.684C120.39 28.5347 120.371 28.376 120.352 28.208C120.334 28.04 120.324 27.9467 120.324 27.928C120.194 27.76 120.082 27.5827 119.988 27.396C119.914 27.1907 119.802 27.004 119.652 26.836C119.652 26.7053 119.643 26.584 119.624 26.472C119.624 26.36 119.624 26.2387 119.624 26.108C119.68 26.0707 119.727 26.024 119.764 25.968C119.802 25.912 119.858 25.8747 119.932 25.856C120.492 25.6507 121.024 25.38 121.528 25.044C122.032 24.6893 122.471 24.2787 122.844 23.812C123.218 23.3453 123.488 22.8227 123.656 22.244C123.712 22.0387 123.75 21.8333 123.768 21.628C123.787 21.4227 123.768 21.2173 123.712 21.012C123.563 20.9 123.404 20.872 123.236 20.928C122.527 21.1333 121.995 21.404 121.64 21.74C121.304 22.076 121.015 22.4493 120.772 22.86C120.53 23.252 120.203 23.6533 119.792 24.064C119.662 23.9333 119.531 23.8773 119.4 23.896C119.288 23.896 119.167 23.8493 119.036 23.756C118.98 23.7 118.915 23.6253 118.84 23.532C118.784 23.42 118.71 23.2707 118.616 23.084C118.784 22.8973 118.896 22.692 118.952 22.468C119.027 22.2253 119.13 22.02 119.26 21.852C119.559 21.4973 119.83 21.1707 120.072 20.872C120.315 20.5733 120.642 20.2933 121.052 20.032C121.482 19.752 121.93 19.5467 122.396 19.416C122.882 19.2853 123.358 19.2667 123.824 19.36C124.291 19.4533 124.692 19.724 125.028 20.172C125.364 20.5827 125.532 21.0587 125.532 21.6C125.551 22.1227 125.458 22.6547 125.252 23.196C125.047 23.7373 124.767 24.2413 124.412 24.708C124.039 25.1933 123.619 25.5853 123.152 25.884C122.704 26.1827 122.238 26.5187 121.752 26.892C121.883 27.396 122.014 27.9093 122.144 28.432C122.275 28.936 122.322 29.4587 122.284 30C122.228 30.6533 122.144 31.288 122.032 31.904C121.939 32.52 121.79 33.0987 121.584 33.64C121.379 34.2 121.108 34.7227 120.772 35.208C120.436 35.6933 119.998 36.1413 119.456 36.552C119.158 36.7947 118.822 36.9627 118.448 37.056C118.094 37.1493 117.758 37.2147 117.44 37.252ZM128.601 29.188C128.452 29.2253 128.256 29.244 128.013 29.244C127.77 29.2253 127.556 29.1973 127.369 29.16C127.201 29.104 127.117 29.048 127.117 28.992C127.117 28.8987 127.07 28.852 126.977 28.852C126.977 28.852 126.93 28.8147 126.837 28.74C126.762 28.6653 126.641 28.5907 126.473 28.516C126.305 28.2547 126.221 27.9747 126.221 27.676C126.221 27.3587 126.305 26.864 126.473 26.192C126.529 25.7253 126.706 25.184 127.005 24.568C127.322 23.9333 127.705 23.2893 128.153 22.636C128.601 21.9827 129.068 21.3947 129.553 20.872C130.057 20.3493 130.514 19.9667 130.925 19.724C131.186 19.4627 131.504 19.3227 131.877 19.304C132.25 19.2853 132.605 19.3693 132.941 19.556C133.128 19.6493 133.314 19.7987 133.501 20.004C133.688 20.2093 133.865 20.4333 134.033 20.676C134.201 20.9187 134.341 21.1613 134.453 21.404C134.509 21.6093 134.537 21.796 134.537 21.964C134.556 22.1133 134.556 22.3 134.537 22.524C134.537 22.748 134.509 23.084 134.453 23.532C134.36 23.868 134.276 24.2787 134.201 24.764C134.145 25.2493 134.117 25.6693 134.117 26.024C134.08 26.3787 134.117 26.6307 134.229 26.78C134.36 26.9293 134.546 26.9387 134.789 26.808C135.013 26.696 135.228 26.6493 135.433 26.668C135.638 26.668 135.797 26.724 135.909 26.836C136.04 26.948 136.105 27.116 136.105 27.34C136.105 27.564 135.993 27.7973 135.769 28.04C135.564 28.264 135.302 28.46 134.985 28.628C134.686 28.7773 134.397 28.852 134.117 28.852C133.912 28.852 133.716 28.7307 133.529 28.488C133.342 28.2267 133.174 27.9187 133.025 27.564C132.894 27.1907 132.773 26.836 132.661 26.5L132.493 25.856L131.289 27.004C131.046 27.2653 130.804 27.508 130.561 27.732C130.337 27.9373 130.197 28.0867 130.141 28.18C130.048 28.348 129.87 28.516 129.609 28.684C129.366 28.852 129.03 29.02 128.601 29.188ZM128.685 27.536C129.002 27.3493 129.366 27.0787 129.777 26.724C130.188 26.3507 130.589 25.9493 130.981 25.52C131.373 25.072 131.7 24.6613 131.961 24.288C132.278 23.8587 132.521 23.4573 132.689 23.084C132.857 22.7107 132.978 22.356 133.053 22.02C132.978 21.8147 132.857 21.6 132.689 21.376C132.521 21.1333 132.372 21.0027 132.241 20.984C131.83 20.984 131.392 21.2453 130.925 21.768C130.477 22.272 130.038 22.8227 129.609 23.42C129.534 23.5133 129.432 23.6627 129.301 23.868C129.17 24.0733 129.04 24.2693 128.909 24.456C128.797 24.624 128.722 24.736 128.685 24.792C128.629 24.8667 128.517 25.0813 128.349 25.436C128.2 25.772 128.05 26.1173 127.901 26.472C127.752 26.808 127.677 27.032 127.677 27.144C127.677 27.256 127.686 27.3773 127.705 27.508C127.742 27.6387 127.836 27.7227 127.985 27.76C128.134 27.7973 128.368 27.7227 128.685 27.536ZM137.235 29.384C137.049 29.2533 136.909 29.132 136.815 29.02C136.722 28.908 136.685 28.7493 136.703 28.544C136.741 28.264 136.797 27.9747 136.871 27.676C136.946 27.3587 137.039 27.0507 137.151 26.752C137.207 26.416 137.273 26.08 137.347 25.744C137.441 25.408 137.59 25.0907 137.795 24.792C138.113 23.896 138.402 23.028 138.663 22.188C138.943 21.3293 139.317 20.3213 139.783 19.164C139.877 18.9587 139.961 18.8093 140.035 18.716C140.129 18.604 140.213 18.492 140.287 18.38C140.306 18.3053 140.362 18.268 140.455 18.268C140.567 18.2493 140.689 18.268 140.819 18.324C140.95 18.3613 141.053 18.4267 141.127 18.52C141.202 18.5013 141.305 18.6227 141.435 18.884C141.585 19.1453 141.641 19.3507 141.603 19.5C141.603 19.5747 141.585 19.6773 141.547 19.808C141.51 19.9387 141.454 20.06 141.379 20.172C141.305 20.2467 141.23 20.3587 141.155 20.508C141.081 20.6387 140.969 20.816 140.819 21.04C140.633 21.5627 140.474 22.0013 140.343 22.356C140.213 22.7107 140.054 23.112 139.867 23.56C139.737 23.7467 139.634 23.9987 139.559 24.316C139.485 24.6333 139.41 24.9413 139.335 25.24C139.205 25.576 139.083 25.884 138.971 26.164C138.878 26.444 138.831 26.6213 138.831 26.696C138.701 27.1067 138.598 27.5173 138.523 27.928C138.449 28.32 138.327 28.6653 138.159 28.964C138.141 29.244 138.057 29.4307 137.907 29.524C137.777 29.6173 137.553 29.5707 137.235 29.384ZM143.927 29.832C143.629 29.7947 143.405 29.7387 143.255 29.664C143.106 29.5707 142.826 29.3747 142.415 29.076C142.191 28.852 141.883 28.5067 141.491 28.04C141.099 27.5733 140.707 27.0787 140.315 26.556C139.923 26.0147 139.597 25.5573 139.335 25.184L140.483 23.644C140.726 23.9427 140.922 24.2227 141.071 24.484C141.221 24.7453 141.342 24.9227 141.435 25.016C141.865 25.6507 142.201 26.164 142.443 26.556C142.705 26.948 142.938 27.2653 143.143 27.508C143.349 27.7507 143.563 27.9653 143.787 28.152C144.03 28.3387 144.329 28.5347 144.683 28.74C144.739 28.7773 144.795 28.8333 144.851 28.908C144.907 28.9827 144.926 29.0947 144.907 29.244C144.833 29.4493 144.749 29.58 144.655 29.636C144.581 29.6733 144.338 29.7387 143.927 29.832ZM139.251 24.876C139.139 24.5587 139.177 24.2413 139.363 23.924C139.569 23.588 139.793 23.3547 140.035 23.224C140.11 23.0933 140.185 23.0093 140.259 22.972C140.353 22.916 140.409 22.8507 140.427 22.776C140.465 22.7013 140.558 22.5987 140.707 22.468C140.875 22.3373 141.025 22.216 141.155 22.104C141.454 21.9173 141.79 21.6933 142.163 21.432C142.555 21.152 142.929 20.872 143.283 20.592C143.638 20.312 143.937 20.0693 144.179 19.864C144.441 19.6587 144.599 19.528 144.655 19.472C144.711 19.3973 144.786 19.3507 144.879 19.332C144.991 19.2947 145.131 19.3133 145.299 19.388C145.523 19.444 145.673 19.5373 145.747 19.668C145.822 19.78 145.859 20.004 145.859 20.34C145.915 20.5453 145.831 20.7693 145.607 21.012C145.402 21.236 145.085 21.488 144.655 21.768C144.506 21.8613 144.301 22.0013 144.039 22.188C143.797 22.3747 143.582 22.552 143.395 22.72C143.265 22.7947 143.069 22.9253 142.807 23.112C142.565 23.28 142.35 23.448 142.163 23.616C142.014 23.7093 141.818 23.8773 141.575 24.12C141.333 24.344 141.09 24.512 140.847 24.624C140.25 25.184 139.858 25.4827 139.671 25.52C139.485 25.5573 139.345 25.3427 139.251 24.876ZM148.582 29.076C148.358 29.1133 148.115 29.076 147.854 28.964C147.592 28.852 147.359 28.6933 147.154 28.488C146.967 28.2827 146.846 28.068 146.79 27.844C146.715 27.452 146.762 26.9667 146.93 26.388C147.116 25.7907 147.378 25.1653 147.714 24.512C148.068 23.84 148.46 23.196 148.89 22.58C149.338 21.964 149.795 21.432 150.262 20.984C150.747 20.5173 151.195 20.2 151.606 20.032C151.811 19.9013 151.97 19.8173 152.082 19.78C152.212 19.724 152.343 19.7147 152.474 19.752C152.623 19.7893 152.838 19.8827 153.118 20.032C153.379 20.1067 153.575 20.1907 153.706 20.284C153.836 20.3773 154.004 20.564 154.21 20.844C154.359 21.124 154.471 21.404 154.546 21.684C154.62 21.964 154.686 22.2813 154.742 22.636C154.891 23.1027 154.947 23.4107 154.91 23.56C154.872 23.6907 154.816 23.7933 154.742 23.868C154.592 24.0547 154.555 24.148 154.63 24.148C154.63 24.148 154.62 24.1853 154.602 24.26C154.602 24.316 154.564 24.4093 154.49 24.54C154.359 24.9507 154.256 25.38 154.182 25.828C154.126 26.2573 154.135 26.612 154.21 26.892C154.359 27.3027 154.63 27.5453 155.022 27.62C155.414 27.6947 155.815 27.5267 156.226 27.116C156.431 26.9667 156.627 26.836 156.814 26.724C157 26.5933 157.094 26.6027 157.094 26.752C157.094 26.752 157.122 26.78 157.178 26.836C157.234 26.8733 157.299 26.892 157.374 26.892C157.467 26.892 157.523 26.9293 157.542 27.004C157.579 27.0787 157.579 27.1813 157.542 27.312C157.523 27.424 157.467 27.5547 157.374 27.704C157.094 27.984 156.954 28.1707 156.954 28.264C156.954 28.264 156.916 28.3013 156.842 28.376C156.786 28.432 156.683 28.5253 156.534 28.656C156.198 28.8613 155.768 28.964 155.246 28.964C154.742 28.964 154.35 28.8613 154.07 28.656C153.79 28.4507 153.528 28.1707 153.286 27.816C153.062 27.4613 152.912 27.1533 152.838 26.892L152.698 26.612L151.886 27.144C151.68 27.3493 151.456 27.5453 151.214 27.732C150.99 27.9187 150.84 28.0493 150.766 28.124C150.71 28.1987 150.644 28.264 150.57 28.32C150.514 28.376 150.448 28.404 150.374 28.404C150.299 28.404 150.234 28.404 150.178 28.404C150.122 28.404 150.094 28.404 150.094 28.404C150.094 28.4787 150 28.572 149.814 28.684C149.646 28.796 149.44 28.8893 149.198 28.964C148.974 29.0387 148.768 29.076 148.582 29.076ZM148.302 27.564C148.414 27.564 148.61 27.48 148.89 27.312C149.188 27.1253 149.515 26.9107 149.87 26.668C150.243 26.4253 150.57 26.1827 150.85 25.94C151.148 25.6973 151.354 25.5107 151.466 25.38C151.54 25.3053 151.662 25.184 151.83 25.016C151.998 24.8293 152.147 24.6707 152.278 24.54C152.707 24.0547 153.006 23.5227 153.174 22.944C153.342 22.3467 153.323 21.88 153.118 21.544C153.043 21.3387 152.95 21.2267 152.838 21.208C152.726 21.1893 152.492 21.2547 152.138 21.404C151.914 21.5347 151.634 21.7867 151.298 22.16C150.98 22.5147 150.635 22.9347 150.262 23.42C149.907 23.8867 149.571 24.372 149.254 24.876C148.936 25.38 148.675 25.8467 148.47 26.276C148.264 26.7053 148.162 27.0413 148.162 27.284C148.162 27.3587 148.18 27.424 148.218 27.48C148.274 27.536 148.302 27.564 148.302 27.564ZM155.166 38.372C154.755 38.372 154.363 38.2973 153.99 38.148C153.598 37.9987 153.234 37.756 152.898 37.42C152.73 37.0093 152.609 36.7387 152.534 36.608C152.441 36.496 152.273 36.328 152.03 36.104C152.03 36.0107 152.067 35.8333 152.142 35.572C152.217 35.3293 152.329 35.1147 152.478 34.928C152.87 34.4613 153.346 34.0413 153.906 33.668C154.466 33.3133 155.119 33.0053 155.866 32.744C155.959 32.7067 156.053 32.66 156.146 32.604C156.258 32.5667 156.361 32.548 156.454 32.548C156.547 32.548 156.603 32.492 156.622 32.38C156.659 32.268 156.743 32.2587 156.874 32.352C156.967 32.3147 157.042 32.268 157.098 32.212C157.154 32.156 157.247 32.1467 157.378 32.184C157.378 32.184 157.481 32.156 157.686 32.1C157.91 32.044 158.162 31.9693 158.442 31.876C158.722 31.8013 158.965 31.7267 159.17 31.652C159.394 31.596 159.506 31.568 159.506 31.568C159.543 31.064 159.553 30.5413 159.534 30C159.534 29.4587 159.385 29.0573 159.086 28.796C158.899 28.5907 158.75 28.3573 158.638 28.096C158.545 27.8347 158.423 27.5547 158.274 27.256C158.311 27.088 158.377 26.948 158.47 26.836C158.563 26.724 158.694 26.6307 158.862 26.556C159.217 26.388 159.646 26.1267 160.15 25.772C160.673 25.3987 161.205 24.96 161.746 24.456C162.287 23.952 162.763 23.4107 163.174 22.832C163.435 22.4587 163.529 22.104 163.454 21.768C163.398 21.432 163.071 21.2267 162.474 21.152C162.101 21.152 161.681 21.2827 161.214 21.544C160.747 21.7867 160.262 22.1227 159.758 22.552C159.459 22.664 159.245 22.636 159.114 22.468C158.983 22.2813 158.881 22.076 158.806 21.852C158.843 21.6467 158.918 21.4693 159.03 21.32C159.142 21.152 159.263 20.9933 159.394 20.844C159.543 20.6947 159.674 20.536 159.786 20.368C159.935 20.2933 160.066 20.2187 160.178 20.144C160.29 20.0507 160.411 19.9667 160.542 19.892C160.654 19.8173 160.766 19.7613 160.878 19.724C161.009 19.668 161.139 19.64 161.27 19.64C161.382 19.64 161.494 19.6213 161.606 19.584C161.718 19.528 161.839 19.5 161.97 19.5C162.847 19.5373 163.538 19.8733 164.042 20.508C164.546 21.1427 164.77 21.768 164.714 22.384C164.677 23 164.359 23.8027 163.762 24.792C163.594 25.072 163.314 25.3707 162.922 25.688C162.549 26.0053 162.147 26.3133 161.718 26.612C161.307 26.9107 160.943 27.172 160.626 27.396C160.309 27.6013 160.122 27.732 160.066 27.788C160.234 27.9933 160.411 28.3387 160.598 28.824C160.785 29.2907 160.934 29.7667 161.046 30.252C161.177 30.756 161.195 31.148 161.102 31.428C161.289 31.4653 161.522 31.4467 161.802 31.372C162.101 31.316 162.334 31.288 162.502 31.288C162.67 31.456 162.838 31.6147 163.006 31.764C163.174 31.9133 163.258 32.072 163.258 32.24C163.295 32.352 163.267 32.4547 163.174 32.548C163.099 32.6413 163.015 32.6973 162.922 32.716C162.679 32.7533 162.371 32.7627 161.998 32.744C161.625 32.7253 161.261 32.7907 160.906 32.94C160.645 33.332 160.421 33.7613 160.234 34.228C160.047 34.7133 159.805 35.208 159.506 35.712C159.207 36.2347 158.741 36.7667 158.106 37.308C157.882 37.4947 157.649 37.6627 157.406 37.812C157.163 37.98 156.967 38.064 156.818 38.064C156.519 38.1573 156.23 38.232 155.95 38.288C155.689 38.344 155.427 38.372 155.166 38.372ZM153.962 36.944C153.962 36.9813 154.102 36.9907 154.382 36.972C154.643 36.972 154.961 36.9253 155.334 36.832C155.726 36.7573 156.071 36.636 156.37 36.468C156.743 36.244 157.061 35.9733 157.322 35.656C157.583 35.3573 157.835 35.0307 158.078 34.676C158.171 34.5267 158.265 34.3587 158.358 34.172C158.451 34.004 158.526 33.8267 158.582 33.64C158.451 33.4907 158.237 33.5 157.938 33.668C157.639 33.836 157.285 33.9947 156.874 34.144C156.445 34.2933 155.922 34.5173 155.306 34.816C154.709 35.1333 154.251 35.4787 153.934 35.852C153.841 35.9827 153.738 36.104 153.626 36.216C153.514 36.328 153.393 36.4307 153.262 36.524C153.355 36.6547 153.458 36.7573 153.57 36.832C153.682 36.9067 153.813 36.944 153.962 36.944ZM170.074 29.636C169.44 29.804 168.992 29.888 168.73 29.888C168.469 29.888 168.189 29.7573 167.89 29.496C167.797 29.4027 167.741 29.3093 167.722 29.216C167.704 29.104 167.657 29.0387 167.582 29.02C167.564 28.8893 167.573 28.7867 167.61 28.712C167.666 28.6187 167.788 28.5347 167.974 28.46C168.254 28.628 168.609 28.6747 169.038 28.6C169.468 28.5253 169.888 28.3667 170.298 28.124C170.728 27.8627 171.064 27.5547 171.306 27.2C171.68 26.752 171.969 26.332 172.174 25.94C172.38 25.5293 172.492 25.1653 172.51 24.848C172.51 24.6613 172.482 24.5307 172.426 24.456C172.389 24.3627 172.296 24.2227 172.146 24.036C171.81 24.148 171.502 24.2787 171.222 24.428C170.961 24.5773 170.746 24.736 170.578 24.904C170.018 25.3707 169.58 25.7533 169.262 26.052C168.964 26.3507 168.702 26.6493 168.478 26.948C168.273 27.2467 168.012 27.648 167.694 28.152C167.545 28.3387 167.405 28.4787 167.274 28.572C167.162 28.6653 167.041 28.712 166.91 28.712C166.966 29.0853 166.836 29.3093 166.518 29.384C166.108 29.2907 165.809 29.1693 165.622 29.02C165.436 28.852 165.38 28.5347 165.454 28.068C165.529 27.8067 165.604 27.4987 165.678 27.144C165.753 26.7707 165.837 26.4627 165.93 26.22C166.378 25.0253 166.77 23.9613 167.106 23.028C167.461 22.0947 167.769 21.432 168.03 21.04L168.646 19.444C168.964 19.4627 169.206 19.528 169.374 19.64C169.542 19.7333 169.738 19.9667 169.962 20.34C169.962 20.4333 169.869 20.704 169.682 21.152C169.514 21.5813 169.309 22.076 169.066 22.636C168.842 23.196 168.628 23.7187 168.422 24.204C168.236 24.6707 168.105 24.9973 168.03 25.184C167.956 25.3893 168.012 25.352 168.198 25.072C168.404 24.792 168.758 24.4373 169.262 24.008C169.505 23.7653 169.804 23.5413 170.158 23.336C170.513 23.112 170.812 22.944 171.054 22.832C171.316 22.72 171.53 22.6547 171.698 22.636C171.866 22.6173 171.988 22.5987 172.062 22.58C172.529 22.58 172.902 22.7013 173.182 22.944C173.462 23.168 173.658 23.4293 173.77 23.728C173.901 24.0267 173.966 24.2693 173.966 24.456C174.022 24.7547 174.06 25.044 174.078 25.324C174.116 25.5853 174.097 25.8653 174.022 26.164C173.966 26.3133 173.864 26.5187 173.714 26.78C173.565 27.0413 173.388 27.312 173.182 27.592C172.996 27.8533 172.772 28.068 172.51 28.236C172.342 28.404 172.118 28.5813 171.838 28.768C171.558 28.9547 171.26 29.132 170.942 29.3C170.644 29.4493 170.354 29.5613 170.074 29.636ZM175.898 30.084C175.562 30.0467 175.282 29.944 175.058 29.776C174.853 29.5893 174.704 29.3187 174.61 28.964C174.61 28.6467 174.648 28.3573 174.722 28.096C174.816 27.816 174.89 27.5453 174.946 27.284C175.04 26.8547 175.17 26.4253 175.338 25.996C175.506 25.5667 175.656 25.1373 175.786 24.708C175.898 24.4467 175.992 24.1947 176.066 23.952C176.141 23.7093 176.216 23.4667 176.29 23.224C176.384 22.9253 176.477 22.636 176.57 22.356C176.664 22.076 176.757 21.796 176.85 21.516C176.925 21.2733 176.981 21.0213 177.018 20.76C177.074 20.4987 177.121 20.2373 177.158 19.976C177.364 19.752 177.588 19.6587 177.83 19.696C178.092 19.7333 178.409 19.948 178.782 20.34C178.876 20.564 178.922 20.7693 178.922 20.956C178.922 21.124 178.876 21.3013 178.782 21.488C178.708 21.656 178.605 21.908 178.474 22.244C178.362 22.58 178.241 22.916 178.11 23.252C177.998 23.5693 177.914 23.812 177.858 23.98C177.821 24.1853 177.718 24.5213 177.55 24.988C177.401 25.4547 177.242 25.94 177.074 26.444C176.906 26.9293 176.785 27.3213 176.71 27.62C176.598 27.9 176.514 28.1707 176.458 28.432C176.402 28.6933 176.346 29.02 176.29 29.412C176.328 29.58 176.3 29.72 176.206 29.832C176.132 29.9253 176.029 30.0093 175.898 30.084ZM184.677 29.888C184.602 29.8507 184.499 29.776 184.369 29.664C184.257 29.552 184.154 29.44 184.061 29.328C184.005 29.272 183.958 29.2253 183.921 29.188C183.883 29.132 183.846 29.0947 183.809 29.076C183.809 28.9453 183.837 28.852 183.893 28.796C183.967 28.74 184.042 28.6747 184.117 28.6C184.191 28.488 184.313 28.432 184.481 28.432C184.649 28.432 184.779 28.3853 184.873 28.292C185.209 28.0493 185.554 27.7973 185.909 27.536C186.263 27.2747 186.562 26.9667 186.805 26.612C187.066 26.2387 187.327 25.8373 187.589 25.408C187.85 24.9787 188.102 24.5587 188.345 24.148C188.419 24.0173 188.541 23.784 188.709 23.448C188.877 23.112 189.035 22.7853 189.185 22.468C189.353 22.132 189.446 21.8987 189.465 21.768C189.297 21.712 189.138 21.6653 188.989 21.628C188.858 21.572 188.727 21.5253 188.597 21.488C188.429 21.2267 188.335 21.0773 188.317 21.04C188.298 20.984 188.289 20.8067 188.289 20.508C188.289 20.284 188.41 20.144 188.653 20.088C189.194 19.9573 189.67 19.8733 190.081 19.836C190.51 19.7987 190.93 19.724 191.341 19.612C191.602 19.5373 191.919 19.5093 192.293 19.528C192.666 19.5467 193.039 19.6307 193.413 19.78C193.581 19.8547 193.721 19.948 193.833 20.06C193.945 20.172 194.047 20.3027 194.141 20.452C194.383 20.788 194.505 21.0773 194.505 21.32C194.523 21.5627 194.514 21.796 194.477 22.02C194.439 22.244 194.467 22.496 194.561 22.776C194.43 23.28 194.299 23.728 194.169 24.12C194.038 24.4933 193.917 24.848 193.805 25.184C193.693 25.5013 193.59 25.8 193.497 26.08C193.403 26.36 193.329 26.64 193.273 26.92C193.198 27.2187 193.105 27.5173 192.993 27.816C192.881 28.1147 192.797 28.4227 192.741 28.74C192.703 28.9827 192.591 29.16 192.405 29.272C192.237 29.384 192.05 29.4867 191.845 29.58C191.77 29.5987 191.639 29.58 191.453 29.524C191.285 29.4493 191.126 29.3467 190.977 29.216C190.921 29.0107 190.902 28.824 190.921 28.656C190.939 28.488 190.977 28.32 191.033 28.152C191.089 28.0027 191.191 27.6667 191.341 27.144C191.49 26.6213 191.658 26.0333 191.845 25.38C192.031 24.7267 192.209 24.12 192.377 23.56C192.545 23 192.657 22.608 192.713 22.384C192.806 22.0853 192.834 21.8613 192.797 21.712C192.778 21.5627 192.75 21.4227 192.713 21.292C192.321 21.1427 192.05 21.096 191.901 21.152C191.77 21.1893 191.602 21.2267 191.397 21.264C191.303 21.3387 191.229 21.4227 191.173 21.516C191.117 21.6093 191.079 21.7027 191.061 21.796C190.855 22.3373 190.678 22.7667 190.529 23.084C190.398 23.4013 190.267 23.6907 190.137 23.952C190.006 24.1947 189.857 24.4653 189.689 24.764C189.539 25.0627 189.343 25.4733 189.101 25.996C188.951 26.332 188.765 26.64 188.541 26.92C188.335 27.2 188.149 27.4987 187.981 27.816L187.673 28.208C187.691 28.208 187.617 28.2827 187.449 28.432C187.281 28.5813 187.113 28.7307 186.945 28.88C186.795 29.0293 186.721 29.104 186.721 29.104L185.853 29.776C185.759 29.8507 185.601 29.888 185.377 29.888C185.153 29.888 184.919 29.888 184.677 29.888ZM195.919 29.888C195.732 29.72 195.574 29.5613 195.443 29.412C195.331 29.2627 195.247 29.0947 195.191 28.908C195.266 28.796 195.303 28.6933 195.303 28.6C195.303 28.488 195.303 28.3387 195.303 28.152C195.303 27.8533 195.303 27.564 195.303 27.284C195.322 26.9853 195.322 26.6867 195.303 26.388C195.284 26.108 195.331 25.856 195.443 25.632C195.555 25.408 195.723 25.2307 195.947 25.1C196.171 24.9693 196.339 24.82 196.451 24.652C196.582 24.484 196.684 24.26 196.759 23.98C196.852 23.644 196.927 23.3547 196.983 23.112C197.039 22.8693 197.104 22.5707 197.179 22.216C197.272 21.8427 197.394 21.3293 197.543 20.676C197.524 20.5267 197.534 20.3867 197.571 20.256C197.627 20.1253 197.655 19.9853 197.655 19.836C197.655 19.444 197.86 19.2013 198.271 19.108C198.532 19.1827 198.71 19.248 198.803 19.304C198.915 19.3413 199.018 19.3973 199.111 19.472C199.204 19.5467 199.344 19.696 199.531 19.92C199.531 19.9947 199.512 20.144 199.475 20.368C199.456 20.592 199.41 20.788 199.335 20.956C199.204 21.3667 199.083 21.7773 198.971 22.188C198.878 22.5987 198.775 23 198.663 23.392C198.644 23.4853 198.616 23.588 198.579 23.7C198.56 23.7933 198.56 23.896 198.579 24.008L200.735 23.672C200.828 23.6533 200.931 23.672 201.043 23.728C201.155 23.7653 201.276 23.8027 201.407 23.84C201.687 23.2987 201.967 22.748 202.247 22.188C202.546 21.6093 202.835 21.1333 203.115 20.76C203.302 20.4987 203.47 20.2933 203.619 20.144C203.787 19.9947 203.974 19.8547 204.179 19.724C204.384 19.5187 204.608 19.388 204.851 19.332C205.094 19.2573 205.327 19.22 205.551 19.22C205.626 19.2947 205.7 19.3693 205.775 19.444C205.868 19.5187 205.952 19.6027 206.027 19.696C206.12 19.7707 206.204 19.8453 206.279 19.92C206.372 19.9947 206.466 20.0787 206.559 20.172C207.044 20.116 207.427 20.116 207.707 20.172C208.006 20.2093 208.258 20.368 208.463 20.648C208.5 20.704 208.519 20.7787 208.519 20.872C208.538 20.9467 208.528 21.0027 208.491 21.04L207.763 21.684C207.838 21.8147 207.903 21.9547 207.959 22.104C208.015 22.2347 208.08 22.3747 208.155 22.524C208.155 22.6173 208.127 22.72 208.071 22.832C208.015 22.9253 208.015 23.028 208.071 23.14C208.202 23.364 208.248 23.5973 208.211 23.84C208.174 24.064 208.164 24.3067 208.183 24.568C208.22 24.6613 208.202 24.82 208.127 25.044C208.052 25.2493 207.968 25.464 207.875 25.688C207.8 25.8933 207.754 26.0427 207.735 26.136C207.679 26.416 207.567 26.668 207.399 26.892C207.231 27.0973 207.1 27.34 207.007 27.62C206.988 27.6573 206.951 27.6947 206.895 27.732C206.858 27.7507 206.802 27.7787 206.727 27.816C206.298 28.3013 205.859 28.684 205.411 28.964C205.094 29.188 204.804 29.3467 204.543 29.44C204.3 29.5333 204.048 29.5893 203.787 29.608C203.526 29.608 203.199 29.608 202.807 29.608C202.415 29.4027 202.163 29.2533 202.051 29.16C201.939 29.0667 201.864 28.9733 201.827 28.88C201.79 28.7867 201.659 28.6373 201.435 28.432C201.435 28.1893 201.342 27.9373 201.155 27.676C201.192 27.5267 201.192 27.3773 201.155 27.228C201.118 27.0787 201.099 26.9387 201.099 26.808V25.212C200.856 25.1187 200.698 25.1187 200.623 25.212C200.548 25.2867 200.446 25.3147 200.315 25.296C200.072 25.4267 199.802 25.5293 199.503 25.604C199.223 25.66 198.999 25.7067 198.831 25.744C198.644 25.8 198.458 25.8747 198.271 25.968C198.084 26.0613 197.963 26.1453 197.907 26.22C197.72 26.4067 197.608 26.6587 197.571 26.976C197.571 27.0507 197.524 27.2187 197.431 27.48C197.356 27.7413 197.272 28.012 197.179 28.292C197.104 28.572 197.058 28.768 197.039 28.88C197.039 28.9733 196.992 29.132 196.899 29.356C196.824 29.58 196.75 29.7107 196.675 29.748C196.563 29.8227 196.451 29.8787 196.339 29.916C196.227 29.9533 196.087 29.944 195.919 29.888ZM203.843 27.844C204.16 27.6947 204.487 27.4707 204.823 27.172C205.159 26.8733 205.56 26.3787 206.027 25.688C206.232 25.2773 206.372 24.9693 206.447 24.764C206.54 24.5587 206.587 24.344 206.587 24.12C206.606 23.896 206.615 23.5693 206.615 23.14C206.596 22.5987 206.456 22.16 206.195 21.824C205.952 21.4693 205.71 21.1147 205.467 20.76C205.187 21.1147 204.898 21.432 204.599 21.712C204.3 21.992 203.992 22.4587 203.675 23.112C203.432 23.6347 203.199 24.1293 202.975 24.596C202.751 25.044 202.667 25.604 202.723 26.276C202.723 26.668 202.751 26.948 202.807 27.116C202.863 27.284 202.9 27.4707 202.919 27.676C202.956 27.8253 203.078 27.9093 203.283 27.928C203.488 27.9467 203.675 27.9187 203.843 27.844ZM209.817 24.484C210.059 23.7 210.358 22.944 210.713 22.216C211.086 21.4693 211.487 20.816 211.917 20.256C212.346 19.696 212.766 19.2947 213.177 19.052C213.382 19.0147 213.559 19.0053 213.709 19.024C213.877 19.024 214.063 19.0427 214.269 19.08C214.343 18.856 214.297 18.5293 214.129 18.1C213.961 17.6707 213.755 17.2507 213.513 16.84C213.289 16.4107 213.111 16.112 212.981 15.944C212.85 15.776 212.71 15.6173 212.561 15.468C212.411 15.3 212.281 15.132 212.169 14.964C212.094 14.8147 212.066 14.656 212.085 14.488C212.103 14.32 212.206 14.208 212.393 14.152C212.654 14.0587 212.906 13.956 213.149 13.844C213.41 13.7133 213.671 13.6013 213.933 13.508C214.045 13.4707 214.259 13.4147 214.577 13.34C214.894 13.2653 215.211 13.2 215.529 13.144C215.865 13.0693 216.089 13.032 216.201 13.032C216.425 12.9947 216.649 12.9853 216.873 13.004C217.097 13.0227 217.321 13.0413 217.545 13.06C217.955 13.0787 218.217 13.172 218.329 13.34C218.441 13.508 218.599 13.7413 218.805 14.04C218.767 14.1707 218.721 14.3667 218.665 14.628C218.627 14.8707 218.543 15.0387 218.413 15.132C218.338 15.1133 218.254 15.104 218.161 15.104C218.067 15.104 217.974 15.0853 217.881 15.048C217.694 14.9547 217.405 14.88 217.013 14.824C216.621 14.7493 216.229 14.712 215.837 14.712C215.445 14.6933 215.155 14.7307 214.969 14.824C214.875 14.8613 214.763 14.8987 214.633 14.936C214.502 14.9547 214.371 14.9733 214.241 14.992C214.129 15.0107 214.035 15.0573 213.961 15.132C214.11 15.4307 214.334 15.7947 214.633 16.224C214.931 16.6347 215.165 16.9987 215.333 17.316C215.37 17.3907 215.379 17.4653 215.361 17.54C215.342 17.6147 215.37 17.68 215.445 17.736C215.538 17.9973 215.631 18.268 215.725 18.548C215.818 18.828 215.865 19.1173 215.865 19.416C215.921 19.5467 215.977 19.7613 216.033 20.06C216.107 20.34 216.154 20.6293 216.173 20.928C216.21 21.208 216.201 21.4133 216.145 21.544C216.238 21.8053 216.238 22.0293 216.145 22.216C216.07 22.384 216.014 22.5893 215.977 22.832C215.977 22.8693 215.967 22.9067 215.949 22.944C215.949 22.9813 215.949 23.0187 215.949 23.056C215.949 23.4293 215.921 23.728 215.865 23.952C215.809 24.176 215.706 24.4653 215.557 24.82C215.463 25.1187 215.361 25.4173 215.249 25.716C215.155 25.996 215.062 26.2853 214.969 26.584C214.521 27.3867 214.101 28.0587 213.709 28.6C213.335 29.1227 212.999 29.5053 212.701 29.748C212.421 29.972 212.159 30.0373 211.917 29.944C211.674 29.9627 211.441 29.9347 211.217 29.86C210.993 29.7667 210.778 29.6547 210.573 29.524C210.125 29.244 209.807 28.852 209.621 28.348C209.453 27.8253 209.387 27.228 209.425 26.556C209.481 25.884 209.611 25.1933 209.817 24.484ZM211.133 26.472C211.095 26.8267 211.077 27.0787 211.077 27.228C211.095 27.3587 211.142 27.6013 211.217 27.956C211.31 28.0307 211.403 28.1147 211.497 28.208C211.59 28.2827 211.683 28.3667 211.777 28.46C212.131 28.012 212.402 27.6387 212.589 27.34C212.775 27.0227 212.943 26.7053 213.093 26.388C213.261 26.0707 213.475 25.6973 213.737 25.268C213.774 25.1187 213.811 24.9693 213.849 24.82C213.905 24.652 213.961 24.5027 214.017 24.372C214.166 24.0547 214.287 23.616 214.381 23.056C214.493 22.4773 214.53 21.9173 214.493 21.376C214.474 20.816 214.325 20.396 214.045 20.116C214.026 20.3027 213.914 20.5547 213.709 20.872C213.503 21.1893 213.326 21.4227 213.177 21.572C212.859 21.8893 212.551 22.356 212.253 22.972C211.973 23.5693 211.73 24.1947 211.525 24.848C211.319 25.4827 211.189 26.024 211.133 26.472ZM219.772 28.936C219.38 29.0107 219.128 29.0387 219.016 29.02C218.922 28.9827 218.773 28.8707 218.568 28.684C218.269 28.5347 218.017 28.348 217.812 28.124C217.625 27.9 217.485 27.6667 217.392 27.424C217.317 27.1627 217.289 26.948 217.308 26.78C217.364 26.1267 217.522 25.4267 217.784 24.68C218.045 23.9333 218.362 23.2147 218.736 22.524C219.109 21.8333 219.51 21.2453 219.94 20.76C220.388 20.256 220.817 19.9293 221.228 19.78C221.601 19.6307 221.956 19.5747 222.292 19.612C222.628 19.6493 222.87 19.8267 223.02 20.144C223.3 20.6853 223.234 21.0307 222.824 21.18C222.768 21.18 222.702 21.208 222.628 21.264C222.553 21.3013 222.516 21.3573 222.516 21.432C222.59 21.4693 222.796 21.4787 223.132 21.46C223.468 21.4227 223.804 21.3667 224.14 21.292C224.494 21.1987 224.728 21.1053 224.84 21.012C224.952 20.956 225.036 20.928 225.092 20.928C225.148 20.928 225.288 20.9467 225.512 20.984C225.829 21.0773 225.988 21.1893 225.988 21.32C225.988 21.3947 226.016 21.4693 226.072 21.544C226.128 21.6 226.193 21.628 226.268 21.628C226.398 21.6467 226.38 21.7307 226.212 21.88C226.062 22.0293 225.801 22.2347 225.428 22.496C225.073 22.72 224.849 22.8693 224.756 22.944C224.681 23 224.672 23.1307 224.728 23.336C224.877 23.6907 224.886 24.1013 224.756 24.568C224.625 25.0347 224.392 25.5107 224.056 25.996C223.72 26.4813 223.309 26.9387 222.824 27.368C222.357 27.7787 221.853 28.1333 221.312 28.432C220.789 28.712 220.276 28.88 219.772 28.936ZM219.296 27.704C219.37 27.704 219.501 27.6667 219.688 27.592C219.874 27.4987 220.024 27.424 220.136 27.368C220.21 27.2933 220.304 27.2093 220.416 27.116C220.546 27.004 220.649 26.9387 220.724 26.92C220.798 26.92 220.892 26.892 221.004 26.836C221.116 26.7613 221.274 26.6213 221.48 26.416C221.685 26.192 221.956 25.8653 222.292 25.436C222.665 25.0253 222.954 24.652 223.16 24.316C223.365 23.9613 223.421 23.6347 223.328 23.336C223.309 23.2613 223.253 23.2147 223.16 23.196C223.085 23.1773 222.982 23.1307 222.852 23.056C222.665 23.056 222.488 23.0093 222.32 22.916C222.17 22.804 221.993 22.664 221.788 22.496L221.34 21.936L220.864 22.412C220.565 22.7107 220.248 23.1587 219.912 23.756C219.594 24.3347 219.324 24.932 219.1 25.548C218.876 26.1453 218.745 26.6213 218.708 26.976C218.689 27.256 218.736 27.4427 218.848 27.536C218.96 27.6293 219.109 27.6853 219.296 27.704ZM232.975 29.944C232.844 30.0187 232.667 29.9907 232.443 29.86C232.237 29.7293 232.032 29.5333 231.827 29.272C231.696 29.048 231.603 28.8053 231.547 28.544C231.509 28.2827 231.491 27.9187 231.491 27.452C231.509 27.0787 231.491 26.836 231.435 26.724C231.397 26.612 231.295 26.6307 231.127 26.78C230.959 26.9107 230.669 27.1813 230.259 27.592C229.792 28.0587 229.344 28.4227 228.915 28.684C228.504 28.9453 228.168 29.0667 227.907 29.048C227.776 29.048 227.627 28.9827 227.459 28.852C227.309 28.7027 227.169 28.5253 227.039 28.32C226.908 28.096 226.796 27.872 226.703 27.648C226.591 27.2373 226.572 26.7147 226.647 26.08C226.74 25.4267 226.889 24.7453 227.095 24.036C227.3 23.3267 227.533 22.6547 227.795 22.02C228.075 21.3853 228.355 20.872 228.635 20.48C228.933 20.088 229.195 19.892 229.419 19.892C229.568 19.892 229.699 19.9667 229.811 20.116C229.941 20.2653 230.072 20.4987 230.203 20.816C230.277 20.9467 230.305 21.0587 230.287 21.152C230.287 21.2453 230.212 21.3573 230.063 21.488C229.895 21.712 229.699 22.048 229.475 22.496C229.269 22.944 229.064 23.4293 228.859 23.952C228.672 24.4747 228.504 24.9787 228.355 25.464C228.205 25.9493 228.103 26.3507 228.047 26.668C227.991 26.9667 228 27.116 228.075 27.116C228.336 27.116 228.644 27.0133 228.999 26.808C229.372 26.584 229.727 26.3133 230.063 25.996C230.455 25.604 230.8 25.1747 231.099 24.708C231.416 24.2413 231.733 23.7467 232.051 23.224C232.293 22.8507 232.545 22.44 232.807 21.992C233.087 21.544 233.264 21.2267 233.339 21.04C233.6 20.5547 233.796 20.228 233.927 20.06C234.057 19.8733 234.216 19.752 234.403 19.696C234.496 19.696 234.58 19.696 234.655 19.696C234.748 19.696 234.795 19.696 234.795 19.696C234.907 19.7147 235.037 19.7987 235.187 19.948C235.336 20.0227 235.42 20.0973 235.439 20.172C235.457 20.228 235.467 20.3027 235.467 20.396C235.392 20.5827 235.271 20.8627 235.103 21.236C234.953 21.5907 234.841 21.852 234.767 22.02C234.412 22.8227 234.057 23.616 233.703 24.4C233.367 25.1653 233.124 25.9493 232.975 26.752C232.937 27.0133 232.928 27.3213 232.947 27.676C232.984 28.012 233.04 28.2547 233.115 28.404C233.171 28.516 233.236 28.6467 233.311 28.796C233.404 28.9267 233.507 29.0387 233.619 29.132C233.787 29.244 233.815 29.3653 233.703 29.496C233.609 29.6267 233.479 29.7387 233.311 29.832C233.143 29.9067 233.031 29.944 232.975 29.944ZM232.611 18.324C232.032 18.3987 231.547 18.2307 231.155 17.82C230.763 17.4093 230.464 16.8027 230.259 16C230.221 15.8507 230.203 15.72 230.203 15.608C230.221 15.4773 230.259 15.3653 230.315 15.272C230.352 15.1973 230.427 15.1413 230.539 15.104C230.651 15.048 230.744 15.0387 230.819 15.076C231.08 15.1693 231.267 15.2907 231.379 15.44C231.509 15.5707 231.593 15.7387 231.631 15.944C231.668 16.0373 231.687 16.1307 231.687 16.224C231.705 16.3173 231.715 16.3547 231.715 16.336C231.808 16.6347 231.929 16.84 232.079 16.952C232.228 17.064 232.452 17.0547 232.751 16.924C233.068 16.7933 233.376 16.644 233.675 16.476C233.992 16.308 234.272 16.1027 234.515 15.86C234.72 15.6547 234.916 15.468 235.103 15.3C235.308 15.132 235.504 14.9547 235.691 14.768L235.719 14.74C235.793 14.684 235.887 14.6653 235.999 14.684C236.111 14.7027 236.176 14.7307 236.195 14.768C236.325 14.8987 236.391 15.0293 236.391 15.16C236.391 15.2907 236.391 15.4307 236.391 15.58L236.363 15.636C236.4 15.748 236.307 15.9627 236.083 16.28C235.877 16.5973 235.625 16.868 235.327 17.092C235.065 17.2973 234.785 17.484 234.487 17.652C234.188 17.82 233.88 17.9787 233.563 18.128C233.432 18.2027 233.292 18.2493 233.143 18.268C233.012 18.268 232.835 18.2867 232.611 18.324ZM246.952 29.692C246.41 29.7853 245.916 29.7573 245.468 29.608C245.02 29.44 244.656 29.1693 244.376 28.796C244.114 28.404 243.984 27.9093 243.984 27.312C243.928 26.752 243.993 26.108 244.18 25.38C244.366 24.6333 244.637 23.8867 244.992 23.14C245.365 22.3933 245.766 21.7493 246.196 21.208C246.569 20.76 246.942 20.3493 247.316 19.976C247.689 19.6027 248.025 19.3507 248.324 19.22C248.585 19.108 248.828 19.0427 249.052 19.024C249.294 18.9867 249.49 18.968 249.64 18.968C249.938 19.0427 250.256 19.1827 250.592 19.388C250.946 19.5747 251.124 19.78 251.124 20.004C251.124 20.004 251.142 20.032 251.18 20.088C251.236 20.1253 251.264 20.144 251.264 20.144C251.376 20.144 251.469 20.2653 251.544 20.508C251.637 20.7507 251.693 21.0307 251.712 21.348C251.73 21.6467 251.684 21.8987 251.572 22.104C251.497 22.4587 251.366 22.7667 251.18 23.028C250.993 23.2893 250.825 23.42 250.676 23.42C250.601 23.42 250.526 23.4293 250.452 23.448C250.396 23.448 250.368 23.4947 250.368 23.588C250.368 23.6813 250.312 23.7187 250.2 23.7C250.106 23.6813 250.004 23.6253 249.892 23.532C249.78 23.42 249.696 23.2893 249.64 23.14C249.64 23.0467 249.677 22.888 249.752 22.664C249.826 22.44 249.901 22.1507 249.976 21.796C250.088 21.2733 250.078 20.9373 249.948 20.788C249.817 20.62 249.565 20.6107 249.192 20.76C248.725 21.0213 248.277 21.3853 247.848 21.852C247.437 22.3187 247.054 22.9253 246.7 23.672C246.345 24.4 246.028 25.3147 245.748 26.416C245.636 26.8453 245.589 27.2187 245.608 27.536C245.645 27.8533 245.692 28.0213 245.748 28.04C246.009 28.1147 246.364 28.1333 246.812 28.096C247.26 28.04 247.586 27.956 247.792 27.844C248.09 27.6947 248.426 27.4987 248.8 27.256C249.173 26.9947 249.5 26.7613 249.78 26.556C249.873 26.5 249.985 26.4067 250.116 26.276C250.246 26.1453 250.386 26.0427 250.536 25.968C250.685 25.744 250.816 25.6133 250.928 25.576C251.04 25.5387 251.208 25.52 251.432 25.52C251.581 25.5573 251.721 25.6133 251.852 25.688C251.982 25.7627 252.066 25.8373 252.104 25.912C252.16 25.9867 252.132 26.052 252.02 26.108C251.945 26.108 251.898 26.136 251.88 26.192C251.88 26.2293 251.88 26.248 251.88 26.248C251.917 26.3227 251.833 26.4813 251.628 26.724C251.441 26.948 251.198 27.2 250.9 27.48C250.601 27.76 250.312 28.0027 250.032 28.208C249.77 28.3947 249.584 28.488 249.472 28.488C249.285 28.488 249.192 28.544 249.192 28.656C249.192 28.6933 249.052 28.7867 248.772 28.936C248.51 29.0853 248.202 29.2347 247.848 29.384C247.512 29.5333 247.213 29.636 246.952 29.692ZM252.929 29.468C252.798 29.3933 252.658 29.3467 252.509 29.328C252.378 29.3093 252.238 29.2907 252.089 29.272C251.958 29.1413 251.846 29.0107 251.753 28.88C251.678 28.7307 251.622 28.5627 251.585 28.376C251.566 28.264 251.585 28.1613 251.641 28.068C251.697 27.9747 251.753 27.8907 251.809 27.816C251.865 27.816 251.93 27.8253 252.005 27.844C252.079 27.844 252.154 27.844 252.229 27.844C252.546 27.6013 252.826 27.34 253.069 27.06C253.33 26.7613 253.582 26.4533 253.825 26.136C254.086 25.7813 254.319 25.4267 254.525 25.072C254.73 24.6987 254.898 24.3067 255.029 23.896C255.085 23.728 255.122 23.56 255.141 23.392C255.159 23.2053 255.206 23.0373 255.281 22.888C255.393 22.664 255.477 22.44 255.533 22.216C255.607 21.9733 255.682 21.74 255.757 21.516C255.477 21.46 255.262 21.4227 255.113 21.404C254.982 21.3667 254.861 21.3013 254.749 21.208C254.637 21.1147 254.478 20.9747 254.273 20.788C254.254 20.5267 254.282 20.34 254.357 20.228C254.431 20.0973 254.609 19.9947 254.889 19.92C255.001 19.8827 255.113 19.8547 255.225 19.836C255.337 19.7987 255.449 19.78 255.561 19.78C255.766 19.7613 255.971 19.752 256.177 19.752C256.382 19.752 256.597 19.7613 256.821 19.78C256.97 19.7987 257.119 19.8267 257.269 19.864C257.418 19.9013 257.567 19.9387 257.717 19.976C257.885 20.032 258.053 20.1067 258.221 20.2C258.389 20.2747 258.557 20.34 258.725 20.396C258.855 20.4147 258.977 20.4613 259.089 20.536C259.201 20.6107 259.322 20.6947 259.453 20.788C259.789 20.9933 260.05 21.2547 260.237 21.572C260.423 21.8707 260.517 22.2067 260.517 22.58C260.517 23.1587 260.433 23.7 260.265 24.204C260.171 24.5587 260.069 24.9133 259.957 25.268C259.863 25.6227 259.761 25.9773 259.649 26.332C259.574 26.5747 259.499 26.808 259.425 27.032C259.35 27.256 259.294 27.4893 259.257 27.732C259.219 27.9373 259.191 28.152 259.173 28.376C259.154 28.6 259.126 28.8333 259.089 29.076C259.014 29.0947 258.939 29.1133 258.865 29.132C258.809 29.1507 258.734 29.1787 258.641 29.216C258.435 29.1413 258.221 29.0667 257.997 28.992C257.773 28.8987 257.614 28.7027 257.521 28.404C257.521 28.3667 257.521 28.3293 257.521 28.292C257.539 28.236 257.549 28.1707 257.549 28.096C257.549 28.04 257.549 27.984 257.549 27.928C257.549 27.872 257.549 27.816 257.549 27.76C257.586 27.424 257.642 27.0973 257.717 26.78C257.791 26.444 257.885 26.1173 257.997 25.8C258.146 25.4267 258.267 25.0627 258.361 24.708C258.454 24.3347 258.547 23.9707 258.641 23.616C258.697 23.448 258.734 23.28 258.753 23.112C258.79 22.9253 258.818 22.748 258.837 22.58C258.855 22.3747 258.809 22.1413 258.697 21.88C258.51 21.7307 258.314 21.6187 258.109 21.544C257.903 21.4507 257.679 21.3853 257.437 21.348C257.399 21.4787 257.334 21.6187 257.241 21.768C257.222 21.8053 257.213 21.8613 257.213 21.936C257.213 21.992 257.194 22.0293 257.157 22.048C257.045 22.1227 256.97 22.2253 256.933 22.356C256.914 22.468 256.895 22.5893 256.877 22.72C256.858 22.8133 256.83 22.9067 256.793 23C256.755 23.0933 256.709 23.1867 256.653 23.28C256.578 23.3547 256.531 23.4573 256.513 23.588C256.494 23.7 256.475 23.8213 256.457 23.952C256.419 24.232 256.354 24.5027 256.261 24.764C256.167 25.0253 256.046 25.3147 255.897 25.632C255.803 25.7627 255.719 25.9027 255.645 26.052C255.57 26.1827 255.495 26.3227 255.421 26.472C255.402 26.5467 255.365 26.6213 255.309 26.696C255.253 26.752 255.206 26.8267 255.169 26.92C255.075 27.1067 254.973 27.3027 254.861 27.508C254.749 27.6947 254.618 27.8627 254.469 28.012C254.226 28.2547 253.983 28.5067 253.741 28.768C253.517 29.0293 253.246 29.2627 252.929 29.468ZM262.984 29.58C262.741 29.58 262.545 29.5333 262.396 29.44C262.265 29.3467 262.097 29.216 261.892 29.048C261.537 28.6747 261.285 28.32 261.136 27.984C260.987 27.6293 260.94 27.2933 260.996 26.976C261.052 26.8267 261.071 26.6867 261.052 26.556C261.052 26.4067 261.052 26.332 261.052 26.332C260.959 26.2387 260.931 26.1827 260.968 26.164C261.005 26.1267 261.043 26.0707 261.08 25.996C261.192 25.996 261.229 25.8933 261.192 25.688C261.155 25.5387 261.229 25.212 261.416 24.708C261.603 24.204 261.836 23.728 262.116 23.28C262.228 23.0933 262.396 22.8507 262.62 22.552C262.844 22.2347 263.087 21.9267 263.348 21.628C263.628 21.3107 263.88 21.0587 264.104 20.872C264.571 20.48 264.981 20.1907 265.336 20.004C265.691 19.8173 266.073 19.6773 266.484 19.584C266.895 19.4907 267.175 19.444 267.324 19.444C267.492 19.444 267.716 19.5933 267.996 19.892C268.425 20.0787 268.733 20.3027 268.92 20.564C269.125 20.8253 269.256 21.208 269.312 21.712C269.368 22.272 269.321 22.916 269.172 23.644C269.041 24.3533 268.603 25.24 267.856 26.304C267.389 26.976 266.96 27.48 266.568 27.816C266.176 28.1333 265.709 28.4507 265.168 28.768C264.776 29.0293 264.421 29.2253 264.104 29.356C263.787 29.468 263.413 29.5427 262.984 29.58ZM265.672 26.612C266.12 26.108 266.475 25.632 266.736 25.184C267.016 24.736 267.277 24.1667 267.52 23.476C267.595 23.2707 267.641 23.0187 267.66 22.72C267.679 22.4027 267.669 22.1133 267.632 21.852C267.613 21.572 267.548 21.4133 267.436 21.376C267.212 21.2453 266.941 21.208 266.624 21.264C266.307 21.3013 265.961 21.4787 265.588 21.796C265.009 22.2813 264.505 22.888 264.076 23.616C263.647 24.3253 263.227 25.1373 262.816 26.052C262.536 26.724 262.471 27.2653 262.62 27.676C262.788 28.068 263.133 28.208 263.656 28.096C264.197 27.9653 264.869 27.4707 265.672 26.612ZM274.955 30.14C274.712 30.084 274.479 30.0093 274.255 29.916C274.031 29.8227 273.872 29.6827 273.779 29.496C273.798 29.4213 273.807 29.3467 273.807 29.272C273.826 29.1973 273.826 29.1227 273.807 29.048C273.807 28.8053 273.882 28.4507 274.031 27.984C274.199 27.5173 274.395 27.004 274.619 26.444C274.862 25.884 275.086 25.3613 275.291 24.876C275.142 25.0813 274.88 25.3613 274.507 25.716C274.152 26.0707 273.77 26.444 273.359 26.836C272.948 27.2093 272.575 27.5547 272.239 27.872C271.903 28.1707 271.679 28.3853 271.567 28.516C271.362 28.796 271.175 29.0107 271.007 29.16C270.839 29.3093 270.587 29.58 270.251 29.972C270.102 29.972 269.962 29.972 269.831 29.972C269.7 29.972 269.579 29.972 269.467 29.972C269.28 29.8227 269.122 29.6827 268.991 29.552C268.879 29.4213 268.804 29.2253 268.767 28.964C269.159 28.5907 269.458 28.3107 269.663 28.124C269.887 27.9187 270.13 27.6947 270.391 27.452C270.484 27.3773 270.69 27.1907 271.007 26.892C271.324 26.5747 271.679 26.22 272.071 25.828C272.482 25.4173 272.864 25.0347 273.219 24.68C273.574 24.3253 273.826 24.0733 273.975 23.924C273.676 23.4387 273.471 23.0933 273.359 22.888C273.247 22.664 273.098 22.3653 272.911 21.992C272.799 21.7867 272.696 21.572 272.603 21.348C272.51 21.1053 272.416 20.872 272.323 20.648C272.286 20.536 272.258 20.4147 272.239 20.284C272.239 20.1533 272.211 20.0413 272.155 19.948C272.08 19.724 272.052 19.5187 272.071 19.332C272.108 19.1453 272.183 19.0147 272.295 18.94C272.407 18.9773 272.528 19.0333 272.659 19.108C272.79 19.164 272.92 19.2013 273.051 19.22C273.182 19.2387 273.275 19.276 273.331 19.332C273.406 19.388 273.48 19.444 273.555 19.5C273.648 19.5373 273.704 19.5933 273.723 19.668C273.76 19.7427 273.788 19.8173 273.807 19.892C273.844 19.948 273.891 20.004 273.947 20.06C273.872 20.1533 273.863 20.2467 273.919 20.34C273.975 20.4147 274.012 20.4987 274.031 20.592C274.274 21.3387 274.498 21.9733 274.703 22.496C274.908 23 275.02 23.2707 275.039 23.308C275.095 23.3827 275.151 23.448 275.207 23.504C275.282 23.56 275.375 23.6347 275.487 23.728C275.636 23.2613 275.814 22.748 276.019 22.188C276.224 21.628 276.411 21.1147 276.579 20.648C276.766 20.1627 276.896 19.8267 276.971 19.64C276.99 19.584 277.008 19.528 277.027 19.472C277.064 19.3973 277.083 19.3227 277.083 19.248C277.064 19.0613 277.102 18.94 277.195 18.884C277.307 18.8093 277.428 18.744 277.559 18.688C278.007 18.744 278.39 18.9773 278.707 19.388C278.782 19.5933 278.828 19.78 278.847 19.948C278.866 20.116 278.828 20.312 278.735 20.536C278.586 20.8533 278.427 21.2267 278.259 21.656C278.11 22.0667 277.923 22.58 277.699 23.196C277.475 23.812 277.186 24.5867 276.831 25.52C276.663 26.024 276.514 26.416 276.383 26.696C276.271 26.9573 276.168 27.1907 276.075 27.396C276 27.6013 275.916 27.844 275.823 28.124C275.748 28.3853 275.655 28.768 275.543 29.272C275.636 29.44 275.655 29.5893 275.599 29.72C275.543 29.832 275.468 29.9347 275.375 30.028C275.282 30.1773 275.142 30.2147 274.955 30.14ZM278.147 28.712C278.016 28.6187 277.932 28.5067 277.895 28.376C277.858 28.2267 277.811 28.096 277.755 27.984C277.587 27.6667 277.456 27.3213 277.363 26.948C277.27 26.5747 277.12 26.2387 276.915 25.94L275.487 25.856L276.327 24.456L277.363 24.512C277.606 24.3627 277.811 24.2133 277.979 24.064C278.166 23.896 278.352 23.7187 278.539 23.532C279.248 22.7667 279.799 22.1787 280.191 21.768C280.583 21.3573 280.872 21.0493 281.059 20.844C281.246 20.6387 281.395 20.4707 281.507 20.34C281.656 20.1347 281.75 19.9573 281.787 19.808C281.843 19.64 281.89 19.5093 281.927 19.416C282.02 19.3973 282.114 19.388 282.207 19.388C282.3 19.388 282.384 19.388 282.459 19.388C282.608 19.388 282.72 19.388 282.795 19.388C282.87 19.388 282.972 19.4347 283.103 19.528C283.42 19.7707 283.514 20.032 283.383 20.312C283.215 20.6853 283.01 21.0307 282.767 21.348C282.524 21.6467 282.198 21.992 281.787 22.384C281.395 22.7573 280.882 23.252 280.247 23.868C280.172 23.924 279.995 24.064 279.715 24.288C279.435 24.512 279.164 24.7267 278.903 24.932C278.66 25.1187 278.539 25.212 278.539 25.212C278.52 25.2493 278.464 25.2773 278.371 25.296C278.296 25.296 278.231 25.3147 278.175 25.352C278.362 25.5947 278.586 25.996 278.847 26.556C279.127 27.0973 279.388 27.6573 279.631 28.236C279.724 28.4413 279.836 28.6467 279.967 28.852C280.116 29.0387 280.266 29.272 280.415 29.552C280.396 29.7013 280.359 29.8507 280.303 30C280.266 30.168 280.21 30.2707 280.135 30.308C279.948 30.42 279.706 30.476 279.407 30.476C279.127 30.476 278.884 30.448 278.679 30.392C278.604 30.112 278.52 29.832 278.427 29.552C278.334 29.272 278.24 28.992 278.147 28.712ZM291.06 20.06C291.321 19.9107 291.592 19.864 291.872 19.92C292.152 19.9573 292.366 20.0787 292.516 20.284C292.684 20.4707 292.712 20.7133 292.6 21.012C292.637 20.9 292.59 20.9747 292.46 21.236C292.348 21.4787 292.198 21.796 292.012 22.188C291.844 22.58 291.685 22.9533 291.536 23.308C291.405 23.644 291.321 23.84 291.284 23.896V23.98C291.582 23.98 291.76 24.0733 291.816 24.26C291.89 24.428 291.918 24.624 291.9 24.848C291.676 24.8853 291.517 24.9507 291.424 25.044C291.33 25.1187 291.209 25.1653 291.06 25.184C291.004 25.184 290.938 25.212 290.864 25.268C290.789 25.324 290.742 25.3893 290.724 25.464C290.705 25.52 290.649 25.744 290.556 26.136C290.481 26.5093 290.388 26.92 290.276 27.368C290.182 27.7973 290.098 28.124 290.024 28.348C289.986 28.4973 289.912 28.6187 289.8 28.712C289.688 28.7867 289.613 28.8333 289.576 28.852C289.202 28.7027 288.95 28.6093 288.82 28.572C288.708 28.516 288.596 28.4413 288.484 28.348C288.465 28.236 288.465 28.1053 288.484 27.956C288.502 27.788 288.549 27.592 288.624 27.368C288.717 27.088 288.792 26.8267 288.848 26.584C288.922 26.3227 288.997 25.9587 289.072 25.492C288.997 25.4547 288.838 25.4547 288.596 25.492C288.372 25.5107 288.129 25.5387 287.868 25.576C287.606 25.6133 287.382 25.6507 287.196 25.688C287.028 25.7253 286.953 25.7347 286.972 25.716C286.878 25.7533 286.701 25.7813 286.44 25.8C286.197 25.8 285.945 25.7907 285.684 25.772C285.441 25.7347 285.264 25.6973 285.152 25.66L284.984 25.744C284.965 25.9307 284.881 26.2107 284.732 26.584C284.582 26.9387 284.508 27.2747 284.508 27.592C284.489 27.8347 284.452 28.0773 284.396 28.32C284.34 28.5627 284.302 28.8147 284.284 29.076C284.265 29.4867 284.153 29.7387 283.948 29.832C283.761 29.9253 283.472 29.86 283.08 29.636C282.986 29.58 282.893 29.5147 282.8 29.44C282.725 29.3653 282.641 29.2813 282.548 29.188L282.996 27.032C283.07 26.7707 283.136 26.528 283.192 26.304C283.248 26.0613 283.313 25.828 283.388 25.604C283.537 25.1933 283.677 24.7733 283.808 24.344C283.957 23.9147 284.125 23.5133 284.312 23.14C284.312 23.14 284.34 23.0467 284.396 22.86C284.47 22.6547 284.554 22.4307 284.648 22.188C284.741 21.9267 284.816 21.7213 284.872 21.572C284.928 21.4227 284.937 21.3947 284.9 21.488C284.956 21.376 285.04 21.1613 285.152 20.844C285.264 20.508 285.366 20.1907 285.46 19.892C285.572 19.5747 285.628 19.4067 285.628 19.388C285.665 19.276 285.721 19.2013 285.796 19.164C285.87 19.108 285.964 19.08 286.076 19.08C286.393 19.0613 286.654 19.136 286.86 19.304C287.065 19.4533 287.177 19.64 287.196 19.864C287.177 19.976 287.168 20.0787 287.168 20.172C287.168 20.2653 287.149 20.34 287.112 20.396L285.656 23.952V24.176C285.842 24.288 286.113 24.3067 286.468 24.232C286.841 24.1387 287.121 24.092 287.308 24.092C287.401 24.0733 287.616 24.0547 287.952 24.036C288.306 24.0173 288.642 24.008 288.96 24.008C289.296 24.008 289.473 24.0173 289.492 24.036C289.697 23.476 289.884 22.9533 290.052 22.468C290.22 21.964 290.453 21.4507 290.752 20.928C290.77 20.8907 290.808 20.7693 290.864 20.564C290.938 20.3587 291.004 20.1907 291.06 20.06ZM296.775 28.936C296.383 29.0107 296.131 29.0387 296.019 29.02C295.926 28.9827 295.776 28.8707 295.571 28.684C295.272 28.5347 295.02 28.348 294.815 28.124C294.628 27.9 294.488 27.6667 294.395 27.424C294.32 27.1627 294.292 26.948 294.311 26.78C294.367 26.1267 294.526 25.4267 294.787 24.68C295.048 23.9333 295.366 23.2147 295.739 22.524C296.112 21.8333 296.514 21.2453 296.943 20.76C297.391 20.256 297.82 19.9293 298.231 19.78C298.604 19.6307 298.959 19.5747 299.295 19.612C299.631 19.6493 299.874 19.8267 300.023 20.144C300.303 20.6853 300.238 21.0307 299.827 21.18C299.771 21.18 299.706 21.208 299.631 21.264C299.556 21.3013 299.519 21.3573 299.519 21.432C299.594 21.4693 299.799 21.4787 300.135 21.46C300.471 21.4227 300.807 21.3667 301.143 21.292C301.498 21.1987 301.731 21.1053 301.843 21.012C301.955 20.956 302.039 20.928 302.095 20.928C302.151 20.928 302.291 20.9467 302.515 20.984C302.832 21.0773 302.991 21.1893 302.991 21.32C302.991 21.3947 303.019 21.4693 303.075 21.544C303.131 21.6 303.196 21.628 303.271 21.628C303.402 21.6467 303.383 21.7307 303.215 21.88C303.066 22.0293 302.804 22.2347 302.431 22.496C302.076 22.72 301.852 22.8693 301.759 22.944C301.684 23 301.675 23.1307 301.731 23.336C301.88 23.6907 301.89 24.1013 301.759 24.568C301.628 25.0347 301.395 25.5107 301.059 25.996C300.723 26.4813 300.312 26.9387 299.827 27.368C299.36 27.7787 298.856 28.1333 298.315 28.432C297.792 28.712 297.279 28.88 296.775 28.936ZM296.299 27.704C296.374 27.704 296.504 27.6667 296.691 27.592C296.878 27.4987 297.027 27.424 297.139 27.368C297.214 27.2933 297.307 27.2093 297.419 27.116C297.55 27.004 297.652 26.9387 297.727 26.92C297.802 26.92 297.895 26.892 298.007 26.836C298.119 26.7613 298.278 26.6213 298.483 26.416C298.688 26.192 298.959 25.8653 299.295 25.436C299.668 25.0253 299.958 24.652 300.163 24.316C300.368 23.9613 300.424 23.6347 300.331 23.336C300.312 23.2613 300.256 23.2147 300.163 23.196C300.088 23.1773 299.986 23.1307 299.855 23.056C299.668 23.056 299.491 23.0093 299.323 22.916C299.174 22.804 298.996 22.664 298.791 22.496L298.343 21.936L297.867 22.412C297.568 22.7107 297.251 23.1587 296.915 23.756C296.598 24.3347 296.327 24.932 296.103 25.548C295.879 26.1453 295.748 26.6213 295.711 26.976C295.692 27.256 295.739 27.4427 295.851 27.536C295.963 27.6293 296.112 27.6853 296.299 27.704ZM306.226 29.356C305.815 29.356 305.507 29.3373 305.302 29.3C305.097 29.2627 304.938 29.2067 304.826 29.132C304.714 29.0573 304.583 28.9547 304.434 28.824C304.359 28.6747 304.266 28.516 304.154 28.348C304.042 28.18 303.949 28.0587 303.874 27.984C303.799 27.704 303.762 27.34 303.762 26.892C303.781 26.444 303.837 25.9587 303.93 25.436C304.042 24.9133 304.191 24.428 304.378 23.98C304.453 23.8307 304.518 23.6813 304.574 23.532C304.63 23.3827 304.658 23.308 304.658 23.308C304.658 23.2147 304.77 22.9907 304.994 22.636C305.237 22.2813 305.498 21.908 305.778 21.516C306.077 21.124 306.319 20.844 306.506 20.676C306.637 20.5267 306.833 20.368 307.094 20.2C307.374 20.032 307.617 19.9107 307.822 19.836C308.027 19.7613 308.233 19.696 308.438 19.64C308.662 19.584 308.914 19.556 309.194 19.556C309.455 19.556 309.698 19.612 309.922 19.724C310.146 19.836 310.361 20.032 310.566 20.312C310.902 20.648 311.089 20.984 311.126 21.32C311.182 21.6373 311.173 21.964 311.098 22.3C311.005 22.6733 310.883 22.9627 310.734 23.168C310.585 23.3547 310.417 23.4387 310.23 23.42C310.043 23.4013 309.829 23.2613 309.586 23C309.511 22.8507 309.474 22.7293 309.474 22.636C309.474 22.524 309.511 22.3653 309.586 22.16C309.661 21.8987 309.661 21.628 309.586 21.348C309.511 21.068 309.39 20.928 309.222 20.928C308.979 20.928 308.709 21.04 308.41 21.264C308.13 21.4693 307.841 21.7307 307.542 22.048C307.411 22.1973 307.225 22.4307 306.982 22.748C306.758 23.0467 306.534 23.3827 306.31 23.756C306.086 24.1107 305.899 24.456 305.75 24.792C305.545 25.408 305.377 25.9027 305.246 26.276C305.134 26.6493 305.078 26.836 305.078 26.836C305.078 26.9107 305.097 26.9853 305.134 27.06C305.19 27.116 305.218 27.1813 305.218 27.256C305.218 27.48 305.349 27.6573 305.61 27.788C305.815 27.9187 306.058 27.9933 306.338 28.012C306.618 28.012 306.963 27.9187 307.374 27.732C307.673 27.5827 307.953 27.3867 308.214 27.144C308.494 26.9013 308.783 26.6867 309.082 26.5C309.287 26.3693 309.446 26.2573 309.558 26.164C309.689 26.0707 309.754 26.0613 309.754 26.136C309.754 26.2107 309.782 26.248 309.838 26.248C309.894 26.248 309.959 26.2107 310.034 26.136C310.146 25.9867 310.267 25.8933 310.398 25.856C310.529 25.8 310.641 25.7813 310.734 25.8C310.846 25.8 310.902 25.828 310.902 25.884C310.865 26.052 310.902 26.192 311.014 26.304C311.014 26.3787 310.986 26.4813 310.93 26.612C310.893 26.724 310.837 26.8173 310.762 26.892C310.669 27.0227 310.529 27.172 310.342 27.34C310.174 27.508 310.015 27.6573 309.866 27.788C309.717 27.9 309.642 27.956 309.642 27.956C309.567 27.9373 309.493 27.956 309.418 28.012C309.362 28.068 309.297 28.1333 309.222 28.208C309.073 28.3387 308.933 28.4413 308.802 28.516C308.671 28.572 308.569 28.6 308.494 28.6C308.363 28.6747 308.261 28.7213 308.186 28.74C308.13 28.7587 308.102 28.8053 308.102 28.88C307.915 29.0667 307.682 29.1973 307.402 29.272C307.141 29.328 306.749 29.356 306.226 29.356ZM313.998 28.628C313.793 28.4973 313.606 28.3293 313.438 28.124C313.27 27.9 313.186 27.62 313.186 27.284C313.186 27.0973 313.224 26.78 313.298 26.332C313.373 25.884 313.476 25.38 313.606 24.82C313.737 24.26 313.868 23.7373 313.998 23.252C314.185 22.916 314.344 22.58 314.474 22.244C314.605 21.908 314.67 21.7027 314.67 21.628C314.708 21.404 314.754 21.1427 314.81 20.844C314.885 20.5453 314.96 20.2747 315.034 20.032C315.109 19.7893 315.165 19.6493 315.202 19.612C315.296 19.5187 315.408 19.4627 315.538 19.444C315.669 19.4067 315.8 19.4253 315.93 19.5C316.08 19.556 316.192 19.6773 316.266 19.864C316.472 20.088 316.574 20.3587 316.574 20.676C316.574 20.9747 316.472 21.4227 316.266 22.02C316.098 22.3933 315.93 22.832 315.762 23.336C315.594 23.84 315.445 24.3067 315.314 24.736C315.202 25.1467 315.137 25.4267 315.118 25.576L314.558 25.744C314.876 25.4453 315.174 25.1373 315.454 24.82C315.734 24.484 315.94 24.2227 316.07 24.036C316.388 23.6067 316.658 23.252 316.882 22.972C317.125 22.6733 317.433 22.3187 317.806 21.908C318.18 21.4787 318.544 21.2173 318.898 21.124C319.272 21.012 319.561 20.956 319.766 20.956C320.177 21.0307 320.504 21.2453 320.746 21.6C321.008 21.936 321.176 22.44 321.25 23.112C321.25 23.3733 321.222 23.6813 321.166 24.036C321.129 24.3907 321.11 24.568 321.11 24.568C321.11 24.568 321.26 24.372 321.558 23.98C321.876 23.588 322.296 23.1587 322.818 22.692C323.173 22.4307 323.518 22.2813 323.854 22.244C324.19 22.188 324.489 22.3 324.75 22.58C325.236 22.8413 325.553 23.2427 325.702 23.784C325.852 24.3067 325.889 24.9787 325.814 25.8C325.758 26.2853 325.749 26.6493 325.786 26.892C325.824 27.116 325.88 27.34 325.954 27.564C326.104 27.6387 326.132 27.7973 326.038 28.04C325.945 28.264 325.833 28.376 325.702 28.376C325.516 28.376 325.301 28.3387 325.058 28.264C324.834 28.1893 324.629 28.068 324.442 27.9C324.274 27.7133 324.19 27.4613 324.19 27.144V25.408C324.19 24.9973 324.172 24.6613 324.134 24.4C324.116 24.1387 324.069 23.98 323.994 23.924C323.789 23.812 323.49 23.9333 323.098 24.288C322.706 24.6427 322.286 25.1187 321.838 25.716C321.39 26.3133 320.97 26.9293 320.578 27.564C320.224 28.1427 320 28.4787 319.906 28.572C319.832 28.6467 319.692 28.6187 319.486 28.488C319.076 28.3573 318.814 28.18 318.702 27.956C318.609 27.7133 318.6 27.4427 318.674 27.144C318.768 26.8267 318.88 26.3973 319.01 25.856C319.16 25.3147 319.3 24.792 319.43 24.288C319.561 23.7653 319.645 23.392 319.682 23.168C319.608 23.0187 319.477 22.972 319.29 23.028C319.122 23.0653 318.945 23.1493 318.758 23.28C318.534 23.4293 318.264 23.7093 317.946 24.12C317.629 24.5307 317.302 25.0067 316.966 25.548C316.742 25.9027 316.509 26.2573 316.266 26.612C316.024 26.948 315.8 27.2467 315.594 27.508C315.389 27.7693 315.212 27.9653 315.062 28.096C314.801 28.5067 314.624 28.7307 314.53 28.768C314.437 28.8053 314.26 28.7587 313.998 28.628ZM335.042 30.028C334.856 30.1213 334.641 30.0653 334.398 29.86C334.156 29.6547 333.988 29.4867 333.894 29.356C333.726 29.132 333.605 28.824 333.53 28.432C333.456 28.04 333.418 27.7133 333.418 27.452C333.418 26.9667 333.381 26.6867 333.306 26.612C333.25 26.5373 333.129 26.6027 332.942 26.808C332.774 26.9947 332.522 27.256 332.186 27.592C332.037 27.7413 331.794 27.9373 331.458 28.18C331.122 28.4227 330.777 28.628 330.422 28.796C330.068 28.964 329.769 29.048 329.526 29.048C329.358 29.0293 329.19 28.936 329.022 28.768C328.854 28.6 328.705 28.4133 328.574 28.208C328.462 27.984 328.378 27.7973 328.322 27.648C328.229 27.368 328.22 26.9107 328.294 26.276C328.388 25.6227 328.537 24.904 328.742 24.12C328.966 23.3173 329.218 22.552 329.498 21.824C329.797 21.0773 330.096 20.4707 330.394 20.004C330.712 19.5187 331.02 19.276 331.318 19.276C331.524 19.276 331.682 19.3973 331.794 19.64C331.925 19.864 332.028 20.0507 332.102 20.2C332.196 20.3867 332.224 20.508 332.186 20.564C332.168 20.62 332.093 20.7227 331.962 20.872C331.813 21.0587 331.636 21.376 331.43 21.824C331.225 22.2533 331.01 22.7293 330.786 23.252C330.581 23.756 330.394 24.2413 330.226 24.708C330.058 25.1747 329.937 25.5293 329.862 25.772C329.825 25.9213 329.769 26.1267 329.694 26.388C329.638 26.6493 329.62 26.8547 329.638 27.004C329.638 27.0227 329.648 27.0693 329.666 27.144C329.685 27.2 329.76 27.228 329.89 27.228C330.301 27.228 330.712 27.06 331.122 26.724C331.552 26.3693 331.972 25.912 332.382 25.352C332.812 24.792 333.213 24.204 333.586 23.588C333.96 22.972 334.305 22.384 334.622 21.824C334.958 21.264 335.248 20.8067 335.49 20.452C335.733 20.0787 335.929 19.8827 336.078 19.864C336.209 19.8453 336.358 19.864 336.526 19.92C336.713 19.9573 336.872 20.0227 337.002 20.116C337.133 20.2093 337.189 20.34 337.17 20.508C336.946 21.1987 336.676 21.8893 336.358 22.58C336.041 23.252 335.742 23.9333 335.462 24.624C335.201 25.3147 335.014 26.024 334.902 26.752C334.828 27.2 334.856 27.6387 334.986 28.068C335.136 28.4973 335.369 28.88 335.686 29.216C335.873 29.4027 335.854 29.58 335.63 29.748C335.406 29.916 335.21 30.0093 335.042 30.028Z" fill="white"/>
</g>
<defs>
<filter id="filter0_d_24_2093" x="0.387939" y="0.484009" width="346.81" height="47.8879" filterUnits="userSpaceOnUse" color-interpolation-filters="sRGB">
<feFlood flood-opacity="0" result="BackgroundImageFix"/>
<feColorMatrix in="SourceAlpha" type="matrix" values="0 0 0 0 0 0 0 0 0 0 0 0 0 0 0 0 0 0 127 0" result="hardAlpha"/>
<feOffset/>
<feGaussianBlur stdDeviation="5"/>
<feComposite in2="hardAlpha" operator="out"/>
<feColorMatrix type="matrix" values="0 0 0 0 0 0 0 0 0 0 0 0 0 0 0 0 0 0 0.25 0"/>
<feBlend mode="normal" in2="BackgroundImageFix" result="effect1_dropShadow_24_2093"/>
<feBlend mode="normal" in="SourceGraphic" in2="effect1_dropShadow_24_2093" result="shape"/>
</filter>
</defs>
</svg>
