<svg width="335" height="29" viewBox="0 0 335 29" fill="none" xmlns="http://www.w3.org/2000/svg">
<path d="M15.694 11.448C18.0407 12.4507 19.214 14.1467 19.214 16.536C19.214 18.648 18.3927 20.312 16.75 21.528C15.1287 22.7227 12.9313 23.32 10.158 23.32C7.534 23.32 5.326 22.68 3.534 21.4C1.742 20.0987 0.653998 18.296 0.269998 15.992H3.534C4.06733 17.5067 4.878 18.616 5.966 19.32C7.07533 20.024 8.47266 20.376 10.158 20.376C11.9927 20.376 13.4113 20.024 14.414 19.32C15.4167 18.616 15.918 17.6773 15.918 16.504C15.918 15.544 15.5233 14.7653 14.734 14.168C13.966 13.5493 12.6647 13.24 10.83 13.24H7.246V10.328H10.83C12.2807 10.328 13.39 9.98667 14.158 9.304C14.9473 8.62133 15.342 7.8 15.342 6.84C15.342 5.688 14.862 4.792 13.902 4.152C12.942 3.512 11.598 3.192 9.87 3.192C8.35533 3.192 7.04333 3.544 5.934 4.248C4.82466 4.93067 4.142 5.95467 3.886 7.32H0.589998C0.845998 5.82667 1.422 4.54667 2.318 3.48C3.214 2.41333 4.31266 1.61333 5.614 1.08C6.93666 0.546665 8.34466 0.279999 9.838 0.279999C11.6087 0.279999 13.1553 0.546665 14.478 1.08C15.822 1.592 16.8567 2.31733 17.582 3.256C18.3287 4.19467 18.702 5.28267 18.702 6.52C18.702 7.56533 18.446 8.51467 17.934 9.368C17.4433 10.2 16.6967 10.8933 15.694 11.448ZM36.9775 20.12V23H35.4415C34.6522 23 34.0335 22.808 33.5855 22.424C33.1375 22.0187 32.8708 21.4427 32.7855 20.696C32.1028 21.4853 31.2175 22.1253 30.1295 22.616C29.0628 23.0853 27.9322 23.32 26.7375 23.32C25.0095 23.32 23.6655 22.8933 22.7055 22.04C21.7668 21.1867 21.2975 20.0453 21.2975 18.616C21.2975 17.3147 21.8095 16.2053 22.8335 15.288C23.8575 14.3493 25.2975 13.784 27.1535 13.592L28.9455 13.4C29.9482 13.2933 30.6948 13.1653 31.1855 13.016C31.6762 12.8453 31.9855 12.664 32.1135 12.472C32.2628 12.28 32.3375 12.024 32.3375 11.704C32.3375 10.9787 31.9855 10.4133 31.2815 10.008C30.5988 9.58133 29.6495 9.368 28.4335 9.368C27.6442 9.368 26.8868 9.58133 26.1615 10.008C25.4362 10.4133 24.9348 11 24.6575 11.768H21.4255C21.7242 10.2747 22.5348 9.05867 23.8575 8.12C25.1802 7.16 26.7588 6.68 28.5935 6.68C30.6202 6.68 32.2842 7.23467 33.5855 8.344C34.8868 9.45333 35.5375 11.0427 35.5375 13.112V19.256C35.5375 19.5333 35.6122 19.7467 35.7615 19.896C35.9108 20.0453 36.1135 20.12 36.3695 20.12H36.9775ZM27.0575 20.696C28.0602 20.696 28.9988 20.4933 29.8735 20.088C30.7482 19.6613 31.4415 19.1067 31.9535 18.424C32.4868 17.72 32.7535 16.9733 32.7535 16.184V14.744C32.0282 15.2987 30.8762 15.6613 29.2975 15.832L27.5055 16.024C26.3108 16.152 25.4788 16.44 25.0095 16.888C24.5402 17.336 24.3055 17.9013 24.3055 18.584C24.3055 19.224 24.5402 19.736 25.0095 20.12C25.5002 20.504 26.1828 20.696 27.0575 20.696ZM54.688 20.088V23H53.408C52.4053 23 51.6373 22.7333 51.104 22.2C50.592 21.6453 50.336 20.8347 50.336 19.768V17.752C50.336 16.7493 49.8453 16.248 48.864 16.248H43.2V23H40.16V7H43.2V13.624H48.448C49.024 13.624 49.4613 13.4747 49.76 13.176C50.08 12.8773 50.24 12.4293 50.24 11.832V10.072C50.24 8.024 51.2 7 53.12 7H54.496V9.912H53.888C53.6533 9.912 53.4613 9.98667 53.312 10.136C53.184 10.264 53.12 10.4453 53.12 10.68V12.408C53.12 13.5813 52.6933 14.4133 51.84 14.904C52.8213 15.3733 53.312 16.184 53.312 17.336V19.32C53.312 19.5547 53.376 19.7467 53.504 19.896C53.6533 20.024 53.8453 20.088 54.08 20.088H54.688ZM72.955 20.12V23H71.419C70.6297 23 70.011 22.808 69.563 22.424C69.115 22.0187 68.8483 21.4427 68.763 20.696C68.0803 21.4853 67.195 22.1253 66.107 22.616C65.0403 23.0853 63.9097 23.32 62.715 23.32C60.987 23.32 59.643 22.8933 58.683 22.04C57.7443 21.1867 57.275 20.0453 57.275 18.616C57.275 17.3147 57.787 16.2053 58.811 15.288C59.835 14.3493 61.275 13.784 63.131 13.592L64.923 13.4C65.9257 13.2933 66.6723 13.1653 67.163 13.016C67.6537 12.8453 67.963 12.664 68.091 12.472C68.2403 12.28 68.315 12.024 68.315 11.704C68.315 10.9787 67.963 10.4133 67.259 10.008C66.5763 9.58133 65.627 9.368 64.411 9.368C63.6217 9.368 62.8643 9.58133 62.139 10.008C61.4137 10.4133 60.9123 11 60.635 11.768H57.403C57.7017 10.2747 58.5123 9.05867 59.835 8.12C61.1577 7.16 62.7363 6.68 64.571 6.68C66.5977 6.68 68.2617 7.23467 69.563 8.344C70.8643 9.45333 71.515 11.0427 71.515 13.112V19.256C71.515 19.5333 71.5897 19.7467 71.739 19.896C71.8883 20.0453 72.091 20.12 72.347 20.12H72.955ZM63.035 20.696C64.0377 20.696 64.9763 20.4933 65.851 20.088C66.7257 19.6613 67.419 19.1067 67.931 18.424C68.4643 17.72 68.731 16.9733 68.731 16.184V14.744C68.0057 15.2987 66.8537 15.6613 65.275 15.832L63.483 16.024C62.2883 16.152 61.4563 16.44 60.987 16.888C60.5177 17.336 60.283 17.9013 60.283 18.584C60.283 19.224 60.5177 19.736 60.987 20.12C61.4777 20.504 62.1603 20.696 63.035 20.696ZM97.7375 20.088V23H96.4575C95.4548 23 94.6868 22.7333 94.1535 22.2C93.6415 21.6453 93.3855 20.8347 93.3855 19.768V17.752C93.3855 16.7493 92.8948 16.248 91.9135 16.248H88.1375V23H85.0975V16.248H81.3215C80.3402 16.248 79.8495 16.7493 79.8495 17.752V19.768C79.8495 20.8347 79.5828 21.6453 79.0495 22.2C78.5375 22.7333 77.7802 23 76.7775 23H75.4975V20.088H76.1055C76.3402 20.088 76.5215 20.024 76.6495 19.896C76.7988 19.7467 76.8735 19.5547 76.8735 19.32V17.336C76.8735 16.184 77.3962 15.3627 78.4415 14.872C77.6522 14.3387 77.2575 13.5173 77.2575 12.408V10.68C77.2575 10.4453 77.1828 10.264 77.0335 10.136C76.9055 9.98667 76.7242 9.912 76.4895 9.912H75.8815V7H77.2575C79.1775 7 80.1375 8.024 80.1375 10.072V11.8C80.1375 12.3973 80.2868 12.8453 80.5855 13.144C80.9055 13.4427 81.3535 13.592 81.9295 13.592H85.0975V7H88.1375V13.592H91.3055C91.8815 13.592 92.3188 13.4427 92.6175 13.144C92.9375 12.8453 93.0975 12.3973 93.0975 11.8V10.072C93.0975 8.024 94.0575 7 95.9775 7H97.3535V9.912H96.7455C96.5108 9.912 96.3188 9.98667 96.1695 10.136C96.0415 10.264 95.9775 10.4453 95.9775 10.68V12.408C95.9775 13.5173 95.5828 14.3387 94.7935 14.872C95.8388 15.3627 96.3615 16.184 96.3615 17.336V19.32C96.3615 19.5547 96.4255 19.7467 96.5535 19.896C96.7028 20.024 96.8948 20.088 97.1295 20.088H97.7375ZM116.151 7V23H113.111V13.144L104.791 20.184V23H101.751V7H104.791V16.664L113.111 9.624V7H116.151ZM132.962 9.88H127.362V23H124.322V9.88H118.722V7H132.962V9.88ZM141.637 6.68C143.28 6.68 144.709 7.032 145.925 7.736C147.162 8.44 148.112 9.44267 148.773 10.744C149.434 12.024 149.765 13.528 149.765 15.256C149.765 15.704 149.754 16.0347 149.733 16.248H136.613C136.826 17.4853 137.402 18.5093 138.341 19.32C139.301 20.1093 140.41 20.504 141.669 20.504C143.738 20.504 145.21 19.7467 146.085 18.232H149.221C148.709 19.7253 147.76 20.952 146.373 21.912C144.986 22.8507 143.418 23.32 141.669 23.32C140.112 23.32 138.704 22.968 137.445 22.264C136.186 21.5387 135.205 20.5467 134.501 19.288C133.797 18.008 133.445 16.5787 133.445 15C133.445 13.4213 133.797 12.0027 134.501 10.744C135.205 9.464 136.176 8.472 137.413 7.768C138.672 7.04267 140.08 6.68 141.637 6.68ZM141.573 9.368C140.314 9.368 139.226 9.76267 138.309 10.552C137.413 11.3413 136.858 12.3547 136.645 13.592H146.469C146.341 12.312 145.818 11.288 144.901 10.52C144.005 9.752 142.896 9.368 141.573 9.368ZM176.912 7L169.136 24.792C168.731 25.88 168.166 26.7653 167.44 27.448C166.715 28.152 165.648 28.504 164.24 28.504C163.238 28.504 162.459 28.4827 161.904 28.44V25.56C162.502 25.6027 163.216 25.624 164.048 25.624C164.646 25.624 165.115 25.464 165.456 25.144C165.819 24.824 166.118 24.3867 166.352 23.832L166.832 22.712L159.056 7H162.608L168.336 19.288L173.712 7H176.912ZM202.302 7V23H199.262V16.44H190.942V23H187.902V7H190.942V13.56H199.262V7H202.302ZM221.354 20.12V23H219.818C219.028 23 218.41 22.808 217.962 22.424C217.514 22.0187 217.247 21.4427 217.162 20.696C216.479 21.4853 215.594 22.1253 214.506 22.616C213.439 23.0853 212.308 23.32 211.114 23.32C209.386 23.32 208.042 22.8933 207.082 22.04C206.143 21.1867 205.674 20.0453 205.674 18.616C205.674 17.3147 206.186 16.2053 207.21 15.288C208.234 14.3493 209.674 13.784 211.53 13.592L213.322 13.4C214.324 13.2933 215.071 13.1653 215.562 13.016C216.052 12.8453 216.362 12.664 216.49 12.472C216.639 12.28 216.714 12.024 216.714 11.704C216.714 10.9787 216.362 10.4133 215.658 10.008C214.975 9.58133 214.026 9.368 212.81 9.368C212.02 9.368 211.263 9.58133 210.538 10.008C209.812 10.4133 209.311 11 209.034 11.768H205.802C206.1 10.2747 206.911 9.05867 208.234 8.12C209.556 7.16 211.135 6.68 212.97 6.68C214.996 6.68 216.66 7.23467 217.962 8.344C219.263 9.45333 219.914 11.0427 219.914 13.112V19.256C219.914 19.5333 219.988 19.7467 220.138 19.896C220.287 20.0453 220.49 20.12 220.746 20.12H221.354ZM211.434 20.696C212.436 20.696 213.375 20.4933 214.25 20.088C215.124 19.6613 215.818 19.1067 216.33 18.424C216.863 17.72 217.13 16.9733 217.13 16.184V14.744C216.404 15.2987 215.252 15.6613 213.674 15.832L211.882 16.024C210.687 16.152 209.855 16.44 209.386 16.888C208.916 17.336 208.682 17.9013 208.682 18.584C208.682 19.224 208.916 19.736 209.386 20.12C209.876 20.504 210.559 20.696 211.434 20.696ZM223.096 15C223.096 13.464 223.47 12.0667 224.216 10.808C224.963 9.528 225.987 8.52533 227.288 7.8C228.59 7.05333 230.03 6.68 231.608 6.68C233.379 6.68 234.968 7.20267 236.376 8.248C237.806 9.272 238.744 10.616 239.192 12.28H235.864C235.502 11.4267 234.915 10.7547 234.104 10.264C233.315 9.752 232.43 9.496 231.448 9.496C230.446 9.496 229.55 9.74133 228.76 10.232C227.971 10.7013 227.352 11.3627 226.904 12.216C226.456 13.048 226.232 13.976 226.232 15C226.232 16.024 226.456 16.9627 226.904 17.816C227.352 18.648 227.971 19.3093 228.76 19.8C229.55 20.2693 230.446 20.504 231.448 20.504C232.43 20.504 233.315 20.2587 234.104 19.768C234.915 19.256 235.502 18.5733 235.864 17.72H239.192C238.744 19.384 237.806 20.7387 236.376 21.784C234.968 22.808 233.379 23.32 231.608 23.32C230.03 23.32 228.59 22.9573 227.288 22.232C225.987 21.4853 224.963 20.4827 224.216 19.224C223.47 17.944 223.096 16.536 223.096 15ZM264.976 20.12V23H263.44C262.651 23 262.032 22.808 261.584 22.424C261.136 22.0187 260.87 21.4427 260.784 20.696C260.102 21.4853 259.216 22.1253 258.128 22.616C257.062 23.0853 255.931 23.32 254.736 23.32C253.008 23.32 251.664 22.8933 250.704 22.04C249.766 21.1867 249.296 20.0453 249.296 18.616C249.296 17.3147 249.808 16.2053 250.832 15.288C251.856 14.3493 253.296 13.784 255.152 13.592L256.944 13.4C257.947 13.2933 258.694 13.1653 259.184 13.016C259.675 12.8453 259.984 12.664 260.112 12.472C260.262 12.28 260.336 12.024 260.336 11.704C260.336 10.9787 259.984 10.4133 259.28 10.008C258.598 9.58133 257.648 9.368 256.432 9.368C255.643 9.368 254.886 9.58133 254.16 10.008C253.435 10.4133 252.934 11 252.656 11.768H249.424C249.723 10.2747 250.534 9.05867 251.856 8.12C253.179 7.16 254.758 6.68 256.592 6.68C258.619 6.68 260.283 7.23467 261.584 8.344C262.886 9.45333 263.536 11.0427 263.536 13.112V19.256C263.536 19.5333 263.611 19.7467 263.76 19.896C263.91 20.0453 264.112 20.12 264.368 20.12H264.976ZM255.056 20.696C256.059 20.696 256.998 20.4933 257.872 20.088C258.747 19.6613 259.44 19.1067 259.952 18.424C260.486 17.72 260.752 16.9733 260.752 16.184V14.744C260.027 15.2987 258.875 15.6613 257.296 15.832L255.504 16.024C254.31 16.152 253.478 16.44 253.008 16.888C252.539 17.336 252.304 17.9013 252.304 18.584C252.304 19.224 252.539 19.736 253.008 20.12C253.499 20.504 254.182 20.696 255.056 20.696ZM283.615 7L275.839 24.792C275.433 25.88 274.868 26.7653 274.143 27.448C273.417 28.152 272.351 28.504 270.943 28.504C269.94 28.504 269.161 28.4827 268.607 28.44V25.56C269.204 25.6027 269.919 25.624 270.751 25.624C271.348 25.624 271.817 25.464 272.159 25.144C272.521 24.824 272.82 24.3867 273.055 23.832L273.535 22.712L265.759 7H269.311L275.039 19.288L280.415 7H283.615ZM300.138 20.12V26.52H297.194V23H285.226V26.52H282.282V20.12H284.266C285.162 18.9253 285.856 17.3467 286.346 15.384C286.837 13.4 287.082 11.2027 287.082 8.792V7H297.898V20.12H300.138ZM294.922 20.216V9.72H289.93C289.781 14.2 288.928 17.6987 287.37 20.216H294.922ZM317.411 7V23H314.371V13.144L306.051 20.184V23H303.011V7H306.051V16.664L314.371 9.624V7H317.411ZM334.223 9.88H328.623V23H325.583V9.88H319.983V7H334.223V9.88Z" fill="white"/>
</svg>
