<svg width="599" height="52" viewBox="0 0 599 52" fill="none" xmlns="http://www.w3.org/2000/svg">
<path d="M49.96 0.999997V43H44.08V8.5L28.12 43H22.12L6.28 8.8V43H0.4V0.999997H9.04L25.3 35.92L41.5 0.999997H49.96ZM81.0316 0.399998C84.5116 0.399998 87.8516 1.22 91.0516 2.86C94.2516 4.46 96.8716 6.96 98.9116 10.36C100.952 13.72 101.972 17.88 101.972 22.84C101.972 23.72 101.952 24.38 101.912 24.82H66.0916C66.4916 27.34 67.3916 29.6 68.7916 31.6C70.1916 33.6 71.9516 35.16 74.0716 36.28C76.2316 37.4 78.5716 37.96 81.0916 37.96C84.0916 37.96 86.7116 37.24 88.9516 35.8C91.2316 34.36 93.0316 32.38 94.3516 29.86H100.652C99.6916 32.62 98.2116 35.04 96.2116 37.12C94.2516 39.16 91.9516 40.76 89.3116 41.92C86.7116 43.04 83.9716 43.6 81.0916 43.6C77.1716 43.6 73.5716 42.66 70.2916 40.78C67.0516 38.86 64.4916 36.26 62.6116 32.98C60.7716 29.66 59.8516 26 59.8516 22C59.8516 18 60.7516 14.36 62.5516 11.08C64.3916 7.76 66.9316 5.16 70.1716 3.28C73.4116 1.36 77.0316 0.399998 81.0316 0.399998ZM80.8516 6.04C76.8116 6.04 73.4716 7.26 70.8316 9.7C68.1916 12.14 66.5916 15.3 66.0316 19.18H95.6716C95.4716 16.66 94.6316 14.4 93.1516 12.4C91.7116 10.4 89.8916 8.84 87.6916 7.72C85.4916 6.6 83.2116 6.04 80.8516 6.04ZM130.231 18.4C133.031 18.4 135.431 18.94 137.431 20.02C139.471 21.06 141.011 22.52 142.051 24.4C143.131 26.24 143.671 28.34 143.671 30.7C143.671 33.06 143.131 35.18 142.051 37.06C141.011 38.9 139.471 40.36 137.431 41.44C135.431 42.48 133.031 43 130.231 43H111.871V0.999997H141.271V6.64H117.871V18.4H130.231ZM130.051 37.36C132.451 37.36 134.271 36.8 135.511 35.68C136.751 34.52 137.371 32.84 137.371 30.64C137.371 28.44 136.751 26.78 135.511 25.66C134.271 24.54 132.451 23.98 130.051 23.98H117.871V37.36H130.051ZM171.175 0.399998C174.655 0.399998 177.995 1.22 181.195 2.86C184.395 4.46 187.015 6.96 189.055 10.36C191.095 13.72 192.115 17.88 192.115 22.84C192.115 23.72 192.095 24.38 192.055 24.82H156.235C156.635 27.34 157.535 29.6 158.935 31.6C160.335 33.6 162.095 35.16 164.215 36.28C166.375 37.4 168.715 37.96 171.235 37.96C174.235 37.96 176.855 37.24 179.095 35.8C181.375 34.36 183.175 32.38 184.495 29.86H190.795C189.835 32.62 188.355 35.04 186.355 37.12C184.395 39.16 182.095 40.76 179.455 41.92C176.855 43.04 174.115 43.6 171.235 43.6C167.315 43.6 163.715 42.66 160.435 40.78C157.195 38.86 154.635 36.26 152.755 32.98C150.915 29.66 149.995 26 149.995 22C149.995 18 150.895 14.36 152.695 11.08C154.535 7.76 157.075 5.16 160.315 3.28C163.555 1.36 167.175 0.399998 171.175 0.399998ZM170.995 6.04C166.955 6.04 163.615 7.26 160.975 9.7C158.335 12.14 156.735 15.3 156.175 19.18H185.815C185.615 16.66 184.775 14.4 183.295 12.4C181.855 10.4 180.035 8.84 177.835 7.72C175.635 6.6 173.355 6.04 170.995 6.04ZM222.774 0.999997L241.614 43H234.774L219.354 7.6L203.874 43H197.214L216.054 0.999997H222.774ZM267.76 18.4C270.56 18.4 272.96 18.94 274.96 20.02C277 21.06 278.54 22.52 279.58 24.4C280.66 26.24 281.2 28.34 281.2 30.7C281.2 33.06 280.66 35.18 279.58 37.06C278.54 38.9 277 40.36 274.96 41.44C272.96 42.48 270.56 43 267.76 43H249.4V0.999997H255.4V18.4H267.76ZM267.58 37.36C269.98 37.36 271.8 36.8 273.04 35.68C274.28 34.52 274.9 32.84 274.9 30.64C274.9 28.44 274.28 26.78 273.04 25.66C271.8 24.54 269.98 23.98 267.58 23.98H255.4V37.36H267.58ZM330.2 0.999997L345.92 37.24H350.24V52H344.48V43H309.2V52H303.44V37.24H307.76L323.48 0.999997H330.2ZM326.72 7.24L314.18 37.24H339.14L326.72 7.24ZM378.216 0.999997L397.056 43H390.216L374.796 7.6L359.316 43H352.656L371.496 0.999997H378.216ZM435.382 43H429.382V25.6H421.282L407.662 43H400.342L414.322 25.42C410.922 24.94 408.282 23.6 406.402 21.4C404.522 19.16 403.582 16.46 403.582 13.3C403.582 10.94 404.102 8.84 405.142 7C406.222 5.12 407.762 3.66 409.762 2.62C411.802 1.54 414.222 0.999997 417.022 0.999997H435.382V43ZM429.382 20.14V6.46H417.382C414.982 6.46 413.122 7.06 411.802 8.26C410.522 9.42 409.882 11.1 409.882 13.3C409.882 15.5 410.522 17.2 411.802 18.4C413.122 19.56 414.982 20.14 417.382 20.14H429.382Z" fill="white"/>
<path d="M493.086 21.58C495.046 22.62 496.526 23.96 497.526 25.6C498.526 27.2 499.026 29.04 499.026 31.12C499.026 33.4 498.486 35.44 497.406 37.24C496.366 39 494.826 40.4 492.786 41.44C490.746 42.48 488.306 43 485.466 43H466.626V0.999997H485.406C488.126 0.999997 490.466 1.5 492.426 2.5C494.386 3.5 495.866 4.86 496.866 6.58C497.906 8.3 498.426 10.24 498.426 12.4C498.426 14.4 497.986 16.18 497.106 17.74C496.226 19.3 494.886 20.58 493.086 21.58ZM485.106 19.36C487.506 19.36 489.306 18.8 490.506 17.68C491.746 16.52 492.366 14.86 492.366 12.7C492.366 8.58 489.946 6.52 485.106 6.52H472.626V19.36H485.106ZM485.166 37.48C487.646 37.48 489.526 36.92 490.806 35.8C492.086 34.68 492.726 33.04 492.726 30.88C492.726 28.8 492.086 27.24 490.806 26.2C489.526 25.12 487.646 24.58 485.166 24.58H472.626V37.48H485.166ZM541.568 0.999997H547.388V43H541.568V35.02C539.768 37.54 537.548 39.56 534.908 41.08C532.308 42.6 529.508 43.36 526.508 43.36C522.508 43.36 518.928 42.44 515.768 40.6C512.608 38.76 510.128 36.22 508.328 32.98C506.528 29.74 505.628 26.08 505.628 22C505.628 17.92 506.528 14.26 508.328 11.02C510.128 7.78 512.608 5.24 515.768 3.4C518.928 1.56 522.508 0.639998 526.508 0.639998C529.508 0.639998 532.308 1.4 534.908 2.92C537.548 4.44 539.768 6.46 541.568 8.98V0.999997ZM526.748 37.84C529.588 37.84 532.128 37.16 534.368 35.8C536.608 34.44 538.368 32.56 539.648 30.16C540.928 27.76 541.568 25.04 541.568 22C541.568 18.96 540.928 16.24 539.648 13.84C538.368 11.44 536.608 9.56 534.368 8.2C532.128 6.84 529.588 6.16 526.748 6.16C523.908 6.16 521.368 6.84 519.128 8.2C516.888 9.56 515.128 11.44 513.848 13.84C512.568 16.24 511.928 18.96 511.928 22C511.928 25.04 512.568 27.76 513.848 30.16C515.128 32.56 516.888 34.44 519.128 35.8C521.368 37.16 523.908 37.84 526.748 37.84ZM557.291 22C557.291 18 558.231 14.36 560.111 11.08C562.031 7.76 564.631 5.16 567.911 3.28C571.191 1.36 574.831 0.399998 578.831 0.399998C581.911 0.399998 584.791 0.999998 587.471 2.2C590.151 3.36 592.451 5.04 594.371 7.24C596.331 9.4 597.771 11.92 598.691 14.8H592.031C590.791 12.12 589.031 10.02 586.751 8.5C584.511 6.94 581.871 6.16 578.831 6.16C575.991 6.16 573.411 6.86 571.091 8.26C568.771 9.66 566.931 11.58 565.571 14.02C564.251 16.42 563.591 19.08 563.591 22C563.591 24.92 564.251 27.6 565.571 30.04C566.931 32.44 568.771 34.34 571.091 35.74C573.411 37.14 575.991 37.84 578.831 37.84C581.871 37.84 584.511 37.08 586.751 35.56C589.031 34 590.791 31.88 592.031 29.2H598.691C597.771 32.08 596.331 34.62 594.371 36.82C592.451 38.98 590.151 40.66 587.471 41.86C584.791 43.02 581.911 43.6 578.831 43.6C574.831 43.6 571.191 42.66 567.911 40.78C564.631 38.86 562.031 36.26 560.111 32.98C558.231 29.66 557.291 26 557.291 22Z" fill="#FFD600"/>
</svg>
