<svg width="394" height="24" viewBox="0 0 394 24" fill="none" xmlns="http://www.w3.org/2000/svg">
<path d="M19.6512 0.599998V23H16.4512V13.336H3.65124V23H0.451243V0.599998H3.65124V10.264H16.4512V0.599998H19.6512ZM31.372 6.68C33.0147 6.68 34.444 7.032 35.66 7.736C36.8973 8.44 37.8467 9.44267 38.508 10.744C39.1693 12.024 39.5 13.528 39.5 15.256C39.5 15.704 39.4893 16.0347 39.468 16.248H26.348C26.5613 17.4853 27.1373 18.5093 28.076 19.32C29.036 20.1093 30.1453 20.504 31.404 20.504C33.4733 20.504 34.9453 19.7467 35.82 18.232H38.956C38.444 19.7253 37.4947 20.952 36.108 21.912C34.7213 22.8507 33.1533 23.32 31.404 23.32C29.8467 23.32 28.4387 22.968 27.18 22.264C25.9213 21.5387 24.94 20.5467 24.236 19.288C23.532 18.008 23.18 16.5787 23.18 15C23.18 13.4213 23.532 12.0027 24.236 10.744C24.94 9.464 25.9107 8.472 27.148 7.768C28.4067 7.04267 29.8147 6.68 31.372 6.68ZM31.308 9.368C30.0493 9.368 28.9613 9.76267 28.044 10.552C27.148 11.3413 26.5933 12.3547 26.38 13.592H36.204C36.076 12.312 35.5533 11.288 34.636 10.52C33.74 9.752 32.6307 9.368 31.308 9.368ZM62.5425 23H59.5025V11.32L54.1265 23H51.1185L45.7425 11.416V23H42.7025V7H46.8625L52.6865 19.832L58.4465 7H62.5425V23ZM81.5912 7V23H78.5512V16.44H70.2312V23H67.1912V7H70.2312V13.56H78.5512V7H81.5912ZM93.3145 23.32C91.7358 23.32 90.2958 22.9573 88.9945 22.232C87.6932 21.4853 86.6692 20.4827 85.9225 19.224C85.1758 17.944 84.8025 16.536 84.8025 15C84.8025 13.464 85.1758 12.0667 85.9225 10.808C86.6692 9.528 87.6932 8.52533 88.9945 7.8C90.2958 7.05333 91.7358 6.68 93.3145 6.68C94.8718 6.68 96.2905 7.05333 97.5705 7.8C98.8718 8.52533 99.8958 9.528 100.642 10.808C101.389 12.0667 101.762 13.464 101.762 15C101.762 16.536 101.389 17.944 100.642 19.224C99.8958 20.4827 98.8718 21.4853 97.5705 22.232C96.2905 22.9573 94.8718 23.32 93.3145 23.32ZM93.3145 20.504C94.2958 20.504 95.1918 20.2693 96.0025 19.8C96.8132 19.3093 97.4532 18.648 97.9225 17.816C98.3918 16.9627 98.6265 16.024 98.6265 15C98.6265 13.976 98.3918 13.048 97.9225 12.216C97.4532 11.3627 96.8132 10.7013 96.0025 10.232C95.1918 9.74133 94.2958 9.496 93.3145 9.496C92.3118 9.496 91.3945 9.74133 90.5625 10.232C89.7518 10.7013 89.1118 11.3627 88.6425 12.216C88.1732 13.048 87.9385 13.976 87.9385 15C87.9385 16.024 88.1732 16.9627 88.6425 17.816C89.1118 18.648 89.7518 19.3093 90.5625 19.8C91.3945 20.2693 92.3118 20.504 93.3145 20.504ZM116.15 9.88H107.99V23H104.95V7H116.15V9.88ZM125.167 23.32C123.588 23.32 122.148 22.9573 120.847 22.232C119.546 21.4853 118.522 20.4827 117.775 19.224C117.028 17.944 116.655 16.536 116.655 15C116.655 13.464 117.028 12.0667 117.775 10.808C118.522 9.528 119.546 8.52533 120.847 7.8C122.148 7.05333 123.588 6.68 125.167 6.68C126.724 6.68 128.143 7.05333 129.423 7.8C130.724 8.52533 131.748 9.528 132.495 10.808C133.242 12.0667 133.615 13.464 133.615 15C133.615 16.536 133.242 17.944 132.495 19.224C131.748 20.4827 130.724 21.4853 129.423 22.232C128.143 22.9573 126.724 23.32 125.167 23.32ZM125.167 20.504C126.148 20.504 127.044 20.2693 127.855 19.8C128.666 19.3093 129.306 18.648 129.775 17.816C130.244 16.9627 130.479 16.024 130.479 15C130.479 13.976 130.244 13.048 129.775 12.216C129.306 11.3627 128.666 10.7013 127.855 10.232C127.044 9.74133 126.148 9.496 125.167 9.496C124.164 9.496 123.247 9.74133 122.415 10.232C121.604 10.7013 120.964 11.3627 120.495 12.216C120.026 13.048 119.791 13.976 119.791 15C119.791 16.024 120.026 16.9627 120.495 17.816C120.964 18.648 121.604 19.3093 122.415 19.8C123.247 20.2693 124.164 20.504 125.167 20.504ZM152.363 23.32C150.785 23.32 149.345 22.9573 148.043 22.232C146.742 21.4853 145.718 20.4827 144.971 19.224C144.225 17.944 143.851 16.536 143.851 15C143.851 13.464 144.225 12.0667 144.971 10.808C145.718 9.528 146.742 8.52533 148.043 7.8C149.345 7.05333 150.785 6.68 152.363 6.68C153.921 6.68 155.339 7.05333 156.619 7.8C157.921 8.52533 158.945 9.528 159.691 10.808C160.438 12.0667 160.811 13.464 160.811 15C160.811 16.536 160.438 17.944 159.691 19.224C158.945 20.4827 157.921 21.4853 156.619 22.232C155.339 22.9573 153.921 23.32 152.363 23.32ZM152.363 20.504C153.345 20.504 154.241 20.2693 155.051 19.8C155.862 19.3093 156.502 18.648 156.971 17.816C157.441 16.9627 157.675 16.024 157.675 15C157.675 13.976 157.441 13.048 156.971 12.216C156.502 11.3627 155.862 10.7013 155.051 10.232C154.241 9.74133 153.345 9.496 152.363 9.496C151.361 9.496 150.443 9.74133 149.611 10.232C148.801 10.7013 148.161 11.3627 147.691 12.216C147.222 13.048 146.987 13.976 146.987 15C146.987 16.024 147.222 16.9627 147.691 17.816C148.161 18.648 148.801 19.3093 149.611 19.8C150.443 20.2693 151.361 20.504 152.363 20.504Z" fill="white"/>
<path d="M186.887 7V23H183.847V16.44H175.527V23H172.487V7H175.527V13.56H183.847V7H186.887ZM205.939 20.12V23H204.403C203.613 23 202.995 22.808 202.547 22.424C202.099 22.0187 201.832 21.4427 201.747 20.696C201.064 21.4853 200.179 22.1253 199.091 22.616C198.024 23.0853 196.893 23.32 195.699 23.32C193.971 23.32 192.627 22.8933 191.667 22.04C190.728 21.1867 190.259 20.0453 190.259 18.616C190.259 17.3147 190.771 16.2053 191.795 15.288C192.819 14.3493 194.259 13.784 196.115 13.592L197.907 13.4C198.909 13.2933 199.656 13.1653 200.147 13.016C200.637 12.8453 200.947 12.664 201.075 12.472C201.224 12.28 201.299 12.024 201.299 11.704C201.299 10.9787 200.947 10.4133 200.243 10.008C199.56 9.58133 198.611 9.368 197.395 9.368C196.605 9.368 195.848 9.58133 195.123 10.008C194.397 10.4133 193.896 11 193.619 11.768H190.387C190.685 10.2747 191.496 9.05867 192.819 8.12C194.141 7.16 195.72 6.68 197.555 6.68C199.581 6.68 201.245 7.23467 202.547 8.344C203.848 9.45333 204.499 11.0427 204.499 13.112V19.256C204.499 19.5333 204.573 19.7467 204.723 19.896C204.872 20.0453 205.075 20.12 205.331 20.12H205.939ZM196.019 20.696C197.021 20.696 197.96 20.4933 198.835 20.088C199.709 19.6613 200.403 19.1067 200.915 18.424C201.448 17.72 201.715 16.9733 201.715 16.184V14.744C200.989 15.2987 199.837 15.6613 198.259 15.832L196.467 16.024C195.272 16.152 194.44 16.44 193.971 16.888C193.501 17.336 193.267 17.9013 193.267 18.584C193.267 19.224 193.501 19.736 193.971 20.12C194.461 20.504 195.144 20.696 196.019 20.696ZM231.361 7V23H209.121V7H212.161V20.12H218.721V7H221.761V20.12H228.321V7H231.361ZM242.768 6.68C244.411 6.68 245.84 7.032 247.056 7.736C248.294 8.44 249.243 9.44267 249.904 10.744C250.566 12.024 250.896 13.528 250.896 15.256C250.896 15.704 250.886 16.0347 250.864 16.248H237.744C237.958 17.4853 238.534 18.5093 239.472 19.32C240.432 20.1093 241.542 20.504 242.8 20.504C244.87 20.504 246.342 19.7467 247.216 18.232H250.352C249.84 19.7253 248.891 20.952 247.504 21.912C246.118 22.8507 244.55 23.32 242.8 23.32C241.243 23.32 239.835 22.968 238.576 22.264C237.318 21.5387 236.336 20.5467 235.632 19.288C234.928 18.008 234.576 16.5787 234.576 15C234.576 13.4213 234.928 12.0027 235.632 10.744C236.336 9.464 237.307 8.472 238.544 7.768C239.803 7.04267 241.211 6.68 242.768 6.68ZM242.704 9.368C241.446 9.368 240.358 9.76267 239.44 10.552C238.544 11.3413 237.99 12.3547 237.776 13.592H247.6C247.472 12.312 246.95 11.288 246.032 10.52C245.136 9.752 244.027 9.368 242.704 9.368ZM268.499 7V23H265.459V13.144L257.139 20.184V23H254.099V7H257.139V16.664L265.459 9.624V7H268.499ZM261.459 5.432C259.795 5.432 258.429 4.99467 257.363 4.12C256.296 3.24533 255.699 2.072 255.571 0.599998H258.195C258.301 1.41066 258.643 2.05066 259.219 2.52C259.795 2.968 260.541 3.192 261.459 3.192C262.376 3.192 263.123 2.968 263.699 2.52C264.275 2.05066 264.616 1.41066 264.723 0.599998H267.347C267.219 2.072 266.621 3.24533 265.555 4.12C264.488 4.99467 263.123 5.432 261.459 5.432ZM301.479 23H298.439V11.32L293.063 23H290.055L284.679 11.416V23H281.639V7H285.799L291.623 19.832L297.383 7H301.479V23ZM312.88 6.68C314.522 6.68 315.952 7.032 317.168 7.736C318.405 8.44 319.354 9.44267 320.016 10.744C320.677 12.024 321.008 13.528 321.008 15.256C321.008 15.704 320.997 16.0347 320.976 16.248H307.856C308.069 17.4853 308.645 18.5093 309.584 19.32C310.544 20.1093 311.653 20.504 312.912 20.504C314.981 20.504 316.453 19.7467 317.328 18.232H320.464C319.952 19.7253 319.002 20.952 317.616 21.912C316.229 22.8507 314.661 23.32 312.912 23.32C311.354 23.32 309.946 22.968 308.688 22.264C307.429 21.5387 306.448 20.5467 305.744 19.288C305.04 18.008 304.688 16.5787 304.688 15C304.688 13.4213 305.04 12.0027 305.744 10.744C306.448 9.464 307.418 8.472 308.656 7.768C309.914 7.04267 311.322 6.68 312.88 6.68ZM312.816 9.368C311.557 9.368 310.469 9.76267 309.552 10.552C308.656 11.3413 308.101 12.3547 307.888 13.592H317.712C317.584 12.312 317.061 11.288 316.144 10.52C315.248 9.752 314.138 9.368 312.816 9.368ZM331.826 7.48C333.277 7.48 334.61 7.832 335.826 8.536C337.042 9.21867 337.991 10.1573 338.674 11.352C339.378 12.5467 339.73 13.8693 339.73 15.32C339.73 16.792 339.367 18.1467 338.642 19.384C337.938 20.6 336.957 21.56 335.698 22.264C334.461 22.968 333.095 23.32 331.602 23.32C330.087 23.32 328.701 22.968 327.442 22.264C326.205 21.5387 325.223 20.536 324.498 19.256C323.773 17.976 323.41 16.5253 323.41 14.904V8.76C323.41 6.75467 323.911 5.25067 324.914 4.248C325.938 3.224 327.378 2.59467 329.234 2.36L334.962 1.624C335.495 1.56 335.762 1.29333 335.762 0.823999V0.439999H338.834V1.208C338.834 2.08267 338.557 2.78667 338.002 3.32C337.469 3.832 336.839 4.13067 336.114 4.216L329.522 5.08C328.327 5.22933 327.442 5.56 326.866 6.072C326.311 6.56267 326.034 7.34133 326.034 8.408V10.648C326.695 9.64533 327.527 8.86667 328.53 8.312C329.554 7.75733 330.653 7.48 331.826 7.48ZM331.506 20.504C332.445 20.504 333.298 20.28 334.066 19.832C334.855 19.3627 335.474 18.7333 335.922 17.944C336.37 17.1547 336.594 16.28 336.594 15.32C336.594 14.36 336.37 13.4853 335.922 12.696C335.474 11.9067 334.855 11.288 334.066 10.84C333.298 10.3707 332.445 10.136 331.506 10.136C330.546 10.136 329.671 10.3707 328.882 10.84C328.093 11.288 327.474 11.9067 327.026 12.696C326.578 13.4853 326.354 14.36 326.354 15.32C326.354 16.28 326.578 17.1547 327.026 17.944C327.474 18.7333 328.093 19.3627 328.882 19.832C329.671 20.28 330.546 20.504 331.506 20.504ZM349.826 6.68C351.468 6.68 352.898 7.032 354.114 7.736C355.351 8.44 356.3 9.44267 356.962 10.744C357.623 12.024 357.954 13.528 357.954 15.256C357.954 15.704 357.943 16.0347 357.922 16.248H344.802C345.015 17.4853 345.591 18.5093 346.53 19.32C347.49 20.1093 348.599 20.504 349.858 20.504C351.927 20.504 353.399 19.7467 354.274 18.232H357.41C356.898 19.7253 355.948 20.952 354.562 21.912C353.175 22.8507 351.607 23.32 349.858 23.32C348.3 23.32 346.892 22.968 345.634 22.264C344.375 21.5387 343.394 20.5467 342.69 19.288C341.986 18.008 341.634 16.5787 341.634 15C341.634 13.4213 341.986 12.0027 342.69 10.744C343.394 9.464 344.364 8.472 345.602 7.768C346.86 7.04267 348.268 6.68 349.826 6.68ZM349.762 9.368C348.503 9.368 347.415 9.76267 346.498 10.552C345.602 11.3413 345.047 12.3547 344.834 13.592H354.658C354.53 12.312 354.007 11.288 353.09 10.52C352.194 9.752 351.084 9.368 349.762 9.368ZM374.828 23H371.788V9.88H366.188C366.166 12.9947 365.921 15.5227 365.452 17.464C364.982 19.384 364.257 20.8027 363.276 21.72C362.316 22.6373 361.057 23.096 359.5 23.096C359.137 23.096 358.838 23.064 358.604 23V20.216C358.902 20.2587 359.126 20.28 359.276 20.28C360.214 20.28 360.961 19.928 361.516 19.224C362.092 18.4987 362.508 17.3573 362.764 15.8C363.02 14.2213 363.148 12.1307 363.148 9.528V7H374.828V23ZM393.858 7V23H390.818V13.144L382.498 20.184V23H379.458V7H382.498V16.664L390.818 9.624V7H393.858Z" fill="#FFD600"/>
</svg>
