<svg width="278" height="13" viewBox="0 0 278 13" fill="none" xmlns="http://www.w3.org/2000/svg">
<g opacity="0.4">
<path d="M8.97 10H7.67V2.148H2.47V10H1.17V0.899999H8.97V10ZM13.8616 10.13C13.2202 10.13 12.6352 9.98267 12.1066 9.688C11.5779 9.38467 11.1619 8.97733 10.8586 8.466C10.5552 7.946 10.4036 7.374 10.4036 6.75C10.4036 6.126 10.5552 5.55833 10.8586 5.047C11.1619 4.527 11.5779 4.11967 12.1066 3.825C12.6352 3.52167 13.2202 3.37 13.8616 3.37C14.4942 3.37 15.0706 3.52167 15.5906 3.825C16.1192 4.11967 16.5352 4.527 16.8386 5.047C17.1419 5.55833 17.2936 6.126 17.2936 6.75C17.2936 7.374 17.1419 7.946 16.8386 8.466C16.5352 8.97733 16.1192 9.38467 15.5906 9.688C15.0706 9.98267 14.4942 10.13 13.8616 10.13ZM13.8616 8.986C14.2602 8.986 14.6242 8.89067 14.9536 8.7C15.2829 8.50067 15.5429 8.232 15.7336 7.894C15.9242 7.54733 16.0196 7.166 16.0196 6.75C16.0196 6.334 15.9242 5.957 15.7336 5.619C15.5429 5.27233 15.2829 5.00367 14.9536 4.813C14.6242 4.61367 14.2602 4.514 13.8616 4.514C13.4542 4.514 13.0816 4.61367 12.7436 4.813C12.4142 5.00367 12.1542 5.27233 11.9636 5.619C11.7729 5.957 11.6776 6.334 11.6776 6.75C11.6776 7.166 11.7729 7.54733 11.9636 7.894C12.1542 8.232 12.4142 8.50067 12.7436 8.7C13.0816 8.89067 13.4542 8.986 13.8616 8.986ZM24.2595 10.013H23.0245V4.67H20.2425V5.853C20.2425 6.78033 20.1905 7.53867 20.0865 8.128C19.9912 8.71733 19.7875 9.18967 19.4755 9.545C19.1635 9.89167 18.6999 10.065 18.0845 10.065C17.9199 10.065 17.7422 10.0433 17.5515 10V8.856C17.7075 8.882 17.8462 8.895 17.9675 8.895C18.2449 8.895 18.4529 8.80833 18.5915 8.635C18.7389 8.46167 18.8429 8.154 18.9035 7.712C18.9642 7.26133 18.9945 6.60267 18.9945 5.736V3.5H24.2595V10.013ZM26.1503 3.5H27.3853V8.336L30.7653 3.5H32.1303V10H30.8953V5.164L27.5153 10H26.1503V3.5ZM38.9568 4.67H36.6818V10H35.4468V4.67H33.1718V3.5H38.9568V4.67ZM39.9918 3.5H41.2268V8.336L44.6068 3.5H45.9718V10H44.7368V5.164L41.3568 10H39.9918V3.5ZM49.9903 6.984L49.0673 7.842V10H47.8583V3.5H49.0673V6.412L52.1223 3.5H53.7603L50.9133 6.126L54.0333 10H52.3823L49.9903 6.984ZM60.4591 3.5V10H59.2241V9.025C58.9555 9.37167 58.6305 9.64467 58.2491 9.844C57.8678 10.0347 57.4605 10.13 57.0271 10.13C56.4551 10.13 55.9351 9.987 55.4671 9.701C54.9991 9.40633 54.6308 9.00333 54.3621 8.492C54.0935 7.98067 53.9591 7.4 53.9591 6.75C53.9591 6.1 54.0935 5.51933 54.3621 5.008C54.6308 4.49667 54.9991 4.098 55.4671 3.812C55.9351 3.51733 56.4551 3.37 57.0271 3.37C57.4778 3.37 57.8981 3.474 58.2881 3.682C58.6781 3.89 59.0118 4.18033 59.2891 4.553V3.5H60.4591ZM57.2351 8.986C57.6165 8.986 57.9631 8.89067 58.2751 8.7C58.5871 8.50933 58.8298 8.245 59.0031 7.907C59.1765 7.56033 59.2631 7.17467 59.2631 6.75C59.2631 6.32533 59.1765 5.944 59.0031 5.606C58.8298 5.25933 58.5871 4.99067 58.2751 4.8C57.9631 4.60933 57.6165 4.514 57.2351 4.514C56.8538 4.514 56.5115 4.60933 56.2081 4.8C55.9048 4.99067 55.6665 5.25933 55.4931 5.606C55.3198 5.944 55.2331 6.32533 55.2331 6.75C55.2331 7.17467 55.3198 7.56033 55.4931 7.907C55.6665 8.245 55.9048 8.50933 56.2081 8.7C56.5115 8.89067 56.8538 8.986 57.2351 8.986ZM68.6687 10.13C68.0274 10.13 67.4424 9.98267 66.9137 9.688C66.3851 9.38467 65.9691 8.97733 65.6657 8.466C65.3624 7.946 65.2107 7.374 65.2107 6.75C65.2107 6.126 65.3624 5.55833 65.6657 5.047C65.9691 4.527 66.3851 4.11967 66.9137 3.825C67.4424 3.52167 68.0274 3.37 68.6687 3.37C69.3014 3.37 69.8777 3.52167 70.3977 3.825C70.9264 4.11967 71.3424 4.527 71.6457 5.047C71.9491 5.55833 72.1007 6.126 72.1007 6.75C72.1007 7.374 71.9491 7.946 71.6457 8.466C71.3424 8.97733 70.9264 9.38467 70.3977 9.688C69.8777 9.98267 69.3014 10.13 68.6687 10.13ZM68.6687 8.986C69.0674 8.986 69.4314 8.89067 69.7607 8.7C70.0901 8.50067 70.3501 8.232 70.5407 7.894C70.7314 7.54733 70.8267 7.166 70.8267 6.75C70.8267 6.334 70.7314 5.957 70.5407 5.619C70.3501 5.27233 70.0901 5.00367 69.7607 4.813C69.4314 4.61367 69.0674 4.514 68.6687 4.514C68.2614 4.514 67.8887 4.61367 67.5507 4.813C67.2214 5.00367 66.9614 5.27233 66.7707 5.619C66.5801 5.957 66.4847 6.334 66.4847 6.75C66.4847 7.166 66.5801 7.54733 66.7707 7.894C66.9614 8.232 67.2214 8.50067 67.5507 8.7C67.8887 8.89067 68.2614 8.986 68.6687 8.986ZM76.4897 3.695C77.079 3.695 77.6207 3.838 78.1147 4.124C78.6087 4.40133 78.9943 4.78267 79.2717 5.268C79.5577 5.75333 79.7007 6.29067 79.7007 6.88C79.7007 7.478 79.5533 8.02833 79.2587 8.531C78.9727 9.025 78.574 9.415 78.0627 9.701C77.56 9.987 77.0053 10.13 76.3987 10.13C75.7833 10.13 75.22 9.987 74.7087 9.701C74.206 9.40633 73.8073 8.999 73.5127 8.479C73.218 7.959 73.0707 7.36967 73.0707 6.711V4.215C73.0707 3.40033 73.2743 2.78933 73.6817 2.382C74.0977 1.966 74.6827 1.71033 75.4367 1.615L77.7637 1.316C77.9803 1.29 78.0887 1.18167 78.0887 0.991V0.834999H79.3367V1.147C79.3367 1.50233 79.224 1.78833 78.9987 2.005C78.782 2.213 78.5263 2.33433 78.2317 2.369L75.5537 2.72C75.0683 2.78067 74.7087 2.915 74.4747 3.123C74.2493 3.32233 74.1367 3.63867 74.1367 4.072V4.982C74.4053 4.57467 74.7433 4.25833 75.1507 4.033C75.5667 3.80767 76.013 3.695 76.4897 3.695ZM76.3597 8.986C76.741 8.986 77.0877 8.895 77.3997 8.713C77.7203 8.52233 77.9717 8.26667 78.1537 7.946C78.3357 7.62533 78.4267 7.27 78.4267 6.88C78.4267 6.49 78.3357 6.13467 78.1537 5.814C77.9717 5.49333 77.7203 5.242 77.3997 5.06C77.0877 4.86933 76.741 4.774 76.3597 4.774C75.9697 4.774 75.6143 4.86933 75.2937 5.06C74.973 5.242 74.7217 5.49333 74.5397 5.814C74.3577 6.13467 74.2667 6.49 74.2667 6.88C74.2667 7.27 74.3577 7.62533 74.5397 7.946C74.7217 8.26667 74.973 8.52233 75.2937 8.713C75.6143 8.895 75.9697 8.986 76.3597 8.986ZM84.4276 3.37C84.9996 3.37 85.5196 3.51733 85.9876 3.812C86.4556 4.098 86.8239 4.49667 87.0926 5.008C87.3613 5.51933 87.4956 6.1 87.4956 6.75C87.4956 7.4 87.3613 7.98067 87.0926 8.492C86.8239 9.00333 86.4556 9.40633 85.9876 9.701C85.5196 9.987 84.9996 10.13 84.4276 10.13C83.9943 10.13 83.5869 10.0347 83.2056 9.844C82.8243 9.64467 82.4993 9.37167 82.2306 9.025V12.21H80.9956V3.5H82.1656V4.553C82.4429 4.18033 82.7766 3.89 83.1666 3.682C83.5566 3.474 83.9769 3.37 84.4276 3.37ZM84.2196 8.986C84.6009 8.986 84.9433 8.89067 85.2466 8.7C85.5499 8.50933 85.7883 8.245 85.9616 7.907C86.1349 7.56033 86.2216 7.17467 86.2216 6.75C86.2216 6.32533 86.1349 5.944 85.9616 5.606C85.7883 5.25933 85.5499 4.99067 85.2466 4.8C84.9433 4.60933 84.6009 4.514 84.2196 4.514C83.8383 4.514 83.4916 4.60933 83.1796 4.8C82.8676 4.99067 82.6249 5.25933 82.4516 5.606C82.2783 5.944 82.1916 6.32533 82.1916 6.75C82.1916 7.17467 82.2783 7.56033 82.4516 7.907C82.6249 8.245 82.8676 8.50933 83.1796 8.7C83.4916 8.89067 83.8383 8.986 84.2196 8.986ZM94.7771 3.5V10H93.5421V9.025C93.2734 9.37167 92.9484 9.64467 92.5671 9.844C92.1858 10.0347 91.7784 10.13 91.3451 10.13C90.7731 10.13 90.2531 9.987 89.7851 9.701C89.3171 9.40633 88.9488 9.00333 88.6801 8.492C88.4114 7.98067 88.2771 7.4 88.2771 6.75C88.2771 6.1 88.4114 5.51933 88.6801 5.008C88.9488 4.49667 89.3171 4.098 89.7851 3.812C90.2531 3.51733 90.7731 3.37 91.3451 3.37C91.7958 3.37 92.2161 3.474 92.6061 3.682C92.9961 3.89 93.3298 4.18033 93.6071 4.553V3.5H94.7771ZM91.5531 8.986C91.9344 8.986 92.2811 8.89067 92.5931 8.7C92.9051 8.50933 93.1478 8.245 93.3211 7.907C93.4944 7.56033 93.5811 7.17467 93.5811 6.75C93.5811 6.32533 93.4944 5.944 93.3211 5.606C93.1478 5.25933 92.9051 4.99067 92.5931 4.8C92.2811 4.60933 91.9344 4.514 91.5531 4.514C91.1718 4.514 90.8294 4.60933 90.5261 4.8C90.2228 4.99067 89.9844 5.25933 89.8111 5.606C89.6378 5.944 89.5511 6.32533 89.5511 6.75C89.5511 7.17467 89.6378 7.56033 89.8111 7.907C89.9844 8.245 90.2228 8.50933 90.5261 8.7C90.8294 8.89067 91.1718 8.986 91.5531 8.986ZM99.7592 3.695C100.348 3.695 100.89 3.838 101.384 4.124C101.878 4.40133 102.264 4.78267 102.541 5.268C102.827 5.75333 102.97 6.29067 102.97 6.88C102.97 7.478 102.823 8.02833 102.528 8.531C102.242 9.025 101.843 9.415 101.332 9.701C100.829 9.987 100.275 10.13 99.6682 10.13C99.0528 10.13 98.4895 9.987 97.9782 9.701C97.4755 9.40633 97.0768 8.999 96.7822 8.479C96.4875 7.959 96.3402 7.36967 96.3402 6.711V4.215C96.3402 3.40033 96.5438 2.78933 96.9512 2.382C97.3672 1.966 97.9522 1.71033 98.7062 1.615L101.033 1.316C101.25 1.29 101.358 1.18167 101.358 0.991V0.834999H102.606V1.147C102.606 1.50233 102.493 1.78833 102.268 2.005C102.051 2.213 101.796 2.33433 101.501 2.369L98.8232 2.72C98.3378 2.78067 97.9782 2.915 97.7442 3.123C97.5188 3.32233 97.4062 3.63867 97.4062 4.072V4.982C97.6748 4.57467 98.0128 4.25833 98.4202 4.033C98.8362 3.80767 99.2825 3.695 99.7592 3.695ZM99.6292 8.986C100.01 8.986 100.357 8.895 100.669 8.713C100.99 8.52233 101.241 8.26667 101.423 7.946C101.605 7.62533 101.696 7.27 101.696 6.88C101.696 6.49 101.605 6.13467 101.423 5.814C101.241 5.49333 100.99 5.242 100.669 5.06C100.357 4.86933 100.01 4.774 99.6292 4.774C99.2392 4.774 98.8838 4.86933 98.5632 5.06C98.2425 5.242 97.9912 5.49333 97.8092 5.814C97.6272 6.13467 97.5362 6.49 97.5362 6.88C97.5362 7.27 97.6272 7.62533 97.8092 7.946C97.9912 8.26667 98.2425 8.52233 98.5632 8.713C98.8838 8.895 99.2392 8.986 99.6292 8.986ZM107.202 10.13C106.56 10.13 105.975 9.98267 105.447 9.688C104.918 9.38467 104.502 8.97733 104.199 8.466C103.895 7.946 103.744 7.374 103.744 6.75C103.744 6.126 103.895 5.55833 104.199 5.047C104.502 4.527 104.918 4.11967 105.447 3.825C105.975 3.52167 106.56 3.37 107.202 3.37C107.834 3.37 108.411 3.52167 108.931 3.825C109.459 4.11967 109.875 4.527 110.179 5.047C110.482 5.55833 110.634 6.126 110.634 6.75C110.634 7.374 110.482 7.946 110.179 8.466C109.875 8.97733 109.459 9.38467 108.931 9.688C108.411 9.98267 107.834 10.13 107.202 10.13ZM107.202 8.986C107.6 8.986 107.964 8.89067 108.294 8.7C108.623 8.50067 108.883 8.232 109.074 7.894C109.264 7.54733 109.36 7.166 109.36 6.75C109.36 6.334 109.264 5.957 109.074 5.619C108.883 5.27233 108.623 5.00367 108.294 4.813C107.964 4.61367 107.6 4.514 107.202 4.514C106.794 4.514 106.422 4.61367 106.084 4.813C105.754 5.00367 105.494 5.27233 105.304 5.619C105.113 5.957 105.018 6.334 105.018 6.75C105.018 7.166 105.113 7.54733 105.304 7.894C105.494 8.232 105.754 8.50067 106.084 8.7C106.422 8.89067 106.794 8.986 107.202 8.986ZM116.615 4.67H114.34V10H113.105V4.67H110.83V3.5H116.615V4.67ZM119.781 6.984L118.858 7.842V10H117.649V3.5H118.858V6.412L121.913 3.5H123.551L120.704 6.126L123.824 10H122.173L119.781 6.984ZM124.729 3.5H125.964V8.336L129.344 3.5H130.709V10H129.474V5.164L126.094 10H124.729V3.5ZM141.894 10H140.659V4.67H137.279V10H136.044V3.5H141.894V10ZM146.527 3.37C147.194 3.37 147.775 3.513 148.269 3.799C148.771 4.085 149.157 4.49233 149.426 5.021C149.694 5.541 149.829 6.152 149.829 6.854C149.829 7.036 149.824 7.17033 149.816 7.257H144.486C144.572 7.75967 144.806 8.17567 145.188 8.505C145.578 8.82567 146.028 8.986 146.54 8.986C147.38 8.986 147.978 8.67833 148.334 8.063H149.608C149.4 8.66967 149.014 9.168 148.451 9.558C147.887 9.93933 147.25 10.13 146.54 10.13C145.907 10.13 145.335 9.987 144.824 9.701C144.312 9.40633 143.914 9.00333 143.628 8.492C143.342 7.972 143.199 7.39133 143.199 6.75C143.199 6.10867 143.342 5.53233 143.628 5.021C143.914 4.501 144.308 4.098 144.811 3.812C145.322 3.51733 145.894 3.37 146.527 3.37ZM146.501 4.462C145.989 4.462 145.547 4.62233 145.175 4.943C144.811 5.26367 144.585 5.67533 144.499 6.178H148.49C148.438 5.658 148.225 5.242 147.853 4.93C147.489 4.618 147.038 4.462 146.501 4.462ZM154.562 3.37C155.134 3.37 155.654 3.51733 156.122 3.812C156.59 4.098 156.958 4.49667 157.227 5.008C157.495 5.51933 157.63 6.1 157.63 6.75C157.63 7.4 157.495 7.98067 157.227 8.492C156.958 9.00333 156.59 9.40633 156.122 9.701C155.654 9.987 155.134 10.13 154.562 10.13C154.128 10.13 153.721 10.0347 153.34 9.844C152.958 9.64467 152.633 9.37167 152.365 9.025V12.21H151.13V3.5H152.3V4.553C152.577 4.18033 152.911 3.89 153.301 3.682C153.691 3.474 154.111 3.37 154.562 3.37ZM154.354 8.986C154.735 8.986 155.077 8.89067 155.381 8.7C155.684 8.50933 155.922 8.245 156.096 7.907C156.269 7.56033 156.356 7.17467 156.356 6.75C156.356 6.32533 156.269 5.944 156.096 5.606C155.922 5.25933 155.684 4.99067 155.381 4.8C155.077 4.60933 154.735 4.514 154.354 4.514C153.972 4.514 153.626 4.60933 153.314 4.8C153.002 4.99067 152.759 5.25933 152.586 5.606C152.412 5.944 152.326 6.32533 152.326 6.75C152.326 7.17467 152.412 7.56033 152.586 7.907C152.759 8.245 153.002 8.50933 153.314 8.7C153.626 8.89067 153.972 8.986 154.354 8.986ZM158.411 6.75C158.411 6.126 158.563 5.55833 158.866 5.047C159.169 4.527 159.585 4.11967 160.114 3.825C160.643 3.52167 161.228 3.37 161.869 3.37C162.588 3.37 163.234 3.58233 163.806 4.007C164.387 4.423 164.768 4.969 164.95 5.645H163.598C163.451 5.29833 163.212 5.02533 162.883 4.826C162.562 4.618 162.203 4.514 161.804 4.514C161.397 4.514 161.033 4.61367 160.712 4.813C160.391 5.00367 160.14 5.27233 159.958 5.619C159.776 5.957 159.685 6.334 159.685 6.75C159.685 7.166 159.776 7.54733 159.958 7.894C160.14 8.232 160.391 8.50067 160.712 8.7C161.033 8.89067 161.397 8.986 161.804 8.986C162.203 8.986 162.562 8.88633 162.883 8.687C163.212 8.479 163.451 8.20167 163.598 7.855H164.95C164.768 8.531 164.387 9.08133 163.806 9.506C163.234 9.922 162.588 10.13 161.869 10.13C161.228 10.13 160.643 9.98267 160.114 9.688C159.585 9.38467 159.169 8.97733 158.866 8.466C158.563 7.946 158.411 7.374 158.411 6.75ZM169.063 10.13C168.421 10.13 167.836 9.98267 167.308 9.688C166.779 9.38467 166.363 8.97733 166.06 8.466C165.756 7.946 165.605 7.374 165.605 6.75C165.605 6.126 165.756 5.55833 166.06 5.047C166.363 4.527 166.779 4.11967 167.308 3.825C167.836 3.52167 168.421 3.37 169.063 3.37C169.695 3.37 170.272 3.52167 170.792 3.825C171.32 4.11967 171.736 4.527 172.04 5.047C172.343 5.55833 172.495 6.126 172.495 6.75C172.495 7.374 172.343 7.946 172.04 8.466C171.736 8.97733 171.32 9.38467 170.792 9.688C170.272 9.98267 169.695 10.13 169.063 10.13ZM169.063 8.986C169.461 8.986 169.825 8.89067 170.155 8.7C170.484 8.50067 170.744 8.232 170.935 7.894C171.125 7.54733 171.221 7.166 171.221 6.75C171.221 6.334 171.125 5.957 170.935 5.619C170.744 5.27233 170.484 5.00367 170.155 4.813C169.825 4.61367 169.461 4.514 169.063 4.514C168.655 4.514 168.283 4.61367 167.945 4.813C167.615 5.00367 167.355 5.27233 167.165 5.619C166.974 5.957 166.879 6.334 166.879 6.75C166.879 7.166 166.974 7.54733 167.165 7.894C167.355 8.232 167.615 8.50067 167.945 8.7C168.283 8.89067 168.655 8.986 169.063 8.986ZM179.64 3.5V10H178.405V7.335H175.025V10H173.79V3.5H175.025V6.165H178.405V3.5H179.64ZM187.444 3.5V10H186.209V9.025C185.941 9.37167 185.616 9.64467 185.234 9.844C184.853 10.0347 184.446 10.13 184.012 10.13C183.44 10.13 182.92 9.987 182.452 9.701C181.984 9.40633 181.616 9.00333 181.347 8.492C181.079 7.98067 180.944 7.4 180.944 6.75C180.944 6.1 181.079 5.51933 181.347 5.008C181.616 4.49667 181.984 4.098 182.452 3.812C182.92 3.51733 183.44 3.37 184.012 3.37C184.463 3.37 184.883 3.474 185.273 3.682C185.663 3.89 185.997 4.18033 186.274 4.553V3.5H187.444ZM184.22 8.986C184.602 8.986 184.948 8.89067 185.26 8.7C185.572 8.50933 185.815 8.245 185.988 7.907C186.162 7.56033 186.248 7.17467 186.248 6.75C186.248 6.32533 186.162 5.944 185.988 5.606C185.815 5.25933 185.572 4.99067 185.26 4.8C184.948 4.60933 184.602 4.514 184.22 4.514C183.839 4.514 183.497 4.60933 183.193 4.8C182.89 4.99067 182.652 5.25933 182.478 5.606C182.305 5.944 182.218 6.32533 182.218 6.75C182.218 7.17467 182.305 7.56033 182.478 7.907C182.652 8.245 182.89 8.50933 183.193 8.7C183.497 8.89067 183.839 8.986 184.22 8.986ZM195.13 10.013H193.895V4.67H191.113V5.853C191.113 6.78033 191.061 7.53867 190.957 8.128C190.862 8.71733 190.658 9.18967 190.346 9.545C190.034 9.89167 189.571 10.065 188.955 10.065C188.791 10.065 188.613 10.0433 188.422 10V8.856C188.578 8.882 188.717 8.895 188.838 8.895C189.116 8.895 189.324 8.80833 189.462 8.635C189.61 8.46167 189.714 8.154 189.774 7.712C189.835 7.26133 189.865 6.60267 189.865 5.736V3.5H195.13V10.013ZM200.232 6.074C200.917 6.074 201.45 6.26033 201.831 6.633C202.221 6.997 202.416 7.465 202.416 8.037C202.416 8.609 202.221 9.08133 201.831 9.454C201.45 9.818 200.917 10 200.232 10H197.021V3.5H198.256V6.074H200.232ZM200.063 8.921C200.418 8.921 200.687 8.84733 200.869 8.7C201.051 8.55267 201.142 8.33167 201.142 8.037C201.142 7.74233 201.051 7.52133 200.869 7.374C200.687 7.22667 200.418 7.153 200.063 7.153H198.256V8.921H200.063ZM209.506 3.5V10H208.271V7.335H204.891V10H203.656V3.5H204.891V6.165H208.271V3.5H209.506ZM214.607 6.074C215.291 6.074 215.824 6.26033 216.206 6.633C216.596 6.997 216.791 7.465 216.791 8.037C216.791 8.609 216.596 9.08133 216.206 9.454C215.824 9.818 215.291 10 214.607 10H211.396V3.5H212.631V6.074H214.607ZM214.438 8.921C214.793 8.921 215.062 8.84733 215.244 8.7C215.426 8.55267 215.517 8.33167 215.517 8.037C215.517 7.74233 215.426 7.52133 215.244 7.374C215.062 7.22667 214.793 7.153 214.438 7.153H212.631V8.921H214.438ZM219.196 3.5V10H217.961V3.5H219.196ZM225.446 10L223.561 7.543L221.663 10H220.168L222.768 6.698L220.272 3.5H221.806L223.587 5.827L225.329 3.5H226.863L224.38 6.659L226.98 10H225.446ZM237.981 8.83V11.43H236.785V10H231.819V11.43H230.623V8.83H231.455C231.637 8.31 231.728 7.31333 231.728 5.84V3.5H237.071V8.83H237.981ZM235.836 8.856V4.644H232.963V5.801C232.963 7.101 232.863 8.11933 232.664 8.856H235.836ZM244.879 3.5V10H243.644V9.025C243.376 9.37167 243.051 9.64467 242.669 9.844C242.288 10.0347 241.881 10.13 241.447 10.13C240.875 10.13 240.355 9.987 239.887 9.701C239.419 9.40633 239.051 9.00333 238.782 8.492C238.514 7.98067 238.379 7.4 238.379 6.75C238.379 6.1 238.514 5.51933 238.782 5.008C239.051 4.49667 239.419 4.098 239.887 3.812C240.355 3.51733 240.875 3.37 241.447 3.37C241.898 3.37 242.318 3.474 242.708 3.682C243.098 3.89 243.432 4.18033 243.709 4.553V3.5H244.879ZM241.655 8.986C242.037 8.986 242.383 8.89067 242.695 8.7C243.007 8.50933 243.25 8.245 243.423 7.907C243.597 7.56033 243.683 7.17467 243.683 6.75C243.683 6.32533 243.597 5.944 243.423 5.606C243.25 5.25933 243.007 4.99067 242.695 4.8C242.383 4.60933 242.037 4.514 241.655 4.514C241.274 4.514 240.932 4.60933 240.628 4.8C240.325 4.99067 240.087 5.25933 239.913 5.606C239.74 5.944 239.653 6.32533 239.653 6.75C239.653 7.17467 239.74 7.56033 239.913 7.907C240.087 8.245 240.325 8.50933 240.628 8.7C240.932 8.89067 241.274 8.986 241.655 8.986ZM252.617 3.5V10H251.382V7.335H248.002V10H246.767V3.5H248.002V6.165H251.382V3.5H252.617ZM260.357 3.5V10H259.122V7.335H255.742V10H254.507V3.5H255.742V6.165H259.122V3.5H260.357ZM265.458 6.074C266.142 6.074 266.675 6.26033 267.057 6.633C267.447 6.997 267.642 7.465 267.642 8.037C267.642 8.609 267.447 9.08133 267.057 9.454C266.675 9.818 266.142 10 265.458 10H262.247V3.5H263.482V6.074H265.458ZM265.289 8.921C265.644 8.921 265.913 8.84733 266.095 8.7C266.277 8.55267 266.368 8.33167 266.368 8.037C266.368 7.74233 266.277 7.52133 266.095 7.374C265.913 7.22667 265.644 7.153 265.289 7.153H263.482V8.921H265.289ZM270.047 3.5V10H268.812V3.5H270.047ZM276.297 10L274.412 7.543L272.514 10H271.019L273.619 6.698L271.123 3.5H272.657L274.438 5.827L276.18 3.5H277.714L275.231 6.659L277.831 10H276.297Z" fill="white"/>
<path d="M0 11.3H277.961V11.95H0V11.3Z" fill="white"/>
</g>
</svg>
