<svg width="596" height="67" viewBox="0 0 596 67" fill="none" xmlns="http://www.w3.org/2000/svg">
<path d="M13.8 15H11.8V2.92H3.8V15H1.8V0.999999H13.8V15ZM21.3255 15.2C20.3388 15.2 19.4388 14.9733 18.6255 14.52C17.8121 14.0533 17.1721 13.4267 16.7055 12.64C16.2388 11.84 16.0055 10.96 16.0055 10C16.0055 9.04 16.2388 8.16667 16.7055 7.38C17.1721 6.58 17.8121 5.95333 18.6255 5.5C19.4388 5.03333 20.3388 4.8 21.3255 4.8C22.2988 4.8 23.1855 5.03333 23.9855 5.5C24.7988 5.95333 25.4388 6.58 25.9055 7.38C26.3721 8.16667 26.6055 9.04 26.6055 10C26.6055 10.96 26.3721 11.84 25.9055 12.64C25.4388 13.4267 24.7988 14.0533 23.9855 14.52C23.1855 14.9733 22.2988 15.2 21.3255 15.2ZM21.3255 13.44C21.9388 13.44 22.4988 13.2933 23.0055 13C23.5121 12.6933 23.9121 12.28 24.2055 11.76C24.4988 11.2267 24.6455 10.64 24.6455 10C24.6455 9.36 24.4988 8.78 24.2055 8.26C23.9121 7.72667 23.5121 7.31333 23.0055 7.02C22.4988 6.71333 21.9388 6.56 21.3255 6.56C20.6988 6.56 20.1255 6.71333 19.6055 7.02C19.0988 7.31333 18.6988 7.72667 18.4055 8.26C18.1121 8.78 17.9655 9.36 17.9655 10C17.9655 10.64 18.1121 11.2267 18.4055 11.76C18.6988 12.28 19.0988 12.6933 19.6055 13C20.1255 13.2933 20.6988 13.44 21.3255 13.44ZM37.5977 5V15H35.6977V10.9H30.4977V15H28.5977V5H30.4977V9.1H35.6977V5H37.5977ZM45.7847 4.8C46.6647 4.8 47.4647 5.02667 48.1847 5.48C48.9047 5.92 49.4714 6.53333 49.8847 7.32C50.298 8.10667 50.5047 9 50.5047 10C50.5047 11 50.298 11.8933 49.8847 12.68C49.4714 13.4667 48.9047 14.0867 48.1847 14.54C47.4647 14.98 46.6647 15.2 45.7847 15.2C45.118 15.2 44.4914 15.0533 43.9047 14.76C43.318 14.4533 42.818 14.0333 42.4047 13.5V18.4H40.5047V5H42.3047V6.62C42.7314 6.04667 43.2447 5.6 43.8447 5.28C44.4447 4.96 45.0914 4.8 45.7847 4.8ZM45.4647 13.44C46.0514 13.44 46.578 13.2933 47.0447 13C47.5114 12.7067 47.878 12.3 48.1447 11.78C48.4114 11.2467 48.5447 10.6533 48.5447 10C48.5447 9.34667 48.4114 8.76 48.1447 8.24C47.878 7.70667 47.5114 7.29333 47.0447 7C46.578 6.70667 46.0514 6.56 45.4647 6.56C44.878 6.56 44.3447 6.70667 43.8647 7C43.3847 7.29333 43.0114 7.70667 42.7447 8.24C42.478 8.76 42.3447 9.34667 42.3447 10C42.3447 10.6533 42.478 11.2467 42.7447 11.78C43.0114 12.3 43.3847 12.7067 43.8647 13C44.3447 13.2933 44.878 13.44 45.4647 13.44ZM61.707 5V15H59.807V13.5C59.3937 14.0333 58.8937 14.4533 58.307 14.76C57.7204 15.0533 57.0937 15.2 56.427 15.2C55.547 15.2 54.747 14.98 54.027 14.54C53.307 14.0867 52.7404 13.4667 52.327 12.68C51.9137 11.8933 51.707 11 51.707 10C51.707 9 51.9137 8.10667 52.327 7.32C52.7404 6.53333 53.307 5.92 54.027 5.48C54.747 5.02667 55.547 4.8 56.427 4.8C57.1204 4.8 57.767 4.96 58.367 5.28C58.967 5.6 59.4804 6.04667 59.907 6.62V5H61.707ZM56.747 13.44C57.3337 13.44 57.867 13.2933 58.347 13C58.827 12.7067 59.2004 12.3 59.467 11.78C59.7337 11.2467 59.867 10.6533 59.867 10C59.867 9.34667 59.7337 8.76 59.467 8.24C59.2004 7.70667 58.827 7.29333 58.347 7C57.867 6.70667 57.3337 6.56 56.747 6.56C56.1604 6.56 55.6337 6.70667 55.167 7C54.7004 7.29333 54.3337 7.70667 54.067 8.24C53.8004 8.76 53.667 9.34667 53.667 10C53.667 10.6533 53.8004 11.2467 54.067 11.78C54.3337 12.3 54.7004 12.7067 55.167 13C55.6337 13.2933 56.1604 13.44 56.747 13.44ZM71.5317 9.9C72.5184 10.3933 73.0117 11.1533 73.0117 12.18C73.0117 13.0067 72.7117 13.6867 72.1117 14.22C71.5117 14.74 70.6851 15 69.6317 15H64.6117V5H69.6317C70.6317 5 71.4184 5.26 71.9917 5.78C72.5784 6.28667 72.8717 6.93333 72.8717 7.72C72.8717 8.18667 72.7584 8.61333 72.5317 9C72.3184 9.37333 71.9851 9.67333 71.5317 9.9ZM69.4117 9.16C69.9051 9.16 70.2784 9.04667 70.5317 8.82C70.7851 8.59333 70.9117 8.26 70.9117 7.82C70.9117 7.00667 70.4117 6.6 69.4117 6.6H66.4717V9.16H69.4117ZM69.4317 13.4C69.9651 13.4 70.3651 13.2867 70.6317 13.06C70.9117 12.82 71.0517 12.48 71.0517 12.04C71.0517 11.6267 70.9117 11.3133 70.6317 11.1C70.3651 10.8733 69.9651 10.76 69.4317 10.76H66.4717V13.4H69.4317ZM75.1125 5H77.0125V12.44L82.2125 5H84.3125V15H82.4125V7.56L77.2125 15H75.1125V5ZM96.1348 15.02H94.2348V6.8H89.9548V8.62C89.9548 10.0467 89.8748 11.2133 89.7148 12.12C89.5682 13.0267 89.2548 13.7533 88.7748 14.3C88.2948 14.8333 87.5815 15.1 86.6348 15.1C86.3815 15.1 86.1082 15.0667 85.8148 15V13.24C86.0548 13.28 86.2682 13.3 86.4548 13.3C86.8815 13.3 87.2015 13.1667 87.4148 12.9C87.6415 12.6333 87.8015 12.16 87.8948 11.48C87.9882 10.7867 88.0348 9.77333 88.0348 8.44V5H96.1348V15.02ZM103.464 15.2C102.477 15.2 101.577 14.9733 100.764 14.52C99.9504 14.0533 99.3104 13.4267 98.8437 12.64C98.3771 11.84 98.1437 10.96 98.1437 10C98.1437 9.04 98.3771 8.16667 98.8437 7.38C99.3104 6.58 99.9504 5.95333 100.764 5.5C101.577 5.03333 102.477 4.8 103.464 4.8C104.437 4.8 105.324 5.03333 106.124 5.5C106.937 5.95333 107.577 6.58 108.044 7.38C108.51 8.16667 108.744 9.04 108.744 10C108.744 10.96 108.51 11.84 108.044 12.64C107.577 13.4267 106.937 14.0533 106.124 14.52C105.324 14.9733 104.437 15.2 103.464 15.2ZM103.464 13.44C104.077 13.44 104.637 13.2933 105.144 13C105.65 12.6933 106.05 12.28 106.344 11.76C106.637 11.2267 106.784 10.64 106.784 10C106.784 9.36 106.637 8.78 106.344 8.26C106.05 7.72667 105.65 7.31333 105.144 7.02C104.637 6.71333 104.077 6.56 103.464 6.56C102.837 6.56 102.264 6.71333 101.744 7.02C101.237 7.31333 100.837 7.72667 100.544 8.26C100.25 8.78 100.104 9.36 100.104 10C100.104 10.64 100.25 11.2267 100.544 11.76C100.837 12.28 101.237 12.6933 101.744 13C102.264 13.2933 102.837 13.44 103.464 13.44ZM109.934 10C109.934 9.04 110.167 8.16667 110.634 7.38C111.1 6.58 111.74 5.95333 112.554 5.5C113.367 5.03333 114.267 4.8 115.254 4.8C116.36 4.8 117.354 5.12667 118.234 5.78C119.127 6.42 119.714 7.26 119.994 8.3H117.914C117.687 7.76667 117.32 7.34667 116.814 7.04C116.32 6.72 115.767 6.56 115.154 6.56C114.527 6.56 113.967 6.71333 113.474 7.02C112.98 7.31333 112.594 7.72667 112.314 8.26C112.034 8.78 111.894 9.36 111.894 10C111.894 10.64 112.034 11.2267 112.314 11.76C112.594 12.28 112.98 12.6933 113.474 13C113.967 13.2933 114.527 13.44 115.154 13.44C115.767 13.44 116.32 13.2867 116.814 12.98C117.32 12.66 117.687 12.2333 117.914 11.7H119.994C119.714 12.74 119.127 13.5867 118.234 14.24C117.354 14.88 116.36 15.2 115.254 15.2C114.267 15.2 113.367 14.9733 112.554 14.52C111.74 14.0533 111.1 13.4267 110.634 12.64C110.167 11.84 109.934 10.96 109.934 10ZM126.743 8.96C127.796 8.96 128.616 9.24667 129.203 9.82C129.803 10.38 130.103 11.1 130.103 11.98C130.103 12.86 129.803 13.5867 129.203 14.16C128.616 14.72 127.796 15 126.743 15H121.803V5H123.703V8.96H126.743ZM126.483 13.34C127.03 13.34 127.443 13.2267 127.723 13C128.003 12.7733 128.143 12.4333 128.143 11.98C128.143 11.5267 128.003 11.1867 127.723 10.96C127.443 10.7333 127.03 10.62 126.483 10.62H123.703V13.34H126.483ZM144.916 6.8H141.416V15H139.516V6.8H136.016V5H144.916V6.8ZM150.538 15.2C149.551 15.2 148.651 14.9733 147.838 14.52C147.025 14.0533 146.385 13.4267 145.918 12.64C145.451 11.84 145.218 10.96 145.218 10C145.218 9.04 145.451 8.16667 145.918 7.38C146.385 6.58 147.025 5.95333 147.838 5.5C148.651 5.03333 149.551 4.8 150.538 4.8C151.511 4.8 152.398 5.03333 153.198 5.5C154.011 5.95333 154.651 6.58 155.118 7.38C155.585 8.16667 155.818 9.04 155.818 10C155.818 10.96 155.585 11.84 155.118 12.64C154.651 13.4267 154.011 14.0533 153.198 14.52C152.398 14.9733 151.511 15.2 150.538 15.2ZM150.538 13.44C151.151 13.44 151.711 13.2933 152.218 13C152.725 12.6933 153.125 12.28 153.418 11.76C153.711 11.2267 153.858 10.64 153.858 10C153.858 9.36 153.711 8.78 153.418 8.26C153.125 7.72667 152.725 7.31333 152.218 7.02C151.711 6.71333 151.151 6.56 150.538 6.56C149.911 6.56 149.338 6.71333 148.818 7.02C148.311 7.31333 147.911 7.72667 147.618 8.26C147.325 8.78 147.178 9.36 147.178 10C147.178 10.64 147.325 11.2267 147.618 11.76C147.911 12.28 148.311 12.6933 148.818 13C149.338 13.2933 149.911 13.44 150.538 13.44ZM163.41 8.1V9.9H157.61V8.1H163.41ZM173.904 5V15H172.004V11.12H168.804C167.777 11.12 166.971 10.82 166.384 10.22C165.797 9.62 165.504 8.85333 165.504 7.92V5H167.404V7.86C167.404 8.38 167.537 8.76667 167.804 9.02C168.084 9.27333 168.517 9.4 169.104 9.4H172.004V5H173.904ZM184.4 6.8H180.9V15H179V6.8H175.5V5H184.4V6.8ZM190.022 15.2C189.035 15.2 188.135 14.9733 187.322 14.52C186.508 14.0533 185.868 13.4267 185.402 12.64C184.935 11.84 184.702 10.96 184.702 10C184.702 9.04 184.935 8.16667 185.402 7.38C185.868 6.58 186.508 5.95333 187.322 5.5C188.135 5.03333 189.035 4.8 190.022 4.8C190.995 4.8 191.882 5.03333 192.682 5.5C193.495 5.95333 194.135 6.58 194.602 7.38C195.068 8.16667 195.302 9.04 195.302 10C195.302 10.96 195.068 11.84 194.602 12.64C194.135 13.4267 193.495 14.0533 192.682 14.52C191.882 14.9733 190.995 15.2 190.022 15.2ZM190.022 13.44C190.635 13.44 191.195 13.2933 191.702 13C192.208 12.6933 192.608 12.28 192.902 11.76C193.195 11.2267 193.342 10.64 193.342 10C193.342 9.36 193.195 8.78 192.902 8.26C192.608 7.72667 192.208 7.31333 191.702 7.02C191.195 6.71333 190.635 6.56 190.022 6.56C189.395 6.56 188.822 6.71333 188.302 7.02C187.795 7.31333 187.395 7.72667 187.102 8.26C186.808 8.78 186.662 9.36 186.662 10C186.662 10.64 186.808 11.2267 187.102 11.76C187.395 12.28 187.795 12.6933 188.302 13C188.822 13.2933 189.395 13.44 190.022 13.44ZM209.519 9.9C210.506 10.3933 210.999 11.1533 210.999 12.18C210.999 13.0067 210.699 13.6867 210.099 14.22C209.499 14.74 208.673 15 207.619 15H202.599V5H207.619C208.619 5 209.406 5.26 209.979 5.78C210.566 6.28667 210.859 6.93333 210.859 7.72C210.859 8.18667 210.746 8.61333 210.519 9C210.306 9.37333 209.973 9.67333 209.519 9.9ZM207.399 9.16C207.893 9.16 208.266 9.04667 208.519 8.82C208.773 8.59333 208.899 8.26 208.899 7.82C208.899 7.00667 208.399 6.6 207.399 6.6H204.459V9.16H207.399ZM207.419 13.4C207.953 13.4 208.353 13.2867 208.619 13.06C208.899 12.82 209.039 12.48 209.039 12.04C209.039 11.6267 208.899 11.3133 208.619 11.1C208.353 10.8733 207.953 10.76 207.419 10.76H204.459V13.4H207.419ZM218.04 8.96C219.093 8.96 219.913 9.24667 220.5 9.82C221.1 10.38 221.4 11.1 221.4 11.98C221.4 12.86 221.1 13.5867 220.5 14.16C219.913 14.72 219.093 15 218.04 15H213.1V5H215V8.96H218.04ZM217.78 13.34C218.327 13.34 218.74 13.2267 219.02 13C219.3 12.7733 219.44 12.4333 219.44 11.98C219.44 11.5267 219.3 11.1867 219.02 10.96C218.74 10.7333 218.327 10.62 217.78 10.62H215V13.34H217.78ZM225.1 5V15H223.2V5H225.1ZM243.121 5L237.261 18.4H235.201L236.781 14.82L231.901 5H234.161L237.781 12.8L241.021 5H243.121ZM251.542 9.9C252.529 10.3933 253.022 11.1533 253.022 12.18C253.022 13.0067 252.722 13.6867 252.122 14.22C251.522 14.74 250.695 15 249.642 15H244.622V5H249.642C250.642 5 251.429 5.26 252.002 5.78C252.589 6.28667 252.882 6.93333 252.882 7.72C252.882 8.18667 252.769 8.61333 252.542 9C252.329 9.37333 251.995 9.67333 251.542 9.9ZM249.422 9.16C249.915 9.16 250.289 9.04667 250.542 8.82C250.795 8.59333 250.922 8.26 250.922 7.82C250.922 7.00667 250.422 6.6 249.422 6.6H246.482V9.16H249.422ZM249.442 13.4C249.975 13.4 250.375 13.2867 250.642 13.06C250.922 12.82 251.062 12.48 251.062 12.04C251.062 11.6267 250.922 11.3133 250.642 11.1C250.375 10.8733 249.975 10.76 249.442 10.76H246.482V13.4H249.442ZM255.123 5H257.023V12.44L262.223 5H264.323V15H262.423V7.56L257.223 15H255.123V5ZM277.345 13.2V17.2H275.505V15H267.865V17.2H266.025V13.2H267.305C267.585 12.4 267.725 10.8667 267.725 8.6V5H275.945V13.2H277.345ZM274.045 13.24V6.76H269.625V8.54C269.625 10.54 269.472 12.1067 269.165 13.24H274.045ZM283.079 4.8C284.105 4.8 284.999 5.02 285.759 5.46C286.532 5.9 287.125 6.52667 287.539 7.34C287.952 8.14 288.159 9.08 288.159 10.16C288.159 10.44 288.152 10.6467 288.139 10.78H279.939C280.072 11.5533 280.432 12.1933 281.019 12.7C281.619 13.1933 282.312 13.44 283.099 13.44C284.392 13.44 285.312 12.9667 285.859 12.02H287.819C287.499 12.9533 286.905 13.72 286.039 14.32C285.172 14.9067 284.192 15.2 283.099 15.2C282.125 15.2 281.245 14.98 280.459 14.54C279.672 14.0867 279.059 13.4667 278.619 12.68C278.179 11.88 277.959 10.9867 277.959 10C277.959 9.01333 278.179 8.12667 278.619 7.34C279.059 6.54 279.665 5.92 280.439 5.48C281.225 5.02667 282.105 4.8 283.079 4.8ZM283.039 6.48C282.252 6.48 281.572 6.72667 280.999 7.22C280.439 7.71333 280.092 8.34667 279.959 9.12H286.099C286.019 8.32 285.692 7.68 285.119 7.2C284.559 6.72 283.865 6.48 283.039 6.48ZM298.885 15.02H296.985V6.8H292.705V8.62C292.705 10.0467 292.625 11.2133 292.465 12.12C292.318 13.0267 292.005 13.7533 291.525 14.3C291.045 14.8333 290.332 15.1 289.385 15.1C289.132 15.1 288.858 15.0667 288.565 15V13.24C288.805 13.28 289.018 13.3 289.205 13.3C289.632 13.3 289.952 13.1667 290.165 12.9C290.392 12.6333 290.552 12.16 290.645 11.48C290.738 10.7867 290.785 9.77333 290.785 8.44V5H298.885V15.02ZM301.794 5H303.694V12.44L308.894 5H310.994V15H309.094V7.56L303.894 15H301.794V5ZM316.016 10.4C316.016 9.78667 316.136 9.27333 316.376 8.86C316.629 8.44667 316.929 8.12 317.276 7.88C317.623 7.64 318.083 7.36667 318.656 7.06C319.349 6.71333 319.869 6.38667 320.216 6.08C320.563 5.76 320.736 5.32667 320.736 4.78C320.736 4.04667 320.429 3.52 319.816 3.2C319.203 2.88 318.489 2.72 317.676 2.72C316.903 2.72 316.223 2.89333 315.636 3.24C315.063 3.57333 314.696 4.09333 314.536 4.8H312.496C312.616 3.94667 312.929 3.22 313.436 2.62C313.956 2.02 314.596 1.56667 315.356 1.26C316.116 0.953333 316.923 0.799999 317.776 0.799999C318.603 0.799999 319.389 0.939999 320.136 1.22C320.896 1.5 321.516 1.93333 321.996 2.52C322.489 3.09333 322.736 3.8 322.736 4.64C322.736 5.32 322.603 5.89333 322.336 6.36C322.069 6.81333 321.749 7.17333 321.376 7.44C321.003 7.70667 320.516 7.99333 319.916 8.3C319.449 8.54 319.089 8.74 318.836 8.9C318.596 9.06 318.389 9.26 318.216 9.5C318.056 9.74 317.976 10.02 317.976 10.34V10.8H316.016V10.4ZM318.136 12.8V15H315.936V12.8H318.136ZM339.892 15L335.512 9.28L331.152 15H328.732L334.272 7.88L328.972 0.999999H331.432L335.552 6.36L339.632 0.999999H342.072L336.792 7.78L342.332 15H339.892ZM347.65 15.2C346.664 15.2 345.764 14.9733 344.95 14.52C344.137 14.0533 343.497 13.4267 343.03 12.64C342.564 11.84 342.33 10.96 342.33 10C342.33 9.04 342.564 8.16667 343.03 7.38C343.497 6.58 344.137 5.95333 344.95 5.5C345.764 5.03333 346.664 4.8 347.65 4.8C348.624 4.8 349.51 5.03333 350.31 5.5C351.124 5.95333 351.764 6.58 352.23 7.38C352.697 8.16667 352.93 9.04 352.93 10C352.93 10.96 352.697 11.84 352.23 12.64C351.764 13.4267 351.124 14.0533 350.31 14.52C349.51 14.9733 348.624 15.2 347.65 15.2ZM347.65 13.44C348.264 13.44 348.824 13.2933 349.33 13C349.837 12.6933 350.237 12.28 350.53 11.76C350.824 11.2267 350.97 10.64 350.97 10C350.97 9.36 350.824 8.78 350.53 8.26C350.237 7.72667 349.837 7.31333 349.33 7.02C348.824 6.71333 348.264 6.56 347.65 6.56C347.024 6.56 346.45 6.71333 345.93 7.02C345.424 7.31333 345.024 7.72667 344.73 8.26C344.437 8.78 344.29 9.36 344.29 10C344.29 10.64 344.437 11.2267 344.73 11.76C345.024 12.28 345.424 12.6933 345.93 13C346.45 13.2933 347.024 13.44 347.65 13.44ZM362.132 6.8H358.632V15H356.732V6.8H353.232V5H362.132V6.8ZM363.724 5H365.624V12.44L370.824 5H372.924V15H371.024V7.56L365.824 15H363.724V5ZM383.427 6.8H379.927V15H378.027V6.8H374.527V5H383.427V6.8ZM388.848 4.8C389.875 4.8 390.768 5.02 391.528 5.46C392.301 5.9 392.895 6.52667 393.308 7.34C393.721 8.14 393.928 9.08 393.928 10.16C393.928 10.44 393.921 10.6467 393.908 10.78H385.708C385.841 11.5533 386.201 12.1933 386.788 12.7C387.388 13.1933 388.081 13.44 388.868 13.44C390.161 13.44 391.081 12.9667 391.628 12.02H393.588C393.268 12.9533 392.675 13.72 391.808 14.32C390.941 14.9067 389.961 15.2 388.868 15.2C387.895 15.2 387.015 14.98 386.228 14.54C385.441 14.0867 384.828 13.4667 384.388 12.68C383.948 11.88 383.728 10.9867 383.728 10C383.728 9.01333 383.948 8.12667 384.388 7.34C384.828 6.54 385.435 5.92 386.208 5.48C386.995 5.02667 387.875 4.8 388.848 4.8ZM388.808 6.48C388.021 6.48 387.341 6.72667 386.768 7.22C386.208 7.71333 385.861 8.34667 385.728 9.12H391.868C391.788 8.32 391.461 7.68 390.888 7.2C390.328 6.72 389.635 6.48 388.808 6.48ZM400.335 10C400.335 9.04 400.568 8.16667 401.035 7.38C401.502 6.58 402.142 5.95333 402.955 5.5C403.768 5.03333 404.668 4.8 405.655 4.8C406.762 4.8 407.755 5.12667 408.635 5.78C409.528 6.42 410.115 7.26 410.395 8.3H408.315C408.088 7.76667 407.722 7.34667 407.215 7.04C406.722 6.72 406.168 6.56 405.555 6.56C404.928 6.56 404.368 6.71333 403.875 7.02C403.382 7.31333 402.995 7.72667 402.715 8.26C402.435 8.78 402.295 9.36 402.295 10C402.295 10.64 402.435 11.2267 402.715 11.76C402.995 12.28 403.382 12.6933 403.875 13C404.368 13.2933 404.928 13.44 405.555 13.44C406.168 13.44 406.722 13.2867 407.215 12.98C407.722 12.66 408.088 12.2333 408.315 11.7H410.395C410.115 12.74 409.528 13.5867 408.635 14.24C407.755 14.88 406.762 15.2 405.655 15.2C404.668 15.2 403.768 14.9733 402.955 14.52C402.142 14.0533 401.502 13.4267 401.035 12.64C400.568 11.84 400.335 10.96 400.335 10ZM416.522 4.8C417.549 4.8 418.442 5.02 419.202 5.46C419.976 5.9 420.569 6.52667 420.982 7.34C421.396 8.14 421.602 9.08 421.602 10.16C421.602 10.44 421.596 10.6467 421.582 10.78H413.382C413.516 11.5533 413.876 12.1933 414.462 12.7C415.062 13.1933 415.756 13.44 416.542 13.44C417.836 13.44 418.756 12.9667 419.302 12.02H421.262C420.942 12.9533 420.349 13.72 419.482 14.32C418.616 14.9067 417.636 15.2 416.542 15.2C415.569 15.2 414.689 14.98 413.902 14.54C413.116 14.0867 412.502 13.4667 412.062 12.68C411.622 11.88 411.402 10.9867 411.402 10C411.402 9.01333 411.622 8.12667 412.062 7.34C412.502 6.54 413.109 5.92 413.882 5.48C414.669 5.02667 415.549 4.8 416.522 4.8ZM416.482 6.48C415.696 6.48 415.016 6.72667 414.442 7.22C413.882 7.71333 413.536 8.34667 413.402 9.12H419.542C419.462 8.32 419.136 7.68 418.562 7.2C418.002 6.72 417.309 6.48 416.482 6.48ZM428.364 5.3C429.271 5.3 430.104 5.52 430.864 5.96C431.624 6.38667 432.217 6.97333 432.644 7.72C433.084 8.46667 433.304 9.29333 433.304 10.2C433.304 11.12 433.077 11.9667 432.624 12.74C432.184 13.5 431.571 14.1 430.784 14.54C430.011 14.98 429.157 15.2 428.224 15.2C427.277 15.2 426.411 14.98 425.624 14.54C424.851 14.0867 424.237 13.46 423.784 12.66C423.331 11.86 423.104 10.9533 423.104 9.94V6.1C423.104 4.84667 423.417 3.90667 424.044 3.28C424.684 2.64 425.584 2.24667 426.744 2.1L430.324 1.64C430.657 1.6 430.824 1.43333 430.824 1.14V0.899999H432.744V1.38C432.744 1.92667 432.571 2.36667 432.224 2.7C431.891 3.02 431.497 3.20667 431.044 3.26L426.924 3.8C426.177 3.89333 425.624 4.1 425.264 4.42C424.917 4.72667 424.744 5.21333 424.744 5.88V7.28C425.157 6.65333 425.677 6.16667 426.304 5.82C426.944 5.47333 427.631 5.3 428.364 5.3ZM428.164 13.44C428.751 13.44 429.284 13.3 429.764 13.02C430.257 12.7267 430.644 12.3333 430.924 11.84C431.204 11.3467 431.344 10.8 431.344 10.2C431.344 9.6 431.204 9.05333 430.924 8.56C430.644 8.06667 430.257 7.68 429.764 7.4C429.284 7.10667 428.751 6.96 428.164 6.96C427.564 6.96 427.017 7.10667 426.524 7.4C426.031 7.68 425.644 8.06667 425.364 8.56C425.084 9.05333 424.944 9.6 424.944 10.2C424.944 10.8 425.084 11.3467 425.364 11.84C425.644 12.3333 426.031 12.7267 426.524 13.02C427.017 13.3 427.564 13.44 428.164 13.44ZM439.614 4.8C440.64 4.8 441.534 5.02 442.294 5.46C443.067 5.9 443.66 6.52667 444.074 7.34C444.487 8.14 444.694 9.08 444.694 10.16C444.694 10.44 444.687 10.6467 444.674 10.78H436.474C436.607 11.5533 436.967 12.1933 437.554 12.7C438.154 13.1933 438.847 13.44 439.634 13.44C440.927 13.44 441.847 12.9667 442.394 12.02H444.354C444.034 12.9533 443.44 13.72 442.574 14.32C441.707 14.9067 440.727 15.2 439.634 15.2C438.66 15.2 437.78 14.98 436.994 14.54C436.207 14.0867 435.594 13.4667 435.154 12.68C434.714 11.88 434.494 10.9867 434.494 10C434.494 9.01333 434.714 8.12667 435.154 7.34C435.594 6.54 436.2 5.92 436.974 5.48C437.76 5.02667 438.64 4.8 439.614 4.8ZM439.574 6.48C438.787 6.48 438.107 6.72667 437.534 7.22C436.974 7.71333 436.627 8.34667 436.494 9.12H442.634C442.554 8.32 442.227 7.68 441.654 7.2C441.094 6.72 440.4 6.48 439.574 6.48ZM459.601 6.8H456.101V15H454.201V6.8H450.701V5H459.601V6.8ZM469.902 5V15H468.002V13.5C467.589 14.0333 467.089 14.4533 466.502 14.76C465.916 15.0533 465.289 15.2 464.622 15.2C463.742 15.2 462.942 14.98 462.222 14.54C461.502 14.0867 460.936 13.4667 460.522 12.68C460.109 11.8933 459.902 11 459.902 10C459.902 9 460.109 8.10667 460.522 7.32C460.936 6.53333 461.502 5.92 462.222 5.48C462.942 5.02667 463.742 4.8 464.622 4.8C465.316 4.8 465.962 4.96 466.562 5.28C467.162 5.6 467.676 6.04667 468.102 6.62V5H469.902ZM464.942 13.44C465.529 13.44 466.062 13.2933 466.542 13C467.022 12.7067 467.396 12.3 467.662 11.78C467.929 11.2467 468.062 10.6533 468.062 10C468.062 9.34667 467.929 8.76 467.662 8.24C467.396 7.70667 467.022 7.29333 466.542 7C466.062 6.70667 465.529 6.56 464.942 6.56C464.356 6.56 463.829 6.70667 463.362 7C462.896 7.29333 462.529 7.70667 462.262 8.24C461.996 8.76 461.862 9.34667 461.862 10C461.862 10.6533 461.996 11.2467 462.262 11.78C462.529 12.3 462.896 12.7067 463.362 13C463.829 13.2933 464.356 13.44 464.942 13.44ZM476.087 10.36L474.667 11.68V15H472.807V5H474.667V9.48L479.367 5H481.887L477.507 9.04L482.307 15H479.767L476.087 10.36ZM492.718 5L486.858 18.4H484.798L486.378 14.82L481.498 5H483.758L487.378 12.8L490.618 5H492.718ZM502.899 4.8C503.859 4.8 504.732 5.03333 505.519 5.5C506.319 5.95333 506.945 6.58 507.399 7.38C507.852 8.16667 508.079 9.04 508.079 10C508.079 10.96 507.852 11.84 507.399 12.64C506.945 13.4267 506.319 14.0533 505.519 14.52C504.732 14.9733 503.859 15.2 502.899 15.2C502.045 15.2 501.252 15.0133 500.519 14.64C499.799 14.2667 499.199 13.7533 498.719 13.1C498.252 12.4467 497.959 11.7133 497.839 10.9H496.119V15H494.219V5H496.119V9.1H497.839C497.959 8.28667 498.252 7.55333 498.719 6.9C499.199 6.24667 499.799 5.73333 500.519 5.36C501.252 4.98667 502.045 4.8 502.899 4.8ZM502.899 13.44C503.499 13.44 504.045 13.2933 504.539 13C505.032 12.6933 505.419 12.28 505.699 11.76C505.979 11.2267 506.119 10.64 506.119 10C506.119 9.36 505.979 8.78 505.699 8.26C505.419 7.72667 505.032 7.31333 504.539 7.02C504.045 6.71333 503.499 6.56 502.899 6.56C502.299 6.56 501.745 6.71333 501.239 7.02C500.745 7.31333 500.352 7.72667 500.059 8.26C499.779 8.78 499.639 9.36 499.639 10C499.639 10.64 499.779 11.2267 500.059 11.76C500.352 12.28 500.745 12.6933 501.239 13C501.745 13.2933 502.299 13.44 502.899 13.44ZM527.777 15H525.877V7.3L521.577 15L517.277 7.34V15H515.377V5H517.977L521.617 11.54L525.217 5H527.777V15ZM534.902 4.8C535.929 4.8 536.822 5.02 537.582 5.46C538.355 5.9 538.949 6.52667 539.362 7.34C539.775 8.14 539.982 9.08 539.982 10.16C539.982 10.44 539.975 10.6467 539.962 10.78H531.762C531.895 11.5533 532.255 12.1933 532.842 12.7C533.442 13.1933 534.135 13.44 534.922 13.44C536.215 13.44 537.135 12.9667 537.682 12.02H539.642C539.322 12.9533 538.729 13.72 537.862 14.32C536.995 14.9067 536.015 15.2 534.922 15.2C533.949 15.2 533.069 14.98 532.282 14.54C531.495 14.0867 530.882 13.4667 530.442 12.68C530.002 11.88 529.782 10.9867 529.782 10C529.782 9.01333 530.002 8.12667 530.442 7.34C530.882 6.54 531.489 5.92 532.262 5.48C533.049 5.02667 533.929 4.8 534.902 4.8ZM534.862 6.48C534.075 6.48 533.395 6.72667 532.822 7.22C532.262 7.71333 531.915 8.34667 531.782 9.12H537.922C537.842 8.32 537.515 7.68 536.942 7.2C536.382 6.72 535.689 6.48 534.862 6.48ZM546.744 5.3C547.65 5.3 548.484 5.52 549.244 5.96C550.004 6.38667 550.597 6.97333 551.024 7.72C551.464 8.46667 551.684 9.29333 551.684 10.2C551.684 11.12 551.457 11.9667 551.004 12.74C550.564 13.5 549.95 14.1 549.164 14.54C548.39 14.98 547.537 15.2 546.604 15.2C545.657 15.2 544.79 14.98 544.004 14.54C543.23 14.0867 542.617 13.46 542.164 12.66C541.71 11.86 541.484 10.9533 541.484 9.94V6.1C541.484 4.84667 541.797 3.90667 542.424 3.28C543.064 2.64 543.964 2.24667 545.124 2.1L548.704 1.64C549.037 1.6 549.204 1.43333 549.204 1.14V0.899999H551.124V1.38C551.124 1.92667 550.95 2.36667 550.604 2.7C550.27 3.02 549.877 3.20667 549.424 3.26L545.304 3.8C544.557 3.89333 544.004 4.1 543.644 4.42C543.297 4.72667 543.124 5.21333 543.124 5.88V7.28C543.537 6.65333 544.057 6.16667 544.684 5.82C545.324 5.47333 546.01 5.3 546.744 5.3ZM546.544 13.44C547.13 13.44 547.664 13.3 548.144 13.02C548.637 12.7267 549.024 12.3333 549.304 11.84C549.584 11.3467 549.724 10.8 549.724 10.2C549.724 9.6 549.584 9.05333 549.304 8.56C549.024 8.06667 548.637 7.68 548.144 7.4C547.664 7.10667 547.13 6.96 546.544 6.96C545.944 6.96 545.397 7.10667 544.904 7.4C544.41 7.68 544.024 8.06667 543.744 8.56C543.464 9.05333 543.324 9.6 543.324 10.2C543.324 10.8 543.464 11.3467 543.744 11.84C544.024 12.3333 544.41 12.7267 544.904 13.02C545.397 13.3 545.944 13.44 546.544 13.44ZM557.993 4.8C559.02 4.8 559.913 5.02 560.673 5.46C561.447 5.9 562.04 6.52667 562.453 7.34C562.867 8.14 563.073 9.08 563.073 10.16C563.073 10.44 563.067 10.6467 563.053 10.78H554.853C554.987 11.5533 555.347 12.1933 555.933 12.7C556.533 13.1933 557.227 13.44 558.013 13.44C559.307 13.44 560.227 12.9667 560.773 12.02H562.733C562.413 12.9533 561.82 13.72 560.953 14.32C560.087 14.9067 559.107 15.2 558.013 15.2C557.04 15.2 556.16 14.98 555.373 14.54C554.587 14.0867 553.973 13.4667 553.533 12.68C553.093 11.88 552.873 10.9867 552.873 10C552.873 9.01333 553.093 8.12667 553.533 7.34C553.973 6.54 554.58 5.92 555.353 5.48C556.14 5.02667 557.02 4.8 557.993 4.8ZM557.953 6.48C557.167 6.48 556.487 6.72667 555.913 7.22C555.353 7.71333 555.007 8.34667 554.873 9.12H561.013C560.933 8.32 560.607 7.68 560.033 7.2C559.473 6.72 558.78 6.48 557.953 6.48ZM573.8 15.02H571.9V6.8H567.62V8.62C567.62 10.0467 567.54 11.2133 567.38 12.12C567.233 13.0267 566.92 13.7533 566.44 14.3C565.96 14.8333 565.246 15.1 564.3 15.1C564.046 15.1 563.773 15.0667 563.48 15V13.24C563.72 13.28 563.933 13.3 564.12 13.3C564.546 13.3 564.866 13.1667 565.08 12.9C565.306 12.6333 565.466 12.16 565.56 11.48C565.653 10.7867 565.7 9.77333 565.7 8.44V5H573.8V15.02ZM581.649 8.96C582.702 8.96 583.522 9.24667 584.109 9.82C584.709 10.38 585.009 11.1 585.009 11.98C585.009 12.86 584.709 13.5867 584.109 14.16C583.522 14.72 582.702 15 581.649 15H576.709V5H578.609V8.96H581.649ZM581.389 13.34C581.935 13.34 582.349 13.2267 582.629 13C582.909 12.7733 583.049 12.4333 583.049 11.98C583.049 11.5267 582.909 11.1867 582.629 10.96C582.349 10.7333 581.935 10.62 581.389 10.62H578.609V13.34H581.389ZM589.036 10.4C589.036 9.78667 589.156 9.27333 589.396 8.86C589.65 8.44667 589.95 8.12 590.296 7.88C590.643 7.64 591.103 7.36667 591.676 7.06C592.37 6.71333 592.89 6.38667 593.236 6.08C593.583 5.76 593.756 5.32667 593.756 4.78C593.756 4.04667 593.45 3.52 592.836 3.2C592.223 2.88 591.51 2.72 590.696 2.72C589.923 2.72 589.243 2.89333 588.656 3.24C588.083 3.57333 587.716 4.09333 587.556 4.8H585.516C585.636 3.94667 585.95 3.22 586.456 2.62C586.976 2.02 587.616 1.56667 588.376 1.26C589.136 0.953333 589.943 0.799999 590.796 0.799999C591.623 0.799999 592.41 0.939999 593.156 1.22C593.916 1.5 594.536 1.93333 595.016 2.52C595.51 3.09333 595.756 3.8 595.756 4.64C595.756 5.32 595.623 5.89333 595.356 6.36C595.09 6.81333 594.77 7.17333 594.396 7.44C594.023 7.70667 593.536 7.99333 592.936 8.3C592.47 8.54 592.11 8.74 591.856 8.9C591.616 9.06 591.41 9.26 591.236 9.5C591.076 9.74 590.996 10.02 590.996 10.34V10.8H589.036V10.4ZM591.156 12.8V15H588.956V12.8H591.156ZM12.3 26.92H7.3V39H5.3V26.92H0.3V25H12.3V26.92ZM20.5953 29V39H18.6953V37.5C18.282 38.0333 17.782 38.4533 17.1953 38.76C16.6086 39.0533 15.982 39.2 15.3153 39.2C14.4353 39.2 13.6353 38.98 12.9153 38.54C12.1953 38.0867 11.6286 37.4667 11.2153 36.68C10.802 35.8933 10.5953 35 10.5953 34C10.5953 33 10.802 32.1067 11.2153 31.32C11.6286 30.5333 12.1953 29.92 12.9153 29.48C13.6353 29.0267 14.4353 28.8 15.3153 28.8C16.0086 28.8 16.6553 28.96 17.2553 29.28C17.8553 29.6 18.3686 30.0467 18.7953 30.62V29H20.5953ZM15.6353 37.44C16.222 37.44 16.7553 37.2933 17.2353 37C17.7153 36.7067 18.0886 36.3 18.3553 35.78C18.622 35.2467 18.7553 34.6533 18.7553 34C18.7553 33.3467 18.622 32.76 18.3553 32.24C18.0886 31.7067 17.7153 31.2933 17.2353 31C16.7553 30.7067 16.222 30.56 15.6353 30.56C15.0486 30.56 14.522 30.7067 14.0553 31C13.5886 31.2933 13.222 31.7067 12.9553 32.24C12.6886 32.76 12.5553 33.3467 12.5553 34C12.5553 34.6533 12.6886 35.2467 12.9553 35.78C13.222 36.3 13.5886 36.7067 14.0553 37C14.522 37.2933 15.0486 37.44 15.6353 37.44ZM26.78 34.36L25.36 35.68V39H23.5V29H25.36V33.48L30.06 29H32.58L28.2 33.04L33 39H30.46L26.78 34.36ZM47.4969 29V39H45.5969V35.12H42.3969C41.3702 35.12 40.5635 34.82 39.9769 34.22C39.3902 33.62 39.0969 32.8533 39.0969 31.92V29H40.9969V31.86C40.9969 32.38 41.1302 32.7667 41.3969 33.02C41.6769 33.2733 42.1102 33.4 42.6969 33.4H45.5969V29H47.4969ZM54.613 28.8C55.6396 28.8 56.533 29.02 57.293 29.46C58.0663 29.9 58.6596 30.5267 59.073 31.34C59.4863 32.14 59.693 33.08 59.693 34.16C59.693 34.44 59.6863 34.6467 59.673 34.78H51.473C51.6063 35.5533 51.9663 36.1933 52.553 36.7C53.153 37.1933 53.8463 37.44 54.633 37.44C55.9263 37.44 56.8463 36.9667 57.393 36.02H59.353C59.033 36.9533 58.4396 37.72 57.573 38.32C56.7063 38.9067 55.7263 39.2 54.633 39.2C53.6596 39.2 52.7796 38.98 51.993 38.54C51.2063 38.0867 50.593 37.4667 50.153 36.68C49.713 35.88 49.493 34.9867 49.493 34C49.493 33.0133 49.713 32.1267 50.153 31.34C50.593 30.54 51.1996 29.92 51.973 29.48C52.7596 29.0267 53.6396 28.8 54.613 28.8ZM54.573 30.48C53.7863 30.48 53.1063 30.7267 52.533 31.22C51.973 31.7133 51.6263 32.3467 51.493 33.12H57.633C57.553 32.32 57.2263 31.68 56.653 31.2C56.093 30.72 55.3996 30.48 54.573 30.48ZM68.6945 30.8H63.5945V39H61.6945V29H68.6945V30.8ZM74.3302 39.2C73.3435 39.2 72.4435 38.9733 71.6302 38.52C70.8168 38.0533 70.1768 37.4267 69.7102 36.64C69.2435 35.84 69.0102 34.96 69.0102 34C69.0102 33.04 69.2435 32.1667 69.7102 31.38C70.1768 30.58 70.8168 29.9533 71.6302 29.5C72.4435 29.0333 73.3435 28.8 74.3302 28.8C75.3035 28.8 76.1902 29.0333 76.9902 29.5C77.8035 29.9533 78.4435 30.58 78.9102 31.38C79.3768 32.1667 79.6102 33.04 79.6102 34C79.6102 34.96 79.3768 35.84 78.9102 36.64C78.4435 37.4267 77.8035 38.0533 76.9902 38.52C76.1902 38.9733 75.3035 39.2 74.3302 39.2ZM74.3302 37.44C74.9435 37.44 75.5035 37.2933 76.0102 37C76.5168 36.6933 76.9168 36.28 77.2102 35.76C77.5035 35.2267 77.6502 34.64 77.6502 34C77.6502 33.36 77.5035 32.78 77.2102 32.26C76.9168 31.7267 76.5168 31.3133 76.0102 31.02C75.5035 30.7133 74.9435 30.56 74.3302 30.56C73.7035 30.56 73.1302 30.7133 72.6102 31.02C72.1035 31.3133 71.7035 31.7267 71.4102 32.26C71.1168 32.78 70.9702 33.36 70.9702 34C70.9702 34.64 71.1168 35.2267 71.4102 35.76C71.7035 36.28 72.1035 36.6933 72.6102 37C73.1302 37.2933 73.7035 37.44 74.3302 37.44ZM97.0278 37.2V41.2H95.1878V39H87.5478V41.2H85.7078V37.2H86.9878C87.2678 36.4 87.4078 34.8667 87.4078 32.6V29H95.6278V37.2H97.0278ZM93.7278 37.24V30.76H89.3078V32.54C89.3078 34.54 89.1545 36.1067 88.8478 37.24H93.7278ZM102.761 28.8C103.788 28.8 104.681 29.02 105.441 29.46C106.215 29.9 106.808 30.5267 107.221 31.34C107.635 32.14 107.841 33.08 107.841 34.16C107.841 34.44 107.835 34.6467 107.821 34.78H99.6214C99.7547 35.5533 100.115 36.1933 100.701 36.7C101.301 37.1933 101.995 37.44 102.781 37.44C104.075 37.44 104.995 36.9667 105.541 36.02H107.501C107.181 36.9533 106.588 37.72 105.721 38.32C104.855 38.9067 103.875 39.2 102.781 39.2C101.808 39.2 100.928 38.98 100.141 38.54C99.3547 38.0867 98.7414 37.4667 98.3014 36.68C97.8614 35.88 97.6414 34.9867 97.6414 34C97.6414 33.0133 97.8614 32.1267 98.3014 31.34C98.7414 30.54 99.3481 29.92 100.121 29.48C100.908 29.0267 101.788 28.8 102.761 28.8ZM102.721 30.48C101.935 30.48 101.255 30.7267 100.681 31.22C100.121 31.7133 99.7747 32.3467 99.6414 33.12H105.781C105.701 32.32 105.375 31.68 104.801 31.2C104.241 30.72 103.548 30.48 102.721 30.48ZM122.068 33.9C123.055 34.3933 123.548 35.1533 123.548 36.18C123.548 37.0067 123.248 37.6867 122.648 38.22C122.048 38.74 121.222 39 120.168 39H115.148V29H120.168C121.168 29 121.955 29.26 122.528 29.78C123.115 30.2867 123.408 30.9333 123.408 31.72C123.408 32.1867 123.295 32.6133 123.068 33C122.855 33.3733 122.522 33.6733 122.068 33.9ZM119.948 33.16C120.442 33.16 120.815 33.0467 121.068 32.82C121.322 32.5933 121.448 32.26 121.448 31.82C121.448 31.0067 120.948 30.6 119.948 30.6H117.008V33.16H119.948ZM119.968 37.4C120.502 37.4 120.902 37.2867 121.168 37.06C121.448 36.82 121.588 36.48 121.588 36.04C121.588 35.6267 121.448 35.3133 121.168 35.1C120.902 34.8733 120.502 34.76 119.968 34.76H117.008V37.4H119.968ZM130.589 32.96C131.643 32.96 132.463 33.2467 133.049 33.82C133.649 34.38 133.949 35.1 133.949 35.98C133.949 36.86 133.649 37.5867 133.049 38.16C132.463 38.72 131.643 39 130.589 39H125.649V29H127.549V32.96H130.589ZM130.329 37.34C130.876 37.34 131.289 37.2267 131.569 37C131.849 36.7733 131.989 36.4333 131.989 35.98C131.989 35.5267 131.849 35.1867 131.569 34.96C131.289 34.7333 130.876 34.62 130.329 34.62H127.549V37.34H130.329ZM137.649 29V39H135.749V29H137.649ZM154.47 34.4L153.23 35.6V39H151.35V35.6L150.11 34.4L146.71 39H144.35L148.73 33.06L144.55 29H146.93L151.35 33.32V29H153.23V33.34L157.69 29H160.03L155.85 33.06L160.23 39H157.87L154.47 34.4ZM171.744 37.2V41.2H169.904V39H162.264V41.2H160.424V37.2H161.704C161.984 36.4 162.124 34.8667 162.124 32.6V29H170.344V37.2H171.744ZM168.444 37.24V30.76H164.024V32.54C164.024 34.54 163.871 36.1067 163.564 37.24H168.444ZM177.478 28.8C178.504 28.8 179.398 29.02 180.158 29.46C180.931 29.9 181.524 30.5267 181.938 31.34C182.351 32.14 182.558 33.08 182.558 34.16C182.558 34.44 182.551 34.6467 182.538 34.78H174.338C174.471 35.5533 174.831 36.1933 175.418 36.7C176.018 37.1933 176.711 37.44 177.498 37.44C178.791 37.44 179.711 36.9667 180.258 36.02H182.218C181.898 36.9533 181.304 37.72 180.438 38.32C179.571 38.9067 178.591 39.2 177.498 39.2C176.524 39.2 175.644 38.98 174.858 38.54C174.071 38.0867 173.458 37.4667 173.018 36.68C172.578 35.88 172.358 34.9867 172.358 34C172.358 33.0133 172.578 32.1267 173.018 31.34C173.458 30.54 174.064 29.92 174.838 29.48C175.624 29.0267 176.504 28.8 177.478 28.8ZM177.438 30.48C176.651 30.48 175.971 30.7267 175.398 31.22C174.838 31.7133 174.491 32.3467 174.358 33.12H180.498C180.418 32.32 180.091 31.68 179.518 31.2C178.958 30.72 178.264 30.48 177.438 30.48ZM176.458 25V27.2H174.258V25H176.458ZM180.658 25V27.2H178.458V25H180.658ZM191.769 30.8H188.269V39H186.369V30.8H182.869V29H191.769V30.8ZM197.19 28.8C198.217 28.8 199.11 29.02 199.87 29.46C200.644 29.9 201.237 30.5267 201.65 31.34C202.064 32.14 202.27 33.08 202.27 34.16C202.27 34.44 202.264 34.6467 202.25 34.78H194.05C194.184 35.5533 194.544 36.1933 195.13 36.7C195.73 37.1933 196.424 37.44 197.21 37.44C198.504 37.44 199.424 36.9667 199.97 36.02H201.93C201.61 36.9533 201.017 37.72 200.15 38.32C199.284 38.9067 198.304 39.2 197.21 39.2C196.237 39.2 195.357 38.98 194.57 38.54C193.784 38.0867 193.17 37.4667 192.73 36.68C192.29 35.88 192.07 34.9867 192.07 34C192.07 33.0133 192.29 32.1267 192.73 31.34C193.17 30.54 193.777 29.92 194.55 29.48C195.337 29.0267 196.217 28.8 197.19 28.8ZM197.15 30.48C196.364 30.48 195.684 30.7267 195.11 31.22C194.55 31.7133 194.204 32.3467 194.07 33.12H200.21C200.13 32.32 199.804 31.68 199.23 31.2C198.67 30.72 197.977 30.48 197.15 30.48ZM206.392 34.4C206.392 33.7867 206.512 33.2733 206.752 32.86C207.005 32.4467 207.305 32.12 207.652 31.88C207.999 31.64 208.459 31.3667 209.032 31.06C209.725 30.7133 210.245 30.3867 210.592 30.08C210.939 29.76 211.112 29.3267 211.112 28.78C211.112 28.0467 210.805 27.52 210.192 27.2C209.579 26.88 208.865 26.72 208.052 26.72C207.279 26.72 206.599 26.8933 206.012 27.24C205.439 27.5733 205.072 28.0933 204.912 28.8H202.872C202.992 27.9467 203.305 27.22 203.812 26.62C204.332 26.02 204.972 25.5667 205.732 25.26C206.492 24.9533 207.299 24.8 208.152 24.8C208.979 24.8 209.765 24.94 210.512 25.22C211.272 25.5 211.892 25.9333 212.372 26.52C212.865 27.0933 213.112 27.8 213.112 28.64C213.112 29.32 212.979 29.8933 212.712 30.36C212.445 30.8133 212.125 31.1733 211.752 31.44C211.379 31.7067 210.892 31.9933 210.292 32.3C209.825 32.54 209.465 32.74 209.212 32.9C208.972 33.06 208.765 33.26 208.592 33.5C208.432 33.74 208.352 34.02 208.352 34.34V34.8H206.392V34.4ZM208.512 36.8V39H206.312V36.8H208.512ZM229.528 31.86C230.181 32.2067 230.674 32.6533 231.008 33.2C231.341 33.7333 231.508 34.3467 231.508 35.04C231.508 35.8 231.328 36.48 230.968 37.08C230.621 37.6667 230.108 38.1333 229.428 38.48C228.748 38.8267 227.934 39 226.988 39H220.708V25H226.968C227.874 25 228.654 25.1667 229.308 25.5C229.961 25.8333 230.454 26.2867 230.788 26.86C231.134 27.4333 231.308 28.08 231.308 28.8C231.308 29.4667 231.161 30.06 230.868 30.58C230.574 31.1 230.128 31.5267 229.528 31.86ZM226.868 31.12C227.668 31.12 228.268 30.9333 228.668 30.56C229.081 30.1733 229.288 29.62 229.288 28.9C229.288 27.5267 228.481 26.84 226.868 26.84H222.708V31.12H226.868ZM226.888 37.16C227.714 37.16 228.341 36.9733 228.768 36.6C229.194 36.2267 229.408 35.68 229.408 34.96C229.408 34.2667 229.194 33.7467 228.768 33.4C228.341 33.04 227.714 32.86 226.888 32.86H222.708V37.16H226.888ZM238.644 32.96C239.697 32.96 240.517 33.2467 241.104 33.82C241.704 34.38 242.004 35.1 242.004 35.98C242.004 36.86 241.704 37.5867 241.104 38.16C240.517 38.72 239.697 39 238.644 39H233.704V29H235.604V32.96H238.644ZM238.384 37.34C238.931 37.34 239.344 37.2267 239.624 37C239.904 36.7733 240.044 36.4333 240.044 35.98C240.044 35.5267 239.904 35.1867 239.624 34.96C239.344 34.7333 238.931 34.62 238.384 34.62H235.604V37.34H238.384ZM245.704 29V39H243.804V29H245.704ZM263.725 29L257.865 42.4H255.805L257.385 38.82L252.505 29H254.765L258.385 36.8L261.625 29H263.725ZM272.85 34.4L271.61 35.6V39H269.73V35.6L268.49 34.4L265.09 39H262.73L267.11 33.06L262.93 29H265.31L269.73 33.32V29H271.61V33.34L276.07 29H278.41L274.23 33.06L278.61 39H276.25L272.85 34.4ZM283.618 28.8C284.645 28.8 285.538 29.02 286.298 29.46C287.072 29.9 287.665 30.5267 288.078 31.34C288.492 32.14 288.698 33.08 288.698 34.16C288.698 34.44 288.692 34.6467 288.678 34.78H280.478C280.612 35.5533 280.972 36.1933 281.558 36.7C282.158 37.1933 282.852 37.44 283.638 37.44C284.932 37.44 285.852 36.9667 286.398 36.02H288.358C288.038 36.9533 287.445 37.72 286.578 38.32C285.712 38.9067 284.732 39.2 283.638 39.2C282.665 39.2 281.785 38.98 280.998 38.54C280.212 38.0867 279.598 37.4667 279.158 36.68C278.718 35.88 278.498 34.9867 278.498 34C278.498 33.0133 278.718 32.1267 279.158 31.34C279.598 30.54 280.205 29.92 280.978 29.48C281.765 29.0267 282.645 28.8 283.618 28.8ZM283.578 30.48C282.792 30.48 282.112 30.7267 281.538 31.22C280.978 31.7133 280.632 32.3467 280.498 33.12H286.638C286.558 32.32 286.232 31.68 285.658 31.2C285.098 30.72 284.405 30.48 283.578 30.48ZM296.805 35.84C296.979 36.4267 297.299 36.86 297.765 37.14C298.245 37.42 298.872 37.56 299.645 37.56C300.365 37.56 300.945 37.4333 301.385 37.18C301.825 36.9133 302.045 36.5733 302.045 36.16C302.045 35.8 301.885 35.4933 301.565 35.24C301.245 34.9733 300.699 34.84 299.925 34.84H298.185V33.2H299.845C300.539 33.2 301.032 33.0733 301.325 32.82C301.632 32.5667 301.785 32.26 301.785 31.9C301.785 31.4467 301.579 31.0867 301.165 30.82C300.765 30.5533 300.212 30.42 299.505 30.42C298.825 30.42 298.259 30.5467 297.805 30.8C297.365 31.0533 297.079 31.4533 296.945 32H295.065C295.239 31 295.739 30.22 296.565 29.66C297.392 29.0867 298.372 28.8 299.505 28.8C300.759 28.8 301.772 29.0733 302.545 29.62C303.319 30.1533 303.705 30.86 303.705 31.74C303.705 32.18 303.585 32.5933 303.345 32.98C303.105 33.3533 302.745 33.6533 302.265 33.88C303.372 34.32 303.925 35.0733 303.925 36.14C303.925 37.06 303.525 37.8 302.725 38.36C301.939 38.92 300.865 39.2 299.505 39.2C298.279 39.2 297.239 38.9 296.385 38.3C295.532 37.7 295.039 36.88 294.905 35.84H296.805ZM314.881 29V39H312.981V34.9H307.781V39H305.881V29H307.781V33.1H312.981V29H314.881ZM326.888 29V39H324.988V37.5C324.575 38.0333 324.075 38.4533 323.488 38.76C322.902 39.0533 322.275 39.2 321.608 39.2C320.728 39.2 319.928 38.98 319.208 38.54C318.488 38.0867 317.922 37.4667 317.508 36.68C317.095 35.8933 316.888 35 316.888 34C316.888 33 317.095 32.1067 317.508 31.32C317.922 30.5333 318.488 29.92 319.208 29.48C319.928 29.0267 320.728 28.8 321.608 28.8C322.302 28.8 322.948 28.96 323.548 29.28C324.148 29.6 324.662 30.0467 325.088 30.62V29H326.888ZM321.928 37.44C322.515 37.44 323.048 37.2933 323.528 37C324.008 36.7067 324.382 36.3 324.648 35.78C324.915 35.2467 325.048 34.6533 325.048 34C325.048 33.3467 324.915 32.76 324.648 32.24C324.382 31.7067 324.008 31.2933 323.528 31C323.048 30.7067 322.515 30.56 321.928 30.56C321.342 30.56 320.815 30.7067 320.348 31C319.882 31.2933 319.515 31.7067 319.248 32.24C318.982 32.76 318.848 33.3467 318.848 34C318.848 34.6533 318.982 35.2467 319.248 35.78C319.515 36.3 319.882 36.7067 320.348 37C320.815 37.2933 321.342 37.44 321.928 37.44ZM334.013 28.8C335.04 28.8 335.933 29.02 336.693 29.46C337.466 29.9 338.06 30.5267 338.473 31.34C338.886 32.14 339.093 33.08 339.093 34.16C339.093 34.44 339.086 34.6467 339.073 34.78H330.873C331.006 35.5533 331.366 36.1933 331.953 36.7C332.553 37.1933 333.246 37.44 334.033 37.44C335.326 37.44 336.246 36.9667 336.793 36.02H338.753C338.433 36.9533 337.84 37.72 336.973 38.32C336.106 38.9067 335.126 39.2 334.033 39.2C333.06 39.2 332.18 38.98 331.393 38.54C330.606 38.0867 329.993 37.4667 329.553 36.68C329.113 35.88 328.893 34.9867 328.893 34C328.893 33.0133 329.113 32.1267 329.553 31.34C329.993 30.54 330.6 29.92 331.373 29.48C332.16 29.0267 333.04 28.8 334.013 28.8ZM333.973 30.48C333.186 30.48 332.506 30.7267 331.933 31.22C331.373 31.7133 331.026 32.3467 330.893 33.12H337.033C336.953 32.32 336.626 31.68 336.053 31.2C335.493 30.72 334.8 30.48 333.973 30.48ZM348.304 30.8H344.804V39H342.904V30.8H339.404V29H348.304V30.8ZM353.725 28.8C354.752 28.8 355.645 29.02 356.405 29.46C357.179 29.9 357.772 30.5267 358.185 31.34C358.599 32.14 358.805 33.08 358.805 34.16C358.805 34.44 358.799 34.6467 358.785 34.78H350.585C350.719 35.5533 351.079 36.1933 351.665 36.7C352.265 37.1933 352.959 37.44 353.745 37.44C355.039 37.44 355.959 36.9667 356.505 36.02H358.465C358.145 36.9533 357.552 37.72 356.685 38.32C355.819 38.9067 354.839 39.2 353.745 39.2C352.772 39.2 351.892 38.98 351.105 38.54C350.319 38.0867 349.705 37.4667 349.265 36.68C348.825 35.88 348.605 34.9867 348.605 34C348.605 33.0133 348.825 32.1267 349.265 31.34C349.705 30.54 350.312 29.92 351.085 29.48C351.872 29.0267 352.752 28.8 353.725 28.8ZM353.685 30.48C352.899 30.48 352.219 30.7267 351.645 31.22C351.085 31.7133 350.739 32.3467 350.605 33.12H356.745C356.665 32.32 356.339 31.68 355.765 31.2C355.205 30.72 354.512 30.48 353.685 30.48ZM362.607 36.8L362.007 41.4H360.607V36.8H362.607ZM373.897 34.36L372.477 35.68V39H370.617V29H372.477V33.48L377.177 29H379.697L375.317 33.04L380.117 39H377.577L373.897 34.36ZM390.094 34.36L388.674 35.68V39H386.814V29H388.674V33.48L393.374 29H395.894L391.514 33.04L396.314 39H393.774L390.094 34.36ZM401.52 39.2C400.533 39.2 399.633 38.9733 398.82 38.52C398.007 38.0533 397.367 37.4267 396.9 36.64C396.433 35.84 396.2 34.96 396.2 34C396.2 33.04 396.433 32.1667 396.9 31.38C397.367 30.58 398.007 29.9533 398.82 29.5C399.633 29.0333 400.533 28.8 401.52 28.8C402.493 28.8 403.38 29.0333 404.18 29.5C404.993 29.9533 405.633 30.58 406.1 31.38C406.567 32.1667 406.8 33.04 406.8 34C406.8 34.96 406.567 35.84 406.1 36.64C405.633 37.4267 404.993 38.0533 404.18 38.52C403.38 38.9733 402.493 39.2 401.52 39.2ZM401.52 37.44C402.133 37.44 402.693 37.2933 403.2 37C403.707 36.6933 404.107 36.28 404.4 35.76C404.693 35.2267 404.84 34.64 404.84 34C404.84 33.36 404.693 32.78 404.4 32.26C404.107 31.7267 403.707 31.3133 403.2 31.02C402.693 30.7133 402.133 30.56 401.52 30.56C400.893 30.56 400.32 30.7133 399.8 31.02C399.293 31.3133 398.893 31.7267 398.6 32.26C398.307 32.78 398.16 33.36 398.16 34C398.16 34.64 398.307 35.2267 398.6 35.76C398.893 36.28 399.293 36.6933 399.8 37C400.32 37.2933 400.893 37.44 401.52 37.44ZM421.192 39H419.292V31.3L414.992 39L410.692 31.34V39H408.792V29H411.392L415.032 35.54L418.632 29H421.192V39ZM433.918 29L428.058 42.4H425.998L427.578 38.82L422.698 29H424.958L428.578 36.8L431.818 29H433.918ZM445.144 39.2C444.158 39.2 443.258 38.9733 442.444 38.52C441.631 38.0533 440.991 37.4267 440.524 36.64C440.058 35.84 439.824 34.96 439.824 34C439.824 33.04 440.058 32.1667 440.524 31.38C440.991 30.58 441.631 29.9533 442.444 29.5C443.258 29.0333 444.158 28.8 445.144 28.8C446.118 28.8 447.004 29.0333 447.804 29.5C448.618 29.9533 449.258 30.58 449.724 31.38C450.191 32.1667 450.424 33.04 450.424 34C450.424 34.96 450.191 35.84 449.724 36.64C449.258 37.4267 448.618 38.0533 447.804 38.52C447.004 38.9733 446.118 39.2 445.144 39.2ZM445.144 37.44C445.758 37.44 446.318 37.2933 446.824 37C447.331 36.6933 447.731 36.28 448.024 35.76C448.318 35.2267 448.464 34.64 448.464 34C448.464 33.36 448.318 32.78 448.024 32.26C447.731 31.7267 447.331 31.3133 446.824 31.02C446.318 30.7133 445.758 30.56 445.144 30.56C444.518 30.56 443.944 30.7133 443.424 31.02C442.918 31.3133 442.518 31.7267 442.224 32.26C441.931 32.78 441.784 33.36 441.784 34C441.784 34.64 441.931 35.2267 442.224 35.76C442.518 36.28 442.918 36.6933 443.424 37C443.944 37.2933 444.518 37.44 445.144 37.44ZM457.176 29.3C458.083 29.3 458.916 29.52 459.676 29.96C460.436 30.3867 461.03 30.9733 461.456 31.72C461.896 32.4667 462.116 33.2933 462.116 34.2C462.116 35.12 461.89 35.9667 461.436 36.74C460.996 37.5 460.383 38.1 459.596 38.54C458.823 38.98 457.97 39.2 457.036 39.2C456.09 39.2 455.223 38.98 454.436 38.54C453.663 38.0867 453.05 37.46 452.596 36.66C452.143 35.86 451.916 34.9533 451.916 33.94V30.1C451.916 28.8467 452.23 27.9067 452.856 27.28C453.496 26.64 454.396 26.2467 455.556 26.1L459.136 25.64C459.47 25.6 459.636 25.4333 459.636 25.14V24.9H461.556V25.38C461.556 25.9267 461.383 26.3667 461.036 26.7C460.703 27.02 460.31 27.2067 459.856 27.26L455.736 27.8C454.99 27.8933 454.436 28.1 454.076 28.42C453.73 28.7267 453.556 29.2133 453.556 29.88V31.28C453.97 30.6533 454.49 30.1667 455.116 29.82C455.756 29.4733 456.443 29.3 457.176 29.3ZM456.976 37.44C457.563 37.44 458.096 37.3 458.576 37.02C459.07 36.7267 459.456 36.3333 459.736 35.84C460.016 35.3467 460.156 34.8 460.156 34.2C460.156 33.6 460.016 33.0533 459.736 32.56C459.456 32.0667 459.07 31.68 458.576 31.4C458.096 31.1067 457.563 30.96 456.976 30.96C456.376 30.96 455.83 31.1067 455.336 31.4C454.843 31.68 454.456 32.0667 454.176 32.56C453.896 33.0533 453.756 33.6 453.756 34.2C453.756 34.8 453.896 35.3467 454.176 35.84C454.456 36.3333 454.843 36.7267 455.336 37.02C455.83 37.3 456.376 37.44 456.976 37.44ZM469.389 28.8C470.269 28.8 471.069 29.0267 471.789 29.48C472.509 29.92 473.075 30.5333 473.489 31.32C473.902 32.1067 474.109 33 474.109 34C474.109 35 473.902 35.8933 473.489 36.68C473.075 37.4667 472.509 38.0867 471.789 38.54C471.069 38.98 470.269 39.2 469.389 39.2C468.722 39.2 468.095 39.0533 467.509 38.76C466.922 38.4533 466.422 38.0333 466.009 37.5V42.4H464.109V29H465.909V30.62C466.335 30.0467 466.849 29.6 467.449 29.28C468.049 28.96 468.695 28.8 469.389 28.8ZM469.069 37.44C469.655 37.44 470.182 37.2933 470.649 37C471.115 36.7067 471.482 36.3 471.749 35.78C472.015 35.2467 472.149 34.6533 472.149 34C472.149 33.3467 472.015 32.76 471.749 32.24C471.482 31.7067 471.115 31.2933 470.649 31C470.182 30.7067 469.655 30.56 469.069 30.56C468.482 30.56 467.949 30.7067 467.469 31C466.989 31.2933 466.615 31.7067 466.349 32.24C466.082 32.76 465.949 33.3467 465.949 34C465.949 34.6533 466.082 35.2467 466.349 35.78C466.615 36.3 466.989 36.7067 467.469 37C467.949 37.2933 468.482 37.44 469.069 37.44ZM485.311 29V39H483.411V37.5C482.998 38.0333 482.498 38.4533 481.911 38.76C481.324 39.0533 480.698 39.2 480.031 39.2C479.151 39.2 478.351 38.98 477.631 38.54C476.911 38.0867 476.344 37.4667 475.931 36.68C475.518 35.8933 475.311 35 475.311 34C475.311 33 475.518 32.1067 475.931 31.32C476.344 30.5333 476.911 29.92 477.631 29.48C478.351 29.0267 479.151 28.8 480.031 28.8C480.724 28.8 481.371 28.96 481.971 29.28C482.571 29.6 483.084 30.0467 483.511 30.62V29H485.311ZM480.351 37.44C480.938 37.44 481.471 37.2933 481.951 37C482.431 36.7067 482.804 36.3 483.071 35.78C483.338 35.2467 483.471 34.6533 483.471 34C483.471 33.3467 483.338 32.76 483.071 32.24C482.804 31.7067 482.431 31.2933 481.951 31C481.471 30.7067 480.938 30.56 480.351 30.56C479.764 30.56 479.238 30.7067 478.771 31C478.304 31.2933 477.938 31.7067 477.671 32.24C477.404 32.76 477.271 33.3467 477.271 34C477.271 34.6533 477.404 35.2467 477.671 35.78C477.938 36.3 478.304 36.7067 478.771 37C479.238 37.2933 479.764 37.44 480.351 37.44ZM495.816 30.8H492.316V39H490.416V30.8H486.916V29H495.816V30.8ZM497.408 29H499.308V36.44L504.508 29H506.608V39H504.708V31.56L499.508 39H497.408V29ZM517.11 30.8H513.61V39H511.71V30.8H508.21V29H517.11V30.8ZM523.642 32.96C524.696 32.96 525.516 33.2467 526.102 33.82C526.702 34.38 527.002 35.1 527.002 35.98C527.002 36.86 526.702 37.5867 526.102 38.16C525.516 38.72 524.696 39 523.642 39H518.702V29H520.602V32.96H523.642ZM523.382 37.34C523.929 37.34 524.342 37.2267 524.622 37C524.902 36.7733 525.042 36.4333 525.042 35.98C525.042 35.5267 524.902 35.1867 524.622 34.96C524.342 34.7333 523.929 34.62 523.382 34.62H520.602V37.34H523.382ZM528.01 34C528.01 33.04 528.244 32.1667 528.71 31.38C529.177 30.58 529.817 29.9533 530.63 29.5C531.444 29.0333 532.344 28.8 533.33 28.8C534.437 28.8 535.43 29.1267 536.31 29.78C537.204 30.42 537.79 31.26 538.07 32.3H535.99C535.764 31.7667 535.397 31.3467 534.89 31.04C534.397 30.72 533.844 30.56 533.23 30.56C532.604 30.56 532.044 30.7133 531.55 31.02C531.057 31.3133 530.67 31.7267 530.39 32.26C530.11 32.78 529.97 33.36 529.97 34C529.97 34.64 530.11 35.2267 530.39 35.76C530.67 36.28 531.057 36.6933 531.55 37C532.044 37.2933 532.604 37.44 533.23 37.44C533.844 37.44 534.397 37.2867 534.89 36.98C535.397 36.66 535.764 36.2333 535.99 35.7H538.07C537.79 36.74 537.204 37.5867 536.31 38.24C535.43 38.88 534.437 39.2 533.33 39.2C532.344 39.2 531.444 38.9733 530.63 38.52C529.817 38.0533 529.177 37.4267 528.71 36.64C528.244 35.84 528.01 34.96 528.01 34ZM547.6 39H545.7V35.24H543.74L540.66 39H538.38L541.58 35.12C540.86 34.9333 540.3 34.5733 539.9 34.04C539.5 33.4933 539.3 32.8533 539.3 32.12C539.3 31.2133 539.593 30.4667 540.18 29.88C540.78 29.2933 541.606 29 542.66 29H547.6V39ZM545.7 33.58V30.7H542.92C542.373 30.7 541.96 30.8267 541.68 31.08C541.4 31.32 541.26 31.6733 541.26 32.14C541.26 32.6067 541.4 32.9667 541.68 33.22C541.96 33.46 542.373 33.58 542.92 33.58H545.7ZM552.498 36.8V39H550.298V36.8H552.498ZM7.92 54.8C8.85333 54.8 9.65333 54.98 10.32 55.34C11 55.6867 11.5133 56.1733 11.86 56.8C12.22 57.4133 12.4 58.1133 12.4 58.9C12.4 59.6867 12.22 60.3933 11.86 61.02C11.5133 61.6333 11 62.12 10.32 62.48C9.65333 62.8267 8.85333 63 7.92 63H1.8V49H11.6V50.88H3.8V54.8H7.92ZM7.86 61.12C8.66 61.12 9.26667 60.9333 9.68 60.56C10.0933 60.1733 10.3 59.6133 10.3 58.88C10.3 58.1467 10.0933 57.5933 9.68 57.22C9.26667 56.8467 8.66 56.66 7.86 56.66H3.8V61.12H7.86ZM23.913 53L18.053 66.4H15.993L17.573 62.82L12.693 53H14.953L18.573 60.8L21.813 53H23.913ZM34.538 61.2V65.2H32.698V63H25.058V65.2H23.218V61.2H24.498C24.778 60.4 24.918 58.8667 24.918 56.6V53H33.138V61.2H34.538ZM31.238 61.24V54.76H26.818V56.54C26.818 58.54 26.6646 60.1067 26.358 61.24H31.238ZM40.2716 52.8C41.2982 52.8 42.1916 53.02 42.9516 53.46C43.7249 53.9 44.3182 54.5267 44.7316 55.34C45.1449 56.14 45.3516 57.08 45.3516 58.16C45.3516 58.44 45.3449 58.6467 45.3316 58.78H37.1316C37.2649 59.5533 37.6249 60.1933 38.2116 60.7C38.8116 61.1933 39.5049 61.44 40.2916 61.44C41.5849 61.44 42.5049 60.9667 43.0516 60.02H45.0116C44.6916 60.9533 44.0982 61.72 43.2316 62.32C42.3649 62.9067 41.3849 63.2 40.2916 63.2C39.3182 63.2 38.4382 62.98 37.6516 62.54C36.8649 62.0867 36.2516 61.4667 35.8116 60.68C35.3716 59.88 35.1516 58.9867 35.1516 58C35.1516 57.0133 35.3716 56.1267 35.8116 55.34C36.2516 54.54 36.8582 53.92 37.6316 53.48C38.4182 53.0267 39.2982 52.8 40.2716 52.8ZM40.2316 54.48C39.4449 54.48 38.7649 54.7267 38.1916 55.22C37.6316 55.7133 37.2849 56.3467 37.1516 57.12H43.2916C43.2116 56.32 42.8849 55.68 42.3116 55.2C41.7516 54.72 41.0582 54.48 40.2316 54.48ZM59.7531 63H57.8531V55.3L53.5531 63L49.2531 55.34V63H47.3531V53H49.9531L53.5931 59.54L57.1931 53H59.7531V63ZM76.5841 58.4L75.3441 59.6V63H73.4641V59.6L72.2241 58.4L68.8241 63H66.4641L70.8441 57.06L66.6641 53H69.0441L73.4641 57.32V53H75.3441V57.34L79.8041 53H82.1441L77.9641 57.06L82.3441 63H79.9841L76.5841 58.4ZM93.8583 61.2V65.2H92.0183V63H84.3783V65.2H82.5383V61.2H83.8183C84.0983 60.4 84.2383 58.8667 84.2383 56.6V53H92.4583V61.2H93.8583ZM90.5583 61.24V54.76H86.1383V56.54C86.1383 58.54 85.9849 60.1067 85.6783 61.24H90.5583ZM104.472 53V63H102.572V61.5C102.159 62.0333 101.659 62.4533 101.072 62.76C100.485 63.0533 99.8585 63.2 99.1919 63.2C98.3119 63.2 97.5119 62.98 96.7919 62.54C96.0719 62.0867 95.5052 61.4667 95.0919 60.68C94.6785 59.8933 94.4719 59 94.4719 58C94.4719 57 94.6785 56.1067 95.0919 55.32C95.5052 54.5333 96.0719 53.92 96.7919 53.48C97.5119 53.0267 98.3119 52.8 99.1919 52.8C99.8852 52.8 100.532 52.96 101.132 53.28C101.732 53.6 102.245 54.0467 102.672 54.62V53H104.472ZM99.5119 61.44C100.099 61.44 100.632 61.2933 101.112 61C101.592 60.7067 101.965 60.3 102.232 59.78C102.499 59.2467 102.632 58.6533 102.632 58C102.632 57.3467 102.499 56.76 102.232 56.24C101.965 55.7067 101.592 55.2933 101.112 55C100.632 54.7067 100.099 54.56 99.5119 54.56C98.9252 54.56 98.3985 54.7067 97.9319 55C97.4652 55.2933 97.0985 55.7067 96.8319 56.24C96.5652 56.76 96.4319 57.3467 96.4319 58C96.4319 58.6533 96.5652 59.2467 96.8319 59.78C97.0985 60.3 97.4652 60.7067 97.9319 61C98.3985 61.2933 98.9252 61.44 99.5119 61.44ZM114.977 54.8H111.477V63H109.577V54.8H106.077V53H114.977V54.8ZM121.509 56.96C122.562 56.96 123.382 57.2467 123.969 57.82C124.569 58.38 124.869 59.1 124.869 59.98C124.869 60.86 124.569 61.5867 123.969 62.16C123.382 62.72 122.562 63 121.509 63H116.569V53H118.469V56.96H121.509ZM121.249 61.34C121.795 61.34 122.209 61.2267 122.489 61C122.769 60.7733 122.909 60.4333 122.909 59.98C122.909 59.5267 122.769 59.1867 122.489 58.96C122.209 58.7333 121.795 58.62 121.249 58.62H118.469V61.34H121.249ZM139.002 57.9C139.989 58.3933 140.482 59.1533 140.482 60.18C140.482 61.0067 140.182 61.6867 139.582 62.22C138.982 62.74 138.155 63 137.102 63H132.082V53H137.102C138.102 53 138.889 53.26 139.462 53.78C140.049 54.2867 140.342 54.9333 140.342 55.72C140.342 56.1867 140.229 56.6133 140.002 57C139.789 57.3733 139.455 57.6733 139.002 57.9ZM136.882 57.16C137.375 57.16 137.749 57.0467 138.002 56.82C138.255 56.5933 138.382 56.26 138.382 55.82C138.382 55.0067 137.882 54.6 136.882 54.6H133.942V57.16H136.882ZM136.902 61.4C137.435 61.4 137.835 61.2867 138.102 61.06C138.382 60.82 138.522 60.48 138.522 60.04C138.522 59.6267 138.382 59.3133 138.102 59.1C137.835 58.8733 137.435 58.76 136.902 58.76H133.942V61.4H136.902ZM151.683 53V63H149.783V61.5C149.369 62.0333 148.869 62.4533 148.283 62.76C147.696 63.0533 147.069 63.2 146.403 63.2C145.523 63.2 144.723 62.98 144.003 62.54C143.283 62.0867 142.716 61.4667 142.303 60.68C141.889 59.8933 141.683 59 141.683 58C141.683 57 141.889 56.1067 142.303 55.32C142.716 54.5333 143.283 53.92 144.003 53.48C144.723 53.0267 145.523 52.8 146.403 52.8C147.096 52.8 147.743 52.96 148.343 53.28C148.943 53.6 149.456 54.0467 149.883 54.62V53H151.683ZM146.723 61.44C147.309 61.44 147.843 61.2933 148.323 61C148.803 60.7067 149.176 60.3 149.443 59.78C149.709 59.2467 149.843 58.6533 149.843 58C149.843 57.3467 149.709 56.76 149.443 56.24C149.176 55.7067 148.803 55.2933 148.323 55C147.843 54.7067 147.309 54.56 146.723 54.56C146.136 54.56 145.609 54.7067 145.143 55C144.676 55.2933 144.309 55.7067 144.043 56.24C143.776 56.76 143.643 57.3467 143.643 58C143.643 58.6533 143.776 59.2467 144.043 59.78C144.309 60.3 144.676 60.7067 145.143 61C145.609 61.2933 146.136 61.44 146.723 61.44ZM168.488 53V63H154.588V53H156.488V61.2H160.588V53H162.488V61.2H166.588V53H168.488ZM175.617 52.8C176.644 52.8 177.537 53.02 178.297 53.46C179.07 53.9 179.664 54.5267 180.077 55.34C180.49 56.14 180.697 57.08 180.697 58.16C180.697 58.44 180.69 58.6467 180.677 58.78H172.477C172.61 59.5533 172.97 60.1933 173.557 60.7C174.157 61.1933 174.85 61.44 175.637 61.44C176.93 61.44 177.85 60.9667 178.397 60.02H180.357C180.037 60.9533 179.444 61.72 178.577 62.32C177.71 62.9067 176.73 63.2 175.637 63.2C174.664 63.2 173.784 62.98 172.997 62.54C172.21 62.0867 171.597 61.4667 171.157 60.68C170.717 59.88 170.497 58.9867 170.497 58C170.497 57.0133 170.717 56.1267 171.157 55.34C171.597 54.54 172.204 53.92 172.977 53.48C173.764 53.0267 174.644 52.8 175.617 52.8ZM175.577 54.48C174.79 54.48 174.11 54.7267 173.537 55.22C172.977 55.7133 172.63 56.3467 172.497 57.12H178.637C178.557 56.32 178.23 55.68 177.657 55.2C177.097 54.72 176.404 54.48 175.577 54.48ZM182.698 53H184.598V60.44L189.798 53H191.898V63H189.998V55.56L184.798 63H182.698V53ZM187.298 52.02C186.258 52.02 185.405 51.7467 184.738 51.2C184.072 50.6533 183.698 49.92 183.618 49H185.258C185.325 49.5067 185.538 49.9067 185.898 50.2C186.258 50.48 186.725 50.62 187.298 50.62C187.872 50.62 188.338 50.48 188.698 50.2C189.058 49.9067 189.272 49.5067 189.338 49H190.978C190.898 49.92 190.525 50.6533 189.858 51.2C189.192 51.7467 188.338 52.02 187.298 52.02ZM200.906 59.84C201.08 60.4267 201.4 60.86 201.866 61.14C202.346 61.42 202.973 61.56 203.746 61.56C204.466 61.56 205.046 61.4333 205.486 61.18C205.926 60.9133 206.146 60.5733 206.146 60.16C206.146 59.8 205.986 59.4933 205.666 59.24C205.346 58.9733 204.8 58.84 204.026 58.84H202.286V57.2H203.946C204.64 57.2 205.133 57.0733 205.426 56.82C205.733 56.5667 205.886 56.26 205.886 55.9C205.886 55.4467 205.68 55.0867 205.266 54.82C204.866 54.5533 204.313 54.42 203.606 54.42C202.926 54.42 202.36 54.5467 201.906 54.8C201.466 55.0533 201.18 55.4533 201.046 56H199.166C199.34 55 199.84 54.22 200.666 53.66C201.493 53.0867 202.473 52.8 203.606 52.8C204.86 52.8 205.873 53.0733 206.646 53.62C207.42 54.1533 207.806 54.86 207.806 55.74C207.806 56.18 207.686 56.5933 207.446 56.98C207.206 57.3533 206.846 57.6533 206.366 57.88C207.473 58.32 208.026 59.0733 208.026 60.14C208.026 61.06 207.626 61.8 206.826 62.36C206.04 62.92 204.966 63.2 203.606 63.2C202.38 63.2 201.34 62.9 200.486 62.3C199.633 61.7 199.14 60.88 199.006 59.84H200.906ZM219.082 53V63H217.182V61.5C216.769 62.0333 216.269 62.4533 215.682 62.76C215.095 63.0533 214.469 63.2 213.802 63.2C212.922 63.2 212.122 62.98 211.402 62.54C210.682 62.0867 210.115 61.4667 209.702 60.68C209.289 59.8933 209.082 59 209.082 58C209.082 57 209.289 56.1067 209.702 55.32C210.115 54.5333 210.682 53.92 211.402 53.48C212.122 53.0267 212.922 52.8 213.802 52.8C214.495 52.8 215.142 52.96 215.742 53.28C216.342 53.6 216.855 54.0467 217.282 54.62V53H219.082ZM214.122 61.44C214.709 61.44 215.242 61.2933 215.722 61C216.202 60.7067 216.575 60.3 216.842 59.78C217.109 59.2467 217.242 58.6533 217.242 58C217.242 57.3467 217.109 56.76 216.842 56.24C216.575 55.7067 216.202 55.2933 215.722 55C215.242 54.7067 214.709 54.56 214.122 54.56C213.535 54.56 213.009 54.7067 212.542 55C212.075 55.2933 211.709 55.7067 211.442 56.24C211.175 56.76 211.042 57.3467 211.042 58C211.042 58.6533 211.175 59.2467 211.442 59.78C211.709 60.3 212.075 60.7067 212.542 61C213.009 61.2933 213.535 61.44 214.122 61.44ZM229.707 63H227.807V59.24H225.847L222.767 63H220.487L223.687 59.12C222.967 58.9333 222.407 58.5733 222.007 58.04C221.607 57.4933 221.407 56.8533 221.407 56.12C221.407 55.2133 221.7 54.4667 222.287 53.88C222.887 53.2933 223.713 53 224.767 53H229.707V63ZM227.807 57.58V54.7H225.027C224.48 54.7 224.067 54.8267 223.787 55.08C223.507 55.32 223.367 55.6733 223.367 56.14C223.367 56.6067 223.507 56.9667 223.787 57.22C224.067 57.46 224.48 57.58 225.027 57.58H227.807ZM239.525 57.9C240.511 58.3933 241.005 59.1533 241.005 60.18C241.005 61.0067 240.705 61.6867 240.105 62.22C239.505 62.74 238.678 63 237.625 63H232.605V53H237.625C238.625 53 239.411 53.26 239.985 53.78C240.571 54.2867 240.865 54.9333 240.865 55.72C240.865 56.1867 240.751 56.6133 240.525 57C240.311 57.3733 239.978 57.6733 239.525 57.9ZM237.405 57.16C237.898 57.16 238.271 57.0467 238.525 56.82C238.778 56.5933 238.905 56.26 238.905 55.82C238.905 55.0067 238.405 54.6 237.405 54.6H234.465V57.16H237.405ZM237.425 61.4C237.958 61.4 238.358 61.2867 238.625 61.06C238.905 60.82 239.045 60.48 239.045 60.04C239.045 59.6267 238.905 59.3133 238.625 59.1C238.358 58.8733 237.958 58.76 237.425 58.76H234.465V61.4H237.425ZM246.385 58.36L244.965 59.68V63H243.105V53H244.965V57.48L249.665 53H252.185L247.805 57.04L252.605 63H250.065L246.385 58.36ZM253.997 53H255.897V60.44L261.097 53H263.197V63H261.297V55.56L256.097 63H253.997V53ZM268.099 60.8V63H265.899V60.8H268.099Z" fill="white"/>
</svg>
