<svg width="409" height="25" viewBox="0 0 409 25" fill="none" xmlns="http://www.w3.org/2000/svg">
<path d="M17.32 20H14.52V3.088H3.32V20H0.52V0.399999H17.32V20ZM29.0597 5.72C30.2917 5.72 31.4117 6.03733 32.4197 6.672C33.4277 7.288 34.221 8.14667 34.7997 9.248C35.3783 10.3493 35.6677 11.6 35.6677 13C35.6677 14.4 35.3783 15.6507 34.7997 16.752C34.221 17.8533 33.4277 18.7213 32.4197 19.356C31.4117 19.972 30.2917 20.28 29.0597 20.28C28.1263 20.28 27.249 20.0747 26.4277 19.664C25.6063 19.2347 24.9063 18.6467 24.3277 17.9V24.76H21.6677V6H24.1877V8.268C24.785 7.46533 25.5037 6.84 26.3437 6.392C27.1837 5.944 28.089 5.72 29.0597 5.72ZM28.6117 17.816C29.433 17.816 30.1703 17.6107 30.8237 17.2C31.477 16.7893 31.9903 16.22 32.3637 15.492C32.737 14.7453 32.9237 13.9147 32.9237 13C32.9237 12.0853 32.737 11.264 32.3637 10.536C31.9903 9.78933 31.477 9.21067 30.8237 8.8C30.1703 8.38933 29.433 8.184 28.6117 8.184C27.7903 8.184 27.0437 8.38933 26.3717 8.8C25.6997 9.21067 25.177 9.78933 24.8037 10.536C24.4303 11.264 24.2437 12.0853 24.2437 13C24.2437 13.9147 24.4303 14.7453 24.8037 15.492C25.177 16.22 25.6997 16.7893 26.3717 17.2C27.0437 17.6107 27.7903 17.816 28.6117 17.816ZM44.7989 20.28C43.4176 20.28 42.1576 19.9627 41.0189 19.328C39.8803 18.6747 38.9843 17.7973 38.3309 16.696C37.6776 15.576 37.3509 14.344 37.3509 13C37.3509 11.656 37.6776 10.4333 38.3309 9.332C38.9843 8.212 39.8803 7.33467 41.0189 6.7C42.1576 6.04667 43.4176 5.72 44.7989 5.72C46.1616 5.72 47.4029 6.04667 48.5229 6.7C49.6616 7.33467 50.5576 8.212 51.2109 9.332C51.8643 10.4333 52.1909 11.656 52.1909 13C52.1909 14.344 51.8643 15.576 51.2109 16.696C50.5576 17.7973 49.6616 18.6747 48.5229 19.328C47.4029 19.9627 46.1616 20.28 44.7989 20.28ZM44.7989 17.816C45.6576 17.816 46.4416 17.6107 47.1509 17.2C47.8603 16.7707 48.4203 16.192 48.8309 15.464C49.2416 14.7173 49.4469 13.896 49.4469 13C49.4469 12.104 49.2416 11.292 48.8309 10.564C48.4203 9.81733 47.8603 9.23867 47.1509 8.828C46.4416 8.39867 45.6576 8.184 44.7989 8.184C43.9216 8.184 43.1189 8.39867 42.3909 8.828C41.6816 9.23867 41.1216 9.81733 40.7109 10.564C40.3003 11.292 40.0949 12.104 40.0949 13C40.0949 13.896 40.3003 14.7173 40.7109 15.464C41.1216 16.192 41.6816 16.7707 42.3909 17.2C43.1189 17.6107 43.9216 17.816 44.7989 17.816ZM59.572 13.504L57.584 15.352V20H54.98V6H57.584V12.272L64.164 6H67.692L61.56 11.656L68.28 20H64.724L59.572 13.504ZM75.5683 20.28C74.187 20.28 72.927 19.9627 71.7883 19.328C70.6496 18.6747 69.7536 17.7973 69.1003 16.696C68.447 15.576 68.1203 14.344 68.1203 13C68.1203 11.656 68.447 10.4333 69.1003 9.332C69.7536 8.212 70.6496 7.33467 71.7883 6.7C72.927 6.04667 74.187 5.72 75.5683 5.72C76.931 5.72 78.1723 6.04667 79.2923 6.7C80.431 7.33467 81.327 8.212 81.9803 9.332C82.6336 10.4333 82.9603 11.656 82.9603 13C82.9603 14.344 82.6336 15.576 81.9803 16.696C81.327 17.7973 80.431 18.6747 79.2923 19.328C78.1723 19.9627 76.931 20.28 75.5683 20.28ZM75.5683 17.816C76.427 17.816 77.211 17.6107 77.9203 17.2C78.6296 16.7707 79.1896 16.192 79.6003 15.464C80.011 14.7173 80.2163 13.896 80.2163 13C80.2163 12.104 80.011 11.292 79.6003 10.564C79.1896 9.81733 78.6296 9.23867 77.9203 8.828C77.211 8.39867 76.427 8.184 75.5683 8.184C74.691 8.184 73.8883 8.39867 73.1603 8.828C72.451 9.23867 71.891 9.81733 71.4803 10.564C71.0696 11.292 70.8643 12.104 70.8643 13C70.8643 13.896 71.0696 14.7173 71.4803 15.464C71.891 16.192 72.451 16.7707 73.1603 17.2C73.8883 17.6107 74.691 17.816 75.5683 17.816ZM98.3494 6V20H95.6894V14.26H88.4094V20H85.7494V6H88.4094V11.74H95.6894V6H98.3494ZM101.159 13C101.159 11.656 101.486 10.4333 102.139 9.332C102.793 8.212 103.689 7.33467 104.827 6.7C105.966 6.04667 107.226 5.72 108.607 5.72C110.157 5.72 111.547 6.17733 112.779 7.092C114.03 7.988 114.851 9.164 115.243 10.62H112.331C112.014 9.87333 111.501 9.28533 110.791 8.856C110.101 8.408 109.326 8.184 108.467 8.184C107.59 8.184 106.806 8.39867 106.115 8.828C105.425 9.23867 104.883 9.81733 104.491 10.564C104.099 11.292 103.903 12.104 103.903 13C103.903 13.896 104.099 14.7173 104.491 15.464C104.883 16.192 105.425 16.7707 106.115 17.2C106.806 17.6107 107.59 17.816 108.467 17.816C109.326 17.816 110.101 17.6013 110.791 17.172C111.501 16.724 112.014 16.1267 112.331 15.38H115.243C114.851 16.836 114.03 18.0213 112.779 18.936C111.547 19.832 110.157 20.28 108.607 20.28C107.226 20.28 105.966 19.9627 104.827 19.328C103.689 18.6747 102.793 17.7973 102.139 16.696C101.486 15.576 101.159 14.344 101.159 13ZM130.978 6L122.774 24.76H119.89L122.102 19.748L115.27 6H118.434L123.502 16.92L128.038 6H130.978ZM144.72 20.028H142.06V8.52H136.068V11.068C136.068 13.0653 135.956 14.6987 135.732 15.968C135.526 17.2373 135.088 18.2547 134.416 19.02C133.744 19.7667 132.745 20.14 131.42 20.14C131.065 20.14 130.682 20.0933 130.272 20V17.536C130.608 17.592 130.906 17.62 131.168 17.62C131.765 17.62 132.213 17.4333 132.512 17.06C132.829 16.6867 133.053 16.024 133.184 15.072C133.314 14.1013 133.38 12.6827 133.38 10.816V6H144.72V20.028ZM155.708 11.544C157.183 11.544 158.331 11.9453 159.152 12.748C159.992 13.532 160.412 14.54 160.412 15.772C160.412 17.004 159.992 18.0213 159.152 18.824C158.331 19.608 157.183 20 155.708 20H148.792V6H151.452V11.544H155.708ZM155.344 17.676C156.109 17.676 156.688 17.5173 157.08 17.2C157.472 16.8827 157.668 16.4067 157.668 15.772C157.668 15.1373 157.472 14.6613 157.08 14.344C156.688 14.0267 156.109 13.868 155.344 13.868H151.452V17.676H155.344ZM171.754 8.52H166.854V20H164.194V8.52H159.294V6H171.754V8.52ZM173.983 6H176.643V16.416L183.923 6H186.863V20H184.203V9.584L176.923 20H173.983V6ZM198.319 5.72C199.551 5.72 200.671 6.03733 201.679 6.672C202.687 7.288 203.48 8.14667 204.059 9.248C204.637 10.3493 204.927 11.6 204.927 13C204.927 14.4 204.637 15.6507 204.059 16.752C203.48 17.8533 202.687 18.7213 201.679 19.356C200.671 19.972 199.551 20.28 198.319 20.28C197.385 20.28 196.508 20.0747 195.687 19.664C194.865 19.2347 194.165 18.6467 193.587 17.9V24.76H190.927V6H193.447V8.268C194.044 7.46533 194.763 6.84 195.603 6.392C196.443 5.944 197.348 5.72 198.319 5.72ZM197.871 17.816C198.692 17.816 199.429 17.6107 200.083 17.2C200.736 16.7893 201.249 16.22 201.623 15.492C201.996 14.7453 202.183 13.9147 202.183 13C202.183 12.0853 201.996 11.264 201.623 10.536C201.249 9.78933 200.736 9.21067 200.083 8.8C199.429 8.38933 198.692 8.184 197.871 8.184C197.049 8.184 196.303 8.38933 195.631 8.8C194.959 9.21067 194.436 9.78933 194.063 10.536C193.689 11.264 193.503 12.0853 193.503 13C193.503 13.9147 193.689 14.7453 194.063 15.492C194.436 16.22 194.959 16.7893 195.631 17.2C196.303 17.6107 197.049 17.816 197.871 17.816ZM220.934 6L212.73 24.76H209.846L212.058 19.748L205.226 6H208.39L213.458 16.92L217.994 6H220.934ZM228.397 5.72C229.834 5.72 231.085 6.028 232.149 6.644C233.232 7.26 234.062 8.13733 234.641 9.276C235.22 10.396 235.509 11.712 235.509 13.224C235.509 13.616 235.5 13.9053 235.481 14.092H224.001C224.188 15.1747 224.692 16.0707 225.513 16.78C226.353 17.4707 227.324 17.816 228.425 17.816C230.236 17.816 231.524 17.1533 232.289 15.828H235.033C234.585 17.1347 233.754 18.208 232.541 19.048C231.328 19.8693 229.956 20.28 228.425 20.28C227.062 20.28 225.83 19.972 224.729 19.356C223.628 18.7213 222.769 17.8533 222.153 16.752C221.537 15.632 221.229 14.3813 221.229 13C221.229 11.6187 221.537 10.3773 222.153 9.276C222.769 8.156 223.618 7.288 224.701 6.672C225.802 6.03733 227.034 5.72 228.397 5.72ZM228.341 8.072C227.24 8.072 226.288 8.41733 225.485 9.108C224.701 9.79867 224.216 10.6853 224.029 11.768H232.625C232.513 10.648 232.056 9.752 231.253 9.08C230.469 8.408 229.498 8.072 228.341 8.072ZM255.671 20H253.011V9.22L246.991 20L240.971 9.276V20H238.311V6H241.951L247.047 15.156L252.087 6H255.671V20ZM273.83 6.42C275.1 6.42 276.266 6.728 277.33 7.344C278.394 7.94133 279.225 8.76267 279.822 9.808C280.438 10.8533 280.746 12.0107 280.746 13.28C280.746 14.568 280.429 15.7533 279.794 16.836C279.178 17.9 278.32 18.74 277.218 19.356C276.136 19.972 274.941 20.28 273.634 20.28C272.309 20.28 271.096 19.972 269.994 19.356C268.912 18.7213 268.053 17.844 267.418 16.724C266.784 15.604 266.466 14.3347 266.466 12.916V7.54C266.466 5.78533 266.905 4.46933 267.782 3.592C268.678 2.696 269.938 2.14533 271.562 1.94L276.574 1.296C277.041 1.24 277.274 1.00667 277.274 0.595999V0.259999H279.962V0.931998C279.962 1.69733 279.72 2.31333 279.234 2.78C278.768 3.228 278.217 3.48933 277.582 3.564L271.814 4.32C270.769 4.45067 269.994 4.74 269.49 5.188C269.005 5.61733 268.762 6.29867 268.762 7.232V9.192C269.341 8.31467 270.069 7.63333 270.946 7.148C271.842 6.66267 272.804 6.42 273.83 6.42ZM273.55 17.816C274.372 17.816 275.118 17.62 275.79 17.228C276.481 16.8173 277.022 16.2667 277.414 15.576C277.806 14.8853 278.002 14.12 278.002 13.28C278.002 12.44 277.806 11.6747 277.414 10.984C277.022 10.2933 276.481 9.752 275.79 9.36C275.118 8.94933 274.372 8.744 273.55 8.744C272.71 8.744 271.945 8.94933 271.254 9.36C270.564 9.752 270.022 10.2933 269.63 10.984C269.238 11.6747 269.042 12.44 269.042 13.28C269.042 14.12 269.238 14.8853 269.63 15.576C270.022 16.2667 270.564 16.8173 271.254 17.228C271.945 17.62 272.71 17.816 273.55 17.816ZM289.58 5.72C291.018 5.72 292.268 6.028 293.332 6.644C294.415 7.26 295.246 8.13733 295.824 9.276C296.403 10.396 296.692 11.712 296.692 13.224C296.692 13.616 296.683 13.9053 296.664 14.092H285.184C285.371 15.1747 285.875 16.0707 286.696 16.78C287.536 17.4707 288.507 17.816 289.608 17.816C291.419 17.816 292.707 17.1533 293.472 15.828H296.216C295.768 17.1347 294.938 18.208 293.724 19.048C292.511 19.8693 291.139 20.28 289.608 20.28C288.246 20.28 287.014 19.972 285.912 19.356C284.811 18.7213 283.952 17.8533 283.336 16.752C282.72 15.632 282.412 14.3813 282.412 13C282.412 11.6187 282.72 10.3773 283.336 9.276C283.952 8.156 284.802 7.288 285.884 6.672C286.986 6.03733 288.218 5.72 289.58 5.72ZM289.524 8.072C288.423 8.072 287.471 8.41733 286.668 9.108C285.884 9.79867 285.399 10.6853 285.212 11.768H293.808C293.696 10.648 293.239 9.752 292.436 9.08C291.652 8.408 290.682 8.072 289.524 8.072ZM298.371 13C298.371 11.656 298.698 10.4333 299.351 9.332C300.004 8.212 300.9 7.33467 302.039 6.7C303.178 6.04667 304.438 5.72 305.819 5.72C307.368 5.72 308.759 6.17733 309.991 7.092C311.242 7.988 312.063 9.164 312.455 10.62H309.543C309.226 9.87333 308.712 9.28533 308.003 8.856C307.312 8.408 306.538 8.184 305.679 8.184C304.802 8.184 304.018 8.39867 303.327 8.828C302.636 9.23867 302.095 9.81733 301.703 10.564C301.311 11.292 301.115 12.104 301.115 13C301.115 13.896 301.311 14.7173 301.703 15.464C302.095 16.192 302.636 16.7707 303.327 17.2C304.018 17.6107 304.802 17.816 305.679 17.816C306.538 17.816 307.312 17.6013 308.003 17.172C308.712 16.724 309.226 16.1267 309.543 15.38H312.455C312.063 16.836 311.242 18.0213 309.991 18.936C308.759 19.832 307.368 20.28 305.819 20.28C304.438 20.28 303.178 19.9627 302.039 19.328C300.9 18.6747 300.004 17.7973 299.351 16.696C298.698 15.576 298.371 14.344 298.371 13ZM327.588 20H324.928V8.52H317.648V20H314.988V6H327.588V20ZM344.146 20.028H341.486V8.52H335.494V11.068C335.494 13.0653 335.382 14.6987 335.158 15.968C334.953 17.2373 334.514 18.2547 333.842 19.02C333.17 19.7667 332.172 20.14 330.846 20.14C330.492 20.14 330.109 20.0933 329.698 20V17.536C330.034 17.592 330.333 17.62 330.594 17.62C331.192 17.62 331.64 17.4333 331.938 17.06C332.256 16.6867 332.48 16.024 332.61 15.072C332.741 14.1013 332.806 12.6827 332.806 10.816V6H344.146V20.028ZM360.959 6V20H358.299V17.9C357.72 18.6467 357.02 19.2347 356.199 19.664C355.377 20.0747 354.5 20.28 353.567 20.28C352.335 20.28 351.215 19.972 350.207 19.356C349.199 18.7213 348.405 17.8533 347.827 16.752C347.248 15.6507 346.959 14.4 346.959 13C346.959 11.6 347.248 10.3493 347.827 9.248C348.405 8.14667 349.199 7.288 350.207 6.672C351.215 6.03733 352.335 5.72 353.567 5.72C354.537 5.72 355.443 5.944 356.283 6.392C357.123 6.84 357.841 7.46533 358.439 8.268V6H360.959ZM354.015 17.816C354.836 17.816 355.583 17.6107 356.255 17.2C356.927 16.7893 357.449 16.22 357.823 15.492C358.196 14.7453 358.383 13.9147 358.383 13C358.383 12.0853 358.196 11.264 357.823 10.536C357.449 9.78933 356.927 9.21067 356.255 8.8C355.583 8.38933 354.836 8.184 354.015 8.184C353.193 8.184 352.456 8.38933 351.803 8.8C351.149 9.21067 350.636 9.78933 350.263 10.536C349.889 11.264 349.703 12.0853 349.703 13C349.703 13.9147 349.889 14.7453 350.263 15.492C350.636 16.22 351.149 16.7893 351.803 17.2C352.456 17.6107 353.193 17.816 354.015 17.816ZM375.665 8.52H370.765V20H368.105V8.52H363.205V6H375.665V8.52ZM390.494 6V20H387.834V14.26H380.554V20H377.894V6H380.554V11.74H387.834V6H390.494ZM400.752 20.28C399.371 20.28 398.111 19.9627 396.972 19.328C395.834 18.6747 394.938 17.7973 394.284 16.696C393.631 15.576 393.304 14.344 393.304 13C393.304 11.656 393.631 10.4333 394.284 9.332C394.938 8.212 395.834 7.33467 396.972 6.7C398.111 6.04667 399.371 5.72 400.752 5.72C402.115 5.72 403.356 6.04667 404.476 6.7C405.615 7.33467 406.511 8.212 407.164 9.332C407.818 10.4333 408.144 11.656 408.144 13C408.144 14.344 407.818 15.576 407.164 16.696C406.511 17.7973 405.615 18.6747 404.476 19.328C403.356 19.9627 402.115 20.28 400.752 20.28ZM400.752 17.816C401.611 17.816 402.395 17.6107 403.104 17.2C403.814 16.7707 404.374 16.192 404.784 15.464C405.195 14.7173 405.4 13.896 405.4 13C405.4 12.104 405.195 11.292 404.784 10.564C404.374 9.81733 403.814 9.23867 403.104 8.828C402.395 8.39867 401.611 8.184 400.752 8.184C399.875 8.184 399.072 8.39867 398.344 8.828C397.635 9.23867 397.075 9.81733 396.664 10.564C396.254 11.292 396.048 12.104 396.048 13C396.048 13.896 396.254 14.7173 396.664 15.464C397.075 16.192 397.635 16.7707 398.344 17.2C399.072 17.6107 399.875 17.816 400.752 17.816Z" fill="white"/>
</svg>
