<svg width="151" height="18" viewBox="0 0 151 18" fill="none" xmlns="http://www.w3.org/2000/svg">
<path d="M12.8 14H10.8V1.92H2.8V14H0.8V-9.53674e-07H12.8V14ZM21.1855 3.8C22.0655 3.8 22.8655 4.02667 23.5855 4.48C24.3055 4.92 24.8721 5.53333 25.2855 6.32C25.6988 7.10667 25.9055 8 25.9055 9C25.9055 10 25.6988 10.8933 25.2855 11.68C24.8721 12.4667 24.3055 13.0867 23.5855 13.54C22.8655 13.98 22.0655 14.2 21.1855 14.2C20.5188 14.2 19.8921 14.0533 19.3055 13.76C18.7188 13.4533 18.2188 13.0333 17.8055 12.5V17.4H15.9055V4H17.7055V5.62C18.1321 5.04667 18.6455 4.6 19.2455 4.28C19.8455 3.96 20.4921 3.8 21.1855 3.8ZM20.8655 12.44C21.4521 12.44 21.9788 12.2933 22.4455 12C22.9121 11.7067 23.2788 11.3 23.5455 10.78C23.8121 10.2467 23.9455 9.65333 23.9455 9C23.9455 8.34667 23.8121 7.76 23.5455 7.24C23.2788 6.70667 22.9121 6.29333 22.4455 6C21.9788 5.70667 21.4521 5.56 20.8655 5.56C20.2788 5.56 19.7455 5.70667 19.2655 6C18.7855 6.29333 18.4121 6.70667 18.1455 7.24C17.8788 7.76 17.7455 8.34667 17.7455 9C17.7455 9.65333 17.8788 10.2467 18.1455 10.78C18.4121 11.3 18.7855 11.7067 19.2655 12C19.7455 12.2933 20.2788 12.44 20.8655 12.44ZM36.9102 4V14H35.0102V7.84L29.8102 12.24V14H27.9102V4H29.8102V10.04L35.0102 5.64V4H36.9102ZM47.7372 14H45.8372V10.24H42.5572C41.9439 10.24 41.6372 10.5533 41.6372 11.18V11.98C41.6372 12.6467 41.4705 13.1533 41.1372 13.5C40.8172 13.8333 40.3439 14 39.7172 14H38.8772V12.18H39.2572C39.4039 12.18 39.5172 12.14 39.5972 12.06C39.6905 11.9667 39.7372 11.8467 39.7372 11.7V10.88C39.7372 10.1333 40.0905 9.60667 40.7972 9.3C40.3572 9.04667 40.0172 8.71333 39.7772 8.3C39.5505 7.88667 39.4372 7.42667 39.4372 6.92C39.4372 6.06667 39.7305 5.36667 40.3172 4.82C40.9172 4.27333 41.7439 4 42.7972 4H47.7372V14ZM43.0572 5.7C42.5105 5.7 42.0972 5.82667 41.8172 6.08C41.5372 6.32 41.3972 6.67333 41.3972 7.14C41.3972 7.60667 41.5372 7.96667 41.8172 8.22C42.0972 8.46 42.5105 8.58 43.0572 8.58H45.8372V5.7H43.0572ZM58.2305 5.8H54.7305V14H52.8305V5.8H49.3305V4H58.2305V5.8ZM68.8227 4V14H66.9227V9.9H61.7227V14H59.8227V4H61.7227V8.1H66.9227V4H68.8227ZM76.6697 7.96C77.723 7.96 78.543 8.24667 79.1297 8.82C79.7297 9.38 80.0297 10.1 80.0297 10.98C80.0297 11.86 79.7297 12.5867 79.1297 13.16C78.543 13.72 77.723 14 76.6697 14H71.7297V4H73.6297V7.96H76.6697ZM76.4097 12.34C76.9564 12.34 77.3697 12.2267 77.6497 12C77.9297 11.7733 78.0697 11.4333 78.0697 10.98C78.0697 10.5267 77.9297 10.1867 77.6497 9.96C77.3697 9.73333 76.9564 9.62 76.4097 9.62H73.6297V12.34H76.4097ZM83.7297 4V14H81.8297V4H83.7297ZM90.845 3.8C91.8717 3.8 92.765 4.02 93.525 4.46C94.2983 4.9 94.8917 5.52667 95.305 6.34C95.7183 7.14 95.925 8.08 95.925 9.16C95.925 9.44 95.9183 9.64667 95.905 9.78H87.705C87.8383 10.5533 88.1983 11.1933 88.785 11.7C89.385 12.1933 90.0783 12.44 90.865 12.44C92.1583 12.44 93.0783 11.9667 93.625 11.02H95.585C95.265 11.9533 94.6717 12.72 93.805 13.32C92.9383 13.9067 91.9583 14.2 90.865 14.2C89.8917 14.2 89.0117 13.98 88.225 13.54C87.4383 13.0867 86.825 12.4667 86.385 11.68C85.945 10.88 85.725 9.98667 85.725 9C85.725 8.01333 85.945 7.12667 86.385 6.34C86.825 5.54 87.4317 4.92 88.205 4.48C88.9917 4.02667 89.8717 3.8 90.845 3.8ZM90.805 5.48C90.0183 5.48 89.3383 5.72667 88.765 6.22C88.205 6.71333 87.8583 7.34667 87.725 8.12H93.865C93.785 7.32 93.4583 6.68 92.885 6.2C92.325 5.72 91.6317 5.48 90.805 5.48ZM113.632 12.2V16.2H111.792V14H103.232V4H105.132V12.2H110.332V4H112.232V12.2H113.632ZM119.457 3.8C120.483 3.8 121.377 4.02 122.137 4.46C122.91 4.9 123.503 5.52667 123.917 6.34C124.33 7.14 124.537 8.08 124.537 9.16C124.537 9.44 124.53 9.64667 124.517 9.78H116.317C116.45 10.5533 116.81 11.1933 117.397 11.7C117.997 12.1933 118.69 12.44 119.477 12.44C120.77 12.44 121.69 11.9667 122.237 11.02H124.197C123.877 11.9533 123.283 12.72 122.417 13.32C121.55 13.9067 120.57 14.2 119.477 14.2C118.503 14.2 117.623 13.98 116.837 13.54C116.05 13.0867 115.437 12.4667 114.997 11.68C114.557 10.88 114.337 9.98667 114.337 9C114.337 8.01333 114.557 7.12667 114.997 6.34C115.437 5.54 116.043 4.92 116.817 4.48C117.603 4.02667 118.483 3.8 119.457 3.8ZM119.417 5.48C118.63 5.48 117.95 5.72667 117.377 6.22C116.817 6.71333 116.47 7.34667 116.337 8.12H122.477C122.397 7.32 122.07 6.68 121.497 6.2C120.937 5.72 120.243 5.48 119.417 5.48ZM135.538 4V14H133.638V9.9H128.438V14H126.538V4H128.438V8.1H133.638V4H135.538ZM143.385 7.96C144.439 7.96 145.259 8.24667 145.845 8.82C146.445 9.38 146.745 10.1 146.745 10.98C146.745 11.86 146.445 12.5867 145.845 13.16C145.259 13.72 144.439 14 143.385 14H138.445V4H140.345V7.96H143.385ZM143.125 12.34C143.672 12.34 144.085 12.2267 144.365 12C144.645 11.7733 144.785 11.4333 144.785 10.98C144.785 10.5267 144.645 10.1867 144.365 9.96C144.085 9.73333 143.672 9.62 143.125 9.62H140.345V12.34H143.125ZM150.445 4V14H148.545V4H150.445Z" fill="white"/>
</svg>
