<svg width="569" height="24" viewBox="0 0 569 24" fill="none" xmlns="http://www.w3.org/2000/svg">
<path d="M10.3151 0.599998C11.8085 0.599998 13.0885 0.887999 14.1551 1.464C15.2431 2.01867 16.0645 2.79733 16.6191 3.8C17.1951 4.78133 17.4831 5.90133 17.4831 7.16C17.4831 8.41867 17.1951 9.54933 16.6191 10.552C16.0645 11.5333 15.2431 12.312 14.1551 12.888C13.0885 13.4427 11.8085 13.72 10.3151 13.72H3.72313V23H0.523128V0.599998H10.3151ZM10.2191 10.744C11.4991 10.744 12.4698 10.4453 13.1311 9.848C13.7925 9.22933 14.1231 8.33333 14.1231 7.16C14.1231 5.98667 13.7925 5.10133 13.1311 4.504C12.4698 3.90667 11.4991 3.608 10.2191 3.608H3.72313V10.744H10.2191ZM34.3106 20.12V23H32.7746C31.9853 23 31.3666 22.808 30.9186 22.424C30.4706 22.0187 30.204 21.4427 30.1186 20.696C29.436 21.4853 28.5506 22.1253 27.4626 22.616C26.396 23.0853 25.2653 23.32 24.0706 23.32C22.3426 23.32 20.9986 22.8933 20.0386 22.04C19.1 21.1867 18.6306 20.0453 18.6306 18.616C18.6306 17.3147 19.1426 16.2053 20.1666 15.288C21.1906 14.3493 22.6306 13.784 24.4866 13.592L26.2786 13.4C27.2813 13.2933 28.028 13.1653 28.5186 13.016C29.0093 12.8453 29.3186 12.664 29.4466 12.472C29.596 12.28 29.6706 12.024 29.6706 11.704C29.6706 10.9787 29.3186 10.4133 28.6146 10.008C27.932 9.58133 26.9826 9.368 25.7666 9.368C24.9773 9.368 24.22 9.58133 23.4946 10.008C22.7693 10.4133 22.268 11 21.9906 11.768H18.7586C19.0573 10.2747 19.868 9.05867 21.1906 8.12C22.5133 7.16 24.092 6.68 25.9266 6.68C27.9533 6.68 29.6173 7.23467 30.9186 8.344C32.22 9.45333 32.8706 11.0427 32.8706 13.112V19.256C32.8706 19.5333 32.9453 19.7467 33.0946 19.896C33.244 20.0453 33.4466 20.12 33.7026 20.12H34.3106ZM24.3906 20.696C25.3933 20.696 26.332 20.4933 27.2066 20.088C28.0813 19.6613 28.7746 19.1067 29.2866 18.424C29.82 17.72 30.0866 16.9733 30.0866 16.184V14.744C29.3613 15.2987 28.2093 15.6613 26.6306 15.832L24.8386 16.024C23.644 16.152 22.812 16.44 22.3426 16.888C21.8733 17.336 21.6386 17.9013 21.6386 18.584C21.6386 19.224 21.8733 19.736 22.3426 20.12C22.8333 20.504 23.516 20.696 24.3906 20.696ZM45.1091 7.48C46.5598 7.48 47.8931 7.832 49.1091 8.536C50.3251 9.21867 51.2745 10.1573 51.9571 11.352C52.6611 12.5467 53.0131 13.8693 53.0131 15.32C53.0131 16.792 52.6505 18.1467 51.9251 19.384C51.2211 20.6 50.2398 21.56 48.9811 22.264C47.7438 22.968 46.3785 23.32 44.8851 23.32C43.3705 23.32 41.9838 22.968 40.7251 22.264C39.4878 21.5387 38.5065 20.536 37.7811 19.256C37.0558 17.976 36.6931 16.5253 36.6931 14.904V8.76C36.6931 6.75467 37.1945 5.25067 38.1971 4.248C39.2211 3.224 40.6611 2.59467 42.5171 2.36L48.2451 1.624C48.7785 1.56 49.0451 1.29333 49.0451 0.823999V0.439999H52.1171V1.208C52.1171 2.08267 51.8398 2.78667 51.2851 3.32C50.7518 3.832 50.1225 4.13067 49.3971 4.216L42.8051 5.08C41.6105 5.22933 40.7251 5.56 40.1491 6.072C39.5945 6.56267 39.3171 7.34133 39.3171 8.408V10.648C39.9785 9.64533 40.8105 8.86667 41.8131 8.312C42.8371 7.75733 43.9358 7.48 45.1091 7.48ZM44.7891 20.504C45.7278 20.504 46.5811 20.28 47.3491 19.832C48.1385 19.3627 48.7571 18.7333 49.2051 17.944C49.6531 17.1547 49.8771 16.28 49.8771 15.32C49.8771 14.36 49.6531 13.4853 49.2051 12.696C48.7571 11.9067 48.1385 11.288 47.3491 10.84C46.5811 10.3707 45.7278 10.136 44.7891 10.136C43.8291 10.136 42.9545 10.3707 42.1651 10.84C41.3758 11.288 40.7571 11.9067 40.3091 12.696C39.8611 13.4853 39.6371 14.36 39.6371 15.32C39.6371 16.28 39.8611 17.1547 40.3091 17.944C40.7571 18.7333 41.3758 19.3627 42.1651 19.832C42.9545 20.28 43.8291 20.504 44.7891 20.504ZM63.4289 23.32C61.8502 23.32 60.4102 22.9573 59.1089 22.232C57.8075 21.4853 56.7835 20.4827 56.0369 19.224C55.2902 17.944 54.9169 16.536 54.9169 15C54.9169 13.464 55.2902 12.0667 56.0369 10.808C56.7835 9.528 57.8075 8.52533 59.1089 7.8C60.4102 7.05333 61.8502 6.68 63.4289 6.68C64.9862 6.68 66.4049 7.05333 67.6849 7.8C68.9862 8.52533 70.0102 9.528 70.7569 10.808C71.5035 12.0667 71.8769 13.464 71.8769 15C71.8769 16.536 71.5035 17.944 70.7569 19.224C70.0102 20.4827 68.9862 21.4853 67.6849 22.232C66.4049 22.9573 64.9862 23.32 63.4289 23.32ZM63.4289 20.504C64.4102 20.504 65.3062 20.2693 66.1169 19.8C66.9275 19.3093 67.5675 18.648 68.0369 17.816C68.5062 16.9627 68.7409 16.024 68.7409 15C68.7409 13.976 68.5062 13.048 68.0369 12.216C67.5675 11.3627 66.9275 10.7013 66.1169 10.232C65.3062 9.74133 64.4102 9.496 63.4289 9.496C62.4262 9.496 61.5089 9.74133 60.6769 10.232C59.8662 10.7013 59.2262 11.3627 58.7569 12.216C58.2875 13.048 58.0529 13.976 58.0529 15C58.0529 16.024 58.2875 16.9627 58.7569 17.816C59.2262 18.648 59.8662 19.3093 60.6769 19.8C61.5089 20.2693 62.4262 20.504 63.4289 20.504ZM86.5994 9.88H80.9994V23H77.9594V9.88H72.3594V7H86.5994V9.88ZM102.922 20.12V23H101.386C100.597 23 99.9779 22.808 99.5299 22.424C99.0819 22.0187 98.8152 21.4427 98.7299 20.696C98.0472 21.4853 97.1619 22.1253 96.0739 22.616C95.0072 23.0853 93.8766 23.32 92.6819 23.32C90.9539 23.32 89.6099 22.8933 88.6499 22.04C87.7112 21.1867 87.2419 20.0453 87.2419 18.616C87.2419 17.3147 87.7539 16.2053 88.7779 15.288C89.8019 14.3493 91.2419 13.784 93.0979 13.592L94.8899 13.4C95.8926 13.2933 96.6392 13.1653 97.1299 13.016C97.6206 12.8453 97.9299 12.664 98.0579 12.472C98.2072 12.28 98.2819 12.024 98.2819 11.704C98.2819 10.9787 97.9299 10.4133 97.2259 10.008C96.5432 9.58133 95.5939 9.368 94.3779 9.368C93.5886 9.368 92.8312 9.58133 92.1059 10.008C91.3806 10.4133 90.8792 11 90.6019 11.768H87.3699C87.6686 10.2747 88.4792 9.05867 89.8019 8.12C91.1246 7.16 92.7032 6.68 94.5379 6.68C96.5646 6.68 98.2286 7.23467 99.5299 8.344C100.831 9.45333 101.482 11.0427 101.482 13.112V19.256C101.482 19.5333 101.557 19.7467 101.706 19.896C101.855 20.0453 102.058 20.12 102.314 20.12H102.922ZM93.0019 20.696C94.0046 20.696 94.9432 20.4933 95.8179 20.088C96.6926 19.6613 97.3859 19.1067 97.8979 18.424C98.4312 17.72 98.6979 16.9733 98.6979 16.184V14.744C97.9726 15.2987 96.8206 15.6613 95.2419 15.832L93.4499 16.024C92.2552 16.152 91.4232 16.44 90.9539 16.888C90.4846 17.336 90.2499 17.9013 90.2499 18.584C90.2499 19.224 90.4846 19.736 90.9539 20.12C91.4446 20.504 92.1272 20.696 93.0019 20.696ZM112.856 6.68C114.499 6.68 115.928 7.032 117.144 7.736C118.382 8.44 119.331 9.44267 119.992 10.744C120.654 12.024 120.984 13.528 120.984 15.256C120.984 15.704 120.974 16.0347 120.952 16.248H107.832C108.046 17.4853 108.622 18.5093 109.56 19.32C110.52 20.1093 111.63 20.504 112.888 20.504C114.958 20.504 116.43 19.7467 117.304 18.232H120.44C119.928 19.7253 118.979 20.952 117.592 21.912C116.206 22.8507 114.638 23.32 112.888 23.32C111.331 23.32 109.923 22.968 108.664 22.264C107.406 21.5387 106.424 20.5467 105.72 19.288C105.016 18.008 104.664 16.5787 104.664 15C104.664 13.4213 105.016 12.0027 105.72 10.744C106.424 9.464 107.395 8.472 108.632 7.768C109.891 7.04267 111.299 6.68 112.856 6.68ZM112.792 9.368C111.534 9.368 110.446 9.76267 109.528 10.552C108.632 11.3413 108.078 12.3547 107.864 13.592H117.688C117.56 12.312 117.038 11.288 116.12 10.52C115.224 9.752 114.115 9.368 112.792 9.368ZM144.027 23H140.987V11.32L135.611 23H132.603L127.227 11.416V23H124.187V7H128.347L134.171 19.832L139.931 7H144.027V23ZM171.564 7V23H168.524V13.144L160.204 20.184V23H157.164V7H160.204V16.664L168.524 9.624V7H171.564ZM174.776 15C174.776 13.464 175.149 12.0667 175.896 10.808C176.642 9.528 177.666 8.52533 178.968 7.8C180.269 7.05333 181.709 6.68 183.288 6.68C185.058 6.68 186.648 7.20267 188.056 8.248C189.485 9.272 190.424 10.616 190.872 12.28H187.544C187.181 11.4267 186.594 10.7547 185.784 10.264C184.994 9.752 184.109 9.496 183.128 9.496C182.125 9.496 181.229 9.74133 180.44 10.232C179.65 10.7013 179.032 11.3627 178.584 12.216C178.136 13.048 177.912 13.976 177.912 15C177.912 16.024 178.136 16.9627 178.584 17.816C179.032 18.648 179.65 19.3093 180.44 19.8C181.229 20.2693 182.125 20.504 183.128 20.504C184.109 20.504 184.994 20.2587 185.784 19.768C186.594 19.256 187.181 18.5733 187.544 17.72H190.872C190.424 19.384 189.485 20.7387 188.056 21.784C186.648 22.808 185.058 23.32 183.288 23.32C181.709 23.32 180.269 22.9573 178.968 22.232C177.666 21.4853 176.642 20.4827 175.896 19.224C175.149 17.944 174.776 16.536 174.776 15ZM208.295 20.088V23H207.015C206.012 23 205.244 22.7333 204.711 22.2C204.199 21.6453 203.943 20.8347 203.943 19.768V17.752C203.943 16.7493 203.452 16.248 202.471 16.248H196.807V23H193.767V7H196.807V13.624H202.055C202.631 13.624 203.068 13.4747 203.367 13.176C203.687 12.8773 203.847 12.4293 203.847 11.832V10.072C203.847 8.024 204.807 7 206.727 7H208.103V9.912H207.495C207.26 9.912 207.068 9.98667 206.919 10.136C206.791 10.264 206.727 10.4453 206.727 10.68V12.408C206.727 13.5813 206.3 14.4133 205.447 14.904C206.428 15.3733 206.919 16.184 206.919 17.336V19.32C206.919 19.5547 206.983 19.7467 207.111 19.896C207.26 20.024 207.452 20.088 207.687 20.088H208.295ZM226.146 23H223.106V9.88H217.506C217.485 12.9947 217.239 15.5227 216.77 17.464C216.301 19.384 215.575 20.8027 214.594 21.72C213.634 22.6373 212.375 23.096 210.818 23.096C210.455 23.096 210.157 23.064 209.922 23V20.216C210.221 20.2587 210.445 20.28 210.594 20.28C211.533 20.28 212.279 19.928 212.834 19.224C213.41 18.4987 213.826 17.3573 214.082 15.8C214.338 14.2213 214.466 12.1307 214.466 9.528V7H226.146V23ZM244.664 6.68C246.2 6.68 247.597 7.05333 248.856 7.8C250.136 8.52533 251.138 9.528 251.864 10.808C252.589 12.0667 252.952 13.464 252.952 15C252.952 16.536 252.589 17.944 251.864 19.224C251.138 20.4827 250.136 21.4853 248.856 22.232C247.597 22.9573 246.2 23.32 244.664 23.32C243.298 23.32 242.029 23.0213 240.856 22.424C239.704 21.8267 238.744 21.0053 237.976 19.96C237.229 18.9147 236.76 17.7413 236.568 16.44H233.816V23H230.776V7H233.816V13.56H236.568C236.76 12.2587 237.229 11.0853 237.976 10.04C238.744 8.99467 239.704 8.17333 240.856 7.576C242.029 6.97867 243.298 6.68 244.664 6.68ZM244.664 20.504C245.624 20.504 246.498 20.2693 247.288 19.8C248.077 19.3093 248.696 18.648 249.144 17.816C249.592 16.9627 249.816 16.024 249.816 15C249.816 13.976 249.592 13.048 249.144 12.216C248.696 11.3627 248.077 10.7013 247.288 10.232C246.498 9.74133 245.624 9.496 244.664 9.496C243.704 9.496 242.818 9.74133 242.008 10.232C241.218 10.7013 240.589 11.3627 240.12 12.216C239.672 13.048 239.448 13.976 239.448 15C239.448 16.024 239.672 16.9627 240.12 17.816C240.589 18.648 241.218 19.3093 242.008 19.8C242.818 20.2693 243.704 20.504 244.664 20.504ZM268.619 7V23H265.579V16.792H260.459C258.817 16.792 257.526 16.312 256.587 15.352C255.649 14.392 255.179 13.1653 255.179 11.672V7H258.219V11.576C258.219 12.408 258.433 13.0267 258.859 13.432C259.307 13.8373 260.001 14.04 260.939 14.04H265.579V7H268.619ZM287.653 7V23H284.613V13.144L276.293 20.184V23H273.253V7H276.293V16.664L284.613 9.624V7H287.653ZM304.464 9.88H298.864V23H295.824V9.88H290.224V7H304.464V9.88ZM313.139 6.68C314.782 6.68 316.211 7.032 317.427 7.736C318.664 8.44 319.614 9.44267 320.275 10.744C320.936 12.024 321.267 13.528 321.267 15.256C321.267 15.704 321.256 16.0347 321.235 16.248H308.115C308.328 17.4853 308.904 18.5093 309.843 19.32C310.803 20.1093 311.912 20.504 313.171 20.504C315.24 20.504 316.712 19.7467 317.587 18.232H320.723C320.211 19.7253 319.262 20.952 317.875 21.912C316.488 22.8507 314.92 23.32 313.171 23.32C311.614 23.32 310.206 22.968 308.947 22.264C307.688 21.5387 306.707 20.5467 306.003 19.288C305.299 18.008 304.947 16.5787 304.947 15C304.947 13.4213 305.299 12.0027 306.003 10.744C306.707 9.464 307.678 8.472 308.915 7.768C310.174 7.04267 311.582 6.68 313.139 6.68ZM313.075 9.368C311.816 9.368 310.728 9.76267 309.811 10.552C308.915 11.3413 308.36 12.3547 308.147 13.592H317.971C317.843 12.312 317.32 11.288 316.403 10.52C315.507 9.752 314.398 9.368 313.075 9.368ZM338.141 23H335.101V9.88H329.501C329.48 12.9947 329.234 15.5227 328.765 17.464C328.296 19.384 327.57 20.8027 326.589 21.72C325.629 22.6373 324.37 23.096 322.813 23.096C322.45 23.096 322.152 23.064 321.917 23V20.216C322.216 20.2587 322.44 20.28 322.589 20.28C323.528 20.28 324.274 19.928 324.829 19.224C325.405 18.4987 325.821 17.3573 326.077 15.8C326.333 14.2213 326.461 12.1307 326.461 9.528V7H338.141V23ZM350.675 13.336C352.36 13.336 353.672 13.7947 354.611 14.712C355.571 15.608 356.051 16.76 356.051 18.168C356.051 19.576 355.571 20.7387 354.611 21.656C353.672 22.552 352.36 23 350.675 23H342.771V7H345.811V13.336H350.675ZM350.259 20.344C351.133 20.344 351.795 20.1627 352.243 19.8C352.691 19.4373 352.915 18.8933 352.915 18.168C352.915 17.4427 352.691 16.8987 352.243 16.536C351.795 16.1733 351.133 15.992 350.259 15.992H345.811V20.344H350.259ZM373.503 7V23H370.463V16.44H362.143V23H359.103V7H362.143V13.56H370.463V7H373.503ZM385.226 23.32C383.648 23.32 382.208 22.9573 380.906 22.232C379.605 21.4853 378.581 20.4827 377.834 19.224C377.088 17.944 376.714 16.536 376.714 15C376.714 13.464 377.088 12.0667 377.834 10.808C378.581 9.528 379.605 8.52533 380.906 7.8C382.208 7.05333 383.648 6.68 385.226 6.68C386.784 6.68 388.202 7.05333 389.482 7.8C390.784 8.52533 391.808 9.528 392.554 10.808C393.301 12.0667 393.674 13.464 393.674 15C393.674 16.536 393.301 17.944 392.554 19.224C391.808 20.4827 390.784 21.4853 389.482 22.232C388.202 22.9573 386.784 23.32 385.226 23.32ZM385.226 20.504C386.208 20.504 387.104 20.2693 387.914 19.8C388.725 19.3093 389.365 18.648 389.834 17.816C390.304 16.9627 390.538 16.024 390.538 15C390.538 13.976 390.304 13.048 389.834 12.216C389.365 11.3627 388.725 10.7013 387.914 10.232C387.104 9.74133 386.208 9.496 385.226 9.496C384.224 9.496 383.306 9.74133 382.474 10.232C381.664 10.7013 381.024 11.3627 380.554 12.216C380.085 13.048 379.85 13.976 379.85 15C379.85 16.024 380.085 16.9627 380.554 17.816C381.024 18.648 381.664 19.3093 382.474 19.8C383.306 20.2693 384.224 20.504 385.226 20.504Z" fill="white"/>
<path d="M403.911 15C403.911 13.464 404.284 12.0667 405.031 10.808C405.777 9.528 406.801 8.52533 408.103 7.8C409.404 7.05333 410.844 6.68 412.423 6.68C414.193 6.68 415.783 7.20267 417.191 8.248C418.62 9.272 419.559 10.616 420.007 12.28H416.679C416.316 11.4267 415.729 10.7547 414.919 10.264C414.129 9.752 413.244 9.496 412.263 9.496C411.26 9.496 410.364 9.74133 409.575 10.232C408.785 10.7013 408.167 11.3627 407.719 12.216C407.271 13.048 407.047 13.976 407.047 15C407.047 16.024 407.271 16.9627 407.719 17.816C408.167 18.648 408.785 19.3093 409.575 19.8C410.364 20.2693 411.26 20.504 412.263 20.504C413.244 20.504 414.129 20.2587 414.919 19.768C415.729 19.256 416.316 18.5733 416.679 17.72H420.007C419.559 19.384 418.62 20.7387 417.191 21.784C415.783 22.808 414.193 23.32 412.423 23.32C410.844 23.32 409.404 22.9573 408.103 22.232C406.801 21.4853 405.777 20.4827 405.031 19.224C404.284 17.944 403.911 16.536 403.911 15ZM445.375 23H442.335V9.88H436.735C436.713 12.9947 436.468 15.5227 435.999 17.464C435.529 19.384 434.804 20.8027 433.823 21.72C432.863 22.6373 431.604 23.096 430.047 23.096C429.684 23.096 429.385 23.064 429.151 23V20.216C429.449 20.2587 429.673 20.28 429.823 20.28C430.761 20.28 431.508 19.928 432.063 19.224C432.639 18.4987 433.055 17.3573 433.311 15.8C433.567 14.2213 433.695 12.1307 433.695 9.528V7H445.375V23ZM463.892 6.68C465.428 6.68 466.826 7.05333 468.084 7.8C469.364 8.52533 470.367 9.528 471.092 10.808C471.818 12.0667 472.18 13.464 472.18 15C472.18 16.536 471.818 17.944 471.092 19.224C470.367 20.4827 469.364 21.4853 468.084 22.232C466.826 22.9573 465.428 23.32 463.892 23.32C462.527 23.32 461.258 23.0213 460.084 22.424C458.932 21.8267 457.972 21.0053 457.204 19.96C456.458 18.9147 455.988 17.7413 455.796 16.44H453.044V23H450.004V7H453.044V13.56H455.796C455.988 12.2587 456.458 11.0853 457.204 10.04C457.972 8.99467 458.932 8.17333 460.084 7.576C461.258 6.97867 462.527 6.68 463.892 6.68ZM463.892 20.504C464.852 20.504 465.727 20.2693 466.516 19.8C467.306 19.3093 467.924 18.648 468.372 17.816C468.82 16.9627 469.044 16.024 469.044 15C469.044 13.976 468.82 13.048 468.372 12.216C467.924 11.3627 467.306 10.7013 466.516 10.232C465.727 9.74133 464.852 9.496 463.892 9.496C462.932 9.496 462.047 9.74133 461.236 10.232C460.447 10.7013 459.818 11.3627 459.348 12.216C458.9 13.048 458.676 13.976 458.676 15C458.676 16.024 458.9 16.9627 459.348 17.816C459.818 18.648 460.447 19.3093 461.236 19.8C462.047 20.2693 462.932 20.504 463.892 20.504ZM482.984 7.48C484.435 7.48 485.768 7.832 486.984 8.536C488.2 9.21867 489.149 10.1573 489.832 11.352C490.536 12.5467 490.888 13.8693 490.888 15.32C490.888 16.792 490.525 18.1467 489.8 19.384C489.096 20.6 488.115 21.56 486.856 22.264C485.619 22.968 484.253 23.32 482.76 23.32C481.245 23.32 479.859 22.968 478.6 22.264C477.363 21.5387 476.381 20.536 475.656 19.256C474.931 17.976 474.568 16.5253 474.568 14.904V8.76C474.568 6.75467 475.069 5.25067 476.072 4.248C477.096 3.224 478.536 2.59467 480.392 2.36L486.12 1.624C486.653 1.56 486.92 1.29333 486.92 0.823999V0.439999H489.992V1.208C489.992 2.08267 489.715 2.78667 489.16 3.32C488.627 3.832 487.997 4.13067 487.272 4.216L480.68 5.08C479.485 5.22933 478.6 5.56 478.024 6.072C477.469 6.56267 477.192 7.34133 477.192 8.408V10.648C477.853 9.64533 478.685 8.86667 479.688 8.312C480.712 7.75733 481.811 7.48 482.984 7.48ZM482.664 20.504C483.603 20.504 484.456 20.28 485.224 19.832C486.013 19.3627 486.632 18.7333 487.08 17.944C487.528 17.1547 487.752 16.28 487.752 15.32C487.752 14.36 487.528 13.4853 487.08 12.696C486.632 11.9067 486.013 11.288 485.224 10.84C484.456 10.3707 483.603 10.136 482.664 10.136C481.704 10.136 480.829 10.3707 480.04 10.84C479.251 11.288 478.632 11.9067 478.184 12.696C477.736 13.4853 477.512 14.36 477.512 15.32C477.512 16.28 477.736 17.1547 478.184 17.944C478.632 18.7333 479.251 19.3627 480.04 19.832C480.829 20.28 481.704 20.504 482.664 20.504ZM501.304 23.32C499.725 23.32 498.285 22.9573 496.984 22.232C495.683 21.4853 494.659 20.4827 493.912 19.224C493.165 17.944 492.792 16.536 492.792 15C492.792 13.464 493.165 12.0667 493.912 10.808C494.659 9.528 495.683 8.52533 496.984 7.8C498.285 7.05333 499.725 6.68 501.304 6.68C502.861 6.68 504.28 7.05333 505.56 7.8C506.861 8.52533 507.885 9.528 508.632 10.808C509.379 12.0667 509.752 13.464 509.752 15C509.752 16.536 509.379 17.944 508.632 19.224C507.885 20.4827 506.861 21.4853 505.56 22.232C504.28 22.9573 502.861 23.32 501.304 23.32ZM501.304 20.504C502.285 20.504 503.181 20.2693 503.992 19.8C504.803 19.3093 505.443 18.648 505.912 17.816C506.381 16.9627 506.616 16.024 506.616 15C506.616 13.976 506.381 13.048 505.912 12.216C505.443 11.3627 504.803 10.7013 503.992 10.232C503.181 9.74133 502.285 9.496 501.304 9.496C500.301 9.496 499.384 9.74133 498.552 10.232C497.741 10.7013 497.101 11.3627 496.632 12.216C496.163 13.048 495.928 13.976 495.928 15C495.928 16.024 496.163 16.9627 496.632 17.816C497.101 18.648 497.741 19.3093 498.552 19.8C499.384 20.2693 500.301 20.504 501.304 20.504ZM524.011 14.84C525.59 15.6293 526.379 16.8453 526.379 18.488C526.379 19.8107 525.899 20.8987 524.939 21.752C523.979 22.584 522.657 23 520.971 23H512.939V7H520.971C522.571 7 523.83 7.416 524.747 8.248C525.686 9.05867 526.155 10.0933 526.155 11.352C526.155 12.0987 525.974 12.7813 525.611 13.4C525.27 13.9973 524.737 14.4773 524.011 14.84ZM520.619 13.656C521.409 13.656 522.006 13.4747 522.411 13.112C522.817 12.7493 523.019 12.216 523.019 11.512C523.019 10.2107 522.219 9.56 520.619 9.56H515.915V13.656H520.619ZM520.651 20.44C521.505 20.44 522.145 20.2587 522.571 19.896C523.019 19.512 523.243 18.968 523.243 18.264C523.243 17.6027 523.019 17.1013 522.571 16.76C522.145 16.3973 521.505 16.216 520.651 16.216H515.915V20.44H520.651ZM537.645 13.336C539.33 13.336 540.642 13.7947 541.581 14.712C542.541 15.608 543.021 16.76 543.021 18.168C543.021 19.576 542.541 20.7387 541.581 21.656C540.642 22.552 539.33 23 537.645 23H529.741V7H532.781V13.336H537.645ZM537.229 20.344C538.103 20.344 538.765 20.1627 539.213 19.8C539.661 19.4373 539.885 18.8933 539.885 18.168C539.885 17.4427 539.661 16.8987 539.213 16.536C538.765 16.1733 538.103 15.992 537.229 15.992H532.781V20.344H537.229ZM559.961 6.68C561.497 6.68 562.894 7.05333 564.153 7.8C565.433 8.52533 566.436 9.528 567.161 10.808C567.886 12.0667 568.249 13.464 568.249 15C568.249 16.536 567.886 17.944 567.161 19.224C566.436 20.4827 565.433 21.4853 564.153 22.232C562.894 22.9573 561.497 23.32 559.961 23.32C558.596 23.32 557.326 23.0213 556.153 22.424C555.001 21.8267 554.041 21.0053 553.273 19.96C552.526 18.9147 552.057 17.7413 551.865 16.44H549.113V23H546.073V7H549.113V13.56H551.865C552.057 12.2587 552.526 11.0853 553.273 10.04C554.041 8.99467 555.001 8.17333 556.153 7.576C557.326 6.97867 558.596 6.68 559.961 6.68ZM559.961 20.504C560.921 20.504 561.796 20.2693 562.585 19.8C563.374 19.3093 563.993 18.648 564.441 17.816C564.889 16.9627 565.113 16.024 565.113 15C565.113 13.976 564.889 13.048 564.441 12.216C563.993 11.3627 563.374 10.7013 562.585 10.232C561.796 9.74133 560.921 9.496 559.961 9.496C559.001 9.496 558.116 9.74133 557.305 10.232C556.516 10.7013 555.886 11.3627 555.417 12.216C554.969 13.048 554.745 13.976 554.745 15C554.745 16.024 554.969 16.9627 555.417 17.816C555.886 18.648 556.516 19.3093 557.305 19.8C558.116 20.2693 559.001 20.504 559.961 20.504Z" fill="#FFD600"/>
</svg>
