<svg width="66" height="14" viewBox="0 0 66 14" fill="none" xmlns="http://www.w3.org/2000/svg">
<path d="M9.225 1.94H5.475V11H3.975V1.94H0.225V0.499999H9.225V1.94ZM11.7865 3.35C12.5565 3.35 13.2265 3.515 13.7965 3.845C14.3765 4.175 14.8215 4.645 15.1315 5.255C15.4415 5.855 15.5965 6.56 15.5965 7.37C15.5965 7.58 15.5915 7.735 15.5815 7.835H9.43148C9.53148 8.415 9.80148 8.895 10.2415 9.275C10.6915 9.645 11.2115 9.83 11.8015 9.83C12.7715 9.83 13.4615 9.475 13.8715 8.765H15.3415C15.1015 9.465 14.6565 10.04 14.0065 10.49C13.3565 10.93 12.6215 11.15 11.8015 11.15C11.0715 11.15 10.4115 10.985 9.82148 10.655C9.23148 10.315 8.77148 9.85 8.44148 9.26C8.11148 8.66 7.94648 7.99 7.94648 7.25C7.94648 6.51 8.11148 5.845 8.44148 5.255C8.77148 4.655 9.22648 4.19 9.80648 3.86C10.3965 3.52 11.0565 3.35 11.7865 3.35ZM11.7565 4.61C11.1665 4.61 10.6565 4.795 10.2265 5.165C9.80648 5.535 9.54648 6.01 9.44648 6.59H14.0515C13.9915 5.99 13.7465 5.51 13.3165 5.15C12.8965 4.79 12.3765 4.61 11.7565 4.61ZM23.5062 11H22.0812V4.85H19.4562C19.4462 6.31 19.3312 7.495 19.1112 8.405C18.8912 9.305 18.5512 9.97 18.0912 10.4C17.6412 10.83 17.0512 11.045 16.3212 11.045C16.1512 11.045 16.0112 11.03 15.9012 11V9.695C16.0412 9.715 16.1462 9.725 16.2162 9.725C16.6562 9.725 17.0062 9.56 17.2662 9.23C17.5362 8.89 17.7312 8.355 17.8512 7.625C17.9712 6.885 18.0312 5.905 18.0312 4.685V3.5H23.5062V11ZM28.8414 3.35C29.6114 3.35 30.2814 3.515 30.8514 3.845C31.4314 4.175 31.8764 4.645 32.1864 5.255C32.4964 5.855 32.6514 6.56 32.6514 7.37C32.6514 7.58 32.6464 7.735 32.6364 7.835H26.4864C26.5864 8.415 26.8564 8.895 27.2964 9.275C27.7464 9.645 28.2664 9.83 28.8564 9.83C29.8264 9.83 30.5164 9.475 30.9264 8.765H32.3964C32.1564 9.465 31.7114 10.04 31.0614 10.49C30.4114 10.93 29.6764 11.15 28.8564 11.15C28.1264 11.15 27.4664 10.985 26.8764 10.655C26.2864 10.315 25.8264 9.85 25.4964 9.26C25.1664 8.66 25.0014 7.99 25.0014 7.25C25.0014 6.51 25.1664 5.845 25.4964 5.255C25.8264 4.655 26.2814 4.19 26.8614 3.86C27.4514 3.52 28.1114 3.35 28.8414 3.35ZM28.8114 4.61C28.2214 4.61 27.7114 4.795 27.2814 5.165C26.8614 5.535 26.6014 6.01 26.5014 6.59H31.1064C31.0464 5.99 30.8014 5.51 30.3714 5.15C29.9514 4.79 29.4314 4.61 28.8114 4.61ZM40.5108 3.5C41.2308 3.5 41.8908 3.665 42.4908 3.995C43.0908 4.325 43.5608 4.78 43.9008 5.36C44.2508 5.93 44.4258 6.56 44.4258 7.25C44.4258 7.94 44.2508 8.575 43.9008 9.155C43.5608 9.725 43.0908 10.175 42.4908 10.505C41.8908 10.835 41.2308 11 40.5108 11H39.7008V13.55H38.2758V11H37.4958C36.7658 11 36.1008 10.835 35.5008 10.505C34.9008 10.175 34.4258 9.725 34.0758 9.155C33.7258 8.575 33.5508 7.94 33.5508 7.25C33.5508 6.56 33.7258 5.93 34.0758 5.36C34.4258 4.78 34.9008 4.325 35.5008 3.995C36.1008 3.665 36.7658 3.5 37.4958 3.5H38.2758V0.424999H39.7008V3.5H40.5108ZM38.2758 9.68V4.82H37.5408C37.0708 4.82 36.6408 4.93 36.2508 5.15C35.8708 5.36 35.5708 5.65 35.3508 6.02C35.1308 6.39 35.0208 6.8 35.0208 7.25C35.0208 7.7 35.1308 8.11 35.3508 8.48C35.5708 8.85 35.8708 9.145 36.2508 9.365C36.6408 9.575 37.0708 9.68 37.5408 9.68H38.2758ZM40.4658 9.68C40.9258 9.68 41.3458 9.575 41.7258 9.365C42.1058 9.145 42.4058 8.85 42.6258 8.48C42.8458 8.11 42.9558 7.7 42.9558 7.25C42.9558 6.8 42.8458 6.39 42.6258 6.02C42.4058 5.65 42.1058 5.36 41.7258 5.15C41.3458 4.93 40.9258 4.82 40.4658 4.82H39.7008V9.68H40.4658ZM49.3129 11.15C48.5729 11.15 47.8979 10.98 47.2879 10.64C46.6779 10.29 46.1979 9.82 45.8479 9.23C45.4979 8.63 45.3229 7.97 45.3229 7.25C45.3229 6.53 45.4979 5.875 45.8479 5.285C46.1979 4.685 46.6779 4.215 47.2879 3.875C47.8979 3.525 48.5729 3.35 49.3129 3.35C50.0429 3.35 50.7079 3.525 51.3079 3.875C51.9179 4.215 52.3979 4.685 52.7479 5.285C53.0979 5.875 53.2729 6.53 53.2729 7.25C53.2729 7.97 53.0979 8.63 52.7479 9.23C52.3979 9.82 51.9179 10.29 51.3079 10.64C50.7079 10.98 50.0429 11.15 49.3129 11.15ZM49.3129 9.83C49.7729 9.83 50.1929 9.72 50.5729 9.5C50.9529 9.27 51.2529 8.96 51.4729 8.57C51.6929 8.17 51.8029 7.73 51.8029 7.25C51.8029 6.77 51.6929 6.335 51.4729 5.945C51.2529 5.545 50.9529 5.235 50.5729 5.015C50.1929 4.785 49.7729 4.67 49.3129 4.67C48.8429 4.67 48.4129 4.785 48.0229 5.015C47.6429 5.235 47.3429 5.545 47.1229 5.945C46.9029 6.335 46.7929 6.77 46.7929 7.25C46.7929 7.73 46.9029 8.17 47.1229 8.57C47.3429 8.96 47.6429 9.27 48.0229 9.5C48.4129 9.72 48.8429 9.83 49.3129 9.83ZM61.517 3.5V11H60.092V7.925H56.192V11H54.767V3.5H56.192V6.575H60.092V3.5H61.517ZM65.1973 9.35V11H63.5473V9.35H65.1973ZM65.1973 3.5V5.15H63.5473V3.5H65.1973Z" fill="#FFD600"/>
</svg>
