<svg width="258" height="18" viewBox="0 0 258 18" fill="none" xmlns="http://www.w3.org/2000/svg">
<path d="M12.3 1.92H7.3V14H5.3V1.92H0.3V-9.53674e-07H12.3V1.92ZM15.9153 14.2C14.9286 14.2 14.0286 13.9733 13.2153 13.52C12.402 13.0533 11.762 12.4267 11.2953 11.64C10.8286 10.84 10.5953 9.96 10.5953 9C10.5953 8.04 10.8286 7.16667 11.2953 6.38C11.762 5.58 12.402 4.95333 13.2153 4.5C14.0286 4.03333 14.9286 3.8 15.9153 3.8C16.8886 3.8 17.7753 4.03333 18.5753 4.5C19.3886 4.95333 20.0286 5.58 20.4953 6.38C20.962 7.16667 21.1953 8.04 21.1953 9C21.1953 9.96 20.962 10.84 20.4953 11.64C20.0286 12.4267 19.3886 13.0533 18.5753 13.52C17.7753 13.9733 16.8886 14.2 15.9153 14.2ZM15.9153 12.44C16.5286 12.44 17.0886 12.2933 17.5953 12C18.102 11.6933 18.502 11.28 18.7953 10.76C19.0886 10.2267 19.2353 9.64 19.2353 9C19.2353 8.36 19.0886 7.78 18.7953 7.26C18.502 6.72667 18.102 6.31333 17.5953 6.02C17.0886 5.71333 16.5286 5.56 15.9153 5.56C15.2886 5.56 14.7153 5.71333 14.1953 6.02C13.6886 6.31333 13.2886 6.72667 12.9953 7.26C12.702 7.78 12.5553 8.36 12.5553 9C12.5553 9.64 12.702 10.2267 12.9953 10.76C13.2886 11.28 13.6886 11.6933 14.1953 12C14.7153 12.2933 15.2886 12.44 15.9153 12.44ZM31.7322 14H29.8322V5.8H26.3322C26.3189 7.74667 26.1655 9.32667 25.8722 10.54C25.5789 11.74 25.1255 12.6267 24.5122 13.2C23.9122 13.7733 23.1255 14.06 22.1522 14.06C21.9255 14.06 21.7389 14.04 21.5922 14V12.26C21.7789 12.2867 21.9189 12.3 22.0122 12.3C22.5989 12.3 23.0655 12.08 23.4122 11.64C23.7722 11.1867 24.0322 10.4733 24.1922 9.5C24.3522 8.51333 24.4322 7.20667 24.4322 5.58V4H31.7322V14ZM39.5658 7.96C40.6191 7.96 41.4391 8.24667 42.0258 8.82C42.6258 9.38 42.9258 10.1 42.9258 10.98C42.9258 11.86 42.6258 12.5867 42.0258 13.16C41.4391 13.72 40.6191 14 39.5658 14H34.6258V4H36.5258V7.96H39.5658ZM39.3058 12.34C39.8524 12.34 40.2658 12.2267 40.5458 12C40.8258 11.7733 40.9658 11.4333 40.9658 10.98C40.9658 10.5267 40.8258 10.1867 40.5458 9.96C40.2658 9.73333 39.8524 9.62 39.3058 9.62H36.5258V12.34H39.3058ZM53.9136 12.18V14H53.1136C52.4869 14 52.0069 13.8333 51.6736 13.5C51.3536 13.1533 51.1936 12.6467 51.1936 11.98V10.72C51.1936 10.0933 50.8869 9.78 50.2736 9.78H46.7336V14H44.8336V4H46.7336V8.14H50.0136C50.3736 8.14 50.6469 8.04667 50.8336 7.86C51.0336 7.67333 51.1336 7.39333 51.1336 7.02V5.92C51.1336 4.64 51.7336 4 52.9336 4H53.7936V5.82H53.4136C53.2669 5.82 53.1469 5.86667 53.0536 5.96C52.9736 6.04 52.9336 6.15333 52.9336 6.3V7.38C52.9336 8.11333 52.6669 8.63333 52.1336 8.94C52.7469 9.23333 53.0536 9.74 53.0536 10.46V11.7C53.0536 11.8467 53.0936 11.9667 53.1736 12.06C53.2669 12.14 53.3869 12.18 53.5336 12.18H53.9136ZM60.7505 14.2C59.7638 14.2 58.8638 13.9733 58.0505 13.52C57.2371 13.0533 56.5971 12.4267 56.1305 11.64C55.6638 10.84 55.4305 9.96 55.4305 9C55.4305 8.04 55.6638 7.16667 56.1305 6.38C56.5971 5.58 57.2371 4.95333 58.0505 4.5C58.8638 4.03333 59.7638 3.8 60.7505 3.8C61.7238 3.8 62.6105 4.03333 63.4105 4.5C64.2238 4.95333 64.8638 5.58 65.3305 6.38C65.7971 7.16667 66.0305 8.04 66.0305 9C66.0305 9.96 65.7971 10.84 65.3305 11.64C64.8638 12.4267 64.2238 13.0533 63.4105 13.52C62.6105 13.9733 61.7238 14.2 60.7505 14.2ZM60.7505 12.44C61.3638 12.44 61.9238 12.2933 62.4305 12C62.9371 11.6933 63.3371 11.28 63.6305 10.76C63.9238 10.2267 64.0705 9.64 64.0705 9C64.0705 8.36 63.9238 7.78 63.6305 7.26C63.3371 6.72667 62.9371 6.31333 62.4305 6.02C61.9238 5.71333 61.3638 5.56 60.7505 5.56C60.1238 5.56 59.5505 5.71333 59.0305 6.02C58.5238 6.31333 58.1238 6.72667 57.8305 7.26C57.5371 7.78 57.3905 8.36 57.3905 9C57.3905 9.64 57.5371 10.2267 57.8305 10.76C58.1238 11.28 58.5238 11.6933 59.0305 12C59.5505 12.2933 60.1238 12.44 60.7505 12.44ZM82.0681 14H80.1681V5.8H76.6681C76.6548 7.74667 76.5015 9.32667 76.2081 10.54C75.9148 11.74 75.4615 12.6267 74.8481 13.2C74.2481 13.7733 73.4615 14.06 72.4881 14.06C72.2615 14.06 72.0748 14.04 71.9281 14V12.26C72.1148 12.2867 72.2548 12.3 72.3481 12.3C72.9348 12.3 73.4015 12.08 73.7481 11.64C74.1081 11.1867 74.3681 10.4733 74.5281 9.5C74.6881 8.51333 74.7681 7.20667 74.7681 5.58V4H82.0681V14ZM94.6217 4L89.7617 15.12C89.5084 15.8 89.1551 16.3533 88.7017 16.78C88.2484 17.22 87.5817 17.44 86.7017 17.44C86.0751 17.44 85.5884 17.4267 85.2417 17.4V15.6C85.6151 15.6267 86.0617 15.64 86.5817 15.64C86.9551 15.64 87.2484 15.54 87.4617 15.34C87.6884 15.14 87.8751 14.8667 88.0217 14.52L88.3217 13.82L83.4617 4H85.6817L89.2617 11.68L92.6217 4H94.6217ZM103.985 4V14H102.085V10.12H98.8852C97.8585 10.12 97.0518 9.82 96.4652 9.22C95.8785 8.62 95.5852 7.85333 95.5852 6.92V4H97.4852V6.86C97.4852 7.38 97.6185 7.76667 97.8852 8.02C98.1652 8.27333 98.5985 8.4 99.1852 8.4H102.085V4H103.985ZM120.781 4V14H106.881V4H108.781V12.2H112.881V4H114.781V12.2H118.881V4H120.781ZM132.691 4V14H130.791V7.84L125.591 12.24V14H123.691V4H125.591V10.04L130.791 5.64V4H132.691ZM139.818 3.8C140.844 3.8 141.738 4.02 142.498 4.46C143.271 4.9 143.864 5.52667 144.278 6.34C144.691 7.14 144.898 8.08 144.898 9.16C144.898 9.44 144.891 9.64667 144.878 9.78H136.678C136.811 10.5533 137.171 11.1933 137.758 11.7C138.358 12.1933 139.051 12.44 139.838 12.44C141.131 12.44 142.051 11.9667 142.598 11.02H144.558C144.238 11.9533 143.644 12.72 142.778 13.32C141.911 13.9067 140.931 14.2 139.838 14.2C138.864 14.2 137.984 13.98 137.198 13.54C136.411 13.0867 135.798 12.4667 135.358 11.68C134.918 10.88 134.698 9.98667 134.698 9C134.698 8.01333 134.918 7.12667 135.358 6.34C135.798 5.54 136.404 4.92 137.178 4.48C137.964 4.02667 138.844 3.8 139.818 3.8ZM139.778 5.48C138.991 5.48 138.311 5.72667 137.738 6.22C137.178 6.71333 136.831 7.34667 136.698 8.12H142.838C142.758 7.32 142.431 6.68 141.858 6.2C141.298 5.72 140.604 5.48 139.778 5.48ZM164.605 14H162.705V6.7L159.345 14H157.465L154.105 6.76V14H152.205V4H154.805L158.445 12.02L162.045 4H164.605V14ZM176.51 12.2V14H175.55C175.057 14 174.67 13.88 174.39 13.64C174.11 13.3867 173.943 13.0267 173.89 12.56C173.463 13.0533 172.91 13.4533 172.23 13.76C171.563 14.0533 170.857 14.2 170.11 14.2C169.03 14.2 168.19 13.9333 167.59 13.4C167.003 12.8667 166.71 12.1533 166.71 11.26C166.71 10.4467 167.03 9.75333 167.67 9.18C168.31 8.59333 169.21 8.24 170.37 8.12L171.49 8C172.117 7.93333 172.583 7.85333 172.89 7.76C173.197 7.65333 173.39 7.54 173.47 7.42C173.563 7.3 173.61 7.14 173.61 6.94C173.61 6.48667 173.39 6.13333 172.95 5.88C172.523 5.61333 171.93 5.48 171.17 5.48C170.677 5.48 170.203 5.61333 169.75 5.88C169.297 6.13333 168.983 6.5 168.81 6.98H166.79C166.977 6.04667 167.483 5.28667 168.31 4.7C169.137 4.1 170.123 3.8 171.27 3.8C172.537 3.8 173.577 4.14667 174.39 4.84C175.203 5.53333 175.61 6.52667 175.61 7.82V11.66C175.61 11.8333 175.657 11.9667 175.75 12.06C175.843 12.1533 175.97 12.2 176.13 12.2H176.51ZM170.31 12.56C170.937 12.56 171.523 12.4333 172.07 12.18C172.617 11.9133 173.05 11.5667 173.37 11.14C173.703 10.7 173.87 10.2333 173.87 9.74V8.84C173.417 9.18667 172.697 9.41333 171.71 9.52L170.59 9.64C169.843 9.72 169.323 9.9 169.03 10.18C168.737 10.46 168.59 10.8133 168.59 11.24C168.59 11.64 168.737 11.96 169.03 12.2C169.337 12.44 169.763 12.56 170.31 12.56ZM186.099 5.8H182.599V14H180.699V5.8H177.199V4H186.099V5.8ZM191.521 3.8C192.547 3.8 193.441 4.02 194.201 4.46C194.974 4.9 195.567 5.52667 195.981 6.34C196.394 7.14 196.601 8.08 196.601 9.16C196.601 9.44 196.594 9.64667 196.581 9.78H188.381C188.514 10.5533 188.874 11.1933 189.461 11.7C190.061 12.1933 190.754 12.44 191.541 12.44C192.834 12.44 193.754 11.9667 194.301 11.02H196.261C195.941 11.9533 195.347 12.72 194.481 13.32C193.614 13.9067 192.634 14.2 191.541 14.2C190.567 14.2 189.687 13.98 188.901 13.54C188.114 13.0867 187.501 12.4667 187.061 11.68C186.621 10.88 186.401 9.98667 186.401 9C186.401 8.01333 186.621 7.12667 187.061 6.34C187.501 5.54 188.107 4.92 188.881 4.48C189.667 4.02667 190.547 3.8 191.521 3.8ZM191.481 5.48C190.694 5.48 190.014 5.72667 189.441 6.22C188.881 6.71333 188.534 7.34667 188.401 8.12H194.541C194.461 7.32 194.134 6.68 193.561 6.2C193.001 5.72 192.307 5.48 191.481 5.48ZM203.882 3.8C204.762 3.8 205.562 4.02667 206.282 4.48C207.002 4.92 207.569 5.53333 207.982 6.32C208.396 7.10667 208.602 8 208.602 9C208.602 10 208.396 10.8933 207.982 11.68C207.569 12.4667 207.002 13.0867 206.282 13.54C205.562 13.98 204.762 14.2 203.882 14.2C203.216 14.2 202.589 14.0533 202.002 13.76C201.416 13.4533 200.916 13.0333 200.502 12.5V17.4H198.602V4H200.402V5.62C200.829 5.04667 201.342 4.6 201.942 4.28C202.542 3.96 203.189 3.8 203.882 3.8ZM203.562 12.44C204.149 12.44 204.676 12.2933 205.142 12C205.609 11.7067 205.976 11.3 206.242 10.78C206.509 10.2467 206.642 9.65333 206.642 9C206.642 8.34667 206.509 7.76 206.242 7.24C205.976 6.70667 205.609 6.29333 205.142 6C204.676 5.70667 204.149 5.56 203.562 5.56C202.976 5.56 202.442 5.70667 201.962 6C201.482 6.29333 201.109 6.70667 200.842 7.24C200.576 7.76 200.442 8.34667 200.442 9C200.442 9.65333 200.576 10.2467 200.842 10.78C201.109 11.3 201.482 11.7067 201.962 12C202.442 12.2933 202.976 12.44 203.562 12.44ZM219.607 4V14H217.707V7.84L212.507 12.24V14H210.607V4H212.507V10.04L217.707 5.64V4H219.607ZM231.514 12.2V14H230.554C230.061 14 229.674 13.88 229.394 13.64C229.114 13.3867 228.947 13.0267 228.894 12.56C228.467 13.0533 227.914 13.4533 227.234 13.76C226.567 14.0533 225.861 14.2 225.114 14.2C224.034 14.2 223.194 13.9333 222.594 13.4C222.007 12.8667 221.714 12.1533 221.714 11.26C221.714 10.4467 222.034 9.75333 222.674 9.18C223.314 8.59333 224.214 8.24 225.374 8.12L226.494 8C227.121 7.93333 227.587 7.85333 227.894 7.76C228.201 7.65333 228.394 7.54 228.474 7.42C228.567 7.3 228.614 7.14 228.614 6.94C228.614 6.48667 228.394 6.13333 227.954 5.88C227.527 5.61333 226.934 5.48 226.174 5.48C225.681 5.48 225.207 5.61333 224.754 5.88C224.301 6.13333 223.987 6.5 223.814 6.98H221.794C221.981 6.04667 222.487 5.28667 223.314 4.7C224.141 4.1 225.127 3.8 226.274 3.8C227.541 3.8 228.581 4.14667 229.394 4.84C230.207 5.53333 230.614 6.52667 230.614 7.82V11.66C230.614 11.8333 230.661 11.9667 230.754 12.06C230.847 12.1533 230.974 12.2 231.134 12.2H231.514ZM225.314 12.56C225.941 12.56 226.527 12.4333 227.074 12.18C227.621 11.9133 228.054 11.5667 228.374 11.14C228.707 10.7 228.874 10.2333 228.874 9.74V8.84C228.421 9.18667 227.701 9.41333 226.714 9.52L225.594 9.64C224.847 9.72 224.327 9.9 224.034 10.18C223.741 10.46 223.594 10.8133 223.594 11.24C223.594 11.64 223.741 11.96 224.034 12.2C224.341 12.44 224.767 12.56 225.314 12.56ZM242.243 14H240.343V5.8H236.843C236.83 7.74667 236.676 9.32667 236.383 10.54C236.09 11.74 235.636 12.6267 235.023 13.2C234.423 13.7733 233.636 14.06 232.663 14.06C232.436 14.06 232.25 14.04 232.103 14V12.26C232.29 12.2867 232.43 12.3 232.523 12.3C233.11 12.3 233.576 12.08 233.923 11.64C234.283 11.1867 234.543 10.4733 234.703 9.5C234.863 8.51333 234.943 7.20667 234.943 5.58V4H242.243V14ZM250.077 7.96C251.13 7.96 251.95 8.24667 252.537 8.82C253.137 9.38 253.437 10.1 253.437 10.98C253.437 11.86 253.137 12.5867 252.537 13.16C251.95 13.72 251.13 14 250.077 14H245.137V4H247.037V7.96H250.077ZM249.817 12.34C250.363 12.34 250.777 12.2267 251.057 12C251.337 11.7733 251.477 11.4333 251.477 10.98C251.477 10.5267 251.337 10.1867 251.057 9.96C250.777 9.73333 250.363 9.62 249.817 9.62H247.037V12.34H249.817ZM257.137 4V14H255.237V4H257.137Z" fill="white"/>
</svg>
