<svg width="390" height="29" viewBox="0 0 390 29" fill="none" xmlns="http://www.w3.org/2000/svg">
<path d="M21.4786 0.599998L12.5186 19.32C11.8786 20.6 11.1106 21.5493 10.2146 22.168C9.33996 22.7867 8.2093 23.096 6.82263 23.096L4.32663 23.032L2.79063 23V19.928H6.59863C7.4093 19.928 7.99596 19.8107 8.35863 19.576C8.74263 19.3413 9.1373 18.8293 9.54263 18.04L0.230629 0.599998H3.91063L11.3666 14.616L17.8946 0.599998H21.4786ZM43.4264 14.84C45.005 15.6293 45.7944 16.8453 45.7944 18.488C45.7944 19.8107 45.3144 20.8987 44.3544 21.752C43.3944 22.584 42.0717 23 40.3864 23H32.3544V7H40.3864C41.9864 7 43.245 7.416 44.1624 8.248C45.101 9.05867 45.5704 10.0933 45.5704 11.352C45.5704 12.0987 45.389 12.7813 45.0264 13.4C44.685 13.9973 44.1517 14.4773 43.4264 14.84ZM40.0344 13.656C40.8237 13.656 41.421 13.4747 41.8264 13.112C42.2317 12.7493 42.4344 12.216 42.4344 11.512C42.4344 10.2107 41.6344 9.56 40.0344 9.56H35.3304V13.656H40.0344ZM40.0664 20.44C40.9197 20.44 41.5597 20.2587 41.9864 19.896C42.4344 19.512 42.6584 18.968 42.6584 18.264C42.6584 17.6027 42.4344 17.1013 41.9864 16.76C41.5597 16.3973 40.9197 16.216 40.0664 16.216H35.3304V20.44H40.0664ZM63.2431 20.12V23H61.7071C60.9178 23 60.2991 22.808 59.8511 22.424C59.4031 22.0187 59.1365 21.4427 59.0511 20.696C58.3685 21.4853 57.4831 22.1253 56.3951 22.616C55.3285 23.0853 54.1978 23.32 53.0031 23.32C51.2751 23.32 49.9311 22.8933 48.9711 22.04C48.0325 21.1867 47.5631 20.0453 47.5631 18.616C47.5631 17.3147 48.0751 16.2053 49.0991 15.288C50.1231 14.3493 51.5631 13.784 53.4191 13.592L55.2111 13.4C56.2138 13.2933 56.9605 13.1653 57.4511 13.016C57.9418 12.8453 58.2511 12.664 58.3791 12.472C58.5285 12.28 58.6031 12.024 58.6031 11.704C58.6031 10.9787 58.2511 10.4133 57.5471 10.008C56.8645 9.58133 55.9151 9.368 54.6991 9.368C53.9098 9.368 53.1525 9.58133 52.4271 10.008C51.7018 10.4133 51.2005 11 50.9231 11.768H47.6911C47.9898 10.2747 48.8005 9.05867 50.1231 8.12C51.4458 7.16 53.0245 6.68 54.8591 6.68C56.8858 6.68 58.5498 7.23467 59.8511 8.344C61.1525 9.45333 61.8031 11.0427 61.8031 13.112V19.256C61.8031 19.5333 61.8778 19.7467 62.0271 19.896C62.1765 20.0453 62.3791 20.12 62.6351 20.12H63.2431ZM53.3231 20.696C54.3258 20.696 55.2645 20.4933 56.1391 20.088C57.0138 19.6613 57.7071 19.1067 58.2191 18.424C58.7525 17.72 59.0191 16.9733 59.0191 16.184V14.744C58.2938 15.2987 57.1418 15.6613 55.5631 15.832L53.7711 16.024C52.5765 16.152 51.7445 16.44 51.2751 16.888C50.8058 17.336 50.5711 17.9013 50.5711 18.584C50.5711 19.224 50.8058 19.736 51.2751 20.12C51.7658 20.504 52.4485 20.696 53.3231 20.696ZM64.9856 15C64.9856 13.464 65.359 12.0667 66.1056 10.808C66.8523 9.528 67.8763 8.52533 69.1776 7.8C70.479 7.05333 71.919 6.68 73.4976 6.68C75.2683 6.68 76.8576 7.20267 78.2656 8.248C79.695 9.272 80.6336 10.616 81.0816 12.28H77.7536C77.391 11.4267 76.8043 10.7547 75.9936 10.264C75.2043 9.752 74.319 9.496 73.3376 9.496C72.335 9.496 71.439 9.74133 70.6496 10.232C69.8603 10.7013 69.2416 11.3627 68.7936 12.216C68.3456 13.048 68.1216 13.976 68.1216 15C68.1216 16.024 68.3456 16.9627 68.7936 17.816C69.2416 18.648 69.8603 19.3093 70.6496 19.8C71.439 20.2693 72.335 20.504 73.3376 20.504C74.319 20.504 75.2043 20.2587 75.9936 19.768C76.8043 19.256 77.391 18.5733 77.7536 17.72H81.0816C80.6336 19.384 79.695 20.7387 78.2656 21.784C76.8576 22.808 75.2683 23.32 73.4976 23.32C71.919 23.32 70.479 22.9573 69.1776 22.232C67.8763 21.4853 66.8523 20.4827 66.1056 19.224C65.359 17.944 64.9856 16.536 64.9856 15ZM99.2176 6.68C100.86 6.68 102.29 7.032 103.506 7.736C104.743 8.44 105.692 9.44267 106.354 10.744C107.015 12.024 107.346 13.528 107.346 15.256C107.346 15.704 107.335 16.0347 107.314 16.248H94.1936C94.407 17.4853 94.983 18.5093 95.9216 19.32C96.8816 20.1093 97.991 20.504 99.2496 20.504C101.319 20.504 102.791 19.7467 103.666 18.232H106.802C106.29 19.7253 105.34 20.952 103.954 21.912C102.567 22.8507 100.999 23.32 99.2496 23.32C97.6923 23.32 96.2843 22.968 95.0256 22.264C93.767 21.5387 92.7856 20.5467 92.0816 19.288C91.3776 18.008 91.0256 16.5787 91.0256 15C91.0256 13.4213 91.3776 12.0027 92.0816 10.744C92.7856 9.464 93.7563 8.472 94.9936 7.768C96.2523 7.04267 97.6603 6.68 99.2176 6.68ZM99.1536 9.368C97.895 9.368 96.807 9.76267 95.8896 10.552C94.9936 11.3413 94.439 12.3547 94.2256 13.592H104.05C103.922 12.312 103.399 11.288 102.482 10.52C101.586 9.752 100.476 9.368 99.1536 9.368ZM109.264 15C109.264 13.464 109.638 12.0667 110.384 10.808C111.131 9.528 112.155 8.52533 113.456 7.8C114.758 7.05333 116.198 6.68 117.776 6.68C119.547 6.68 121.136 7.20267 122.544 8.248C123.974 9.272 124.912 10.616 125.36 12.28H122.032C121.67 11.4267 121.083 10.7547 120.272 10.264C119.483 9.752 118.598 9.496 117.616 9.496C116.614 9.496 115.718 9.74133 114.928 10.232C114.139 10.7013 113.52 11.3627 113.072 12.216C112.624 13.048 112.4 13.976 112.4 15C112.4 16.024 112.624 16.9627 113.072 17.816C113.52 18.648 114.139 19.3093 114.928 19.8C115.718 20.2693 116.614 20.504 117.616 20.504C118.598 20.504 119.483 20.2587 120.272 19.768C121.083 19.256 121.67 18.5733 122.032 17.72H125.36C124.912 19.384 123.974 20.7387 122.544 21.784C121.136 22.808 119.547 23.32 117.776 23.32C116.198 23.32 114.758 22.9573 113.456 22.232C112.155 21.4853 111.131 20.4827 110.384 19.224C109.638 17.944 109.264 16.536 109.264 15ZM139.791 9.88H134.191V23H131.151V9.88H125.551V7H139.791V9.88ZM150.242 13.336C151.927 13.336 153.239 13.7947 154.178 14.712C155.138 15.608 155.618 16.76 155.618 18.168C155.618 19.576 155.138 20.7387 154.178 21.656C153.239 22.552 151.927 23 150.242 23H142.338V7H145.378V13.336H150.242ZM149.826 20.344C150.701 20.344 151.362 20.1627 151.81 19.8C152.258 19.4373 152.482 18.8933 152.482 18.168C152.482 17.4427 152.258 16.8987 151.81 16.536C151.362 16.1733 150.701 15.992 149.826 15.992H145.378V20.344H149.826ZM245.702 7V23H242.662V13.144L234.342 20.184V23H231.302V7H234.342V16.664L242.662 9.624V7H245.702ZM264.337 23H261.297V9.88H255.697C255.676 12.9947 255.43 15.5227 254.961 17.464C254.492 19.384 253.766 20.8027 252.785 21.72C251.825 22.6373 250.566 23.096 249.009 23.096C248.646 23.096 248.348 23.064 248.113 23V20.216C248.412 20.2587 248.636 20.28 248.785 20.28C249.724 20.28 250.47 19.928 251.025 19.224C251.601 18.4987 252.017 17.3573 252.273 15.8C252.529 14.2213 252.657 12.1307 252.657 9.528V7H264.337V23ZM283.367 7V23H280.327V13.144L272.007 20.184V23H268.967V7H272.007V16.664L280.327 9.624V7H283.367Z" fill="white"/>
<path d="M174.775 7.48C176.226 7.48 177.559 7.832 178.775 8.536C179.991 9.21867 180.941 10.1573 181.623 11.352C182.327 12.5467 182.679 13.8693 182.679 15.32C182.679 16.792 182.317 18.1467 181.591 19.384C180.887 20.6 179.906 21.56 178.647 22.264C177.41 22.968 176.045 23.32 174.551 23.32C173.037 23.32 171.65 22.968 170.391 22.264C169.154 21.5387 168.173 20.536 167.447 19.256C166.722 17.976 166.359 16.5253 166.359 14.904V8.76C166.359 6.75467 166.861 5.25067 167.863 4.248C168.887 3.224 170.327 2.59467 172.183 2.36L177.911 1.624C178.445 1.56 178.711 1.29333 178.711 0.823999V0.439999H181.783V1.208C181.783 2.08267 181.506 2.78667 180.951 3.32C180.418 3.832 179.789 4.13067 179.063 4.216L172.471 5.08C171.277 5.22933 170.391 5.56 169.815 6.072C169.261 6.56267 168.983 7.34133 168.983 8.408V10.648C169.645 9.64533 170.477 8.86667 171.479 8.312C172.503 7.75733 173.602 7.48 174.775 7.48ZM174.455 20.504C175.394 20.504 176.247 20.28 177.015 19.832C177.805 19.3627 178.423 18.7333 178.871 17.944C179.319 17.1547 179.543 16.28 179.543 15.32C179.543 14.36 179.319 13.4853 178.871 12.696C178.423 11.9067 177.805 11.288 177.015 10.84C176.247 10.3707 175.394 10.136 174.455 10.136C173.495 10.136 172.621 10.3707 171.831 10.84C171.042 11.288 170.423 11.9067 169.975 12.696C169.527 13.4853 169.303 14.36 169.303 15.32C169.303 16.28 169.527 17.1547 169.975 17.944C170.423 18.7333 171.042 19.3627 171.831 19.832C172.621 20.28 173.495 20.504 174.455 20.504ZM200.423 20.12V23H198.887C198.098 23 197.479 22.808 197.031 22.424C196.583 22.0187 196.316 21.4427 196.231 20.696C195.548 21.4853 194.663 22.1253 193.575 22.616C192.508 23.0853 191.378 23.32 190.183 23.32C188.455 23.32 187.111 22.8933 186.151 22.04C185.212 21.1867 184.743 20.0453 184.743 18.616C184.743 17.3147 185.255 16.2053 186.279 15.288C187.303 14.3493 188.743 13.784 190.599 13.592L192.391 13.4C193.394 13.2933 194.14 13.1653 194.631 13.016C195.122 12.8453 195.431 12.664 195.559 12.472C195.708 12.28 195.783 12.024 195.783 11.704C195.783 10.9787 195.431 10.4133 194.727 10.008C194.044 9.58133 193.095 9.368 191.879 9.368C191.09 9.368 190.332 9.58133 189.607 10.008C188.882 10.4133 188.38 11 188.103 11.768H184.871C185.17 10.2747 185.98 9.05867 187.303 8.12C188.626 7.16 190.204 6.68 192.039 6.68C194.066 6.68 195.73 7.23467 197.031 8.344C198.332 9.45333 198.983 11.0427 198.983 13.112V19.256C198.983 19.5333 199.058 19.7467 199.207 19.896C199.356 20.0453 199.559 20.12 199.815 20.12H200.423ZM190.503 20.696C191.506 20.696 192.444 20.4933 193.319 20.088C194.194 19.6613 194.887 19.1067 195.399 18.424C195.932 17.72 196.199 16.9733 196.199 16.184V14.744C195.474 15.2987 194.322 15.6613 192.743 15.832L190.951 16.024C189.756 16.152 188.924 16.44 188.455 16.888C187.986 17.336 187.751 17.9013 187.751 18.584C187.751 19.224 187.986 19.736 188.455 20.12C188.946 20.504 189.628 20.696 190.503 20.696ZM212.054 6.68C213.462 6.68 214.742 7.04267 215.894 7.768C217.046 8.472 217.952 9.45333 218.614 10.712C219.275 11.9707 219.606 13.4 219.606 15C219.606 16.6 219.275 18.0293 218.614 19.288C217.952 20.5467 217.046 21.5387 215.894 22.264C214.742 22.968 213.462 23.32 212.054 23.32C210.987 23.32 209.984 23.0853 209.046 22.616C208.107 22.1253 207.307 21.4533 206.646 20.6V28.44H203.606V7H206.486V9.592C207.168 8.67467 207.99 7.96 208.95 7.448C209.91 6.936 210.944 6.68 212.054 6.68ZM211.542 20.504C212.48 20.504 213.323 20.2693 214.07 19.8C214.816 19.3307 215.403 18.68 215.83 17.848C216.256 16.9947 216.47 16.0453 216.47 15C216.47 13.9547 216.256 13.016 215.83 12.184C215.403 11.3307 214.816 10.6693 214.07 10.2C213.323 9.73067 212.48 9.496 211.542 9.496C210.603 9.496 209.75 9.73067 208.982 10.2C208.214 10.6693 207.616 11.3307 207.19 12.184C206.763 13.016 206.55 13.9547 206.55 15C206.55 16.0453 206.763 16.9947 207.19 17.848C207.616 18.68 208.214 19.3307 208.982 19.8C209.75 20.2693 210.603 20.504 211.542 20.504ZM311.035 20.088V23H309.755C308.752 23 307.984 22.7333 307.451 22.2C306.939 21.6453 306.683 20.8347 306.683 19.768V17.752C306.683 16.7493 306.192 16.248 305.211 16.248H299.547V23H296.507V7H299.547V13.624H304.795C305.371 13.624 305.808 13.4747 306.107 13.176C306.427 12.8773 306.587 12.4293 306.587 11.832V10.072C306.587 8.024 307.547 7 309.467 7H310.843V9.912H310.235C310 9.912 309.808 9.98667 309.659 10.136C309.531 10.264 309.467 10.4453 309.467 10.68V12.408C309.467 13.5813 309.04 14.4133 308.187 14.904C309.168 15.3733 309.659 16.184 309.659 17.336V19.32C309.659 19.5547 309.723 19.7467 309.851 19.896C310 20.024 310.192 20.088 310.427 20.088H311.035ZM329.302 20.12V23H327.766C326.977 23 326.358 22.808 325.91 22.424C325.462 22.0187 325.195 21.4427 325.11 20.696C324.427 21.4853 323.542 22.1253 322.454 22.616C321.387 23.0853 320.257 23.32 319.062 23.32C317.334 23.32 315.99 22.8933 315.03 22.04C314.091 21.1867 313.622 20.0453 313.622 18.616C313.622 17.3147 314.134 16.2053 315.158 15.288C316.182 14.3493 317.622 13.784 319.478 13.592L321.27 13.4C322.273 13.2933 323.019 13.1653 323.51 13.016C324.001 12.8453 324.31 12.664 324.438 12.472C324.587 12.28 324.662 12.024 324.662 11.704C324.662 10.9787 324.31 10.4133 323.606 10.008C322.923 9.58133 321.974 9.368 320.758 9.368C319.969 9.368 319.211 9.58133 318.486 10.008C317.761 10.4133 317.259 11 316.982 11.768H313.75C314.049 10.2747 314.859 9.05867 316.182 8.12C317.505 7.16 319.083 6.68 320.918 6.68C322.945 6.68 324.609 7.23467 325.91 8.344C327.211 9.45333 327.862 11.0427 327.862 13.112V19.256C327.862 19.5333 327.937 19.7467 328.086 19.896C328.235 20.0453 328.438 20.12 328.694 20.12H329.302ZM319.382 20.696C320.385 20.696 321.323 20.4933 322.198 20.088C323.073 19.6613 323.766 19.1067 324.278 18.424C324.811 17.72 325.078 16.9733 325.078 16.184V14.744C324.353 15.2987 323.201 15.6613 321.622 15.832L319.83 16.024C318.635 16.152 317.803 16.44 317.334 16.888C316.865 17.336 316.63 17.9013 316.63 18.584C316.63 19.224 316.865 19.736 317.334 20.12C317.825 20.504 318.507 20.696 319.382 20.696ZM345.892 7C347.428 7 348.836 7.352 350.116 8.056C351.396 8.76 352.399 9.73067 353.124 10.968C353.871 12.184 354.244 13.528 354.244 15C354.244 16.472 353.871 17.8267 353.124 19.064C352.399 20.28 351.396 21.24 350.116 21.944C348.836 22.648 347.428 23 345.892 23H344.164V28.44H341.124V23H339.46C337.903 23 336.484 22.648 335.204 21.944C333.924 21.24 332.911 20.28 332.164 19.064C331.418 17.8267 331.044 16.472 331.044 15C331.044 13.528 331.418 12.184 332.164 10.968C332.911 9.73067 333.924 8.76 335.204 8.056C336.484 7.352 337.903 7 339.46 7H341.124V0.439999H344.164V7H345.892ZM341.124 20.184V9.816H339.556C338.554 9.816 337.636 10.0507 336.804 10.52C335.994 10.968 335.354 11.5867 334.884 12.376C334.415 13.1653 334.18 14.04 334.18 15C334.18 15.96 334.415 16.8347 334.884 17.624C335.354 18.4133 335.994 19.0427 336.804 19.512C337.636 19.96 338.554 20.184 339.556 20.184H341.124ZM345.796 20.184C346.778 20.184 347.674 19.96 348.484 19.512C349.295 19.0427 349.935 18.4133 350.404 17.624C350.874 16.8347 351.108 15.96 351.108 15C351.108 14.04 350.874 13.1653 350.404 12.376C349.935 11.5867 349.295 10.968 348.484 10.52C347.674 10.0507 346.778 9.816 345.796 9.816H344.164V20.184H345.796ZM364.35 6.68C365.993 6.68 367.422 7.032 368.638 7.736C369.875 8.44 370.825 9.44267 371.486 10.744C372.147 12.024 372.478 13.528 372.478 15.256C372.478 15.704 372.467 16.0347 372.446 16.248H359.326C359.539 17.4853 360.115 18.5093 361.054 19.32C362.014 20.1093 363.123 20.504 364.382 20.504C366.451 20.504 367.923 19.7467 368.798 18.232H371.934C371.422 19.7253 370.473 20.952 369.086 21.912C367.699 22.8507 366.131 23.32 364.382 23.32C362.825 23.32 361.417 22.968 360.158 22.264C358.899 21.5387 357.918 20.5467 357.214 19.288C356.51 18.008 356.158 16.5787 356.158 15C356.158 13.4213 356.51 12.0027 357.214 10.744C357.918 9.464 358.889 8.472 360.126 7.768C361.385 7.04267 362.793 6.68 364.35 6.68ZM364.286 9.368C363.027 9.368 361.939 9.76267 361.022 10.552C360.126 11.3413 359.571 12.3547 359.358 13.592H369.182C369.054 12.312 368.531 11.288 367.614 10.52C366.718 9.752 365.609 9.368 364.286 9.368ZM379.073 15.64C379.073 14.6587 379.265 13.8373 379.649 13.176C380.054 12.5147 380.534 11.992 381.089 11.608C381.643 11.224 382.379 10.7867 383.297 10.296C384.406 9.74133 385.238 9.21867 385.793 8.728C386.347 8.216 386.625 7.52267 386.625 6.648C386.625 5.47467 386.134 4.632 385.153 4.12C384.171 3.608 383.03 3.352 381.729 3.352C380.491 3.352 379.403 3.62933 378.465 4.184C377.547 4.71733 376.961 5.54933 376.705 6.68H373.441C373.633 5.31467 374.134 4.152 374.945 3.192C375.777 2.232 376.801 1.50667 378.017 1.016C379.233 0.525332 380.523 0.279999 381.889 0.279999C383.211 0.279999 384.47 0.503999 385.665 0.952C386.881 1.4 387.873 2.09333 388.641 3.032C389.43 3.94933 389.825 5.08 389.825 6.424C389.825 7.512 389.611 8.42933 389.185 9.176C388.758 9.90133 388.246 10.4773 387.649 10.904C387.051 11.3307 386.273 11.7893 385.313 12.28C384.566 12.664 383.99 12.984 383.585 13.24C383.201 13.496 382.87 13.816 382.593 14.2C382.337 14.584 382.209 15.032 382.209 15.544V16.28H379.073V15.64ZM382.465 19.48V23H378.945V19.48H382.465Z" fill="#FFD600"/>
</svg>
