<svg width="274" height="24" viewBox="0 0 274 24" fill="none" xmlns="http://www.w3.org/2000/svg">
<path d="M21.908 0.599998L12.948 19.32C12.308 20.6 11.54 21.5493 10.644 22.168C9.76933 22.7867 8.63866 23.096 7.252 23.096L4.756 23.032L3.22 23V19.928H7.028C7.83866 19.928 8.42533 19.8107 8.788 19.576C9.172 19.3413 9.56666 18.8293 9.972 18.04L0.659996 0.599998H4.34L11.796 14.616L18.324 0.599998H21.908ZM43.8558 14.84C45.4344 15.6293 46.2238 16.8453 46.2238 18.488C46.2238 19.8107 45.7438 20.8987 44.7838 21.752C43.8238 22.584 42.5011 23 40.8158 23H32.7838V7H40.8158C42.4158 7 43.6744 7.416 44.5918 8.248C45.5304 9.05867 45.9998 10.0933 45.9998 11.352C45.9998 12.0987 45.8184 12.7813 45.4558 13.4C45.1144 13.9973 44.5811 14.4773 43.8558 14.84ZM40.4638 13.656C41.2531 13.656 41.8504 13.4747 42.2558 13.112C42.6611 12.7493 42.8638 12.216 42.8638 11.512C42.8638 10.2107 42.0638 9.56 40.4638 9.56H35.7598V13.656H40.4638ZM40.4958 20.44C41.3491 20.44 41.9891 20.2587 42.4158 19.896C42.8638 19.512 43.0878 18.968 43.0878 18.264C43.0878 17.6027 42.8638 17.1013 42.4158 16.76C41.9891 16.3973 41.3491 16.216 40.4958 16.216H35.7598V20.44H40.4958ZM63.6725 20.12V23H62.1365C61.3472 23 60.7285 22.808 60.2805 22.424C59.8325 22.0187 59.5658 21.4427 59.4805 20.696C58.7978 21.4853 57.9125 22.1253 56.8245 22.616C55.7578 23.0853 54.6272 23.32 53.4325 23.32C51.7045 23.32 50.3605 22.8933 49.4005 22.04C48.4618 21.1867 47.9925 20.0453 47.9925 18.616C47.9925 17.3147 48.5045 16.2053 49.5285 15.288C50.5525 14.3493 51.9925 13.784 53.8485 13.592L55.6405 13.4C56.6432 13.2933 57.3898 13.1653 57.8805 13.016C58.3712 12.8453 58.6805 12.664 58.8085 12.472C58.9578 12.28 59.0325 12.024 59.0325 11.704C59.0325 10.9787 58.6805 10.4133 57.9765 10.008C57.2938 9.58133 56.3445 9.368 55.1285 9.368C54.3392 9.368 53.5818 9.58133 52.8565 10.008C52.1312 10.4133 51.6298 11 51.3525 11.768H48.1205C48.4192 10.2747 49.2298 9.05867 50.5525 8.12C51.8752 7.16 53.4538 6.68 55.2885 6.68C57.3152 6.68 58.9792 7.23467 60.2805 8.344C61.5818 9.45333 62.2325 11.0427 62.2325 13.112V19.256C62.2325 19.5333 62.3072 19.7467 62.4565 19.896C62.6058 20.0453 62.8085 20.12 63.0645 20.12H63.6725ZM53.7525 20.696C54.7552 20.696 55.6938 20.4933 56.5685 20.088C57.4432 19.6613 58.1365 19.1067 58.6485 18.424C59.1818 17.72 59.4485 16.9733 59.4485 16.184V14.744C58.7232 15.2987 57.5712 15.6613 55.9925 15.832L54.2005 16.024C53.0058 16.152 52.1738 16.44 51.7045 16.888C51.2352 17.336 51.0005 17.9013 51.0005 18.584C51.0005 19.224 51.2352 19.736 51.7045 20.12C52.1952 20.504 52.8778 20.696 53.7525 20.696ZM65.415 15C65.415 13.464 65.7883 12.0667 66.535 10.808C67.2816 9.528 68.3056 8.52533 69.607 7.8C70.9083 7.05333 72.3483 6.68 73.927 6.68C75.6976 6.68 77.287 7.20267 78.695 8.248C80.1243 9.272 81.063 10.616 81.511 12.28H78.183C77.8203 11.4267 77.2337 10.7547 76.423 10.264C75.6336 9.752 74.7483 9.496 73.767 9.496C72.7643 9.496 71.8683 9.74133 71.079 10.232C70.2896 10.7013 69.671 11.3627 69.223 12.216C68.775 13.048 68.551 13.976 68.551 15C68.551 16.024 68.775 16.9627 69.223 17.816C69.671 18.648 70.2896 19.3093 71.079 19.8C71.8683 20.2693 72.7643 20.504 73.767 20.504C74.7483 20.504 75.6336 20.2587 76.423 19.768C77.2337 19.256 77.8203 18.5733 78.183 17.72H81.511C81.063 19.384 80.1243 20.7387 78.695 21.784C77.287 22.808 75.6976 23.32 73.927 23.32C72.3483 23.32 70.9083 22.9573 69.607 22.232C68.3056 21.4853 67.2816 20.4827 66.535 19.224C65.7883 17.944 65.415 16.536 65.415 15ZM99.647 6.68C101.29 6.68 102.719 7.032 103.935 7.736C105.172 8.44 106.122 9.44267 106.783 10.744C107.444 12.024 107.775 13.528 107.775 15.256C107.775 15.704 107.764 16.0347 107.743 16.248H94.623C94.8363 17.4853 95.4123 18.5093 96.351 19.32C97.311 20.1093 98.4203 20.504 99.679 20.504C101.748 20.504 103.22 19.7467 104.095 18.232H107.231C106.719 19.7253 105.77 20.952 104.383 21.912C102.996 22.8507 101.428 23.32 99.679 23.32C98.1217 23.32 96.7137 22.968 95.455 22.264C94.1963 21.5387 93.215 20.5467 92.511 19.288C91.807 18.008 91.455 16.5787 91.455 15C91.455 13.4213 91.807 12.0027 92.511 10.744C93.215 9.464 94.1857 8.472 95.423 7.768C96.6817 7.04267 98.0897 6.68 99.647 6.68ZM99.583 9.368C98.3243 9.368 97.2363 9.76267 96.319 10.552C95.423 11.3413 94.8683 12.3547 94.655 13.592H104.479C104.351 12.312 103.828 11.288 102.911 10.52C102.015 9.752 100.906 9.368 99.583 9.368ZM109.694 15C109.694 13.464 110.067 12.0667 110.814 10.808C111.56 9.528 112.584 8.52533 113.886 7.8C115.187 7.05333 116.627 6.68 118.206 6.68C119.976 6.68 121.566 7.20267 122.974 8.248C124.403 9.272 125.342 10.616 125.79 12.28H122.462C122.099 11.4267 121.512 10.7547 120.702 10.264C119.912 9.752 119.027 9.496 118.046 9.496C117.043 9.496 116.147 9.74133 115.358 10.232C114.568 10.7013 113.95 11.3627 113.502 12.216C113.054 13.048 112.83 13.976 112.83 15C112.83 16.024 113.054 16.9627 113.502 17.816C113.95 18.648 114.568 19.3093 115.358 19.8C116.147 20.2693 117.043 20.504 118.046 20.504C119.027 20.504 119.912 20.2587 120.702 19.768C121.512 19.256 122.099 18.5733 122.462 17.72H125.79C125.342 19.384 124.403 20.7387 122.974 21.784C121.566 22.808 119.976 23.32 118.206 23.32C116.627 23.32 115.187 22.9573 113.886 22.232C112.584 21.4853 111.56 20.4827 110.814 19.224C110.067 17.944 109.694 16.536 109.694 15ZM140.22 9.88H134.62V23H131.58V9.88H125.98V7H140.22V9.88ZM150.671 13.336C152.357 13.336 153.669 13.7947 154.607 14.712C155.567 15.608 156.047 16.76 156.047 18.168C156.047 19.576 155.567 20.7387 154.607 21.656C153.669 22.552 152.357 23 150.671 23H142.767V7H145.807V13.336H150.671ZM150.255 20.344C151.13 20.344 151.791 20.1627 152.239 19.8C152.687 19.4373 152.911 18.8933 152.911 18.168C152.911 17.4427 152.687 16.8987 152.239 16.536C151.791 16.1733 151.13 15.992 150.255 15.992H145.807V20.344H150.255Z" fill="white"/>
<path d="M166.149 15C166.149 13.464 166.522 12.0667 167.269 10.808C168.015 9.528 169.039 8.52533 170.341 7.8C171.642 7.05333 173.082 6.68 174.661 6.68C176.431 6.68 178.021 7.20267 179.429 8.248C180.858 9.272 181.797 10.616 182.245 12.28H178.917C178.554 11.4267 177.967 10.7547 177.157 10.264C176.367 9.752 175.482 9.496 174.501 9.496C173.498 9.496 172.602 9.74133 171.813 10.232C171.023 10.7013 170.405 11.3627 169.957 12.216C169.509 13.048 169.285 13.976 169.285 15C169.285 16.024 169.509 16.9627 169.957 17.816C170.405 18.648 171.023 19.3093 171.813 19.8C172.602 20.2693 173.498 20.504 174.501 20.504C175.482 20.504 176.367 20.2587 177.157 19.768C177.967 19.256 178.554 18.5733 178.917 17.72H182.245C181.797 19.384 180.858 20.7387 179.429 21.784C178.021 22.808 176.431 23.32 174.661 23.32C173.082 23.32 171.642 22.9573 170.341 22.232C169.039 21.4853 168.015 20.4827 167.269 19.224C166.522 17.944 166.149 16.536 166.149 15ZM199.696 20.12V23H198.16C197.371 23 196.752 22.808 196.304 22.424C195.856 22.0187 195.59 21.4427 195.504 20.696C194.822 21.4853 193.936 22.1253 192.848 22.616C191.782 23.0853 190.651 23.32 189.456 23.32C187.728 23.32 186.384 22.8933 185.424 22.04C184.486 21.1867 184.016 20.0453 184.016 18.616C184.016 17.3147 184.528 16.2053 185.552 15.288C186.576 14.3493 188.016 13.784 189.872 13.592L191.664 13.4C192.667 13.2933 193.414 13.1653 193.904 13.016C194.395 12.8453 194.704 12.664 194.832 12.472C194.982 12.28 195.056 12.024 195.056 11.704C195.056 10.9787 194.704 10.4133 194 10.008C193.318 9.58133 192.368 9.368 191.152 9.368C190.363 9.368 189.606 9.58133 188.88 10.008C188.155 10.4133 187.654 11 187.376 11.768H184.144C184.443 10.2747 185.254 9.05867 186.576 8.12C187.899 7.16 189.478 6.68 191.312 6.68C193.339 6.68 195.003 7.23467 196.304 8.344C197.606 9.45333 198.256 11.0427 198.256 13.112V19.256C198.256 19.5333 198.331 19.7467 198.48 19.896C198.63 20.0453 198.832 20.12 199.088 20.12H199.696ZM189.776 20.696C190.779 20.696 191.718 20.4933 192.592 20.088C193.467 19.6613 194.16 19.1067 194.672 18.424C195.206 17.72 195.472 16.9733 195.472 16.184V14.744C194.747 15.2987 193.595 15.6613 192.016 15.832L190.224 16.024C189.03 16.152 188.198 16.44 187.728 16.888C187.259 17.336 187.024 17.9013 187.024 18.584C187.024 19.224 187.259 19.736 187.728 20.12C188.219 20.504 188.902 20.696 189.776 20.696ZM216.863 23H213.823V9.88H208.223C208.201 12.9947 207.956 15.5227 207.487 17.464C207.017 19.384 206.292 20.8027 205.311 21.72C204.351 22.6373 203.092 23.096 201.535 23.096C201.172 23.096 200.873 23.064 200.639 23V20.216C200.937 20.2587 201.161 20.28 201.311 20.28C202.249 20.28 202.996 19.928 203.551 19.224C204.127 18.4987 204.543 17.3573 204.799 15.8C205.055 14.2213 205.183 12.1307 205.183 9.528V7H216.863V23ZM228.564 23.32C226.986 23.32 225.546 22.9573 224.244 22.232C222.943 21.4853 221.919 20.4827 221.172 19.224C220.426 17.944 220.052 16.536 220.052 15C220.052 13.464 220.426 12.0667 221.172 10.808C221.919 9.528 222.943 8.52533 224.244 7.8C225.546 7.05333 226.986 6.68 228.564 6.68C230.122 6.68 231.54 7.05333 232.82 7.8C234.122 8.52533 235.146 9.528 235.892 10.808C236.639 12.0667 237.012 13.464 237.012 15C237.012 16.536 236.639 17.944 235.892 19.224C235.146 20.4827 234.122 21.4853 232.82 22.232C231.54 22.9573 230.122 23.32 228.564 23.32ZM228.564 20.504C229.546 20.504 230.442 20.2693 231.252 19.8C232.063 19.3093 232.703 18.648 233.172 17.816C233.642 16.9627 233.876 16.024 233.876 15C233.876 13.976 233.642 13.048 233.172 12.216C232.703 11.3627 232.063 10.7013 231.252 10.232C230.442 9.74133 229.546 9.496 228.564 9.496C227.562 9.496 226.644 9.74133 225.812 10.232C225.002 10.7013 224.362 11.3627 223.892 12.216C223.423 13.048 223.188 13.976 223.188 15C223.188 16.024 223.423 16.9627 223.892 17.816C224.362 18.648 225.002 19.3093 225.812 19.8C226.644 20.2693 227.562 20.504 228.564 20.504ZM254.6 7V23H251.56V16.44H243.24V23H240.2V7H243.24V13.56H251.56V7H254.6ZM262.643 15.64C262.643 14.6587 262.835 13.8373 263.219 13.176C263.625 12.5147 264.105 11.992 264.659 11.608C265.214 11.224 265.95 10.7867 266.867 10.296C267.977 9.74133 268.809 9.21867 269.363 8.728C269.918 8.216 270.195 7.52267 270.195 6.648C270.195 5.47467 269.705 4.632 268.723 4.12C267.742 3.608 266.601 3.352 265.299 3.352C264.062 3.352 262.974 3.62933 262.035 4.184C261.118 4.71733 260.531 5.54933 260.275 6.68H257.011C257.203 5.31467 257.705 4.152 258.515 3.192C259.347 2.232 260.371 1.50667 261.587 1.016C262.803 0.525332 264.094 0.279999 265.459 0.279999C266.782 0.279999 268.041 0.503999 269.235 0.952C270.451 1.4 271.443 2.09333 272.211 3.032C273.001 3.94933 273.395 5.08 273.395 6.424C273.395 7.512 273.182 8.42933 272.755 9.176C272.329 9.90133 271.817 10.4773 271.219 10.904C270.622 11.3307 269.843 11.7893 268.883 12.28C268.137 12.664 267.561 12.984 267.155 13.24C266.771 13.496 266.441 13.816 266.163 14.2C265.907 14.584 265.779 15.032 265.779 15.544V16.28H262.643V15.64ZM266.035 19.48V23H262.515V19.48H266.035Z" fill="#FFD600"/>
</svg>
