<svg width="326" height="29" viewBox="0 0 326 29" fill="none" xmlns="http://www.w3.org/2000/svg">
<path d="M22.0811 0.599998L13.1211 19.32C12.4811 20.6 11.7131 21.5493 10.8171 22.168C9.94246 22.7867 8.81179 23.096 7.42512 23.096L4.92912 23.032L3.39312 23V19.928H7.20112C8.01179 19.928 8.59846 19.8107 8.96112 19.576C9.34512 19.3413 9.73979 18.8293 10.1451 18.04L0.833123 0.599998H4.51312L11.9691 14.616L18.4971 0.599998H22.0811ZM44.0289 14.84C45.6075 15.6293 46.3969 16.8453 46.3969 18.488C46.3969 19.8107 45.9169 20.8987 44.9569 21.752C43.9969 22.584 42.6742 23 40.9889 23H32.9569V7H40.9889C42.5889 7 43.8475 7.416 44.7649 8.248C45.7035 9.05867 46.1729 10.0933 46.1729 11.352C46.1729 12.0987 45.9915 12.7813 45.6289 13.4C45.2875 13.9973 44.7542 14.4773 44.0289 14.84ZM40.6369 13.656C41.4262 13.656 42.0235 13.4747 42.4289 13.112C42.8342 12.7493 43.0369 12.216 43.0369 11.512C43.0369 10.2107 42.2369 9.56 40.6369 9.56H35.9329V13.656H40.6369ZM40.6689 20.44C41.5222 20.44 42.1622 20.2587 42.5889 19.896C43.0369 19.512 43.2609 18.968 43.2609 18.264C43.2609 17.6027 43.0369 17.1013 42.5889 16.76C42.1622 16.3973 41.5222 16.216 40.6689 16.216H35.9329V20.44H40.6689ZM63.8456 20.12V23H62.3096C61.5203 23 60.9016 22.808 60.4536 22.424C60.0056 22.0187 59.739 21.4427 59.6536 20.696C58.971 21.4853 58.0856 22.1253 56.9976 22.616C55.931 23.0853 54.8003 23.32 53.6056 23.32C51.8776 23.32 50.5336 22.8933 49.5736 22.04C48.635 21.1867 48.1656 20.0453 48.1656 18.616C48.1656 17.3147 48.6776 16.2053 49.7016 15.288C50.7256 14.3493 52.1656 13.784 54.0216 13.592L55.8136 13.4C56.8163 13.2933 57.563 13.1653 58.0536 13.016C58.5443 12.8453 58.8536 12.664 58.9816 12.472C59.131 12.28 59.2056 12.024 59.2056 11.704C59.2056 10.9787 58.8536 10.4133 58.1496 10.008C57.467 9.58133 56.5176 9.368 55.3016 9.368C54.5123 9.368 53.755 9.58133 53.0296 10.008C52.3043 10.4133 51.803 11 51.5256 11.768H48.2936C48.5923 10.2747 49.403 9.05867 50.7256 8.12C52.0483 7.16 53.627 6.68 55.4616 6.68C57.4883 6.68 59.1523 7.23467 60.4536 8.344C61.755 9.45333 62.4056 11.0427 62.4056 13.112V19.256C62.4056 19.5333 62.4803 19.7467 62.6296 19.896C62.779 20.0453 62.9816 20.12 63.2376 20.12H63.8456ZM53.9256 20.696C54.9283 20.696 55.867 20.4933 56.7416 20.088C57.6163 19.6613 58.3096 19.1067 58.8216 18.424C59.355 17.72 59.6216 16.9733 59.6216 16.184V14.744C58.8963 15.2987 57.7443 15.6613 56.1656 15.832L54.3736 16.024C53.179 16.152 52.347 16.44 51.8776 16.888C51.4083 17.336 51.1736 17.9013 51.1736 18.584C51.1736 19.224 51.4083 19.736 51.8776 20.12C52.3683 20.504 53.051 20.696 53.9256 20.696ZM65.5881 15C65.5881 13.464 65.9615 12.0667 66.7081 10.808C67.4548 9.528 68.4788 8.52533 69.7801 7.8C71.0815 7.05333 72.5215 6.68 74.1001 6.68C75.8708 6.68 77.4601 7.20267 78.8681 8.248C80.2975 9.272 81.2361 10.616 81.6841 12.28H78.3561C77.9935 11.4267 77.4068 10.7547 76.5961 10.264C75.8068 9.752 74.9215 9.496 73.9401 9.496C72.9375 9.496 72.0415 9.74133 71.2521 10.232C70.4628 10.7013 69.8441 11.3627 69.3961 12.216C68.9481 13.048 68.7241 13.976 68.7241 15C68.7241 16.024 68.9481 16.9627 69.3961 17.816C69.8441 18.648 70.4628 19.3093 71.2521 19.8C72.0415 20.2693 72.9375 20.504 73.9401 20.504C74.9215 20.504 75.8068 20.2587 76.5961 19.768C77.4068 19.256 77.9935 18.5733 78.3561 17.72H81.6841C81.2361 19.384 80.2975 20.7387 78.8681 21.784C77.4601 22.808 75.8708 23.32 74.1001 23.32C72.5215 23.32 71.0815 22.9573 69.7801 22.232C68.4788 21.4853 67.4548 20.4827 66.7081 19.224C65.9615 17.944 65.5881 16.536 65.5881 15ZM99.8201 6.68C101.463 6.68 102.892 7.032 104.108 7.736C105.345 8.44 106.295 9.44267 106.956 10.744C107.617 12.024 107.948 13.528 107.948 15.256C107.948 15.704 107.937 16.0347 107.916 16.248H94.7961C95.0095 17.4853 95.5855 18.5093 96.5241 19.32C97.4841 20.1093 98.5935 20.504 99.8521 20.504C101.921 20.504 103.393 19.7467 104.268 18.232H107.404C106.892 19.7253 105.943 20.952 104.556 21.912C103.169 22.8507 101.601 23.32 99.8521 23.32C98.2948 23.32 96.8868 22.968 95.6281 22.264C94.3695 21.5387 93.3881 20.5467 92.6841 19.288C91.9801 18.008 91.6281 16.5787 91.6281 15C91.6281 13.4213 91.9801 12.0027 92.6841 10.744C93.3881 9.464 94.3588 8.472 95.5961 7.768C96.8548 7.04267 98.2628 6.68 99.8201 6.68ZM99.7561 9.368C98.4975 9.368 97.4095 9.76267 96.4921 10.552C95.5961 11.3413 95.0415 12.3547 94.8281 13.592H104.652C104.524 12.312 104.001 11.288 103.084 10.52C102.188 9.752 101.079 9.368 99.7561 9.368ZM109.867 15C109.867 13.464 110.24 12.0667 110.987 10.808C111.734 9.528 112.758 8.52533 114.059 7.8C115.36 7.05333 116.8 6.68 118.379 6.68C120.15 6.68 121.739 7.20267 123.147 8.248C124.576 9.272 125.515 10.616 125.963 12.28H122.635C122.272 11.4267 121.686 10.7547 120.875 10.264C120.086 9.752 119.2 9.496 118.219 9.496C117.216 9.496 116.32 9.74133 115.531 10.232C114.742 10.7013 114.123 11.3627 113.675 12.216C113.227 13.048 113.003 13.976 113.003 15C113.003 16.024 113.227 16.9627 113.675 17.816C114.123 18.648 114.742 19.3093 115.531 19.8C116.32 20.2693 117.216 20.504 118.219 20.504C119.2 20.504 120.086 20.2587 120.875 19.768C121.686 19.256 122.272 18.5733 122.635 17.72H125.963C125.515 19.384 124.576 20.7387 123.147 21.784C121.739 22.808 120.15 23.32 118.379 23.32C116.8 23.32 115.36 22.9573 114.059 22.232C112.758 21.4853 111.734 20.4827 110.987 19.224C110.24 17.944 109.867 16.536 109.867 15ZM140.393 9.88H134.793V23H131.753V9.88H126.153V7H140.393V9.88ZM150.845 13.336C152.53 13.336 153.842 13.7947 154.781 14.712C155.741 15.608 156.221 16.76 156.221 18.168C156.221 19.576 155.741 20.7387 154.781 21.656C153.842 22.552 152.53 23 150.845 23H142.941V7H145.981V13.336H150.845ZM150.429 20.344C151.303 20.344 151.965 20.1627 152.413 19.8C152.861 19.4373 153.085 18.8933 153.085 18.168C153.085 17.4427 152.861 16.8987 152.413 16.536C151.965 16.1733 151.303 15.992 150.429 15.992H145.981V20.344H150.429Z" fill="white"/>
<path d="M176.21 6.68C177.618 6.68 178.898 7.04267 180.05 7.768C181.202 8.472 182.109 9.45333 182.77 10.712C183.431 11.9707 183.762 13.4 183.762 15C183.762 16.6 183.431 18.0293 182.77 19.288C182.109 20.5467 181.202 21.5387 180.05 22.264C178.898 22.968 177.618 23.32 176.21 23.32C175.143 23.32 174.141 23.0853 173.202 22.616C172.263 22.1253 171.463 21.4533 170.802 20.6V28.44H167.762V7H170.642V9.592C171.325 8.67467 172.146 7.96 173.106 7.448C174.066 6.936 175.101 6.68 176.21 6.68ZM175.698 20.504C176.637 20.504 177.479 20.2693 178.226 19.8C178.973 19.3307 179.559 18.68 179.986 17.848C180.413 16.9947 180.626 16.0453 180.626 15C180.626 13.9547 180.413 13.016 179.986 12.184C179.559 11.3307 178.973 10.6693 178.226 10.2C177.479 9.73067 176.637 9.496 175.698 9.496C174.759 9.496 173.906 9.73067 173.138 10.2C172.37 10.6693 171.773 11.3307 171.346 12.184C170.919 13.016 170.706 13.9547 170.706 15C170.706 16.0453 170.919 16.9947 171.346 17.848C171.773 18.68 172.37 19.3307 173.138 19.8C173.906 20.2693 174.759 20.504 175.698 20.504ZM193.878 6.68C195.52 6.68 196.95 7.032 198.166 7.736C199.403 8.44 200.352 9.44267 201.014 10.744C201.675 12.024 202.006 13.528 202.006 15.256C202.006 15.704 201.995 16.0347 201.974 16.248H188.854C189.067 17.4853 189.643 18.5093 190.582 19.32C191.542 20.1093 192.651 20.504 193.91 20.504C195.979 20.504 197.451 19.7467 198.326 18.232H201.462C200.95 19.7253 200 20.952 198.614 21.912C197.227 22.8507 195.659 23.32 193.91 23.32C192.352 23.32 190.944 22.968 189.686 22.264C188.427 21.5387 187.446 20.5467 186.742 19.288C186.038 18.008 185.686 16.5787 185.686 15C185.686 13.4213 186.038 12.0027 186.742 10.744C187.446 9.464 188.416 8.472 189.654 7.768C190.912 7.04267 192.32 6.68 193.878 6.68ZM193.814 9.368C192.555 9.368 191.467 9.76267 190.55 10.552C189.654 11.3413 189.099 12.3547 188.886 13.592H198.71C198.582 12.312 198.059 11.288 197.142 10.52C196.246 9.752 195.136 9.368 193.814 9.368ZM203.924 15C203.924 13.464 204.298 12.0667 205.044 10.808C205.791 9.528 206.815 8.52533 208.116 7.8C209.418 7.05333 210.858 6.68 212.436 6.68C214.207 6.68 215.796 7.20267 217.204 8.248C218.634 9.272 219.572 10.616 220.02 12.28H216.692C216.33 11.4267 215.743 10.7547 214.932 10.264C214.143 9.752 213.258 9.496 212.276 9.496C211.274 9.496 210.378 9.74133 209.588 10.232C208.799 10.7013 208.18 11.3627 207.732 12.216C207.284 13.048 207.06 13.976 207.06 15C207.06 16.024 207.284 16.9627 207.732 17.816C208.18 18.648 208.799 19.3093 209.588 19.8C210.378 20.2693 211.274 20.504 212.276 20.504C213.258 20.504 214.143 20.2587 214.932 19.768C215.743 19.256 216.33 18.5733 216.692 17.72H220.02C219.572 19.384 218.634 20.7387 217.204 21.784C215.796 22.808 214.207 23.32 212.436 23.32C210.858 23.32 209.418 22.9573 208.116 22.232C206.815 21.4853 205.791 20.4827 205.044 19.224C204.298 17.944 203.924 16.536 203.924 15ZM234.451 9.88H228.851V23H225.811V9.88H220.211V7H234.451V9.88ZM243.445 23.32C241.866 23.32 240.426 22.9573 239.125 22.232C237.824 21.4853 236.8 20.4827 236.053 19.224C235.306 17.944 234.933 16.536 234.933 15C234.933 13.464 235.306 12.0667 236.053 10.808C236.8 9.528 237.824 8.52533 239.125 7.8C240.426 7.05333 241.866 6.68 243.445 6.68C245.002 6.68 246.421 7.05333 247.701 7.8C249.002 8.52533 250.026 9.528 250.773 10.808C251.52 12.0667 251.893 13.464 251.893 15C251.893 16.536 251.52 17.944 250.773 19.224C250.026 20.4827 249.002 21.4853 247.701 22.232C246.421 22.9573 245.002 23.32 243.445 23.32ZM243.445 20.504C244.426 20.504 245.322 20.2693 246.133 19.8C246.944 19.3093 247.584 18.648 248.053 17.816C248.522 16.9627 248.757 16.024 248.757 15C248.757 13.976 248.522 13.048 248.053 12.216C247.584 11.3627 246.944 10.7013 246.133 10.232C245.322 9.74133 244.426 9.496 243.445 9.496C242.442 9.496 241.525 9.74133 240.693 10.232C239.882 10.7013 239.242 11.3627 238.773 12.216C238.304 13.048 238.069 13.976 238.069 15C238.069 16.024 238.304 16.9627 238.773 17.816C239.242 18.648 239.882 19.3093 240.693 19.8C241.525 20.2693 242.442 20.504 243.445 20.504ZM263.529 6.68C264.937 6.68 266.217 7.04267 267.369 7.768C268.521 8.472 269.427 9.45333 270.089 10.712C270.75 11.9707 271.081 13.4 271.081 15C271.081 16.6 270.75 18.0293 270.089 19.288C269.427 20.5467 268.521 21.5387 267.369 22.264C266.217 22.968 264.937 23.32 263.529 23.32C262.462 23.32 261.459 23.0853 260.521 22.616C259.582 22.1253 258.782 21.4533 258.121 20.6V28.44H255.081V7H257.961V9.592C258.643 8.67467 259.465 7.96 260.425 7.448C261.385 6.936 262.419 6.68 263.529 6.68ZM263.017 20.504C263.955 20.504 264.798 20.2693 265.545 19.8C266.291 19.3307 266.878 18.68 267.305 17.848C267.731 16.9947 267.945 16.0453 267.945 15C267.945 13.9547 267.731 13.016 267.305 12.184C266.878 11.3307 266.291 10.6693 265.545 10.2C264.798 9.73067 263.955 9.496 263.017 9.496C262.078 9.496 261.225 9.73067 260.457 10.2C259.689 10.6693 259.091 11.3307 258.665 12.184C258.238 13.016 258.025 13.9547 258.025 15C258.025 16.0453 258.238 16.9947 258.665 17.848C259.091 18.68 259.689 19.3307 260.457 19.8C261.225 20.2693 262.078 20.504 263.017 20.504ZM288.844 20.12V23H287.308C286.519 23 285.9 22.808 285.452 22.424C285.004 22.0187 284.738 21.4427 284.652 20.696C283.97 21.4853 283.084 22.1253 281.996 22.616C280.93 23.0853 279.799 23.32 278.604 23.32C276.876 23.32 275.532 22.8933 274.572 22.04C273.634 21.1867 273.164 20.0453 273.164 18.616C273.164 17.3147 273.676 16.2053 274.7 15.288C275.724 14.3493 277.164 13.784 279.02 13.592L280.812 13.4C281.815 13.2933 282.562 13.1653 283.052 13.016C283.543 12.8453 283.852 12.664 283.98 12.472C284.13 12.28 284.204 12.024 284.204 11.704C284.204 10.9787 283.852 10.4133 283.148 10.008C282.466 9.58133 281.516 9.368 280.3 9.368C279.511 9.368 278.754 9.58133 278.028 10.008C277.303 10.4133 276.802 11 276.524 11.768H273.292C273.591 10.2747 274.402 9.05867 275.724 8.12C277.047 7.16 278.626 6.68 280.46 6.68C282.487 6.68 284.151 7.23467 285.452 8.344C286.754 9.45333 287.404 11.0427 287.404 13.112V19.256C287.404 19.5333 287.479 19.7467 287.628 19.896C287.778 20.0453 287.98 20.12 288.236 20.12H288.844ZM278.924 20.696C279.927 20.696 280.866 20.4933 281.74 20.088C282.615 19.6613 283.308 19.1067 283.82 18.424C284.354 17.72 284.62 16.9733 284.62 16.184V14.744C283.895 15.2987 282.743 15.6613 281.164 15.832L279.372 16.024C278.178 16.152 277.346 16.44 276.876 16.888C276.407 17.336 276.172 17.9013 276.172 18.584C276.172 19.224 276.407 19.736 276.876 20.12C277.367 20.504 278.05 20.696 278.924 20.696ZM306.427 7V23H303.387V16.44H295.067V23H292.027V7H295.067V13.56H303.387V7H306.427ZM314.47 15.64C314.47 14.6587 314.662 13.8373 315.046 13.176C315.451 12.5147 315.931 11.992 316.486 11.608C317.041 11.224 317.777 10.7867 318.694 10.296C319.803 9.74133 320.635 9.21867 321.19 8.728C321.745 8.216 322.022 7.52267 322.022 6.648C322.022 5.47467 321.531 4.632 320.55 4.12C319.569 3.608 318.427 3.352 317.126 3.352C315.889 3.352 314.801 3.62933 313.862 4.184C312.945 4.71733 312.358 5.54933 312.102 6.68H308.838C309.03 5.31467 309.531 4.152 310.342 3.192C311.174 2.232 312.198 1.50667 313.414 1.016C314.63 0.525332 315.921 0.279999 317.286 0.279999C318.609 0.279999 319.867 0.503999 321.062 0.952C322.278 1.4 323.27 2.09333 324.038 3.032C324.827 3.94933 325.222 5.08 325.222 6.424C325.222 7.512 325.009 8.42933 324.582 9.176C324.155 9.90133 323.643 10.4773 323.046 10.904C322.449 11.3307 321.67 11.7893 320.71 12.28C319.963 12.664 319.387 12.984 318.982 13.24C318.598 13.496 318.267 13.816 317.99 14.2C317.734 14.584 317.606 15.032 317.606 15.544V16.28H314.47V15.64ZM317.862 19.48V23H314.342V19.48H317.862Z" fill="#FFD600"/>
</svg>
