<svg width="179" height="18" viewBox="0 0 179 18" fill="none" xmlns="http://www.w3.org/2000/svg">
<path d="M19.6 -9.53674e-07V14H0.8V-9.53674e-07H2.8V12.08H9.2V-9.53674e-07H11.2V12.08H17.6V-9.53674e-07H19.6ZM31.7023 4V14H29.8023V7.84L24.6023 12.24V14H22.7023V4H24.6023V10.04L29.8023 5.64V4H31.7023ZM43.6894 12.18V14H42.8894C42.2627 14 41.7827 13.8333 41.4494 13.5C41.1294 13.1533 40.9694 12.6467 40.9694 11.98V10.72C40.9694 10.0933 40.6627 9.78 40.0494 9.78H36.5094V14H34.6094V4H36.5094V8.14H39.7894C40.1494 8.14 40.4227 8.04667 40.6094 7.86C40.8094 7.67333 40.9094 7.39333 40.9094 7.02V5.92C40.9094 4.64 41.5094 4 42.7094 4H43.5694V5.82H43.1894C43.0427 5.82 42.9227 5.86667 42.8294 5.96C42.7494 6.04 42.7094 6.15333 42.7094 6.3V7.38C42.7094 8.11333 42.4427 8.63333 41.9094 8.94C42.5227 9.23333 42.8294 9.74 42.8294 10.46V11.7C42.8294 11.8467 42.8694 11.9667 42.9494 12.06C43.0427 12.14 43.1627 12.18 43.3094 12.18H43.6894ZM55.1062 12.2V14H54.1462C53.6529 14 53.2662 13.88 52.9862 13.64C52.7062 13.3867 52.5396 13.0267 52.4862 12.56C52.0596 13.0533 51.5062 13.4533 50.8262 13.76C50.1596 14.0533 49.4529 14.2 48.7062 14.2C47.6262 14.2 46.7862 13.9333 46.1862 13.4C45.5996 12.8667 45.3062 12.1533 45.3062 11.26C45.3062 10.4467 45.6262 9.75333 46.2662 9.18C46.9062 8.59333 47.8062 8.24 48.9662 8.12L50.0862 8C50.7129 7.93333 51.1796 7.85333 51.4862 7.76C51.7929 7.65333 51.9862 7.54 52.0662 7.42C52.1596 7.3 52.2062 7.14 52.2062 6.94C52.2062 6.48667 51.9862 6.13333 51.5462 5.88C51.1196 5.61333 50.5262 5.48 49.7662 5.48C49.2729 5.48 48.7996 5.61333 48.3462 5.88C47.8929 6.13333 47.5796 6.5 47.4062 6.98H45.3862C45.5729 6.04667 46.0796 5.28667 46.9062 4.7C47.7329 4.1 48.7196 3.8 49.8662 3.8C51.1329 3.8 52.1729 4.14667 52.9862 4.84C53.7996 5.53333 54.2062 6.52667 54.2062 7.82V11.66C54.2062 11.8333 54.2529 11.9667 54.3462 12.06C54.4396 12.1533 54.5662 12.2 54.7262 12.2H55.1062ZM48.9062 12.56C49.5329 12.56 50.1196 12.4333 50.6662 12.18C51.2129 11.9133 51.6462 11.5667 51.9662 11.14C52.2996 10.7 52.4662 10.2333 52.4662 9.74V8.84C52.0129 9.18667 51.2929 9.41333 50.3062 9.52L49.1862 9.64C48.4396 9.72 47.9196 9.9 47.6262 10.18C47.3329 10.46 47.1862 10.8133 47.1862 11.24C47.1862 11.64 47.3329 11.96 47.6262 12.2C47.9329 12.44 48.3596 12.56 48.9062 12.56ZM62.3753 3.8C63.2553 3.8 64.0553 4.02667 64.7753 4.48C65.4953 4.92 66.062 5.53333 66.4753 6.32C66.8886 7.10667 67.0953 8 67.0953 9C67.0953 10 66.8886 10.8933 66.4753 11.68C66.062 12.4667 65.4953 13.0867 64.7753 13.54C64.0553 13.98 63.2553 14.2 62.3753 14.2C61.7086 14.2 61.082 14.0533 60.4953 13.76C59.9086 13.4533 59.4086 13.0333 58.9953 12.5V17.4H57.0953V4H58.8953V5.62C59.322 5.04667 59.8353 4.6 60.4353 4.28C61.0353 3.96 61.682 3.8 62.3753 3.8ZM62.0553 12.44C62.642 12.44 63.1686 12.2933 63.6353 12C64.102 11.7067 64.4686 11.3 64.7353 10.78C65.002 10.2467 65.1353 9.65333 65.1353 9C65.1353 8.34667 65.002 7.76 64.7353 7.24C64.4686 6.70667 64.102 6.29333 63.6353 6C63.1686 5.70667 62.642 5.56 62.0553 5.56C61.4686 5.56 60.9353 5.70667 60.4553 6C59.9753 6.29333 59.602 6.70667 59.3353 7.24C59.0686 7.76 58.9353 8.34667 58.9353 9C58.9353 9.65333 59.0686 10.2467 59.3353 10.78C59.602 11.3 59.9753 11.7067 60.4553 12C60.9353 12.2933 61.4686 12.44 62.0553 12.44ZM78.1 4V14H76.2V9.9H71V14H69.1V4H71V8.1H76.2V4H78.1ZM85.947 7.96C87.0004 7.96 87.8204 8.24667 88.407 8.82C89.007 9.38 89.307 10.1 89.307 10.98C89.307 11.86 89.007 12.5867 88.407 13.16C87.8204 13.72 87.0004 14 85.947 14H81.007V4H82.907V7.96H85.947ZM85.687 12.34C86.2337 12.34 86.647 12.2267 86.927 12C87.207 11.7733 87.347 11.4333 87.347 10.98C87.347 10.5267 87.207 10.1867 86.927 9.96C86.647 9.73333 86.2337 9.62 85.687 9.62H82.907V12.34H85.687ZM93.007 4V14H91.107V4H93.007ZM104.902 4V14H103.002V7.84L97.8023 12.24V14H95.9023V4H97.8023V10.04L103.002 5.64V4H104.902ZM100.502 3.02C99.4623 3.02 98.609 2.74667 97.9423 2.2C97.2757 1.65333 96.9023 0.919999 96.8223 -9.53674e-07H98.4623C98.529 0.506666 98.7423 0.906666 99.1023 1.2C99.4623 1.48 99.929 1.62 100.502 1.62C101.076 1.62 101.542 1.48 101.902 1.2C102.262 0.906666 102.476 0.506666 102.542 -9.53674e-07H104.182C104.102 0.919999 103.729 1.65333 103.062 2.2C102.396 2.74667 101.542 3.02 100.502 3.02ZM122.875 12.2V16.2H121.035V14H113.555V16.2H111.715V12.2H112.955C113.515 11.4533 113.948 10.4667 114.255 9.24C114.562 8 114.715 6.62667 114.715 5.12V4H121.475V12.2H122.875ZM119.615 12.26V5.7H116.495C116.402 8.5 115.868 10.6867 114.895 12.26H119.615ZM133.67 4V14H131.77V7.84L126.57 12.24V14H124.67V4H126.57V10.04L131.77 5.64V4H133.67ZM137.377 10.84C137.551 11.4267 137.871 11.86 138.337 12.14C138.817 12.42 139.444 12.56 140.217 12.56C140.937 12.56 141.517 12.4333 141.957 12.18C142.397 11.9133 142.617 11.5733 142.617 11.16C142.617 10.8 142.457 10.4933 142.137 10.24C141.817 9.97333 141.271 9.84 140.497 9.84H138.757V8.2H140.417C141.111 8.2 141.604 8.07333 141.897 7.82C142.204 7.56667 142.357 7.26 142.357 6.9C142.357 6.44667 142.151 6.08667 141.737 5.82C141.337 5.55333 140.784 5.42 140.077 5.42C139.397 5.42 138.831 5.54667 138.377 5.8C137.937 6.05333 137.651 6.45333 137.517 7H135.637C135.811 6 136.311 5.22 137.137 4.66C137.964 4.08667 138.944 3.8 140.077 3.8C141.331 3.8 142.344 4.07333 143.117 4.62C143.891 5.15333 144.277 5.86 144.277 6.74C144.277 7.18 144.157 7.59333 143.917 7.98C143.677 8.35333 143.317 8.65333 142.837 8.88C143.944 9.32 144.497 10.0733 144.497 11.14C144.497 12.06 144.097 12.8 143.297 13.36C142.511 13.92 141.437 14.2 140.077 14.2C138.851 14.2 137.811 13.9 136.957 13.3C136.104 12.7 135.611 11.88 135.477 10.84H137.377ZM155.258 12.2V14H154.298C153.804 14 153.418 13.88 153.138 13.64C152.858 13.3867 152.691 13.0267 152.638 12.56C152.211 13.0533 151.658 13.4533 150.978 13.76C150.311 14.0533 149.604 14.2 148.858 14.2C147.778 14.2 146.938 13.9333 146.338 13.4C145.751 12.8667 145.458 12.1533 145.458 11.26C145.458 10.4467 145.778 9.75333 146.418 9.18C147.058 8.59333 147.958 8.24 149.118 8.12L150.238 8C150.864 7.93333 151.331 7.85333 151.638 7.76C151.944 7.65333 152.138 7.54 152.218 7.42C152.311 7.3 152.358 7.14 152.358 6.94C152.358 6.48667 152.138 6.13333 151.698 5.88C151.271 5.61333 150.678 5.48 149.918 5.48C149.424 5.48 148.951 5.61333 148.498 5.88C148.044 6.13333 147.731 6.5 147.558 6.98H145.538C145.724 6.04667 146.231 5.28667 147.058 4.7C147.884 4.1 148.871 3.8 150.018 3.8C151.284 3.8 152.324 4.14667 153.138 4.84C153.951 5.53333 154.358 6.52667 154.358 7.82V11.66C154.358 11.8333 154.404 11.9667 154.498 12.06C154.591 12.1533 154.718 12.2 154.878 12.2H155.258ZM149.058 12.56C149.684 12.56 150.271 12.4333 150.818 12.18C151.364 11.9133 151.798 11.5667 152.118 11.14C152.451 10.7 152.618 10.2333 152.618 9.74V8.84C152.164 9.18667 151.444 9.41333 150.458 9.52L149.338 9.64C148.591 9.72 148.071 9.9 147.778 10.18C147.484 10.46 147.338 10.8133 147.338 11.24C147.338 11.64 147.484 11.96 147.778 12.2C148.084 12.44 148.511 12.56 149.058 12.56ZM166.247 4V14H164.347V7.84L159.147 12.24V14H157.247V4H159.147V10.04L164.347 5.64V4H166.247ZM161.847 3.02C160.807 3.02 159.954 2.74667 159.287 2.2C158.62 1.65333 158.247 0.919999 158.167 -9.53674e-07H159.807C159.874 0.506666 160.087 0.906666 160.447 1.2C160.807 1.48 161.274 1.62 161.847 1.62C162.42 1.62 162.887 1.48 163.247 1.2C163.607 0.906666 163.82 0.506666 163.887 -9.53674e-07H165.527C165.447 0.919999 165.074 1.65333 164.407 2.2C163.74 2.74667 162.887 3.02 161.847 3.02ZM178.154 4V14H176.254V9.9H171.054V14H169.154V4H171.054V8.1H176.254V4H178.154Z" fill="white"/>
</svg>
