<svg width="15" height="14" viewBox="0 0 15 14" fill="none" xmlns="http://www.w3.org/2000/svg">
<path d="M3.15839 0.543945C3.44222 0.543945 3.68656 0.751851 3.74085 1.03921L3.77788 1.35628H14.161C14.662 1.35628 15.0618 1.87033 14.9211 2.38844L13.5884 7.26345C13.4921 7.61376 13.1812 7.85492 12.8282 7.85492H5.00203L5.22909 9.07342H12.8332C13.1614 9.07342 13.4255 9.34504 13.4255 9.68267C13.4255 10.0203 13.1614 10.2919 12.8332 10.2919H4.71574C4.45412 10.2919 4.20978 10.0838 4.15549 9.7969L2.66824 1.76244H1.3814C1.05438 1.76244 0.789062 1.48955 0.789062 1.15319C0.789062 0.816838 1.05438 0.543945 1.3814 0.543945H3.15839ZM7.50217 5.11331H8.58811V6.23026C8.58811 6.5095 8.78802 6.73797 9.08172 6.73797C9.35321 6.73797 9.57533 6.5095 9.57533 6.23026V5.11331H10.6613C10.9328 5.11331 11.1549 4.88484 11.1549 4.6056C11.1549 4.30351 10.9328 4.09789 10.6613 4.09789H9.57533V2.98094C9.57533 2.70043 9.35321 2.47323 9.08172 2.47323C8.78802 2.47323 8.58811 2.70043 8.58811 2.98094V4.09789H7.50217C7.20847 4.09789 7.00856 4.30351 7.00856 4.6056C7.00856 4.88484 7.20847 5.11331 7.50217 5.11331ZM3.94817 12.3227C3.94817 11.65 4.4788 11.1042 5.13284 11.1042C5.78687 11.1042 6.3175 11.65 6.3175 12.3227C6.3175 12.9955 5.78687 13.5412 5.13284 13.5412C4.4788 13.5412 3.94817 12.9955 3.94817 12.3227ZM13.4255 12.3227C13.4255 12.9955 12.8949 13.5412 12.2408 13.5412C11.5868 13.5412 11.0562 12.9955 11.0562 12.3227C11.0562 11.65 11.5868 11.1042 12.2408 11.1042C12.8949 11.1042 13.4255 11.65 13.4255 12.3227Z" fill="black"/>
</svg>
