<svg width="11" height="12" viewBox="0 0 11 12" fill="none" xmlns="http://www.w3.org/2000/svg">
<mask id="path-1-outside-1_24_2405" maskUnits="userSpaceOnUse" x="0" y="0" width="11" height="12" fill="black">
<rect fill="white" width="11" height="12"/>
<path d="M10 4.10345C10 5.81744 8.6052 7.2069 6.88462 7.2069C5.16404 7.2069 3.76923 5.81744 3.76923 4.10345C3.76923 2.38946 5.16404 1 6.88462 1C8.6052 1 10 2.38946 10 4.10345Z"/>
</mask>
<path d="M0.623874 10.6706C0.44193 10.8783 0.462834 11.1942 0.670563 11.3761C0.878292 11.5581 1.19418 11.5372 1.37613 11.3294L0.623874 10.6706ZM1.37613 11.3294L5.30243 6.84668L4.55018 6.1878L0.623874 10.6706L1.37613 11.3294ZM9 4.10345C9 5.26154 8.05653 6.2069 6.88462 6.2069V8.2069C9.15386 8.2069 11 6.37334 11 4.10345H9ZM6.88462 6.2069C5.7127 6.2069 4.76923 5.26154 4.76923 4.10345H2.76923C2.76923 6.37334 4.61537 8.2069 6.88462 8.2069V6.2069ZM4.76923 4.10345C4.76923 2.94536 5.7127 2 6.88462 2V0C4.61537 0 2.76923 1.83356 2.76923 4.10345H4.76923ZM6.88462 2C8.05653 2 9 2.94536 9 4.10345H11C11 1.83356 9.15386 0 6.88462 0V2Z" fill="#A3A3A3" mask="url(#path-1-outside-1_24_2405)"/>
</svg>
