<svg width="208" height="47" viewBox="0 0 208 47" fill="none" xmlns="http://www.w3.org/2000/svg">
<path opacity="0.6" d="M39.359 16C39.359 14.6667 39.6723 13.4533 40.299 12.36C40.939 11.2533 41.8057 10.3867 42.899 9.76C43.9923 9.12 45.2057 8.8 46.539 8.8C47.5657 8.8 48.5257 9 49.419 9.4C50.3123 9.78667 51.079 10.3467 51.719 11.08C52.3723 11.8 52.8523 12.64 53.159 13.6H50.939C50.5257 12.7067 49.939 12.0067 49.179 11.5C48.4323 10.98 47.5523 10.72 46.539 10.72C45.5923 10.72 44.7323 10.9533 43.959 11.42C43.1857 11.8867 42.5723 12.5267 42.119 13.34C41.679 14.14 41.459 15.0267 41.459 16C41.459 16.9733 41.679 17.8667 42.119 18.68C42.5723 19.48 43.1857 20.1133 43.959 20.58C44.7323 21.0467 45.5923 21.28 46.539 21.28C47.5523 21.28 48.4323 21.0267 49.179 20.52C49.939 20 50.5257 19.2933 50.939 18.4H53.159C52.8523 19.36 52.3723 20.2067 51.719 20.94C51.079 21.66 50.3123 22.22 49.419 22.62C48.5257 23.0067 47.5657 23.2 46.539 23.2C45.2057 23.2 43.9923 22.8867 42.899 22.26C41.8057 21.62 40.939 20.7533 40.299 19.66C39.6723 18.5533 39.359 17.3333 39.359 16ZM67.5496 23H65.6496V15.3L61.3496 23L57.0496 15.34V23H55.1496V13H57.7496L61.3896 19.54L64.9896 13H67.5496V23ZM74.8751 23.2C73.8884 23.2 72.9884 22.9733 72.1751 22.52C71.3617 22.0533 70.7217 21.4267 70.2551 20.64C69.7884 19.84 69.5551 18.96 69.5551 18C69.5551 17.04 69.7884 16.1667 70.2551 15.38C70.7217 14.58 71.3617 13.9533 72.1751 13.5C72.9884 13.0333 73.8884 12.8 74.8751 12.8C75.8484 12.8 76.7351 13.0333 77.5351 13.5C78.3484 13.9533 78.9884 14.58 79.4551 15.38C79.9217 16.1667 80.1551 17.04 80.1551 18C80.1551 18.96 79.9217 19.84 79.4551 20.64C78.9884 21.4267 78.3484 22.0533 77.5351 22.52C76.7351 22.9733 75.8484 23.2 74.8751 23.2ZM74.8751 21.44C75.4884 21.44 76.0484 21.2933 76.5551 21C77.0617 20.6933 77.4617 20.28 77.7551 19.76C78.0484 19.2267 78.1951 18.64 78.1951 18C78.1951 17.36 78.0484 16.78 77.7551 16.26C77.4617 15.7267 77.0617 15.3133 76.5551 15.02C76.0484 14.7133 75.4884 14.56 74.8751 14.56C74.2484 14.56 73.6751 14.7133 73.1551 15.02C72.6484 15.3133 72.2484 15.7267 71.9551 16.26C71.6617 16.78 71.5151 17.36 71.5151 18C71.5151 18.64 71.6617 19.2267 71.9551 19.76C72.2484 20.28 72.6484 20.6933 73.1551 21C73.6751 21.2933 74.2484 21.44 74.8751 21.44ZM89.3566 14.8H85.8566V23H83.9566V14.8H80.4566V13H89.3566V14.8ZM96.2288 12.8C97.1088 12.8 97.9088 13.0267 98.6288 13.48C99.3488 13.92 99.9155 14.5333 100.329 15.32C100.742 16.1067 100.949 17 100.949 18C100.949 19 100.742 19.8933 100.329 20.68C99.9155 21.4667 99.3488 22.0867 98.6288 22.54C97.9088 22.98 97.1088 23.2 96.2288 23.2C95.5622 23.2 94.9355 23.0533 94.3488 22.76C93.7622 22.4533 93.2622 22.0333 92.8488 21.5V26.4H90.9488V13H92.7488V14.62C93.1755 14.0467 93.6888 13.6 94.2888 13.28C94.8888 12.96 95.5355 12.8 96.2288 12.8ZM95.9088 21.44C96.4955 21.44 97.0222 21.2933 97.4888 21C97.9555 20.7067 98.3222 20.3 98.5888 19.78C98.8555 19.2467 98.9888 18.6533 98.9888 18C98.9888 17.3467 98.8555 16.76 98.5888 16.24C98.3222 15.7067 97.9555 15.2933 97.4888 15C97.0222 14.7067 96.4955 14.56 95.9088 14.56C95.3222 14.56 94.7888 14.7067 94.3088 15C93.8288 15.2933 93.4555 15.7067 93.1888 16.24C92.9222 16.76 92.7888 17.3467 92.7888 18C92.7888 18.6533 92.9222 19.2467 93.1888 19.78C93.4555 20.3 93.8288 20.7067 94.3088 21C94.7888 21.2933 95.3222 21.44 95.9088 21.44ZM102.954 13H104.854V20.44L110.054 13H112.154V23H110.254V15.56L105.054 23H102.954V13ZM129.361 13V23H127.461V18.9H122.261V23H120.361V13H122.261V17.1H127.461V13H129.361ZM132.268 13H134.168V20.44L139.368 13H141.468V23H139.568V15.56L134.368 23H132.268V13ZM152.991 18.4L151.751 19.6V23H149.871V19.6L148.631 18.4L145.231 23H142.871L147.251 17.06L143.071 13H145.451L149.871 17.32V13H151.751V17.34L156.211 13H158.551L154.371 17.06L158.751 23H156.391L152.991 18.4ZM163.759 12.8C164.786 12.8 165.679 13.02 166.439 13.46C167.213 13.9 167.806 14.5267 168.219 15.34C168.633 16.14 168.839 17.08 168.839 18.16C168.839 18.44 168.833 18.6467 168.819 18.78H160.619C160.753 19.5533 161.113 20.1933 161.699 20.7C162.299 21.1933 162.993 21.44 163.779 21.44C165.073 21.44 165.993 20.9667 166.539 20.02H168.499C168.179 20.9533 167.586 21.72 166.719 22.32C165.853 22.9067 164.873 23.2 163.779 23.2C162.806 23.2 161.926 22.98 161.139 22.54C160.353 22.0867 159.739 21.4667 159.299 20.68C158.859 19.88 158.639 18.9867 158.639 18C158.639 17.0133 158.859 16.1267 159.299 15.34C159.739 14.54 160.346 13.92 161.119 13.48C161.906 13.0267 162.786 12.8 163.759 12.8ZM163.719 14.48C162.933 14.48 162.253 14.7267 161.679 15.22C161.119 15.7133 160.773 16.3467 160.639 17.12H166.779C166.699 16.32 166.373 15.68 165.799 15.2C165.239 14.72 164.546 14.48 163.719 14.48Z" fill="white"/>
<path d="M95 37L104 46L113 37" stroke="#666666"/>
</svg>
