<svg width="378" height="52" viewBox="0 0 378 52" fill="none" xmlns="http://www.w3.org/2000/svg">
<path d="M89.4228 32.5H87.8228V22.836H81.4228V32.5H79.8228V21.3H89.4228V32.5ZM95.6832 32.66C94.8939 32.66 94.1739 32.4787 93.5232 32.116C92.8725 31.7427 92.3605 31.2413 91.9872 30.612C91.6139 29.972 91.4272 29.268 91.4272 28.5C91.4272 27.732 91.6139 27.0333 91.9872 26.404C92.3605 25.764 92.8725 25.2627 93.5232 24.9C94.1739 24.5267 94.8939 24.34 95.6832 24.34C96.4619 24.34 97.1712 24.5267 97.8112 24.9C98.4619 25.2627 98.9739 25.764 99.3472 26.404C99.7205 27.0333 99.9072 27.732 99.9072 28.5C99.9072 29.268 99.7205 29.972 99.3472 30.612C98.9739 31.2413 98.4619 31.7427 97.8112 32.116C97.1712 32.4787 96.4619 32.66 95.6832 32.66ZM95.6832 31.252C96.1739 31.252 96.6219 31.1347 97.0272 30.9C97.4325 30.6547 97.7525 30.324 97.9872 29.908C98.2219 29.4813 98.3392 29.012 98.3392 28.5C98.3392 27.988 98.2219 27.524 97.9872 27.108C97.7525 26.6813 97.4325 26.3507 97.0272 26.116C96.6219 25.8707 96.1739 25.748 95.6832 25.748C95.1819 25.748 94.7232 25.8707 94.3072 26.116C93.9019 26.3507 93.5819 26.6813 93.3472 27.108C93.1125 27.524 92.9952 27.988 92.9952 28.5C92.9952 29.012 93.1125 29.4813 93.3472 29.908C93.5819 30.324 93.9019 30.6547 94.3072 30.9C94.7232 31.1347 95.1819 31.252 95.6832 31.252ZM101.099 28.5C101.099 27.732 101.286 27.0333 101.659 26.404C102.032 25.764 102.544 25.2627 103.195 24.9C103.846 24.5267 104.566 24.34 105.355 24.34C106.24 24.34 107.035 24.6013 107.739 25.124C108.454 25.636 108.923 26.308 109.147 27.14H107.483C107.302 26.7133 107.008 26.3773 106.603 26.132C106.208 25.876 105.766 25.748 105.275 25.748C104.774 25.748 104.326 25.8707 103.931 26.116C103.536 26.3507 103.227 26.6813 103.003 27.108C102.779 27.524 102.667 27.988 102.667 28.5C102.667 29.012 102.779 29.4813 103.003 29.908C103.227 30.324 103.536 30.6547 103.931 30.9C104.326 31.1347 104.774 31.252 105.275 31.252C105.766 31.252 106.208 31.1293 106.603 30.884C107.008 30.628 107.302 30.2867 107.483 29.86H109.147C108.923 30.692 108.454 31.3693 107.739 31.892C107.035 32.404 106.24 32.66 105.355 32.66C104.566 32.66 103.846 32.4787 103.195 32.116C102.544 31.7427 102.032 31.2413 101.659 30.612C101.286 29.972 101.099 29.268 101.099 28.5ZM120.755 32.5H119.235V26.34L115.795 32.5L112.355 26.372V32.5H110.835V24.5H112.915L115.827 29.732L118.707 24.5H120.755V32.5ZM126.855 32.66C126.066 32.66 125.346 32.4787 124.695 32.116C124.044 31.7427 123.532 31.2413 123.159 30.612C122.786 29.972 122.599 29.268 122.599 28.5C122.599 27.732 122.786 27.0333 123.159 26.404C123.532 25.764 124.044 25.2627 124.695 24.9C125.346 24.5267 126.066 24.34 126.855 24.34C127.634 24.34 128.343 24.5267 128.983 24.9C129.634 25.2627 130.146 25.764 130.519 26.404C130.892 27.0333 131.079 27.732 131.079 28.5C131.079 29.268 130.892 29.972 130.519 30.612C130.146 31.2413 129.634 31.7427 128.983 32.116C128.343 32.4787 127.634 32.66 126.855 32.66ZM126.855 31.252C127.346 31.252 127.794 31.1347 128.199 30.9C128.604 30.6547 128.924 30.324 129.159 29.908C129.394 29.4813 129.511 29.012 129.511 28.5C129.511 27.988 129.394 27.524 129.159 27.108C128.924 26.6813 128.604 26.3507 128.199 26.116C127.794 25.8707 127.346 25.748 126.855 25.748C126.354 25.748 125.895 25.8707 125.479 26.116C125.074 26.3507 124.754 26.6813 124.519 27.108C124.284 27.524 124.167 27.988 124.167 28.5C124.167 29.012 124.284 29.4813 124.519 29.908C124.754 30.324 125.074 30.6547 125.479 30.9C125.895 31.1347 126.354 31.252 126.855 31.252ZM138.68 25.94H135.88V32.5H134.36V25.94H131.56V24.5H138.68V25.94ZM144.418 24.34C145.122 24.34 145.762 24.5213 146.338 24.884C146.914 25.236 147.367 25.7267 147.698 26.356C148.029 26.9853 148.194 27.7 148.194 28.5C148.194 29.3 148.029 30.0147 147.698 30.644C147.367 31.2733 146.914 31.7693 146.338 32.132C145.762 32.484 145.122 32.66 144.418 32.66C143.885 32.66 143.383 32.5427 142.914 32.308C142.445 32.0627 142.045 31.7267 141.714 31.3V35.22H140.194V24.5H141.634V25.796C141.975 25.3373 142.386 24.98 142.866 24.724C143.346 24.468 143.863 24.34 144.418 24.34ZM144.162 31.252C144.631 31.252 145.053 31.1347 145.426 30.9C145.799 30.6653 146.093 30.34 146.306 29.924C146.519 29.4973 146.626 29.0227 146.626 28.5C146.626 27.9773 146.519 27.508 146.306 27.092C146.093 26.6653 145.799 26.3347 145.426 26.1C145.053 25.8653 144.631 25.748 144.162 25.748C143.693 25.748 143.266 25.8653 142.882 26.1C142.498 26.3347 142.199 26.6653 141.986 27.092C141.773 27.508 141.666 27.9773 141.666 28.5C141.666 29.0227 141.773 29.4973 141.986 29.924C142.199 30.34 142.498 30.6653 142.882 30.9C143.266 31.1347 143.693 31.252 144.162 31.252ZM153.492 24.34C154.313 24.34 155.028 24.516 155.636 24.868C156.255 25.22 156.729 25.7213 157.06 26.372C157.391 27.012 157.556 27.764 157.556 28.628C157.556 28.852 157.551 29.0173 157.54 29.124H150.98C151.087 29.7427 151.375 30.2547 151.844 30.66C152.324 31.0547 152.879 31.252 153.508 31.252C154.543 31.252 155.279 30.8733 155.716 30.116H157.284C157.028 30.8627 156.553 31.476 155.86 31.956C155.167 32.4253 154.383 32.66 153.508 32.66C152.729 32.66 152.025 32.484 151.396 32.132C150.767 31.7693 150.276 31.2733 149.924 30.644C149.572 30.004 149.396 29.2893 149.396 28.5C149.396 27.7107 149.572 27.0013 149.924 26.372C150.276 25.732 150.761 25.236 151.38 24.884C152.009 24.5213 152.713 24.34 153.492 24.34ZM153.46 25.684C152.831 25.684 152.287 25.8813 151.828 26.276C151.38 26.6707 151.103 27.1773 150.996 27.796H155.908C155.844 27.156 155.583 26.644 155.124 26.26C154.676 25.876 154.121 25.684 153.46 25.684ZM165.165 25.94H162.365V32.5H160.845V25.94H158.045V24.5H165.165V25.94ZM170.63 27.668C171.473 27.668 172.129 27.8973 172.598 28.356C173.078 28.804 173.318 29.38 173.318 30.084C173.318 30.788 173.078 31.3693 172.598 31.828C172.129 32.276 171.473 32.5 170.63 32.5H166.678V24.5H168.198V27.668H170.63ZM170.422 31.172C170.86 31.172 171.19 31.0813 171.414 30.9C171.638 30.7187 171.75 30.4467 171.75 30.084C171.75 29.7213 171.638 29.4493 171.414 29.268C171.19 29.0867 170.86 28.996 170.422 28.996H168.198V31.172H170.422ZM186.769 24.5V32.5H185.249V29.22H181.089V32.5H179.569V24.5H181.089V27.78H185.249V24.5H186.769ZM196.615 24.5V32.5H195.095V31.3C194.764 31.7267 194.364 32.0627 193.895 32.308C193.425 32.5427 192.924 32.66 192.391 32.66C191.687 32.66 191.047 32.484 190.471 32.132C189.895 31.7693 189.441 31.2733 189.111 30.644C188.78 30.0147 188.615 29.3 188.615 28.5C188.615 27.7 188.78 26.9853 189.111 26.356C189.441 25.7267 189.895 25.236 190.471 24.884C191.047 24.5213 191.687 24.34 192.391 24.34C192.945 24.34 193.463 24.468 193.943 24.724C194.423 24.98 194.833 25.3373 195.175 25.796V24.5H196.615ZM192.647 31.252C193.116 31.252 193.543 31.1347 193.927 30.9C194.311 30.6653 194.609 30.34 194.823 29.924C195.036 29.4973 195.143 29.0227 195.143 28.5C195.143 27.9773 195.036 27.508 194.823 27.092C194.609 26.6653 194.311 26.3347 193.927 26.1C193.543 25.8653 193.116 25.748 192.647 25.748C192.177 25.748 191.756 25.8653 191.383 26.1C191.009 26.3347 190.716 26.6653 190.503 27.092C190.289 27.508 190.183 27.9773 190.183 28.5C190.183 29.0227 190.289 29.4973 190.503 29.924C190.716 30.34 191.009 30.6653 191.383 30.9C191.756 31.1347 192.177 31.252 192.647 31.252ZM210.298 24.5V32.5H199.178V24.5H200.698V31.06H203.978V24.5H205.498V31.06H208.778V24.5H210.298ZM212.866 24.5H214.386V30.452L218.546 24.5H220.226V32.5H218.706V26.548L214.546 32.5H212.866V24.5ZM232.872 25.94H228.792V32.5H227.272V24.5H232.872V25.94ZM241.365 24.5V32.5H239.845V31.3C239.514 31.7267 239.114 32.0627 238.645 32.308C238.175 32.5427 237.674 32.66 237.141 32.66C236.437 32.66 235.797 32.484 235.221 32.132C234.645 31.7693 234.191 31.2733 233.861 30.644C233.53 30.0147 233.365 29.3 233.365 28.5C233.365 27.7 233.53 26.9853 233.861 26.356C234.191 25.7267 234.645 25.236 235.221 24.884C235.797 24.5213 236.437 24.34 237.141 24.34C237.695 24.34 238.213 24.468 238.693 24.724C239.173 24.98 239.583 25.3373 239.925 25.796V24.5H241.365ZM237.397 31.252C237.866 31.252 238.293 31.1347 238.677 30.9C239.061 30.6653 239.359 30.34 239.573 29.924C239.786 29.4973 239.893 29.0227 239.893 28.5C239.893 27.9773 239.786 27.508 239.573 27.092C239.359 26.6653 239.061 26.3347 238.677 26.1C238.293 25.8653 237.866 25.748 237.397 25.748C236.927 25.748 236.506 25.8653 236.133 26.1C235.759 26.3347 235.466 26.6653 235.253 27.092C235.039 27.508 234.933 27.9773 234.933 28.5C234.933 29.0227 235.039 29.4973 235.253 29.924C235.466 30.34 235.759 30.6653 236.133 30.9C236.506 31.1347 236.927 31.252 237.397 31.252ZM248.152 24.34C248.856 24.34 249.496 24.5213 250.072 24.884C250.648 25.236 251.102 25.7267 251.432 26.356C251.763 26.9853 251.928 27.7 251.928 28.5C251.928 29.3 251.763 30.0147 251.432 30.644C251.102 31.2733 250.648 31.7693 250.072 32.132C249.496 32.484 248.856 32.66 248.152 32.66C247.619 32.66 247.118 32.5427 246.648 32.308C246.179 32.0627 245.779 31.7267 245.448 31.3V35.22H243.928V24.5H245.368V25.796C245.71 25.3373 246.12 24.98 246.6 24.724C247.08 24.468 247.598 24.34 248.152 24.34ZM247.896 31.252C248.366 31.252 248.787 31.1347 249.16 30.9C249.534 30.6653 249.827 30.34 250.04 29.924C250.254 29.4973 250.36 29.0227 250.36 28.5C250.36 27.9773 250.254 27.508 250.04 27.092C249.827 26.6653 249.534 26.3347 249.16 26.1C248.787 25.8653 248.366 25.748 247.896 25.748C247.427 25.748 247 25.8653 246.616 26.1C246.232 26.3347 245.934 26.6653 245.72 27.092C245.507 27.508 245.4 27.9773 245.4 28.5C245.4 29.0227 245.507 29.4973 245.72 29.924C245.934 30.34 246.232 30.6653 246.616 30.9C247 31.1347 247.427 31.252 247.896 31.252ZM261.13 24.5V32.5H259.61V31.3C259.28 31.7267 258.88 32.0627 258.41 32.308C257.941 32.5427 257.44 32.66 256.906 32.66C256.202 32.66 255.562 32.484 254.986 32.132C254.41 31.7693 253.957 31.2733 253.626 30.644C253.296 30.0147 253.13 29.3 253.13 28.5C253.13 27.7 253.296 26.9853 253.626 26.356C253.957 25.7267 254.41 25.236 254.986 24.884C255.562 24.5213 256.202 24.34 256.906 24.34C257.461 24.34 257.978 24.468 258.458 24.724C258.938 24.98 259.349 25.3373 259.69 25.796V24.5H261.13ZM257.162 31.252C257.632 31.252 258.058 31.1347 258.442 30.9C258.826 30.6653 259.125 30.34 259.338 29.924C259.552 29.4973 259.658 29.0227 259.658 28.5C259.658 27.9773 259.552 27.508 259.338 27.092C259.125 26.6653 258.826 26.3347 258.442 26.1C258.058 25.8653 257.632 25.748 257.162 25.748C256.693 25.748 256.272 25.8653 255.898 26.1C255.525 26.3347 255.232 26.6653 255.018 27.092C254.805 27.508 254.698 27.9773 254.698 28.5C254.698 29.0227 254.805 29.4973 255.018 29.924C255.232 30.34 255.525 30.6653 255.898 30.9C256.272 31.1347 256.693 31.252 257.162 31.252ZM270.894 24.5V32.5H269.374V29.22H265.214V32.5H263.694V24.5H265.214V27.78H269.374V24.5H270.894ZM279.54 25.94H276.74V32.5H275.22V25.94H272.42V24.5H279.54V25.94ZM281.053 24.5H282.573V30.452L286.733 24.5H288.413V32.5H286.893V26.548L282.733 32.5H281.053V24.5ZM290.975 24.5H292.495V30.452L296.655 24.5H298.335V32.5H296.815V26.548L292.655 32.5H290.975V24.5Z" fill="#FFD600"/>
<rect x="1" y="1" width="376" height="50" rx="14" stroke="#FFD600" stroke-width="2"/>
</svg>
