<svg width="233" height="40" viewBox="0 0 233 40" fill="none" xmlns="http://www.w3.org/2000/svg">
<path d="M174.84 1.94727L172.932 10.1441H159.786L153.239 38.3433H140.248L146.795 10.1441H133.288L135.144 1.94727H174.84Z" fill="#FFD600"/>
<path d="M131.281 1.94727L129.373 10.0926H107.36L105.711 17.1553H126.486L124.579 25.3006H103.803L100.762 38.3433H87.9765L96.4311 1.94727H131.281Z" fill="#FFD600"/>
<path d="M84.1059 16.8945C84.1059 22.8746 81.4252 29.0609 77.0432 33.0305C74.2594 35.6081 68.4339 39.3714 58.2265 39.3714C56.1129 39.3714 48.9471 39.2683 43.7403 35.4534C39.6161 32.4634 37.3993 27.669 37.3993 22.5653C37.3993 18.9566 38.4819 15.3479 40.3378 12.2032C46.5757 1.48032 58.5359 0.707031 63.1756 0.707031C76.7339 0.707031 84.1059 7.20265 84.1059 16.8945ZM71.3209 17.5132C71.3209 11.8424 68.1246 8.80078 62.9694 8.80078C55.6489 8.80078 50.339 14.8324 50.339 22.256C50.339 27.6174 53.6899 31.4323 59.1545 31.4323C66.2687 31.4323 71.3209 25.4007 71.3209 17.5132Z" fill="#FFD600"/>
<path d="M33.7153 29.9918L31.8079 38.3433H0L8.40306 1.94727H21.4458L14.9502 29.9918H33.7153Z" fill="#FFD600"/>
<path d="M232.998 14.8047L232.318 17.6609H222.491L217.629 38.8106H214.229L219.091 17.6609H209.332L209.978 14.8047H232.998Z" fill="#FFD600"/>
<path d="M181.786 14.8047H197.087C199.127 14.8047 201.031 14.9067 202.629 15.8928C204.193 16.8108 205.044 18.511 205.044 20.5852C205.044 22.3193 204.465 24.0534 203.547 25.2775C201.813 27.5897 198.855 28.2018 195.863 28.3718L202.357 38.8106H198.379L192.259 28.5418H182.092L179.678 38.8106H176.243L181.786 14.8047ZM184.608 17.7289L182.704 25.5836H193.823C197.223 25.5836 198.617 25.3795 199.773 24.6995C200.929 24.0534 201.643 22.6253 201.643 21.0272C201.643 19.9391 201.269 19.055 200.589 18.511C199.875 17.9669 198.617 17.7289 196.305 17.7289H184.608Z" fill="#FFD600"/>
</svg>
