<svg width="378" height="53" viewBox="0 0 378 53" fill="none" xmlns="http://www.w3.org/2000/svg">
<path d="M127.834 22.1789L121.994 33.3789H120.154L121.418 30.9949L116.426 22.1789H118.378L122.33 29.3629L126.01 22.1789H127.834ZM128.998 30.8509C129.137 31.3202 129.393 31.6669 129.766 31.8909C130.15 32.1149 130.651 32.2269 131.27 32.2269C131.846 32.2269 132.31 32.1256 132.662 31.9229C133.014 31.7096 133.19 31.4376 133.19 31.1069C133.19 30.8189 133.062 30.5736 132.806 30.3709C132.55 30.1576 132.113 30.0509 131.494 30.0509H130.102V28.7389H131.43C131.985 28.7389 132.379 28.6376 132.614 28.4349C132.859 28.2322 132.982 27.9869 132.982 27.6989C132.982 27.3362 132.817 27.0482 132.486 26.8349C132.166 26.6216 131.723 26.5149 131.158 26.5149C130.614 26.5149 130.161 26.6162 129.798 26.8189C129.446 27.0216 129.217 27.3416 129.11 27.7789H127.606C127.745 26.9789 128.145 26.3549 128.806 25.9069C129.467 25.4482 130.251 25.2189 131.158 25.2189C132.161 25.2189 132.971 25.4376 133.59 25.8749C134.209 26.3016 134.518 26.8669 134.518 27.5709C134.518 27.9229 134.422 28.2536 134.23 28.5629C134.038 28.8616 133.75 29.1016 133.366 29.2829C134.251 29.6349 134.694 30.2376 134.694 31.0909C134.694 31.8269 134.374 32.4189 133.734 32.8669C133.105 33.3149 132.246 33.5389 131.158 33.5389C130.177 33.5389 129.345 33.2989 128.662 32.8189C127.979 32.3389 127.585 31.6829 127.478 30.8509H128.998ZM143.699 25.3789V33.3789H142.179V30.0989H138.019V33.3789H136.499V25.3789H138.019V28.6589H142.179V25.3789H143.699ZM153.544 25.3789V33.3789H152.024V32.1789C151.694 32.6056 151.294 32.9416 150.824 33.1869C150.355 33.4216 149.854 33.5389 149.32 33.5389C148.616 33.5389 147.976 33.3629 147.4 33.0109C146.824 32.6482 146.371 32.1522 146.04 31.5229C145.71 30.8936 145.544 30.1789 145.544 29.3789C145.544 28.5789 145.71 27.8642 146.04 27.2349C146.371 26.6056 146.824 26.1149 147.4 25.7629C147.976 25.4002 148.616 25.2189 149.32 25.2189C149.875 25.2189 150.392 25.3469 150.872 25.6029C151.352 25.8589 151.763 26.2162 152.104 26.6749V25.3789H153.544ZM149.576 32.1309C150.046 32.1309 150.472 32.0136 150.856 31.7789C151.24 31.5442 151.539 31.2189 151.752 30.8029C151.966 30.3762 152.072 29.9016 152.072 29.3789C152.072 28.8562 151.966 28.3869 151.752 27.9709C151.539 27.5442 151.24 27.2136 150.856 26.9789C150.472 26.7442 150.046 26.6269 149.576 26.6269C149.107 26.6269 148.686 26.7442 148.312 26.9789C147.939 27.2136 147.646 27.5442 147.432 27.9709C147.219 28.3869 147.112 28.8562 147.112 29.3789C147.112 29.9016 147.219 30.3762 147.432 30.8029C147.646 31.2189 147.939 31.5442 148.312 31.7789C148.686 32.0136 149.107 32.1309 149.576 32.1309ZM162.188 26.8189H159.388V33.3789H157.868V26.8189H155.068V25.3789H162.188V26.8189ZM167.654 28.5469C168.497 28.5469 169.153 28.7762 169.622 29.2349C170.102 29.6829 170.342 30.2589 170.342 30.9629C170.342 31.6669 170.102 32.2482 169.622 32.7069C169.153 33.1549 168.497 33.3789 167.654 33.3789H163.702V25.3789H165.222V28.5469H167.654ZM167.446 32.0509C167.883 32.0509 168.214 31.9602 168.438 31.7789C168.662 31.5976 168.774 31.3256 168.774 30.9629C168.774 30.6002 168.662 30.3282 168.438 30.1469C168.214 29.9656 167.883 29.8749 167.446 29.8749H165.222V32.0509H167.446ZM183.793 33.3789H182.273V26.8189H178.113V33.3789H176.593V25.3789H183.793V33.3789ZM189.894 33.5389C189.105 33.5389 188.385 33.3576 187.734 32.9949C187.083 32.6216 186.571 32.1202 186.198 31.4909C185.825 30.8509 185.638 30.1469 185.638 29.3789C185.638 28.6109 185.825 27.9122 186.198 27.2829C186.571 26.6429 187.083 26.1416 187.734 25.7789C188.385 25.4056 189.105 25.2189 189.894 25.2189C190.673 25.2189 191.382 25.4056 192.022 25.7789C192.673 26.1416 193.185 26.6429 193.558 27.2829C193.931 27.9122 194.118 28.6109 194.118 29.3789C194.118 30.1469 193.931 30.8509 193.558 31.4909C193.185 32.1202 192.673 32.6216 192.022 32.9949C191.382 33.3576 190.673 33.5389 189.894 33.5389ZM189.894 32.1309C190.385 32.1309 190.833 32.0136 191.238 31.7789C191.643 31.5336 191.963 31.2029 192.198 30.7869C192.433 30.3602 192.55 29.8909 192.55 29.3789C192.55 28.8669 192.433 28.4029 192.198 27.9869C191.963 27.5602 191.643 27.2296 191.238 26.9949C190.833 26.7496 190.385 26.6269 189.894 26.6269C189.393 26.6269 188.934 26.7496 188.518 26.9949C188.113 27.2296 187.793 27.5602 187.558 27.9869C187.323 28.4029 187.206 28.8669 187.206 29.3789C187.206 29.8909 187.323 30.3602 187.558 30.7869C187.793 31.2029 188.113 31.5336 188.518 31.7789C188.934 32.0136 189.393 32.1309 189.894 32.1309ZM203.892 31.9389V35.1389H202.42V33.3789H196.308V35.1389H194.836V31.9389H195.86C196.084 31.2989 196.196 30.0722 196.196 28.2589V25.3789H202.772V31.9389H203.892ZM201.252 31.9709V26.7869H197.716V28.2109C197.716 29.8109 197.593 31.0642 197.348 31.9709H201.252ZM209.723 25.2189C210.427 25.2189 211.067 25.4002 211.643 25.7629C212.219 26.1149 212.672 26.6056 213.003 27.2349C213.333 27.8642 213.499 28.5789 213.499 29.3789C213.499 30.1789 213.333 30.8936 213.003 31.5229C212.672 32.1522 212.219 32.6482 211.643 33.0109C211.067 33.3629 210.427 33.5389 209.723 33.5389C209.189 33.5389 208.688 33.4216 208.219 33.1869C207.749 32.9416 207.349 32.6056 207.019 32.1789V36.0989H205.499V25.3789H206.939V26.6749C207.28 26.2162 207.691 25.8589 208.171 25.6029C208.651 25.3469 209.168 25.2189 209.723 25.2189ZM209.467 32.1309C209.936 32.1309 210.357 32.0136 210.731 31.7789C211.104 31.5442 211.397 31.2189 211.611 30.8029C211.824 30.3762 211.931 29.9016 211.931 29.3789C211.931 28.8562 211.824 28.3869 211.611 27.9709C211.397 27.5442 211.104 27.2136 210.731 26.9789C210.357 26.7442 209.936 26.6269 209.467 26.6269C208.997 26.6269 208.571 26.7442 208.187 26.9789C207.803 27.2136 207.504 27.5442 207.291 27.9709C207.077 28.3869 206.971 28.8562 206.971 29.3789C206.971 29.9016 207.077 30.3762 207.291 30.8029C207.504 31.2189 207.803 31.5442 208.187 31.7789C208.571 32.0136 208.997 32.1309 209.467 32.1309ZM218.957 33.5389C218.167 33.5389 217.447 33.3576 216.797 32.9949C216.146 32.6216 215.634 32.1202 215.261 31.4909C214.887 30.8509 214.701 30.1469 214.701 29.3789C214.701 28.6109 214.887 27.9122 215.261 27.2829C215.634 26.6429 216.146 26.1416 216.797 25.7789C217.447 25.4056 218.167 25.2189 218.957 25.2189C219.735 25.2189 220.445 25.4056 221.085 25.7789C221.735 26.1416 222.247 26.6429 222.621 27.2829C222.994 27.9122 223.181 28.6109 223.181 29.3789C223.181 30.1469 222.994 30.8509 222.621 31.4909C222.247 32.1202 221.735 32.6216 221.085 32.9949C220.445 33.3576 219.735 33.5389 218.957 33.5389ZM218.957 32.1309C219.447 32.1309 219.895 32.0136 220.301 31.7789C220.706 31.5336 221.026 31.2029 221.261 30.7869C221.495 30.3602 221.613 29.8909 221.613 29.3789C221.613 28.8669 221.495 28.4029 221.261 27.9869C221.026 27.5602 220.706 27.2296 220.301 26.9949C219.895 26.7496 219.447 26.6269 218.957 26.6269C218.455 26.6269 217.997 26.7496 217.581 26.9949C217.175 27.2296 216.855 27.5602 216.621 27.9869C216.386 28.4029 216.269 28.8669 216.269 29.3789C216.269 29.8909 216.386 30.3602 216.621 30.7869C216.855 31.2029 217.175 31.5336 217.581 31.7789C217.997 32.0136 218.455 32.1309 218.957 32.1309ZM228.822 25.6189C229.548 25.6189 230.214 25.7949 230.822 26.1469C231.43 26.4882 231.905 26.9576 232.246 27.5549C232.598 28.1522 232.774 28.8136 232.774 29.5389C232.774 30.2749 232.593 30.9522 232.23 31.5709C231.878 32.1789 231.388 32.6589 230.758 33.0109C230.14 33.3629 229.457 33.5389 228.71 33.5389C227.953 33.5389 227.26 33.3629 226.63 33.0109C226.012 32.6482 225.521 32.1469 225.158 31.5069C224.796 30.8669 224.614 30.1416 224.614 29.3309V26.2589C224.614 25.2562 224.865 24.5042 225.366 24.0029C225.878 23.4909 226.598 23.1762 227.526 23.0589L230.39 22.6909C230.657 22.6589 230.79 22.5256 230.79 22.2909V22.0989H232.326V22.4829C232.326 22.9202 232.188 23.2722 231.91 23.5389C231.644 23.7949 231.329 23.9442 230.966 23.9869L227.67 24.4189C227.073 24.4936 226.63 24.6589 226.342 24.9149C226.065 25.1602 225.926 25.5496 225.926 26.0829V27.2029C226.257 26.7016 226.673 26.3122 227.174 26.0349C227.686 25.7576 228.236 25.6189 228.822 25.6189ZM228.662 32.1309C229.132 32.1309 229.558 32.0189 229.942 31.7949C230.337 31.5602 230.646 31.2456 230.87 30.8509C231.094 30.4562 231.206 30.0189 231.206 29.5389C231.206 29.0589 231.094 28.6216 230.87 28.2269C230.646 27.8322 230.337 27.5229 229.942 27.2989C229.558 27.0642 229.132 26.9469 228.662 26.9469C228.182 26.9469 227.745 27.0642 227.35 27.2989C226.956 27.5229 226.646 27.8322 226.422 28.2269C226.198 28.6216 226.086 29.0589 226.086 29.5389C226.086 30.0189 226.198 30.4562 226.422 30.8509C226.646 31.2456 226.956 31.5602 227.35 31.7949C227.745 32.0189 228.182 32.1309 228.662 32.1309ZM241.808 25.3789V33.3789H240.288V30.0989H236.128V33.3789H234.608V25.3789H236.128V28.6589H240.288V25.3789H241.808ZM247.75 25.2189C248.571 25.2189 249.286 25.3949 249.894 25.7469C250.512 26.0989 250.987 26.6002 251.318 27.2509C251.648 27.8909 251.814 28.6429 251.814 29.5069C251.814 29.7309 251.808 29.8962 251.798 30.0029H245.238C245.344 30.6216 245.632 31.1336 246.102 31.5389C246.582 31.9336 247.136 32.1309 247.766 32.1309C248.8 32.1309 249.536 31.7522 249.974 30.9949H251.542C251.286 31.7416 250.811 32.3549 250.118 32.8349C249.424 33.3042 248.64 33.5389 247.766 33.5389C246.987 33.5389 246.283 33.3629 245.654 33.0109C245.024 32.6482 244.534 32.1522 244.182 31.5229C243.83 30.8829 243.654 30.1682 243.654 29.3789C243.654 28.5896 243.83 27.8802 244.182 27.2509C244.534 26.6109 245.019 26.1149 245.638 25.7629C246.267 25.4002 246.971 25.2189 247.75 25.2189ZM247.718 26.5629C247.088 26.5629 246.544 26.7602 246.086 27.1549C245.638 27.5496 245.36 28.0562 245.254 28.6749H250.166C250.102 28.0349 249.84 27.5229 249.382 27.1389C248.934 26.7549 248.379 26.5629 247.718 26.5629ZM257.109 25.2189C257.93 25.2189 258.645 25.3949 259.253 25.7469C259.872 26.0989 260.346 26.6002 260.677 27.2509C261.008 27.8909 261.173 28.6429 261.173 29.5069C261.173 29.7309 261.168 29.8962 261.157 30.0029H254.597C254.704 30.6216 254.992 31.1336 255.461 31.5389C255.941 31.9336 256.496 32.1309 257.125 32.1309C258.16 32.1309 258.896 31.7522 259.333 30.9949H260.901C260.645 31.7416 260.17 32.3549 259.477 32.8349C258.784 33.3042 258 33.5389 257.125 33.5389C256.346 33.5389 255.642 33.3629 255.013 33.0109C254.384 32.6482 253.893 32.1522 253.541 31.5229C253.189 30.8829 253.013 30.1682 253.013 29.3789C253.013 28.5896 253.189 27.8802 253.541 27.2509C253.893 26.6109 254.378 26.1149 254.997 25.7629C255.626 25.4002 256.33 25.2189 257.109 25.2189ZM257.077 26.5629C256.448 26.5629 255.904 26.7602 255.445 27.1549C254.997 27.5496 254.72 28.0562 254.613 28.6749H259.525C259.461 28.0349 259.2 27.5229 258.741 27.1389C258.293 26.7549 257.738 26.5629 257.077 26.5629Z" fill="#FFD600"/>
<rect x="1" y="1.87891" width="376" height="50" rx="14" stroke="#FFD600" stroke-width="2"/>
</svg>
