<svg width="477" height="144" viewBox="0 0 477 144" fill="none" xmlns="http://www.w3.org/2000/svg">
<path d="M13.5936 9.73971C14.4299 10.1834 15.0613 10.7552 15.488 11.4549C15.9147 12.1376 16.128 12.9226 16.128 13.8101C16.128 14.7829 15.8976 15.6533 15.4368 16.4213C14.9931 17.1722 14.336 17.7696 13.4656 18.2133C12.5952 18.657 11.5541 18.8789 10.3424 18.8789H2.304V0.958905H10.3168C11.4773 0.958905 12.4757 1.17224 13.312 1.59891C14.1483 2.02557 14.7797 2.60584 15.2064 3.3397C15.6501 4.07357 15.872 4.90131 15.872 5.8229C15.872 6.67624 15.6843 7.43571 15.3088 8.10131C14.9333 8.76691 14.3616 9.31304 13.5936 9.73971ZM10.1888 8.79251C11.2128 8.79251 11.9808 8.55357 12.4928 8.07571C13.0219 7.58077 13.2864 6.87251 13.2864 5.95091C13.2864 4.19304 12.2539 3.3141 10.1888 3.3141H4.864V8.79251H10.1888ZM10.2144 16.5237C11.2725 16.5237 12.0747 16.2848 12.6208 15.8069C13.1669 15.329 13.44 14.6293 13.44 13.7077C13.44 12.8202 13.1669 12.1546 12.6208 11.7109C12.0747 11.2501 11.2725 11.0197 10.2144 11.0197H4.864V16.5237H10.2144ZM37.25 6.07891V18.8789H34.818V13.6309H28.162V18.8789H25.73V6.07891H28.162V11.3269H34.818V6.07891H37.25ZM52.619 6.07891V18.8789H50.187V16.9589C49.6579 17.6416 49.0179 18.1792 48.267 18.5717C47.5161 18.9472 46.7139 19.1349 45.8606 19.1349C44.7342 19.1349 43.7102 18.8533 42.7886 18.2901C41.867 17.7098 41.1417 16.9162 40.6126 15.9093C40.0835 14.9024 39.819 13.7589 39.819 12.4789C39.819 11.1989 40.0835 10.0554 40.6126 9.04851C41.1417 8.04157 41.867 7.25651 42.7886 6.69331C43.7102 6.11304 44.7342 5.8229 45.8606 5.8229C46.7481 5.8229 47.5758 6.0277 48.3438 6.43731C49.1118 6.84691 49.7689 7.41864 50.315 8.15251V6.07891H52.619ZM46.2702 16.8821C47.0211 16.8821 47.7038 16.6944 48.3182 16.3189C48.9326 15.9434 49.4105 15.4229 49.7518 14.7573C50.0931 14.0746 50.2638 13.3152 50.2638 12.4789C50.2638 11.6426 50.0931 10.8917 49.7518 10.2261C49.4105 9.54344 48.9326 9.01437 48.3182 8.63891C47.7038 8.26344 47.0211 8.07571 46.2702 8.07571C45.5193 8.07571 44.8451 8.26344 44.2478 8.63891C43.6505 9.01437 43.1811 9.54344 42.8398 10.2261C42.4985 10.8917 42.3278 11.6426 42.3278 12.4789C42.3278 13.3152 42.4985 14.0746 42.8398 14.7573C43.1811 15.4229 43.6505 15.9434 44.2478 16.3189C44.8451 16.6944 45.5193 16.8821 46.2702 16.8821ZM66.321 6.07891V18.8789H63.889V13.9125H59.793C58.4789 13.9125 57.4463 13.5285 56.6954 12.7605C55.9445 11.9925 55.569 11.0112 55.569 9.81651V6.07891H58.001V9.73971C58.001 10.4053 58.1717 10.9002 58.513 11.2245C58.8714 11.5488 59.4261 11.7109 60.177 11.7109H63.889V6.07891H66.321ZM81.676 6.07891V18.8789H79.244V16.9589C78.7149 17.6416 78.0749 18.1792 77.324 18.5717C76.5731 18.9472 75.7709 19.1349 74.9176 19.1349C73.7912 19.1349 72.7672 18.8533 71.8456 18.2901C70.924 17.7098 70.1987 16.9162 69.6696 15.9093C69.1405 14.9024 68.876 13.7589 68.876 12.4789C68.876 11.1989 69.1405 10.0554 69.6696 9.04851C70.1987 8.04157 70.924 7.25651 71.8456 6.69331C72.7672 6.11304 73.7912 5.8229 74.9176 5.8229C75.8051 5.8229 76.6328 6.0277 77.4008 6.43731C78.1688 6.84691 78.8259 7.41864 79.372 8.15251V6.07891H81.676ZM75.3272 16.8821C76.0781 16.8821 76.7608 16.6944 77.3752 16.3189C77.9896 15.9434 78.4675 15.4229 78.8088 14.7573C79.1501 14.0746 79.3208 13.3152 79.3208 12.4789C79.3208 11.6426 79.1501 10.8917 78.8088 10.2261C78.4675 9.54344 77.9896 9.01437 77.3752 8.63891C76.7608 8.26344 76.0781 8.07571 75.3272 8.07571C74.5763 8.07571 73.9021 8.26344 73.3048 8.63891C72.7075 9.01437 72.2381 9.54344 71.8968 10.2261C71.5555 10.8917 71.3848 11.6426 71.3848 12.4789C71.3848 13.3152 71.5555 14.0746 71.8968 14.7573C72.2381 15.4229 72.7075 15.9434 73.3048 16.3189C73.9021 16.6944 74.5763 16.8821 75.3272 16.8821ZM96.8116 18.9045H94.3796V8.38291H88.9012V10.7125C88.9012 12.5386 88.7988 14.032 88.594 15.1925C88.4063 16.353 88.0052 17.2832 87.3908 17.9829C86.7764 18.6656 85.8633 19.0069 84.6516 19.0069C84.3273 19.0069 83.9775 18.9642 83.602 18.8789V16.6261C83.9092 16.6773 84.1823 16.7029 84.4212 16.7029C84.9673 16.7029 85.3769 16.5322 85.65 16.1909C85.9401 15.8496 86.1449 15.2437 86.2644 14.3733C86.3839 13.4858 86.4436 12.1888 86.4436 10.4821V6.07891H96.8116V18.9045ZM105.937 5.8229C107.251 5.8229 108.394 6.1045 109.367 6.66771C110.357 7.23091 111.116 8.03304 111.645 9.07411C112.174 10.0981 112.439 11.3013 112.439 12.6837C112.439 13.0421 112.43 13.3066 112.413 13.4773H101.917C102.088 14.4672 102.549 15.2864 103.3 15.9349C104.068 16.5664 104.955 16.8821 105.962 16.8821C107.618 16.8821 108.795 16.2762 109.495 15.0645H112.004C111.594 16.2592 110.835 17.2405 109.725 18.0085C108.616 18.7594 107.362 19.1349 105.962 19.1349C104.716 19.1349 103.59 18.8533 102.583 18.2901C101.576 17.7098 100.791 16.9162 100.228 15.9093C99.6646 14.8853 99.383 13.7418 99.383 12.4789C99.383 11.216 99.6646 10.081 100.228 9.07411C100.791 8.05011 101.568 7.25651 102.557 6.69331C103.564 6.11304 104.691 5.8229 105.937 5.8229ZM105.885 7.97331C104.878 7.97331 104.008 8.28904 103.274 8.92051C102.557 9.55197 102.114 10.3626 101.943 11.3525H109.802C109.7 10.3285 109.282 9.50931 108.548 8.89491C107.831 8.28051 106.944 7.97331 105.885 7.97331ZM134.413 16.4725V18.8789H120.742L120.666 16.7029L128.525 10.5845C129.583 9.76531 130.368 9.00584 130.88 8.30611C131.409 7.60637 131.674 6.83837 131.674 6.00211C131.674 5.11464 131.315 4.39784 130.598 3.85171C129.899 3.30557 129.011 3.03251 127.936 3.03251C126.81 3.03251 125.845 3.30557 125.043 3.85171C124.258 4.38077 123.763 5.29384 123.558 6.59091H120.896C120.998 5.39624 121.374 4.35517 122.022 3.4677C122.688 2.56317 123.533 1.88051 124.557 1.4197C125.598 0.941838 126.724 0.702905 127.936 0.702905C129.25 0.702905 130.385 0.924772 131.341 1.36851C132.297 1.79517 133.022 2.39251 133.517 3.16051C134.012 3.91144 134.259 4.77331 134.259 5.74611C134.259 6.68477 134.063 7.53811 133.67 8.30611C133.278 9.07411 132.715 9.80797 131.981 10.5077C131.264 11.1904 130.274 12.0181 129.011 12.9909L124.48 16.4725H134.413ZM143.895 19.1349C142.359 19.1349 141.011 18.7594 139.85 18.0085C138.69 17.2405 137.794 16.1653 137.162 14.7829C136.531 13.3834 136.215 11.7621 136.215 9.91891C136.215 8.07571 136.531 6.46291 137.162 5.08051C137.794 3.68104 138.69 2.60584 139.85 1.85491C141.011 1.08691 142.359 0.702905 143.895 0.702905C145.431 0.702905 146.779 1.08691 147.94 1.85491C149.1 2.60584 149.996 3.68104 150.628 5.08051C151.259 6.46291 151.575 8.07571 151.575 9.91891C151.575 11.7621 151.259 13.3834 150.628 14.7829C149.996 16.1653 149.1 17.2405 147.94 18.0085C146.779 18.7594 145.431 19.1349 143.895 19.1349ZM143.895 16.7541C145.482 16.7541 146.728 16.1482 147.633 14.9365C148.554 13.7248 149.015 12.0522 149.015 9.91891C149.015 7.78557 148.554 6.11304 147.633 4.90131C146.728 3.68957 145.482 3.0837 143.895 3.0837C142.308 3.0837 141.053 3.68957 140.132 4.90131C139.227 6.11304 138.775 7.78557 138.775 9.91891C138.775 12.0522 139.227 13.7248 140.132 14.9365C141.053 16.1482 142.308 16.7541 143.895 16.7541ZM161.436 19.1349C159.9 19.1349 158.552 18.7594 157.391 18.0085C156.231 17.2405 155.335 16.1653 154.703 14.7829C154.072 13.3834 153.756 11.7621 153.756 9.91891C153.756 8.07571 154.072 6.46291 154.703 5.08051C155.335 3.68104 156.231 2.60584 157.391 1.85491C158.552 1.08691 159.9 0.702905 161.436 0.702905C162.972 0.702905 164.32 1.08691 165.481 1.85491C166.641 2.60584 167.537 3.68104 168.169 5.08051C168.8 6.46291 169.116 8.07571 169.116 9.91891C169.116 11.7621 168.8 13.3834 168.169 14.7829C167.537 16.1653 166.641 17.2405 165.481 18.0085C164.32 18.7594 162.972 19.1349 161.436 19.1349ZM161.436 16.7541C163.023 16.7541 164.269 16.1482 165.174 14.9365C166.095 13.7248 166.556 12.0522 166.556 9.91891C166.556 7.78557 166.095 6.11304 165.174 4.90131C164.269 3.68957 163.023 3.0837 161.436 3.0837C159.849 3.0837 158.594 3.68957 157.673 4.90131C156.768 6.11304 156.316 7.78557 156.316 9.91891C156.316 12.0522 156.768 13.7248 157.673 14.9365C158.594 16.1482 159.849 16.7541 161.436 16.7541ZM178.977 19.1349C177.441 19.1349 176.093 18.7594 174.932 18.0085C173.772 17.2405 172.876 16.1653 172.244 14.7829C171.613 13.3834 171.297 11.7621 171.297 9.91891C171.297 8.07571 171.613 6.46291 172.244 5.08051C172.876 3.68104 173.772 2.60584 174.932 1.85491C176.093 1.08691 177.441 0.702905 178.977 0.702905C180.513 0.702905 181.861 1.08691 183.022 1.85491C184.182 2.60584 185.078 3.68104 185.71 5.08051C186.341 6.46291 186.657 8.07571 186.657 9.91891C186.657 11.7621 186.341 13.3834 185.71 14.7829C185.078 16.1653 184.182 17.2405 183.022 18.0085C181.861 18.7594 180.513 19.1349 178.977 19.1349ZM178.977 16.7541C180.564 16.7541 181.81 16.1482 182.715 14.9365C183.636 13.7248 184.097 12.0522 184.097 9.91891C184.097 7.78557 183.636 6.11304 182.715 4.90131C181.81 3.68957 180.564 3.0837 178.977 3.0837C177.39 3.0837 176.135 3.68957 175.214 4.90131C174.309 6.11304 173.857 7.78557 173.857 9.91891C173.857 12.0522 174.309 13.7248 175.214 14.9365C176.135 16.1482 177.39 16.7541 178.977 16.7541ZM196.774 10.0469V12.3509H189.35V10.0469H196.774ZM208.574 18.8789L204.862 14.0405L201.124 18.8789H198.18L203.3 12.3765L198.385 6.07891H201.406L204.913 10.6613L208.343 6.07891H211.364L206.474 12.2997L211.594 18.8789H208.574ZM229.264 8.38291H222.736V18.8789H220.304V6.07891H229.264V8.38291ZM236.478 19.1349C235.215 19.1349 234.063 18.8448 233.022 18.2645C231.981 17.6672 231.161 16.865 230.564 15.8581C229.967 14.8341 229.668 13.7077 229.668 12.4789C229.668 11.2501 229.967 10.1322 230.564 9.12531C231.161 8.10131 231.981 7.29917 233.022 6.71891C234.063 6.12157 235.215 5.8229 236.478 5.8229C237.723 5.8229 238.858 6.12157 239.882 6.71891C240.923 7.29917 241.743 8.10131 242.34 9.12531C242.937 10.1322 243.236 11.2501 243.236 12.4789C243.236 13.7077 242.937 14.8341 242.34 15.8581C241.743 16.865 240.923 17.6672 239.882 18.2645C238.858 18.8448 237.723 19.1349 236.478 19.1349ZM236.478 16.8821C237.263 16.8821 237.979 16.6944 238.628 16.3189C239.277 15.9264 239.789 15.3973 240.164 14.7317C240.539 14.049 240.727 13.2981 240.727 12.4789C240.727 11.6597 240.539 10.9173 240.164 10.2517C239.789 9.56904 239.277 9.03997 238.628 8.66451C237.979 8.27197 237.263 8.07571 236.478 8.07571C235.675 8.07571 234.942 8.27197 234.276 8.66451C233.627 9.03997 233.115 9.56904 232.74 10.2517C232.365 10.9173 232.177 11.6597 232.177 12.4789C232.177 13.2981 232.365 14.049 232.74 14.7317C233.115 15.3973 233.627 15.9264 234.276 16.3189C234.942 16.6944 235.675 16.8821 236.478 16.8821ZM258.49 16.5749V21.6949H256.134V18.8789H246.355V21.6949H244V16.5749H245.638C245.997 15.5509 246.176 13.5882 246.176 10.6869V6.07891H256.698V16.5749H258.49ZM254.266 16.6261V8.33171H248.608V10.6101C248.608 13.1701 248.412 15.1754 248.019 16.6261H254.266ZM266.085 19.1349C264.822 19.1349 263.67 18.8448 262.629 18.2645C261.588 17.6672 260.768 16.865 260.171 15.8581C259.574 14.8341 259.275 13.7077 259.275 12.4789C259.275 11.2501 259.574 10.1322 260.171 9.12531C260.768 8.10131 261.588 7.29917 262.629 6.71891C263.67 6.12157 264.822 5.8229 266.085 5.8229C267.33 5.8229 268.465 6.12157 269.489 6.71891C270.53 7.29917 271.35 8.10131 271.947 9.12531C272.544 10.1322 272.843 11.2501 272.843 12.4789C272.843 13.7077 272.544 14.8341 271.947 15.8581C271.35 16.865 270.53 17.6672 269.489 18.2645C268.465 18.8448 267.33 19.1349 266.085 19.1349ZM266.085 16.8821C266.87 16.8821 267.586 16.6944 268.235 16.3189C268.884 15.9264 269.396 15.3973 269.771 14.7317C270.146 14.049 270.334 13.2981 270.334 12.4789C270.334 11.6597 270.146 10.9173 269.771 10.2517C269.396 9.56904 268.884 9.03997 268.235 8.66451C267.586 8.27197 266.87 8.07571 266.085 8.07571C265.282 8.07571 264.549 8.27197 263.883 8.66451C263.234 9.03997 262.722 9.56904 262.347 10.2517C261.972 10.9173 261.784 11.6597 261.784 12.4789C261.784 13.2981 261.972 14.049 262.347 14.7317C262.722 15.3973 263.234 15.9264 263.883 16.3189C264.549 16.6944 265.282 16.8821 266.085 16.8821ZM284.251 12.3509C285.514 12.9824 286.145 13.9552 286.145 15.2693C286.145 16.3274 285.761 17.1978 284.993 17.8805C284.225 18.5461 283.167 18.8789 281.819 18.8789H275.393V6.07891H281.819C283.099 6.07891 284.106 6.41171 284.839 7.07731C285.59 7.72584 285.966 8.55357 285.966 9.56051C285.966 10.1578 285.821 10.704 285.531 11.1989C285.258 11.6768 284.831 12.0608 284.251 12.3509ZM281.537 11.4037C282.168 11.4037 282.646 11.2586 282.971 10.9685C283.295 10.6784 283.457 10.2517 283.457 9.68851C283.457 8.64744 282.817 8.12691 281.537 8.12691H277.774V11.4037H281.537ZM281.563 16.8309C282.245 16.8309 282.757 16.6858 283.099 16.3957C283.457 16.0885 283.636 15.6533 283.636 15.0901C283.636 14.561 283.457 14.16 283.099 13.8869C282.757 13.5968 282.245 13.4517 281.563 13.4517H277.774V16.8309H281.563ZM311.497 18.8789H309.065V9.02291L303.561 18.8789L298.057 9.07411V18.8789H295.625V6.07891H298.953L303.612 14.4501L308.22 6.07891H311.497V18.8789ZM321.539 11.1477C322.887 11.1477 323.937 11.5146 324.688 12.2485C325.456 12.9653 325.84 13.8869 325.84 15.0133C325.84 16.1397 325.456 17.0698 324.688 17.8037C323.937 18.5205 322.887 18.8789 321.539 18.8789H315.216V6.07891H317.648V11.1477H321.539ZM321.206 16.7541C321.906 16.7541 322.435 16.609 322.794 16.3189C323.152 16.0288 323.331 15.5936 323.331 15.0133C323.331 14.433 323.152 13.9978 322.794 13.7077C322.435 13.4176 321.906 13.2725 321.206 13.2725H317.648V16.7541H321.206ZM330.576 6.07891V18.8789H328.144V6.07891H330.576ZM336.586 16.0629L335.818 21.9509H334.026V16.0629H336.586ZM355.799 8.38291H349.271V18.8789H346.839V6.07891H355.799V8.38291ZM364.613 5.8229C365.74 5.8229 366.764 6.11304 367.685 6.69331C368.607 7.25651 369.332 8.04157 369.861 9.04851C370.39 10.0554 370.655 11.1989 370.655 12.4789C370.655 13.7589 370.39 14.9024 369.861 15.9093C369.332 16.9162 368.607 17.7098 367.685 18.2901C366.764 18.8533 365.74 19.1349 364.613 19.1349C363.76 19.1349 362.958 18.9472 362.207 18.5717C361.456 18.1792 360.816 17.6416 360.287 16.9589V23.2309H357.855V6.07891H360.159V8.15251C360.705 7.41864 361.362 6.84691 362.13 6.43731C362.898 6.0277 363.726 5.8229 364.613 5.8229ZM364.204 16.8821C364.955 16.8821 365.629 16.6944 366.226 16.3189C366.824 15.9434 367.293 15.4229 367.634 14.7573C367.976 14.0746 368.146 13.3152 368.146 12.4789C368.146 11.6426 367.976 10.8917 367.634 10.2261C367.293 9.54344 366.824 9.01437 366.226 8.63891C365.629 8.26344 364.955 8.07571 364.204 8.07571C363.453 8.07571 362.77 8.26344 362.156 8.63891C361.541 9.01437 361.064 9.54344 360.722 10.2261C360.381 10.8917 360.21 11.6426 360.21 12.4789C360.21 13.3152 360.381 14.0746 360.722 14.7573C361.064 15.4229 361.541 15.9434 362.156 16.3189C362.77 16.6944 363.453 16.8821 364.204 16.8821ZM385.291 6.07891L377.79 23.2309H375.153L377.175 18.6485L370.929 6.07891H373.822L378.455 16.0629L382.603 6.07891H385.291ZM398.732 18.8789H396.3V8.38291H389.644V18.8789H387.212V6.07891H398.732V18.8789ZM413.973 18.8789H411.541V8.38291H404.885V18.8789H402.453V6.07891H413.973V18.8789ZM429.342 6.07891V18.8789H426.91V16.9589C426.381 17.6416 425.741 18.1792 424.99 18.5717C424.239 18.9472 423.437 19.1349 422.584 19.1349C421.457 19.1349 420.433 18.8533 419.512 18.2901C418.59 17.7098 417.865 16.9162 417.336 15.9093C416.807 14.9024 416.542 13.7589 416.542 12.4789C416.542 11.1989 416.807 10.0554 417.336 9.04851C417.865 8.04157 418.59 7.25651 419.512 6.69331C420.433 6.11304 421.457 5.8229 422.584 5.8229C423.471 5.8229 424.299 6.0277 425.067 6.43731C425.835 6.84691 426.492 7.41864 427.038 8.15251V6.07891H429.342ZM422.993 16.8821C423.744 16.8821 424.427 16.6944 425.041 16.3189C425.656 15.9434 426.133 15.4229 426.475 14.7573C426.816 14.0746 426.987 13.3152 426.987 12.4789C426.987 11.6426 426.816 10.8917 426.475 10.2261C426.133 9.54344 425.656 9.01437 425.041 8.63891C424.427 8.26344 423.744 8.07571 422.993 8.07571C422.242 8.07571 421.568 8.26344 420.971 8.63891C420.373 9.01437 419.904 9.54344 419.563 10.2261C419.221 10.8917 419.051 11.6426 419.051 12.4789C419.051 13.3152 419.221 14.0746 419.563 14.7573C419.904 15.4229 420.373 15.9434 420.971 16.3189C421.568 16.6944 422.242 16.8821 422.993 16.8821ZM15.0016 46.5749V51.6949H12.6464V48.8789H2.8672V51.6949H0.512V46.5749H2.1504C2.5088 45.5509 2.688 43.5882 2.688 40.6869V36.0789H13.2096V46.5749H15.0016ZM10.7776 46.6261V38.3317H5.12V40.6101C5.12 43.1701 4.92373 45.1754 4.5312 46.6261H10.7776ZM23.9474 35.8229C25.0738 35.8229 26.0978 36.113 27.0194 36.6933C27.941 37.2565 28.6663 38.0416 29.1954 39.0485C29.7245 40.0554 29.989 41.1989 29.989 42.4789C29.989 43.7589 29.7245 44.9024 29.1954 45.9093C28.6663 46.9162 27.941 47.7098 27.0194 48.2901C26.0978 48.8533 25.0738 49.1349 23.9474 49.1349C23.0941 49.1349 22.2919 48.9472 21.541 48.5717C20.7901 48.1792 20.1501 47.6416 19.621 46.9589V53.2309H17.189V36.0789H19.493V38.1525C20.0391 37.4186 20.6962 36.8469 21.4642 36.4373C22.2322 36.0277 23.0599 35.8229 23.9474 35.8229ZM23.5378 46.8821C24.2887 46.8821 24.9629 46.6944 25.5602 46.3189C26.1575 45.9434 26.6269 45.4229 26.9682 44.7573C27.3095 44.0746 27.4802 43.3152 27.4802 42.4789C27.4802 41.6426 27.3095 40.8917 26.9682 40.2261C26.6269 39.5434 26.1575 39.0144 25.5602 38.6389C24.9629 38.2634 24.2887 38.0757 23.5378 38.0757C22.7869 38.0757 22.1042 38.2634 21.4898 38.6389C20.8754 39.0144 20.3975 39.5434 20.0562 40.2261C19.7149 40.8917 19.5442 41.6426 19.5442 42.4789C19.5442 43.3152 19.7149 44.0746 20.0562 44.7573C20.3975 45.4229 20.8754 45.9434 21.4898 46.3189C22.1042 46.6944 22.7869 46.8821 23.5378 46.8821ZM44.6246 36.0789L37.1238 53.2309H34.487L36.5094 48.6485L30.263 36.0789H33.1558L37.7894 46.0629L41.9366 36.0789H44.6246ZM47.07 44.8341C47.2919 45.585 47.7015 46.1397 48.2988 46.4981C48.9132 46.8565 49.7153 47.0357 50.7052 47.0357C51.6268 47.0357 52.3692 46.8736 52.9324 46.5493C53.4956 46.208 53.7772 45.7728 53.7772 45.2437C53.7772 44.7829 53.5724 44.3904 53.1628 44.0661C52.7532 43.7248 52.0535 43.5541 51.0636 43.5541H48.8364V41.4549H50.9612C51.8487 41.4549 52.4801 41.2928 52.8556 40.9685C53.2481 40.6442 53.4444 40.2517 53.4444 39.7909C53.4444 39.2106 53.1799 38.7498 52.6508 38.4085C52.1388 38.0672 51.4305 37.8965 50.526 37.8965C49.6556 37.8965 48.9303 38.0586 48.35 38.3829C47.7868 38.7072 47.4199 39.2192 47.2492 39.9189H44.8428C45.0647 38.6389 45.7047 37.6405 46.7628 36.9237C47.8209 36.1898 49.0753 35.8229 50.526 35.8229C52.1303 35.8229 53.4273 36.1728 54.4172 36.8725C55.4071 37.5552 55.902 38.4597 55.902 39.5861C55.902 40.1493 55.7484 40.6784 55.4412 41.1733C55.134 41.6512 54.6732 42.0352 54.0588 42.3253C55.4753 42.8885 56.1836 43.8528 56.1836 45.2181C56.1836 46.3957 55.6716 47.3429 54.6476 48.0597C53.6407 48.7765 52.2668 49.1349 50.526 49.1349C48.9559 49.1349 47.6247 48.7509 46.5324 47.9829C45.4401 47.2149 44.8087 46.1653 44.638 44.8341H47.07ZM64.0886 35.8229C65.4027 35.8229 66.5462 36.1045 67.519 36.6677C68.5089 37.2309 69.2683 38.033 69.7974 39.0741C70.3265 40.0981 70.591 41.3013 70.591 42.6837C70.591 43.0421 70.5825 43.3066 70.5654 43.4773H60.0694C60.2401 44.4672 60.7009 45.2864 61.4518 45.9349C62.2198 46.5664 63.1073 46.8821 64.1142 46.8821C65.7697 46.8821 66.9473 46.2762 67.647 45.0645H70.1558C69.7462 46.2592 68.9867 47.2405 67.8774 48.0085C66.7681 48.7594 65.5137 49.1349 64.1142 49.1349C62.8683 49.1349 61.7419 48.8533 60.735 48.2901C59.7281 47.7098 58.943 46.9162 58.3798 45.9093C57.8166 44.8853 57.535 43.7418 57.535 42.4789C57.535 41.216 57.8166 40.081 58.3798 39.0741C58.943 38.0501 59.7195 37.2565 60.7094 36.6933C61.7163 36.113 62.8427 35.8229 64.0886 35.8229ZM64.0374 37.9733C63.0305 37.9733 62.1601 38.289 61.4262 38.9205C60.7094 39.552 60.2657 40.3626 60.095 41.3525H67.9542C67.8518 40.3285 67.4337 39.5093 66.6998 38.8949C65.983 38.2805 65.0955 37.9733 64.0374 37.9733ZM73.153 36.0789H75.585V45.6021L82.241 36.0789H84.929V48.8789H82.497V39.3557L75.841 48.8789H73.153V36.0789ZM79.041 34.8245C77.7098 34.8245 76.6175 34.4746 75.7642 33.7749C74.9109 33.0752 74.433 32.1365 74.3306 30.9589H76.4298C76.5151 31.6074 76.7882 32.1194 77.249 32.4949C77.7098 32.8533 78.3071 33.0325 79.041 33.0325C79.7749 33.0325 80.3722 32.8533 80.833 32.4949C81.2938 32.1194 81.5669 31.6074 81.6522 30.9589H83.7514C83.649 32.1365 83.1711 33.0752 82.3178 33.7749C81.4645 34.4746 80.3722 34.8245 79.041 34.8245ZM95.435 36.0789H97.867V45.6021L104.523 36.0789H107.211V48.8789H104.779V39.3557L98.123 48.8789H95.435V36.0789ZM111.95 44.8341C112.172 45.585 112.581 46.1397 113.179 46.4981C113.793 46.8565 114.595 47.0357 115.585 47.0357C116.507 47.0357 117.249 46.8736 117.812 46.5493C118.376 46.208 118.657 45.7728 118.657 45.2437C118.657 44.7829 118.452 44.3904 118.043 44.0661C117.633 43.7248 116.933 43.5541 115.944 43.5541H113.716V41.4549H115.841C116.729 41.4549 117.36 41.2928 117.736 40.9685C118.128 40.6442 118.324 40.2517 118.324 39.7909C118.324 39.2106 118.06 38.7498 117.531 38.4085C117.019 38.0672 116.311 37.8965 115.406 37.8965C114.536 37.8965 113.81 38.0586 113.23 38.3829C112.667 38.7072 112.3 39.2192 112.129 39.9189H109.723C109.945 38.6389 110.585 37.6405 111.643 36.9237C112.701 36.1898 113.955 35.8229 115.406 35.8229C117.01 35.8229 118.307 36.1728 119.297 36.8725C120.287 37.5552 120.782 38.4597 120.782 39.5861C120.782 40.1493 120.628 40.6784 120.321 41.1733C120.014 41.6512 119.553 42.0352 118.939 42.3253C120.355 42.8885 121.064 43.8528 121.064 45.2181C121.064 46.3957 120.552 47.3429 119.528 48.0597C118.521 48.7765 117.147 49.1349 115.406 49.1349C113.836 49.1349 112.505 48.7509 111.412 47.9829C110.32 47.2149 109.689 46.1653 109.518 44.8341H111.95ZM223.633 46.0629L222.865 51.9509H221.073V46.0629H223.633ZM245.406 48.8789H242.974V38.3829H236.318V48.8789H233.886V36.0789H245.406V48.8789ZM255.885 35.8229C257.012 35.8229 258.036 36.113 258.957 36.6933C259.879 37.2565 260.604 38.0416 261.133 39.0485C261.662 40.0554 261.927 41.1989 261.927 42.4789C261.927 43.7589 261.662 44.9024 261.133 45.9093C260.604 46.9162 259.879 47.7098 258.957 48.2901C258.036 48.8533 257.012 49.1349 255.885 49.1349C255.032 49.1349 254.23 48.9472 253.479 48.5717C252.728 48.1792 252.088 47.6416 251.559 46.9589V53.2309H249.127V36.0789H251.431V38.1525C251.977 37.4186 252.634 36.8469 253.402 36.4373C254.17 36.0277 254.998 35.8229 255.885 35.8229ZM255.476 46.8821C256.227 46.8821 256.901 46.6944 257.498 46.3189C258.096 45.9434 258.565 45.4229 258.906 44.7573C259.248 44.0746 259.418 43.3152 259.418 42.4789C259.418 41.6426 259.248 40.8917 258.906 40.2261C258.565 39.5434 258.096 39.0144 257.498 38.6389C256.901 38.2634 256.227 38.0757 255.476 38.0757C254.725 38.0757 254.042 38.2634 253.428 38.6389C252.813 39.0144 252.336 39.5434 251.994 40.2261C251.653 40.8917 251.482 41.6426 251.482 42.4789C251.482 43.3152 251.653 44.0746 251.994 44.7573C252.336 45.4229 252.813 45.9434 253.428 46.3189C254.042 46.6944 254.725 46.8821 255.476 46.8821ZM264.493 36.0789H266.925V45.6021L273.581 36.0789H276.269V48.8789H273.837V39.3557L267.181 48.8789H264.493V36.0789ZM291.504 36.0789V48.8789H289.072V43.6309H282.416V48.8789H279.984V36.0789H282.416V41.3269H289.072V36.0789H291.504ZM305.107 48.8789H302.675V44.0661H300.166L296.223 48.8789H293.305L297.401 43.9125C296.479 43.6736 295.763 43.2128 295.251 42.5301C294.739 41.8304 294.483 41.0112 294.483 40.0725C294.483 38.912 294.858 37.9562 295.609 37.2053C296.377 36.4544 297.435 36.0789 298.783 36.0789H305.107V48.8789ZM302.675 41.9413V38.2549H299.116C298.416 38.2549 297.887 38.417 297.529 38.7413C297.171 39.0485 296.991 39.5008 296.991 40.0981C296.991 40.6954 297.171 41.1562 297.529 41.4805C297.887 41.7877 298.416 41.9413 299.116 41.9413H302.675ZM320.234 48.9045H317.802V38.3829H312.323V40.7125C312.323 42.5386 312.221 44.032 312.016 45.1925C311.828 46.353 311.427 47.2832 310.813 47.9829C310.198 48.6656 309.285 49.0069 308.074 49.0069C307.749 49.0069 307.399 48.9642 307.024 48.8789V46.6261C307.331 46.6773 307.604 46.7029 307.843 46.7029C308.389 46.7029 308.799 46.5322 309.072 46.1909C309.362 45.8496 309.567 45.2437 309.686 44.3733C309.806 43.4858 309.866 42.1888 309.866 40.4821V36.0789H320.234V48.9045ZM323.957 36.0789H326.389V45.6021L333.045 36.0789H335.733V48.8789H333.301V39.3557L326.645 48.8789H323.957V36.0789ZM352.997 35.8229C354.124 35.8229 355.148 36.113 356.069 36.6933C356.991 37.2565 357.716 38.0416 358.245 39.0485C358.774 40.0554 359.039 41.1989 359.039 42.4789C359.039 43.7589 358.774 44.9024 358.245 45.9093C357.716 46.9162 356.991 47.7098 356.069 48.2901C355.148 48.8533 354.124 49.1349 352.997 49.1349C352.144 49.1349 351.342 48.9472 350.591 48.5717C349.84 48.1792 349.2 47.6416 348.671 46.9589V53.2309H346.239V36.0789H348.543V38.1525C349.089 37.4186 349.746 36.8469 350.514 36.4373C351.282 36.0277 352.11 35.8229 352.997 35.8229ZM352.588 46.8821C353.339 46.8821 354.013 46.6944 354.61 46.3189C355.208 45.9434 355.677 45.4229 356.018 44.7573C356.36 44.0746 356.53 43.3152 356.53 42.4789C356.53 41.6426 356.36 40.8917 356.018 40.2261C355.677 39.5434 355.208 39.0144 354.61 38.6389C354.013 38.2634 353.339 38.0757 352.588 38.0757C351.837 38.0757 351.154 38.2634 350.54 38.6389C349.925 39.0144 349.448 39.5434 349.106 40.2261C348.765 40.8917 348.594 41.6426 348.594 42.4789C348.594 43.3152 348.765 44.0746 349.106 44.7573C349.448 45.4229 349.925 45.9434 350.54 46.3189C351.154 46.6944 351.837 46.8821 352.588 46.8821ZM367.132 35.8229C368.446 35.8229 369.589 36.1045 370.562 36.6677C371.552 37.2309 372.311 38.033 372.84 39.0741C373.369 40.0981 373.634 41.3013 373.634 42.6837C373.634 43.0421 373.625 43.3066 373.608 43.4773H363.112C363.283 44.4672 363.744 45.2864 364.495 45.9349C365.263 46.5664 366.15 46.8821 367.157 46.8821C368.813 46.8821 369.99 46.2762 370.69 45.0645H373.199C372.789 46.2592 372.03 47.2405 370.92 48.0085C369.811 48.7594 368.557 49.1349 367.157 49.1349C365.911 49.1349 364.785 48.8533 363.778 48.2901C362.771 47.7098 361.986 46.9162 361.423 45.9093C360.86 44.8853 360.578 43.7418 360.578 42.4789C360.578 41.216 360.86 40.081 361.423 39.0741C361.986 38.0501 362.763 37.2565 363.752 36.6933C364.759 36.113 365.886 35.8229 367.132 35.8229ZM367.08 37.9733C366.073 37.9733 365.203 38.289 364.469 38.9205C363.752 39.552 363.309 40.3626 363.138 41.3525H370.997C370.895 40.3285 370.477 39.5093 369.743 38.8949C369.026 38.2805 368.139 37.9733 367.08 37.9733ZM393.988 36.0789V48.8789H376.196V36.0789H378.628V46.5749H383.876V36.0789H386.308V46.5749H391.556V36.0789H393.988ZM403.114 35.8229C404.428 35.8229 405.571 36.1045 406.544 36.6677C407.534 37.2309 408.293 38.033 408.822 39.0741C409.351 40.0981 409.616 41.3013 409.616 42.6837C409.616 43.0421 409.607 43.3066 409.59 43.4773H399.094C399.265 44.4672 399.726 45.2864 400.477 45.9349C401.245 46.5664 402.132 46.8821 403.139 46.8821C404.795 46.8821 405.972 46.2762 406.672 45.0645H409.181C408.771 46.2592 408.012 47.2405 406.902 48.0085C405.793 48.7594 404.539 49.1349 403.139 49.1349C401.893 49.1349 400.767 48.8533 399.76 48.2901C398.753 47.7098 397.968 46.9162 397.405 45.9093C396.842 44.8853 396.56 43.7418 396.56 42.4789C396.56 41.216 396.842 40.081 397.405 39.0741C397.968 38.0501 398.745 37.2565 399.734 36.6933C400.741 36.113 401.868 35.8229 403.114 35.8229ZM403.062 37.9733C402.055 37.9733 401.185 38.289 400.451 38.9205C399.734 39.552 399.291 40.3626 399.12 41.3525H406.979C406.877 40.3285 406.459 39.5093 405.725 38.8949C405.008 38.2805 404.121 37.9733 403.062 37.9733ZM423.698 36.0789V48.8789H421.266V43.6309H414.61V48.8789H412.178V36.0789H414.61V41.3269H421.266V36.0789H423.698ZM427.419 36.0789H429.851V45.6021L436.507 36.0789H439.195V48.8789H436.763V39.3557L430.107 48.8789H427.419V36.0789ZM448.312 35.8229C449.626 35.8229 450.769 36.1045 451.742 36.6677C452.732 37.2309 453.491 38.033 454.02 39.0741C454.549 40.0981 454.814 41.3013 454.814 42.6837C454.814 43.0421 454.805 43.3066 454.788 43.4773H444.292C444.463 44.4672 444.924 45.2864 445.675 45.9349C446.443 46.5664 447.33 46.8821 448.337 46.8821C449.993 46.8821 451.17 46.2762 451.87 45.0645H454.379C453.969 46.2592 453.21 47.2405 452.1 48.0085C450.991 48.7594 449.737 49.1349 448.337 49.1349C447.091 49.1349 445.965 48.8533 444.958 48.2901C443.951 47.7098 443.166 46.9162 442.603 45.9093C442.04 44.8853 441.758 43.7418 441.758 42.4789C441.758 41.216 442.04 40.081 442.603 39.0741C443.166 38.0501 443.943 37.2565 444.932 36.6933C445.939 36.113 447.066 35.8229 448.312 35.8229ZM448.26 37.9733C447.253 37.9733 446.383 38.289 445.649 38.9205C444.932 39.552 444.489 40.3626 444.318 41.3525H452.177C452.075 40.3285 451.657 39.5093 450.923 38.8949C450.206 38.2805 449.319 37.9733 448.26 37.9733ZM469.825 49.1349C468.562 49.1349 467.41 48.8448 466.369 48.2645C465.328 47.6672 464.508 46.865 463.911 45.8581C463.314 44.8341 463.015 43.7077 463.015 42.4789C463.015 41.2501 463.314 40.1322 463.911 39.1253C464.508 38.1013 465.328 37.2992 466.369 36.7189C467.41 36.1216 468.562 35.8229 469.825 35.8229C471.07 35.8229 472.205 36.1216 473.229 36.7189C474.27 37.2992 475.09 38.1013 475.687 39.1253C476.284 40.1322 476.583 41.2501 476.583 42.4789C476.583 43.7077 476.284 44.8341 475.687 45.8581C475.09 46.865 474.27 47.6672 473.229 48.2645C472.205 48.8448 471.07 49.1349 469.825 49.1349ZM469.825 46.8821C470.61 46.8821 471.326 46.6944 471.975 46.3189C472.624 45.9264 473.136 45.3973 473.511 44.7317C473.886 44.049 474.074 43.2981 474.074 42.4789C474.074 41.6597 473.886 40.9173 473.511 40.2517C473.136 39.569 472.624 39.04 471.975 38.6645C471.326 38.272 470.61 38.0757 469.825 38.0757C469.022 38.0757 468.289 38.272 467.623 38.6645C466.974 39.04 466.462 39.569 466.087 40.2517C465.712 40.9173 465.524 41.6597 465.524 42.4789C465.524 43.2981 465.712 44.049 466.087 44.7317C466.462 45.3973 466.974 45.9264 467.623 46.3189C468.289 46.6944 469.022 46.8821 469.825 46.8821ZM0.896 72.4789C0.896 71.2501 1.19467 70.1322 1.792 69.1253C2.38933 68.1013 3.20853 67.2992 4.2496 66.7189C5.29067 66.1216 6.44267 65.8229 7.7056 65.8229C9.12213 65.8229 10.3936 66.241 11.52 67.0773C12.6635 67.8965 13.4144 68.9717 13.7728 70.3029H11.1104C10.8203 69.6202 10.3509 69.0826 9.7024 68.6901C9.07093 68.2805 8.36267 68.0757 7.5776 68.0757C6.77547 68.0757 6.05867 68.272 5.4272 68.6645C4.79573 69.04 4.3008 69.569 3.9424 70.2517C3.584 70.9173 3.4048 71.6597 3.4048 72.4789C3.4048 73.2981 3.584 74.049 3.9424 74.7317C4.3008 75.3973 4.79573 75.9264 5.4272 76.3189C6.05867 76.6944 6.77547 76.8821 7.5776 76.8821C8.36267 76.8821 9.07093 76.6858 9.7024 76.2933C10.3509 75.8837 10.8203 75.3376 11.1104 74.6549H13.7728C13.4144 75.9861 12.6635 77.0698 11.52 77.9061C10.3936 78.7253 9.12213 79.1349 7.7056 79.1349C6.44267 79.1349 5.29067 78.8448 4.2496 78.2645C3.20853 77.6672 2.38933 76.865 1.792 75.8581C1.19467 74.8341 0.896 73.7077 0.896 72.4789ZM21.8716 79.1349C20.6087 79.1349 19.4567 78.8448 18.4156 78.2645C17.3745 77.6672 16.5553 76.865 15.958 75.8581C15.3607 74.8341 15.062 73.7077 15.062 72.4789C15.062 71.2501 15.3607 70.1322 15.958 69.1253C16.5553 68.1013 17.3745 67.2992 18.4156 66.7189C19.4567 66.1216 20.6087 65.8229 21.8716 65.8229C23.1175 65.8229 24.2524 66.1216 25.2764 66.7189C26.3175 67.2992 27.1367 68.1013 27.734 69.1253C28.3313 70.1322 28.63 71.2501 28.63 72.4789C28.63 73.7077 28.3313 74.8341 27.734 75.8581C27.1367 76.865 26.3175 77.6672 25.2764 78.2645C24.2524 78.8448 23.1175 79.1349 21.8716 79.1349ZM21.8716 76.8821C22.6567 76.8821 23.3735 76.6944 24.022 76.3189C24.6705 75.9264 25.1825 75.3973 25.558 74.7317C25.9335 74.049 26.1212 73.2981 26.1212 72.4789C26.1212 71.6597 25.9335 70.9173 25.558 70.2517C25.1825 69.569 24.6705 69.04 24.022 68.6645C23.3735 68.272 22.6567 68.0757 21.8716 68.0757C21.0695 68.0757 20.3356 68.272 19.67 68.6645C19.0215 69.04 18.5095 69.569 18.134 70.2517C17.7585 70.9173 17.5708 71.6597 17.5708 72.4789C17.5708 73.2981 17.7585 74.049 18.134 74.7317C18.5095 75.3973 19.0215 75.9264 19.67 76.3189C20.3356 76.6944 21.0695 76.8821 21.8716 76.8821ZM32.329 74.8341C32.5509 75.585 32.9605 76.1397 33.5578 76.4981C34.1722 76.8565 34.9743 77.0357 35.9642 77.0357C36.8858 77.0357 37.6282 76.8736 38.1914 76.5493C38.7546 76.208 39.0362 75.7728 39.0362 75.2437C39.0362 74.7829 38.8314 74.3904 38.4218 74.0661C38.0122 73.7248 37.3125 73.5541 36.3226 73.5541H34.0954V71.4549H36.2202C37.1077 71.4549 37.7391 71.2928 38.1146 70.9685C38.5071 70.6442 38.7034 70.2517 38.7034 69.7909C38.7034 69.2106 38.4389 68.7498 37.9098 68.4085C37.3978 68.0672 36.6895 67.8965 35.785 67.8965C34.9146 67.8965 34.1893 68.0586 33.609 68.3829C33.0458 68.7072 32.6789 69.2192 32.5082 69.9189H30.1018C30.3237 68.6389 30.9637 67.6405 32.0218 66.9237C33.0799 66.1898 34.3343 65.8229 35.785 65.8229C37.3893 65.8229 38.6863 66.1728 39.6762 66.8725C40.6661 67.5552 41.161 68.4597 41.161 69.5861C41.161 70.1493 41.0074 70.6784 40.7002 71.1733C40.393 71.6512 39.9322 72.0352 39.3178 72.3253C40.7343 72.8885 41.4426 73.8528 41.4426 75.2181C41.4426 76.3957 40.9306 77.3429 39.9066 78.0597C38.8997 78.7765 37.5258 79.1349 35.785 79.1349C34.2149 79.1349 32.8837 78.7509 31.7914 77.9829C30.6991 77.2149 30.0677 76.1653 29.897 74.8341H32.329ZM56.8996 76.5749V81.6949H54.5444V78.8789H44.7652V81.6949H42.41V76.5749H44.0484C44.4068 75.5509 44.586 73.5882 44.586 70.6869V66.0789H55.1076V76.5749H56.8996ZM52.6756 76.6261V68.3317H47.018V70.6101C47.018 73.1701 46.8217 75.1754 46.4292 76.6261H52.6756ZM70.485 66.0789V78.8789H68.053V76.9589C67.5239 77.6416 66.8839 78.1792 66.133 78.5717C65.3821 78.9472 64.5799 79.1349 63.7266 79.1349C62.6002 79.1349 61.5762 78.8533 60.6546 78.2901C59.733 77.7098 59.0077 76.9162 58.4786 75.9093C57.9495 74.9024 57.685 73.7589 57.685 72.4789C57.685 71.1989 57.9495 70.0554 58.4786 69.0485C59.0077 68.0416 59.733 67.2565 60.6546 66.6933C61.5762 66.113 62.6002 65.8229 63.7266 65.8229C64.6141 65.8229 65.4418 66.0277 66.2098 66.4373C66.9778 66.8469 67.6349 67.4186 68.181 68.1525V66.0789H70.485ZM64.1362 76.8821C64.8871 76.8821 65.5698 76.6944 66.1842 76.3189C66.7986 75.9434 67.2765 75.4229 67.6178 74.7573C67.9591 74.0746 68.1298 73.3152 68.1298 72.4789C68.1298 71.6426 67.9591 70.8917 67.6178 70.2261C67.2765 69.5434 66.7986 69.0144 66.1842 68.6389C65.5698 68.2634 64.8871 68.0757 64.1362 68.0757C63.3853 68.0757 62.7111 68.2634 62.1138 68.6389C61.5165 69.0144 61.0471 69.5434 60.7058 70.2261C60.3645 70.8917 60.1938 71.6426 60.1938 72.4789C60.1938 73.3152 60.3645 74.0746 60.7058 74.7573C61.0471 75.4229 61.5165 75.9434 62.1138 76.3189C62.7111 76.6944 63.3853 76.8821 64.1362 76.8821ZM85.723 66.0789V78.8789H83.291V73.6309H76.635V78.8789H74.203V66.0789H76.635V71.3269H83.291V66.0789H85.723ZM89.444 66.0789H91.876V75.6021L98.532 66.0789H101.22V78.8789H98.788V69.3557L92.132 78.8789H89.444V66.0789ZM104.935 66.0789H107.367V75.6021L114.023 66.0789H116.711V78.8789H114.279V69.3557L107.623 78.8789H104.935V66.0789ZM126.065 72.4789C126.065 71.2501 126.364 70.1322 126.961 69.1253C127.558 68.1013 128.378 67.2992 129.419 66.7189C130.46 66.1216 131.612 65.8229 132.875 65.8229C134.291 65.8229 135.563 66.241 136.689 67.0773C137.832 67.8965 138.583 68.9717 138.942 70.3029H136.279C135.989 69.6202 135.52 69.0826 134.871 68.6901C134.24 68.2805 133.532 68.0757 132.747 68.0757C131.944 68.0757 131.228 68.272 130.596 68.6645C129.965 69.04 129.47 69.569 129.111 70.2517C128.753 70.9173 128.574 71.6597 128.574 72.4789C128.574 73.2981 128.753 74.049 129.111 74.7317C129.47 75.3973 129.965 75.9264 130.596 76.3189C131.228 76.6944 131.944 76.8821 132.747 76.8821C133.532 76.8821 134.24 76.6858 134.871 76.2933C135.52 75.8837 135.989 75.3376 136.279 74.6549H138.942C138.583 75.9861 137.832 77.0698 136.689 77.9061C135.563 78.7253 134.291 79.1349 132.875 79.1349C131.612 79.1349 130.46 78.8448 129.419 78.2645C128.378 77.6672 127.558 76.865 126.961 75.8581C126.364 74.8341 126.065 73.7077 126.065 72.4789ZM147.041 79.1349C145.778 79.1349 144.626 78.8448 143.585 78.2645C142.544 77.6672 141.724 76.865 141.127 75.8581C140.53 74.8341 140.231 73.7077 140.231 72.4789C140.231 71.2501 140.53 70.1322 141.127 69.1253C141.724 68.1013 142.544 67.2992 143.585 66.7189C144.626 66.1216 145.778 65.8229 147.041 65.8229C148.286 65.8229 149.421 66.1216 150.445 66.7189C151.486 67.2992 152.306 68.1013 152.903 69.1253C153.5 70.1322 153.799 71.2501 153.799 72.4789C153.799 73.7077 153.5 74.8341 152.903 75.8581C152.306 76.865 151.486 77.6672 150.445 78.2645C149.421 78.8448 148.286 79.1349 147.041 79.1349ZM147.041 76.8821C147.826 76.8821 148.542 76.6944 149.191 76.3189C149.84 75.9264 150.352 75.3973 150.727 74.7317C151.102 74.049 151.29 73.2981 151.29 72.4789C151.29 71.6597 151.102 70.9173 150.727 70.2517C150.352 69.569 149.84 69.04 149.191 68.6645C148.542 68.272 147.826 68.0757 147.041 68.0757C146.238 68.0757 145.505 68.272 144.839 68.6645C144.19 69.04 143.678 69.569 143.303 70.2517C142.928 70.9173 142.74 71.6597 142.74 72.4789C142.74 73.2981 142.928 74.049 143.303 74.7317C143.678 75.3973 144.19 75.9264 144.839 76.3189C145.505 76.6944 146.238 76.8821 147.041 76.8821ZM162.442 66.4629C163.602 66.4629 164.669 66.7445 165.642 67.3077C166.615 67.8538 167.374 68.6048 167.92 69.5605C168.483 70.5162 168.765 71.5744 168.765 72.7349C168.765 73.9125 168.475 74.9962 167.895 75.9861C167.331 76.9589 166.546 77.7269 165.539 78.2901C164.55 78.8533 163.457 79.1349 162.263 79.1349C161.051 79.1349 159.942 78.8533 158.935 78.2901C157.945 77.7098 157.16 76.9077 156.579 75.8837C155.999 74.8597 155.709 73.6992 155.709 72.4021V67.4869C155.709 65.8826 156.11 64.6794 156.912 63.8773C157.731 63.0581 158.883 62.5546 160.368 62.3669L164.951 61.7781C165.377 61.7269 165.591 61.5136 165.591 61.1381V60.8309H168.048V61.4453C168.048 62.145 167.826 62.7082 167.383 63.1349C166.956 63.5445 166.452 63.7834 165.872 63.8517L160.599 64.5429C159.643 64.6624 158.935 64.9269 158.474 65.3365C158.03 65.729 157.808 66.352 157.808 67.2053V68.9973C158.337 68.1952 159.003 67.5722 159.805 67.1285C160.624 66.6848 161.503 66.4629 162.442 66.4629ZM162.186 76.8821C162.937 76.8821 163.619 76.7029 164.234 76.3445C164.865 75.969 165.36 75.4656 165.719 74.8341C166.077 74.2026 166.256 73.5029 166.256 72.7349C166.256 71.9669 166.077 71.2672 165.719 70.6357C165.36 70.0042 164.865 69.5093 164.234 69.1509C163.619 68.7754 162.937 68.5877 162.186 68.5877C161.418 68.5877 160.718 68.7754 160.087 69.1509C159.455 69.5093 158.96 70.0042 158.602 70.6357C158.243 71.2672 158.064 71.9669 158.064 72.7349C158.064 73.5029 158.243 74.2026 158.602 74.8341C158.96 75.4656 159.455 75.969 160.087 76.3445C160.718 76.7029 161.418 76.8821 162.186 76.8821ZM170.288 72.4789C170.288 71.2501 170.587 70.1322 171.184 69.1253C171.781 68.1013 172.601 67.2992 173.642 66.7189C174.683 66.1216 175.835 65.8229 177.098 65.8229C178.514 65.8229 179.786 66.241 180.912 67.0773C182.055 67.8965 182.806 68.9717 183.165 70.3029H180.502C180.212 69.6202 179.743 69.0826 179.094 68.6901C178.463 68.2805 177.755 68.0757 176.97 68.0757C176.167 68.0757 175.451 68.272 174.819 68.6645C174.188 69.04 173.693 69.569 173.334 70.2517C172.976 70.9173 172.797 71.6597 172.797 72.4789C172.797 73.2981 172.976 74.049 173.334 74.7317C173.693 75.3973 174.188 75.9264 174.819 76.3189C175.451 76.6944 176.167 76.8821 176.97 76.8821C177.755 76.8821 178.463 76.6858 179.094 76.2933C179.743 75.8837 180.212 75.3376 180.502 74.6549H183.165C182.806 75.9861 182.055 77.0698 180.912 77.9061C179.786 78.7253 178.514 79.1349 177.098 79.1349C175.835 79.1349 174.683 78.8448 173.642 78.2645C172.601 77.6672 171.781 76.865 171.184 75.8581C170.587 74.8341 170.288 73.7077 170.288 72.4789ZM194.709 68.3829H190.229V78.8789H187.797V68.3829H183.317V66.0789H194.709V68.3829ZM205.605 72.3509C206.868 72.9824 207.499 73.9552 207.499 75.2693C207.499 76.3274 207.115 77.1978 206.347 77.8805C205.579 78.5461 204.521 78.8789 203.173 78.8789H196.747V66.0789H203.173C204.453 66.0789 205.46 66.4117 206.193 67.0773C206.944 67.7258 207.32 68.5536 207.32 69.5605C207.32 70.1578 207.175 70.704 206.885 71.1989C206.612 71.6768 206.185 72.0608 205.605 72.3509ZM202.891 71.4037C203.522 71.4037 204 71.2586 204.325 70.9685C204.649 70.6784 204.811 70.2517 204.811 69.6885C204.811 68.6474 204.171 68.1269 202.891 68.1269H199.128V71.4037H202.891ZM202.917 76.8309C203.599 76.8309 204.111 76.6858 204.453 76.3957C204.811 76.0885 204.99 75.6533 204.99 75.0901C204.99 74.561 204.811 74.16 204.453 73.8869C204.111 73.5968 203.599 73.4517 202.917 73.4517H199.128V76.8309H202.917ZM215.59 65.8229C216.904 65.8229 218.047 66.1045 219.02 66.6677C220.01 67.2309 220.769 68.033 221.298 69.0741C221.827 70.0981 222.092 71.3013 222.092 72.6837C222.092 73.0421 222.083 73.3066 222.066 73.4773H211.57C211.741 74.4672 212.202 75.2864 212.953 75.9349C213.721 76.5664 214.608 76.8821 215.615 76.8821C217.271 76.8821 218.448 76.2762 219.148 75.0645H221.657C221.247 76.2592 220.488 77.2405 219.378 78.0085C218.269 78.7594 217.015 79.1349 215.615 79.1349C214.369 79.1349 213.243 78.8533 212.236 78.2901C211.229 77.7098 210.444 76.9162 209.881 75.9093C209.318 74.8853 209.036 73.7418 209.036 72.4789C209.036 71.216 209.318 70.081 209.881 69.0741C210.444 68.0501 211.221 67.2565 212.21 66.6933C213.217 66.113 214.344 65.8229 215.59 65.8229ZM215.538 67.9733C214.531 67.9733 213.661 68.289 212.927 68.9205C212.21 69.552 211.767 70.3626 211.596 71.3525H219.455C219.353 70.3285 218.935 69.5093 218.201 68.8949C217.484 68.2805 216.597 67.9733 215.538 67.9733ZM236.174 66.0789V78.8789H233.742V73.6309H227.086V78.8789H224.654V66.0789H227.086V71.3269H233.742V66.0789H236.174ZM251.415 66.0789V78.8789H248.983V73.6309H242.327V78.8789H239.895V66.0789H242.327V71.3269H248.983V66.0789H251.415ZM260.794 79.1349C259.531 79.1349 258.379 78.8448 257.338 78.2645C256.297 77.6672 255.477 76.865 254.88 75.8581C254.283 74.8341 253.984 73.7077 253.984 72.4789C253.984 71.2501 254.283 70.1322 254.88 69.1253C255.477 68.1013 256.297 67.2992 257.338 66.7189C258.379 66.1216 259.531 65.8229 260.794 65.8229C262.039 65.8229 263.174 66.1216 264.198 66.7189C265.239 67.2992 266.059 68.1013 266.656 69.1253C267.253 70.1322 267.552 71.2501 267.552 72.4789C267.552 73.7077 267.253 74.8341 266.656 75.8581C266.059 76.865 265.239 77.6672 264.198 78.2645C263.174 78.8448 262.039 79.1349 260.794 79.1349ZM260.794 76.8821C261.579 76.8821 262.295 76.6944 262.944 76.3189C263.593 75.9264 264.105 75.3973 264.48 74.7317C264.855 74.049 265.043 73.2981 265.043 72.4789C265.043 71.6597 264.855 70.9173 264.48 70.2517C264.105 69.569 263.593 69.04 262.944 68.6645C262.295 68.272 261.579 68.0757 260.794 68.0757C259.991 68.0757 259.258 68.272 258.592 68.6645C257.943 69.04 257.431 69.569 257.056 70.2517C256.681 70.9173 256.493 71.6597 256.493 72.4789C256.493 73.2981 256.681 74.049 257.056 74.7317C257.431 75.3973 257.943 75.9264 258.592 76.3189C259.258 76.6944 259.991 76.8821 260.794 76.8821ZM279.062 68.3829H272.534V78.8789H270.102V66.0789H279.062V68.3829ZM286.276 79.1349C285.013 79.1349 283.861 78.8448 282.82 78.2645C281.779 77.6672 280.959 76.865 280.362 75.8581C279.765 74.8341 279.466 73.7077 279.466 72.4789C279.466 71.2501 279.765 70.1322 280.362 69.1253C280.959 68.1013 281.779 67.2992 282.82 66.7189C283.861 66.1216 285.013 65.8229 286.276 65.8229C287.521 65.8229 288.656 66.1216 289.68 66.7189C290.721 67.2992 291.541 68.1013 292.138 69.1253C292.735 70.1322 293.034 71.2501 293.034 72.4789C293.034 73.7077 292.735 74.8341 292.138 75.8581C291.541 76.865 290.721 77.6672 289.68 78.2645C288.656 78.8448 287.521 79.1349 286.276 79.1349ZM286.276 76.8821C287.061 76.8821 287.777 76.6944 288.426 76.3189C289.075 75.9264 289.587 75.3973 289.962 74.7317C290.337 74.049 290.525 73.2981 290.525 72.4789C290.525 71.6597 290.337 70.9173 289.962 70.2517C289.587 69.569 289.075 69.04 288.426 68.6645C287.777 68.272 287.061 68.0757 286.276 68.0757C285.473 68.0757 284.74 68.272 284.074 68.6645C283.425 69.04 282.913 69.569 282.538 70.2517C282.163 70.9173 281.975 71.6597 281.975 72.4789C281.975 73.2981 282.163 74.049 282.538 74.7317C282.913 75.3973 283.425 75.9264 284.074 76.3189C284.74 76.6944 285.473 76.8821 286.276 76.8821ZM308.468 66.4629C309.628 66.4629 310.695 66.7445 311.668 67.3077C312.641 67.8538 313.4 68.6048 313.946 69.5605C314.509 70.5162 314.791 71.5744 314.791 72.7349C314.791 73.9125 314.501 74.9962 313.921 75.9861C313.357 76.9589 312.572 77.7269 311.565 78.2901C310.576 78.8533 309.483 79.1349 308.289 79.1349C307.077 79.1349 305.968 78.8533 304.961 78.2901C303.971 77.7098 303.186 76.9077 302.605 75.8837C302.025 74.8597 301.735 73.6992 301.735 72.4021V67.4869C301.735 65.8826 302.136 64.6794 302.938 63.8773C303.757 63.0581 304.909 62.5546 306.394 62.3669L310.977 61.7781C311.403 61.7269 311.617 61.5136 311.617 61.1381V60.8309H314.074V61.4453C314.074 62.145 313.852 62.7082 313.409 63.1349C312.982 63.5445 312.478 63.7834 311.898 63.8517L306.625 64.5429C305.669 64.6624 304.961 64.9269 304.5 65.3365C304.056 65.729 303.834 66.352 303.834 67.2053V68.9973C304.363 68.1952 305.029 67.5722 305.831 67.1285C306.65 66.6848 307.529 66.4629 308.468 66.4629ZM308.212 76.8821C308.963 76.8821 309.645 76.7029 310.26 76.3445C310.891 75.969 311.386 75.4656 311.745 74.8341C312.103 74.2026 312.282 73.5029 312.282 72.7349C312.282 71.9669 312.103 71.2672 311.745 70.6357C311.386 70.0042 310.891 69.5093 310.26 69.1509C309.645 68.7754 308.963 68.5877 308.212 68.5877C307.444 68.5877 306.744 68.7754 306.113 69.1509C305.481 69.5093 304.986 70.0042 304.628 70.6357C304.269 71.2672 304.09 71.9669 304.09 72.7349C304.09 73.5029 304.269 74.2026 304.628 74.8341C304.986 75.4656 305.481 75.969 306.113 76.3445C306.744 76.7029 307.444 76.8821 308.212 76.8821ZM317.341 66.0789H319.773V75.6021L326.429 66.0789H329.117V78.8789H326.685V69.3557L320.029 78.8789H317.341V66.0789ZM333.856 74.8341C334.078 75.585 334.487 76.1397 335.085 76.4981C335.699 76.8565 336.501 77.0357 337.491 77.0357C338.413 77.0357 339.155 76.8736 339.718 76.5493C340.282 76.208 340.563 75.7728 340.563 75.2437C340.563 74.7829 340.358 74.3904 339.949 74.0661C339.539 73.7248 338.839 73.5541 337.85 73.5541H335.622V71.4549H337.747C338.635 71.4549 339.266 71.2928 339.642 70.9685C340.034 70.6442 340.23 70.2517 340.23 69.7909C340.23 69.2106 339.966 68.7498 339.437 68.4085C338.925 68.0672 338.217 67.8965 337.312 67.8965C336.442 67.8965 335.716 68.0586 335.136 68.3829C334.573 68.7072 334.206 69.2192 334.035 69.9189H331.629C331.851 68.6389 332.491 67.6405 333.549 66.9237C334.607 66.1898 335.861 65.8229 337.312 65.8229C338.916 65.8229 340.213 66.1728 341.203 66.8725C342.193 67.5552 342.688 68.4597 342.688 69.5861C342.688 70.1493 342.534 70.6784 342.227 71.1733C341.92 71.6512 341.459 72.0352 340.845 72.3253C342.261 72.8885 342.97 73.8528 342.97 75.2181C342.97 76.3957 342.458 77.3429 341.434 78.0597C340.427 78.7765 339.053 79.1349 337.312 79.1349C335.742 79.1349 334.411 78.7509 333.318 77.9829C332.226 77.2149 331.595 76.1653 331.424 74.8341H333.856ZM356.993 66.0789V78.8789H354.561V73.6309H347.905V78.8789H345.473V66.0789H347.905V71.3269H354.561V66.0789H356.993ZM366.116 65.8229C367.43 65.8229 368.573 66.1045 369.546 66.6677C370.536 67.2309 371.295 68.033 371.824 69.0741C372.353 70.0981 372.618 71.3013 372.618 72.6837C372.618 73.0421 372.609 73.3066 372.592 73.4773H362.096C362.267 74.4672 362.728 75.2864 363.479 75.9349C364.247 76.5664 365.134 76.8821 366.141 76.8821C367.797 76.8821 368.974 76.2762 369.674 75.0645H372.183C371.773 76.2592 371.014 77.2405 369.904 78.0085C368.795 78.7594 367.541 79.1349 366.141 79.1349C364.895 79.1349 363.769 78.8533 362.762 78.2901C361.755 77.7098 360.97 76.9162 360.407 75.9093C359.844 74.8853 359.562 73.7418 359.562 72.4789C359.562 71.216 359.844 70.081 360.407 69.0741C360.97 68.0501 361.747 67.2565 362.736 66.6933C363.743 66.113 364.87 65.8229 366.116 65.8229ZM366.064 67.9733C365.057 67.9733 364.187 68.289 363.453 68.9205C362.736 69.552 362.293 70.3626 362.122 71.3525H369.981C369.879 70.3285 369.461 69.5093 368.727 68.8949C368.01 68.2805 367.123 67.9733 366.064 67.9733ZM374.153 72.4789C374.153 71.2501 374.452 70.1322 375.049 69.1253C375.646 68.1013 376.466 67.2992 377.507 66.7189C378.548 66.1216 379.7 65.8229 380.963 65.8229C382.379 65.8229 383.651 66.241 384.777 67.0773C385.92 67.8965 386.671 68.9717 387.03 70.3029H384.367C384.077 69.6202 383.608 69.0826 382.959 68.6901C382.328 68.2805 381.62 68.0757 380.835 68.0757C380.032 68.0757 379.316 68.272 378.684 68.6645C378.053 69.04 377.558 69.569 377.199 70.2517C376.841 70.9173 376.662 71.6597 376.662 72.4789C376.662 73.2981 376.841 74.049 377.199 74.7317C377.558 75.3973 378.053 75.9264 378.684 76.3189C379.316 76.6944 380.032 76.8821 380.835 76.8821C381.62 76.8821 382.328 76.6858 382.959 76.2933C383.608 75.8837 384.077 75.3376 384.367 74.6549H387.03C386.671 75.9861 385.92 77.0698 384.777 77.9061C383.651 78.7253 382.379 79.1349 380.963 79.1349C379.7 79.1349 378.548 78.8448 377.507 78.2645C376.466 77.6672 375.646 76.865 375.049 75.8581C374.452 74.8341 374.153 73.7077 374.153 72.4789ZM401.119 66.0789V78.8789H398.687V76.9589C398.158 77.6416 397.518 78.1792 396.767 78.5717C396.016 78.9472 395.214 79.1349 394.361 79.1349C393.234 79.1349 392.21 78.8533 391.289 78.2901C390.367 77.7098 389.642 76.9162 389.113 75.9093C388.584 74.9024 388.319 73.7589 388.319 72.4789C388.319 71.1989 388.584 70.0554 389.113 69.0485C389.642 68.0416 390.367 67.2565 391.289 66.6933C392.21 66.113 393.234 65.8229 394.361 65.8229C395.248 65.8229 396.076 66.0277 396.844 66.4373C397.612 66.8469 398.269 67.4186 398.815 68.1525V66.0789H401.119ZM394.77 76.8821C395.521 76.8821 396.204 76.6944 396.818 76.3189C397.433 75.9434 397.91 75.4229 398.252 74.7573C398.593 74.0746 398.764 73.3152 398.764 72.4789C398.764 71.6426 398.593 70.8917 398.252 70.2261C397.91 69.5434 397.433 69.0144 396.818 68.6389C396.204 68.2634 395.521 68.0757 394.77 68.0757C394.019 68.0757 393.345 68.2634 392.748 68.6389C392.15 69.0144 391.681 69.5434 391.34 70.2261C390.998 70.8917 390.828 71.6426 390.828 72.4789C390.828 73.3152 390.998 74.0746 391.34 74.7573C391.681 75.4229 392.15 75.9434 392.748 76.3189C393.345 76.6944 394.019 76.8821 394.77 76.8821ZM407.397 76.0629V78.8789H404.581V76.0629H407.397ZM433.26 60.9589V78.8789H430.7V71.1477H420.46V78.8789H417.9V60.9589H420.46V68.6901H430.7V60.9589H433.26ZM448.883 66.0789V78.8789H446.451V76.9589C445.922 77.6416 445.282 78.1792 444.531 78.5717C443.78 78.9472 442.978 79.1349 442.125 79.1349C440.998 79.1349 439.974 78.8533 439.053 78.2901C438.131 77.7098 437.406 76.9162 436.877 75.9093C436.348 74.9024 436.083 73.7589 436.083 72.4789C436.083 71.1989 436.348 70.0554 436.877 69.0485C437.406 68.0416 438.131 67.2565 439.053 66.6933C439.974 66.113 440.998 65.8229 442.125 65.8229C443.012 65.8229 443.84 66.0277 444.608 66.4373C445.376 66.8469 446.033 67.4186 446.579 68.1525V66.0789H448.883ZM442.534 76.8821C443.285 76.8821 443.968 76.6944 444.582 76.3189C445.197 75.9434 445.674 75.4229 446.016 74.7573C446.357 74.0746 446.528 73.3152 446.528 72.4789C446.528 71.6426 446.357 70.8917 446.016 70.2261C445.674 69.5434 445.197 69.0144 444.582 68.6389C443.968 68.2634 443.285 68.0757 442.534 68.0757C441.783 68.0757 441.109 68.2634 440.512 68.6389C439.914 69.0144 439.445 69.5434 439.104 70.2261C438.762 70.8917 438.592 71.6426 438.592 72.4789C438.592 73.3152 438.762 74.0746 439.104 74.7573C439.445 75.4229 439.914 75.9434 440.512 76.3189C441.109 76.6944 441.783 76.8821 442.534 76.8821ZM451.449 72.4789C451.449 71.2501 451.748 70.1322 452.345 69.1253C452.942 68.1013 453.762 67.2992 454.803 66.7189C455.844 66.1216 456.996 65.8229 458.259 65.8229C459.675 65.8229 460.947 66.241 462.073 67.0773C463.216 67.8965 463.967 68.9717 464.326 70.3029H461.663C461.373 69.6202 460.904 69.0826 460.255 68.6901C459.624 68.2805 458.916 68.0757 458.131 68.0757C457.328 68.0757 456.612 68.272 455.98 68.6645C455.349 69.04 454.854 69.569 454.495 70.2517C454.137 70.9173 453.958 71.6597 453.958 72.4789C453.958 73.2981 454.137 74.049 454.495 74.7317C454.854 75.3973 455.349 75.9264 455.98 76.3189C456.612 76.6944 457.328 76.8821 458.131 76.8821C458.916 76.8821 459.624 76.6858 460.255 76.2933C460.904 75.8837 461.373 75.3376 461.663 74.6549H464.326C463.967 75.9861 463.216 77.0698 462.073 77.9061C460.947 78.7253 459.675 79.1349 458.259 79.1349C456.996 79.1349 455.844 78.8448 454.803 78.2645C453.762 77.6672 452.942 76.865 452.345 75.8581C451.748 74.8341 451.449 73.7077 451.449 72.4789ZM14.6176 96.0789L7.1168 113.231H4.48L6.5024 108.649L0.256 96.0789H3.1488L7.7824 106.063L11.9296 96.0789H14.6176ZM25.3966 102.351C26.6595 102.982 27.291 103.955 27.291 105.269C27.291 106.327 26.907 107.198 26.139 107.881C25.371 108.546 24.3129 108.879 22.9646 108.879H16.539V96.0789H22.9646C24.2446 96.0789 25.2515 96.4117 25.9854 97.0773C26.7363 97.7258 27.1118 98.5536 27.1118 99.5605C27.1118 100.158 26.9667 100.704 26.6766 101.199C26.4035 101.677 25.9769 102.061 25.3966 102.351ZM22.683 101.404C23.3145 101.404 23.7923 101.259 24.1166 100.969C24.4409 100.678 24.603 100.252 24.603 99.6885C24.603 98.6474 23.963 98.1269 22.683 98.1269H18.9198V101.404H22.683ZM22.7086 106.831C23.3913 106.831 23.9033 106.686 24.2446 106.396C24.603 106.089 24.7822 105.653 24.7822 105.09C24.7822 104.561 24.603 104.16 24.2446 103.887C23.9033 103.597 23.3913 103.452 22.7086 103.452H18.9198V106.831H22.7086ZM41.3976 108.905H38.9656V98.3829H33.4872V100.713C33.4872 102.539 33.3848 104.032 33.18 105.193C32.9923 106.353 32.5912 107.283 31.9768 107.983C31.3624 108.666 30.4493 109.007 29.2376 109.007C28.9133 109.007 28.5635 108.964 28.188 108.879V106.626C28.4952 106.677 28.7683 106.703 29.0072 106.703C29.5533 106.703 29.9629 106.532 30.236 106.191C30.5261 105.85 30.7309 105.244 30.8504 104.373C30.9699 103.486 31.0296 102.189 31.0296 100.482V96.0789H41.3976V108.905ZM50.5226 95.8229C51.8367 95.8229 52.9802 96.1045 53.953 96.6677C54.9429 97.2309 55.7023 98.033 56.2314 99.0741C56.7605 100.098 57.025 101.301 57.025 102.684C57.025 103.042 57.0165 103.307 56.9994 103.477H46.5034C46.6741 104.467 47.1349 105.286 47.8858 105.935C48.6538 106.566 49.5413 106.882 50.5482 106.882C52.2037 106.882 53.3813 106.276 54.081 105.065H56.5898C56.1802 106.259 55.4207 107.241 54.3114 108.009C53.2021 108.759 51.9477 109.135 50.5482 109.135C49.3023 109.135 48.1759 108.853 47.169 108.29C46.1621 107.71 45.377 106.916 44.8138 105.909C44.2506 104.885 43.969 103.742 43.969 102.479C43.969 101.216 44.2506 100.081 44.8138 99.0741C45.377 98.0501 46.1535 97.2565 47.1434 96.6933C48.1503 96.113 49.2767 95.8229 50.5226 95.8229ZM50.4714 97.9733C49.4645 97.9733 48.5941 98.289 47.8602 98.9205C47.1434 99.552 46.6997 100.363 46.529 101.353H54.3882C54.2858 100.329 53.8677 99.5093 53.1338 98.8949C52.417 98.2805 51.5295 97.9733 50.4714 97.9733ZM63.7854 102.94L61.9678 104.629V108.879H59.587V96.0789H61.9678V101.813L67.9838 96.0789H71.2094L65.603 101.25L71.747 108.879H68.4958L63.7854 102.94ZM84.401 96.0789V108.879H81.969V106.959C81.4399 107.642 80.7999 108.179 80.049 108.572C79.2981 108.947 78.4959 109.135 77.6426 109.135C76.5162 109.135 75.4922 108.853 74.5706 108.29C73.649 107.71 72.9237 106.916 72.3946 105.909C71.8655 104.902 71.601 103.759 71.601 102.479C71.601 101.199 71.8655 100.055 72.3946 99.0485C72.9237 98.0416 73.649 97.2565 74.5706 96.6933C75.4922 96.113 76.5162 95.8229 77.6426 95.8229C78.5301 95.8229 79.3578 96.0277 80.1258 96.4373C80.8938 96.8469 81.5509 97.4186 82.097 98.1525V96.0789H84.401ZM78.0522 106.882C78.8031 106.882 79.4858 106.694 80.1002 106.319C80.7146 105.943 81.1925 105.423 81.5338 104.757C81.8751 104.075 82.0458 103.315 82.0458 102.479C82.0458 101.643 81.8751 100.892 81.5338 100.226C81.1925 99.5434 80.7146 99.0144 80.1002 98.6389C79.4858 98.2634 78.8031 98.0757 78.0522 98.0757C77.3013 98.0757 76.6271 98.2634 76.0298 98.6389C75.4325 99.0144 74.9631 99.5434 74.6218 100.226C74.2805 100.892 74.1098 101.643 74.1098 102.479C74.1098 103.315 74.2805 104.075 74.6218 104.757C74.9631 105.423 75.4325 105.943 76.0298 106.319C76.6271 106.694 77.3013 106.882 78.0522 106.882ZM99.5366 108.905H97.1046V98.3829H91.6262V100.713C91.6262 102.539 91.5238 104.032 91.319 105.193C91.1313 106.353 90.7302 107.283 90.1158 107.983C89.5014 108.666 88.5883 109.007 87.3766 109.007C87.0523 109.007 86.7025 108.964 86.327 108.879V106.626C86.6342 106.677 86.9073 106.703 87.1462 106.703C87.6923 106.703 88.1019 106.532 88.375 106.191C88.6651 105.85 88.8699 105.244 88.9894 104.373C89.1089 103.486 89.1686 102.189 89.1686 100.482V96.0789H99.5366V108.905ZM249.615 106.063L248.847 111.951H247.055V106.063H249.615ZM259.868 96.0789H262.3V105.602L268.956 96.0789H271.644V108.879H269.212V99.3557L262.556 108.879H259.868V96.0789ZM298.022 108.879H295.59V99.0229L290.086 108.879L284.582 99.0741V108.879H282.15V96.0789H285.478L290.137 104.45L294.745 96.0789H298.022V108.879ZM308.064 101.148C309.412 101.148 310.462 101.515 311.213 102.249C311.981 102.965 312.365 103.887 312.365 105.013C312.365 106.14 311.981 107.07 311.213 107.804C310.462 108.521 309.412 108.879 308.064 108.879H301.741V96.0789H304.173V101.148H308.064ZM307.731 106.754C308.431 106.754 308.96 106.609 309.319 106.319C309.677 106.029 309.856 105.594 309.856 105.013C309.856 104.433 309.677 103.998 309.319 103.708C308.96 103.418 308.431 103.273 307.731 103.273H304.173V106.754H307.731ZM317.101 96.0789V108.879H314.669V96.0789H317.101ZM334.356 95.8229C335.483 95.8229 336.507 96.113 337.428 96.6933C338.35 97.2565 339.075 98.0416 339.604 99.0485C340.133 100.055 340.398 101.199 340.398 102.479C340.398 103.759 340.133 104.902 339.604 105.909C339.075 106.916 338.35 107.71 337.428 108.29C336.507 108.853 335.483 109.135 334.356 109.135C333.503 109.135 332.701 108.947 331.95 108.572C331.199 108.179 330.559 107.642 330.03 106.959V113.231H327.598V96.0789H329.902V98.1525C330.448 97.4186 331.105 96.8469 331.873 96.4373C332.641 96.0277 333.469 95.8229 334.356 95.8229ZM333.947 106.882C334.698 106.882 335.372 106.694 335.969 106.319C336.567 105.943 337.036 105.423 337.377 104.757C337.719 104.075 337.889 103.315 337.889 102.479C337.889 101.643 337.719 100.892 337.377 100.226C337.036 99.5434 336.567 99.0144 335.969 98.6389C335.372 98.2634 334.698 98.0757 333.947 98.0757C333.196 98.0757 332.513 98.2634 331.899 98.6389C331.284 99.0144 330.807 99.5434 330.465 100.226C330.124 100.892 329.953 101.643 329.953 102.479C329.953 103.315 330.124 104.075 330.465 104.757C330.807 105.423 331.284 105.943 331.899 106.319C332.513 106.694 333.196 106.882 333.947 106.882ZM348.491 95.8229C349.805 95.8229 350.948 96.1045 351.921 96.6677C352.911 97.2309 353.67 98.033 354.199 99.0741C354.728 100.098 354.993 101.301 354.993 102.684C354.993 103.042 354.984 103.307 354.967 103.477H344.471C344.642 104.467 345.103 105.286 345.854 105.935C346.622 106.566 347.509 106.882 348.516 106.882C350.172 106.882 351.349 106.276 352.049 105.065H354.558C354.148 106.259 353.389 107.241 352.279 108.009C351.17 108.759 349.916 109.135 348.516 109.135C347.27 109.135 346.144 108.853 345.137 108.29C344.13 107.71 343.345 106.916 342.782 105.909C342.219 104.885 341.937 103.742 341.937 102.479C341.937 101.216 342.219 100.081 342.782 99.0741C343.345 98.0501 344.122 97.2565 345.111 96.6933C346.118 96.113 347.245 95.8229 348.491 95.8229ZM348.439 97.9733C347.432 97.9733 346.562 98.289 345.828 98.9205C345.111 99.552 344.668 100.363 344.497 101.353H352.356C352.254 100.329 351.836 99.5093 351.102 98.8949C350.385 98.2805 349.498 97.9733 348.439 97.9733ZM375.347 96.0789V108.879H357.555V96.0789H359.987V106.575H365.235V96.0789H367.667V106.575H372.915V96.0789H375.347ZM379.071 96.0789H381.503V105.602L388.159 96.0789H390.847V108.879H388.415V99.3557L381.759 108.879H379.071V96.0789ZM405.98 108.905H403.548V98.3829H398.069V100.713C398.069 102.539 397.967 104.032 397.762 105.193C397.574 106.353 397.173 107.283 396.559 107.983C395.944 108.666 395.031 109.007 393.82 109.007C393.495 109.007 393.145 108.964 392.77 108.879V106.626C393.077 106.677 393.35 106.703 393.589 106.703C394.135 106.703 394.545 106.532 394.818 106.191C395.108 105.85 395.313 105.244 395.432 104.373C395.552 103.486 395.612 102.189 395.612 100.482V96.0789H405.98V108.905ZM409.703 96.0789H412.135V105.602L418.791 96.0789H421.479V108.879H419.047V99.3557L412.391 108.879H409.703V96.0789ZM273.51 132.351C274.773 132.982 275.404 133.955 275.404 135.269C275.404 136.327 275.02 137.198 274.252 137.881C273.484 138.546 272.426 138.879 271.078 138.879H264.652V126.079H271.078C272.358 126.079 273.365 126.412 274.098 127.077C274.849 127.726 275.225 128.554 275.225 129.561C275.225 130.158 275.08 130.704 274.79 131.199C274.517 131.677 274.09 132.061 273.51 132.351ZM270.796 131.404C271.427 131.404 271.905 131.259 272.23 130.969C272.554 130.678 272.716 130.252 272.716 129.689C272.716 128.647 272.076 128.127 270.796 128.127H267.033V131.404H270.796ZM270.822 136.831C271.504 136.831 272.016 136.686 272.358 136.396C272.716 136.089 272.895 135.653 272.895 135.09C272.895 134.561 272.716 134.16 272.358 133.887C272.016 133.597 271.504 133.452 270.822 133.452H267.033V136.831H270.822ZM289.671 125.823C290.951 125.823 292.103 126.113 293.127 126.693C294.168 127.257 294.979 128.05 295.559 129.074C296.139 130.081 296.43 131.216 296.43 132.479C296.43 133.742 296.139 134.885 295.559 135.909C294.979 136.916 294.168 137.71 293.127 138.29C292.103 138.853 290.951 139.135 289.671 139.135C288.75 139.135 287.862 138.947 287.009 138.572C286.155 138.196 285.43 137.667 284.833 136.985C284.235 136.302 283.826 135.525 283.604 134.655H286.062C286.335 135.338 286.795 135.884 287.444 136.293C288.11 136.686 288.861 136.882 289.697 136.882C290.721 136.882 291.617 136.575 292.385 135.961C293.17 135.346 293.656 134.553 293.844 133.58H288.289V131.378H293.844C293.656 130.405 293.17 129.612 292.385 128.997C291.617 128.383 290.721 128.076 289.697 128.076C288.861 128.076 288.11 128.281 287.444 128.69C286.795 129.083 286.335 129.62 286.062 130.303H283.604C283.826 129.433 284.235 128.656 284.833 127.973C285.43 127.291 286.155 126.762 287.009 126.386C287.862 126.011 288.75 125.823 289.671 125.823ZM308.228 128.383H303.748V138.879H301.316V128.383H296.836V126.079H308.228V128.383ZM315.424 139.135C314.161 139.135 313.009 138.845 311.968 138.265C310.927 137.667 310.107 136.865 309.51 135.858C308.913 134.834 308.614 133.708 308.614 132.479C308.614 131.25 308.913 130.132 309.51 129.125C310.107 128.101 310.927 127.299 311.968 126.719C313.009 126.122 314.161 125.823 315.424 125.823C316.669 125.823 317.804 126.122 318.828 126.719C319.869 127.299 320.689 128.101 321.286 129.125C321.883 130.132 322.182 131.25 322.182 132.479C322.182 133.708 321.883 134.834 321.286 135.858C320.689 136.865 319.869 137.667 318.828 138.265C317.804 138.845 316.669 139.135 315.424 139.135ZM315.424 136.882C316.209 136.882 316.925 136.694 317.574 136.319C318.223 135.926 318.735 135.397 319.11 134.732C319.485 134.049 319.673 133.298 319.673 132.479C319.673 131.66 319.485 130.917 319.11 130.252C318.735 129.569 318.223 129.04 317.574 128.665C316.925 128.272 316.209 128.076 315.424 128.076C314.621 128.076 313.888 128.272 313.222 128.665C312.573 129.04 312.061 129.569 311.686 130.252C311.311 130.917 311.123 131.66 311.123 132.479C311.123 133.298 311.311 134.049 311.686 134.732C312.061 135.397 312.573 135.926 313.222 136.319C313.888 136.694 314.621 136.882 315.424 136.882ZM340.604 138.879H338.172V129.023L332.668 138.879L327.164 129.074V138.879H324.732V126.079H328.06L332.719 134.45L337.327 126.079H340.604V138.879ZM362.148 132.991L360.56 134.527V138.879H358.154V134.527L356.567 132.991L352.215 138.879H349.194L354.8 131.276L349.45 126.079H352.496L358.154 131.609V126.079H360.56V131.634L366.269 126.079H369.264L363.914 131.276L369.52 138.879H366.5L362.148 132.991ZM382.178 126.079V138.879H379.746V136.959C379.217 137.642 378.577 138.179 377.826 138.572C377.075 138.947 376.273 139.135 375.42 139.135C374.293 139.135 373.269 138.853 372.348 138.29C371.426 137.71 370.701 136.916 370.172 135.909C369.643 134.902 369.378 133.759 369.378 132.479C369.378 131.199 369.643 130.055 370.172 129.049C370.701 128.042 371.426 127.257 372.348 126.693C373.269 126.113 374.293 125.823 375.42 125.823C376.307 125.823 377.135 126.028 377.903 126.437C378.671 126.847 379.328 127.419 379.874 128.153V126.079H382.178ZM375.829 136.882C376.58 136.882 377.263 136.694 377.877 136.319C378.492 135.943 378.969 135.423 379.311 134.757C379.652 134.075 379.823 133.315 379.823 132.479C379.823 131.643 379.652 130.892 379.311 130.226C378.969 129.543 378.492 129.014 377.877 128.639C377.263 128.263 376.58 128.076 375.829 128.076C375.078 128.076 374.404 128.263 373.807 128.639C373.209 129.014 372.74 129.543 372.399 130.226C372.057 130.892 371.887 131.643 371.887 132.479C371.887 133.315 372.057 134.075 372.399 134.757C372.74 135.423 373.209 135.943 373.807 136.319C374.404 136.694 375.078 136.882 375.829 136.882ZM397.416 126.079V138.879H394.984V133.631H388.328V138.879H385.896V126.079H388.328V131.327H394.984V126.079H397.416ZM407.895 125.823C409.022 125.823 410.046 126.113 410.967 126.693C411.889 127.257 412.614 128.042 413.143 129.049C413.672 130.055 413.937 131.199 413.937 132.479C413.937 133.759 413.672 134.902 413.143 135.909C412.614 136.916 411.889 137.71 410.967 138.29C410.046 138.853 409.022 139.135 407.895 139.135C407.042 139.135 406.24 138.947 405.489 138.572C404.738 138.179 404.098 137.642 403.569 136.959V143.231H401.137V126.079H403.441V128.153C403.987 127.419 404.644 126.847 405.412 126.437C406.18 126.028 407.008 125.823 407.895 125.823ZM407.486 136.882C408.237 136.882 408.911 136.694 409.508 136.319C410.106 135.943 410.575 135.423 410.916 134.757C411.258 134.075 411.428 133.315 411.428 132.479C411.428 131.643 411.258 130.892 410.916 130.226C410.575 129.543 410.106 129.014 409.508 128.639C408.911 128.263 408.237 128.076 407.486 128.076C406.735 128.076 406.052 128.263 405.438 128.639C404.823 129.014 404.346 129.543 404.004 130.226C403.663 130.892 403.492 131.643 403.492 132.479C403.492 133.315 403.663 134.075 404.004 134.757C404.346 135.423 404.823 135.943 405.438 136.319C406.052 136.694 406.735 136.882 407.486 136.882ZM422.03 125.823C423.344 125.823 424.487 126.105 425.46 126.668C426.45 127.231 427.209 128.033 427.738 129.074C428.267 130.098 428.532 131.301 428.532 132.684C428.532 133.042 428.523 133.307 428.506 133.477H418.01C418.181 134.467 418.642 135.286 419.393 135.935C420.161 136.566 421.048 136.882 422.055 136.882C423.711 136.882 424.888 136.276 425.588 135.065H428.097C427.687 136.259 426.928 137.241 425.818 138.009C424.709 138.759 423.455 139.135 422.055 139.135C420.809 139.135 419.683 138.853 418.676 138.29C417.669 137.71 416.884 136.916 416.321 135.909C415.758 134.885 415.476 133.742 415.476 132.479C415.476 131.216 415.758 130.081 416.321 129.074C416.884 128.05 417.661 127.257 418.65 126.693C419.657 126.113 420.784 125.823 422.03 125.823ZM421.978 127.973C420.971 127.973 420.101 128.289 419.367 128.921C418.65 129.552 418.207 130.363 418.036 131.353H425.895C425.793 130.329 425.375 129.509 424.641 128.895C423.924 128.281 423.037 127.973 421.978 127.973ZM433.654 136.063V138.879H430.838V136.063H433.654Z" fill="white"/>
<path d="M135.785 40.4053L133.174 42.8373V48.8789H130.614V30.9589H133.174V39.8677L142.672 30.9589H145.82L137.628 38.6389L146.076 48.8789H142.723L135.785 40.4053ZM158.872 36.0789V48.8789H156.44V46.9589C155.911 47.6416 155.271 48.1792 154.52 48.5717C153.769 48.9472 152.967 49.1349 152.114 49.1349C150.987 49.1349 149.963 48.8533 149.042 48.2901C148.12 47.7098 147.395 46.9162 146.866 45.9093C146.337 44.9024 146.072 43.7589 146.072 42.4789C146.072 41.1989 146.337 40.0554 146.866 39.0485C147.395 38.0416 148.12 37.2565 149.042 36.6933C149.963 36.113 150.987 35.8229 152.114 35.8229C153.001 35.8229 153.829 36.0277 154.597 36.4373C155.365 36.8469 156.022 37.4186 156.568 38.1525V36.0789H158.872ZM152.523 46.8821C153.274 46.8821 153.957 46.6944 154.571 46.3189C155.186 45.9434 155.663 45.4229 156.005 44.7573C156.346 44.0746 156.517 43.3152 156.517 42.4789C156.517 41.6426 156.346 40.8917 156.005 40.2261C155.663 39.5434 155.186 39.0144 154.571 38.6389C153.957 38.2634 153.274 38.0757 152.523 38.0757C151.772 38.0757 151.098 38.2634 150.501 38.6389C149.903 39.0144 149.434 39.5434 149.093 40.2261C148.751 40.8917 148.581 41.6426 148.581 42.4789C148.581 43.3152 148.751 44.0746 149.093 44.7573C149.434 45.4229 149.903 45.9434 150.501 46.3189C151.098 46.6944 151.772 46.8821 152.523 46.8821ZM163.614 44.8341C163.836 45.585 164.245 46.1397 164.843 46.4981C165.457 46.8565 166.259 47.0357 167.249 47.0357C168.171 47.0357 168.913 46.8736 169.476 46.5493C170.04 46.208 170.321 45.7728 170.321 45.2437C170.321 44.7829 170.116 44.3904 169.707 44.0661C169.297 43.7248 168.597 43.5541 167.608 43.5541H165.38V41.4549H167.505C168.393 41.4549 169.024 41.2928 169.4 40.9685C169.792 40.6442 169.988 40.2517 169.988 39.7909C169.988 39.2106 169.724 38.7498 169.195 38.4085C168.683 38.0672 167.975 37.8965 167.07 37.8965C166.2 37.8965 165.474 38.0586 164.894 38.3829C164.331 38.7072 163.964 39.2192 163.793 39.9189H161.387C161.609 38.6389 162.249 37.6405 163.307 36.9237C164.365 36.1898 165.619 35.8229 167.07 35.8229C168.674 35.8229 169.971 36.1728 170.961 36.8725C171.951 37.5552 172.446 38.4597 172.446 39.5861C172.446 40.1493 172.292 40.6784 171.985 41.1733C171.678 41.6512 171.217 42.0352 170.603 42.3253C172.019 42.8885 172.728 43.8528 172.728 45.2181C172.728 46.3957 172.216 47.3429 171.192 48.0597C170.185 48.7765 168.811 49.1349 167.07 49.1349C165.5 49.1349 164.169 48.7509 163.076 47.9829C161.984 47.2149 161.353 46.1653 161.182 44.8341H163.614ZM186.879 36.0789V48.8789H184.447V46.9589C183.918 47.6416 183.278 48.1792 182.527 48.5717C181.776 48.9472 180.974 49.1349 180.121 49.1349C178.994 49.1349 177.97 48.8533 177.049 48.2901C176.127 47.7098 175.402 46.9162 174.873 45.9093C174.344 44.9024 174.079 43.7589 174.079 42.4789C174.079 41.1989 174.344 40.0554 174.873 39.0485C175.402 38.0416 176.127 37.2565 177.049 36.6933C177.97 36.113 178.994 35.8229 180.121 35.8229C181.008 35.8229 181.836 36.0277 182.604 36.4373C183.372 36.8469 184.029 37.4186 184.575 38.1525V36.0789H186.879ZM180.53 46.8821C181.281 46.8821 181.964 46.6944 182.578 46.3189C183.193 45.9434 183.67 45.4229 184.012 44.7573C184.353 44.0746 184.524 43.3152 184.524 42.4789C184.524 41.6426 184.353 40.8917 184.012 40.2261C183.67 39.5434 183.193 39.0144 182.578 38.6389C181.964 38.2634 181.281 38.0757 180.53 38.0757C179.779 38.0757 179.105 38.2634 178.508 38.6389C177.91 39.0144 177.441 39.5434 177.1 40.2261C176.758 40.8917 176.588 41.6426 176.588 42.4789C176.588 43.3152 176.758 44.0746 177.1 44.7573C177.441 45.4229 177.91 45.9434 178.508 46.3189C179.105 46.6944 179.779 46.8821 180.53 46.8821ZM202.117 36.0789V48.8789H199.685V43.6309H193.029V48.8789H190.597V36.0789H193.029V41.3269H199.685V36.0789H202.117ZM205.838 36.0789H208.27V45.6021L214.926 36.0789H217.614V48.8789H215.182V39.3557L208.526 48.8789H205.838V36.0789ZM108.899 102.479C108.899 101.25 109.198 100.132 109.795 99.1253C110.392 98.1013 111.212 97.2992 112.253 96.7189C113.294 96.1216 114.446 95.8229 115.709 95.8229C117.125 95.8229 118.397 96.241 119.523 97.0773C120.666 97.8965 121.417 98.9717 121.776 100.303H119.113C118.823 99.6202 118.354 99.0826 117.705 98.6901C117.074 98.2805 116.366 98.0757 115.581 98.0757C114.778 98.0757 114.062 98.272 113.43 98.6645C112.799 99.04 112.304 99.569 111.945 100.252C111.587 100.917 111.408 101.66 111.408 102.479C111.408 103.298 111.587 104.049 111.945 104.732C112.304 105.397 112.799 105.926 113.43 106.319C114.062 106.694 114.778 106.882 115.581 106.882C116.366 106.882 117.074 106.686 117.705 106.293C118.354 105.884 118.823 105.338 119.113 104.655H121.776C121.417 105.986 120.666 107.07 119.523 107.906C118.397 108.725 117.125 109.135 115.709 109.135C114.446 109.135 113.294 108.845 112.253 108.265C111.212 107.667 110.392 106.865 109.795 105.858C109.198 104.834 108.899 103.708 108.899 102.479ZM133.32 98.3829H128.84V108.879H126.408V98.3829H121.928V96.0789H133.32V98.3829ZM135.358 96.0789H137.79V105.602L144.446 96.0789H147.134V108.879H144.702V99.3557L138.046 108.879H135.358V96.0789ZM162.267 108.905H159.835V98.3829H154.356V100.713C154.356 102.539 154.254 104.032 154.049 105.193C153.861 106.353 153.46 107.283 152.846 107.983C152.231 108.666 151.318 109.007 150.107 109.007C149.782 109.007 149.432 108.964 149.057 108.879V106.626C149.364 106.677 149.637 106.703 149.876 106.703C150.422 106.703 150.832 106.532 151.105 106.191C151.395 105.85 151.6 105.244 151.719 104.373C151.839 103.486 151.899 102.189 151.899 100.482V96.0789H162.267V108.905ZM172.313 101.148C173.661 101.148 174.711 101.515 175.462 102.249C176.23 102.965 176.614 103.887 176.614 105.013C176.614 106.14 176.23 107.07 175.462 107.804C174.711 108.521 173.661 108.879 172.313 108.879H165.99V96.0789H168.422V101.148H172.313ZM171.98 106.754C172.68 106.754 173.209 106.609 173.568 106.319C173.926 106.029 174.105 105.594 174.105 105.013C174.105 104.433 173.926 103.998 173.568 103.708C173.209 103.418 172.68 103.273 171.98 103.273H168.422V106.754H171.98ZM197.265 108.905H194.833V98.3829H189.354V100.713C189.354 102.539 189.252 104.032 189.047 105.193C188.859 106.353 188.458 107.283 187.844 107.983C187.229 108.666 186.316 109.007 185.105 109.007C184.78 109.007 184.43 108.964 184.055 108.879V106.626C184.362 106.677 184.635 106.703 184.874 106.703C185.42 106.703 185.83 106.532 186.103 106.191C186.393 105.85 186.598 105.244 186.717 104.373C186.837 103.486 186.897 102.189 186.897 100.482V96.0789H197.265V108.905ZM206.646 109.135C205.383 109.135 204.231 108.845 203.19 108.265C202.149 107.667 201.329 106.865 200.732 105.858C200.135 104.834 199.836 103.708 199.836 102.479C199.836 101.25 200.135 100.132 200.732 99.1253C201.329 98.1013 202.149 97.2992 203.19 96.7189C204.231 96.1216 205.383 95.8229 206.646 95.8229C207.891 95.8229 209.026 96.1216 210.05 96.7189C211.091 97.2992 211.911 98.1013 212.508 99.1253C213.105 100.132 213.404 101.25 213.404 102.479C213.404 103.708 213.105 104.834 212.508 105.858C211.911 106.865 211.091 107.667 210.05 108.265C209.026 108.845 207.891 109.135 206.646 109.135ZM206.646 106.882C207.431 106.882 208.147 106.694 208.796 106.319C209.445 105.926 209.957 105.397 210.332 104.732C210.707 104.049 210.895 103.298 210.895 102.479C210.895 101.66 210.707 100.917 210.332 100.252C209.957 99.569 209.445 99.04 208.796 98.6645C208.147 98.272 207.431 98.0757 206.646 98.0757C205.843 98.0757 205.11 98.272 204.444 98.6645C203.795 99.04 203.283 99.569 202.908 100.252C202.533 100.917 202.345 101.66 202.345 102.479C202.345 103.298 202.533 104.049 202.908 104.732C203.283 105.397 203.795 105.926 204.444 106.319C205.11 106.694 205.843 106.882 206.646 106.882ZM226.805 96.0789C228.034 96.0789 229.161 96.3605 230.185 96.9237C231.209 97.4869 232.011 98.2634 232.591 99.2533C233.188 100.226 233.487 101.301 233.487 102.479C233.487 103.657 233.188 104.74 232.591 105.73C232.011 106.703 231.209 107.471 230.185 108.034C229.161 108.597 228.034 108.879 226.805 108.879H225.423V113.231H222.991V108.879H221.66C220.414 108.879 219.279 108.597 218.255 108.034C217.231 107.471 216.42 106.703 215.823 105.73C215.226 104.74 214.927 103.657 214.927 102.479C214.927 101.301 215.226 100.226 215.823 99.2533C216.42 98.2634 217.231 97.4869 218.255 96.9237C219.279 96.3605 220.414 96.0789 221.66 96.0789H222.991V90.8309H225.423V96.0789H226.805ZM222.991 106.626V98.3317H221.737C220.934 98.3317 220.201 98.5194 219.535 98.8949C218.886 99.2533 218.374 99.7482 217.999 100.38C217.624 101.011 217.436 101.711 217.436 102.479C217.436 103.247 217.624 103.947 217.999 104.578C218.374 105.21 218.886 105.713 219.535 106.089C220.201 106.447 220.934 106.626 221.737 106.626H222.991ZM226.729 106.626C227.514 106.626 228.23 106.447 228.879 106.089C229.528 105.713 230.04 105.21 230.415 104.578C230.79 103.947 230.978 103.247 230.978 102.479C230.978 101.711 230.79 101.011 230.415 100.38C230.04 99.7482 229.528 99.2533 228.879 98.8949C228.23 98.5194 227.514 98.3317 226.729 98.3317H225.423V106.626H226.729ZM245.273 98.3829H240.793V108.879H238.361V98.3829H233.881V96.0789H245.273V98.3829ZM13.568 138.879H11.136V128.383H4.48V138.879H2.048V126.079H13.568V138.879ZM24.0474 125.823C25.1738 125.823 26.1978 126.113 27.1194 126.693C28.041 127.257 28.7663 128.042 29.2954 129.049C29.8245 130.055 30.089 131.199 30.089 132.479C30.089 133.759 29.8245 134.902 29.2954 135.909C28.7663 136.916 28.041 137.71 27.1194 138.29C26.1978 138.853 25.1738 139.135 24.0474 139.135C23.1941 139.135 22.3919 138.947 21.641 138.572C20.8901 138.179 20.2501 137.642 19.721 136.959V143.231H17.289V126.079H19.593V128.153C20.1391 127.419 20.7962 126.847 21.5642 126.437C22.3322 126.028 23.1599 125.823 24.0474 125.823ZM23.6378 136.882C24.3887 136.882 25.0629 136.694 25.6602 136.319C26.2575 135.943 26.7269 135.423 27.0682 134.757C27.4095 134.075 27.5802 133.315 27.5802 132.479C27.5802 131.643 27.4095 130.892 27.0682 130.226C26.7269 129.543 26.2575 129.014 25.6602 128.639C25.0629 128.263 24.3887 128.076 23.6378 128.076C22.8869 128.076 22.2042 128.263 21.5898 128.639C20.9754 129.014 20.4975 129.543 20.1562 130.226C19.8149 130.892 19.6442 131.643 19.6442 132.479C19.6442 133.315 19.8149 134.075 20.1562 134.757C20.4975 135.423 20.9754 135.943 21.5898 136.319C22.2042 136.694 22.8869 136.882 23.6378 136.882ZM38.4376 139.135C37.1747 139.135 36.0227 138.845 34.9816 138.265C33.9405 137.667 33.1213 136.865 32.524 135.858C31.9267 134.834 31.628 133.708 31.628 132.479C31.628 131.25 31.9267 130.132 32.524 129.125C33.1213 128.101 33.9405 127.299 34.9816 126.719C36.0227 126.122 37.1747 125.823 38.4376 125.823C39.6835 125.823 40.8184 126.122 41.8424 126.719C42.8835 127.299 43.7027 128.101 44.3 129.125C44.8973 130.132 45.196 131.25 45.196 132.479C45.196 133.708 44.8973 134.834 44.3 135.858C43.7027 136.865 42.8835 137.667 41.8424 138.265C40.8184 138.845 39.6835 139.135 38.4376 139.135ZM38.4376 136.882C39.2227 136.882 39.9395 136.694 40.588 136.319C41.2365 135.926 41.7485 135.397 42.124 134.732C42.4995 134.049 42.6872 133.298 42.6872 132.479C42.6872 131.66 42.4995 130.917 42.124 130.252C41.7485 129.569 41.2365 129.04 40.588 128.665C39.9395 128.272 39.2227 128.076 38.4376 128.076C37.6355 128.076 36.9016 128.272 36.236 128.665C35.5875 129.04 35.0755 129.569 34.7 130.252C34.3245 130.917 34.1368 131.66 34.1368 132.479C34.1368 133.298 34.3245 134.049 34.7 134.732C35.0755 135.397 35.5875 135.926 36.236 136.319C36.9016 136.694 37.6355 136.882 38.4376 136.882ZM47.746 126.079H50.178V135.602L56.834 126.079H59.522V138.879H57.09V129.356L50.434 138.879H47.746V126.079ZM64.261 134.834C64.4829 135.585 64.8925 136.14 65.4898 136.498C66.1042 136.857 66.9063 137.036 67.8962 137.036C68.8178 137.036 69.5602 136.874 70.1234 136.549C70.6866 136.208 70.9682 135.773 70.9682 135.244C70.9682 134.783 70.7634 134.39 70.3538 134.066C69.9442 133.725 69.2445 133.554 68.2546 133.554H66.0274V131.455H68.1522C69.0397 131.455 69.6711 131.293 70.0466 130.969C70.4391 130.644 70.6354 130.252 70.6354 129.791C70.6354 129.211 70.3709 128.75 69.8418 128.409C69.3298 128.067 68.6215 127.897 67.717 127.897C66.8466 127.897 66.1213 128.059 65.541 128.383C64.9778 128.707 64.6109 129.219 64.4402 129.919H62.0338C62.2557 128.639 62.8957 127.641 63.9538 126.924C65.0119 126.19 66.2663 125.823 67.717 125.823C69.3213 125.823 70.6183 126.173 71.6082 126.873C72.5981 127.555 73.093 128.46 73.093 129.586C73.093 130.149 72.9394 130.678 72.6322 131.173C72.325 131.651 71.8642 132.035 71.2498 132.325C72.6663 132.889 73.3746 133.853 73.3746 135.218C73.3746 136.396 72.8626 137.343 71.8386 138.06C70.8317 138.777 69.4578 139.135 67.717 139.135C66.1469 139.135 64.8157 138.751 63.7234 137.983C62.6311 137.215 61.9997 136.165 61.829 134.834H64.261ZM84.7356 132.351C85.9985 132.982 86.63 133.955 86.63 135.269C86.63 136.327 86.246 137.198 85.478 137.881C84.71 138.546 83.6519 138.879 82.3036 138.879H75.878V126.079H82.3036C83.5836 126.079 84.5905 126.412 85.3244 127.077C86.0753 127.726 86.4508 128.554 86.4508 129.561C86.4508 130.158 86.3057 130.704 86.0156 131.199C85.7425 131.677 85.3159 132.061 84.7356 132.351ZM82.022 131.404C82.6535 131.404 83.1313 131.259 83.4556 130.969C83.7799 130.678 83.942 130.252 83.942 129.689C83.942 128.647 83.302 128.127 82.022 128.127H78.2588V131.404H82.022ZM82.0476 136.831C82.7303 136.831 83.2423 136.686 83.5836 136.396C83.942 136.089 84.1212 135.653 84.1212 135.09C84.1212 134.561 83.942 134.16 83.5836 133.887C83.2423 133.597 82.7303 133.452 82.0476 133.452H78.2588V136.831H82.0476ZM94.9766 139.135C93.7137 139.135 92.5617 138.845 91.5206 138.265C90.4795 137.667 89.6603 136.865 89.063 135.858C88.4657 134.834 88.167 133.708 88.167 132.479C88.167 131.25 88.4657 130.132 89.063 129.125C89.6603 128.101 90.4795 127.299 91.5206 126.719C92.5617 126.122 93.7137 125.823 94.9766 125.823C96.2225 125.823 97.3574 126.122 98.3814 126.719C99.4225 127.299 100.242 128.101 100.839 129.125C101.436 130.132 101.735 131.25 101.735 132.479C101.735 133.708 101.436 134.834 100.839 135.858C100.242 136.865 99.4225 137.667 98.3814 138.265C97.3574 138.845 96.2225 139.135 94.9766 139.135ZM94.9766 136.882C95.7617 136.882 96.4785 136.694 97.127 136.319C97.7755 135.926 98.2875 135.397 98.663 134.732C99.0385 134.049 99.2262 133.298 99.2262 132.479C99.2262 131.66 99.0385 130.917 98.663 130.252C98.2875 129.569 97.7755 129.04 97.127 128.665C96.4785 128.272 95.7617 128.076 94.9766 128.076C94.1745 128.076 93.4406 128.272 92.775 128.665C92.1265 129.04 91.6145 129.569 91.239 130.252C90.8635 130.917 90.6758 131.66 90.6758 132.479C90.6758 133.298 90.8635 134.049 91.239 134.732C91.6145 135.397 92.1265 135.926 92.775 136.319C93.4406 136.694 94.1745 136.882 94.9766 136.882ZM116.989 136.575V141.695H114.633V138.879H104.854V141.695H102.499V136.575H104.137C104.496 135.551 104.675 133.588 104.675 130.687V126.079H115.197V136.575H116.989ZM112.765 136.626V128.332H107.107V130.61C107.107 133.17 106.911 135.175 106.518 136.626H112.765ZM119.176 126.079H121.608V135.602L128.264 126.079H130.952V138.879H128.52V129.356L121.864 138.879H119.176V126.079ZM144.395 128.383H139.915V138.879H137.483V128.383H133.003V126.079H144.395V128.383ZM152.756 131.148C154.104 131.148 155.154 131.515 155.905 132.249C156.673 132.965 157.057 133.887 157.057 135.013C157.057 136.14 156.673 137.07 155.905 137.804C155.154 138.521 154.104 138.879 152.756 138.879H146.433V126.079H148.865V131.148H152.756ZM152.423 136.754C153.123 136.754 153.652 136.609 154.011 136.319C154.369 136.029 154.548 135.594 154.548 135.013C154.548 134.433 154.369 133.998 154.011 133.708C153.652 133.418 153.123 133.273 152.423 133.273H148.865V136.754H152.423ZM182.162 138.879H179.73V129.023L174.226 138.879L168.722 129.074V138.879H166.29V126.079H169.618L174.277 134.45L178.885 126.079H182.162V138.879ZM191.283 125.823C192.597 125.823 193.74 126.105 194.713 126.668C195.703 127.231 196.462 128.033 196.991 129.074C197.52 130.098 197.785 131.301 197.785 132.684C197.785 133.042 197.776 133.307 197.759 133.477H187.263C187.434 134.467 187.895 135.286 188.646 135.935C189.414 136.566 190.301 136.882 191.308 136.882C192.964 136.882 194.141 136.276 194.841 135.065H197.35C196.94 136.259 196.181 137.241 195.071 138.009C193.962 138.759 192.708 139.135 191.308 139.135C190.062 139.135 188.936 138.853 187.929 138.29C186.922 137.71 186.137 136.916 185.574 135.909C185.011 134.885 184.729 133.742 184.729 132.479C184.729 131.216 185.011 130.081 185.574 129.074C186.137 128.05 186.914 127.257 187.903 126.693C188.91 126.113 190.037 125.823 191.283 125.823ZM191.231 127.973C190.224 127.973 189.354 128.289 188.62 128.921C187.903 129.552 187.46 130.363 187.289 131.353H195.148C195.046 130.329 194.628 129.509 193.894 128.895C193.177 128.281 192.29 127.973 191.231 127.973ZM206.44 126.463C207.6 126.463 208.667 126.745 209.64 127.308C210.613 127.854 211.372 128.605 211.918 129.561C212.481 130.516 212.763 131.574 212.763 132.735C212.763 133.913 212.473 134.996 211.893 135.986C211.329 136.959 210.544 137.727 209.537 138.29C208.548 138.853 207.455 139.135 206.261 139.135C205.049 139.135 203.94 138.853 202.933 138.29C201.943 137.71 201.158 136.908 200.577 135.884C199.997 134.86 199.707 133.699 199.707 132.402V127.487C199.707 125.883 200.108 124.679 200.91 123.877C201.729 123.058 202.881 122.555 204.366 122.367L208.949 121.778C209.375 121.727 209.589 121.514 209.589 121.138V120.831H212.046V121.445C212.046 122.145 211.824 122.708 211.381 123.135C210.954 123.545 210.45 123.783 209.87 123.852L204.597 124.543C203.641 124.662 202.933 124.927 202.472 125.337C202.028 125.729 201.806 126.352 201.806 127.205V128.997C202.335 128.195 203.001 127.572 203.803 127.129C204.622 126.685 205.501 126.463 206.44 126.463ZM206.184 136.882C206.935 136.882 207.617 136.703 208.232 136.345C208.863 135.969 209.358 135.466 209.717 134.834C210.075 134.203 210.254 133.503 210.254 132.735C210.254 131.967 210.075 131.267 209.717 130.636C209.358 130.004 208.863 129.509 208.232 129.151C207.617 128.775 206.935 128.588 206.184 128.588C205.416 128.588 204.716 128.775 204.085 129.151C203.453 129.509 202.958 130.004 202.6 130.636C202.241 131.267 202.062 131.967 202.062 132.735C202.062 133.503 202.241 134.203 202.6 134.834C202.958 135.466 203.453 135.969 204.085 136.345C204.716 136.703 205.416 136.882 206.184 136.882ZM220.84 125.823C222.154 125.823 223.297 126.105 224.27 126.668C225.26 127.231 226.019 128.033 226.548 129.074C227.077 130.098 227.342 131.301 227.342 132.684C227.342 133.042 227.333 133.307 227.316 133.477H216.82C216.991 134.467 217.452 135.286 218.203 135.935C218.971 136.566 219.858 136.882 220.865 136.882C222.521 136.882 223.698 136.276 224.398 135.065H226.907C226.497 136.259 225.738 137.241 224.628 138.009C223.519 138.759 222.265 139.135 220.865 139.135C219.619 139.135 218.493 138.853 217.486 138.29C216.479 137.71 215.694 136.916 215.131 135.909C214.568 134.885 214.286 133.742 214.286 132.479C214.286 131.216 214.568 130.081 215.131 129.074C215.694 128.05 216.471 127.257 217.46 126.693C218.467 126.113 219.594 125.823 220.84 125.823ZM220.788 127.973C219.781 127.973 218.911 128.289 218.177 128.921C217.46 129.552 217.017 130.363 216.846 131.353H224.705C224.603 130.329 224.185 129.509 223.451 128.895C222.734 128.281 221.847 127.973 220.788 127.973ZM241.072 138.905H238.64V128.383H233.161V130.713C233.161 132.539 233.059 134.032 232.854 135.193C232.666 136.353 232.265 137.283 231.651 137.983C231.036 138.666 230.123 139.007 228.912 139.007C228.587 139.007 228.237 138.964 227.862 138.879V136.626C228.169 136.677 228.442 136.703 228.681 136.703C229.227 136.703 229.637 136.532 229.91 136.191C230.2 135.85 230.405 135.244 230.524 134.373C230.644 133.486 230.704 132.189 230.704 130.482V126.079H241.072V138.905ZM251.118 131.148C252.466 131.148 253.516 131.515 254.267 132.249C255.035 132.965 255.419 133.887 255.419 135.013C255.419 136.14 255.035 137.07 254.267 137.804C253.516 138.521 252.466 138.879 251.118 138.879H244.795V126.079H247.227V131.148H251.118ZM250.785 136.754C251.485 136.754 252.014 136.609 252.373 136.319C252.731 136.029 252.91 135.594 252.91 135.013C252.91 134.433 252.731 133.998 252.373 133.708C252.014 133.418 251.485 133.273 250.785 133.273H247.227V136.754H250.785Z" fill="#FFD600"/>
</svg>
