<svg width="490" height="29" viewBox="0 0 490 29" fill="none" xmlns="http://www.w3.org/2000/svg">
<path d="M26.7794 22.8789H23.5794V4.4789L15.0674 22.8789H11.8674L3.41937 4.6389V22.8789H0.219371V0.478905H4.89137L13.5634 19.1029L22.2034 0.478905H26.7794V22.8789ZM39.6359 13.2149C41.3212 13.2149 42.6332 13.6736 43.5719 14.5909C44.5319 15.4869 45.0119 16.6389 45.0119 18.0469C45.0119 19.4549 44.5319 20.6176 43.5719 21.5349C42.6332 22.4309 41.3212 22.8789 39.6359 22.8789H31.7319V6.87891H34.7719V13.2149H39.6359ZM39.2199 20.2229C40.0945 20.2229 40.7559 20.0416 41.2039 19.6789C41.6519 19.3162 41.8759 18.7722 41.8759 18.0469C41.8759 17.3216 41.6519 16.7776 41.2039 16.4149C40.7559 16.0522 40.0945 15.8709 39.2199 15.8709H34.7719V20.2229H39.2199ZM50.9319 6.87891V22.8789H47.8919V6.87891H50.9319Z" fill="#FFD600"/>
<path d="M71.1251 23.1989C69.5465 23.1989 68.1065 22.8362 66.8051 22.1109C65.5038 21.3642 64.4798 20.3616 63.7331 19.1029C62.9865 17.8229 62.6131 16.4149 62.6131 14.8789C62.6131 13.3429 62.9865 11.9456 63.7331 10.6869C64.4798 9.40691 65.5038 8.40424 66.8051 7.67891C68.1065 6.93224 69.5465 6.5589 71.1251 6.5589C72.6825 6.5589 74.1011 6.93224 75.3811 7.67891C76.6825 8.40424 77.7065 9.40691 78.4531 10.6869C79.1998 11.9456 79.5731 13.3429 79.5731 14.8789C79.5731 16.4149 79.1998 17.8229 78.4531 19.1029C77.7065 20.3616 76.6825 21.3642 75.3811 22.1109C74.1011 22.8362 72.6825 23.1989 71.1251 23.1989ZM71.1251 20.3829C72.1065 20.3829 73.0025 20.1482 73.8131 19.6789C74.6238 19.1882 75.2638 18.5269 75.7331 17.6949C76.2025 16.8416 76.4371 15.9029 76.4371 14.8789C76.4371 13.8549 76.2025 12.9269 75.7331 12.0949C75.2638 11.2416 74.6238 10.5802 73.8131 10.1109C73.0025 9.62024 72.1065 9.37491 71.1251 9.37491C70.1225 9.37491 69.2051 9.62024 68.3731 10.1109C67.5625 10.5802 66.9225 11.2416 66.4531 12.0949C65.9838 12.9269 65.7491 13.8549 65.7491 14.8789C65.7491 15.9029 65.9838 16.8416 66.4531 17.6949C66.9225 18.5269 67.5625 19.1882 68.3731 19.6789C69.2051 20.1482 70.1225 20.3829 71.1251 20.3829ZM94.2956 9.75891H88.6956V22.8789H85.6556V9.75891H80.0556V6.87891H94.2956V9.75891ZM109.858 22.8789H106.818V9.75891H101.218C101.197 12.8736 100.952 15.4016 100.482 17.3429C100.013 19.2629 99.2877 20.6816 98.3064 21.5989C97.3464 22.5162 96.0877 22.9749 94.5304 22.9749C94.1677 22.9749 93.869 22.9429 93.6344 22.8789V20.0949C93.933 20.1376 94.157 20.1589 94.3064 20.1589C95.245 20.1589 95.9917 19.8069 96.5464 19.1029C97.1224 18.3776 97.5384 17.2362 97.7944 15.6789C98.0504 14.1002 98.1784 12.0096 98.1784 9.40691V6.87891H109.858V22.8789ZM128.888 6.87891V22.8789H125.848V13.0229L117.528 20.0629V22.8789H114.488V6.87891H117.528V16.5429L125.848 9.50291V6.87891H128.888ZM146.019 6.87891V22.8789H142.979V16.6709H137.859C136.217 16.6709 134.926 16.1909 133.987 15.2309C133.049 14.2709 132.579 13.0442 132.579 11.5509V6.87891H135.619V11.4549C135.619 12.2869 135.833 12.9056 136.259 13.3109C136.707 13.7162 137.401 13.9189 138.339 13.9189H142.979V6.87891H146.019ZM165.053 19.9989V22.8789H163.517C162.728 22.8789 162.109 22.6869 161.661 22.3029C161.213 21.8976 160.946 21.3216 160.861 20.5749C160.178 21.3642 159.293 22.0042 158.205 22.4949C157.138 22.9642 156.008 23.1989 154.813 23.1989C153.085 23.1989 151.741 22.7722 150.781 21.9189C149.842 21.0656 149.373 19.9242 149.373 18.4949C149.373 17.1936 149.885 16.0842 150.909 15.1669C151.933 14.2282 153.373 13.6629 155.229 13.4709L157.021 13.2789C158.024 13.1722 158.77 13.0442 159.261 12.8949C159.752 12.7242 160.061 12.5429 160.189 12.3509C160.338 12.1589 160.413 11.9029 160.413 11.5829C160.413 10.8576 160.061 10.2922 159.357 9.88691C158.674 9.46024 157.725 9.24691 156.509 9.24691C155.72 9.24691 154.962 9.46024 154.237 9.88691C153.512 10.2922 153.01 10.8789 152.733 11.6469H149.501C149.8 10.1536 150.61 8.93757 151.933 7.99891C153.256 7.0389 154.834 6.5589 156.669 6.5589C158.696 6.5589 160.36 7.11357 161.661 8.22291C162.962 9.33224 163.613 10.9216 163.613 12.9909V19.1349C163.613 19.4122 163.688 19.6256 163.837 19.7749C163.986 19.9242 164.189 19.9989 164.445 19.9989H165.053ZM155.133 20.5749C156.136 20.5749 157.074 20.3722 157.949 19.9669C158.824 19.5402 159.517 18.9856 160.029 18.3029C160.562 17.5989 160.829 16.8522 160.829 16.0629V14.6229C160.104 15.1776 158.952 15.5402 157.373 15.7109L155.581 15.9029C154.386 16.0309 153.554 16.3189 153.085 16.7669C152.616 17.2149 152.381 17.7802 152.381 18.4629C152.381 19.1029 152.616 19.6149 153.085 19.9989C153.576 20.3829 154.258 20.5749 155.133 20.5749ZM174.988 6.5589C176.63 6.5589 178.06 6.9109 179.276 7.61491C180.513 8.31891 181.462 9.32157 182.124 10.6229C182.785 11.9029 183.116 13.4069 183.116 15.1349C183.116 15.5829 183.105 15.9136 183.084 16.1269H169.964C170.177 17.3642 170.753 18.3882 171.692 19.1989C172.652 19.9882 173.761 20.3829 175.02 20.3829C177.089 20.3829 178.561 19.6256 179.436 18.1109H182.572C182.06 19.6042 181.11 20.8309 179.724 21.7909C178.337 22.7296 176.769 23.1989 175.02 23.1989C173.462 23.1989 172.054 22.8469 170.796 22.1429C169.537 21.4176 168.556 20.4256 167.852 19.1669C167.148 17.8869 166.796 16.4576 166.796 14.8789C166.796 13.3002 167.148 11.8816 167.852 10.6229C168.556 9.34291 169.526 8.35091 170.764 7.64691C172.022 6.92157 173.43 6.5589 174.988 6.5589ZM174.924 9.24691C173.665 9.24691 172.577 9.64157 171.66 10.4309C170.764 11.2202 170.209 12.2336 169.996 13.4709H179.82C179.692 12.1909 179.169 11.1669 178.252 10.3989C177.356 9.63091 176.246 9.24691 174.924 9.24691ZM206.158 22.8789H203.118V11.1989L197.742 22.8789H194.734L189.358 11.2949V22.8789H186.318V6.87891H190.478L196.302 19.7109L202.062 6.87891H206.158V22.8789ZM209.367 14.8789C209.367 13.3429 209.74 11.9456 210.487 10.6869C211.234 9.40691 212.258 8.40424 213.559 7.67891C214.86 6.93224 216.3 6.5589 217.879 6.5589C219.65 6.5589 221.239 7.08157 222.647 8.12691C224.076 9.15091 225.015 10.4949 225.463 12.1589H222.135C221.772 11.3056 221.186 10.6336 220.375 10.1429C219.586 9.63091 218.7 9.37491 217.719 9.37491C216.716 9.37491 215.82 9.62024 215.031 10.1109C214.242 10.5802 213.623 11.2416 213.175 12.0949C212.727 12.9269 212.503 13.8549 212.503 14.8789C212.503 15.9029 212.727 16.8416 213.175 17.6949C213.623 18.5269 214.242 19.1882 215.031 19.6789C215.82 20.1482 216.716 20.3829 217.719 20.3829C218.7 20.3829 219.586 20.1376 220.375 19.6469C221.186 19.1349 221.772 18.4522 222.135 17.5989H225.463C225.015 19.2629 224.076 20.6176 222.647 21.6629C221.239 22.6869 219.65 23.1989 217.879 23.1989C216.3 23.1989 214.86 22.8362 213.559 22.1109C212.258 21.3642 211.234 20.3616 210.487 19.1029C209.74 17.8229 209.367 16.4149 209.367 14.8789ZM241.03 22.8789H237.99V16.8629H232.742C231.761 16.8629 231.27 17.3642 231.27 18.3669V19.6469C231.27 20.7136 231.003 21.5242 230.47 22.0789C229.958 22.6122 229.201 22.8789 228.198 22.8789H226.854V19.9669H227.462C227.697 19.9669 227.878 19.9029 228.006 19.7749C228.155 19.6256 228.23 19.4336 228.23 19.1989V17.8869C228.23 16.6922 228.795 15.8496 229.926 15.3589C229.222 14.9536 228.678 14.4202 228.294 13.7589C227.931 13.0976 227.75 12.3616 227.75 11.5509C227.75 10.1856 228.219 9.06557 229.158 8.19091C230.118 7.31624 231.441 6.87891 233.126 6.87891H241.03V22.8789ZM233.542 9.59891C232.667 9.59891 232.006 9.80157 231.558 10.2069C231.11 10.5909 230.886 11.1562 230.886 11.9029C230.886 12.6496 231.11 13.2256 231.558 13.6309C232.006 14.0149 232.667 14.2069 233.542 14.2069H237.99V9.59891H233.542ZM261.22 23.1989C259.641 23.1989 258.201 22.8362 256.9 22.1109C255.599 21.3642 254.575 20.3616 253.828 19.1029C253.081 17.8229 252.708 16.4149 252.708 14.8789C252.708 13.3429 253.081 11.9456 253.828 10.6869C254.575 9.40691 255.599 8.40424 256.9 7.67891C258.201 6.93224 259.641 6.5589 261.22 6.5589C262.777 6.5589 264.196 6.93224 265.476 7.67891C266.777 8.40424 267.801 9.40691 268.548 10.6869C269.295 11.9456 269.668 13.3429 269.668 14.8789C269.668 16.4149 269.295 17.8229 268.548 19.1029C267.801 20.3616 266.777 21.3642 265.476 22.1109C264.196 22.8362 262.777 23.1989 261.22 23.1989ZM261.22 20.3829C262.201 20.3829 263.097 20.1482 263.908 19.6789C264.719 19.1882 265.359 18.5269 265.828 17.6949C266.297 16.8416 266.532 15.9029 266.532 14.8789C266.532 13.8549 266.297 12.9269 265.828 12.0949C265.359 11.2416 264.719 10.5802 263.908 10.1109C263.097 9.62024 262.201 9.37491 261.22 9.37491C260.217 9.37491 259.3 9.62024 258.468 10.1109C257.657 10.5802 257.017 11.2416 256.548 12.0949C256.079 12.9269 255.844 13.8549 255.844 14.8789C255.844 15.9029 256.079 16.8416 256.548 17.6949C257.017 18.5269 257.657 19.1882 258.468 19.6789C259.3 20.1482 260.217 20.3829 261.22 20.3829ZM284.391 9.75891H278.791V22.8789H275.751V9.75891H270.151V6.87891H284.391V9.75891ZM309.955 19.9669V22.8789H308.675C307.672 22.8789 306.904 22.6122 306.371 22.0789C305.859 21.5242 305.603 20.7136 305.603 19.6469V17.6309C305.603 16.6282 305.112 16.1269 304.131 16.1269H298.467V22.8789H295.427V6.87891H298.467V13.5029H303.715C304.291 13.5029 304.728 13.3536 305.027 13.0549C305.347 12.7562 305.507 12.3082 305.507 11.7109V9.95091C305.507 7.90291 306.467 6.87891 308.387 6.87891H309.763V9.79091H309.155C308.92 9.79091 308.728 9.86557 308.579 10.0149C308.451 10.1429 308.387 10.3242 308.387 10.5589V12.2869C308.387 13.4602 307.96 14.2922 307.107 14.7829C308.088 15.2522 308.579 16.0629 308.579 17.2149V19.1989C308.579 19.4336 308.643 19.6256 308.771 19.7749C308.92 19.9029 309.112 19.9669 309.347 19.9669H309.955ZM320.894 23.1989C319.315 23.1989 317.875 22.8362 316.574 22.1109C315.273 21.3642 314.249 20.3616 313.502 19.1029C312.755 17.8229 312.382 16.4149 312.382 14.8789C312.382 13.3429 312.755 11.9456 313.502 10.6869C314.249 9.40691 315.273 8.40424 316.574 7.67891C317.875 6.93224 319.315 6.5589 320.894 6.5589C322.451 6.5589 323.87 6.93224 325.15 7.67891C326.451 8.40424 327.475 9.40691 328.222 10.6869C328.969 11.9456 329.342 13.3429 329.342 14.8789C329.342 16.4149 328.969 17.8229 328.222 19.1029C327.475 20.3616 326.451 21.3642 325.15 22.1109C323.87 22.8362 322.451 23.1989 320.894 23.1989ZM320.894 20.3829C321.875 20.3829 322.771 20.1482 323.582 19.6789C324.393 19.1882 325.033 18.5269 325.502 17.6949C325.971 16.8416 326.206 15.9029 326.206 14.8789C326.206 13.8549 325.971 12.9269 325.502 12.0949C325.033 11.2416 324.393 10.5802 323.582 10.1109C322.771 9.62024 321.875 9.37491 320.894 9.37491C319.891 9.37491 318.974 9.62024 318.142 10.1109C317.331 10.5802 316.691 11.2416 316.222 12.0949C315.753 12.9269 315.518 13.8549 315.518 14.8789C315.518 15.9029 315.753 16.8416 316.222 17.6949C316.691 18.5269 317.331 19.1882 318.142 19.6789C318.974 20.1482 319.891 20.3829 320.894 20.3829ZM346.929 6.87891V22.8789H343.889V16.3189H335.569V22.8789H332.529V6.87891H335.569V13.4389H343.889V6.87891H346.929ZM366.109 19.9669V22.8789H364.829C363.826 22.8789 363.058 22.6122 362.525 22.0789C362.013 21.5242 361.757 20.7136 361.757 19.6469V17.6309C361.757 16.6282 361.266 16.1269 360.285 16.1269H354.621V22.8789H351.581V6.87891H354.621V13.5029H359.869C360.445 13.5029 360.882 13.3536 361.181 13.0549C361.501 12.7562 361.661 12.3082 361.661 11.7109V9.95091C361.661 7.90291 362.621 6.87891 364.541 6.87891H365.917V9.79091H365.309C365.074 9.79091 364.882 9.86557 364.733 10.0149C364.605 10.1429 364.541 10.3242 364.541 10.5589V12.2869C364.541 13.4602 364.114 14.2922 363.261 14.7829C364.242 15.2522 364.733 16.0629 364.733 17.2149V19.1989C364.733 19.4336 364.797 19.6256 364.925 19.7749C365.074 19.9029 365.266 19.9669 365.501 19.9669H366.109ZM384.15 6.87891L376.374 24.6709C375.969 25.7589 375.404 26.6442 374.678 27.3269C373.953 28.0309 372.886 28.3829 371.478 28.3829C370.476 28.3829 369.697 28.3616 369.142 28.3189V25.4389C369.74 25.4816 370.454 25.5029 371.286 25.5029C371.884 25.5029 372.353 25.3429 372.694 25.0229C373.057 24.7029 373.356 24.2656 373.59 23.7109L374.07 22.5909L366.294 6.87891H369.846L375.574 19.1669L380.95 6.87891H384.15ZM395.1 6.5589C396.508 6.5589 397.788 6.92157 398.94 7.64691C400.092 8.35091 400.999 9.33224 401.66 10.5909C402.321 11.8496 402.652 13.2789 402.652 14.8789C402.652 16.4789 402.321 17.9082 401.66 19.1669C400.999 20.4256 400.092 21.4176 398.94 22.1429C397.788 22.8469 396.508 23.1989 395.1 23.1989C394.033 23.1989 393.031 22.9642 392.092 22.4949C391.153 22.0042 390.353 21.3322 389.692 20.4789V28.3189H386.652V6.87891H389.532V9.47091C390.215 8.55357 391.036 7.83891 391.996 7.32691C392.956 6.8149 393.991 6.5589 395.1 6.5589ZM394.588 20.3829C395.527 20.3829 396.369 20.1482 397.116 19.6789C397.863 19.2096 398.449 18.5589 398.876 17.7269C399.303 16.8736 399.516 15.9242 399.516 14.8789C399.516 13.8336 399.303 12.8949 398.876 12.0629C398.449 11.2096 397.863 10.5482 397.116 10.0789C396.369 9.60957 395.527 9.37491 394.588 9.37491C393.649 9.37491 392.796 9.60957 392.028 10.0789C391.26 10.5482 390.663 11.2096 390.236 12.0629C389.809 12.8949 389.596 13.8336 389.596 14.8789C389.596 15.9242 389.809 16.8736 390.236 17.7269C390.663 18.5589 391.26 19.2096 392.028 19.6789C392.796 20.1482 393.649 20.3829 394.588 20.3829ZM412.768 6.5589C414.41 6.5589 415.84 6.9109 417.056 7.61491C418.293 8.31891 419.242 9.32157 419.904 10.6229C420.565 11.9029 420.896 13.4069 420.896 15.1349C420.896 15.5829 420.885 15.9136 420.864 16.1269H407.744C407.957 17.3642 408.533 18.3882 409.472 19.1989C410.432 19.9882 411.541 20.3829 412.8 20.3829C414.869 20.3829 416.341 19.6256 417.216 18.1109H420.352C419.84 19.6042 418.89 20.8309 417.504 21.7909C416.117 22.7296 414.549 23.1989 412.8 23.1989C411.242 23.1989 409.834 22.8469 408.576 22.1429C407.317 21.4176 406.336 20.4256 405.632 19.1669C404.928 17.8869 404.576 16.4576 404.576 14.8789C404.576 13.3002 404.928 11.8816 405.632 10.6229C406.336 9.34291 407.306 8.35091 408.544 7.64691C409.802 6.92157 411.21 6.5589 412.768 6.5589ZM412.704 9.24691C411.445 9.24691 410.357 9.64157 409.44 10.4309C408.544 11.2202 407.989 12.2336 407.776 13.4709H417.6C417.472 12.1909 416.949 11.1669 416.032 10.3989C415.136 9.63091 414.026 9.24691 412.704 9.24691ZM438.498 6.87891V22.8789H435.458V16.3189H427.138V22.8789H424.098V6.87891H427.138V13.4389H435.458V6.87891H438.498ZM455.309 9.75891H449.709V22.8789H446.669V9.75891H441.069V6.87891H455.309V9.75891ZM464.304 23.1989C462.725 23.1989 461.285 22.8362 459.984 22.1109C458.683 21.3642 457.659 20.3616 456.912 19.1029C456.165 17.8229 455.792 16.4149 455.792 14.8789C455.792 13.3429 456.165 11.9456 456.912 10.6869C457.659 9.40691 458.683 8.40424 459.984 7.67891C461.285 6.93224 462.725 6.5589 464.304 6.5589C465.861 6.5589 467.28 6.93224 468.56 7.67891C469.861 8.40424 470.885 9.40691 471.632 10.6869C472.379 11.9456 472.752 13.3429 472.752 14.8789C472.752 16.4149 472.379 17.8229 471.632 19.1029C470.885 20.3616 469.861 21.3642 468.56 22.1109C467.28 22.8362 465.861 23.1989 464.304 23.1989ZM464.304 20.3829C465.285 20.3829 466.181 20.1482 466.992 19.6789C467.803 19.1882 468.443 18.5269 468.912 17.6949C469.381 16.8416 469.616 15.9029 469.616 14.8789C469.616 13.8549 469.381 12.9269 468.912 12.0949C468.443 11.2416 467.803 10.5802 466.992 10.1109C466.181 9.62024 465.285 9.37491 464.304 9.37491C463.301 9.37491 462.384 9.62024 461.552 10.1109C460.741 10.5802 460.101 11.2416 459.632 12.0949C459.163 12.9269 458.928 13.8549 458.928 14.8789C458.928 15.9029 459.163 16.8416 459.632 17.6949C460.101 18.5269 460.741 19.1882 461.552 19.6789C462.384 20.1482 463.301 20.3829 464.304 20.3829ZM487.011 14.7189C488.59 15.5082 489.379 16.7242 489.379 18.3669C489.379 19.6896 488.899 20.7776 487.939 21.6309C486.979 22.4629 485.657 22.8789 483.971 22.8789H475.939V6.87891H483.971C485.571 6.87891 486.83 7.29491 487.747 8.12691C488.686 8.93757 489.155 9.97224 489.155 11.2309C489.155 11.9776 488.974 12.6602 488.611 13.2789C488.27 13.8762 487.737 14.3562 487.011 14.7189ZM483.619 13.5349C484.409 13.5349 485.006 13.3536 485.411 12.9909C485.817 12.6282 486.019 12.0949 486.019 11.3909C486.019 10.0896 485.219 9.43891 483.619 9.43891H478.915V13.5349H483.619ZM483.651 20.3189C484.505 20.3189 485.145 20.1376 485.571 19.7749C486.019 19.3909 486.243 18.8469 486.243 18.1429C486.243 17.4816 486.019 16.9802 485.571 16.6389C485.145 16.2762 484.505 16.0949 483.651 16.0949H478.915V20.3189H483.651Z" fill="white"/>
</svg>
