<svg width="657" height="74" viewBox="0 0 657 74" fill="none" xmlns="http://www.w3.org/2000/svg">
<path d="M20.08 0.478905V22.8789H16.88V13.2149H4.08V22.8789H0.88V0.478905H4.08V10.1429H16.88V0.478905H20.08ZM39.4488 19.9989V22.8789H37.9128C37.1234 22.8789 36.5048 22.6869 36.0568 22.3029C35.6088 21.8976 35.3421 21.3216 35.2568 20.5749C34.5741 21.3642 33.6888 22.0042 32.6008 22.4949C31.5341 22.9642 30.4034 23.1989 29.2088 23.1989C27.4808 23.1989 26.1368 22.7722 25.1768 21.9189C24.2381 21.0656 23.7688 19.9242 23.7688 18.4949C23.7688 17.1936 24.2808 16.0842 25.3048 15.1669C26.3288 14.2282 27.7688 13.6629 29.6248 13.4709L31.4168 13.2789C32.4194 13.1722 33.1661 13.0442 33.6568 12.8949C34.1474 12.7242 34.4568 12.5429 34.5848 12.3509C34.7341 12.1589 34.8088 11.9029 34.8088 11.5829C34.8088 10.8576 34.4568 10.2922 33.7528 9.88691C33.0701 9.46024 32.1208 9.24691 30.9048 9.24691C30.1154 9.24691 29.3581 9.46024 28.6328 9.88691C27.9074 10.2922 27.4061 10.8789 27.1288 11.6469H23.8968C24.1954 10.1536 25.0061 8.93757 26.3288 7.99891C27.6514 7.0389 29.2301 6.5589 31.0648 6.5589C33.0914 6.5589 34.7554 7.11357 36.0568 8.22291C37.3581 9.33224 38.0088 10.9216 38.0088 12.9909V19.1349C38.0088 19.4122 38.0834 19.6256 38.2328 19.7749C38.3821 19.9242 38.5848 19.9989 38.8408 19.9989H39.4488ZM29.5288 20.5749C30.5314 20.5749 31.4701 20.3722 32.3448 19.9669C33.2194 19.5402 33.9128 18.9856 34.4248 18.3029C34.9581 17.5989 35.2248 16.8522 35.2248 16.0629V14.6229C34.4994 15.1776 33.3474 15.5402 31.7688 15.7109L29.9768 15.9029C28.7821 16.0309 27.9501 16.3189 27.4808 16.7669C27.0114 17.2149 26.7768 17.7802 26.7768 18.4629C26.7768 19.1029 27.0114 19.6149 27.4808 19.9989C27.9714 20.3829 28.6541 20.5749 29.5288 20.5749ZM64.8713 6.87891V22.8789H42.6313V6.87891H45.6713V19.9989H52.2313V6.87891H55.2713V19.9989H61.8313V6.87891H64.8713ZM83.9262 6.87891V22.8789H80.8862V13.0229L72.5662 20.0629V22.8789H69.5262V6.87891H72.5662V16.5429L80.8862 9.50291V6.87891H83.9262ZM95.6262 14.8789C95.6262 13.3429 95.9996 11.9456 96.7462 10.6869C97.4929 9.40691 98.5169 8.40424 99.8182 7.67891C101.12 6.93224 102.56 6.5589 104.138 6.5589C105.909 6.5589 107.498 7.08157 108.906 8.12691C110.336 9.15091 111.274 10.4949 111.722 12.1589H108.394C108.032 11.3056 107.445 10.6336 106.634 10.1429C105.845 9.63091 104.96 9.37491 103.978 9.37491C102.976 9.37491 102.08 9.62024 101.29 10.1109C100.501 10.5802 99.8822 11.2416 99.4342 12.0949C98.9862 12.9269 98.7622 13.8549 98.7622 14.8789C98.7622 15.9029 98.9862 16.8416 99.4342 17.6949C99.8822 18.5269 100.501 19.1882 101.29 19.6789C102.08 20.1482 102.976 20.3829 103.978 20.3829C104.96 20.3829 105.845 20.1376 106.634 19.6469C107.445 19.1349 108.032 18.4522 108.394 17.5989H111.722C111.274 19.2629 110.336 20.6176 108.906 21.6629C107.498 22.6869 105.909 23.1989 104.138 23.1989C102.56 23.1989 101.12 22.8362 99.8182 22.1109C98.5169 21.3642 97.4929 20.3616 96.7462 19.1029C95.9996 17.8229 95.6262 16.4149 95.6262 14.8789ZM129.146 19.9669V22.8789H127.866C126.863 22.8789 126.095 22.6122 125.562 22.0789C125.05 21.5242 124.794 20.7136 124.794 19.6469V17.6309C124.794 16.6282 124.303 16.1269 123.322 16.1269H117.658V22.8789H114.618V6.87891H117.658V13.5029H122.906C123.482 13.5029 123.919 13.3536 124.218 13.0549C124.538 12.7562 124.698 12.3082 124.698 11.7109V9.95091C124.698 7.90291 125.658 6.87891 127.578 6.87891H128.954V9.79091H128.346C128.111 9.79091 127.919 9.86557 127.77 10.0149C127.642 10.1429 127.578 10.3242 127.578 10.5589V12.2869C127.578 13.4602 127.151 14.2922 126.298 14.7829C127.279 15.2522 127.77 16.0629 127.77 17.2149V19.1989C127.77 19.4336 127.834 19.6256 127.962 19.7749C128.111 19.9029 128.303 19.9669 128.538 19.9669H129.146ZM146.997 22.8789H143.957V9.75891H138.356C138.335 12.8736 138.09 15.4016 137.62 17.3429C137.151 19.2629 136.426 20.6816 135.444 21.5989C134.484 22.5162 133.226 22.9749 131.668 22.9749C131.306 22.9749 131.007 22.9429 130.772 22.8789V20.0949C131.071 20.1376 131.295 20.1589 131.444 20.1589C132.383 20.1589 133.13 19.8069 133.684 19.1029C134.26 18.3776 134.676 17.2362 134.932 15.6789C135.188 14.1002 135.316 12.0096 135.316 9.40691V6.87891H146.997V22.8789ZM166.026 19.9989V22.8789H164.49C163.701 22.8789 163.082 22.6869 162.634 22.3029C162.186 21.8976 161.92 21.3216 161.834 20.5749C161.152 21.3642 160.266 22.0042 159.178 22.4949C158.112 22.9642 156.981 23.1989 155.786 23.1989C154.058 23.1989 152.714 22.7722 151.754 21.9189C150.816 21.0656 150.346 19.9242 150.346 18.4949C150.346 17.1936 150.858 16.0842 151.882 15.1669C152.906 14.2282 154.346 13.6629 156.202 13.4709L157.994 13.2789C158.997 13.1722 159.744 13.0442 160.234 12.8949C160.725 12.7242 161.034 12.5429 161.162 12.3509C161.312 12.1589 161.386 11.9029 161.386 11.5829C161.386 10.8576 161.034 10.2922 160.33 9.88691C159.648 9.46024 158.698 9.24691 157.482 9.24691C156.693 9.24691 155.936 9.46024 155.21 9.88691C154.485 10.2922 153.984 10.8789 153.706 11.6469H150.474C150.773 10.1536 151.584 8.93757 152.906 7.99891C154.229 7.0389 155.808 6.5589 157.642 6.5589C159.669 6.5589 161.333 7.11357 162.634 8.22291C163.936 9.33224 164.586 10.9216 164.586 12.9909V19.1349C164.586 19.4122 164.661 19.6256 164.81 19.7749C164.96 19.9242 165.162 19.9989 165.418 19.9989H166.026ZM156.106 20.5749C157.109 20.5749 158.048 20.3722 158.922 19.9669C159.797 19.5402 160.49 18.9856 161.002 18.3029C161.536 17.5989 161.802 16.8522 161.802 16.0629V14.6229C161.077 15.1776 159.925 15.5402 158.346 15.7109L156.554 15.9029C155.36 16.0309 154.528 16.3189 154.058 16.7669C153.589 17.2149 153.354 17.7802 153.354 18.4629C153.354 19.1029 153.589 19.6149 154.058 19.9989C154.549 20.3829 155.232 20.5749 156.106 20.5749ZM184.825 19.9989V26.3989H181.881V22.8789H169.913V26.3989H166.969V19.9989H168.953C169.849 18.8042 170.542 17.2256 171.033 15.2629C171.523 13.2789 171.769 11.0816 171.769 8.67091V6.87891H182.585V19.9989H184.825ZM179.609 20.0949V9.59891H174.617C174.467 14.0789 173.614 17.5776 172.057 20.0949H179.609ZM195.601 13.2149C197.287 13.2149 198.599 13.6736 199.537 14.5909C200.497 15.4869 200.977 16.6389 200.977 18.0469C200.977 19.4549 200.497 20.6176 199.537 21.5349C198.599 22.4309 197.287 22.8789 195.601 22.8789H187.697V6.87891H190.737V13.2149H195.601ZM195.185 20.2229C196.06 20.2229 196.721 20.0416 197.169 19.6789C197.617 19.3162 197.841 18.7722 197.841 18.0469C197.841 17.3216 197.617 16.7776 197.169 16.4149C196.721 16.0522 196.06 15.8709 195.185 15.8709H190.737V20.2229H195.185ZM206.897 6.87891V22.8789H203.857V6.87891H206.897Z" fill="#FFD600"/>
<path d="M228.979 11.8389V14.7189H219.699V11.8389H228.979ZM247.761 6.5589C249.361 6.5589 250.801 6.92157 252.081 7.64691C253.383 8.35091 254.396 9.34291 255.121 10.6229C255.847 11.8816 256.209 13.3002 256.209 14.8789C256.209 16.4576 255.847 17.8869 255.121 19.1669C254.396 20.4256 253.383 21.4176 252.081 22.1429C250.801 22.8469 249.361 23.1989 247.761 23.1989C246.609 23.1989 245.5 22.9642 244.433 22.4949C243.367 22.0256 242.46 21.3642 241.713 20.5109C240.967 19.6576 240.455 18.6869 240.177 17.5989H243.249C243.591 18.4522 244.167 19.1349 244.977 19.6469C245.809 20.1376 246.748 20.3829 247.793 20.3829C249.073 20.3829 250.193 19.9989 251.153 19.2309C252.135 18.4629 252.743 17.4709 252.977 16.2549H246.033V13.5029H252.977C252.743 12.2869 252.135 11.2949 251.153 10.5269C250.193 9.75891 249.073 9.37491 247.793 9.37491C246.748 9.37491 245.809 9.63091 244.977 10.1429C244.167 10.6336 243.591 11.3056 243.249 12.1589H240.177C240.455 11.0709 240.967 10.1002 241.713 9.24691C242.46 8.39357 243.367 7.73224 244.433 7.26291C245.5 6.79357 246.609 6.5589 247.761 6.5589ZM270.957 9.75891H265.357V22.8789H262.317V9.75891H256.717V6.87891H270.957V9.75891ZM279.952 23.1989C278.373 23.1989 276.933 22.8362 275.632 22.1109C274.331 21.3642 273.307 20.3616 272.56 19.1029C271.813 17.8229 271.44 16.4149 271.44 14.8789C271.44 13.3429 271.813 11.9456 272.56 10.6869C273.307 9.40691 274.331 8.40424 275.632 7.67891C276.933 6.93224 278.373 6.5589 279.952 6.5589C281.509 6.5589 282.928 6.93224 284.208 7.67891C285.509 8.40424 286.533 9.40691 287.28 10.6869C288.027 11.9456 288.4 13.3429 288.4 14.8789C288.4 16.4149 288.027 17.8229 287.28 19.1029C286.533 20.3616 285.509 21.3642 284.208 22.1109C282.928 22.8362 281.509 23.1989 279.952 23.1989ZM279.952 20.3829C280.933 20.3829 281.829 20.1482 282.64 19.6789C283.451 19.1882 284.091 18.5269 284.56 17.6949C285.029 16.8416 285.264 15.9029 285.264 14.8789C285.264 13.8549 285.029 12.9269 284.56 12.0949C284.091 11.2416 283.451 10.5802 282.64 10.1109C281.829 9.62024 280.933 9.37491 279.952 9.37491C278.949 9.37491 278.032 9.62024 277.2 10.1109C276.389 10.5802 275.749 11.2416 275.28 12.0949C274.811 12.9269 274.576 13.8549 274.576 14.8789C274.576 15.9029 274.811 16.8416 275.28 17.6949C275.749 18.5269 276.389 19.1882 277.2 19.6789C278.032 20.1482 278.949 20.3829 279.952 20.3829ZM312.236 9.75891H306.636V22.8789H303.596V9.75891H297.996V6.87891H312.236V9.75891ZM321.231 23.1989C319.652 23.1989 318.212 22.8362 316.911 22.1109C315.609 21.3642 314.585 20.3616 313.839 19.1029C313.092 17.8229 312.719 16.4149 312.719 14.8789C312.719 13.3429 313.092 11.9456 313.839 10.6869C314.585 9.40691 315.609 8.40424 316.911 7.67891C318.212 6.93224 319.652 6.5589 321.231 6.5589C322.788 6.5589 324.207 6.93224 325.487 7.67891C326.788 8.40424 327.812 9.40691 328.559 10.6869C329.305 11.9456 329.679 13.3429 329.679 14.8789C329.679 16.4149 329.305 17.8229 328.559 19.1029C327.812 20.3616 326.788 21.3642 325.487 22.1109C324.207 22.8362 322.788 23.1989 321.231 23.1989ZM321.231 20.3829C322.212 20.3829 323.108 20.1482 323.919 19.6789C324.729 19.1882 325.369 18.5269 325.839 17.6949C326.308 16.8416 326.543 15.9029 326.543 14.8789C326.543 13.8549 326.308 12.9269 325.839 12.0949C325.369 11.2416 324.729 10.5802 323.919 10.1109C323.108 9.62024 322.212 9.37491 321.231 9.37491C320.228 9.37491 319.311 9.62024 318.479 10.1109C317.668 10.5802 317.028 11.2416 316.559 12.0949C316.089 12.9269 315.855 13.8549 315.855 14.8789C315.855 15.9029 316.089 16.8416 316.559 17.6949C317.028 18.5269 317.668 19.1882 318.479 19.6789C319.311 20.1482 320.228 20.3829 321.231 20.3829ZM346.538 22.8789H343.498V9.75891H337.898C337.876 12.8736 337.631 15.4016 337.162 17.3429C336.692 19.2629 335.967 20.6816 334.986 21.5989C334.026 22.5162 332.767 22.9749 331.21 22.9749C330.847 22.9749 330.548 22.9429 330.314 22.8789V20.0949C330.612 20.1376 330.836 20.1589 330.986 20.1589C331.924 20.1589 332.671 19.8069 333.226 19.1029C333.802 18.3776 334.218 17.2362 334.474 15.6789C334.73 14.1002 334.858 12.0096 334.858 9.40691V6.87891H346.538V22.8789ZM359.072 13.2149C360.757 13.2149 362.069 13.6736 363.008 14.5909C363.968 15.4869 364.448 16.6389 364.448 18.0469C364.448 19.4549 363.968 20.6176 363.008 21.5349C362.069 22.4309 360.757 22.8789 359.072 22.8789H351.168V6.87891H354.208V13.2149H359.072ZM358.656 20.2229C359.53 20.2229 360.192 20.0416 360.64 19.6789C361.088 19.3162 361.312 18.7722 361.312 18.0469C361.312 17.3216 361.088 16.7776 360.64 16.4149C360.192 16.0522 359.53 15.8709 358.656 15.8709H354.208V20.2229H358.656ZM382.028 19.9669V22.8789H380.748C379.745 22.8789 378.977 22.6122 378.444 22.0789C377.932 21.5242 377.676 20.7136 377.676 19.6469V17.6309C377.676 16.6282 377.185 16.1269 376.204 16.1269H370.54V22.8789H367.5V6.87891H370.54V13.5029H375.788C376.364 13.5029 376.801 13.3536 377.1 13.0549C377.42 12.7562 377.58 12.3082 377.58 11.7109V9.95091C377.58 7.90291 378.54 6.87891 380.46 6.87891H381.836V9.79091H381.228C380.993 9.79091 380.801 9.86557 380.652 10.0149C380.524 10.1429 380.46 10.3242 380.46 10.5589V12.2869C380.46 13.4602 380.033 14.2922 379.18 14.7829C380.161 15.2522 380.652 16.0629 380.652 17.2149V19.1989C380.652 19.4336 380.716 19.6256 380.844 19.7749C380.993 19.9029 381.185 19.9669 381.42 19.9669H382.028ZM392.967 23.1989C391.388 23.1989 389.948 22.8362 388.647 22.1109C387.346 21.3642 386.322 20.3616 385.575 19.1029C384.828 17.8229 384.455 16.4149 384.455 14.8789C384.455 13.3429 384.828 11.9456 385.575 10.6869C386.322 9.40691 387.346 8.40424 388.647 7.67891C389.948 6.93224 391.388 6.5589 392.967 6.5589C394.524 6.5589 395.943 6.93224 397.223 7.67891C398.524 8.40424 399.548 9.40691 400.295 10.6869C401.042 11.9456 401.415 13.3429 401.415 14.8789C401.415 16.4149 401.042 17.8229 400.295 19.1029C399.548 20.3616 398.524 21.3642 397.223 22.1109C395.943 22.8362 394.524 23.1989 392.967 23.1989ZM392.967 20.3829C393.948 20.3829 394.844 20.1482 395.655 19.6789C396.466 19.1882 397.106 18.5269 397.575 17.6949C398.044 16.8416 398.279 15.9029 398.279 14.8789C398.279 13.8549 398.044 12.9269 397.575 12.0949C397.106 11.2416 396.466 10.5802 395.655 10.1109C394.844 9.62024 393.948 9.37491 392.967 9.37491C391.964 9.37491 391.047 9.62024 390.215 10.1109C389.404 10.5802 388.764 11.2416 388.295 12.0949C387.826 12.9269 387.591 13.8549 387.591 14.8789C387.591 15.9029 387.826 16.8416 388.295 17.6949C388.764 18.5269 389.404 19.1882 390.215 19.6789C391.047 20.1482 391.964 20.3829 392.967 20.3829ZM427.075 22.8789H424.035V9.75891H418.435C418.414 12.8736 418.169 15.4016 417.699 17.3429C417.23 19.2629 416.505 20.6816 415.523 21.5989C414.563 22.5162 413.305 22.9749 411.747 22.9749C411.385 22.9749 411.086 22.9429 410.851 22.8789V20.0949C411.15 20.1376 411.374 20.1589 411.523 20.1589C412.462 20.1589 413.209 19.8069 413.763 19.1029C414.339 18.3776 414.755 17.2362 415.011 15.6789C415.267 14.1002 415.395 12.0096 415.395 9.40691V6.87891H427.075V22.8789ZM447.161 6.87891L439.385 24.6709C438.98 25.7589 438.414 26.6442 437.689 27.3269C436.964 28.0309 435.897 28.3829 434.489 28.3829C433.486 28.3829 432.708 28.3616 432.153 28.3189V25.4389C432.75 25.4816 433.465 25.5029 434.297 25.5029C434.894 25.5029 435.364 25.3429 435.705 25.0229C436.068 24.7029 436.366 24.2656 436.601 23.7109L437.081 22.5909L429.305 6.87891H432.857L438.585 19.1669L443.961 6.87891H447.161ZM462.143 6.87891V22.8789H459.103V16.6709H453.983C452.34 16.6709 451.049 16.1909 450.111 15.2309C449.172 14.2709 448.703 13.0442 448.703 11.5509V6.87891H451.743V11.4549C451.743 12.2869 451.956 12.9056 452.383 13.3109C452.831 13.7162 453.524 13.9189 454.463 13.9189H459.103V6.87891H462.143ZM489.016 6.87891V22.8789H466.776V6.87891H469.816V19.9989H476.376V6.87891H479.416V19.9989H485.976V6.87891H489.016ZM500.423 6.5589C502.066 6.5589 503.495 6.9109 504.711 7.61491C505.949 8.31891 506.898 9.32157 507.559 10.6229C508.221 11.9029 508.551 13.4069 508.551 15.1349C508.551 15.5829 508.541 15.9136 508.519 16.1269H495.399C495.613 17.3642 496.189 18.3882 497.127 19.1989C498.087 19.9882 499.197 20.3829 500.455 20.3829C502.525 20.3829 503.997 19.6256 504.871 18.1109H508.007C507.495 19.6042 506.546 20.8309 505.159 21.7909C503.773 22.7296 502.205 23.1989 500.455 23.1989C498.898 23.1989 497.49 22.8469 496.231 22.1429C494.973 21.4176 493.991 20.4256 493.287 19.1669C492.583 17.8869 492.231 16.4576 492.231 14.8789C492.231 13.3002 492.583 11.8816 493.287 10.6229C493.991 9.34291 494.962 8.35091 496.199 7.64691C497.458 6.92157 498.866 6.5589 500.423 6.5589ZM500.359 9.24691C499.101 9.24691 498.013 9.64157 497.095 10.4309C496.199 11.2202 495.645 12.2336 495.431 13.4709H505.255C505.127 12.1909 504.605 11.1669 503.687 10.3989C502.791 9.63091 501.682 9.24691 500.359 9.24691ZM518.662 6.5589C520.305 6.5589 521.734 6.9109 522.95 7.61491C524.187 8.31891 525.137 9.32157 525.798 10.6229C526.459 11.9029 526.79 13.4069 526.79 15.1349C526.79 15.5829 526.779 15.9136 526.758 16.1269H513.638C513.851 17.3642 514.427 18.3882 515.366 19.1989C516.326 19.9882 517.435 20.3829 518.694 20.3829C520.763 20.3829 522.235 19.6256 523.11 18.1109H526.246C525.734 19.6042 524.785 20.8309 523.398 21.7909C522.011 22.7296 520.443 23.1989 518.694 23.1989C517.137 23.1989 515.729 22.8469 514.47 22.1429C513.211 21.4176 512.23 20.4256 511.526 19.1669C510.822 17.8869 510.47 16.4576 510.47 14.8789C510.47 13.3002 510.822 11.8816 511.526 10.6229C512.23 9.34291 513.201 8.35091 514.438 7.64691C515.697 6.92157 517.105 6.5589 518.662 6.5589ZM518.598 9.24691C517.339 9.24691 516.251 9.64157 515.334 10.4309C514.438 11.2202 513.883 12.2336 513.67 13.4709H523.494C523.366 12.1909 522.843 11.1669 521.926 10.3989C521.03 9.63091 519.921 9.24691 518.598 9.24691ZM537.041 14.8789C537.041 13.3429 537.415 11.9456 538.161 10.6869C538.908 9.40691 539.932 8.40424 541.233 7.67891C542.535 6.93224 543.975 6.5589 545.553 6.5589C547.324 6.5589 548.913 7.08157 550.321 8.12691C551.751 9.15091 552.689 10.4949 553.137 12.1589H549.809C549.447 11.3056 548.86 10.6336 548.049 10.1429C547.26 9.63091 546.375 9.37491 545.393 9.37491C544.391 9.37491 543.495 9.62024 542.705 10.1109C541.916 10.5802 541.297 11.2416 540.849 12.0949C540.401 12.9269 540.177 13.8549 540.177 14.8789C540.177 15.9029 540.401 16.8416 540.849 17.6949C541.297 18.5269 541.916 19.1882 542.705 19.6789C543.495 20.1482 544.391 20.3829 545.393 20.3829C546.375 20.3829 547.26 20.1376 548.049 19.6469C548.86 19.1349 549.447 18.4522 549.809 17.5989H553.137C552.689 19.2629 551.751 20.6176 550.321 21.6629C548.913 22.6869 547.324 23.1989 545.553 23.1989C543.975 23.1989 542.535 22.8362 541.233 22.1109C539.932 21.3642 538.908 20.3616 538.161 19.1029C537.415 17.8229 537.041 16.4149 537.041 14.8789ZM563.936 13.2149C565.622 13.2149 566.934 13.6736 567.872 14.5909C568.832 15.4869 569.312 16.6389 569.312 18.0469C569.312 19.4549 568.832 20.6176 567.872 21.5349C566.934 22.4309 565.622 22.8789 563.936 22.8789H556.032V6.87891H559.072V13.2149H563.936ZM563.52 20.2229C564.395 20.2229 565.056 20.0416 565.504 19.6789C565.952 19.3162 566.176 18.7722 566.176 18.0469C566.176 17.3216 565.952 16.7776 565.504 16.4149C565.056 16.0522 564.395 15.8709 563.52 15.8709H559.072V20.2229H563.52ZM575.232 6.87891V22.8789H572.192V6.87891H575.232ZM588.313 6.5589C589.721 6.5589 591.001 6.92157 592.153 7.64691C593.305 8.35091 594.212 9.33224 594.873 10.5909C595.534 11.8496 595.865 13.2789 595.865 14.8789C595.865 16.4789 595.534 17.9082 594.873 19.1669C594.212 20.4256 593.305 21.4176 592.153 22.1429C591.001 22.8469 589.721 23.1989 588.313 23.1989C587.246 23.1989 586.244 22.9642 585.305 22.4949C584.366 22.0042 583.566 21.3322 582.905 20.4789V28.3189H579.865V6.87891H582.745V9.47091C583.428 8.55357 584.249 7.83891 585.209 7.32691C586.169 6.8149 587.204 6.5589 588.313 6.5589ZM587.801 20.3829C588.74 20.3829 589.582 20.1482 590.329 19.6789C591.076 19.2096 591.662 18.5589 592.089 17.7269C592.516 16.8736 592.729 15.9242 592.729 14.8789C592.729 13.8336 592.516 12.8949 592.089 12.0629C591.662 11.2096 591.076 10.5482 590.329 10.0789C589.582 9.60957 588.74 9.37491 587.801 9.37491C586.862 9.37491 586.009 9.60957 585.241 10.0789C584.473 10.5482 583.876 11.2096 583.449 12.0629C583.022 12.8949 582.809 13.8336 582.809 14.8789C582.809 15.9242 583.022 16.8736 583.449 17.7269C583.876 18.5589 584.473 19.2096 585.241 19.6789C586.009 20.1482 586.862 20.3829 587.801 20.3829ZM606.977 13.2149C608.662 13.2149 609.974 13.6736 610.913 14.5909C611.873 15.4869 612.353 16.6389 612.353 18.0469C612.353 19.4549 611.873 20.6176 610.913 21.5349C609.974 22.4309 608.662 22.8789 606.977 22.8789H599.073V6.87891H602.113V13.2149H606.977ZM606.561 20.2229C607.435 20.2229 608.097 20.0416 608.545 19.6789C608.993 19.3162 609.217 18.7722 609.217 18.0469C609.217 17.3216 608.993 16.7776 608.545 16.4149C608.097 16.0522 607.435 15.8709 606.561 15.8709H602.113V20.2229H606.561ZM622.157 6.5589C623.8 6.5589 625.229 6.9109 626.445 7.61491C627.682 8.31891 628.632 9.32157 629.293 10.6229C629.954 11.9029 630.285 13.4069 630.285 15.1349C630.285 15.5829 630.274 15.9136 630.253 16.1269H617.133C617.346 17.3642 617.922 18.3882 618.861 19.1989C619.821 19.9882 620.93 20.3829 622.189 20.3829C624.258 20.3829 625.73 19.6256 626.605 18.1109H629.741C629.229 19.6042 628.28 20.8309 626.893 21.7909C625.506 22.7296 623.938 23.1989 622.189 23.1989C620.632 23.1989 619.224 22.8469 617.965 22.1429C616.706 21.4176 615.725 20.4256 615.021 19.1669C614.317 17.8869 613.965 16.4576 613.965 14.8789C613.965 13.3002 614.317 11.8816 615.021 10.6229C615.725 9.34291 616.696 8.35091 617.933 7.64691C619.192 6.92157 620.6 6.5589 622.157 6.5589ZM622.093 9.24691C620.834 9.24691 619.746 9.64157 618.829 10.4309C617.933 11.2202 617.378 12.2336 617.165 13.4709H626.989C626.861 12.1909 626.338 11.1669 625.421 10.3989C624.525 9.63091 623.416 9.24691 622.093 9.24691ZM656.376 6.87891V22.8789H653.336V13.0229L645.016 20.0629V22.8789H641.976V6.87891H645.016V16.5429L653.336 9.50291V6.87891H656.376ZM14.96 51.8789V67.8789H11.92V58.0229L3.6 65.0629V67.8789H0.56V51.8789H3.6V61.5429L11.92 54.5029V51.8789H14.96ZM35.2273 64.9989V71.3989H32.2833V67.8789H20.3153V71.3989H17.3713V64.9989H19.3553C20.2513 63.8042 20.9446 62.2256 21.4353 60.2629C21.9259 58.2789 22.1713 56.0816 22.1713 53.6709V51.8789H32.9873V64.9989H35.2273ZM30.0113 65.0949V54.5989H25.0193C24.8699 59.0789 24.0166 62.5776 22.4593 65.0949H30.0113ZM44.5395 51.5589C46.1822 51.5589 47.6115 51.9109 48.8275 52.6149C50.0648 53.3189 51.0142 54.3216 51.6755 55.6229C52.3368 56.9029 52.6675 58.4069 52.6675 60.1349C52.6675 60.5829 52.6568 60.9136 52.6355 61.1269H39.5155C39.7288 62.3642 40.3048 63.3882 41.2435 64.1989C42.2035 64.9882 43.3128 65.3829 44.5715 65.3829C46.6408 65.3829 48.1128 64.6256 48.9875 63.1109H52.1235C51.6115 64.6042 50.6622 65.8309 49.2755 66.7909C47.8888 67.7296 46.3208 68.1989 44.5715 68.1989C43.0142 68.1989 41.6062 67.8469 40.3475 67.1429C39.0888 66.4176 38.1075 65.4256 37.4035 64.1669C36.6995 62.8869 36.3475 61.4576 36.3475 59.8789C36.3475 58.3002 36.6995 56.8816 37.4035 55.6229C38.1075 54.3429 39.0782 53.3509 40.3155 52.6469C41.5742 51.9216 42.9822 51.5589 44.5395 51.5589ZM44.4755 54.2469C43.2168 54.2469 42.1288 54.6416 41.2115 55.4309C40.3155 56.2202 39.7608 57.2336 39.5475 58.4709H49.3715C49.2435 57.1909 48.7208 56.1669 47.8035 55.3989C46.9075 54.6309 45.7982 54.2469 44.4755 54.2469ZM70.4263 64.9989V67.8789H68.8903C68.1009 67.8789 67.4823 67.6869 67.0343 67.3029C66.5863 66.8976 66.3196 66.3216 66.2343 65.5749C65.5516 66.3642 64.6663 67.0042 63.5783 67.4949C62.5116 67.9642 61.3809 68.1989 60.1863 68.1989C58.4583 68.1989 57.1143 67.7722 56.1543 66.9189C55.2156 66.0656 54.7463 64.9242 54.7463 63.4949C54.7463 62.1936 55.2583 61.0842 56.2823 60.1669C57.3063 59.2282 58.7463 58.6629 60.6023 58.4709L62.3943 58.2789C63.3969 58.1722 64.1436 58.0442 64.6343 57.8949C65.1249 57.7242 65.4343 57.5429 65.5623 57.3509C65.7116 57.1589 65.7863 56.9029 65.7863 56.5829C65.7863 55.8576 65.4343 55.2922 64.7303 54.8869C64.0476 54.4602 63.0983 54.2469 61.8823 54.2469C61.0929 54.2469 60.3356 54.4602 59.6103 54.8869C58.8849 55.2922 58.3836 55.8789 58.1063 56.6469H54.8743C55.1729 55.1536 55.9836 53.9376 57.3063 52.9989C58.6289 52.0389 60.2076 51.5589 62.0423 51.5589C64.0689 51.5589 65.7329 52.1136 67.0343 53.2229C68.3356 54.3322 68.9863 55.9216 68.9863 57.9909V64.1349C68.9863 64.4122 69.0609 64.6256 69.2103 64.7749C69.3596 64.9242 69.5623 64.9989 69.8183 64.9989H70.4263ZM60.5063 65.5749C61.5089 65.5749 62.4476 65.3722 63.3223 64.9669C64.1969 64.5402 64.8903 63.9856 65.4023 63.3029C65.9356 62.5989 66.2023 61.8522 66.2023 61.0629V59.6229C65.4769 60.1776 64.3249 60.5402 62.7463 60.7109L60.9543 60.9029C59.7596 61.0309 58.9276 61.3189 58.4583 61.7669C57.9889 62.2149 57.7543 62.7802 57.7543 63.4629C57.7543 64.1029 57.9889 64.6149 58.4583 64.9989C58.9489 65.3829 59.6316 65.5749 60.5063 65.5749ZM87.5928 67.8789H84.5528V54.7589H78.9528C78.9314 57.8736 78.6861 60.4016 78.2168 62.3429C77.7474 64.2629 77.0221 65.6816 76.0408 66.5989C75.0808 67.5162 73.8221 67.9749 72.2648 67.9749C71.9021 67.9749 71.6034 67.9429 71.3688 67.8789V65.0949C71.6674 65.1376 71.8914 65.1589 72.0408 65.1589C72.9794 65.1589 73.7261 64.8069 74.2808 64.1029C74.8568 63.3776 75.2728 62.2362 75.5288 60.6789C75.7848 59.1002 75.9128 57.0096 75.9128 54.4069V51.8789H87.5928V67.8789ZM100.126 58.2149C101.812 58.2149 103.124 58.6736 104.062 59.5909C105.022 60.4869 105.502 61.6389 105.502 63.0469C105.502 64.4549 105.022 65.6176 104.062 66.5349C103.124 67.4309 101.812 67.8789 100.126 67.8789H92.2225V51.8789H95.2625V58.2149H100.126ZM99.7105 65.2229C100.585 65.2229 101.246 65.0416 101.694 64.6789C102.142 64.3162 102.366 63.7722 102.366 63.0469C102.366 62.3216 102.142 61.7776 101.694 61.4149C101.246 61.0522 100.585 60.8709 99.7105 60.8709H95.2625V65.2229H99.7105ZM122.955 51.8789V67.8789H119.915V61.3189H111.595V67.8789H108.555V51.8789H111.595V58.4389H119.915V51.8789H122.955ZM135.51 58.2149C137.196 58.2149 138.508 58.6736 139.446 59.5909C140.406 60.4869 140.886 61.6389 140.886 63.0469C140.886 64.4549 140.406 65.6176 139.446 66.5349C138.508 67.4309 137.196 67.8789 135.51 67.8789H127.606V51.8789H130.646V58.2149H135.51ZM135.094 65.2229C135.969 65.2229 136.63 65.0416 137.078 64.6789C137.526 64.3162 137.75 63.7722 137.75 63.0469C137.75 62.3216 137.526 61.7776 137.078 61.4149C136.63 61.0522 135.969 60.8709 135.094 60.8709H130.646V65.2229H135.094ZM146.806 51.8789V67.8789H143.766V51.8789H146.806ZM158.191 51.5589C159.833 51.5589 161.263 51.9109 162.479 52.6149C163.716 53.3189 164.665 54.3216 165.327 55.6229C165.988 56.9029 166.319 58.4069 166.319 60.1349C166.319 60.5829 166.308 60.9136 166.287 61.1269H153.167C153.38 62.3642 153.956 63.3882 154.895 64.1989C155.855 64.9882 156.964 65.3829 158.223 65.3829C160.292 65.3829 161.764 64.6256 162.639 63.1109H165.775C165.263 64.6042 164.313 65.8309 162.927 66.7909C161.54 67.7296 159.972 68.1989 158.223 68.1989C156.665 68.1989 155.257 67.8469 153.999 67.1429C152.74 66.4176 151.759 65.4256 151.055 64.1669C150.351 62.8869 149.999 61.4576 149.999 59.8789C149.999 58.3002 150.351 56.8816 151.055 55.6229C151.759 54.3429 152.729 53.3509 153.967 52.6469C155.225 51.9216 156.633 51.5589 158.191 51.5589ZM158.127 54.2469C156.868 54.2469 155.78 54.6416 154.863 55.4309C153.967 56.2202 153.412 57.2336 153.199 58.4709H163.023C162.895 57.1909 162.372 56.1669 161.455 55.3989C160.559 54.6309 159.449 54.2469 158.127 54.2469ZM193.466 51.8789L185.69 69.6709C185.285 70.7589 184.719 71.6442 183.994 72.3269C183.269 73.0309 182.202 73.3829 180.794 73.3829C179.791 73.3829 179.013 73.3616 178.458 73.3189V70.4389C179.055 70.4816 179.77 70.5029 180.602 70.5029C181.199 70.5029 181.669 70.3429 182.01 70.0229C182.373 69.7029 182.671 69.2656 182.906 68.7109L183.386 67.5909L175.61 51.8789H179.162L184.89 64.1669L190.266 51.8789H193.466ZM193.903 59.8789C193.903 58.3429 194.276 56.9456 195.023 55.6869C195.769 54.4069 196.793 53.4042 198.095 52.6789C199.396 51.9322 200.836 51.5589 202.415 51.5589C204.185 51.5589 205.775 52.0816 207.183 53.1269C208.612 54.1509 209.551 55.4949 209.999 57.1589H206.671C206.308 56.3056 205.721 55.6336 204.911 55.1429C204.121 54.6309 203.236 54.3749 202.255 54.3749C201.252 54.3749 200.356 54.6202 199.567 55.1109C198.777 55.5802 198.159 56.2416 197.711 57.0949C197.263 57.9269 197.039 58.8549 197.039 59.8789C197.039 60.9029 197.263 61.8416 197.711 62.6949C198.159 63.5269 198.777 64.1882 199.567 64.6789C200.356 65.1482 201.252 65.3829 202.255 65.3829C203.236 65.3829 204.121 65.1376 204.911 64.6469C205.721 64.1349 206.308 63.4522 206.671 62.5989H209.999C209.551 64.2629 208.612 65.6176 207.183 66.6629C205.775 67.6869 204.185 68.1989 202.415 68.1989C200.836 68.1989 199.396 67.8362 198.095 67.1109C196.793 66.3642 195.769 65.3616 195.023 64.1029C194.276 62.8229 193.903 61.4149 193.903 59.8789ZM226.565 67.8789H223.525V54.7589H217.925C217.904 57.8736 217.659 60.4016 217.189 62.3429C216.72 64.2629 215.995 65.6816 215.013 66.5989C214.053 67.5162 212.795 67.9749 211.237 67.9749C210.875 67.9749 210.576 67.9429 210.341 67.8789V65.0949C210.64 65.1376 210.864 65.1589 211.013 65.1589C211.952 65.1589 212.699 64.8069 213.253 64.1029C213.829 63.3776 214.245 62.2362 214.501 60.6789C214.757 59.1002 214.885 57.0096 214.885 54.4069V51.8789H226.565V67.8789ZM238.267 68.1989C236.688 68.1989 235.248 67.8362 233.947 67.1109C232.646 66.3642 231.622 65.3616 230.875 64.1029C230.128 62.8229 229.755 61.4149 229.755 59.8789C229.755 58.3429 230.128 56.9456 230.875 55.6869C231.622 54.4069 232.646 53.4042 233.947 52.6789C235.248 51.9322 236.688 51.5589 238.267 51.5589C239.824 51.5589 241.243 51.9322 242.523 52.6789C243.824 53.4042 244.848 54.4069 245.595 55.6869C246.342 56.9456 246.715 58.3429 246.715 59.8789C246.715 61.4149 246.342 62.8229 245.595 64.1029C244.848 65.3616 243.824 66.3642 242.523 67.1109C241.243 67.8362 239.824 68.1989 238.267 68.1989ZM238.267 65.3829C239.248 65.3829 240.144 65.1482 240.955 64.6789C241.766 64.1882 242.406 63.5269 242.875 62.6949C243.344 61.8416 243.579 60.9029 243.579 59.8789C243.579 58.8549 243.344 57.9269 242.875 57.0949C242.406 56.2416 241.766 55.5802 240.955 55.1109C240.144 54.6202 239.248 54.3749 238.267 54.3749C237.264 54.3749 236.347 54.6202 235.515 55.1109C234.704 55.5802 234.064 56.2416 233.595 57.0949C233.126 57.9269 232.891 58.8549 232.891 59.8789C232.891 60.9029 233.126 61.8416 233.595 62.6949C234.064 63.5269 234.704 64.1882 235.515 64.6789C236.347 65.1482 237.264 65.3829 238.267 65.3829ZM260.974 59.7189C262.553 60.5082 263.342 61.7242 263.342 63.3669C263.342 64.6896 262.862 65.7776 261.902 66.6309C260.942 67.4629 259.62 67.8789 257.934 67.8789H249.902V51.8789H257.934C259.534 51.8789 260.793 52.2949 261.71 53.1269C262.649 53.9376 263.118 54.9722 263.118 56.2309C263.118 56.9776 262.937 57.6602 262.574 58.2789C262.233 58.8762 261.7 59.3562 260.974 59.7189ZM257.582 58.5349C258.372 58.5349 258.969 58.3536 259.374 57.9909C259.78 57.6282 259.982 57.0949 259.982 56.3909C259.982 55.0896 259.182 54.4389 257.582 54.4389H252.878V58.5349H257.582ZM257.614 65.3189C258.468 65.3189 259.108 65.1376 259.534 64.7749C259.982 64.3909 260.206 63.8469 260.206 63.1429C260.206 62.4816 259.982 61.9802 259.534 61.6389C259.108 61.2762 258.468 61.0949 257.614 61.0949H252.878V65.3189H257.614ZM281.104 51.8789V67.8789H278.064V58.0229L269.744 65.0629V67.8789H266.704V51.8789H269.744V61.5429L278.064 54.5029V51.8789H281.104ZM298.427 67.8789H295.387V61.8629H290.139C289.158 61.8629 288.667 62.3642 288.667 63.3669V64.6469C288.667 65.7136 288.4 66.5242 287.867 67.0789C287.355 67.6122 286.598 67.8789 285.595 67.8789H284.251V64.9669H284.859C285.094 64.9669 285.275 64.9029 285.403 64.7749C285.552 64.6256 285.627 64.4336 285.627 64.1989V62.8869C285.627 61.6922 286.192 60.8496 287.323 60.3589C286.619 59.9536 286.075 59.4202 285.691 58.7589C285.328 58.0976 285.147 57.3616 285.147 56.5509C285.147 55.1856 285.616 54.0656 286.555 53.1909C287.515 52.3162 288.838 51.8789 290.523 51.8789H298.427V67.8789ZM290.939 54.5989C290.064 54.5989 289.403 54.8016 288.955 55.2069C288.507 55.5909 288.283 56.1562 288.283 56.9029C288.283 57.6496 288.507 58.2256 288.955 58.6309C289.403 59.0149 290.064 59.2069 290.939 59.2069H295.387V54.5989H290.939ZM322.297 67.8789L317.657 61.8309L312.985 67.8789H309.305L315.705 59.7509L309.561 51.8789H313.337L317.721 57.6069L322.009 51.8789H325.785L319.673 59.6549L326.073 67.8789H322.297ZM336.919 51.5589C338.327 51.5589 339.607 51.9216 340.759 52.6469C341.911 53.3509 342.818 54.3322 343.479 55.5909C344.141 56.8496 344.471 58.2789 344.471 59.8789C344.471 61.4789 344.141 62.9082 343.479 64.1669C342.818 65.4256 341.911 66.4176 340.759 67.1429C339.607 67.8469 338.327 68.1989 336.919 68.1989C335.853 68.1989 334.85 67.9642 333.911 67.4949C332.973 67.0042 332.173 66.3322 331.511 65.4789V73.3189H328.471V51.8789H331.351V54.4709C332.034 53.5536 332.855 52.8389 333.815 52.3269C334.775 51.8149 335.81 51.5589 336.919 51.5589ZM336.407 65.3829C337.346 65.3829 338.189 65.1482 338.935 64.6789C339.682 64.2096 340.269 63.5589 340.695 62.7269C341.122 61.8736 341.335 60.9242 341.335 59.8789C341.335 58.8336 341.122 57.8949 340.695 57.0629C340.269 56.2096 339.682 55.5482 338.935 55.0789C338.189 54.6096 337.346 54.3749 336.407 54.3749C335.469 54.3749 334.615 54.6096 333.847 55.0789C333.079 55.5482 332.482 56.2096 332.055 57.0629C331.629 57.8949 331.415 58.8336 331.415 59.8789C331.415 60.9242 331.629 61.8736 332.055 62.7269C332.482 63.5589 333.079 64.2096 333.847 64.6789C334.615 65.1482 335.469 65.3829 336.407 65.3829ZM362.235 64.9989V67.8789H360.699C359.91 67.8789 359.291 67.6869 358.843 67.3029C358.395 66.8976 358.128 66.3216 358.043 65.5749C357.36 66.3642 356.475 67.0042 355.387 67.4949C354.32 67.9642 353.19 68.1989 351.995 68.1989C350.267 68.1989 348.923 67.7722 347.963 66.9189C347.024 66.0656 346.555 64.9242 346.555 63.4949C346.555 62.1936 347.067 61.0842 348.091 60.1669C349.115 59.2282 350.555 58.6629 352.411 58.4709L354.203 58.2789C355.206 58.1722 355.952 58.0442 356.443 57.8949C356.934 57.7242 357.243 57.5429 357.371 57.3509C357.52 57.1589 357.595 56.9029 357.595 56.5829C357.595 55.8576 357.243 55.2922 356.539 54.8869C355.856 54.4602 354.907 54.2469 353.691 54.2469C352.902 54.2469 352.144 54.4602 351.419 54.8869C350.694 55.2922 350.192 55.8789 349.915 56.6469H346.683C346.982 55.1536 347.792 53.9376 349.115 52.9989C350.438 52.0389 352.016 51.5589 353.851 51.5589C355.878 51.5589 357.542 52.1136 358.843 53.2229C360.144 54.3322 360.795 55.9216 360.795 57.9909V64.1349C360.795 64.4122 360.87 64.6256 361.019 64.7749C361.168 64.9242 361.371 64.9989 361.627 64.9989H362.235ZM352.315 65.5749C353.318 65.5749 354.256 65.3722 355.131 64.9669C356.006 64.5402 356.699 63.9856 357.211 63.3029C357.744 62.5989 358.011 61.8522 358.011 61.0629V59.6229C357.286 60.1776 356.134 60.5402 354.555 60.7109L352.763 60.9029C351.568 61.0309 350.736 61.3189 350.267 61.7669C349.798 62.2149 349.563 62.7802 349.563 63.4629C349.563 64.1029 349.798 64.6149 350.267 64.9989C350.758 65.3829 351.44 65.5749 352.315 65.5749ZM379.818 51.8789V67.8789H376.778V61.3189H368.458V67.8789H365.418V51.8789H368.458V58.4389H376.778V51.8789H379.818ZM391.221 51.5589C392.863 51.5589 394.293 51.9109 395.509 52.6149C396.746 53.3189 397.695 54.3216 398.357 55.6229C399.018 56.9029 399.349 58.4069 399.349 60.1349C399.349 60.5829 399.338 60.9136 399.317 61.1269H386.197C386.41 62.3642 386.986 63.3882 387.925 64.1989C388.885 64.9882 389.994 65.3829 391.253 65.3829C393.322 65.3829 394.794 64.6256 395.669 63.1109H398.805C398.293 64.6042 397.343 65.8309 395.957 66.7909C394.57 67.7296 393.002 68.1989 391.253 68.1989C389.695 68.1989 388.287 67.8469 387.029 67.1429C385.77 66.4176 384.789 65.4256 384.085 64.1669C383.381 62.8869 383.029 61.4576 383.029 59.8789C383.029 58.3002 383.381 56.8816 384.085 55.6229C384.789 54.3429 385.759 53.3509 386.997 52.6469C388.255 51.9216 389.663 51.5589 391.221 51.5589ZM391.157 54.2469C389.898 54.2469 388.81 54.6416 387.893 55.4309C386.997 56.2202 386.442 57.2336 386.229 58.4709H396.053C395.925 57.1909 395.402 56.1669 394.485 55.3989C393.589 54.6309 392.479 54.2469 391.157 54.2469ZM416.951 51.8789V67.8789H413.911V61.3189H405.591V67.8789H402.551V51.8789H405.591V58.4389H413.911V51.8789H416.951ZM436.003 51.8789V67.8789H432.963V58.0229L424.643 65.0629V67.8789H421.603V51.8789H424.643V61.5429L432.963 54.5029V51.8789H436.003ZM453.326 67.8789H450.286V61.8629H445.038C444.056 61.8629 443.566 62.3642 443.566 63.3669V64.6469C443.566 65.7136 443.299 66.5242 442.766 67.0789C442.254 67.6122 441.496 67.8789 440.494 67.8789H439.15V64.9669H439.758C439.992 64.9669 440.174 64.9029 440.302 64.7749C440.451 64.6256 440.526 64.4336 440.526 64.1989V62.8869C440.526 61.6922 441.091 60.8496 442.222 60.3589C441.518 59.9536 440.974 59.4202 440.59 58.7589C440.227 58.0976 440.046 57.3616 440.046 56.5509C440.046 55.1856 440.515 54.0656 441.454 53.1909C442.414 52.3162 443.736 51.8789 445.422 51.8789H453.326V67.8789ZM445.838 54.5989C444.963 54.5989 444.302 54.8016 443.854 55.2069C443.406 55.5909 443.182 56.1562 443.182 56.9029C443.182 57.6496 443.406 58.2256 443.854 58.6309C444.302 59.0149 444.963 59.2069 445.838 59.2069H450.286V54.5989H445.838Z" fill="white"/>
</svg>
