<svg width="835" height="44" viewBox="0 0 835 44" fill="none" xmlns="http://www.w3.org/2000/svg">
<path d="M30.4 18.9989V0.878903H36.4V42.8789H30.4V24.7589H6.4V42.8789H0.4V0.878903H6.4V18.9989H30.4ZM67.4964 0.278904C70.9764 0.278904 74.3164 1.0989 77.5164 2.7389C80.7164 4.33891 83.3364 6.83891 85.3764 10.2389C87.4164 13.5989 88.4364 17.7589 88.4364 22.7189C88.4364 23.5989 88.4164 24.2589 88.3764 24.6989H52.5564C52.9564 27.2189 53.8564 29.4789 55.2564 31.4789C56.6564 33.4789 58.4164 35.0389 60.5364 36.1589C62.6964 37.2789 65.0364 37.8389 67.5564 37.8389C70.5564 37.8389 73.1764 37.1189 75.4164 35.6789C77.6964 34.2389 79.4964 32.2589 80.8164 29.7389H87.1164C86.1564 32.4989 84.6764 34.9189 82.6764 36.9989C80.7164 39.0389 78.4164 40.6389 75.7764 41.7989C73.1764 42.9189 70.4364 43.4789 67.5564 43.4789C63.6364 43.4789 60.0364 42.5389 56.7564 40.6589C53.5164 38.7389 50.9564 36.1389 49.0764 32.8589C47.2364 29.5389 46.3164 25.8789 46.3164 21.8789C46.3164 17.8789 47.2164 14.2389 49.0164 10.9589C50.8564 7.63891 53.3964 5.0389 56.6364 3.1589C59.8764 1.2389 63.4964 0.278904 67.4964 0.278904ZM67.3164 5.9189C63.2764 5.9189 59.9364 7.1389 57.2964 9.57891C54.6564 12.0189 53.0564 15.1789 52.4964 19.0589H82.1364C81.9364 16.5389 81.0964 14.2789 79.6164 12.2789C78.1764 10.2789 76.3564 8.71891 74.1564 7.59891C71.9564 6.4789 69.6764 5.9189 67.3164 5.9189ZM147.896 0.878903V42.8789H142.016V8.3789L126.056 42.8789H120.056L104.216 8.6789V42.8789H98.3359V0.878903H106.976L123.236 35.7989L139.436 0.878903H147.896ZM190.487 18.9989V0.878903H196.487V42.8789H190.487V24.7589H166.487V42.8789H160.487V0.878903H166.487V18.9989H190.487ZM228.304 43.4789C224.264 43.4789 220.564 42.5389 217.204 40.6589C213.844 38.7389 211.204 36.1389 209.284 32.8589C207.364 29.5389 206.404 25.8789 206.404 21.8789C206.404 17.8789 207.364 14.2389 209.284 10.9589C211.204 7.63891 213.844 5.0389 217.204 3.1589C220.564 1.2389 224.264 0.278904 228.304 0.278904C232.344 0.278904 236.044 1.2389 239.404 3.1589C242.764 5.0389 245.404 7.63891 247.324 10.9589C249.244 14.2389 250.204 17.8789 250.204 21.8789C250.204 25.8789 249.244 29.5389 247.324 32.8589C245.404 36.1389 242.764 38.7389 239.404 40.6589C236.044 42.5389 232.344 43.4789 228.304 43.4789ZM228.304 37.7189C231.184 37.7189 233.804 37.0189 236.164 35.6189C238.564 34.2189 240.444 32.3189 241.804 29.9189C243.204 27.4789 243.904 24.7989 243.904 21.8789C243.904 18.9589 243.204 16.2989 241.804 13.8989C240.444 11.4589 238.564 9.5389 236.164 8.1389C233.804 6.7389 231.184 6.0389 228.304 6.0389C225.424 6.0389 222.784 6.7389 220.384 8.1389C218.024 9.5389 216.144 11.4589 214.744 13.8989C213.384 16.2989 212.704 18.9589 212.704 21.8789C212.704 24.7989 213.384 27.4789 214.744 29.9189C216.144 32.3189 218.024 34.2189 220.384 35.6189C222.784 37.0189 225.424 37.7189 228.304 37.7189ZM288.323 0.878903V6.6389H266.123V42.8789H260.123V0.878903H288.323ZM312.646 43.4789C308.606 43.4789 304.906 42.5389 301.546 40.6589C298.186 38.7389 295.546 36.1389 293.626 32.8589C291.706 29.5389 290.746 25.8789 290.746 21.8789C290.746 17.8789 291.706 14.2389 293.626 10.9589C295.546 7.63891 298.186 5.0389 301.546 3.1589C304.906 1.2389 308.606 0.278904 312.646 0.278904C316.686 0.278904 320.386 1.2389 323.746 3.1589C327.106 5.0389 329.746 7.63891 331.666 10.9589C333.586 14.2389 334.546 17.8789 334.546 21.8789C334.546 25.8789 333.586 29.5389 331.666 32.8589C329.746 36.1389 327.106 38.7389 323.746 40.6589C320.386 42.5389 316.686 43.4789 312.646 43.4789ZM312.646 37.7189C315.526 37.7189 318.146 37.0189 320.506 35.6189C322.906 34.2189 324.786 32.3189 326.146 29.9189C327.546 27.4789 328.246 24.7989 328.246 21.8789C328.246 18.9589 327.546 16.2989 326.146 13.8989C324.786 11.4589 322.906 9.5389 320.506 8.1389C318.146 6.7389 315.526 6.0389 312.646 6.0389C309.766 6.0389 307.126 6.7389 304.726 8.1389C302.366 9.5389 300.486 11.4589 299.086 13.8989C297.726 16.2989 297.046 18.9589 297.046 21.8789C297.046 24.7989 297.726 27.4789 299.086 29.9189C300.486 32.3189 302.366 34.2189 304.726 35.6189C307.126 37.0189 309.766 37.7189 312.646 37.7189ZM382.281 43.4789C378.241 43.4789 374.541 42.5389 371.181 40.6589C367.821 38.7389 365.181 36.1389 363.261 32.8589C361.341 29.5389 360.381 25.8789 360.381 21.8789C360.381 17.8789 361.341 14.2389 363.261 10.9589C365.181 7.63891 367.821 5.0389 371.181 3.1589C374.541 1.2389 378.241 0.278904 382.281 0.278904C386.321 0.278904 390.021 1.2389 393.381 3.1589C396.741 5.0389 399.381 7.63891 401.301 10.9589C403.221 14.2389 404.181 17.8789 404.181 21.8789C404.181 25.8789 403.221 29.5389 401.301 32.8589C399.381 36.1389 396.741 38.7389 393.381 40.6589C390.021 42.5389 386.321 43.4789 382.281 43.4789ZM382.281 37.7189C385.161 37.7189 387.781 37.0189 390.141 35.6189C392.541 34.2189 394.421 32.3189 395.781 29.9189C397.181 27.4789 397.881 24.7989 397.881 21.8789C397.881 18.9589 397.181 16.2989 395.781 13.8989C394.421 11.4589 392.541 9.5389 390.141 8.1389C387.781 6.7389 385.161 6.0389 382.281 6.0389C379.401 6.0389 376.761 6.7389 374.361 8.1389C372.001 9.5389 370.121 11.4589 368.721 13.8989C367.361 16.2989 366.681 18.9589 366.681 21.8789C366.681 24.7989 367.361 27.4789 368.721 29.9189C370.121 32.3189 372.001 34.2189 374.361 35.6189C376.761 37.0189 379.401 37.7189 382.281 37.7189Z" fill="white"/>
<path d="M438.716 0.878903V37.1189H460.916V42.8789H432.716V0.878903H438.716ZM485.24 43.4789C481.2 43.4789 477.5 42.5389 474.14 40.6589C470.78 38.7389 468.14 36.1389 466.22 32.8589C464.3 29.5389 463.34 25.8789 463.34 21.8789C463.34 17.8789 464.3 14.2389 466.22 10.9589C468.14 7.63891 470.78 5.0389 474.14 3.1589C477.5 1.2389 481.2 0.278904 485.24 0.278904C489.28 0.278904 492.98 1.2389 496.34 3.1589C499.7 5.0389 502.34 7.63891 504.26 10.9589C506.18 14.2389 507.14 17.8789 507.14 21.8789C507.14 25.8789 506.18 29.5389 504.26 32.8589C502.34 36.1389 499.7 38.7389 496.34 40.6589C492.98 42.5389 489.28 43.4789 485.24 43.4789ZM485.24 37.7189C488.12 37.7189 490.74 37.0189 493.1 35.6189C495.5 34.2189 497.38 32.3189 498.74 29.9189C500.14 27.4789 500.84 24.7989 500.84 21.8789C500.84 18.9589 500.14 16.2989 498.74 13.8989C497.38 11.4589 495.5 9.5389 493.1 8.1389C490.74 6.7389 488.12 6.0389 485.24 6.0389C482.36 6.0389 479.72 6.7389 477.32 8.1389C474.96 9.5389 473.08 11.4589 471.68 13.8989C470.32 16.2989 469.64 18.9589 469.64 21.8789C469.64 24.7989 470.32 27.4789 471.68 29.9189C473.08 32.3189 474.96 34.2189 477.32 35.6189C479.72 37.0189 482.36 37.7189 485.24 37.7189ZM545.259 0.878903V6.6389H523.059V19.0589H543.459V24.6989H523.059V42.8789H517.059V0.878903H545.259ZM585.749 0.878903V6.6389H570.749V42.8789H564.749V6.6389H549.749V0.878903H585.749ZM646.779 42.8789H638.739L634.479 38.4989C632.599 40.0989 630.539 41.3389 628.299 42.2189C626.059 43.0589 623.759 43.4789 621.399 43.4789C618.879 43.4789 616.639 42.9989 614.679 42.0389C612.759 41.0789 611.259 39.7589 610.179 38.0789C609.139 36.3589 608.619 34.3789 608.619 32.1389C608.619 29.8189 609.279 27.7589 610.599 25.9589C611.919 24.1189 614.019 22.3189 616.899 20.5589C615.179 18.5989 613.939 16.8589 613.179 15.3389C612.419 13.8189 612.039 12.2589 612.039 10.6589C612.039 8.69891 612.519 6.93891 613.479 5.37891C614.479 3.77891 615.839 2.5389 617.559 1.6589C619.279 0.738904 621.219 0.278904 623.379 0.278904C626.419 0.278904 628.899 1.2189 630.819 3.0989C632.779 4.9389 633.759 7.3789 633.759 10.4189C633.759 12.2589 633.179 13.9989 632.019 15.6389C630.899 17.2789 628.759 19.1989 625.599 21.3989L634.419 30.3389C636.499 27.0589 637.539 23.2789 637.539 18.9989H643.179C643.179 21.8389 642.759 24.5589 641.919 27.1589C641.079 29.7589 639.879 32.1389 638.319 34.2989L646.779 42.8789ZM623.079 5.5589C621.519 5.5589 620.219 6.0389 619.179 6.9989C618.179 7.9189 617.679 9.1189 617.679 10.5989C617.679 11.8389 618.019 13.0389 618.699 14.1989C619.419 15.3189 620.479 16.4989 621.879 17.7389C624.359 16.2189 626.039 14.9189 626.919 13.8389C627.799 12.7189 628.239 11.4789 628.239 10.1189C628.239 8.7989 627.739 7.7189 626.739 6.8789C625.779 5.9989 624.559 5.5589 623.079 5.5589ZM621.819 37.7189C625.099 37.7189 628.039 36.6789 630.639 34.5989L620.619 24.3389C618.139 25.7789 616.519 27.0589 615.759 28.1789C614.999 29.2589 614.619 30.3389 614.619 31.4189C614.619 33.4989 615.239 35.0789 616.479 36.1589C617.759 37.1989 619.539 37.7189 621.819 37.7189ZM678.602 0.878903V37.1189H700.802V42.8789H672.602V0.878903H678.602ZM724.211 43.4789C720.771 43.4789 717.651 42.7189 714.851 41.1989C712.091 39.6389 709.911 37.4989 708.311 34.7789C706.711 32.0589 705.911 29.0389 705.911 25.7189V0.878903H711.911V25.7189C711.911 27.9589 712.451 29.9989 713.531 31.8389C714.611 33.6789 716.071 35.1189 717.911 36.1589C719.791 37.1989 721.891 37.7189 724.211 37.7189C726.531 37.7189 728.611 37.1989 730.451 36.1589C732.331 35.1189 733.811 33.6789 734.891 31.8389C735.971 29.9989 736.511 27.9589 736.511 25.7189V0.878903H742.511V25.7189C742.511 29.0389 741.711 32.0589 740.111 34.7789C738.511 37.4989 736.311 39.6389 733.511 41.1989C730.751 42.7189 727.651 43.4789 724.211 43.4789ZM772.691 21.2189L789.311 42.8789H781.991L768.851 25.7189L755.771 42.8789H748.511L765.131 21.5189L749.231 0.878903H756.611L768.971 16.9589L781.211 0.878903H788.531L772.691 21.2189ZM813.2 0.278904C816.68 0.278904 820.02 1.0989 823.22 2.7389C826.42 4.33891 829.04 6.83891 831.08 10.2389C833.12 13.5989 834.14 17.7589 834.14 22.7189C834.14 23.5989 834.12 24.2589 834.08 24.6989H798.26C798.66 27.2189 799.56 29.4789 800.96 31.4789C802.36 33.4789 804.12 35.0389 806.24 36.1589C808.4 37.2789 810.74 37.8389 813.26 37.8389C816.26 37.8389 818.88 37.1189 821.12 35.6789C823.4 34.2389 825.2 32.2589 826.52 29.7389H832.82C831.86 32.4989 830.38 34.9189 828.38 36.9989C826.42 39.0389 824.12 40.6389 821.48 41.7989C818.88 42.9189 816.14 43.4789 813.26 43.4789C809.34 43.4789 805.74 42.5389 802.46 40.6589C799.22 38.7389 796.66 36.1389 794.78 32.8589C792.94 29.5389 792.02 25.8789 792.02 21.8789C792.02 17.8789 792.92 14.2389 794.72 10.9589C796.56 7.63891 799.1 5.0389 802.34 3.1589C805.58 1.2389 809.2 0.278904 813.2 0.278904ZM813.02 5.9189C808.98 5.9189 805.64 7.1389 803 9.57891C800.36 12.0189 798.76 15.1789 798.2 19.0589H827.84C827.64 16.5389 826.8 14.2789 825.32 12.2789C823.88 10.2789 822.06 8.71891 819.86 7.59891C817.66 6.4789 815.38 5.9189 813.02 5.9189Z" fill="#FFD600"/>
</svg>
