<svg width="208" height="43" viewBox="0 0 208 43" fill="none" xmlns="http://www.w3.org/2000/svg">
<path opacity="0.6" d="M55.5477 9.87891V23.8789H53.5477V18.0789H48.9477C48.0277 18.0789 47.2343 17.9056 46.5677 17.5589C45.9143 17.1989 45.4143 16.7122 45.0677 16.0989C44.721 15.4722 44.5477 14.7656 44.5477 13.9789V9.87891H46.5477V13.9789C46.5477 14.7122 46.7543 15.2722 47.1677 15.6589C47.581 16.0322 48.1943 16.2189 49.0077 16.2189H53.5477V9.87891H55.5477ZM59.3562 13.8789H61.2562V21.3189L66.4562 13.8789H68.5562V23.8789H66.6562V16.4389L61.4562 23.8789H59.3562V13.8789ZM79.7586 15.6789H76.2586V23.8789H74.3586V15.6789H70.8586V13.8789H79.7586V15.6789ZM90.7602 13.8789V23.8789H88.8602V22.3789C88.4468 22.9122 87.9468 23.3322 87.3602 23.6389C86.7735 23.9322 86.1468 24.0789 85.4802 24.0789C84.6002 24.0789 83.8002 23.8589 83.0802 23.4189C82.3602 22.9656 81.7935 22.3456 81.3802 21.5589C80.9668 20.7722 80.7602 19.8789 80.7602 18.8789C80.7602 17.8789 80.9668 16.9856 81.3802 16.1989C81.7935 15.4122 82.3602 14.7989 83.0802 14.3589C83.8002 13.9056 84.6002 13.6789 85.4802 13.6789C86.1735 13.6789 86.8202 13.8389 87.4202 14.1589C88.0202 14.4789 88.5335 14.9256 88.9602 15.4989V13.8789H90.7602ZM85.8002 22.3189C86.3868 22.3189 86.9202 22.1722 87.4002 21.8789C87.8802 21.5856 88.2535 21.1789 88.5202 20.6589C88.7868 20.1256 88.9202 19.5322 88.9202 18.8789C88.9202 18.2256 88.7868 17.6389 88.5202 17.1189C88.2535 16.5856 87.8802 16.1722 87.4002 15.8789C86.9202 15.5856 86.3868 15.4389 85.8002 15.4389C85.2135 15.4389 84.6868 15.5856 84.2202 15.8789C83.7535 16.1722 83.3868 16.5856 83.1202 17.1189C82.8535 17.6389 82.7202 18.2256 82.7202 18.8789C82.7202 19.5322 82.8535 20.1256 83.1202 20.6589C83.3868 21.1789 83.7535 21.5856 84.2202 21.8789C84.6868 22.1722 85.2135 22.3189 85.8002 22.3189ZM94.3648 13.8789H96.2648V21.3189L101.465 13.8789H103.565V23.8789H101.665V16.4389L96.4648 23.8789H94.3648V13.8789ZM98.9648 12.8989C97.9248 12.8989 97.0715 12.6256 96.4048 12.0789C95.7382 11.5322 95.3648 10.7989 95.2848 9.87891H96.9248C96.9915 10.3856 97.2048 10.7856 97.5648 11.0789C97.9248 11.3589 98.3915 11.4989 98.9648 11.4989C99.5382 11.4989 100.005 11.3589 100.365 11.0789C100.725 10.7856 100.938 10.3856 101.005 9.87891H102.645C102.565 10.7989 102.192 11.5322 101.525 12.0789C100.858 12.6256 100.005 12.8989 98.9648 12.8989ZM122.173 13.8789V23.8789H120.273V19.7789H115.073V23.8789H113.173V13.8789H115.073V17.9789H120.273V13.8789H122.173ZM125.78 13.8789H127.68V21.3189L132.88 13.8789H134.98V23.8789H133.08V16.4389L127.88 23.8789H125.78V13.8789ZM147.202 19.2789L145.962 20.4789V23.8789H144.082V20.4789L142.842 19.2789L139.442 23.8789H137.082L141.462 17.9389L137.282 13.8789H139.662L144.082 18.1989V13.8789H145.962V18.2189L150.422 13.8789H152.762L148.582 17.9389L152.962 23.8789H150.602L147.202 19.2789ZM158.671 13.6789C159.697 13.6789 160.591 13.8989 161.351 14.3389C162.124 14.7789 162.717 15.4056 163.131 16.2189C163.544 17.0189 163.751 17.9589 163.751 19.0389C163.751 19.3189 163.744 19.5256 163.731 19.6589H155.531C155.664 20.4322 156.024 21.0722 156.611 21.5789C157.211 22.0722 157.904 22.3189 158.691 22.3189C159.984 22.3189 160.904 21.8456 161.451 20.8989H163.411C163.091 21.8322 162.497 22.5989 161.631 23.1989C160.764 23.7856 159.784 24.0789 158.691 24.0789C157.717 24.0789 156.837 23.8589 156.051 23.4189C155.264 22.9656 154.651 22.3456 154.211 21.5589C153.771 20.7589 153.551 19.8656 153.551 18.8789C153.551 17.8922 153.771 17.0056 154.211 16.2189C154.651 15.4189 155.257 14.7989 156.031 14.3589C156.817 13.9056 157.697 13.6789 158.671 13.6789ZM158.631 15.3589C157.844 15.3589 157.164 15.6056 156.591 16.0989C156.031 16.5922 155.684 17.2256 155.551 17.9989H161.691C161.611 17.1989 161.284 16.5589 160.711 16.0789C160.151 15.5989 159.457 15.3589 158.631 15.3589Z" fill="white"/>
<path opacity="0.6" d="M95 32.8789L104 41.8789L113 32.8789" stroke="white" stroke-linecap="round"/>
</svg>
