<svg width="121" height="21" viewBox="0 0 121 21" fill="none" xmlns="http://www.w3.org/2000/svg">
<path d="M90.796 1.38965L89.8054 5.64639H82.9786L79.5785 20.2907H72.832L76.232 5.64639H69.2178L70.1816 1.38965H90.796Z" fill="#FFD600"/>
<path d="M68.1755 1.38965L67.1849 5.61962H55.7533L54.8966 9.28738H65.6857L64.6951 13.5173H53.906L52.3265 20.2907H45.687L50.0776 1.38965H68.1755Z" fill="#FFD600"/>
<path d="M43.6778 9.15249C43.6778 12.258 42.2856 15.4707 40.01 17.5321C38.5643 18.8707 35.5391 20.8251 30.2382 20.8251C29.1406 20.8251 25.4193 20.7715 22.7153 18.7904C20.5736 17.2376 19.4224 14.7478 19.4224 12.0974C19.4224 10.2234 19.9846 8.34933 20.9484 6.71624C24.1878 1.14767 30.3989 0.746094 32.8083 0.746094C39.8494 0.746094 43.6778 4.11936 43.6778 9.15249ZM37.0383 9.47376C37.0383 6.52884 35.3785 4.94929 32.7013 4.94929C28.8996 4.94929 26.1421 8.08161 26.1421 11.9368C26.1421 14.7211 27.8823 16.7022 30.7201 16.7022C34.4147 16.7022 37.0383 13.5699 37.0383 9.47376Z" fill="#FFD600"/>
<path d="M17.5089 15.9536L16.5183 20.2907H0L4.36383 1.38965H11.1371L7.76387 15.9536H17.5089Z" fill="#FFD600"/>
<path d="M120.999 8.06689L120.646 9.55018H115.542L113.017 20.5335H111.252L113.777 9.55018H108.709L109.044 8.06689H120.999Z" fill="#FFD600"/>
<path d="M94.4044 8.06689H102.351C103.41 8.06689 104.399 8.11987 105.229 8.63195C106.041 9.10872 106.483 9.99163 106.483 11.0688C106.483 11.9693 106.182 12.8699 105.706 13.5056C104.805 14.7063 103.269 15.0242 101.715 15.1125L105.088 20.5335H103.022L99.8431 15.2008H94.5633L93.3096 20.5335H91.5261L94.4044 8.06689ZM95.87 9.58549L94.8812 13.6645H100.655C102.421 13.6645 103.145 13.5586 103.746 13.2054C104.346 12.8699 104.717 12.1283 104.717 11.2983C104.717 10.7333 104.522 10.2742 104.169 9.99163C103.799 9.7091 103.145 9.58549 101.944 9.58549H95.87Z" fill="#FFD600"/>
</svg>
