<svg width="360" height="55" viewBox="0 0 360 55" fill="none" xmlns="http://www.w3.org/2000/svg">
<path d="M60.2989 54.9303H44.0376L29.4103 32.8337H13.6937V54.9303H0V0H37.8132C41.7035 0 44.7379 0.337155 46.9164 1.01147C50.3917 2.04886 53.0889 3.96805 55.0081 6.76903C56.9273 9.51814 57.8869 12.7341 57.8869 16.4168C57.8869 19.0622 57.3941 21.4742 56.4086 23.6527C55.2675 26.2462 53.6336 28.1395 51.5069 29.3325C49.4321 30.5255 46.7867 31.4073 43.5708 31.9778L60.2989 54.9303ZM13.6937 9.64782V23.1081H36.3349C41.4182 23.1081 43.9598 20.9295 43.9598 16.5725C43.9598 11.956 41.2366 9.64782 35.7903 9.64782H13.6937Z" fill="#7B7B7B"/>
<path d="M130.012 54.9303H114.607L109.938 44.5823H81.773L77.1047 54.9303H62.0884L88.6199 0H103.481L130.012 54.9303ZM105.504 34.8566L95.9335 13.3825L86.2079 34.8566H105.504Z" fill="#7B7B7B"/>
<path d="M136.081 54.9303V0H193.423C198.403 0 202.734 0.570571 206.417 1.71171C210.151 2.80098 213.497 4.84984 216.453 7.8583C221.07 12.6303 223.378 19.0882 223.378 27.2317C223.378 35.894 220.681 42.7409 215.286 47.7723C212.485 50.4176 209.347 52.2849 205.872 53.3742C202.449 54.4116 198.169 54.9303 193.034 54.9303H136.081ZM149.775 45.2047H193.112C198.455 45.2047 202.552 43.8561 205.405 41.1588C208.258 38.4616 209.684 33.6377 209.684 26.6871C209.684 20.3071 207.999 15.6907 204.627 12.8378C202.189 10.763 198.273 9.72562 192.879 9.72562H149.775V45.2047Z" fill="#7B7B7B"/>
<path d="M293.555 54.9303H278.149L273.481 44.5823H245.315L240.647 54.9303H225.631L252.162 0H267.023L293.555 54.9303ZM269.046 34.8566L259.476 13.3825L249.75 34.8566H269.046Z" fill="#7B7B7B"/>
<path d="M360 54.9303H343.739L329.111 32.8337H313.395V54.9303H299.701V0H337.514C341.405 0 344.439 0.337155 346.618 1.01147C350.093 2.04886 352.79 3.96805 354.709 6.76903C356.628 9.51814 357.588 12.7341 357.588 16.4168C357.588 19.0622 357.095 21.4742 356.11 23.6527C354.969 26.2462 353.335 28.1395 351.208 29.3325C349.133 30.5255 346.488 31.4073 343.272 31.9778L360 54.9303ZM313.395 9.64782V23.1081H336.036C341.119 23.1081 343.661 20.9295 343.661 16.5725C343.661 11.956 340.938 9.64782 335.491 9.64782H313.395Z" fill="#7B7B7B"/>
</svg>
