<svg width="282" height="116" viewBox="0 0 282 116" fill="none" xmlns="http://www.w3.org/2000/svg">
<path d="M21.5666 92H5.71535V26.5556H21.5666V92ZM33.0582 26.5556H56.418C61.6708 26.5556 65.6877 27.6679 68.4687 29.8927C71.3114 32.1174 72.7327 35.2691 72.7327 39.3478V43.7973C72.7327 47.9996 72.053 51.0586 70.6934 52.9743C69.3956 54.8283 67.14 56.2806 63.9265 57.3311C67.6344 58.2581 70.1681 59.7722 71.5277 61.8733C72.8872 63.9745 73.567 67.0644 73.567 71.1431V74.1094C73.567 78.0027 73.1653 81.2162 72.362 83.7499C71.5586 86.2219 70.3226 88.0449 68.6541 89.2191C67.0473 90.3314 65.3787 91.073 63.6484 91.4438C61.9798 91.8146 59.8787 92 57.345 92H33.0582V26.5556ZM47.8898 38.1427V52.1401H54.3786C56.2326 52.1401 57.4068 51.6148 57.9011 50.5642C58.4573 49.5136 58.7354 47.6597 58.7354 45.0024C58.7354 42.345 58.3955 40.5529 57.7158 39.6259C57.0978 38.6371 55.8309 38.1427 53.9152 38.1427H47.8898ZM47.8898 63.6346V80.2274H54.0079C56.1708 80.2274 57.5304 79.6712 58.0865 78.5589C58.7045 77.4465 59.0135 75.3453 59.0135 72.2554C59.0135 68.8565 58.7354 66.57 58.1792 65.3958C57.6231 64.2216 56.2326 63.6346 54.0079 63.6346H47.8898ZM126.137 92H110.656L108.431 77.0757H96.2881L93.9706 92H78.4901L91.7459 26.5556H112.881L126.137 92ZM106.856 66.0447L102.499 36.9377L98.0493 66.0447H106.856Z" fill="#7B7B7B"/>
<path d="M165.265 60.2368L156.366 74.6358L159.517 91.6304H151.793L150.742 78.9617L144.624 91.6304H136.837L147.343 74.6358L144.871 60.2368H152.287L152.967 70.7425L157.849 60.2368H165.265ZM183.5 91.6304H176.207L180.162 74.3886L170.645 88.4169L169.904 91.6304H162.612L169.78 60.2368H177.073L173.117 77.355L182.696 63.5121L183.438 60.2368H190.73L183.5 91.6304ZM220.933 91.6304H213.641L220.13 66.2313L208.45 91.6304H201.652C201.611 76.1396 201.59 67.5702 201.59 65.9223L196.214 91.6304H189.045L196.214 60.2368H207.832L207.337 81.4336L216.669 60.2368H228.163L220.933 91.6304ZM247.41 91.6304H240.118L244.073 74.3886L234.556 88.4169L233.814 91.6304H226.522L233.691 60.2368H240.983L237.028 77.355L246.607 63.5121L247.348 60.2368H254.641L247.41 91.6304ZM255.675 83.5348L256.107 81.7426C256.684 79.0647 258.147 77.6021 260.495 77.355C258.971 76.3662 258.208 74.8212 258.208 72.7201C258.208 71.6489 258.353 70.5365 258.641 69.383L259.074 67.529C259.692 64.8511 260.619 62.9765 261.855 61.9054C263.132 60.793 265.192 60.2368 268.034 60.2368H281.136L273.843 91.6304H266.613L269.394 79.5797H266.489C265.418 79.5797 264.635 79.8475 264.141 80.3831C263.688 80.8775 263.296 81.8868 262.967 83.4112L262.411 86.0067C261.958 88.1491 261.092 89.6734 259.815 90.5798C258.538 91.4862 256.54 91.9394 253.821 91.9394C252.997 91.9394 252.132 91.8982 251.225 91.8158L252.461 86.3775C253.409 86.3775 254.109 86.1921 254.562 85.8213C255.057 85.4505 255.427 84.6884 255.675 83.5348ZM265.192 72.9673C265.192 74.1208 266.057 74.6976 267.787 74.6976H270.568L272.731 65.1189H270.012C268.817 65.1189 267.931 65.3249 267.355 65.7369C266.778 66.1077 266.366 66.8492 266.119 67.9616L265.377 71.4841C265.253 72.1021 265.192 72.5965 265.192 72.9673Z" fill="#7B7B7B"/>
</svg>
