<svg width="240" height="57" viewBox="0 0 240 57" fill="none" xmlns="http://www.w3.org/2000/svg">
<path d="M44.5323 55H34.771C35.2215 31.6729 35.5218 16.3551 35.672 9.04659L27.1121 55H18.0265L9.2413 9.04659C9.59171 30.9721 9.842 46.2899 9.99217 55H0.381004V1.98839H16.2995L22.5317 39.0815L28.8391 1.98839H44.5323V55ZM82.073 55H72.1615L70.885 46.365H61.8745L60.4479 55H50.6865L60.9735 1.98839H72.1615L82.073 55ZM69.8338 38.1805L66.605 15.429L63.0759 38.1805H69.8338ZM119.242 55H108.504L102.272 36.6036L95.9647 55H85.3774L97.0911 26.7672L86.6539 1.98839H97.3163L102.347 16.9308L107.453 1.98839H118.115L107.528 27.0675L119.242 55ZM133.697 55H124.011V1.98839H133.697V55ZM167 9.64729H157.163V55H147.327V9.64729H137.565V1.98839H167V9.64729ZM170.49 43.8871V13.9273C170.49 9.72238 171.616 6.49362 173.869 4.241C176.122 1.98839 179.951 0.862081 185.357 0.862081C189.913 0.862081 193.467 1.88827 196.02 3.94066C198.573 5.94298 199.849 8.9715 199.849 13.0262V43.7369C199.849 51.9965 194.994 56.1263 185.282 56.1263C175.421 56.1263 170.49 52.0466 170.49 43.8871ZM190.013 42.2352V14.9034C190.013 13.9523 189.988 13.2014 189.938 12.6508C189.888 12.1001 189.712 11.4244 189.412 10.6234C189.162 9.82249 188.686 9.24682 187.985 8.89642C187.285 8.49595 186.383 8.29572 185.282 8.29572C184.331 8.29572 183.505 8.47092 182.804 8.82133C182.154 9.12168 181.653 9.47209 181.303 9.87255C181.002 10.273 180.752 10.8487 180.552 11.5996C180.402 12.3504 180.301 12.9511 180.251 13.4017C180.251 13.8522 180.251 14.4779 180.251 15.2788V42.0099C180.251 43.3114 180.301 44.3626 180.402 45.1636C180.552 45.9144 181.002 46.6653 181.753 47.4162C182.554 48.117 183.705 48.4674 185.207 48.4674C186.358 48.4674 187.285 48.2922 187.985 47.9418C188.686 47.5413 189.162 46.9657 189.412 46.2148C189.712 45.4639 189.888 44.8382 189.938 44.3376C189.988 43.837 190.013 43.1362 190.013 42.2352ZM239.619 55H227.305L217.919 15.2788C218.219 31.6479 218.494 44.8882 218.745 55H209.584V1.98839H222.124L231.66 40.8836C231.109 19.4587 230.784 6.49362 230.684 1.98839H239.619V55Z" fill="#7B7B7B"/>
</svg>
