<svg width="322" height="65" viewBox="0 0 322 65" fill="none" xmlns="http://www.w3.org/2000/svg">
<g clip-path="url(#clip0_1162_4851)">
<path d="M198.663 22.9272L198.75 16.2592L202.801 16.3493C205.351 16.3493 207.23 16.9412 208.38 18.1077C208.91 18.732 209.314 19.4195 209.58 20.1463C209.838 20.8594 209.964 21.8077 209.971 22.9272H198.663ZM210.207 17.1087C208.653 15.3107 205.987 14.4005 202.29 14.4005H196.559L196.471 24.8988L212.484 24.9889V24.8988C212.484 23.1543 212.268 21.5773 211.839 20.2101C211.409 18.8414 210.857 17.7975 210.207 17.1087ZM209.984 39.2705C209.984 42.7519 208.945 44.9436 206.898 45.7758C205.952 46.1967 203.703 46.4092 200.213 46.4092H198.331L198.42 38.808C198.42 37.2317 197.582 36.2313 195.928 35.8381L185.392 32.9431C183.609 32.4411 182.374 31.8506 181.729 31.1881C181.045 30.3677 180.698 29.1043 180.698 27.4374V24.3914C180.698 20.7591 181.745 18.3928 183.808 17.3545C184.995 16.6863 187.321 16.3493 190.727 16.3493H192.017L191.928 23.9656C191.928 25.0816 192.178 25.8612 192.674 26.2764C193.164 26.6863 194.05 27.0636 195.31 27.3993C195.311 27.3993 205.326 29.8866 205.326 29.8866C208.417 30.7693 209.984 32.7402 209.984 35.7502V39.2705ZM206.333 28.0133L197.158 25.6201C195.056 25.0511 193.989 24.2771 193.989 23.3239V14.487L190.059 14.4005C186.392 14.4005 183.794 14.7674 182.337 15.4908C179.881 16.8614 178.637 19.5407 178.637 23.4554V27.7177C178.637 29.6388 179.06 31.1881 179.897 32.32C180.731 33.4532 182.069 34.2459 183.868 34.6751L195.226 37.6713C195.219 37.6679 195.726 37.8596 195.726 37.8596C196.215 38.1767 196.471 38.801 196.471 39.7045V48.3808L201.121 48.4708C204.754 48.4708 207.24 48.0983 208.515 47.3667C210.856 46.025 212.041 43.3133 212.041 39.3044V34.9886C212.041 31.3162 210.12 28.9695 206.333 28.0133ZM192.35 39.7183C192.35 39.7183 192.265 46.2361 192.261 46.4092H188.067C185.465 46.4092 183.544 45.8194 182.357 44.6529C181.722 43.9502 181.281 43.213 181.05 42.4667C180.813 41.7142 180.698 40.7865 180.698 39.6304L192.35 39.7183ZM179.248 42.5082C179.65 43.8526 180.182 44.9312 180.825 45.7156C182.452 47.5445 185.008 48.4708 188.418 48.4708H193.989V37.7475L178.725 37.661C178.637 39.5695 178.842 41.1707 179.248 42.5082ZM216.855 16.7023L228.507 16.7888C228.507 16.7888 228.42 61.5179 228.42 61.6946H216.766L216.855 16.7023ZM214.685 63.9985L230.501 64.0864L230.589 14.4005H214.772L214.685 63.9985ZM246.251 39.1126C246.251 43.9536 244.002 46.4092 239.566 46.4092H234.71L234.798 16.7023L239.952 16.7923C244.131 16.7923 246.251 19.1391 246.251 23.7705V39.1126ZM239.798 14.4005H232.716L232.629 48.3808L239.293 48.4708C245.35 48.4708 248.421 45.1341 248.421 38.5505V23.9989C248.421 17.6299 245.52 14.4005 239.798 14.4005ZM318.635 46.4092H307.204L307.293 16.2592L311.468 16.3493C316.225 16.3493 318.635 18.9209 318.635 23.9954V46.4092ZM311.006 14.2876H305.211L305.122 48.3808L321.028 48.4708V24.2862C321.028 17.6506 317.655 14.2876 311.006 14.2876ZM289.904 16.37L301.556 16.4579C301.556 16.4579 301.468 46.2327 301.468 46.4092H289.815L289.904 16.37ZM287.733 48.3808L303.55 48.4708L303.639 14.2876H287.822L287.733 48.3808ZM265.242 22.8184H253.704C253.704 22.7823 253.713 22.747 253.713 22.711C253.804 21.9273 253.947 21.0676 254.229 20.2258C254.52 19.3535 254.922 18.6647 255.422 18.1766C256.591 17.0378 258.505 16.4577 261.111 16.4577H265.328C265.328 16.4577 265.243 22.6446 265.242 22.8184ZM251.487 24.6993H251.482C251.486 24.6502 251.493 24.6078 251.496 24.558C251.495 24.6085 251.487 24.6495 251.487 24.6993ZM253.662 17.0518C252.884 18.0416 252.308 19.159 251.943 20.3816C251.58 21.6 251.395 23.0807 251.395 24.7879L267.411 24.8758V14.4868L261.55 14.4004C257.951 14.4004 255.298 15.2913 253.662 17.0518ZM271.62 16.4806L283.272 16.5671C283.272 16.5671 283.184 46.2325 283.184 46.409H271.531L271.62 16.4806ZM269.449 48.3806L285.266 48.4707L285.355 14.4004H269.538L269.449 48.3806ZM167.39 14.4004H160.324L160.235 48.3806L166.88 48.4707C172.979 48.4707 176.072 45.1339 176.072 38.5503V23.9987C176.072 17.6297 173.15 14.4004 167.39 14.4004ZM265.24 46.409H260.139C255.716 46.409 253.564 44.0539 253.564 39.2115V35.6289C253.564 33.7009 254.075 32.1066 255.081 30.8902C256.168 29.7687 257.61 29.1977 259.368 29.1977H265.328C265.328 29.1977 265.242 46.2346 265.24 46.409ZM253.467 29.5281C252.092 31.119 251.395 33.2683 251.395 35.9178V39.1769C251.395 45.343 254.424 48.4708 260.396 48.4708H267.411V27.2249L259.368 27.1363C256.921 27.1363 254.936 27.9414 253.467 29.5281ZM95.9333 14.4005H88.8687L88.7808 48.3808L95.4233 48.4708C101.523 48.4708 104.617 45.1341 104.617 38.5505V23.9989C104.617 17.6299 101.695 14.4005 95.9333 14.4005ZM142.91 23.9989V38.5505C142.91 45.1341 146.025 48.4708 152.169 48.4708H158.861V14.487L151.655 14.4005C145.852 14.4005 142.91 17.6299 142.91 23.9989ZM68.819 20.3332C68.3518 18.8809 67.7876 17.7961 67.1416 17.1051C65.6035 15.3107 62.9659 14.4005 59.3059 14.4005H53.634L53.5461 31.4582L69.3347 31.5447L69.1734 25.2035C69.0648 22.3942 68.9493 20.8006 68.819 20.3332ZM71.4545 23.9989V38.5505C71.4545 45.1341 74.5699 48.4708 80.7124 48.4708H87.4066V14.487L80.1979 14.4005C74.3974 14.4005 71.4545 17.6299 71.4545 23.9989ZM29.5573 30.6322C29.5671 30.6433 29.5747 30.6538 29.5899 30.6688L29.5497 30.6378L29.5573 30.6322ZM17.833 48.3808L33.6723 48.4708V35.809C33.6723 34.6842 33.3421 33.7392 32.6892 33.0046C32.6789 32.9949 29.7408 30.6759 29.6259 30.5845C29.7824 30.4771 29.9098 30.3865 30.0551 30.2853C31.5124 29.3785 32.4629 28.6384 32.8195 28.2079C33.3871 27.4638 33.6723 26.5215 33.6723 25.4041V14.4261L17.9209 14.3382L17.833 48.3808ZM36.0454 48.3808L51.8618 48.4708L51.9504 14.4005H36.1333L36.0454 48.3808ZM107.181 48.3808L122.887 48.4708L122.976 14.2876H107.269L107.181 48.3808ZM130.452 14.2876H124.659L124.571 48.3808L140.469 48.4708V24.2862C140.469 17.6506 137.1 14.2876 130.452 14.2876ZM0 48.3808L15.9272 48.4708L16.0158 0.00121307H0.0886112L0 48.3808Z" fill="#7B7B7B"/>
</g>
<defs>
<clipPath id="clip0_1162_4851">
<rect width="321.029" height="64.0848" fill="white"/>
</clipPath>
</defs>
</svg>
