<svg width="213" height="50" viewBox="0 0 213 50" fill="none" xmlns="http://www.w3.org/2000/svg">
<g clip-path="url(#clip0_1162_4843)">
<path d="M47.1079 0.135742H210.733V16.7242H47.1079V0.135742Z" fill="#7B7B7B"/>
<path d="M47.1079 33.685V49.0505H76.244C76.244 49.0505 76.244 46.0864 76.244 45.7807C76.244 45.475 76.0579 45.3686 75.8187 45.3553C75.5927 45.3553 56.7313 45.3553 56.7313 45.3553V39.8657H73.2799V36.6358C73.2799 36.3567 73.1337 36.2104 72.8545 36.2104H56.7446V30.5879H76.244V27.3181C76.244 27.0257 76.0579 26.9326 75.8187 26.9326H53.8204C50.0986 26.9326 47.1079 29.9499 47.1079 33.685Z" fill="#7B7B7B"/>
<path d="M86.9149 26.9303H109.166C109.445 26.9303 109.604 27.0366 109.604 27.3158V30.5723H89.8258V44.9941H105.803V39.8368H95.9269V36.6069C95.9269 36.3809 96.0864 36.1948 96.3788 36.1948C98.8511 36.1948 108.98 36.1948 109.192 36.1948C109.418 36.1948 109.631 36.3942 109.631 36.6202V49.0349H80.229V33.6693C80.229 29.9476 83.233 26.917 86.9415 26.917L86.9149 26.9303Z" fill="#7B7B7B"/>
<path d="M120.769 26.9303H143.019C143.299 26.9303 143.458 27.0366 143.458 27.3158V30.5723H123.68V44.9941H139.643V39.8368H129.767C129.767 39.8368 129.767 36.8328 129.767 36.6202C129.767 36.4075 129.914 36.1948 130.206 36.1948C132.678 36.1948 142.82 36.1948 143.019 36.1948C143.245 36.1948 143.458 36.3942 143.458 36.6202V49.0349H114.056V33.6693C114.056 29.9476 117.06 26.917 120.769 26.917V26.9303Z" fill="#7B7B7B"/>
<path d="M147.94 33.685V49.0505H177.09V45.7807C177.09 45.4883 176.904 45.3686 176.664 45.3553C176.439 45.3553 157.577 45.3553 157.577 45.3553V39.8525H174.126V36.6358C174.126 36.3567 173.979 36.2104 173.7 36.2104H157.577V30.5879H177.077V27.3181C177.077 27.0257 176.89 26.9326 176.651 26.9326H154.64C150.931 26.9326 147.94 29.9499 147.94 33.685Z" fill="#7B7B7B"/>
<path d="M-0.000976562 26.9326H32.0859V31.0531H15.0456V35.8781H32.0859V40.1449H15.1253V44.93H32.0859V49.0505L-0.000976562 49.0372V26.9326Z" fill="#7B7B7B"/>
<path fill-rule="evenodd" clip-rule="evenodd" d="M203.606 36.2214C204.629 36.2214 206.091 35.158 206.091 33.4035C206.091 31.4629 204.722 30.5989 203.606 30.5989H190.619V36.2214H203.606ZM204.922 26.9303C208.125 26.9303 210.73 30.1735 210.73 33.3902C210.73 36.6069 208.112 39.8501 204.908 39.8501H202.29L212.192 48.2507C212.192 48.2507 213.176 49.0349 212.139 49.0349H201.612C201.173 49.0349 200.974 48.7824 200.522 48.4235C200.868 48.6627 190.619 39.8501 190.619 39.8501V49.0349H181.009V33.6693C181.009 29.9476 184 26.917 187.708 26.917H204.935L204.922 26.9303Z" fill="#7B7B7B"/>
</g>
<defs>
<clipPath id="clip0_1162_4843">
<rect width="212.672" height="49.1804" fill="white"/>
</clipPath>
</defs>
</svg>
