<svg width="285" height="73" viewBox="0 0 285 73" fill="none" xmlns="http://www.w3.org/2000/svg">
<path d="M218.062 14.2833C149.976 21.1222 73.871 28.2032 10.9593 16.4621C7.96354 15.9174 6.29921 12.2256 4.90723 11.9835C67.5465 23.6944 143.652 16.5226 211.466 9.714C214.038 9.44166 217.185 14.3741 218.062 14.2531V14.2833Z" fill="#7B7B7B"/>
<path d="M68.4546 65.0878C136.541 58.2489 212.646 51.1377 275.527 62.8788C278.553 63.484 280.218 67.1153 281.61 67.3876C218.94 55.6768 142.865 62.8485 75.0514 69.6572C72.4792 69.8992 69.3321 64.997 68.4546 65.1181V65.0878Z" fill="#7B7B7B"/>
<path d="M80.0472 48.4737H41.7979V2.71973H56.2019V39.8797H80.0472V48.4737ZM94.9959 45.0845C94.3907 45.2963 93.8157 45.3871 93.2408 45.3871C92.2119 45.3871 91.4251 45.266 90.8804 44.9634C90.366 44.6608 90.0937 44.1161 90.0937 43.3294C90.0763 42.8486 90.2504 42.3806 90.5778 42.0282C90.8804 41.7256 91.3344 41.4532 91.9093 41.3019C92.575 41.1203 93.2408 40.9993 93.9368 40.9085L96.6602 40.6664V44.2069C96.1628 44.6045 95.5994 44.9117 94.9959 45.1147V45.0845ZM96.6299 48.6552H103.287V37.0957C103.287 35.0985 102.44 33.6157 100.776 32.6474C98.275 31.5062 95.5291 31.007 92.7868 31.1949C90.2438 31.2336 87.7104 31.5174 85.2217 32.0422V36.1274H85.7664C86.765 35.7642 87.7636 35.4616 88.7925 35.2195C90.9706 34.6977 93.249 34.7709 95.3893 35.4314C96.2365 35.7945 96.6602 36.43 96.6602 37.3983V37.4891C94.7538 37.5799 92.9987 37.7312 91.3343 37.9127C89.67 38.0943 88.2478 38.4272 87.0676 38.8811C86.0135 39.2466 85.0742 39.8833 84.3442 40.727C83.739 41.5137 83.4363 42.5426 83.4363 43.7833C83.4363 45.3266 84.0416 46.5975 85.252 47.5961C86.4927 48.5947 88.0359 49.1091 89.9121 49.1091C91.8415 49.1311 93.7421 48.6403 95.4195 47.6869L96.6299 46.8699V48.6855V48.6552ZM133.487 48.6552V40.1823L133.457 38.064C133.439 37.5598 133.315 37.0649 133.094 36.6115C132.901 36.256 132.591 35.978 132.216 35.8248C131.683 35.6367 131.117 35.5545 130.552 35.5827C130.068 35.5827 129.553 35.6735 129.039 35.855C128.585 36.0366 128.04 36.2787 127.465 36.6115V48.6552H120.808V40.1823C120.808 39.335 120.808 38.639 120.748 38.064C120.717 37.4588 120.596 37.0049 120.415 36.6115C120.214 36.2507 119.893 35.9721 119.507 35.8248C118.983 35.6391 118.428 35.5569 117.873 35.5827C117.328 35.5827 116.814 35.6735 116.299 35.8853C115.785 36.0971 115.27 36.3392 114.786 36.6115V48.6552H108.129V31.7093H114.786V33.525C115.876 32.7987 116.904 32.2238 117.843 31.8304C118.811 31.4067 119.87 31.1949 121.08 31.1949C122.351 31.1949 123.501 31.437 124.47 31.9514C125.468 32.4356 126.194 33.1618 126.739 34.1302C128.01 33.2223 129.19 32.4658 130.31 31.9514C132.204 31.0547 134.368 30.914 136.362 31.558C137.116 31.7928 137.807 32.1952 138.384 32.735C138.96 33.2747 139.407 33.9379 139.691 34.6749C139.993 35.4011 140.145 36.3997 140.145 37.6101V48.6552H133.487ZM155.941 45.0845C155.335 45.2963 154.73 45.3871 154.185 45.3871C153.157 45.3871 152.37 45.266 151.825 44.9634C151.311 44.6608 151.038 44.1161 151.038 43.3294C151.021 42.8486 151.195 42.3806 151.523 42.0282C151.825 41.7256 152.279 41.4532 152.854 41.3019C153.52 41.1203 154.185 40.9993 154.881 40.9085L157.575 40.6664V44.2069C157.086 44.6014 156.534 44.9086 155.941 45.1147V45.0845ZM157.575 48.6552H164.232V37.0957C164.232 35.0985 163.385 33.6157 161.72 32.6474C159.22 31.5062 156.474 31.007 153.732 31.1949C151.189 31.2358 148.655 31.5196 146.166 32.0422V36.1274H146.711C147.679 35.7642 148.708 35.4616 149.737 35.2195C151.915 34.6977 154.194 34.7709 156.334 35.4314C157.181 35.7945 157.605 36.43 157.605 37.3983V37.4891C155.699 37.5799 153.913 37.7312 152.279 37.9127C150.615 38.0943 149.192 38.4272 147.982 38.8811C146.802 39.335 145.924 39.9402 145.259 40.727C144.653 41.5137 144.351 42.5426 144.351 43.7833C144.351 45.3266 144.956 46.5975 146.197 47.5961C147.407 48.5947 148.981 49.1091 150.857 49.1091C151.855 49.1091 152.642 49.0486 153.187 48.9276C154.304 48.682 155.376 48.2634 156.364 47.6869L157.575 46.8699V48.6855V48.6552ZM183.326 36.6721H182.751C181.868 36.5562 180.979 36.4855 180.089 36.4602C178.602 36.5829 177.132 36.8567 175.701 37.2773V48.6552H169.104V31.7093H175.761V34.1302C176.622 33.5102 177.533 32.9636 178.485 32.4961C179.769 31.8572 181.198 31.5651 182.63 31.6488L183.326 31.7093V36.6721ZM195.098 49.0184C192.374 49.0184 190.438 48.5644 189.197 47.6869C187.986 46.7791 187.381 45.3266 187.381 43.3294V35.3708H184.809V31.6791H187.351V26.8374H194.008V31.6791H200.333V35.3708H193.978V41.423L194.008 42.9662C194.008 43.4202 194.129 43.8135 194.311 44.1767C194.493 44.5095 194.795 44.7819 195.219 44.9937C195.703 45.2055 196.338 45.2963 197.186 45.2963C197.549 45.2963 198.003 45.266 198.578 45.145L199.788 44.8424H200.333V48.5342C198.605 48.8482 196.854 49.0102 195.098 49.0184ZM224.481 31.6791L206.476 71.0178L199.879 71.4111L210.47 48.7157L202.058 31.6791H209.018L213.466 42.3005L217.642 31.7093H224.481V31.6791Z" fill="#7B7B7B"/>
</svg>
